<svg width="32" height="32" viewBox="0 0 32 32" fill="none" xmlns="http://www.w3.org/2000/svg">
<path d="M20.5 2.5H11.5C9.1139 2.50278 6.82633 3.45188 5.13911 5.13911C3.45188 6.82633 2.50278 9.1139 2.5 11.5V20.5C2.50278 22.8861 3.45188 25.1737 5.13911 26.8609C6.82633 28.5481 9.1139 29.4972 11.5 29.5H20.5C22.8861 29.4972 25.1737 28.5481 26.8609 26.8609C28.5481 25.1737 29.4972 22.8861 29.5 20.5V11.5C29.4972 9.1139 28.5481 6.82633 26.8609 5.13911C25.1737 3.45188 22.8861 2.50278 20.5 2.5ZM27.5 20.5C27.498 22.3559 26.7599 24.1352 25.4476 25.4476C24.1352 26.7599 22.3559 27.498 20.5 27.5H14.5C12.3783 27.5 10.3434 26.6571 8.84315 25.1569C7.34285 23.6566 6.5 21.6217 6.5 19.5C6.5 17.282 6.6715 15.286 4.5 13.631V11.5C4.50199 9.64409 5.24012 7.86477 6.55245 6.55245C7.86477 5.24012 9.64409 4.50199 11.5 4.5H20.5C22.3559 4.50199 24.1352 5.24012 25.4476 6.55245C26.7599 7.86477 27.498 9.64409 27.5 11.5V20.5ZM22.87 16C22.87 16.2652 22.7646 16.5196 22.5771 16.7071C22.3896 16.8946 22.1352 17 21.87 17H12.2745L15.6 20.9645C15.6891 21.0644 15.7572 21.1811 15.8003 21.3078C15.8434 21.4345 15.8606 21.5686 15.851 21.702C15.8414 21.8355 15.805 21.9657 15.7442 22.0849C15.6833 22.204 15.5991 22.3098 15.4966 22.3958C15.3941 22.4819 15.2754 22.5465 15.1475 22.5858C15.0196 22.6252 14.8851 22.6384 14.752 22.6248C14.6188 22.6112 14.4898 22.571 14.3725 22.5067C14.2552 22.4423 14.152 22.355 14.069 22.25L9.3635 16.643C9.3605 16.6395 9.359 16.635 9.356 16.6315C9.3445 16.6175 9.335 16.6025 9.3245 16.588C9.307 16.5645 9.2915 16.538 9.2745 16.515C9.2645 16.498 9.2525 16.4825 9.243 16.465C9.2335 16.4475 9.2305 16.436 9.2235 16.421C9.21129 16.3951 9.2006 16.3686 9.1915 16.3415C9.1845 16.322 9.175 16.3035 9.1695 16.2835C9.164 16.2635 9.163 16.2535 9.1595 16.238C9.15263 16.2108 9.14729 16.1833 9.1435 16.1555C9.14 16.1355 9.135 16.1155 9.133 16.095C9.131 16.0745 9.133 16.059 9.133 16.041C9.133 16.023 9.1285 16.014 9.1285 16C9.1285 15.986 9.132 15.973 9.133 15.959C9.134 15.945 9.133 15.923 9.133 15.905C9.133 15.887 9.14 15.8645 9.1435 15.8445C9.14729 15.8167 9.15263 15.7892 9.1595 15.762C9.163 15.7465 9.165 15.7315 9.1695 15.7165C9.174 15.7015 9.1845 15.678 9.1915 15.6585C9.1985 15.639 9.2115 15.6045 9.2235 15.579C9.2305 15.564 9.2355 15.5495 9.243 15.535C9.2505 15.5205 9.2645 15.502 9.2745 15.485C9.2895 15.46 9.305 15.435 9.3245 15.412C9.335 15.3975 9.3445 15.3825 9.356 15.3685C9.359 15.365 9.3605 15.3605 9.3635 15.357L14.069 9.75C14.2421 9.55588 14.484 9.43683 14.7434 9.41809C15.0028 9.39936 15.2593 9.48242 15.4584 9.64966C15.6576 9.8169 15.7838 10.0551 15.8102 10.3139C15.8367 10.5726 15.7612 10.8314 15.6 11.0355L12.2745 15H21.87C22.1352 15 22.3896 15.1054 22.5771 15.2929C22.7646 15.4804 22.87 15.7348 22.87 16Z" fill="#311C11"/>
</svg>
