<svg width="338" height="582" viewBox="0 0 338 582" fill="none" xmlns="http://www.w3.org/2000/svg">
<g opacity="0.1">
<path fill-rule="evenodd" clip-rule="evenodd" d="M172.266 581.98C169.817 581.98 167.54 581.98 165.238 581.98C164.82 579.051 164.5 576.135 163.959 573.275C162.506 565.546 158.334 559.757 153.141 554.696C148.206 549.883 143.074 545.249 138.532 539.995C134.422 535.251 133.13 529.021 133.265 522.421C133.29 521.252 132.797 519.588 132.01 518.941C122.373 510.979 119.333 501.174 122.755 488.44C122.903 487.89 123.062 487.353 123.087 487.257C117.795 484.163 112.479 481.632 107.691 478.153C96.3441 469.916 89.3537 458.034 85.797 443.512C85.5509 442.495 84.6155 441.271 83.754 440.941C72.3824 436.581 62.3768 429.747 53.9835 420.175C43.5103 408.225 36.7414 393.923 33.517 377.572C30.8095 363.806 30.9941 350.054 33.6401 336.302C33.7877 335.519 33.0863 334.157 32.4217 333.635C24.5821 327.419 17.9364 319.924 12.6198 310.958C6.38014 300.41 2.46651 288.886 0.866599 276.344C-2.12399 252.938 2.6265 231.692 15.1058 212.673C17.9241 208.382 21.3577 204.532 24.7667 200.778C26.3174 199.072 26.6866 197.752 26.0959 195.414C22.8345 182.721 21.37 169.712 22.933 156.62C27.1666 121.003 43.6703 95.3418 73.5393 81.1224C85.1078 75.6079 97.3409 73.5176 109.882 73.8064C111.605 73.8476 112.454 73.3251 113.229 71.4823C118.497 59.1331 127.21 51.5146 139.185 48.7367C141.301 48.2416 142.471 47.3202 143.061 44.8587C145.055 36.6488 149.953 30.4467 154.888 24.2996C158.827 19.4177 162.556 14.357 163.971 7.75606C164.5 5.28072 164.771 2.70912 165.189 0C167.392 0 169.743 0 172.352 0C171.97 12.4042 179.158 20.3665 185.742 28.6864C189.532 33.4858 192.757 38.7253 194.184 44.9962C194.763 47.5953 196.129 48.2691 198.172 48.7367C205.765 50.4557 212.448 54.2649 217.555 60.8246C220.029 64.0013 222.072 67.673 223.918 71.3723C224.829 73.2013 225.678 73.8476 227.499 73.8064C244.052 73.5176 259.756 77.3544 274.106 86.7607C294.806 100.32 307.581 120.453 312.811 146.568C316.146 163.249 315.1 179.806 311.014 196.157C310.547 198.013 310.83 199.045 312.036 200.255C326.164 214.516 334.742 232.297 336.662 253.379C339.628 285.957 329.549 312.704 305.882 332.534C303.692 334.363 303.446 335.917 303.926 338.819C308.701 367.959 303.347 394.28 285.785 416.985C277.047 428.275 266.119 435.949 253.578 440.886C252.729 441.216 251.695 442.192 251.486 443.086C246.452 464.291 234.465 478.249 216.152 485.689C215.574 485.923 215.008 486.198 214.442 486.473C214.356 486.514 214.306 486.597 214.429 486.473C214.872 490.516 215.611 494.394 215.66 498.286C215.783 507.046 211.906 513.496 205.704 518.501C204.904 519.148 203.932 520.44 203.993 521.362C204.732 533.587 198.726 541.536 190.898 548.687C186.111 553.046 181.484 557.763 177.459 562.989C173.435 568.214 172.426 575.035 172.266 581.98ZM201.753 481.44C202.75 481.124 203.427 480.89 204.104 480.697C212.743 478.222 221.124 475.045 228.385 468.994C237.813 461.142 242.502 450.127 244.778 437.626C245.16 435.536 245.923 434.711 247.671 434.106C271.214 425.951 287.114 408.94 294.843 382.674C299.692 366.185 298.892 349.614 295.04 333.071C294.659 331.421 294.806 330.623 296.123 329.743C298.412 328.216 300.64 326.539 302.72 324.71C323.9 306.213 332.404 281.735 329.118 252.292C326.866 232.146 317.476 216.138 303.643 203.322C301.944 201.74 301.883 200.503 302.474 198.398C307.126 181.759 308.873 164.885 305.464 147.654C301.587 128.085 292.48 112.133 278.401 99.8662C261.873 85.4542 242.625 81.3562 222.207 82.3876C220.361 82.4838 219.598 82.0438 218.971 80.036C216.362 71.6748 212.546 64.015 204.965 60.3158C200.424 58.1017 195.292 57.3866 190.455 55.8739C189.705 55.6401 188.622 54.8425 188.536 54.1824C187.428 45.1337 183.33 37.914 177.964 31.2993C174.604 27.16 171.601 22.6906 168.611 18.6063C165.645 22.6494 162.802 26.8437 159.651 30.7355C154.138 37.5702 149.756 44.9687 148.661 54.3612C148.587 54.9663 147.393 55.6539 146.618 55.8877C142.089 57.2216 137.326 57.8542 133.043 59.8207C124.909 63.5887 120.884 71.6061 118.115 80.4348C117.574 82.1675 116.946 82.4838 115.469 82.3738C106.903 81.7 98.4117 82.4013 90.006 84.2578C71.5825 88.3284 56.4941 98.546 45.1348 115.337C35.5599 129.515 30.4156 145.495 30.0341 163.317C29.7757 175.529 31.4987 187.424 34.9569 199.004C35.4615 200.695 35.3999 201.795 33.9354 202.95C32.1386 204.367 30.6002 206.21 28.9757 207.915C7.21699 230.743 2.06038 264.119 12.6444 293.493C18.281 309.156 28.3112 320.708 40.9135 329.633C42.2549 330.582 42.5503 331.297 42.218 333.126C41.0735 339.534 39.9166 345.97 39.3874 352.461C37.8121 371.947 42.5872 389.605 52.6174 405.461C61.8476 420.065 74.7084 429.004 89.846 434.147C91.3967 434.67 92.0366 435.44 92.3812 437.324C93.9319 445.74 96.4794 453.744 101.279 460.633C107.654 469.778 116.318 474.949 125.992 478.359C129.056 479.432 132.145 480.367 135.271 481.385C133.979 483.31 132.748 484.905 131.764 486.652C127.038 495.068 128.514 505.629 135.874 510.883C139.862 513.729 141.523 516.232 141.166 521.843C140.625 530.575 145.067 537.19 151.073 542.512C157.522 548.205 164.451 553.362 168.611 562.246C172.192 554.6 177.767 549.828 183.268 544.974C185.077 543.378 186.886 541.756 188.597 540.037C194.64 534.027 196.88 526.312 196.08 517.525C195.87 515.228 196.154 514.266 198.11 513.358C204.559 510.346 208.793 502.357 208.042 494.999C207.538 489.815 205.298 485.497 201.753 481.44Z" fill="#1B1F3B"/>
<path opacity="0.2" fill-rule="evenodd" clip-rule="evenodd" d="M68.8133 322.386C56.5555 317.751 45.7007 310.999 37.8981 299.365C22.096 275.78 24.8035 243.931 44.2978 223.111C47.0545 220.168 50.0205 217.445 53.0972 214.942C56.174 212.453 59.5215 210.376 62.9059 208.025C60.9737 205.164 58.8569 202.304 57.0232 199.224C52.4696 191.578 49.9097 183.161 48.9744 173.989C48.0637 165.036 48.7898 156.318 51.485 147.929C55.9771 133.957 64.2843 123.368 75.4098 115.365C82.2771 110.428 89.7105 107.058 97.6854 105.463C110.3 102.947 122.595 104.377 134.397 110.194C134.889 110.441 135.382 110.661 135.874 110.854C136.108 110.95 136.379 110.936 137.08 111.033C133.203 102.218 132.526 93.6229 137.88 85.4955C140.563 81.4249 144.206 78.7846 149.449 77.2031C145.646 82.8414 143.443 88.3971 143.11 94.5992C142.778 100.815 143.997 106.77 146.433 112.738C153.202 109.493 158.876 105.188 162.851 98.4085C163.577 97.1708 164.365 95.8919 164.734 94.503C164.968 93.5816 164.832 91.9864 164.278 91.4501C160.352 87.6958 159.663 82.8276 161.14 77.8907C163.097 71.386 165.804 65.1564 168.574 58.8306C171.404 66.1603 175.785 72.5962 176.635 80.6686C177.065 84.8904 176.155 88.5759 173.053 91.2713C171.416 92.6877 172.315 94.0767 172.918 95.4656C175.601 101.654 180.019 106.027 185.163 109.548C186.874 110.716 188.732 111.638 190.874 112.875C195.575 100.416 195.809 88.8097 188.166 77.7532C200.35 78.6745 206.27 94.943 200.215 111.184C201.384 110.744 202.233 110.51 203.021 110.125C227.339 98.326 255.978 104.844 273.933 126.297C281.527 135.374 286.622 145.935 288.148 158.298C290.4 176.616 286.154 192.898 275.115 206.828C274.881 207.131 274.647 207.42 274.426 207.736C274.389 207.791 274.438 207.915 274.426 207.695C279.164 211.325 283.976 214.516 288.308 218.394C300.553 229.382 308.405 243.463 309.476 261.19C310.744 282.202 303.421 299.296 287.963 311.412C282.093 316.018 275.336 319.223 268.888 323.114C279.447 342.601 282.118 363.655 272.432 385.025C262.611 406.685 245.874 416.008 224.25 415.445C224.644 418.016 225.063 420.492 225.395 422.994C227.093 436.017 222.146 445.712 212.706 452.52C206.627 456.906 199.944 460.262 193.483 463.961C187.305 467.509 181.213 471.167 176.512 477.094C173.706 480.629 171.736 484.644 170.678 489.787C174.506 487.697 178.235 486.844 181.422 489.719C183.231 491.355 184.966 493.872 185.52 496.333C186.825 502.137 183.797 508.394 175.97 509.095C176.302 509.851 176.585 510.525 176.893 511.213C178.431 514.623 178.185 517.772 176.265 521.004C173.976 524.868 171.995 528.939 169.841 532.886C169.583 533.353 168.93 533.89 168.537 533.835C168.106 533.78 167.626 533.12 167.355 532.611C165.718 529.475 164.377 526.079 162.457 523.177C158.851 517.759 158.47 515.283 161.423 509.095C157.633 508.696 154.014 507.513 152.685 503.237C151.898 500.693 151.553 497.475 152.218 494.958C153.941 488.412 159.651 486.446 166.568 489.774C165.694 484.562 163.54 480.409 160.562 476.764C155.085 470.108 147.898 466.395 140.871 462.311C134.212 458.447 127.382 454.651 121.438 449.632C112.515 442.096 109.931 431.479 112.528 419.336C112.749 418.277 112.934 417.205 113.118 416.146C113.143 415.981 113.032 415.775 112.958 415.458C91.495 415.981 74.7575 406.74 64.8996 384.833C55.2017 363.449 57.9831 342.615 68.8133 322.386ZM264.322 216.331C261.885 217.637 260.396 218.449 258.882 219.246C244.126 227.002 230.293 236.299 218.331 248.868C208.264 259.443 199.575 271.256 191.809 283.99C190.689 285.833 191.194 287.029 192.228 288.405C197.2 295.061 202.565 301.276 209.125 306.007C209.95 306.598 211.414 306.681 212.386 306.337C215.069 305.374 217.58 303.6 220.3 302.982C225.518 301.771 230.847 301.125 235.831 300.286C226.022 290.261 226.429 279.768 229.591 271.545C233.001 262.661 242.465 255.895 250.427 256.418C250.243 256.679 250.12 256.913 249.947 257.105C241.812 265.948 240.717 276.317 244.815 287.676C248.31 297.371 254.685 304.797 260.814 312.374C265.159 317.751 265.269 317.82 271.349 315.028C275.115 313.296 278.721 311.123 282.401 309.142C275.484 307.382 271.484 302.652 271.731 296.216C271.952 290.357 276.296 285.585 281.601 285.393C284.911 285.283 288.025 286.369 289.711 289.532C291.249 292.393 291.914 295.844 292.874 298.774C300.713 289.959 304.861 271.077 297.957 259.952C295.864 262.152 293.994 264.793 291.606 266.539C283.373 272.549 272.555 269.207 267.202 259.264C262.55 250.601 262.734 241.098 263.411 231.499C263.768 226.714 264.002 221.914 264.322 216.331ZM54.771 308.606C55.2387 309.005 55.534 309.335 55.8909 309.541C59.14 311.357 62.3398 313.337 65.675 314.918C71.89 317.861 72.1484 317.957 76.3943 312.292C81.4033 305.622 86.5353 298.939 90.6335 291.581C95.5194 282.808 96.5532 273.113 91.8519 263.569C90.5351 260.901 88.5536 258.632 86.683 255.909C96.4055 257.257 103.95 261.932 107.74 271.957C111.986 283.193 108.922 292.778 100.516 301.056C109.722 300.314 117.844 302.253 125.524 306.64C126.114 306.983 127.259 306.736 127.874 306.282C134.569 301.249 140.206 294.951 145.313 287.992C146.335 286.617 146.359 285.544 145.461 284.059C133.179 263.747 118.78 245.705 100.061 232.572C91.6919 226.7 82.8186 221.749 73.9083 216.207C72.3453 221.79 73.453 226.59 73.7976 231.376C74.4129 239.847 74.6098 248.222 71.4346 256.28C66.7703 268.148 54.9679 273.03 45.6885 266.525C43.2148 264.793 41.3072 262.042 39.1535 259.787C31.8554 272.947 37.8735 292.489 44.9993 299.186C45.147 290.632 48.4821 285.778 54.5002 285.379C60.1122 285.008 64.8135 289.354 65.478 295.514C66.1918 302.033 62.1552 307.052 54.771 308.606ZM102.891 213.347C101.353 205.742 96.2332 201.658 91.0642 197.56C87.7291 194.906 85.1692 191.536 84.3077 186.916C83.9631 185.059 83.077 184.77 81.4525 184.825C79.4711 184.88 77.2681 184.757 75.5329 183.835C70.6101 181.222 68.6779 174.03 71.09 168.488C73.416 163.125 79.4834 160.718 84.4923 163.345C86.0553 164.156 87.4091 165.463 89.132 166.742C89.7843 158.917 92.3442 152.288 98.2392 147.764C104.011 143.336 110.472 142.442 117.61 143.473C117.352 141.589 116.983 139.98 116.897 138.358C116.503 131.042 120.343 126.49 125.413 123.079C129.167 120.549 133.216 118.569 137.363 116.217C136.366 115.543 135.505 114.842 134.569 114.361C126.028 110.098 117.143 107.884 107.703 108.214C98.8053 108.516 90.5843 111.115 84.0001 117.826C80.7141 121.168 77.2805 122.887 73.1207 124.042C69.8963 124.936 67.3857 127.755 66.7334 131.688C66.0811 135.621 66.4134 139.43 69.4901 142.277C71.7546 144.367 75.2498 144.642 77.9327 142.841C80.2464 141.287 81.6002 138.151 80.9972 134.466C80.1972 135.759 79.6311 136.432 79.3357 137.23C78.4127 139.678 77.0097 141.466 74.536 141.727C70.3639 142.181 67.4595 137.505 68.7517 132.472C70.5854 125.307 79.348 122.694 85.3169 127.549C90.6458 131.894 91.1135 141.328 86.4368 147.75C82.8555 152.646 77.9204 154.956 72.9115 157.253C64.1981 161.241 57.5277 167.443 56.8632 178.747C56.2355 189.267 60.4691 197.903 66.5487 205.522C66.9303 206.003 68.0995 205.921 68.8502 205.77C72.6653 205.013 76.4805 204.133 80.6033 203.239C78.3265 206.65 76.4682 209.428 74.6222 212.205C86.9537 222.121 109.623 221.653 119.973 212.645C117.573 203.858 118.903 195.703 124.133 187.975C121.672 187.658 119.678 187.273 117.684 187.163C114.374 186.971 114.263 186.874 115.211 182.941C122.582 182.941 130.028 182.941 137.425 182.941C140.354 164.596 128.699 143.859 108.097 147.338C100.565 148.617 94.7686 154.516 93.8333 161.365C99.7037 155.355 106.362 155.259 110.509 161.117C114.854 167.237 112.983 173.494 104.922 179.861C110.288 193.104 109.586 206.608 102.891 213.347ZM256.162 134.755C254.87 140.366 261.331 145.399 265.196 143.817C271.004 141.438 272.777 132.871 268.432 127.274C266.02 124.18 262.783 123.451 259.46 122.667C258.439 122.433 257.282 121.869 256.593 121.03C251.522 114.98 245.32 111.253 238.157 109.41C229.013 107.058 219.967 107.925 211.082 110.854C207.242 112.119 203.599 114.113 199.858 115.763C201.187 117.097 202.368 117.565 203.439 118.252C207.574 120.907 211.931 123.231 215.697 126.435C219.684 129.832 221.321 134.727 220.004 140.476C219.795 141.383 219.894 142.36 219.844 143.432C226.921 142.428 233.394 143.363 239.166 147.819C245.024 152.343 247.51 159.013 248.224 167.099C248.926 166.412 249.258 166.109 249.566 165.779C253.43 161.722 258.414 161.021 262.488 163.978C266.599 166.962 268.248 172.339 266.66 177.523C265.048 182.79 261.097 185.444 255.535 184.798C253.873 184.605 253.295 185.472 252.987 186.998C252.101 191.261 249.873 194.534 246.784 197.078C241.492 201.41 235.917 205.412 234.256 214.062C227.081 202.387 226.835 191.248 232.496 179.833C224.607 174.25 222.564 168.007 226.392 161.722C228.176 158.807 230.687 157.28 233.69 156.84C237.677 156.263 240.865 158.202 243.609 161.722C242.981 155.52 237.234 149.235 230.921 147.723C219.352 144.945 209.285 149.648 203.205 161.062C199.673 167.718 198.689 175.089 199.747 183.134C207.464 183.134 214.971 183.134 222.453 183.134C222.453 184.564 222.453 185.623 222.453 186.764C219.414 187.149 216.485 187.535 213.383 187.933C218.441 196.955 219.561 201.19 217.42 212.879C229.444 222.396 252.015 221.35 262.66 212.054C260.79 209.318 258.907 206.553 256.593 203.157C260.839 204.106 264.642 204.766 268.334 205.88C269.86 206.333 270.709 206.045 271.423 204.711C273.835 200.241 276.776 196.006 278.524 191.234C283.225 178.362 279.927 166.467 268.728 159.632C265.097 157.418 261.134 155.891 257.479 153.719C251.35 150.088 247.412 144.711 247.695 136.487C247.867 131.289 250.587 127.521 255.264 125.789C259.522 124.221 264.58 125.527 266.98 129.006C268.9 131.784 269.515 134.92 268.125 138.206C267.202 140.407 265.639 141.782 263.313 141.727C260.137 141.644 258.611 139.485 257.725 136.377C257.565 135.827 256.876 135.47 256.162 134.755ZM125.622 374.67C122.041 371.769 118.792 369.348 115.74 366.653C107.556 359.419 101.944 350.481 102.596 338.255C102.854 333.525 104.257 328.876 105.143 324.173C104.996 324.201 104.479 324.228 103.987 324.352C94.2764 326.731 84.5662 326.47 74.9175 324.091C72.8869 323.596 71.8654 324.187 70.8439 326.071C64.3212 338.076 61.2814 350.976 62.8936 365.016C65.1334 384.503 73.9822 398.832 89.9935 407.166C101.821 413.313 114.164 412.763 126.471 409.132C135.628 406.423 143.553 401.198 150.495 393.689C144.243 386.951 136.932 382.247 129.745 377.366C129.413 377.146 128.711 377.201 128.379 377.448C125.548 379.662 122.435 381.587 120.047 384.297C115.186 389.811 115.9 396.412 121.438 401.074C121.536 401.156 121.487 401.418 121.512 401.61C117.549 402.559 113.869 401.06 111.678 397.223C108.54 391.709 109.82 386.758 113.98 382.275C102.707 382.413 93.1318 378.7 85.6369 369.637C77.5389 359.859 72.7884 346.3 74.5114 338.365C77.5881 342.67 80.9602 346.451 85.6861 348.157C88.5536 349.188 91.5196 349.862 94.3871 350.852C102.325 353.602 109.857 364.494 100.208 372.676C108.331 377.778 116.589 377.929 125.622 374.67ZM263.214 338.338C263.128 349.147 260.051 358.429 254.23 366.515C246.39 377.379 236.028 382.509 223.426 382.261C227.868 388.285 228.472 392.575 225.604 397.168C223.155 401.129 219.315 402.765 216.041 401.61C217.272 399.589 219.032 397.622 219.807 395.271C221.432 390.416 219.463 385.63 214.835 381.739C208.596 376.485 208.596 376.485 203.107 380.35C202.664 380.666 202.159 380.914 201.729 381.257C196.67 385.218 191.624 389.178 186.443 393.249C187.206 394.143 187.44 394.432 187.686 394.693C197.126 404.484 208.374 409.875 221.1 411.346C234.01 412.832 246.071 410.178 256.519 401.046C277.835 382.426 280.013 348.624 265.602 324.998C265.171 324.283 263.633 323.94 262.722 324.132C255.608 325.562 248.507 326.649 241.271 325.631C238.059 325.191 234.871 324.696 231.413 324.187C234.625 331.668 235.634 339.149 233.911 347.001C231.856 356.339 226.256 362.692 219.709 368.234C217.198 370.352 214.565 372.291 211.919 374.354C218.601 378.658 232.902 376.994 236.766 372.36C229.665 366.392 232.237 358.691 236.779 354.812C239.302 352.653 242.428 350.989 245.517 350.137C252.199 348.308 258.119 345.434 262.242 338.998C262.402 338.778 262.673 338.695 263.214 338.338ZM152.538 395.986C147.258 402.353 141.4 407.854 137.314 414.674C129.856 427.134 130.533 437.063 139.763 446.593C141.855 448.752 144.009 450.814 146.15 452.905C149.153 455.848 152.23 458.708 155.171 461.733C161.743 468.486 166.691 476.379 168.5 487.023C171.823 473.45 177.041 466.67 185.213 458.763C189.311 454.802 193.458 450.897 197.372 446.716C205.162 438.424 207.39 431.177 201.852 418.044C198.024 408.981 190.763 403.247 184.339 396.481C177.841 404.594 172.45 413.134 170.001 424.26C173.459 421.564 176.61 420.822 179.798 423.421C182.136 425.332 183.12 427.986 182.628 431.218C181.853 436.292 178.591 438.011 174.296 438.355C175.785 441.903 174.789 444.571 172.893 447.321C171.49 449.37 170.74 451.97 169.657 454.307C169.373 454.913 168.967 455.463 168.623 456.04C168.266 455.463 167.847 454.926 167.577 454.307C166.728 452.272 166.272 449.907 165.041 448.243C162.826 445.245 161.177 442.33 162.912 438.245C158.876 438.135 156.057 436.485 154.79 432.401C153.781 429.141 154.617 426.212 156.796 423.998C159.996 420.739 163.491 421.317 167.257 424.205C164.721 413.162 159.429 404.608 152.538 395.986ZM161.374 254.575C161.706 254.561 162.039 254.534 162.371 254.52C163.454 249.638 164.783 244.797 165.571 239.847C166.358 234.814 166.617 229.67 167.109 224.555C168.217 224.555 169.164 224.555 170.407 224.555C170.703 234.841 171.749 244.894 175.367 254.657C182.16 243.243 187.957 231.733 187.292 217.417C197.076 222.918 206.368 220.113 208.891 211.93C205.273 206.388 201.876 201.19 198.479 195.964C198.406 196.033 198.147 196.308 197.876 196.556C193.778 200.338 189.889 204.449 185.533 207.819C181.557 210.899 176.967 211.903 172.647 208.327C171.072 207.021 169.927 205.041 168.512 203.267C168.143 203.844 167.749 204.463 167.355 205.082C164.168 210.143 160.032 211.738 154.851 209.496C152.574 208.506 150.335 207.103 148.427 205.412C144.969 202.345 141.769 198.921 138.815 195.992C135.345 201.3 131.911 206.54 128.33 212.013C131.911 220.443 138.877 222.492 149.092 218.05C150.408 224.335 151.196 230.949 153.239 237.028C155.294 243.12 158.617 248.73 161.374 254.575ZM199.587 369.128C188.375 353.96 189.385 333.442 198.75 319.14C200.079 317.105 202.652 315.056 202.565 313.117C202.467 310.875 200.153 308.689 198.676 306.598C195.181 301.648 191.612 296.766 187.76 291.416C178.321 310.078 171.576 329.055 170.26 350.591C171.503 349.903 172.266 349.133 173.066 349.092C175.65 348.94 178.456 348.349 180.794 349.229C184.683 350.687 186.554 354.867 186.234 359.447C185.914 364.081 183.588 366.983 179.822 368.702C179.17 369.004 178.419 369.83 178.271 370.558C177.755 373.034 177.435 375.578 177.152 378.108C177.053 378.933 177.102 379.951 177.471 380.611C178.751 382.949 180.204 385.177 181.496 387.281C187.576 381.147 193.507 375.207 199.587 369.128ZM155.811 387.308C157.214 384.915 159.122 382.536 160.057 379.758C160.574 378.232 159.454 376.018 159.134 374.12C159.023 373.446 159.011 372.731 159.073 372.044C159.269 370.16 158.876 369.128 156.968 368.386C152.648 366.722 150.236 361.345 151.135 356.449C151.885 352.365 155.602 347.483 160.525 348.349C162.654 348.72 164.721 349.408 166.998 350.013C165.657 329.069 158.95 310.05 149.412 291.32C144.538 298.278 140.071 304.783 135.443 311.15C134.126 312.965 134.446 313.942 135.739 315.578C145.461 327.873 148.366 341.913 143.529 357.535C142.224 361.743 139.861 365.539 138.003 369.486C143.75 375.22 149.682 381.161 155.811 387.308ZM166.789 182.873C165.915 161.227 162.691 140.861 148.132 124.963C138.815 132.802 135.234 142.882 137.363 155.369C138.914 164.459 142.298 173.191 141.154 182.873C149.793 182.873 158.113 182.873 166.789 182.873ZM189.102 124.977C174.555 140.902 171.306 161.282 170.518 182.763C179.182 182.763 187.575 182.763 196.08 182.763C195.206 174.236 197.446 166.439 199.292 158.587C202.553 144.725 199.07 133.077 189.102 124.977ZM186 121.553C178.678 114.484 172.672 105.931 170.013 94.8605C169.878 94.2829 168.857 93.3891 168.709 93.4853C168.057 93.9254 167.404 94.5855 167.072 95.3418C164.869 100.279 163.171 105.573 160.488 110.153C157.903 114.567 154.322 118.252 150.876 122.639C160.746 133.132 165.571 146.911 168.34 161.777C170.641 154.434 172.29 147.145 175.195 140.544C178.075 133.971 182.21 128.099 186 121.553ZM69.5024 208.987C53.3311 211.765 30.2555 240.713 31.4616 257.697C34.4276 252.32 38.4396 248.895 44.1254 248.497C50.1312 248.07 53.7864 251.825 56.3217 257.862C61.5644 249.886 59.5461 243.037 54.6479 236.244C59.7922 236.065 62.2782 232.709 63.7058 228.089C64.4566 225.655 64.8504 223.083 65.6134 220.649C66.8688 216.592 68.2841 212.618 69.5024 208.987ZM306.03 258.054C305.033 237.894 284.739 212.494 267.485 208.905C268.605 211.683 269.983 214.612 270.98 217.692C271.878 220.47 272.297 223.441 273.01 226.301C274.364 231.664 276.703 235.941 282.438 236.326C276.752 245.774 276.358 252.526 281.035 257.408C286.573 243.848 300.27 247.039 306.03 258.054ZM194.455 229.12C191.821 235.886 189.594 242.212 186.899 248.277C184.745 253.145 181.988 257.683 179.576 262.414C179.231 263.101 178.899 264.188 179.158 264.779C180.684 268.423 182.394 271.985 184.339 276.22C194.578 254.204 207.562 235.694 225.333 221.35C221.838 219.659 218.86 218.229 215.771 216.744C210.614 225.572 203.39 230.028 194.455 229.12ZM152.858 276.042C154.642 272.342 156.303 269.207 157.657 265.907C158.063 264.889 157.99 263.211 157.51 262.221C152.341 251.453 145.4 241.648 143.8 229.161C132.613 229.175 129.524 227.456 121.327 216.757C119.85 217.541 118.361 218.407 116.835 219.136C115.321 219.865 113.771 220.457 111.801 221.309C129.696 235.707 142.729 254.135 152.858 276.042ZM135.025 366.199C146.446 353.217 144.169 328.313 132.083 317.201C121.844 333.222 121.635 353.561 135.025 366.199ZM205.15 317.064C191.465 330.719 192.203 355.83 202.418 366.185C215.746 352.86 215.254 333.291 205.15 317.064ZM161.509 270.775C159.873 273.896 158.506 276.784 156.882 279.493C155.762 281.364 155.75 282.89 156.562 284.967C161.116 296.491 164.734 308.372 166.481 320.887C167.109 325.411 167.823 329.922 168.623 335.271C169.57 328.849 170.284 323.238 171.232 317.669C173.226 306.048 176.696 294.951 180.917 284.128C181.262 283.234 181.434 281.886 181.077 281.102C179.465 277.678 177.644 274.378 175.736 270.747C172.044 279.026 170.961 287.607 170.26 296.174C168.955 296.174 168.007 296.174 166.937 296.174C166.248 287.469 165.164 278.971 161.509 270.775ZM260.679 318.219C248.36 302.335 227.093 301.496 214.294 309.775C228.595 320.034 248.458 322.509 260.679 318.219ZM76.5174 318.246C88.5413 323.114 112.109 318.7 122.915 309.679C109.672 301.483 89.1197 302.459 76.5174 318.246ZM157.534 390.911C163.085 400.276 166.629 410.48 168.647 421.509C170.604 410.453 174.198 400.262 179.736 390.911C178.136 388.45 176.548 386.002 174.912 383.485C172.044 387.831 170.21 392.355 169.743 397.526C169.681 398.186 169.004 398.791 168.623 399.424C168.229 398.791 167.552 398.172 167.491 397.512C167.072 392.328 165.226 387.845 162.359 383.513C160.722 386.002 159.122 388.463 157.534 390.911ZM126.681 207.612C130.508 203.734 132.957 199.457 134.939 194.837C135.16 194.314 134.84 193.159 134.422 192.678C132.773 190.78 131.419 191.963 130.25 193.489C127.296 197.353 125.979 201.809 126.681 207.612ZM201.753 193.558C203.956 198.839 206.454 203.542 210.516 207.433C211.365 200.241 208.916 194.108 204.375 191.495C203.624 192.086 202.836 192.705 201.753 193.558ZM168.721 268.616C172.475 262.524 172.413 257.257 168.401 251.371C166.518 257.174 163.306 262.895 168.721 268.616Z" fill="#1B1F3B"/>
<path d="M164.66 306.173H153.904C134.213 306.173 117.364 298.141 103.371 282.093C89.3784 266.045 82.3757 246.778 82.3757 224.294C82.3757 201.823 89.3661 182.598 103.371 166.618C117.364 150.652 134.213 142.663 153.904 142.663H175.847C195.391 142.663 212.14 150.529 226.06 166.261C239.991 181.993 247.08 201.094 247.375 223.579V237.069H223.746V213.471C223.746 194.851 217.974 178.954 206.442 165.793C194.911 152.633 180.979 146.046 164.66 146.046C148.341 146.046 134.447 152.633 122.989 165.793C111.519 178.954 105.796 194.851 105.796 213.471V235.392C105.796 254.012 115.728 271.202 127.198 284.362C138.655 297.523 148.341 302.817 164.66 302.817H175.847C195.538 302.817 212.387 310.848 226.38 326.897C240.373 342.959 247.375 362.212 247.375 384.696C247.375 407.18 240.373 426.392 226.38 442.371C212.387 458.351 195.538 466.327 175.847 466.327H153.904C134.348 466.327 117.611 458.461 103.691 442.729C89.7599 426.997 82.6588 407.895 82.3757 385.411V371.92H105.796V395.519C105.796 414.139 111.531 430.036 122.989 443.196C134.447 456.357 148.341 462.944 164.66 462.944C180.979 462.944 194.898 456.371 206.442 443.196C217.974 430.036 223.746 414.139 223.746 395.519V373.612C223.746 354.992 217.974 339.095 206.442 325.934C194.911 312.746 180.979 306.173 164.66 306.173Z" fill="#1B1F3B"/>
<path fill-rule="evenodd" clip-rule="evenodd" d="M164.894 312.155C168.919 312.485 185.607 309.995 187.81 311.274C189.139 311.893 189.164 312.072 190.542 312.567C191.367 312.76 192.684 313.53 193.803 313.86C190.21 314.355 161.264 318.109 157.646 318.247C154.015 318.384 150.397 318.329 146.779 318.068C141.917 317.724 137.13 316.775 132.416 315.51C129.167 314.63 125.967 313.475 122.805 312.155C119.359 310.711 115.999 309.102 112.7 307.286C108.652 305.045 104.775 302.501 101.058 299.585C96.0738 295.68 91.3848 291.389 87.102 286.507C82.9053 281.708 79.3732 276.317 76.3334 270.541C72.8628 263.927 70.303 256.817 68.8385 249.253C67.6324 243.079 66.574 236.863 66.4878 230.51C66.4386 226.37 66.5863 222.231 66.7217 218.092C66.894 213.127 67.3986 208.245 68.42 203.432C69.2323 199.595 70.2907 195.827 71.4475 192.087C72.7398 187.947 74.2905 183.946 76.0627 180.068C78.1918 175.378 80.6778 170.964 83.5822 166.88C86.7328 162.41 90.2649 158.367 94.1662 154.737C96.9476 152.151 99.9013 149.855 102.916 147.709C107.556 144.395 112.528 141.824 117.648 139.623C120.786 138.276 123.986 137.148 127.235 136.254C134.398 134.26 141.634 132.94 149.031 132.844C153.56 132.789 158.089 132.775 162.618 133.036C166.26 133.256 169.879 133.531 173.509 133.944C178.161 134.48 183.441 134.398 187.995 135.622C182.715 136.323 176.734 137.23 171.442 137.657C167.307 138.001 163.196 138.592 159.073 139.115C155.024 139.637 149.634 141.095 145.634 141.755C144.366 141.989 144.772 141.989 143.948 142.099C138.582 142.828 134.115 144.395 128.909 146.073C122.571 148.108 116.577 151.01 110.916 154.874C103.064 160.224 96.3446 166.99 90.9664 175.433C86.3267 182.722 82.6715 190.602 80.4809 199.307C79.5209 203.116 78.4994 206.911 77.8718 210.803C76.2842 220.718 76.0504 230.675 77.5764 240.645C78.3518 245.76 79.0779 250.89 80.6778 255.786C81.8839 259.485 83.4592 262.964 85.3052 266.278C88.7512 272.453 92.5294 278.325 97.0707 283.523C101.046 288.089 105.366 292.187 110.079 295.707C114.67 299.131 119.531 302.006 124.638 304.316C129.069 306.324 133.598 308.015 138.299 309.06C141.93 309.858 145.536 310.821 149.215 311.247C151.234 311.481 153.264 311.728 155.295 311.797C155.886 311.811 164.328 312.031 164.894 312.155Z" fill="#B59934"/>
<path fill-rule="evenodd" clip-rule="evenodd" d="M56.3592 240.411C56.1253 239.008 55.8423 237.605 55.6577 236.189C54.5624 228.213 54.0209 220.195 54.1193 212.109C54.1686 208.176 54.1193 204.23 54.4516 200.324C54.7593 196.707 55.2146 193.091 56.1992 189.584C56.7653 187.576 57.1838 185.486 57.7622 183.45C58.6975 180.136 59.8297 176.905 61.1712 173.783C63.4111 168.543 66.2663 163.744 69.5153 159.288C72.3705 155.369 75.5704 151.807 78.9917 148.507C81.8592 145.743 84.8129 143.13 87.9635 140.847C94.6585 136.006 101.587 131.688 109.156 128.855C116.59 126.064 124.121 123.864 131.887 122.612C137.044 121.773 142.2 120.893 147.406 120.646C151.418 120.453 155.443 120.398 159.467 120.618C162.187 120.769 164.907 120.756 167.626 120.962C169.669 121.113 171.688 121.553 173.731 121.773C177.226 122.172 180.647 123.038 184.069 123.891C187.785 124.812 191.453 125.968 195.059 127.343C200.018 129.241 204.892 131.4 209.753 133.586C211.181 134.232 212.621 134.975 213.815 136.185C214.024 136.391 214.824 137.038 214.701 137.437C213.544 137.409 213.987 137.409 213.421 137.217C211.673 136.625 209.876 136.185 208.178 135.429C207.009 134.906 205.778 134.618 204.609 134.274C202.012 133.504 199.428 132.61 196.769 132.142C195.502 131.922 194.271 131.345 193.028 131.125C189.902 130.547 186.801 129.804 183.662 129.241C180.709 128.69 177.718 128.278 174.74 127.989C167.934 127.343 161.141 126.958 154.298 127.136C146.852 127.343 139.48 128.25 132.195 129.791C124.7 131.386 117.34 133.655 110.239 136.955C105.476 139.169 100.861 141.686 96.4307 144.698C93.6985 146.54 91.0402 148.521 88.4804 150.652C83.7914 154.544 79.484 158.931 75.718 164.005C70.9922 170.372 67.177 177.358 64.1987 184.949C63.005 188.002 62.0081 191.165 61.0851 194.356C59.6944 199.196 58.5744 204.106 57.9099 209.111C57.3437 213.43 56.913 217.775 56.6792 222.148C56.3715 227.745 56.7038 233.301 56.9499 238.871C56.9376 239.393 56.8514 239.929 56.3592 240.411Z" fill="#B59934"/>
<path fill-rule="evenodd" clip-rule="evenodd" d="M282.967 239.104C282.438 236.835 281.17 234.786 280.223 232.655C277.441 233.989 277.244 235.666 279.115 242.9C276.801 243.01 275.521 241.58 275.534 239.256C275.546 236.23 275.817 233.205 278.093 230.867C279.361 229.561 280.296 227.759 281.158 226.04C281.835 224.665 281.638 223.468 279.976 222.932C276.617 221.86 273.306 220.553 269.958 219.467C264.74 217.761 260.039 215.162 256.15 210.638C251.67 205.426 248.027 199.705 246.009 192.719C244.975 189.116 243.966 185.5 242.674 182.02C241.148 177.908 239.339 173.934 237.653 169.905C237.616 169.85 237.567 169.781 237.53 169.712C237.53 169.726 237.542 169.74 237.542 169.74C237.32 169.712 236.176 164.885 236.237 165.119C235.241 161.392 234.256 157.638 233.296 153.898C232.324 150.157 231.364 146.403 230.429 142.649C230.49 142.91 229.813 139.94 229.493 138.606C227.684 137.162 227.807 135.745 228.792 132.321C229.998 128.127 231.032 123.85 231.795 119.532C232.176 117.373 232.471 114.306 229.912 113.646C227.29 112.972 227.167 116.011 226.54 118.019C226.01 119.697 225.58 121.471 224.767 122.983C224.029 124.359 222.909 125.5 221.851 126.614C220.595 127.948 219.131 129.021 217.937 130.409C215.389 133.38 212.903 136.598 208.904 136.447C202.369 136.213 195.772 136.172 189.311 135.154C181.73 133.944 174.26 133.916 166.703 135.044C157.141 136.474 147.849 138.867 138.828 142.841C132.022 145.839 124.367 148.947 117.881 153.196C108.257 159.508 102.042 167.897 95.8641 177.826C95.8518 178.541 95.8026 179.27 95.7164 180.013C94.2642 192.884 92.4305 205.646 92.6397 218.642C93.2673 226.439 94.5842 234.044 95.9626 241.731C96.9841 247.411 97.8332 253.104 98.3871 258.838C105.033 259.787 110.583 266.278 116.577 270.665C114.288 266.361 112.515 261.561 111.432 256.17C107.79 237.935 108.479 218.119 120.207 203.693C131.001 190.423 145.572 186.462 158.519 194.136C159.54 194.603 160.611 195.153 161.473 195.648C166.014 198.22 171.072 200.764 174.038 205.756C175.416 208.08 176.721 210.528 177.755 213.072C178.259 213.925 178.678 214.846 179.047 215.795C179.219 216.139 179.379 216.496 179.539 216.854C180.548 218.71 181.373 220.704 182.222 222.671C186.997 233.714 194.837 239.379 205.556 239.806C209.617 239.971 213.802 240.48 217.74 239.696C222.564 238.733 227.13 238.953 231.893 239.971C232.964 240.205 233.788 240.425 234.391 240.727C235.364 240.892 236.311 241.14 237.222 241.483C238.563 241.841 239.856 242.364 241.074 243.037C241.505 243.202 241.923 243.367 242.329 243.56C242.932 243.588 243.597 243.849 244.36 244.385C246.551 245.912 248.778 247.411 250.833 249.171C252.273 250.408 253.763 251.839 254.698 253.558C258.218 260.049 259.116 260.557 265.7 258.715C266.143 258.591 266.611 258.618 267.066 258.577C271.682 258.054 274.537 253.516 278.672 251.894C279.004 251.77 279.164 251.027 279.386 250.573C280.383 248.442 281.539 246.379 282.315 244.151C282.856 242.542 283.324 240.603 282.967 239.104Z" fill="#1B1F3B"/>
<path fill-rule="evenodd" clip-rule="evenodd" d="M230.391 143.089C231.29 147.118 232.225 150.24 233.185 153.98C234.157 157.721 235.019 161.338 235.954 165.092C235.88 164.817 237.049 168.406 237.296 169.369C237.357 169.396 237.505 169.754 237.566 169.85C238.514 169.974 239.08 170.07 239.474 170.675C242.686 175.598 245.48 180.673 246.994 186.737C249.664 197.478 255.092 205.852 264.679 209.799C265.503 210.143 266.648 209.483 267.632 209.304C267.152 208.177 266.894 206.746 266.131 206.004C264.113 204.023 261.811 202.414 259.731 200.517C256.076 197.161 253.75 193.214 253.541 187.397C253.332 181.347 252.507 175.172 251.079 169.327C247.953 156.511 242.132 145.77 231.154 139.637C230.465 139.252 228.632 137.231 228.188 136.887C228.435 138.798 230.428 143.254 230.391 143.089Z" fill="#B59934"/>
</g>
</svg>
