<svg width="40" height="62" viewBox="0 0 40 62" fill="none" xmlns="http://www.w3.org/2000/svg">
<path fill-rule="evenodd" clip-rule="evenodd" d="M20.3157 61.4297C20.0274 61.4297 19.7585 61.4297 19.4867 61.4297C19.437 61.121 19.3998 60.8125 19.3362 60.5104C19.1643 59.694 18.6729 59.0837 18.0604 58.5496C17.4779 58.0411 16.8736 57.5528 16.3379 56.9982C15.8537 56.4969 15.6998 55.8399 15.7169 55.1424C15.7204 55.0185 15.6613 54.8431 15.5693 54.7751C14.4322 53.9344 14.0741 52.9004 14.4774 51.5559C14.4948 51.4984 14.5134 51.4412 14.5169 51.4307C13.8927 51.1046 13.2653 50.8366 12.7009 50.47C11.3624 49.6002 10.5382 48.3455 10.1191 46.813C10.0897 46.7062 9.97912 46.5766 9.87799 46.5416C8.53733 46.082 7.35628 45.3596 6.36706 44.3501C5.13228 43.0891 4.33332 41.5793 3.9528 39.8538C3.63296 38.4009 3.65509 36.9493 3.96734 35.4971C3.98409 35.4149 3.90192 35.2711 3.82385 35.2155C2.89911 34.5597 2.11469 33.7683 1.48892 32.8218C0.753172 31.7077 0.291748 30.4922 0.102438 29.1677C-0.250899 26.6965 0.310079 24.4539 1.78158 22.447C2.11406 21.9935 2.51859 21.5877 2.92028 21.192C3.10327 21.0128 3.1472 20.8722 3.07673 20.6263C2.69147 19.2869 2.51922 17.9124 2.70316 16.5316C3.20251 12.7713 5.14808 10.0622 8.67228 8.56163C10.0366 7.9801 11.4791 7.75951 12.9588 7.78953C13.1623 7.79364 13.2619 7.73802 13.3538 7.54333C13.9745 6.23934 15.0023 5.43627 16.4157 5.14298C16.665 5.09115 16.8025 4.99318 16.8727 4.73434C17.1075 3.86743 17.6852 3.2129 18.2683 2.5647C18.7326 2.04891 19.1728 1.5148 19.34 0.819185C19.4032 0.557185 19.4348 0.286968 19.4841 0C19.7439 0 20.0208 0 20.3289 0C20.284 1.30969 21.132 2.14941 21.9082 3.02738C22.3557 3.53432 22.7359 4.08645 22.9034 4.74887C22.9723 5.0232 23.1329 5.09399 23.3731 5.14298C24.269 5.32407 25.0569 5.72608 25.6593 6.41885C25.9513 6.75417 26.1928 7.14196 26.4099 7.53164C26.5174 7.72474 26.6176 7.79269 26.8322 7.7889C28.7844 7.75824 30.6367 8.16404 32.3297 9.15674C34.7712 10.5884 36.2784 12.7132 36.895 15.4694C37.2888 17.231 37.1655 18.9775 36.6826 20.704C36.6276 20.9003 36.6608 21.0084 36.8024 21.1367C38.4692 22.6423 39.4802 24.5184 39.7075 26.7436C40.0573 30.1822 38.8684 33.0051 36.0777 35.0992C35.8198 35.2926 35.7898 35.4563 35.8464 35.7629C36.4102 38.8392 35.7781 41.6176 33.7071 44.0135C32.6768 45.205 31.3876 46.0153 29.9076 46.5365C29.808 46.5719 29.6857 46.6749 29.6607 46.7691C29.0669 49.008 27.6526 50.4804 25.4937 51.2658C25.4254 51.2904 25.3584 51.3198 25.2918 51.3483C25.282 51.3524 25.2756 51.3619 25.2902 51.3489C25.343 51.7759 25.4296 52.1845 25.4356 52.5954C25.4501 53.5195 24.9925 54.2012 24.2615 54.7293C24.1673 54.7979 24.0522 54.9341 24.0592 55.0314C24.147 56.3215 23.4385 57.1606 22.5147 57.9156C21.9509 58.3764 21.4035 58.8739 20.93 59.4248C20.4538 59.9775 20.3352 60.6968 20.3157 61.4297ZM23.7943 50.8179C23.9116 50.7848 23.9916 50.7598 24.0718 50.7396C25.0911 50.4779 26.0793 50.1432 26.9355 49.5048C28.047 48.6755 28.6001 47.5124 28.8697 46.1933C28.9155 45.9727 29.0046 45.8861 29.211 45.8222C31.9884 44.9607 33.8635 43.1659 34.7743 40.3932C35.3457 38.6534 35.2522 36.9035 34.798 35.158C34.7525 34.9845 34.7702 34.9004 34.9254 34.8068C35.195 34.645 35.4576 34.4684 35.7038 34.2749C38.2018 32.3227 39.2053 29.7391 38.8178 26.6311C38.5523 24.5048 37.4452 22.8152 35.8132 21.4625C35.6125 21.2957 35.6055 21.1655 35.6751 20.9423C36.224 19.1864 36.4304 17.4048 36.0271 15.5854C35.5705 13.5204 34.4962 11.8365 32.8357 10.5407C30.8861 9.0202 28.6165 8.58754 26.2073 8.69563C25.9899 8.70511 25.8998 8.65928 25.8256 8.44817C25.5184 7.56514 25.0677 6.75765 24.1742 6.36733C23.6382 6.13315 23.033 6.05761 22.4635 5.89832C22.3756 5.87336 22.2467 5.78992 22.2369 5.71944C22.1054 4.76468 21.6231 4.00143 20.9904 3.30424C20.5947 2.86778 20.2398 2.3953 19.8871 1.96421C19.5379 2.39055 19.2022 2.83365 18.8309 3.24419C18.1801 3.9654 17.6644 4.74635 17.5341 5.73777C17.5256 5.80225 17.385 5.87462 17.2936 5.89864C16.7598 6.04023 16.1976 6.10597 15.6926 6.31455C14.7324 6.71182 14.2587 7.55913 13.9316 8.49115C13.8674 8.6735 13.7941 8.70764 13.6193 8.69563C12.6096 8.6242 11.6077 8.69879 10.6159 8.89505C8.44252 9.32519 6.66319 10.4029 5.32317 12.1762C4.19331 13.6727 3.5865 15.3604 3.54257 17.2411C3.51255 18.5306 3.71482 19.7862 4.12378 21.0081C4.1832 21.186 4.17561 21.3032 4.00305 21.4252C3.7913 21.5754 3.60926 21.7694 3.41837 21.9486C0.852093 24.3581 0.24371 27.8811 1.49177 30.9815C2.15704 32.6356 3.33904 33.8546 4.82603 34.7967C4.98437 34.8972 5.01882 34.9721 4.97994 35.1659C4.84531 35.8416 4.70878 36.522 4.64683 37.2069C4.46068 39.2631 5.0245 41.1274 6.20714 42.8018C7.29623 44.3428 8.81355 45.2875 10.5976 45.8298C10.7803 45.8854 10.8568 45.966 10.8972 46.1648C11.0793 47.0539 11.3801 47.898 11.9465 48.6252C12.6984 49.5898 13.7211 50.1366 14.8611 50.4956C15.222 50.6094 15.5876 50.708 15.9558 50.8154C15.8032 51.0193 15.6584 51.1864 15.5421 51.3716C14.9853 52.2594 15.1588 53.3754 16.0269 53.9297C16.4966 54.2296 16.6925 54.4951 16.6514 55.0867C16.5879 56.009 17.1119 56.7074 17.8205 57.2687C18.5809 57.8701 19.3982 58.4144 19.8887 59.3524C20.3109 58.5458 20.9686 58.0421 21.6181 57.5291C21.8314 57.3604 22.0444 57.1888 22.2473 57.0077C22.96 56.3727 23.2242 55.5589 23.1307 54.6316C23.1063 54.3892 23.1392 54.2875 23.3702 54.1914C24.1312 53.8741 24.6306 53.0302 24.5415 52.2531C24.477 51.7013 24.2128 51.2452 23.7943 50.8179Z" fill="#1B1F3B"/>
<path opacity="0.2" fill-rule="evenodd" clip-rule="evenodd" d="M8.11344 34.0279C6.66754 33.5383 5.38756 32.8257 4.46724 31.5975C2.60322 29.1084 2.92242 25.7456 5.22164 23.5488C5.54653 23.2391 5.89608 22.9502 6.25921 22.6873C6.62235 22.4243 7.01709 22.206 7.4153 21.9572C7.18807 21.6548 6.93808 21.353 6.72127 21.0281C6.18399 20.2215 5.88249 19.3322 5.77156 18.3644C5.66347 17.4192 5.75007 16.4998 6.06832 15.6142C6.59864 14.1396 7.57838 13.0214 8.89028 12.1769C9.69998 11.6558 10.5767 11.3002 11.5179 11.1321C13.0055 10.8663 14.4561 11.018 15.8477 11.6314C15.9055 11.6567 15.9633 11.6811 16.0224 11.7013C16.0503 11.7108 16.0825 11.7092 16.164 11.7196C15.707 10.7889 15.6274 9.88183 16.2582 9.02377C16.5739 8.59395 17.0038 8.31583 17.6226 8.14896C17.1738 8.7447 16.914 9.33002 16.8754 9.98486C16.8366 10.6413 16.9794 11.2696 17.267 11.8995C18.0653 11.5572 18.7344 11.1021 19.2041 10.3875C19.2897 10.2567 19.3832 10.122 19.4259 9.97506C19.4537 9.87804 19.437 9.70895 19.3716 9.65301C18.9082 9.25701 18.8267 8.74281 19.0015 8.22228C19.2316 7.53552 19.5514 6.87847 19.8785 6.20972C20.2125 6.98402 20.7296 7.66257 20.8288 8.51462C20.8803 8.95993 20.7723 9.34961 20.4063 9.63437C20.2138 9.78417 20.3191 9.9305 20.3902 10.0771C20.7072 10.731 21.2277 11.1915 21.8351 11.5635C22.0371 11.6874 22.2567 11.7844 22.5083 11.9146C23.0626 10.5999 23.0901 9.37458 22.1897 8.20743C23.6271 8.30414 24.3255 10.0218 23.61 11.7364C23.7484 11.6902 23.8483 11.6646 23.9415 11.6242C26.8096 10.3793 30.1875 11.067 32.305 13.3311C33.201 14.2887 33.8018 15.4047 33.9813 16.7087C34.2474 18.6416 33.7465 20.3615 32.4434 21.8318C32.4156 21.863 32.3878 21.895 32.3625 21.9278C32.3584 21.9332 32.3644 21.9471 32.3622 21.9237C32.9216 22.3065 33.4889 22.6437 33.999 23.0533C35.444 24.2132 36.37 25.7001 36.4958 27.5705C36.6456 29.7885 35.7815 31.5925 33.9589 32.8724C33.2658 33.3588 32.469 33.6973 31.7096 34.1085C32.9542 36.165 33.2696 38.3871 32.1271 40.6443C30.9694 42.9305 28.9941 43.9144 26.444 43.855C26.4901 44.1261 26.5404 44.3881 26.5792 44.6517C26.7793 46.0255 26.1959 47.0502 25.0825 47.7679C24.366 48.2309 23.5775 48.5849 22.8158 48.9761C22.0864 49.35 21.3686 49.7368 20.8146 50.362C20.484 50.7349 20.2517 51.1594 20.1263 51.7017C20.5773 51.4805 21.0169 51.3913 21.393 51.6941C21.6069 51.8663 21.8108 52.1325 21.8759 52.3922C22.0292 53.0044 21.6733 53.665 20.7492 53.7395C20.7881 53.8192 20.8222 53.8909 20.8585 53.9623C21.0403 54.322 21.0106 54.6551 20.7852 54.9961C20.5156 55.4038 20.2821 55.8336 20.027 56.2499C19.9964 56.2992 19.9199 56.3564 19.8725 56.3504C19.8216 56.3441 19.7653 56.2752 19.7331 56.2208C19.5394 55.8896 19.382 55.5315 19.1548 55.2253C18.729 54.6529 18.6851 54.3925 19.0321 53.7383C18.5846 53.6959 18.1583 53.5711 18.0009 53.1204C17.9076 52.8521 17.8678 52.513 17.9453 52.2469C18.1488 51.5557 18.8216 51.348 19.6377 51.6995C19.5346 51.1492 19.2809 50.7106 18.9288 50.3269C18.2834 49.6237 17.4355 49.2324 16.6059 48.8017C15.8205 48.3933 15.0146 47.9932 14.3136 47.4632C13.2615 46.6677 12.9568 45.5477 13.2627 44.2655C13.2893 44.1539 13.3114 44.0411 13.3326 43.9283C13.3354 43.9106 13.3228 43.8891 13.3136 43.8553C10.7827 43.9112 8.80747 42.9346 7.6457 40.6231C6.50762 38.3627 6.83694 36.164 8.11344 34.0279ZM31.1745 22.8343C30.8872 22.9717 30.7109 23.0577 30.5326 23.1414C28.7922 23.9603 27.1605 24.9419 25.7493 26.2687C24.5626 27.385 23.5376 28.6324 22.6214 29.9762C22.489 30.1706 22.5491 30.2967 22.6707 30.4424C23.2579 31.1453 23.89 31.8004 24.6637 32.3001C24.7614 32.3633 24.9339 32.3718 25.049 32.3352C25.3653 32.2337 25.6608 32.0469 25.9819 31.9802C26.5979 31.8526 27.2262 31.784 27.8144 31.6958C26.6576 30.6377 26.705 29.5306 27.0786 28.6618C27.4812 27.7244 28.5962 27.0095 29.5355 27.0645C29.5143 27.0923 29.4998 27.1173 29.4796 27.1369C28.5207 28.0701 28.3905 29.164 28.874 30.3634C29.2859 31.3864 30.0377 32.1702 30.7608 32.9701C31.2738 33.5371 31.2861 33.5443 32.0038 33.2501C32.4485 33.0681 32.8729 32.8377 33.3069 32.6291C32.4908 32.4426 32.0193 31.9436 32.0484 31.2644C32.0749 30.6459 32.5869 30.1418 33.2127 30.1225C33.603 30.1105 33.9699 30.2262 34.1694 30.5593C34.3505 30.8614 34.4291 31.2255 34.5429 31.5353C35.4677 30.6051 35.9566 28.6115 35.1428 27.4381C34.8966 27.6704 34.676 27.9488 34.3937 28.133C33.4232 28.767 32.1467 28.4153 31.5159 27.3654C30.9666 26.4507 30.9884 25.4473 31.0687 24.4341C31.1082 23.929 31.1357 23.4227 31.1745 22.8343ZM6.458 32.5741C6.51363 32.6155 6.54808 32.6515 6.59043 32.673C6.97379 32.8652 7.35051 33.0738 7.7443 33.2409C8.47752 33.5516 8.50723 33.5624 9.00911 32.9641C9.60011 32.2603 10.2057 31.5548 10.6892 30.778C11.2647 29.852 11.388 28.829 10.8333 27.8214C10.6781 27.5395 10.444 27.3006 10.2243 27.013C11.3712 27.1558 12.2603 27.6482 12.7078 28.7073C13.2081 29.8928 12.8471 30.9054 11.8554 31.7789C12.941 31.6999 13.8986 31.9047 14.8044 32.3683C14.8739 32.4047 15.0098 32.3788 15.0809 32.3307C15.8711 31.7991 16.536 31.1345 17.1374 30.4007C17.2572 30.255 17.2613 30.1428 17.1555 29.9854C15.7067 27.8413 14.0083 25.9372 11.8001 24.551C10.8134 23.9319 9.76667 23.4085 8.71614 22.8245C8.53094 23.4145 8.66178 23.9205 8.7035 24.4255C8.77619 25.319 8.79894 26.2039 8.42538 27.0538C7.87546 28.3065 6.48266 28.8214 5.3882 28.1356C5.09617 27.9529 4.87178 27.6628 4.61768 27.4238C3.75709 28.8138 4.4663 30.876 5.30697 31.5823C5.32372 30.6791 5.7172 30.1668 6.42735 30.1247C7.08914 30.0859 7.6438 30.5441 7.72186 31.1949C7.80435 31.8801 7.32902 32.4101 6.458 32.5741ZM12.1329 22.5188C11.9515 21.7158 11.3469 21.285 10.7379 20.852C10.3447 20.5723 10.0426 20.2165 9.94049 19.7279C9.89941 19.5322 9.7948 19.5016 9.60391 19.5069C9.37035 19.5133 9.10993 19.5003 8.90513 19.403C8.32456 19.1271 8.09669 18.3682 8.3805 17.7829C8.65483 17.2172 9.37066 16.9628 9.96072 17.2396C10.1453 17.3256 10.3055 17.4637 10.5078 17.5984C10.5852 16.7725 10.8861 16.0728 11.5823 15.5953C12.2637 15.1278 13.0254 15.0337 13.8677 15.1427C13.8364 14.9442 13.7943 14.7742 13.7839 14.6023C13.7378 13.8305 14.19 13.3498 14.788 12.9889C15.2311 12.7212 15.7086 12.5132 16.1975 12.2651C16.0796 12.194 15.9788 12.1194 15.8679 12.0695C14.8603 11.6191 13.8117 11.3856 12.6996 11.42C11.6493 11.4526 10.6807 11.7266 9.9032 12.4339C9.51573 12.786 9.11088 12.9683 8.61974 13.0903C8.23986 13.1839 7.94373 13.4819 7.8663 13.8975C7.78981 14.3131 7.82805 14.7148 8.19119 15.0153C8.45888 15.2362 8.87068 15.2656 9.18704 15.0747C9.45947 14.9104 9.62034 14.5798 9.5486 14.1911C9.45473 14.3276 9.3871 14.3984 9.35202 14.4822C9.2433 14.7413 9.07706 14.9294 8.78503 14.9569C8.29232 15.0043 7.951 14.5112 8.10301 13.9803C8.3195 13.2234 9.35297 12.9481 10.0562 13.4607C10.6848 13.9187 10.7398 14.9158 10.1886 15.5931C9.76635 16.1095 9.18452 16.3541 8.59288 16.5968C7.56511 17.0175 6.77847 17.6717 6.69978 18.8654C6.62646 19.976 7.12486 20.8874 7.84196 21.6911C7.88716 21.7414 8.02463 21.7335 8.11344 21.7177C8.56412 21.6374 9.0129 21.5454 9.49961 21.4503C9.23066 21.8109 9.01195 22.1039 8.79357 22.3972C10.2483 23.4442 12.9227 23.3949 14.1429 22.4433C13.8594 21.516 14.0168 20.6554 14.6334 19.8394C14.3427 19.8056 14.1082 19.7655 13.8724 19.7531C13.4827 19.7335 13.4682 19.7219 13.581 19.3072C14.4508 19.3072 15.329 19.3072 16.201 19.3072C16.5468 17.3708 15.1713 15.1813 12.7416 15.5485C11.8532 15.6828 11.1702 16.3067 11.059 17.0292C11.7508 16.3942 12.5362 16.3841 13.0254 17.0032C13.5374 17.6492 13.3168 18.3095 12.3668 18.9823C13.0058 20.3821 12.9233 21.8081 12.1329 22.5188ZM30.2115 14.223C30.0589 14.8159 30.8215 15.3465 31.2769 15.1797C31.9624 14.9284 32.1716 14.0242 31.6581 13.4338C31.3733 13.1074 30.9912 13.0306 30.5996 12.9481C30.4786 12.9228 30.3427 12.8637 30.2612 12.7758C29.6626 12.1377 28.9316 11.7433 28.0865 11.549C27.0084 11.3009 25.9405 11.3922 24.8925 11.701C24.4396 11.8343 24.0095 12.0445 23.5686 12.2199C23.7254 12.3606 23.8647 12.4095 23.9915 12.4819C24.4785 12.7619 24.9933 13.0075 25.4368 13.3457C25.907 13.7041 26.1001 14.2205 25.9453 14.8279C25.9209 14.9234 25.932 15.0273 25.9263 15.1398C26.7613 15.0333 27.5242 15.1323 28.205 15.6025C28.8962 16.0804 29.1895 16.7845 29.2732 17.6382C29.3566 17.5652 29.3952 17.5329 29.4319 17.4985C29.887 17.0702 30.4751 16.9966 30.9558 17.3085C31.44 17.623 31.6353 18.1913 31.4482 18.738C31.258 19.2939 30.7924 19.5739 30.1363 19.5057C29.9397 19.4851 29.8724 19.5765 29.8361 19.7373C29.7321 20.1877 29.4682 20.5335 29.1044 20.8008C28.4796 21.2585 27.8219 21.681 27.6273 22.5937C26.7806 21.3621 26.7521 20.1858 27.419 18.9807C26.4889 18.3916 26.2477 17.7324 26.6984 17.069C26.9083 16.7612 27.2044 16.6006 27.5596 16.5541C28.0299 16.4928 28.405 16.6983 28.7302 17.0696C28.6563 16.4151 27.9777 15.7508 27.2335 15.5912C25.8691 15.2976 24.6817 15.7941 23.9649 16.9995C23.5484 17.7017 23.4327 18.4795 23.5566 19.3293C24.4665 19.3293 25.3521 19.3293 26.2344 19.3293C26.2344 19.4807 26.2344 19.5926 26.2344 19.7127C25.8761 19.7541 25.5312 19.7933 25.165 19.8356C25.7613 20.7876 25.8938 21.2351 25.6409 22.4689C27.059 23.4742 29.7214 23.3636 30.977 22.3814C30.7567 22.0919 30.5345 21.8011 30.2608 21.4424C30.7611 21.5426 31.2099 21.6121 31.6461 21.7294C31.8265 21.7774 31.9261 21.7474 32.0111 21.6064C32.2962 21.1352 32.6429 20.6883 32.8492 20.1845C33.4039 18.8262 33.0142 17.5696 31.6938 16.8484C31.2652 16.6148 30.7978 16.4533 30.3664 16.2242C29.6442 15.8408 29.1784 15.2739 29.2119 14.4047C29.2328 13.8564 29.5532 13.4579 30.1044 13.2758C30.6069 13.1099 31.2027 13.2486 31.4868 13.6156C31.7134 13.9085 31.7864 14.2401 31.622 14.5874C31.5127 14.8203 31.3281 14.9648 31.0541 14.9591C30.6793 14.9509 30.5001 14.7224 30.3955 14.394C30.3768 14.3362 30.2959 14.2989 30.2115 14.223ZM14.8145 39.5473C14.3917 39.2413 14.0089 38.985 13.6486 38.7006C12.6838 37.9367 12.0216 36.9933 12.0988 35.7039C12.1288 35.2045 12.2947 34.7137 12.3996 34.2172C12.3816 34.2197 12.3216 34.2226 12.2625 34.2355C11.1171 34.4868 9.97241 34.4587 8.83434 34.2077C8.59541 34.1549 8.47405 34.2178 8.35364 34.4163C7.58407 35.684 7.22599 37.0445 7.41562 38.5274C7.6792 40.5839 8.72372 42.0974 10.6118 42.9767C12.0074 43.6258 13.4625 43.568 14.9147 43.1837C15.9946 42.8983 16.9292 42.3455 17.7484 41.5538C17.0113 40.8424 16.1485 40.3462 15.3006 39.8305C15.2617 39.8071 15.1786 39.8124 15.1397 39.8387C14.8066 40.0722 14.4391 40.2751 14.1571 40.5615C13.5835 41.1442 13.6685 41.8399 14.3209 42.3329C14.3319 42.3408 14.3272 42.3699 14.33 42.3891C13.8623 42.4896 13.4284 42.331 13.1705 41.9261C12.8001 41.3446 12.9511 40.8222 13.4423 40.3481C12.1127 40.3624 10.9834 39.9711 10.0988 39.0135C9.14374 37.981 8.5834 36.5496 8.78598 35.7121C9.14912 36.1669 9.54638 36.5654 10.1045 36.7459C10.4424 36.8549 10.7922 36.9254 11.131 37.0303C12.0668 37.3211 12.9552 38.4699 11.8181 39.3339C12.7745 39.876 13.7491 39.8914 14.8145 39.5473ZM31.0434 35.7124C31.0329 36.8527 30.6708 37.8327 29.9843 38.6861C29.0596 39.833 27.8381 40.3741 26.3517 40.3484C26.8763 40.9843 26.9465 41.4366 26.6093 41.9223C26.3201 42.3398 25.8678 42.5133 25.4813 42.3904C25.627 42.1771 25.8334 41.9698 25.926 41.721C26.1169 41.2081 25.8849 40.704 25.3391 40.2922C24.604 39.7379 24.604 39.7379 23.9551 40.1459C23.9024 40.1794 23.8442 40.2056 23.7933 40.2416C23.197 40.6591 22.6018 41.0776 21.99 41.5071C22.08 41.6012 22.1069 41.6319 22.1369 41.6597C23.2507 42.6935 24.5771 43.2627 26.078 43.4175C27.601 43.5749 29.0238 43.294 30.2561 42.3304C32.7702 40.3655 33.0272 36.7974 31.3281 34.3035C31.2769 34.2283 31.0955 34.1922 30.9884 34.2115C30.1499 34.3626 29.3118 34.4764 28.4581 34.3692C28.0798 34.3221 27.7028 34.2709 27.2951 34.2172C27.674 35.0064 27.7932 35.7968 27.59 36.6251C27.3482 37.6102 26.6877 38.2812 25.9149 38.8665C25.6194 39.0906 25.3078 39.2944 24.9959 39.5131C25.7841 39.967 27.4708 39.7919 27.9269 39.3033C27.0887 38.6737 27.3931 37.8612 27.9288 37.4503C28.2258 37.2228 28.595 37.0461 28.9587 36.956C29.7466 36.7626 30.4445 36.4592 30.9321 35.7797C30.9473 35.7595 30.9792 35.7503 31.0434 35.7124ZM17.9892 41.7972C17.3656 42.4697 16.6751 43.0503 16.194 43.7699C15.3145 45.0844 15.3935 46.133 16.4832 47.1399C16.7294 47.3671 16.9842 47.5855 17.2364 47.8068C17.591 48.1174 17.9541 48.4196 18.3008 48.7388C19.0757 49.4511 19.6592 50.2852 19.8728 51.4081C20.2641 49.9755 20.8807 49.2599 21.8446 48.4256C22.3275 48.0075 22.8174 47.595 23.2794 47.1541C24.1979 46.279 24.4618 45.5132 23.8082 44.1274C23.3566 43.171 22.5004 42.5649 21.7428 41.8512C20.9764 42.7077 20.3402 43.6097 20.0511 44.7835C20.4587 44.4991 20.8307 44.42 21.2071 44.695C21.483 44.8966 21.5993 45.177 21.5406 45.5183C21.4486 46.054 21.0649 46.2351 20.5577 46.2711C20.7328 46.645 20.6161 46.9269 20.3917 47.2183C20.2255 47.4342 20.1373 47.7088 20.01 47.9553C19.9765 48.0198 19.9291 48.0773 19.8886 48.1383C19.8469 48.0776 19.7966 48.021 19.7653 47.9563C19.6652 47.742 19.6121 47.4917 19.467 47.3159C19.2063 46.999 19.0106 46.6921 19.2157 46.2607C18.7398 46.2493 18.4067 46.0755 18.2578 45.6434C18.1387 45.2993 18.237 44.9908 18.4939 44.7566C18.8716 44.4131 19.2837 44.4741 19.7281 44.7781C19.4259 43.61 18.8024 42.7074 17.9892 41.7972ZM19.0321 26.8701C19.071 26.8682 19.1102 26.8663 19.1494 26.8641C19.2777 26.3483 19.4344 25.8376 19.5267 25.3152C19.6203 24.7836 19.65 24.241 19.7078 23.7005C19.8387 23.7005 19.9502 23.7005 20.0966 23.7005C20.1313 24.7868 20.2546 25.8474 20.6819 26.8774C21.4837 25.672 22.1666 24.4568 22.0879 22.9468C23.2425 23.5277 24.3375 23.2306 24.6356 22.3671C24.2092 21.7821 23.8085 21.2329 23.4071 20.681C23.3992 20.6886 23.3682 20.7171 23.3366 20.7436C22.8531 21.1431 22.3945 21.5761 21.8806 21.9319C21.4116 22.2572 20.8709 22.3624 20.3611 21.986C20.1749 21.8482 20.0409 21.6396 19.8734 21.4519C19.8295 21.5126 19.7834 21.5777 19.7369 21.6431C19.3602 22.1775 18.8735 22.346 18.2616 22.1086C17.9927 22.0043 17.7288 21.8561 17.5034 21.6772C17.0951 21.3539 16.7181 20.9923 16.3691 20.6836C15.9595 21.2442 15.5553 21.7973 15.1325 22.3747C15.5541 23.265 16.3767 23.4809 17.5821 23.0116C17.7376 23.6749 17.8308 24.3724 18.072 25.0146C18.3147 25.6619 18.7057 26.2538 19.0321 26.8701ZM23.5383 38.9617C22.2159 37.3609 22.3348 35.1941 23.44 33.685C23.5974 33.4694 23.8998 33.2536 23.8907 33.0491C23.8796 32.8127 23.6062 32.582 23.4315 32.3611C23.019 31.8383 22.598 31.3226 22.1436 30.7578C21.0295 32.7283 20.2353 34.7301 20.0795 37.0041C20.2258 36.9307 20.3162 36.8502 20.4098 36.8454C20.7147 36.8296 21.0453 36.7674 21.3206 36.8593C21.7798 37.0136 21.9998 37.4541 21.9625 37.938C21.9249 38.4272 21.6509 38.7338 21.2059 38.9149C21.1288 38.9465 21.0406 39.0347 21.0226 39.1115C20.9619 39.3731 20.9236 39.6411 20.8908 39.9082C20.8797 39.9945 20.8845 40.1022 20.9278 40.1727C21.0791 40.4196 21.2504 40.655 21.4025 40.8769C22.1224 40.2315 22.8221 39.6032 23.5383 38.9617ZM18.3754 40.8816C18.5407 40.6294 18.7651 40.3785 18.8763 40.0845C18.937 39.923 18.8058 39.6904 18.7676 39.4888C18.7543 39.4174 18.7524 39.3415 18.76 39.2692C18.7825 39.0697 18.7363 38.961 18.5119 38.8833C18.0025 38.7072 17.7177 38.1399 17.8242 37.6235C17.9133 37.1921 18.3517 36.6773 18.9323 36.7689C19.1832 36.8084 19.4278 36.8814 19.6958 36.9443C19.5372 34.7339 18.7471 32.7264 17.6223 30.7486C17.0467 31.4831 16.5199 32.1702 15.975 32.8418C15.8192 33.0342 15.8575 33.1363 16.0101 33.3092C17.157 34.6069 17.4999 36.0894 16.9292 37.7373C16.7753 38.1813 16.4965 38.5821 16.2769 38.9983C16.9535 39.6048 17.6526 40.2328 18.3754 40.8816ZM19.6696 19.3012C19.5659 17.0165 19.1867 14.8665 17.4693 13.1886C16.3704 14.0157 15.9482 15.0804 16.1997 16.3987C16.3821 17.3582 16.7816 18.2807 16.6463 19.3012C17.6649 19.3012 18.6469 19.3012 19.6696 19.3012ZM22.3022 13.1908C20.5867 14.8725 20.2034 17.0225 20.1101 19.2911C21.1329 19.2911 22.1224 19.2911 23.1252 19.2911C23.0228 18.3904 23.2867 17.5686 23.5041 16.7387C23.8881 15.2745 23.4776 14.0451 22.3022 13.1908ZM21.9366 12.8293C21.0725 12.0831 20.3639 11.1811 20.0511 10.012C20.0343 9.95104 19.9145 9.85686 19.8975 9.86698C19.821 9.91375 19.7429 9.98265 19.7037 10.0626C19.4442 10.5838 19.2439 11.1428 18.9275 11.6254C18.6222 12.0913 18.2 12.4803 17.7939 12.9437C18.9588 14.0511 19.5277 15.5061 19.8535 17.0744C20.1253 16.2991 20.3197 15.5305 20.6616 14.8336C21.0008 14.1405 21.489 13.5201 21.9366 12.8293ZM8.1953 22.0577C6.28734 22.3507 3.56589 25.4065 3.70874 27.1998C4.05797 26.6318 4.53172 26.2709 5.20205 26.2282C5.90998 26.1827 6.34075 26.5803 6.64036 27.2168C7.25918 26.3749 7.02088 25.6515 6.44252 24.9344C7.04869 24.9151 7.34293 24.5614 7.51138 24.0731C7.59924 23.8162 7.64665 23.5447 7.73577 23.2884C7.88431 22.8614 8.0515 22.4411 8.1953 22.0577ZM36.0931 27.2371C35.9755 25.1094 33.5812 22.4281 31.5468 22.0486C31.6792 22.3412 31.8417 22.6506 31.9593 22.9762C32.0645 23.2701 32.1141 23.583 32.1991 23.8845C32.3587 24.4499 32.6353 24.9024 33.3107 24.9419C32.6403 25.9397 32.5936 26.6517 33.1451 27.1666C33.798 25.7384 35.4136 26.0753 36.0931 27.2371ZM22.9337 24.1834C22.6224 24.8977 22.3604 25.5655 22.0431 26.2061C21.789 26.72 21.4647 27.1994 21.1793 27.6988C21.1382 27.7709 21.0994 27.8865 21.1297 27.9488C21.3102 28.334 21.5109 28.7095 21.7406 29.157C22.9489 26.8325 24.4798 24.8791 26.5751 23.3655C26.1627 23.1876 25.8122 23.0365 25.4469 22.8788C24.8391 23.8089 23.9864 24.2789 22.9337 24.1834ZM18.0265 29.1358C18.2376 28.7449 18.4335 28.414 18.5925 28.0664C18.6412 27.9595 18.6317 27.7825 18.5758 27.6773C17.9667 26.5414 17.1479 25.5064 16.9579 24.1872C15.6388 24.1888 15.2744 24.0074 14.3073 22.8772C14.1325 22.9604 13.9574 23.0511 13.7776 23.1285C13.5993 23.205 13.4157 23.2685 13.1834 23.3573C15.2949 24.8784 16.8318 26.824 18.0265 29.1358ZM15.9232 38.6529C17.2695 37.2825 17.0025 34.6533 15.5756 33.4802C14.3686 35.1726 14.3436 37.3189 15.9232 38.6529ZM24.1947 33.4669C22.5797 34.9084 22.6679 37.559 23.873 38.6519C25.4447 37.2458 25.3862 35.1796 24.1947 33.4669ZM19.047 28.5806C18.8539 28.9102 18.6924 29.2155 18.5012 29.5012C18.3687 29.6981 18.3675 29.8596 18.4642 30.0786C19.0015 31.2957 19.4284 32.5485 19.6348 33.8699C19.7088 34.3471 19.7932 34.8237 19.888 35.3885C19.9989 34.7109 20.0836 34.1186 20.1958 33.5311C20.4306 32.3048 20.8405 31.1336 21.338 29.9911C21.3791 29.8975 21.3993 29.7543 21.3569 29.6722C21.1673 29.3106 20.9515 28.9627 20.7277 28.5793C20.2922 29.4535 20.1639 30.3586 20.0823 31.2635C19.9287 31.2635 19.8169 31.2635 19.6908 31.2635C19.6057 30.3428 19.479 29.4462 19.047 28.5806ZM30.7441 33.5883C29.2915 31.9117 26.7822 31.8235 25.273 32.697C26.9595 33.7807 29.3035 34.0418 30.7441 33.5883ZM9.02207 33.5917C10.4398 34.105 13.2201 33.6404 14.4947 32.6882C12.9331 31.8216 10.5097 31.9243 9.02207 33.5917ZM18.578 41.2612C19.2322 42.2495 19.6503 43.3275 19.8889 44.4905C20.119 43.324 20.5444 42.2482 21.1961 41.2612C21.0074 41.0014 20.8194 40.7422 20.6269 40.4764C20.2881 40.9357 20.0729 41.4126 20.0179 41.9584C20.0103 42.0285 19.931 42.0917 19.8854 42.1581C19.8393 42.0908 19.7593 42.0263 19.7524 41.9555C19.7034 41.4088 19.4847 40.9344 19.1468 40.478C18.9537 40.7441 18.7654 41.0036 18.578 41.2612ZM14.94 21.9139C15.391 21.505 15.6802 21.053 15.914 20.5647C15.9406 20.5091 15.9023 20.3878 15.8534 20.3369C15.659 20.1371 15.4988 20.2617 15.3616 20.4219C15.0117 20.8308 14.8566 21.3011 14.94 21.9139ZM23.7936 20.4298C24.0541 20.9876 24.3483 21.4832 24.8274 21.895C24.927 21.1355 24.6387 20.4876 24.103 20.2124C24.0152 20.2743 23.9216 20.34 23.7936 20.4298ZM19.8978 28.3521C20.3409 27.7089 20.3326 27.1536 19.8608 26.5323C19.6383 27.1445 19.2594 27.7494 19.8978 28.3521Z" fill="#1B1F3B"/>
<path d="M19.7057 31.2595H18.4365C16.1136 31.2595 14.1269 30.4122 12.4762 28.7175C10.8252 27.0232 10 24.9898 10 22.6169C10 20.245 10.8252 18.2154 12.4762 16.5287C14.1269 14.8429 16.1136 14 18.4365 14H21.0249C23.3307 14 25.3054 14.8302 26.9479 16.4907C28.5903 18.1515 29.4278 20.1679 29.4613 22.5405V23.9639H26.6738V21.4729C26.6738 19.5071 25.9934 17.8295 24.6335 16.4399C23.2729 15.0505 21.6304 14.3555 19.706 14.3555C17.7813 14.3555 16.1429 15.0508 14.7909 16.4399C13.4386 17.8295 12.7625 19.5071 12.7625 21.4729V23.786C12.7625 25.7518 13.9341 27.5665 15.2865 28.9555C16.6385 30.3451 17.781 30.903 19.7057 30.903H21.0249C23.3472 30.903 25.3341 31.7503 26.9851 33.4449C28.6358 35.1399 29.4613 37.1733 29.4613 39.5455C29.4613 41.9184 28.6358 43.9474 26.9851 45.6331C25.3341 47.3195 23.3475 48.1624 21.0249 48.1624H18.4365C16.1303 48.1624 14.156 47.3325 12.5135 45.6714C10.871 44.0109 10.0332 41.9945 10 39.6217V38.1985H12.7622V40.6893C12.7622 42.6554 13.4382 44.3329 14.7906 45.7223C16.1426 47.1122 17.781 47.8066 19.7057 47.8066C21.6301 47.8066 23.2729 47.1122 24.6331 45.7223C25.9934 44.3326 26.6735 42.6551 26.6735 40.6893V38.3765C26.6735 36.411 25.9931 34.7331 24.6331 33.3435C23.2726 31.9548 21.6301 31.2595 19.7057 31.2595Z" fill="#1B1F3B"/>
<path fill-rule="evenodd" clip-rule="evenodd" d="M19.4475 32.9478C19.9216 32.9819 21.8912 32.7193 22.1506 32.8549C22.3068 32.9203 22.3099 32.9386 22.473 32.9911C22.57 33.012 22.7255 33.0919 22.8576 33.1273C22.4338 33.1791 19.0202 33.5755 18.5926 33.5897C18.165 33.6036 17.7384 33.5982 17.3104 33.5714C16.7365 33.5356 16.173 33.4351 15.6164 33.3011C15.2324 33.2089 14.8551 33.0862 14.4825 32.9469C14.0764 32.7952 13.6797 32.6248 13.2907 32.4323C12.8134 32.1959 12.3555 31.9267 11.9178 31.6198C11.3306 31.207 10.7765 30.7551 10.2718 30.2387C9.77658 29.7321 9.35972 29.1626 9.00164 28.5529C8.59173 27.8538 8.29054 27.1038 8.11735 26.3055C7.97576 25.6542 7.84998 24.9971 7.84081 24.3274C7.83481 23.8909 7.85219 23.4542 7.86894 23.0168C7.88917 22.4934 7.94858 21.977 8.06931 21.4697C8.16539 21.0642 8.2896 20.6673 8.42708 20.2729C8.57941 19.8358 8.7624 19.4142 8.9713 19.0036C9.22161 18.5093 9.51616 18.0432 9.85749 17.6112C10.2295 17.1396 10.6451 16.713 11.1059 16.3286C11.4336 16.0559 11.7819 15.8135 12.1387 15.5863C12.6858 15.237 13.272 14.9649 13.876 14.7336C14.2461 14.592 14.6231 14.4719 15.0065 14.3774C15.8513 14.1675 16.7055 14.0269 17.5772 14.0177C18.1119 14.0124 18.6457 14.0101 19.1801 14.038C19.6093 14.0607 20.0369 14.0901 20.4642 14.1337C21.0129 14.19 21.6355 14.1824 22.1725 14.3104C21.5495 14.385 20.8444 14.4807 20.2196 14.5256C19.732 14.5613 19.2465 14.6245 18.7604 14.6795C18.2823 14.7342 17.6464 14.8881 17.1749 14.9583C17.025 14.9832 17.0731 14.9823 16.9754 14.9946C16.3421 15.0711 15.8162 15.2373 15.2015 15.4137C14.4543 15.6283 13.7467 15.9355 13.0792 16.3432C12.1535 16.9083 11.3606 17.6225 10.7263 18.5135C10.1786 19.283 9.74845 20.1142 9.4893 21.0336C9.37552 21.4359 9.25543 21.8367 9.18147 22.2475C8.99406 23.2939 8.96719 24.3448 9.14608 25.3972C9.23741 25.9373 9.32306 26.4784 9.51174 26.9958C9.65396 27.3861 9.83916 27.7536 10.0582 28.1038C10.4643 28.7552 10.9099 29.3756 11.4456 29.9248C11.9152 30.4068 12.4234 30.8388 12.9806 31.2108C13.5227 31.5727 14.096 31.8752 14.6977 32.1195C15.2208 32.3315 15.7549 32.5104 16.3089 32.6204C16.7368 32.7041 17.1619 32.8069 17.5965 32.8517C17.8351 32.8764 18.0737 32.902 18.3132 32.9102C18.3837 32.9121 19.3793 32.9349 19.4475 32.9478Z" fill="#B59934"/>
<path fill-rule="evenodd" clip-rule="evenodd" d="M6.64518 25.3754C6.61705 25.2271 6.58482 25.0789 6.56174 24.9297C6.4328 24.0878 6.36833 23.2421 6.3797 22.3887C6.38508 21.9738 6.37907 21.5576 6.41889 21.1454C6.45524 20.7633 6.50833 20.3822 6.62527 20.0115C6.69259 19.7991 6.74189 19.5788 6.80889 19.3648C6.91887 19.0147 7.05224 18.6743 7.21027 18.3447C7.47448 17.7922 7.81043 17.2853 8.19411 16.8141C8.53133 16.4 8.90805 16.0239 9.31227 15.6763C9.65012 15.3852 9.99809 15.1084 10.3713 14.8672C11.1611 14.3565 11.9784 13.9011 12.8712 13.6008C13.7476 13.3063 14.6367 13.074 15.5519 12.9412C16.1606 12.8528 16.7681 12.7592 17.3831 12.7336C17.8568 12.714 18.3312 12.7074 18.8053 12.7304C19.1257 12.7462 19.4472 12.7447 19.7673 12.7668C20.0078 12.7835 20.2464 12.8287 20.487 12.8528C20.8994 12.8945 21.303 12.9864 21.7062 13.0759C22.1443 13.1735 22.5766 13.2955 23.0033 13.4406C23.5886 13.6403 24.1625 13.8692 24.7365 14.0992C24.9052 14.1669 25.0753 14.2462 25.2153 14.3732C25.2402 14.3954 25.3347 14.4627 25.3193 14.5057C25.1834 14.5022 25.2346 14.5022 25.1685 14.4823C24.9618 14.4203 24.7497 14.3729 24.5497 14.2933C24.4116 14.238 24.2668 14.2083 24.1281 14.1716C23.8215 14.0907 23.5175 13.9953 23.2027 13.9472C23.0532 13.9241 22.9085 13.8628 22.7621 13.8391C22.393 13.7781 22.027 13.6994 21.6582 13.6397C21.3093 13.5819 20.9572 13.5373 20.6052 13.5073C19.8027 13.4384 19.0006 13.3979 18.1937 13.4178C17.3158 13.439 16.4466 13.5354 15.5861 13.6985C14.7015 13.8669 13.8336 14.1065 12.9964 14.4545C12.4342 14.688 11.8906 14.9541 11.3678 15.2711C11.0451 15.4658 10.7313 15.6753 10.4295 15.8988C9.8761 16.3093 9.36853 16.773 8.92449 17.3083C8.36762 17.9803 7.91694 18.7182 7.5655 19.5191C7.42423 19.8414 7.30634 20.1755 7.19826 20.5127C7.03486 21.0234 6.90181 21.5414 6.82343 22.0708C6.75611 22.5265 6.70586 22.9851 6.67773 23.4472C6.64202 24.0385 6.68026 24.6244 6.71029 25.2126C6.71313 25.2682 6.70238 25.3242 6.64518 25.3754Z" fill="#B59934"/>
<path fill-rule="evenodd" clip-rule="evenodd" d="M33.3741 25.2371C33.3118 24.9975 33.1626 24.7819 33.0504 24.5563C32.7217 24.6969 32.6996 24.8742 32.9199 25.6372C32.6468 25.6489 32.4967 25.4978 32.4977 25.2529C32.4989 24.9333 32.5312 24.6135 32.7995 24.3673C32.9487 24.2295 33.059 24.0396 33.1604 23.8578C33.2407 23.7131 33.2167 23.5857 33.0217 23.5295C32.6257 23.4157 32.2357 23.2782 31.8393 23.1635C31.2234 22.9843 30.6693 22.7093 30.2101 22.2312C29.6817 21.6816 29.2522 21.0776 29.0145 20.3393C28.8922 19.9597 28.7737 19.5767 28.6214 19.2098C28.4412 18.7759 28.2282 18.3558 28.0288 17.9304C28.0237 17.9238 28.0187 17.9172 28.0143 17.9102C28.0149 17.9115 28.0149 17.9124 28.0152 17.9124C27.9896 17.9102 27.8547 17.4001 27.8616 17.4244C27.7437 17.0303 27.6287 16.635 27.5143 16.2396C27.4002 15.8445 27.287 15.4485 27.1767 15.0519C27.1843 15.0788 27.1047 14.7662 27.0661 14.6246C26.8534 14.4716 26.8673 14.3228 26.984 13.9606C27.1262 13.5185 27.2488 13.0665 27.3386 12.6105C27.3834 12.3826 27.4188 12.0587 27.1161 11.9898C26.8063 11.919 26.7928 12.2391 26.7178 12.4515C26.6553 12.6294 26.6044 12.8165 26.5093 12.9755C26.4223 13.1212 26.2902 13.241 26.1657 13.3589C26.0178 13.4992 25.8446 13.613 25.7037 13.7599C25.4034 14.0734 25.1101 14.4125 24.6386 14.3977C23.8671 14.3737 23.09 14.3689 22.3283 14.2608C21.4336 14.1338 20.5534 14.13 19.6615 14.2498C18.5342 14.4005 17.4382 14.6531 16.3741 15.0734C15.5719 15.3898 14.668 15.7178 13.9029 16.1669C12.7674 16.8331 12.0354 17.719 11.3066 18.7664C11.3044 18.8425 11.2997 18.9193 11.2895 18.9971C11.1176 20.3564 10.9024 21.7034 10.9264 23.074C11.0004 23.8964 11.1559 24.7001 11.318 25.5107C11.4378 26.1106 11.5392 26.7111 11.6043 27.316C12.3878 27.4159 13.0426 28.1017 13.749 28.565C13.4785 28.1112 13.2696 27.6039 13.1425 27.0344C12.7124 25.1091 12.7936 23.0178 14.1775 21.4951C15.4509 20.0941 17.1695 19.6766 18.697 20.4866C18.8171 20.5356 18.9435 20.5941 19.0459 20.6459C19.5813 20.9167 20.1786 21.1866 20.5275 21.7122C20.6903 21.9571 20.8448 22.2157 20.9652 22.4849C21.0243 22.5753 21.0746 22.6717 21.1169 22.7725C21.1375 22.8089 21.1564 22.8468 21.1744 22.8844C21.293 23.0804 21.3906 23.2905 21.4908 23.4982C22.0543 24.6641 22.9781 25.2617 24.2426 25.3072C24.7223 25.3246 25.2147 25.3786 25.6803 25.2952C26.2498 25.1931 26.7883 25.2175 27.3493 25.3246C27.4754 25.3486 27.5724 25.3729 27.6445 25.4052C27.7589 25.4229 27.8705 25.4488 27.9785 25.4848C28.1369 25.5228 28.2892 25.5774 28.4327 25.6492C28.483 25.6662 28.5329 25.6836 28.5809 25.7045C28.6514 25.708 28.731 25.7355 28.8208 25.7914C29.0793 25.9532 29.3426 26.1106 29.585 26.2958C29.7553 26.4263 29.9301 26.5768 30.0404 26.7585C30.4557 27.443 30.5619 27.4977 31.3387 27.303C31.3906 27.2901 31.4465 27.2935 31.5002 27.2882C32.0445 27.2329 32.3807 26.7537 32.869 26.5821C32.9082 26.5685 32.9268 26.4911 32.9524 26.4421C33.0703 26.2177 33.2072 26 33.2976 25.7648C33.3611 25.6008 33.4151 25.3963 33.3741 25.2371Z" fill="#1B1F3B"/>
<path fill-rule="evenodd" clip-rule="evenodd" d="M27.1723 15.1018C27.2788 15.5272 27.3881 15.8562 27.5022 16.2512C27.6163 16.6463 27.7187 17.0274 27.8293 17.4238C27.8211 17.394 27.9589 17.7742 27.988 17.8754C27.9946 17.8789 28.013 17.9165 28.0193 17.9269C28.1315 17.9405 28.1975 17.95 28.2437 18.0135C28.622 18.5327 28.9522 19.0684 29.1302 19.7091C29.4453 20.8433 30.0849 21.7267 31.2161 22.1439C31.3134 22.1796 31.4477 22.1113 31.565 22.0914C31.5078 21.9726 31.4777 21.8218 31.3877 21.7425C31.1494 21.5333 30.8779 21.3642 30.6323 21.1626C30.2009 20.8083 29.9263 20.392 29.9026 19.7773C29.8783 19.138 29.7803 18.4869 29.6121 17.8697C29.2433 16.5164 28.5569 15.3831 27.262 14.7352C27.1811 14.6947 26.965 14.4808 26.9119 14.4441C26.9419 14.6498 27.177 15.1201 27.1723 15.1018Z" fill="#B59934"/>
</svg>
