<svg width="18" height="24" viewBox="0 0 18 24" fill="none" xmlns="http://www.w3.org/2000/svg">
<path d="M8.95122 1.27167C9.45555 1.28038 9.84974 1.14668 10.2392 0.979758C11.0473 0.634049 11.4375 0.716323 11.9348 1.42198C12.4721 2.18539 13.1795 2.58885 14.1 2.68378C14.9561 2.77159 15.2031 3.00971 15.2976 3.86331C15.4038 4.81262 15.8043 5.54755 16.5942 6.10211C17.2449 6.55937 17.3566 7.00159 17.0293 7.71279C16.6209 8.59961 16.6202 9.45241 17.0277 10.3392C17.3519 11.0441 17.2236 11.5211 16.5911 11.9499C15.8027 12.4847 15.4061 13.2141 15.2991 14.1476C15.1961 15.047 14.96 15.2852 14.056 15.3722C13.1449 15.46 12.4548 15.8635 11.9316 16.6213C11.4328 17.3436 11.0842 17.4496 10.2872 17.0818C9.41543 16.6791 8.59086 16.6696 7.71908 17.0825C6.93779 17.452 6.57272 17.3428 6.07703 16.619C5.54515 15.8429 4.83231 15.4568 3.91097 15.3682C3.0628 15.2868 2.8063 15.0257 2.71424 14.1832C2.61117 13.2362 2.21935 12.4902 1.41524 11.9475C0.783436 11.5203 0.658335 11.0417 0.983282 10.3361C1.39163 9.44845 1.39478 8.59249 0.977776 7.71041C0.727571 7.18038 0.728359 6.66617 1.23112 6.24609C1.42704 6.08234 1.47661 5.8545 1.3043 5.65119C1.1194 5.43443 0.90539 5.51907 0.710262 5.66622C0.0493507 6.1654 -0.194559 6.97074 0.194908 7.83145C0.567064 8.65419 0.565493 9.39545 0.195696 10.2166C-0.195345 11.0852 0.00922394 11.7292 0.723639 12.3723C0.860542 12.495 1.00138 12.6144 1.1493 12.7228C1.6143 13.0638 1.84876 13.5281 1.90227 14.0962C1.91564 14.2401 1.94711 14.3825 1.96914 14.5257C2.10998 15.4347 2.6332 15.9465 3.53803 16.0968C4.10846 16.1918 4.10846 16.2139 3.89445 16.759C3.26815 18.3523 2.6395 19.9439 2.01163 21.5364C1.97308 21.6345 1.92902 21.7318 1.90699 21.8339C1.82201 22.235 2.04782 22.4604 2.44044 22.3426C3.08089 22.1503 3.71978 21.9517 4.34686 21.72C4.6545 21.606 4.79533 21.6994 4.92516 21.9684C5.19424 22.5253 5.48693 23.0711 5.76782 23.6218C5.86617 23.8148 5.96924 24.0054 6.22259 23.9991C6.49797 23.992 6.58137 23.7776 6.66634 23.5632C7.38155 21.7508 8.09754 19.9384 8.81746 18.1276C8.85759 18.0263 8.8505 17.8554 9.00157 17.8594C9.14713 17.8634 9.1432 18.0311 9.1849 18.1339C9.90324 19.9313 10.6177 21.7302 11.3313 23.5292C11.4202 23.7531 11.4942 23.9936 11.7908 23.9999C12.0638 24.0054 12.1582 23.7871 12.2613 23.5854C12.5493 23.0229 12.8467 22.4652 13.126 21.8987C13.2322 21.6828 13.3526 21.6179 13.5902 21.7025C14.1827 21.9138 14.783 22.1036 15.3817 22.2951C15.6036 22.3655 15.8444 22.4762 16.0364 22.2429C16.2055 22.038 16.1095 21.8165 16.0269 21.6076C15.3707 19.9416 14.7208 18.2731 14.0473 16.6142C13.9151 16.2891 13.9671 16.187 14.3085 16.1206C15.5721 15.8745 15.975 15.4102 16.1087 14.1033C16.1638 13.5685 16.3574 13.1104 16.7972 12.779C16.8389 12.7473 16.8782 12.7125 16.9191 12.6793C18.108 11.7244 18.2402 11.2403 17.6658 9.81948C17.451 9.28944 17.4306 8.77444 17.6642 8.25073C17.7178 8.13049 17.7665 8.00787 17.813 7.88525C18.1772 6.92011 18.027 6.22157 17.2071 5.61084C16.5305 5.1077 16.156 4.50805 16.0474 3.65367C15.8987 2.48284 15.3117 1.98445 14.0985 1.87765C13.4769 1.82307 13.0135 1.5628 12.6405 1.06915C12.2605 0.566014 11.8797 0.0430989 11.1606 0.00354405C10.7459 -0.0186067 10.3533 0.0636674 9.97642 0.233753C9.62708 0.391973 9.27066 0.519339 8.8804 0.509846C8.60424 0.502726 8.35718 0.559685 8.36584 0.899066C8.3737 1.20759 8.61132 1.26851 8.8686 1.27326C8.92132 1.27246 8.97403 1.27167 8.95122 1.27167ZM8.04875 17.8183C7.93309 18.3182 6.36028 22.2619 6.13368 22.6084C5.85594 22.0783 5.58685 21.5704 5.32485 21.0594C5.18323 20.7833 4.98967 20.6828 4.68125 20.792C4.21153 20.9581 3.73394 21.1005 3.2595 21.2516C3.1879 21.2746 3.10765 21.3292 3.03841 21.2627C2.96523 21.1923 3.02818 21.1148 3.05493 21.0451C3.623 19.599 4.195 18.1545 4.75835 16.7068C4.85356 16.4623 4.96056 16.513 5.08881 16.6609C5.32092 16.9291 5.54437 17.2052 5.77883 17.4718C6.22888 17.9844 6.78987 18.1537 7.44764 17.9931C7.63726 17.9472 7.82294 17.8847 8.04875 17.8183ZM9.90954 17.8135C11.2809 18.251 11.7585 18.1031 12.5925 17.0469C12.698 16.9132 12.812 16.7859 12.9253 16.6577C13.0622 16.5027 13.1575 16.4781 13.2503 16.7155C13.8129 18.1624 14.3872 19.6046 14.9561 21.0499C14.9836 21.1187 15.0458 21.197 14.9695 21.2667C14.8994 21.3299 14.8207 21.2777 14.7484 21.2548C14.2865 21.1076 13.8192 20.9755 13.3652 20.8062C13.0229 20.6789 12.8223 20.7841 12.6665 21.0958C12.4163 21.5981 12.1464 22.0902 11.8356 22.6819C11.1779 21.0175 10.5571 19.4487 9.90954 17.8135Z" fill="#311C11"/>
<path d="M2.98458 9.28568C3.09709 12.6637 5.99881 15.2774 9.29629 15.0852C12.9203 14.874 15.158 11.8741 15.0399 8.8221C14.9015 5.24713 11.903 2.72353 8.57794 2.97193C5.06645 3.23458 2.80754 6.26843 2.98458 9.28568ZM8.99495 14.2862C6.09401 14.2838 3.75564 11.9477 3.75328 9.04914C3.75013 6.10626 6.11053 3.71635 9.0154 3.72189C11.9037 3.72743 14.2586 6.1118 14.2563 9.03015C14.2547 11.9612 11.9242 14.2886 8.99495 14.2862Z" fill="#311C11"/>
<path d="M1.96602 3.54377C1.95973 3.80483 2.07696 3.95514 2.29333 3.99706C2.50026 4.03662 2.65998 3.92428 2.71034 3.72572C2.79531 3.3895 2.92435 3.0873 3.15252 2.81991C3.27211 2.67989 3.2611 2.49082 3.11869 2.35554C2.95267 2.19732 2.75676 2.20998 2.58445 2.34446C2.18711 2.65378 2.04392 3.09838 1.96602 3.54377Z" fill="#311C11"/>
<path d="M4.84074 1.79848C4.85491 1.94799 4.92336 2.05321 5.0398 2.12837C5.17749 2.21697 5.31754 2.20985 5.43871 2.10938C5.75264 1.85069 6.01937 1.54691 6.22 1.1925C6.30813 1.03823 6.25698 0.883178 6.12952 0.766887C6.00127 0.649804 5.82739 0.612623 5.69914 0.721794C5.37105 0.999469 5.10747 1.34043 4.86435 1.69484C4.84468 1.72411 4.84704 1.76921 4.84074 1.79848Z" fill="#311C11"/>
<path d="M11.2583 11.3945C11.1922 11.01 11.1151 10.5156 11.0183 10.0259C10.9648 9.75614 11.0105 9.54492 11.2237 9.35426C11.5463 9.06551 11.8484 8.75382 12.1608 8.4532C12.326 8.29419 12.4802 8.13044 12.4078 7.87175C12.3362 7.61543 12.1049 7.59961 11.9043 7.56638C11.4786 7.49598 11.0506 7.4319 10.621 7.39155C10.3425 7.36545 10.1631 7.24915 10.0458 6.99284C9.84913 6.56248 9.63355 6.14083 9.42505 5.71522C9.33929 5.54038 9.22284 5.41064 9.00725 5.41064C8.79088 5.41064 8.67444 5.53959 8.58789 5.71443C8.38411 6.12738 8.1701 6.53558 7.98441 6.95645C7.85774 7.24441 7.66497 7.37098 7.3534 7.39551C6.92381 7.42873 6.49579 7.49914 6.07013 7.57034C5.88051 7.60198 5.67043 7.63284 5.60513 7.87017C5.53982 8.10829 5.66414 8.27283 5.82229 8.42472C6.14409 8.73404 6.45566 9.05523 6.78769 9.35268C7.00013 9.54334 7.04655 9.75377 6.99541 10.0243C6.90492 10.5021 6.81995 10.9823 6.76173 11.4649C6.70744 11.9111 6.99147 12.1033 7.39589 11.9008C7.85302 11.6714 8.30464 11.4309 8.74997 11.1793C8.93094 11.0773 9.07964 11.0781 9.26139 11.1793C9.71931 11.4341 10.1835 11.6801 10.654 11.9111C11.0152 12.0891 11.2811 11.9032 11.2583 11.3945ZM10.3196 10.495C10.3141 10.6042 10.3653 10.7189 10.2779 10.7735C10.1733 10.8384 10.0694 10.7482 9.9939 10.6888C9.34322 10.1802 8.69804 10.1501 8.03792 10.673C7.95609 10.7379 7.83492 10.8542 7.72556 10.7608C7.63114 10.6801 7.69566 10.5362 7.70431 10.4207C7.70982 10.3431 7.73106 10.2648 7.75467 10.1897C7.94035 9.61453 7.84122 9.14383 7.31642 8.77914C7.15041 8.66364 6.85535 8.50225 6.93797 8.29894C7.00327 8.13835 7.33452 8.16287 7.55246 8.15259C8.04657 8.12885 8.43132 7.98013 8.61464 7.45642C8.69804 7.2183 8.78538 6.81484 8.99309 6.81959C9.24329 6.82592 9.31175 7.22542 9.4038 7.46987C9.5769 7.92792 9.89398 8.11936 10.3566 8.14309C10.5517 8.15338 10.7445 8.19768 10.9396 8.2222C11.1348 8.24673 11.1733 8.32505 11.0278 8.46744C10.8499 8.64149 10.6808 8.82898 10.4849 8.98166C10.1875 9.21424 10.1119 9.50141 10.1953 9.85582C10.2465 10.0734 10.2811 10.2949 10.3196 10.495Z" fill="#311C11"/>
</svg>
