<svg width="29" height="25" viewBox="0 0 29 25" fill="none" xmlns="http://www.w3.org/2000/svg">
<path d="M5.39804 13.9218C4.76197 14.0571 4.33498 14.379 4.07747 14.9177C3.76659 15.5675 3.29119 16.0341 2.60394 16.2768C1.72851 16.5855 0.69297 16.2938 0.121275 15.5703C0.0546961 15.4855 -0.0333417 15.4008 0.0128781 15.277C0.0618492 15.146 0.188404 15.1631 0.294049 15.1504C1.13866 15.0465 1.75217 14.6305 2.14669 13.8618C3.02322 12.1528 4.84891 11.3423 6.70815 11.8292C6.98272 11.9013 7.20722 11.9068 7.45427 11.7423C7.68867 11.586 7.96159 11.4826 8.23836 11.4187C8.437 11.3731 8.51513 11.2537 8.52173 11.071C8.52613 10.9439 8.52833 10.8124 8.50357 10.6886C8.40673 10.1956 8.39243 9.69981 8.51733 9.2156C8.66809 8.6329 8.59271 8.03039 8.72037 7.44494C9.43402 4.17213 12.6436 1.23002 16.7725 1.93762C17.0884 1.99155 17.3965 2.08069 17.7008 2.18468C18.0287 2.29693 18.4772 1.94038 18.4535 1.58933C18.4513 1.55301 18.4359 1.51779 18.4337 1.48148C18.4249 1.33732 18.278 1.17665 18.4568 1.0534C18.6131 0.946099 18.777 1.02368 18.9289 1.08476C19.8549 1.45892 20.277 2.37176 19.9694 3.36604C19.91 3.55862 19.9353 3.67527 20.0838 3.81393C20.3848 4.09455 20.5983 4.43515 20.6335 4.86048C20.6434 4.98153 20.7216 5.05801 20.7892 5.1433C21.263 5.73811 21.7357 6.33346 22.2122 6.92607C22.3943 7.15276 22.512 7.40477 22.5616 7.692C22.6512 8.21087 22.3805 8.69288 21.8826 8.87115C21.7582 8.91572 21.652 8.96414 21.5788 9.08409C21.2113 9.6822 20.3694 9.69266 19.9056 9.08574C19.872 9.04228 19.828 8.99991 19.8131 8.95039C19.6701 8.47003 19.324 8.3952 18.8777 8.42326C18.4051 8.45297 17.9236 8.48104 17.4603 8.32477C17.353 8.28845 17.3096 8.32257 17.3096 8.43592C17.3118 9.30694 17.3112 10.1774 17.3118 11.0484C17.3118 11.137 17.3701 11.1992 17.4152 11.268C17.6369 11.6047 17.8565 11.9426 18.0782 12.2793C18.5349 12.9737 18.6951 13.7407 18.6246 14.56C18.6059 14.7785 18.6791 14.8495 18.8964 14.8341C19.1517 14.8165 19.4098 14.822 19.6657 14.8346C20.6275 14.8814 21.2982 15.5868 21.2999 16.5503C21.3015 17.5495 21.3202 18.5487 21.2949 19.5474C21.2663 20.6842 20.8289 21.6141 19.7933 22.1808C19.187 22.5126 18.6345 22.2826 18.4276 21.6267C18.1789 20.8382 18.3875 20.1438 18.9069 19.532C19.0158 19.4032 19.0692 19.2838 19.067 19.1171C19.0588 18.5124 19.0533 17.9071 19.0654 17.3024C19.0698 17.0939 18.9982 17.024 18.7985 17.0356C18.579 17.0482 18.3589 17.0433 18.1388 17.046C18.0447 17.0471 17.9616 17.068 17.8873 17.1346C17.5093 17.4724 17.0493 17.566 16.5607 17.566C14.9843 17.5671 13.4073 17.5726 11.8309 17.5632C11.6091 17.5621 11.5112 17.6221 11.455 17.8428C11.2245 18.7473 10.9752 19.6475 10.7287 20.5483C10.6957 20.6688 10.7128 20.7524 10.8118 20.8366C11.2933 21.2465 11.7687 21.663 12.2463 22.0774C12.3404 22.1588 12.451 22.1885 12.5748 22.1951C13.3968 22.2408 14.2106 22.8967 14.4285 23.6846C14.5848 24.2508 14.3449 24.7125 13.7814 24.8946C13.1272 25.1064 12.5043 24.9876 11.9387 24.6305C11.0369 24.061 10.2561 23.3341 9.44998 22.6425C9.23429 22.4576 9.02575 22.2639 8.8084 22.0818C8.40673 21.7445 8.27302 21.3114 8.3286 20.8036C8.35886 20.5296 8.39683 20.2561 8.48707 19.9964C8.53439 19.861 8.48542 19.7873 8.38637 19.7218C8.27413 19.6481 8.22075 19.7427 8.16243 19.8093C7.93408 20.0712 7.71453 20.3414 7.47738 20.595C7.36568 20.7144 7.47133 20.7777 7.51425 20.8514C7.79872 21.3362 7.90987 21.8562 7.82293 22.4103C7.72114 23.0601 7.15605 23.3869 6.58215 23.0788C5.74249 22.6293 5.12402 21.9739 5.00517 20.9758C4.943 20.4536 5.10697 19.9771 5.4239 19.5606C5.62914 19.291 5.84318 19.0269 6.06988 18.7754C6.21679 18.6131 6.2322 18.4997 6.08253 18.3149C5.35402 17.4169 5.00627 16.3901 5.09541 15.2264C5.13063 14.7939 5.24177 14.3796 5.39804 13.9218ZM9.25134 9.80435C9.64641 9.60737 10.0178 9.42854 10.4189 9.33665C10.5483 9.30694 10.7359 9.16223 10.8146 9.33005C10.8949 9.50062 10.6666 9.54739 10.5565 9.61947C9.7328 10.1615 9.22768 10.8933 9.18312 11.9002C9.17706 12.0416 9.10828 12.057 8.99604 12.0713C8.48982 12.1368 8.01992 12.3079 7.58523 12.5781C5.63739 13.7903 5.30065 16.4242 6.89798 17.966C7.00968 18.0739 7.11808 18.2153 7.276 18.2263C7.55772 18.2461 7.46803 18.3501 7.35908 18.4805C6.95356 18.9652 6.54969 19.4522 6.14361 19.9364C5.89655 20.2308 5.76175 20.5609 5.81567 20.9499C5.90756 21.6141 6.3593 22.0058 6.88478 22.3349C7.03664 22.4301 7.0515 22.2925 7.0559 22.1929C7.07461 21.7951 6.98822 21.4325 6.71531 21.1233C6.49466 20.8735 6.4567 20.6369 6.62397 20.4283C7.08837 19.85 7.56377 19.28 8.04193 18.7132C8.17233 18.5586 8.3374 18.5394 8.50192 18.6791C8.64168 18.798 8.76659 18.9421 8.9223 19.0313C9.39551 19.302 9.47199 19.6668 9.26785 20.151C8.95312 20.8977 9.16221 21.4523 9.82854 21.9442C10.6588 22.5577 11.3874 23.3066 12.2468 23.8893C12.6149 24.1391 13.0199 24.2635 13.4695 24.187C13.6224 24.1611 13.7303 24.0984 13.6714 23.9086C13.514 23.404 12.9451 22.977 12.4036 22.9825C12.1786 22.9847 12.0009 22.9181 11.832 22.769C11.2614 22.2661 10.6935 21.7593 10.1009 21.2839C9.84395 21.0776 9.80268 20.8801 9.88412 20.5741C10.1779 19.4693 10.5273 18.3792 10.776 17.2617C10.8745 16.8193 10.978 16.7505 11.4473 16.75C13.1707 16.7489 14.8935 16.7412 16.6168 16.7533C17.0146 16.756 17.3343 16.6366 17.5885 16.3412C17.6557 16.263 17.7255 16.2366 17.8251 16.2372C18.3473 16.241 18.87 16.2355 19.3922 16.2405C19.7174 16.2438 19.861 16.3934 19.861 16.7131C19.8605 17.6111 19.8505 18.5096 19.8627 19.4076C19.866 19.6618 19.7807 19.8302 19.5897 19.9958C19.1908 20.3419 19.0588 20.7915 19.1688 21.312C19.2123 21.5167 19.2926 21.5717 19.4852 21.449C20.1631 21.0171 20.4778 20.3788 20.4954 19.6019C20.5185 18.585 20.5026 17.5671 20.4998 16.5497C20.4982 15.9764 20.1295 15.6082 19.5534 15.6055C19.0769 15.6027 18.5999 15.5989 18.1239 15.6159C17.8961 15.6242 17.7927 15.5824 17.8114 15.3205C17.8372 14.9557 17.8136 14.5876 17.8196 14.2211C17.8257 13.8414 17.7839 13.4755 17.6221 13.1234C17.3679 12.5693 16.9871 12.0955 16.6691 11.5827C16.5739 11.4292 16.5249 11.2746 16.526 11.0925C16.5299 10.1213 16.5403 9.14902 16.5172 8.1784C16.509 7.8235 16.6124 7.56269 16.8804 7.33819C17.0135 7.2265 17.0977 7.19843 17.2512 7.30903C17.6601 7.60396 18.1223 7.72171 18.6285 7.66503C18.8282 7.64247 19.0312 7.65293 19.2321 7.63642C19.7889 7.59075 20.272 7.69255 20.628 8.18776C20.8184 8.45242 21.1519 8.42711 21.4407 8.40345C21.5772 8.3919 21.7021 8.26589 21.7142 8.10742C21.7313 7.88128 21.7252 7.66393 21.5612 7.46475C21.0286 6.81877 20.5972 6.09466 20.0453 5.46189C19.9056 5.30177 19.7466 5.1455 19.8208 4.88469C19.8483 4.78785 19.7851 4.66735 19.7075 4.58481C19.5457 4.41039 19.3856 4.23376 19.2106 4.07254C18.8717 3.76001 18.8695 3.76551 19.0978 3.35558C19.302 2.98913 19.352 2.61607 19.149 2.20394C18.9151 2.5825 18.5597 2.79434 18.2917 3.09147C18.1789 3.21637 18.0826 3.22078 17.9346 3.152C16.6515 2.55444 15.3216 2.47576 13.9669 2.84937C12.2353 3.32697 11.0049 4.43735 10.124 5.96701C9.83184 6.47487 9.62826 7.01906 9.50775 7.59185C9.61285 7.63202 9.67173 7.5748 9.7361 7.54948C10.0437 7.42898 10.3551 7.32004 10.6842 7.27822C10.7661 7.26776 10.8877 7.21494 10.9263 7.32774C10.9642 7.43889 10.8448 7.4763 10.7678 7.51812C10.3683 7.73601 10.0189 8.01333 9.74601 8.37979C9.44063 8.79302 9.25134 9.24696 9.25134 9.80435ZM1.61241 15.5494C1.73182 15.6418 1.84406 15.6165 1.94861 15.6088C2.59239 15.5587 3.05403 15.2247 3.31375 14.6475C3.76384 13.6483 4.56003 13.1547 5.61318 13.0816C6.01816 13.0535 6.12325 12.785 6.32904 12.5368C5.00682 12.2667 3.59547 12.9016 2.96655 14.0478C2.63365 14.6552 2.29746 15.2478 1.61241 15.5494ZM20.1653 8.20757C20.3061 8.56357 20.463 8.89591 20.8795 8.94048C21.0264 8.95644 21.1585 8.91242 21.2355 8.72534C20.7854 8.71929 20.4602 8.49974 20.1653 8.20757Z" fill="#311C11"/>
<path d="M18.3932 5.18799C18.6276 5.25787 18.8576 5.35801 19.1102 5.30024C19.185 5.28318 19.2175 5.3283 19.2604 5.38387C19.4205 5.59406 19.3066 5.75308 19.1834 5.9209C19.0502 6.10138 18.905 6.00454 18.7724 5.94016C18.5005 5.8092 18.3531 5.50768 18.3932 5.18799Z" fill="#311C11"/>
<path d="M20.2999 22.6838C20.082 21.8958 19.2682 21.2399 18.4462 21.1943C18.3224 21.1877 18.2118 21.158 18.1177 21.0765C17.6401 20.6622 17.1647 20.2457 16.6832 19.8357C16.5842 19.751 16.5671 19.6679 16.6001 19.5474C16.8263 18.7215 17.0535 17.8956 17.2681 17.0664C16.9963 17.1869 16.6997 17.2502 16.4004 17.259C16.1941 18.0337 15.9613 18.8008 15.755 19.5755C15.6735 19.8814 15.7148 20.0789 15.9718 20.2853C16.5644 20.7612 17.1328 21.2675 17.7028 21.7704C17.8717 21.9189 18.0495 21.9861 18.2745 21.9839C18.8159 21.9784 19.3849 22.4053 19.5423 22.9099C19.6011 23.0997 19.4933 23.1625 19.3403 23.1883C18.8908 23.2643 18.4858 23.1399 18.1177 22.8907C17.2582 22.308 16.5297 21.5591 15.6994 20.9456C15.0331 20.4531 14.824 19.899 15.1387 19.1524C15.3429 18.6681 15.2669 18.3033 14.7932 18.0326C14.6369 17.9435 14.512 17.7993 14.3728 17.6805C14.2083 17.5407 14.0432 17.56 13.9128 17.7146C13.4341 18.2813 12.9592 18.8514 12.4948 19.4297C12.3276 19.6377 12.3655 19.8748 12.5862 20.1246C12.8591 20.4339 12.946 20.7965 12.9268 21.1943C12.9218 21.2939 12.907 21.4314 12.7556 21.3362C12.2307 21.0077 11.7784 20.616 11.6865 19.9513C11.6326 19.5623 11.7674 19.2321 12.0145 18.9378C12.4206 18.4536 12.8244 17.9666 13.23 17.4818C13.3389 17.3514 13.4286 17.2474 13.1469 17.2276C13.039 17.2199 12.9548 17.1517 12.8761 17.0747C12.6819 17.1242 12.48 17.1489 12.2786 17.1489C12.102 17.1489 11.9336 17.1236 11.774 17.0774C11.8318 17.1577 11.8918 17.237 11.9551 17.3151C12.1047 17.4994 12.0888 17.6128 11.9424 17.7757C11.7157 18.0271 11.5017 18.2912 11.2964 18.5608C10.9789 18.9774 10.8155 19.4539 10.8777 19.9761C10.9965 20.9742 11.6156 21.629 12.4547 22.0791C13.0291 22.3866 13.5937 22.0598 13.6955 21.4105C13.7824 20.8564 13.6712 20.3365 13.3868 19.8517C13.3438 19.7785 13.2382 19.7147 13.3499 19.5953C13.5871 19.3416 13.8066 19.0715 14.0349 18.8096C14.0933 18.743 14.1466 18.6478 14.2589 18.7221C14.3579 18.7875 14.4064 18.8613 14.3596 18.9966C14.2688 19.2563 14.2308 19.5298 14.2011 19.8038C14.1455 20.3117 14.2798 20.7447 14.6809 21.082C14.8983 21.2647 15.1068 21.4578 15.3225 21.6427C16.1286 22.3349 16.9094 23.0612 17.8112 23.6307C18.3769 23.9884 18.9997 24.1067 19.654 23.8948C20.2163 23.7116 20.4568 23.25 20.2999 22.6838Z" fill="#311C11"/>
<path d="M28.4323 6.69224C28.3827 6.40502 28.265 6.15301 28.0829 5.92631C27.6063 5.33371 27.1337 4.73835 26.6599 4.14354C26.5923 4.05881 26.5147 3.98233 26.5042 3.86072C26.469 3.43594 26.2555 3.09479 25.9545 2.81417C25.806 2.67551 25.7801 2.55886 25.8401 2.36628C26.1477 1.37255 25.7256 0.459163 24.7996 0.0850018C24.6477 0.0239256 24.4838 -0.0542079 24.3275 0.0536384C24.1487 0.176891 24.295 0.33756 24.3044 0.481722C24.3066 0.518038 24.322 0.553253 24.3242 0.589568C24.3478 0.940619 23.8989 1.29662 23.5715 1.18492C23.2677 1.08093 22.9596 0.991791 22.6432 0.937868C21.1785 0.68696 19.8293 0.89605 18.6667 1.41547C18.8405 1.62181 18.977 1.86226 19.0683 2.11978C19.3132 2.01578 19.569 1.92554 19.8376 1.85181C21.1922 1.4782 22.5216 1.55743 23.8053 2.15444C23.9528 2.22322 24.0496 2.21937 24.1624 2.09391C24.4298 1.79679 24.7853 1.58495 25.0197 1.20638C25.2233 1.61796 25.1727 1.99157 24.9685 2.35803C24.7402 2.76795 24.7424 2.76245 25.0813 3.07499C25.2557 3.23565 25.4164 3.41283 25.5782 3.58726C25.6552 3.67034 25.719 3.79029 25.6915 3.88713C25.6172 4.14795 25.7763 4.30421 25.916 4.46433C26.4679 5.0971 26.8993 5.82121 27.4319 6.46719C27.5959 6.66583 27.6019 6.88317 27.5849 7.10987C27.5728 7.26889 27.4479 7.39489 27.3114 7.4059C27.0225 7.43011 26.6886 7.45487 26.4987 7.1902C26.1422 6.69444 25.6596 6.5932 25.1028 6.63887C24.9019 6.65537 24.6989 6.64492 24.4992 6.66748C23.9929 6.72415 23.5307 6.6064 23.1219 6.31148C22.9684 6.20033 22.8842 6.22894 22.7511 6.34064C22.4831 6.56513 22.3797 6.8265 22.3879 7.18085C22.411 8.15202 22.4006 9.12373 22.3967 10.0949C22.3962 10.277 22.4451 10.4316 22.5398 10.5852C22.8578 11.0985 23.2386 11.5717 23.4928 12.1258C23.654 12.478 23.6958 12.8439 23.6903 13.2235C23.6843 13.59 23.7085 13.9581 23.6821 14.3229C23.6634 14.5848 23.7674 14.6266 23.9946 14.6184C24.4706 14.6013 24.9476 14.6052 25.4241 14.6079C26.0002 14.6107 26.3689 14.9793 26.3705 15.5521C26.3733 16.5695 26.3892 17.5875 26.3661 18.6043C26.3485 19.3812 26.0338 20.0195 25.3559 20.4514C25.1633 20.5742 25.083 20.5191 25.0395 20.3144C24.9294 19.7939 25.0615 19.3444 25.4604 18.9983C25.6514 18.8327 25.7366 18.6648 25.7333 18.4101C25.7218 17.5121 25.7317 16.6136 25.7317 15.7156C25.7317 15.3959 25.5881 15.2462 25.2629 15.2429C24.7407 15.238 24.218 15.2435 23.6958 15.2396C23.5962 15.2391 23.5263 15.2655 23.4592 15.3436C23.2045 15.6391 22.8848 15.7585 22.4875 15.7557C21.8679 15.7513 21.2484 15.7497 20.6283 15.7491C20.5287 16.0545 20.3542 16.3478 20.1479 16.5673C20.9094 16.5668 21.6704 16.5657 22.4319 16.5651C22.9211 16.5651 23.3805 16.4716 23.7585 16.1337C23.8328 16.0672 23.9159 16.0463 24.01 16.0452C24.2301 16.0424 24.4502 16.0474 24.6697 16.0347C24.8695 16.0231 24.941 16.0925 24.9366 16.3016C24.9245 16.9063 24.9294 17.5115 24.9383 18.1162C24.9405 18.283 24.8876 18.4029 24.7781 18.5311C24.2587 19.143 24.0502 19.8374 24.2989 20.6259C24.5058 21.2818 25.0582 21.5123 25.6646 21.18C26.7001 20.6132 27.1375 19.6828 27.1662 18.5465C27.1915 17.5478 27.1733 16.5486 27.1711 15.5494C27.1695 14.5859 26.4987 13.8805 25.5369 13.8338C25.2811 13.8211 25.023 13.8156 24.7677 13.8332C24.5503 13.8481 24.4766 13.7776 24.4959 13.5592C24.5663 12.7404 24.4062 11.9729 23.9495 11.2785C23.7283 10.9417 23.5082 10.6039 23.2864 10.2671C23.2413 10.1983 23.183 10.1356 23.183 10.0476C23.1819 9.17656 23.1824 8.30608 23.1808 7.43506C23.1808 7.32171 23.2237 7.28759 23.3316 7.32391C23.7949 7.48018 24.2763 7.45212 24.749 7.4224C25.1952 7.39434 25.5413 7.46917 25.6844 7.94953C25.6992 7.9996 25.7438 8.04142 25.7774 8.08489C26.2412 8.69235 27.0836 8.68134 27.4506 8.08324C27.5244 7.96384 27.6306 7.91486 27.7544 7.8703C28.2507 7.69312 28.5219 7.21111 28.4323 6.69224ZM26.7496 7.94073C26.3326 7.89616 26.1763 7.56381 26.0354 7.20781C26.3304 7.49944 26.6555 7.71898 27.1056 7.72613C27.0286 7.91321 26.8965 7.95668 26.7496 7.94073Z" fill="#311C11"/>
<path d="M24.2639 4.18799C24.4983 4.25787 24.7283 4.35801 24.9809 4.30024C25.0557 4.28318 25.0881 4.3283 25.1311 4.38387C25.2912 4.59406 25.1773 4.75308 25.054 4.9209C24.9209 5.10138 24.7756 5.00454 24.643 4.94016C24.3712 4.8092 24.2243 4.50768 24.2639 4.18799Z" fill="#311C11"/>
</svg>
