<svg width="20" height="25" viewBox="0 0 20 25" fill="none" xmlns="http://www.w3.org/2000/svg">
<path d="M19.1082 3.36817C19.4781 3.05574 19.209 2.71457 18.9949 2.39578C18.1521 2.71386 17.1012 3.15305 16.4045 2.32156C16.3621 2.27538 16.3124 2.23603 16.269 2.19079C15.7721 1.64369 15.1029 1.51504 14.3935 1.56146C14.2691 1.14795 14.0148 0.823974 13.7594 0.5C13.8381 1.8204 12.9953 2.57744 11.9381 3.56326C10.2054 5.17913 10.7909 7.67008 9.26645 8.85405C7.17723 10.1867 4.96478 7.7443 2.79145 9.01427C2.8143 8.96856 2.82396 8.94783 2.83504 8.92757C3.70187 7.10365 0.893547 3.84954 4.11185 3.3578C4.22212 3.32317 4.33945 3.31092 4.45349 3.2883C0.687853 2.36373 -1.09766 7.76197 2.31432 9.36417C2.32374 9.36817 2.33034 9.37877 2.33576 9.38419C2.33576 9.39268 2.33718 9.39715 2.33553 9.40022C2.3056 9.45535 2.2745 9.50978 2.24505 9.56515C0.819563 11.7472 3.17173 13.343 3.61375 15.339C3.62365 15.3818 3.61163 15.4374 3.5916 15.4784C1.85581 16.8316 3.43068 19.4335 3.08997 21.3491C3.06712 21.5446 3.01952 21.7449 2.93988 21.924C2.78791 22.1968 2.98536 22.4339 3.10929 22.6676C3.18281 22.7963 3.20331 22.9327 3.18304 23.0766C3.14558 23.386 2.98065 23.7948 3.38214 23.9225C3.4123 23.9348 3.44293 23.9458 3.47356 23.9574C3.50372 23.9548 3.53411 23.9534 3.56451 23.9536C3.69033 23.9336 3.82769 23.9376 3.94668 23.976C3.95257 23.9753 3.95846 23.9748 3.96435 23.9741C3.99357 23.9062 4.03079 23.8417 4.07344 23.7837C4.03362 23.5549 3.884 23.3778 3.72025 23.2065C3.53553 23.013 3.47026 22.7788 3.5261 22.5215C3.4884 20.9606 3.52115 19.397 3.77586 17.8422C3.78033 17.804 3.79094 17.7665 3.82274 17.7116C4.65117 19.0419 5.82549 20.2158 6.21662 21.7739C6.43103 22.4376 7.14094 22.719 7.09618 23.4991C7.29692 23.7319 7.55327 23.8447 7.86099 23.8358C7.94275 23.5462 7.8174 23.2001 7.58178 23.0305C6.7616 21.7852 6.03519 20.3011 5.59105 18.8197C5.30242 17.7456 4.46998 16.756 5.35331 15.7181C5.79934 15.1271 5.97487 14.4394 6.05051 13.7118C7.08157 14.5195 8.64748 14.7327 9.86916 14.2228C9.87411 14.2358 9.88283 14.2485 9.88377 14.2617C9.91228 14.7066 10.1121 15.0805 10.3703 15.4287C10.5527 15.6747 10.7445 15.9134 10.9266 16.1594C11.8875 17.6294 12.3281 19.9733 10.9485 21.3234C10.6328 21.5654 10.7424 22.1273 10.2238 22.0722C10.1745 22.0729 10.1154 22.0929 10.0782 22.1245C9.81968 22.3436 9.61705 22.5969 9.60786 22.9579C9.60715 22.9852 9.60645 23.0128 9.60833 23.0401C9.60998 23.0632 9.6154 23.0861 9.62105 23.1195C9.87317 23.1209 10.0944 23.0481 10.2652 22.8615C10.5671 22.4923 10.7977 22.03 11.3116 21.9344C11.5008 21.8896 11.5868 21.7883 11.612 21.5897C11.7155 20.8199 12.1952 20.2372 12.6299 19.6123C12.9901 20.4071 13.3518 21.2289 13.2331 22.1184C12.9826 22.8907 14.1006 22.6334 14.0368 23.3841C14.0471 23.586 14.0467 23.7969 14.2161 23.9689C14.2476 23.9647 14.2797 23.9619 14.3115 23.9607C14.4039 23.9487 14.5019 23.9479 14.5921 23.9666C14.8195 23.9795 15.0464 23.9807 15.2742 23.9826C15.2792 23.9812 15.2839 23.9798 15.2888 23.9783C15.2478 23.9654 15.2212 23.9366 15.1995 23.8801C15.0855 23.5837 14.8963 23.3419 14.6383 23.1551C14.5398 23.0837 14.4408 23.013 14.3426 22.9412C14.1826 22.8245 14.0662 22.6766 14.0087 22.4841C13.0533 20.4907 13.6452 18.3636 13.475 16.2807C13.7587 15.4075 13.9543 14.5249 13.7943 13.5987C13.7877 13.5603 13.8113 13.5091 13.8358 13.4745C16.2572 11.0894 11.5722 7.04687 15.3426 5.11433C16.4549 5.17771 17.0656 4.19755 18.0715 3.96947C18.4558 3.84789 19.5823 4.07078 19.1082 3.36817Z" stroke="#311C11" stroke-miterlimit="10" stroke-linecap="round" stroke-linejoin="round"/>
</svg>
