<svg width="24" height="27" viewBox="0 0 24 27" fill="none" xmlns="http://www.w3.org/2000/svg">
<path d="M8.93729 12.6953C8.80565 12.6953 8.70653 12.6953 8.60691 12.6953C7.98833 12.6953 7.37026 12.6942 6.75169 12.6958C6.341 12.6968 6.13108 12.8549 6.12701 13.1613C6.12294 13.476 6.33947 13.6407 6.76338 13.6412C7.38195 13.6422 8.00002 13.6417 8.6186 13.6417C8.7106 13.6417 8.80209 13.6417 8.9195 13.6417C8.92611 13.7718 8.93628 13.878 8.93628 13.9843C8.93729 15.8563 8.93628 17.7282 8.93729 19.6002C8.9378 20.5817 9.52131 21.1663 10.5008 21.1683C11.28 21.1698 12.0592 21.1688 12.8383 21.1688C12.9385 21.1688 13.0381 21.1688 13.1636 21.1688C13.1697 21.2857 13.1779 21.3752 13.1784 21.4646C13.1794 22.134 13.1753 22.8029 13.1804 23.4723C13.187 24.3308 13.7807 24.9204 14.6402 24.9245C15.3772 24.928 16.1142 24.9265 16.8507 24.9245C17.2024 24.9235 17.4154 24.7374 17.4103 24.4442C17.4058 24.1636 17.1943 23.9786 16.8594 23.9771C16.1396 23.9735 15.4194 23.9776 14.6997 23.9745C14.29 23.973 14.1294 23.8164 14.1289 23.4063C14.1263 21.5937 14.1263 19.7807 14.1289 17.9682C14.1294 17.5676 14.2844 17.4131 14.6829 17.4106C15.3772 17.406 16.072 17.4106 16.7663 17.4075C16.8751 17.407 16.989 17.403 17.0921 17.3725C17.3066 17.3089 17.4307 17.1005 17.4078 16.8794C17.3844 16.6558 17.2218 16.4708 16.9951 16.4692C16.1229 16.4621 15.2491 16.4408 14.3784 16.4819C13.7217 16.5129 13.1957 17.1341 13.1835 17.8167C13.1708 18.5278 13.1723 19.2399 13.1835 19.951C13.187 20.1599 13.1281 20.227 12.9146 20.2239C12.1018 20.2122 11.2881 20.2204 10.4754 20.2188C10.0611 20.2178 9.89184 20.047 9.89184 19.6297C9.89134 15.3266 9.89134 11.024 9.89184 6.72092C9.89184 6.28583 10.056 6.12013 10.4881 6.11912C11.3013 6.11759 12.1146 6.12522 12.9273 6.11454C13.1306 6.112 13.1865 6.17604 13.1835 6.37478C13.1723 7.05232 13.1764 7.72986 13.1804 8.4074C13.1855 9.28571 13.77 9.87226 14.6458 9.87684C15.3828 9.88039 16.1198 9.87938 16.8563 9.87684C17.2004 9.87582 17.4037 9.70453 17.4108 9.41989C17.418 9.12916 17.2019 8.93296 16.8548 8.93093C16.1432 8.92686 15.4316 8.93143 14.7205 8.92839C14.2753 8.92635 14.1289 8.77997 14.1284 8.33116C14.1268 6.54404 14.1268 4.75642 14.1284 2.9693C14.1289 2.5088 14.2768 2.36445 14.7383 2.36343C15.4077 2.36191 16.0766 2.36292 16.746 2.36292C16.8136 2.36292 16.8817 2.36597 16.9493 2.35987C17.2248 2.33548 17.4134 2.13775 17.4108 1.88056C17.4083 1.62083 17.2172 1.41854 16.9397 1.4165C16.1183 1.4104 15.2959 1.3977 14.475 1.42209C13.7761 1.44293 13.2008 2.04677 13.1855 2.75125C13.1697 3.47097 13.1738 4.19121 13.184 4.91093C13.1865 5.10916 13.1311 5.17524 12.9283 5.1727C12.1069 5.16304 11.285 5.16711 10.4637 5.16914C9.53554 5.17168 8.93933 5.76789 8.93831 6.69805C8.93628 8.57869 8.9378 10.4588 8.9378 12.3395C8.93729 12.4462 8.93729 12.554 8.93729 12.6953Z" fill="#311C11"/>
<path d="M19.4191 26.3344C19.4024 26.3344 19.3851 26.3344 19.3683 26.3344C18.7319 26.3273 18.3441 25.9405 18.3406 25.3021C18.337 24.7348 18.337 24.1676 18.3406 23.6008C18.3446 22.9609 18.7345 22.5695 19.3678 22.5685C20.5699 22.567 21.772 22.567 22.9735 22.5685C23.6013 22.5695 23.9921 22.9528 23.9962 23.5744C24.0003 24.1584 24.0003 24.7424 23.9962 25.3265C23.9921 25.9394 23.6084 26.3283 22.999 26.3329C22.3895 26.3379 21.7801 26.3339 21.1707 26.3339C20.5872 26.3344 20.0031 26.3344 19.4191 26.3344ZM19.3119 23.5343C19.3119 24.1417 19.3119 24.7384 19.3119 25.3631C19.3917 25.3697 19.4725 25.3814 19.5533 25.3814C20.6288 25.3824 21.7049 25.3768 22.7804 25.3869C22.9949 25.389 23.0544 25.3204 23.0493 25.112C23.0361 24.5971 23.0447 24.0817 23.0447 23.5343C21.7806 23.5343 20.5551 23.5343 19.3119 23.5343Z" fill="#311C11"/>
<path d="M19.3554 3.76776C18.749 3.76522 18.3485 3.37537 18.3419 2.77305C18.3353 2.1804 18.3353 1.58774 18.3419 0.995595C18.348 0.401923 18.7414 0.00546402 19.3305 0.0034309C20.558 -0.00114363 21.7855 -0.00114363 23.0125 0.0034309C23.6051 0.00546402 23.9919 0.398365 23.9965 0.996103C24.0011 1.58876 24.0011 2.18141 23.9965 2.77356C23.9914 3.37892 23.5975 3.76522 22.9865 3.76776C22.3858 3.7703 21.7845 3.76827 21.1837 3.76827C20.5742 3.76827 19.9648 3.7703 19.3554 3.76776ZM19.3096 2.79593C20.5493 2.79593 21.7804 2.79593 23.0425 2.79593C23.0425 2.21954 23.0455 1.65433 23.0364 1.08963C23.0358 1.04439 22.9474 0.96154 22.8991 0.96154C21.7138 0.959507 20.529 0.966623 19.3437 0.972722C19.3371 0.972722 19.331 0.98238 19.3091 0.999153C19.3096 1.58368 19.3096 2.1804 19.3096 2.79593Z" fill="#311C11"/>
<path d="M19.3318 11.2902C18.7386 11.2826 18.3483 10.8892 18.3417 10.2965C18.3351 9.70384 18.3356 9.11169 18.3417 8.51904C18.3483 7.91774 18.7488 7.52179 19.3542 7.51976C20.5644 7.5162 21.7751 7.5162 22.9853 7.51976C23.608 7.52179 23.9933 7.91317 23.9968 8.54089C24.0004 9.10814 23.9994 9.67487 23.9973 10.2421C23.9948 10.9141 23.6171 11.2887 22.9376 11.2912C22.3535 11.2937 21.7695 11.2917 21.1855 11.2917C20.5674 11.2922 19.9494 11.2983 19.3318 11.2902ZM19.2927 10.1669C19.2917 10.3016 19.3501 10.3443 19.4746 10.3438C20.5995 10.3422 21.7243 10.3417 22.8491 10.3443C22.9864 10.3448 23.0473 10.2965 23.0458 10.1516C23.0407 9.6525 23.0412 9.15388 23.0458 8.65475C23.0468 8.52768 23.0057 8.47075 22.872 8.47126C21.7136 8.47482 20.5547 8.47482 19.3964 8.47736C19.373 8.47736 19.3491 8.49057 19.2947 8.50735C19.2947 9.06951 19.2973 9.61845 19.2927 10.1669Z" fill="#311C11"/>
<path d="M19.4187 18.8176C19.402 18.8176 19.3847 18.8176 19.3679 18.8176C18.7458 18.81 18.3473 18.4207 18.3417 17.8046C18.3366 17.2206 18.3366 16.6366 18.3417 16.0526C18.3473 15.4447 18.7377 15.0487 19.3445 15.0457C20.5634 15.0401 21.7823 15.0401 23.0011 15.0457C23.611 15.0482 23.9933 15.4406 23.9973 16.0541C24.0014 16.6295 24.0004 17.2054 23.9979 17.7808C23.9948 18.4334 23.609 18.8141 22.9488 18.8166C22.3561 18.8192 21.764 18.8171 21.1713 18.8171C20.5868 18.8176 20.0028 18.8176 19.4187 18.8176ZM19.4975 17.8631C20.6056 17.8641 21.7131 17.8621 22.8212 17.8661C22.9752 17.8667 23.0524 17.8341 23.0484 17.6567C23.0382 17.1749 23.0397 16.6925 23.0479 16.2107C23.0509 16.0429 22.9874 15.9896 22.8252 15.9906C21.7172 15.9947 20.6097 15.9936 19.5016 15.9921C19.3781 15.9921 19.2912 16.0089 19.2927 16.1685C19.2988 16.7169 19.2952 17.2659 19.2952 17.8423C19.3827 17.8514 19.4401 17.8631 19.4975 17.8631Z" fill="#311C11"/>
<path d="M1.08124 15.0492C1.06447 15.0492 1.04719 15.0492 1.03041 15.0492C0.394045 15.0421 0.00622644 14.6553 0.00266847 14.0169C-0.000889491 13.4497 -0.000889491 12.8824 0.00266847 12.3157C0.00673472 11.6758 0.396586 11.2839 1.0299 11.2834C2.23199 11.2818 3.43407 11.2818 4.63565 11.2834C5.26337 11.2844 5.65424 11.6676 5.65831 12.2893C5.66237 12.8733 5.66237 13.4573 5.65831 14.0413C5.65424 14.6543 5.27049 15.0431 4.66106 15.0477C4.05163 15.0528 3.4422 15.0487 2.83278 15.0487C2.24927 15.0492 1.66525 15.0492 1.08124 15.0492ZM0.973993 12.2491C0.973993 12.8565 0.973993 13.4532 0.973993 14.0779C1.05379 14.0845 1.13461 14.0962 1.21543 14.0962C2.29095 14.0972 3.36698 14.0916 4.4425 14.1018C4.657 14.1038 4.71646 14.0352 4.71138 13.8268C4.69817 13.3119 4.70681 12.7965 4.70681 12.2491C3.44271 12.2491 2.21725 12.2491 0.973993 12.2491Z" fill="#311C11"/>
</svg>
