<svg width="19" height="19" viewBox="0 0 19 19" fill="none" xmlns="http://www.w3.org/2000/svg">
<path d="M17.5 6H1.5C0.671573 6 0 6.67157 0 7.5V17.5C0 18.3284 0.671573 19 1.5 19H17.5C18.3284 19 19 18.3284 19 17.5V7.5C19 6.67157 18.3284 6 17.5 6Z" fill="#311C11"/>
<path d="M7 2H12V0H7V2ZM12.5 2.5V6H14.5V2.5H12.5ZM6.5 6V2.5H4.5V6H6.5ZM12 2C12.1326 2 12.2598 2.05268 12.3536 2.14645C12.4473 2.24021 12.5 2.36739 12.5 2.5H14.5C14.5 1.83696 14.2366 1.20107 13.7678 0.732233C13.2989 0.263392 12.663 0 12 0V2ZM7 0C6.33696 0 5.70107 0.263392 5.23223 0.732233C4.76339 1.20107 4.5 1.83696 4.5 2.5H6.5C6.5 2.36739 6.55268 2.24021 6.64645 2.14645C6.74021 2.05268 6.86739 2 7 2V0Z" fill="#311C11"/>
<path d="M6.5 12.5H12.5M9.5 9.5V15.5" stroke="#D0C1DE" stroke-width="2" stroke-linecap="round" stroke-linejoin="round"/>
</svg>
