<svg width="20" height="20" viewBox="0 0 20 20" fill="none" xmlns="http://www.w3.org/2000/svg">
<path d="M18 6H2C1.17157 6 0.5 6.67157 0.5 7.5V17.5C0.5 18.3284 1.17157 19 2 19H18C18.8284 19 19.5 18.3284 19.5 17.5V7.5C19.5 6.67157 18.8284 6 18 6Z" stroke="#181818" stroke-linejoin="round"/>
<path d="M7.5 2H12.5V0H7.5V2ZM13 2.5V6H15V2.5H13ZM7 6V2.5H5V6H7ZM12.5 2C12.6326 2 12.7598 2.05268 12.8536 2.14645C12.9473 2.24021 13 2.36739 13 2.5H15C15 1.83696 14.7366 1.20107 14.2678 0.732233C13.7989 0.263392 13.163 0 12.5 0V2ZM7.5 0C6.83696 0 6.20107 0.263392 5.73223 0.732233C5.26339 1.20107 5 1.83696 5 2.5H7C7 2.36739 7.05268 2.24021 7.14645 2.14645C7.24021 2.05268 7.36739 2 7.5 2V0Z" fill="#181818"/>
<path d="M7 12.5H13M10 9.5V15.5" stroke="#181818" stroke-width="2" stroke-linecap="round" stroke-linejoin="round"/>
</svg>
