<svg width="64" height="64" viewBox="0 0 64 64" fill="none" xmlns="http://www.w3.org/2000/svg">
<g clip-path="url(#clip0_259_7876)">
<path d="M5.15438 23.7488H1.25C0.559625 23.7488 0 24.3085 0 24.9988V62.75C0 63.4404 0.559625 64 1.25 64H62.75C63.4403 64 64 63.4403 64 62.75V57.1248C64 56.4344 63.4403 55.8748 62.75 55.8748H60.5625V52.2497C60.5625 51.5595 60.0025 50.9997 59.3125 50.9997C58.6237 50.9997 58.0625 51.5595 58.0625 52.2497V55.8748H54.9375V37.499H58.0625V40.9992C58.0625 41.6879 58.6237 42.2492 59.3125 42.2492C60.0025 42.2492 60.5625 41.6879 60.5625 40.9992V37.499H62.75C63.4404 37.499 64 36.9392 64 36.249V30.6238C64 29.9334 63.4404 29.3738 62.75 29.3738H50.25C49.5596 29.3738 49 29.9335 49 30.6238V36.249C49 36.9394 49.5596 37.499 50.25 37.499H52.4375V55.8748H45.875V24.9985C45.875 24.3082 45.3154 23.7485 44.625 23.7485L5.15438 23.7488ZM2.5 26.2485H43.375V29.3737H2.5V26.2485ZM37.125 36.874V31.8738H43.375V36.874H37.125ZM43.375 39.374V55.8747H37.125V39.374H43.375ZM28.25 36.874V31.8738H34.625V36.874H28.25ZM34.625 39.374V55.8747H28.25V39.374H34.625ZM20.125 36.874V31.8738H25.75V36.874H20.125ZM25.75 39.374V55.8747H20.125V39.374H25.75ZM11.25 36.874V31.8738H17.625V36.874H11.25ZM17.625 39.374V55.8747H11.25V39.374H17.625ZM2.5 31.8738H8.75V36.874H2.5V31.8738ZM2.5 39.374H8.75V55.8747H2.5V39.374ZM61.5 58.3748V61.4999H2.5V58.3748H61.5ZM51.5 34.9989V31.8738H61.5V34.9989H51.5Z" fill="#311C11"/>
<path d="M59.3125 47.8745C60.0029 47.8745 60.5625 47.3149 60.5625 46.6245C60.5625 45.9342 60.0029 45.3745 59.3125 45.3745C58.6221 45.3745 58.0625 45.9342 58.0625 46.6245C58.0625 47.3149 58.6221 47.8745 59.3125 47.8745Z" fill="#311C11"/>
<path d="M44.0348 0C43.5663 0 43.1873 0.379125 43.1873 0.8475V5.08525H39.7969V0.84775C39.797 0.37925 39.4173 0.00025 38.9495 0.00025C36.6124 0.00025 34.7115 1.901 34.7115 4.238V5.08563C30.505 5.08563 27.0834 8.50775 27.0834 12.7139V22.0371H11.601C7.3949 22.0371 3.97278 25.4588 3.97278 29.6653V38.141C3.97278 38.6087 4.3519 38.9883 4.8204 38.9883C5.7739 38.9883 6.65415 38.672 7.36303 38.1386V42.3786H4.8204C4.3519 42.3786 3.97278 42.758 3.97278 43.2262V57.0129C3.97278 57.4815 4.3519 57.8607 4.8204 57.8607C5.28878 57.8607 5.6679 57.4815 5.6679 57.0129V44.074H8.21065C10.6048 44.074 12.7439 42.9644 14.1437 41.2327V57.0132C14.1437 57.4816 14.5228 57.8611 14.991 57.8611C15.4595 57.8611 15.8385 57.4816 15.8385 57.0132V44.074H18.3812C21.6804 44.074 24.54 41.9984 25.5894 38.9401L28.7783 39.4328V41.5311C28.7783 42.6364 29.4869 43.5781 30.4735 43.9277V57.013C30.4735 57.4816 30.8525 57.8609 31.3209 57.8609C31.7888 57.8609 32.1684 57.4816 32.1684 57.013V43.9277C33.1548 43.5781 33.8638 42.6364 33.8638 41.5311V39.5536H37.254V41.5311C37.254 42.6364 37.9627 43.5781 38.9493 43.9277V57.013C38.9493 57.4816 39.3284 57.8609 39.7969 57.8609C40.2648 57.8609 40.6444 57.4816 40.6444 57.013V43.9277C41.6307 43.5781 42.3395 42.6364 42.3395 41.5311V23.625C43.7999 23.2475 44.8824 21.9188 44.8824 20.3419V0.8475C44.8825 0.379125 44.5028 0 44.0348 0ZM33.0077 7.03088C31.42 8.44913 30.4738 10.4931 30.4738 12.7136V19.4941C30.4738 20.5991 29.7648 21.5413 28.7784 21.8913V12.7136C28.7784 10.0344 30.5642 7.765 33.0077 7.03088ZM5.66765 37.1481V29.6651C5.66765 26.9792 7.46215 24.7058 9.9149 23.9775C8.34978 25.3758 7.36278 27.4069 7.36278 29.6651V34.7508C7.3629 35.8556 6.6544 36.7981 5.66765 37.1481ZM18.3814 42.3786H15.8385V37.4341L23.8798 38.6756C22.9879 40.8946 20.8417 42.3786 18.3814 42.3786ZM41.4922 22.0368C40.557 22.0368 39.7969 21.2761 39.7969 20.3416V16.1038C39.7969 15.6354 39.4173 15.2563 38.9493 15.2563C37.5471 15.2563 36.4065 14.1155 36.4065 12.7136C36.4065 12.2451 36.0269 11.866 35.5592 11.866C35.0907 11.866 34.7114 12.2451 34.7114 12.7136C34.7114 14.7603 36.1695 16.4725 38.1017 16.8662V20.3419C38.1017 21.9188 39.1837 23.2476 40.6445 23.625V41.5312C40.6445 41.9984 40.264 42.3787 39.7972 42.3787C39.3295 42.3787 38.9495 41.9984 38.9495 41.5312V38.7061C38.9495 38.2377 38.5699 37.8587 38.102 37.8587H33.0163C32.5478 37.8587 32.1688 38.2377 32.1688 38.7061V41.5312C32.1688 41.9984 31.7888 42.3787 31.3214 42.3787C30.8539 42.3787 30.4738 41.9984 30.4738 41.5312V38.7061C30.4738 38.2876 30.1689 37.9325 29.7555 37.8684L15.1208 35.6081C15.115 35.6073 15.1088 35.6073 15.1029 35.6063C15.0852 35.6041 15.0677 35.6025 15.0498 35.6012C15.0369 35.6005 15.024 35.5994 15.0113 35.5991C15.0047 35.5991 14.9982 35.5981 14.991 35.5981C14.981 35.5981 14.9709 35.5991 14.9607 35.5994C14.9483 35.6 14.9354 35.6005 14.9232 35.602C14.9047 35.6031 14.8865 35.6052 14.8687 35.6081C14.8582 35.6099 14.8475 35.611 14.8372 35.6129C14.8167 35.6169 14.7964 35.6215 14.7767 35.6265C14.7687 35.6287 14.7607 35.6305 14.7523 35.6334C14.7297 35.6399 14.7074 35.6478 14.6857 35.6562C14.6804 35.658 14.6749 35.6597 14.6702 35.662C14.6149 35.6846 14.5623 35.7126 14.5133 35.7461C14.5104 35.7484 14.5075 35.7504 14.5045 35.7525C14.4838 35.7674 14.464 35.782 14.4447 35.7988C14.4428 35.8004 14.4413 35.8013 14.4394 35.8027C14.4339 35.8079 14.4288 35.8129 14.4238 35.818C14.409 35.8312 14.3948 35.8445 14.3815 35.858C14.3737 35.866 14.3662 35.8744 14.3592 35.8826C14.3467 35.8964 14.3352 35.9101 14.3243 35.9241C14.3173 35.9331 14.3103 35.942 14.3039 35.9514C14.2933 35.9661 14.2832 35.9811 14.2734 35.9965C14.2678 36.0059 14.2623 36.0149 14.2573 36.0235C14.2474 36.0404 14.2385 36.0579 14.2298 36.0756C14.2258 36.0839 14.2212 36.0921 14.2175 36.1009C14.209 36.1198 14.2014 36.1394 14.1943 36.1591C14.1917 36.1669 14.1885 36.1746 14.1859 36.1821C14.179 36.2033 14.173 36.225 14.1679 36.2467C14.1667 36.2537 14.1645 36.2608 14.1627 36.2675C14.1578 36.2904 14.1542 36.3138 14.151 36.3377C14.1507 36.3439 14.1488 36.35 14.1484 36.3561C14.1455 36.3859 14.1437 36.4158 14.1437 36.4464C14.1437 39.4295 11.9293 41.9046 9.05803 42.3174V29.6653C9.05803 26.3938 11.7194 23.7324 14.9909 23.7324H27.9308C30.2673 23.7324 32.1687 21.831 32.1687 19.4944V12.7137C32.1687 10.2847 33.6243 8.12575 35.8767 7.21313C36.1969 7.08388 36.4064 6.773 36.4064 6.42788V4.23775C36.4064 3.13287 37.115 2.19037 38.1017 1.84037V5.933C38.1017 6.40138 38.4808 6.7805 38.9493 6.7805H43.187V20.3417C43.1873 21.2764 42.4268 22.0369 41.4922 22.0368Z" fill="#311C11"/>
</g>
<defs>
<clipPath id="clip0_259_7876">
<rect width="64" height="64" fill="white"/>
</clipPath>
</defs>
</svg>
