<svg width="61" height="51" viewBox="0 0 61 51" fill="none" xmlns="http://www.w3.org/2000/svg">
<path fill-rule="evenodd" clip-rule="evenodd" d="M50.4147 20.5468C50.3647 20.1343 50.2897 19.8093 50.2772 19.4843C50.2522 18.9468 50.5147 18.6968 50.9897 18.9468C51.8272 19.3843 52.3897 18.9593 52.9772 18.4718C53.1397 18.3343 53.2772 17.9843 53.5147 18.1593C53.7522 18.3343 53.8522 18.6843 53.7147 19.0093C53.2022 20.2218 52.7272 21.4468 51.8147 22.4593C50.9022 23.4718 50.1147 24.5843 49.7647 25.9468C49.5647 26.7468 49.5272 27.5093 49.8522 28.2843C49.9397 28.4718 49.9897 28.6968 50.0022 28.8968C50.0147 29.0968 49.9272 29.2968 49.7272 29.3843C49.5397 29.4718 49.3397 29.4843 49.2022 29.2968C49.0022 29.0218 48.6897 29.0093 48.4147 28.9968C48.0272 28.9843 47.8022 28.8218 47.6647 28.4718C47.4647 27.9718 47.0647 27.6218 46.7272 27.2218C46.6022 27.0843 46.4397 26.8843 46.5772 26.6968C46.6897 26.5468 46.9022 26.6343 47.0647 26.6718C47.7022 26.8093 48.1272 26.5968 48.4022 25.9468C48.7522 25.1343 49.1647 24.3718 49.5897 23.6093C50.1522 22.6218 50.2022 21.5218 50.4147 20.5468Z" fill="#311C11"/>
<path fill-rule="evenodd" clip-rule="evenodd" d="M53.1772 17.6967C53.8647 17.8342 54.4022 17.5592 54.9397 17.2217C55.5397 16.8342 55.8397 16.9717 55.9772 17.6842C56.1772 18.7342 55.7147 19.1592 54.6897 18.8842C54.2522 18.7592 53.8647 18.6967 53.7772 18.1217C53.7272 17.7967 53.4272 17.7842 53.1772 17.9592C52.9772 18.1092 52.8022 18.2842 52.6147 18.4592C52.1772 18.8592 51.7272 19.0217 51.1272 18.7592C50.3772 18.4342 50.0647 18.6842 50.0272 19.5217C50.0147 19.7092 50.0772 19.9342 49.7772 19.9592C49.5397 19.9717 49.3022 19.9717 49.2022 19.6967C49.1522 19.5717 49.1022 19.4342 49.1147 19.3092C49.2147 18.4842 48.8147 17.8967 48.2272 17.3967C47.9897 17.1967 47.7647 16.9717 47.5647 16.7467C46.9272 16.0342 46.1147 15.8467 45.2272 16.0467C44.7647 16.1592 44.5147 15.9967 44.2897 15.6842C44.0272 15.3217 43.8022 14.9467 43.4147 14.6842C43.1897 14.5342 43.1897 14.2967 43.3647 14.0717C43.5522 13.8342 43.7147 13.9592 43.9147 14.0842C44.4772 14.4717 44.6397 14.4092 44.7772 13.7217C44.8897 13.1217 45.1522 12.6092 45.6772 12.2842C46.0897 12.0342 46.2897 12.1592 46.2772 12.6467C46.2647 12.9967 46.1897 13.3342 46.1772 13.6842C46.1522 15.0467 46.6897 15.7717 48.0272 16.0842C48.6897 16.2467 49.3522 16.3467 50.0272 16.4342C50.5272 16.4967 51.0022 16.6592 51.3272 17.0217C51.8397 17.5967 52.4522 17.8217 53.1772 17.6967Z" fill="#311C11"/>
<path fill-rule="evenodd" clip-rule="evenodd" d="M50.2022 28.2095C50.5772 28.5845 50.5772 28.997 50.6772 29.3595C50.9022 30.1595 51.1647 30.897 51.7647 31.5095C52.2397 31.997 52.5647 32.597 52.8647 33.2095C53.1897 33.872 53.5772 34.497 54.1397 34.997C54.3897 35.2095 54.5897 35.447 54.1147 35.697C53.7272 35.897 53.7522 36.2345 53.8647 36.6095C53.9147 36.797 53.9897 37.1095 53.7272 37.172C53.5147 37.222 53.4772 36.922 53.4022 36.747C52.8772 35.472 52.4022 34.1845 51.7147 32.9845C51.2522 32.172 50.6397 31.522 49.8522 31.022C49.3147 30.672 48.7772 30.322 48.3897 29.797C48.2772 29.6345 48.0897 29.397 48.2772 29.2345C48.4272 29.097 48.6897 29.1595 48.8772 29.272C49.9147 29.872 50.1522 29.747 50.1522 28.5345C50.1522 28.4595 50.1772 28.3845 50.2022 28.2095Z" fill="#311C11"/>
<path fill-rule="evenodd" clip-rule="evenodd" d="M54.6272 46.0717C54.6647 44.4092 54.5772 42.6592 54.4147 40.8967C54.3397 40.0842 54.1772 39.2842 54.1397 38.4842C54.1272 38.3467 54.0272 38.0717 54.3397 38.1217C54.5522 38.1592 54.8647 38.1092 54.8272 38.5342C54.6772 40.1592 55.0272 41.7717 55.1272 43.3842C55.1772 44.2217 55.1022 45.0842 55.5647 45.8842C55.7272 46.1592 55.2647 46.3467 55.1147 46.5967C55.0397 46.7217 54.8772 46.7092 54.7647 46.5842C54.6272 46.4592 54.4272 46.3842 54.6272 46.0717Z" fill="#311C11"/>
<path fill-rule="evenodd" clip-rule="evenodd" d="M55.0022 37.2218C55.2397 36.7343 55.2647 36.2968 55.0022 35.8968C54.8647 35.6843 54.8397 35.5718 55.0897 35.4593C55.1522 35.4343 55.2147 35.3593 55.2647 35.3093C55.4647 35.1343 55.5397 34.6843 55.8897 34.8468C56.1397 34.9718 55.9522 35.3468 55.9897 35.5968C56.0022 35.6968 55.9897 35.7843 55.9897 35.8843C55.9772 36.8593 55.9772 36.8593 55.0022 37.2218Z" fill="#311C11"/>
<path fill-rule="evenodd" clip-rule="evenodd" d="M55.2897 47.0218C55.2272 47.2843 55.0147 47.4468 54.8022 47.5718C54.3647 47.8343 54.1397 48.2093 54.1147 48.7093C54.1147 48.8343 54.1397 49.0093 53.9522 49.0218C53.7397 49.0343 53.5897 48.8968 53.4522 48.7593C53.3272 48.6468 53.3022 48.5218 53.4147 48.4093C53.8647 47.9718 54.2397 47.4968 54.4897 46.9093C54.6022 46.6468 54.9022 47.0968 55.1397 46.9093C55.2147 46.8468 55.2772 46.9218 55.2897 47.0218Z" fill="#311C11"/>
<path fill-rule="evenodd" clip-rule="evenodd" d="M54.9522 36.5593C54.9897 36.8218 54.8772 37.0343 54.7022 37.2343C54.5647 37.3968 54.4022 37.3968 54.2397 37.2843C54.0772 37.1718 53.9647 36.1093 54.1022 35.9718C54.2522 35.8093 54.4522 35.7968 54.6397 35.8718C54.9147 35.9968 54.9647 36.2593 54.9522 36.5593Z" fill="#311C11"/>
<path fill-rule="evenodd" clip-rule="evenodd" d="M55.2272 42.0094C55.3272 40.9969 54.8897 40.0344 54.9397 39.0219C54.9522 38.8844 54.9147 38.7469 54.9522 38.6219C55.0022 38.4344 54.9647 38.0969 55.2272 38.1219C55.5397 38.1344 55.3897 38.4594 55.3897 38.6469C55.4397 39.7594 55.2022 40.8719 55.2272 42.0094Z" fill="#311C11"/>
<path fill-rule="evenodd" clip-rule="evenodd" d="M53.1397 49.7595C52.9147 49.6345 52.6022 49.7095 52.6022 49.3595C52.6147 49.047 52.7647 48.822 53.0897 48.8345C53.3772 48.847 53.6772 49.097 53.6897 49.2845C53.6897 49.4845 53.3522 49.6345 53.1397 49.7595Z" fill="#311C11"/>
<path fill-rule="evenodd" clip-rule="evenodd" d="M51.7397 50.3093C52.3272 49.5093 52.3522 49.5093 53.4147 50.0843C52.8772 50.4093 52.3147 50.3218 51.7397 50.3093Z" fill="#311C11"/>
<path fill-rule="evenodd" clip-rule="evenodd" d="M56.0897 46.6218C56.0147 46.7968 55.9897 47.0093 55.7772 47.0218C55.5272 47.0343 55.4772 46.7968 55.4522 46.6218C55.4272 46.4593 55.5647 46.3218 55.7397 46.3218C55.9147 46.3218 56.0647 46.4218 56.0897 46.6218Z" fill="#311C11"/>
<path fill-rule="evenodd" clip-rule="evenodd" d="M55.6022 37.6467C55.5022 37.8342 55.3147 37.8842 55.1397 37.9217C55.0647 37.9342 54.9772 37.8842 55.0022 37.7967C55.0647 37.6092 55.2022 37.4717 55.4272 37.4842C55.5147 37.4842 55.6022 37.5092 55.6022 37.6467Z" fill="#311C11"/>
<path fill-rule="evenodd" clip-rule="evenodd" d="M53.8022 37.6343C53.9772 37.5468 54.0272 37.5093 54.0397 37.5093C54.2397 37.6593 54.5522 37.4593 54.6897 37.7468C54.7022 37.7843 54.6647 37.8843 54.6397 37.8968C54.3147 37.9718 54.1772 37.6718 53.8022 37.6343Z" fill="#311C11"/>
<path fill-rule="evenodd" clip-rule="evenodd" d="M23.2897 11.6344C24.0647 11.5844 24.8022 11.8469 25.3647 12.5219C25.4647 12.6344 25.5897 12.7469 25.7022 12.8344C26.7522 13.6219 26.5522 14.5469 25.7022 15.1719C25.2397 15.5219 24.7022 15.7719 24.2272 16.1094C22.5772 17.2719 21.6147 18.9469 20.8272 20.7469C20.7522 20.9219 20.6772 21.1094 20.5897 21.2719C20.2772 21.8219 19.8022 21.9344 19.3272 21.5469C19.0147 21.2844 18.7272 21.1719 18.3272 21.3094C18.0897 21.3844 17.7647 21.4469 17.6147 21.1094C17.4647 20.7844 17.5147 20.4969 17.7772 20.2094C19.1397 18.6219 20.3022 16.9094 21.1022 14.9719C21.3147 14.4594 21.3772 13.9219 21.3897 13.3844C21.4397 12.0219 21.8397 11.6219 23.2897 11.6344Z" fill="#311C11"/>
<path fill-rule="evenodd" clip-rule="evenodd" d="M17.8647 21.872C17.9772 21.9095 18.1147 21.9845 18.1897 21.872C18.3897 21.5845 18.6522 21.472 18.9272 21.697C19.3147 22.022 19.8772 22.2595 19.8772 22.872C19.8772 23.4595 20.1147 23.8845 20.4522 24.347C21.2772 25.4595 22.2897 26.347 23.4397 27.072C23.6147 27.1845 23.8647 27.247 23.8272 27.522C23.8022 27.7845 23.5522 27.772 23.3897 27.8345C23.0397 27.9595 22.8772 28.172 22.7897 28.5345C22.6772 28.997 22.6647 29.497 21.8522 29.447C20.9647 29.3845 20.9397 29.522 21.0647 28.5345C21.1647 27.672 20.9647 26.9595 20.3022 26.3345C19.1272 25.247 18.1772 23.9095 16.7772 23.047C16.5897 22.9345 16.4647 22.747 16.5272 22.497C16.5897 22.247 16.7897 22.2595 16.9897 22.247C17.1772 22.247 17.3272 22.1595 17.4397 22.022C17.5272 21.8845 17.6647 21.7845 17.8647 21.872Z" fill="#311C11"/>
<path fill-rule="evenodd" clip-rule="evenodd" d="M22.4647 36.0093C22.5772 34.4218 22.0397 32.9468 21.6022 31.4593C21.5022 31.1468 21.4022 30.8343 21.3147 30.5093C21.2022 30.0593 21.4272 29.7843 21.8272 29.6843C22.2647 29.5718 22.4772 29.8593 22.5647 30.2343C22.7522 31.0093 22.7022 31.8094 22.8397 32.5969C23.0897 34.0344 23.6897 35.3718 23.9147 36.8218C23.9772 37.2343 23.9022 37.6093 23.5147 37.8343C23.1897 38.0218 22.9147 37.8468 22.6772 37.6468C22.5147 37.5093 22.4647 37.3343 22.4647 37.1218C22.4647 36.7468 22.4647 36.3718 22.4647 36.0093Z" fill="#311C11"/>
<path fill-rule="evenodd" clip-rule="evenodd" d="M23.5022 34.0594C23.2272 32.9969 22.7397 31.9719 23.0147 30.8469C23.0522 30.6969 23.0022 30.4844 22.9272 30.3469C22.6772 29.8594 22.6647 29.4219 22.8897 28.8844C23.0647 28.4594 23.2272 28.1219 23.7022 28.0094C23.9897 27.9344 24.1272 27.6969 24.2772 27.4594C24.4897 27.1094 24.7772 26.9719 25.1522 27.2094C25.5522 27.4469 25.2897 27.7094 25.1772 27.9594C25.1272 28.0844 25.0647 28.2094 24.9897 28.3219C23.7147 29.8969 23.4897 31.7594 23.5022 33.6844C23.5022 33.7969 23.5022 33.9344 23.5022 34.0594Z" fill="#311C11"/>
<path fill-rule="evenodd" clip-rule="evenodd" d="M24.0897 16.5346C24.2272 16.3346 24.4647 16.2346 24.6647 16.1221C24.9897 16.8346 25.1272 17.5846 25.2522 18.3471C25.5897 20.4471 25.4522 22.5596 25.5022 24.6721C25.5272 25.6721 25.1897 26.4471 24.3147 26.9471C24.0397 27.2721 23.8147 27.1471 23.6147 26.8721C23.6272 26.8596 23.6272 26.8346 23.6522 26.8221C24.6897 26.4471 24.7772 25.5721 24.8022 24.6721C24.8647 22.3596 24.6522 20.0721 24.3522 17.7846C24.2772 17.3471 24.0272 16.9721 24.0897 16.5346Z" fill="#311C11"/>
<path fill-rule="evenodd" clip-rule="evenodd" d="M23.6022 40.1343C23.2897 42.0843 23.8522 43.8468 24.2897 45.6343C24.3772 45.9718 24.3522 46.3343 24.3022 46.6718C24.2772 46.8343 24.1522 46.9468 23.9647 46.9343C23.7397 46.9218 23.7272 46.7593 23.7397 46.5968C23.9522 44.7093 23.2397 42.9843 22.8522 41.2093C22.7647 40.8343 22.6522 40.4718 22.7897 40.0718C22.8772 39.8343 22.9022 39.4843 23.1897 39.5218C23.5022 39.5593 23.5772 39.9093 23.6022 40.1343Z" fill="#311C11"/>
<path fill-rule="evenodd" clip-rule="evenodd" d="M24.6272 46.3471C24.1522 44.2471 23.5522 42.2346 23.7522 40.1221C23.7772 39.9096 23.6397 39.5596 23.9772 39.5721C24.2647 39.5846 24.2022 39.9221 24.2147 40.1471C24.2272 40.3971 24.2272 40.6471 24.2147 40.9096C24.1522 42.5221 24.2022 44.1221 24.6522 45.6971C24.6897 45.8596 24.7647 46.0721 24.6272 46.3471Z" fill="#311C11"/>
<path fill-rule="evenodd" clip-rule="evenodd" d="M19.7522 17.1594C19.5022 17.1344 19.2522 17.1469 18.9397 17.2594C19.0647 16.8344 19.1022 16.5094 18.9022 16.1469C18.7647 15.9094 18.8272 15.4344 19.2772 15.5219C19.7397 15.6094 20.1647 15.4594 20.6022 15.4969C20.3647 16.0844 20.1272 16.6594 19.7522 17.1594Z" fill="#311C11"/>
<path fill-rule="evenodd" clip-rule="evenodd" d="M24.5272 47.0093C24.6272 47.4468 24.3147 47.5468 24.1022 47.6718C23.6522 47.9593 23.4147 48.3343 23.3897 48.8593C23.3897 48.9718 23.4772 49.1843 23.2522 49.1718C23.0397 49.1593 22.8647 49.0218 22.7022 48.8718C22.5772 48.7593 22.5772 48.6343 22.6897 48.5218C23.0647 48.1468 23.3772 47.7468 23.6647 47.3093C23.7897 47.1093 24.2147 47.1093 24.5272 47.0093Z" fill="#311C11"/>
<path fill-rule="evenodd" clip-rule="evenodd" d="M24.1772 39.1095C23.6397 38.672 23.9147 38.2595 24.0647 37.9095C24.2397 37.5095 24.6397 37.772 24.9397 37.722C25.0522 37.7095 25.1147 37.7845 25.1147 37.897C25.1022 38.097 24.9647 38.2345 24.8147 38.297C24.4897 38.447 24.2272 38.6345 24.1772 39.1095Z" fill="#311C11"/>
<path fill-rule="evenodd" clip-rule="evenodd" d="M23.1522 49.4094C22.7022 49.6094 22.4147 50.1344 21.9397 49.6844C21.7397 49.4969 21.8897 49.2094 22.0647 49.0594C22.5522 48.6719 22.7272 49.2844 23.1522 49.4094Z" fill="#311C11"/>
<path fill-rule="evenodd" clip-rule="evenodd" d="M20.8897 50.4344C21.2397 50.1969 21.4147 49.9844 21.5647 49.6719C21.8272 50.1344 22.3397 49.9094 22.6772 50.2219C22.1397 50.5719 21.5772 50.4094 20.8897 50.4344Z" fill="#311C11"/>
<path fill-rule="evenodd" clip-rule="evenodd" d="M23.2147 38.6594C22.9147 38.6594 22.6897 38.6219 22.7022 38.2969C22.7022 38.1594 22.8022 38.0469 22.9147 38.1344C23.1272 38.2969 23.5772 37.9594 23.6022 38.4344C23.6147 38.7344 23.3272 38.5969 23.2147 38.6594Z" fill="#311C11"/>
<path fill-rule="evenodd" clip-rule="evenodd" d="M22.8272 39.1344C23.0772 38.9344 23.3022 38.9094 23.5272 38.8969C23.6772 38.8844 23.7897 38.9593 23.8272 39.1093C23.8522 39.2093 23.8272 39.2969 23.7522 39.3719C23.6522 39.4719 23.5522 39.4344 23.4397 39.3844C23.2647 39.2969 23.0647 39.2344 22.8272 39.1344Z" fill="#311C11"/>
<path fill-rule="evenodd" clip-rule="evenodd" d="M25.3647 46.747C25.3272 46.947 25.2397 47.1095 25.0522 47.1345C24.8272 47.1595 24.7647 46.947 24.7397 46.7845C24.6897 46.547 24.9022 46.497 25.0647 46.472C25.2397 46.4595 25.3272 46.597 25.3647 46.747Z" fill="#311C11"/>
<path fill-rule="evenodd" clip-rule="evenodd" d="M18.9522 18.3095C18.9397 17.4595 18.9647 17.4095 19.6272 17.397C19.4022 17.697 19.2522 18.0595 18.9522 18.3095Z" fill="#311C11"/>
<path fill-rule="evenodd" clip-rule="evenodd" d="M5.8022 1.28438C5.3022 1.72188 5.2772 2.03438 5.7272 2.67188C5.2772 2.88438 4.8522 3.12188 4.9147 3.72188C4.9522 4.12188 5.2022 4.37188 5.5522 4.48438C6.1397 4.65938 6.6272 4.47188 6.9522 3.88438C7.1022 4.17188 7.0272 4.37188 6.8647 4.54688C6.6272 4.80938 6.4022 5.07188 6.1272 5.29688C5.5272 5.79688 5.0897 6.39688 4.9272 7.17188C4.8897 7.37188 4.8397 7.59688 4.6772 7.68438C3.8772 8.09688 3.1897 8.73438 2.2897 8.95938C2.1147 9.00938 1.9022 9.02188 1.8272 9.18438C1.5772 9.75938 0.964703 10.0719 0.752203 10.6719C0.677203 10.9094 0.527203 11.0594 0.289703 11.0344C0.00220338 11.0094 0.0272033 10.7469 0.00220335 10.5344C-0.0227967 10.0219 0.164703 9.63438 0.577203 9.33438C1.1397 8.92188 1.5772 8.42188 1.7897 7.73438C1.8397 7.55938 1.9147 7.38438 1.7397 7.24688C1.6022 7.13438 1.4397 7.22188 1.3022 7.28438C0.877203 7.44688 0.577203 7.79688 0.152203 8.08438C0.264703 7.52188 0.577203 7.12188 0.864703 6.72188C1.3647 6.02188 1.8647 5.33438 2.2647 4.57188C2.9147 3.34688 3.8147 2.30938 4.8647 1.44688C5.6647 0.796879 6.6897 0.446879 7.6647 0.059379C8.0397 -0.090621 8.4397 0.046879 8.6772 0.434379C8.9397 0.846879 9.1147 1.25938 8.9147 1.75938C8.8147 2.00938 8.6022 2.08438 8.3647 2.13438C8.0772 2.18438 8.0772 1.94688 7.9772 1.79688C7.6522 1.27188 7.2522 1.24688 6.8897 1.74688C6.7522 1.93438 6.6147 2.12188 6.4147 2.24688C6.2147 2.38438 5.9897 2.48438 5.7647 2.32188C5.5397 2.15938 5.5897 1.92188 5.6772 1.68438C5.7272 1.57188 5.8897 1.45938 5.8022 1.28438Z" fill="#311C11"/>
<path fill-rule="evenodd" clip-rule="evenodd" d="M1.8522 11.2468C1.9897 10.9218 2.2022 10.8093 2.3147 10.6468C3.2022 9.42182 4.5897 8.83432 5.7647 7.98432C7.1772 6.95932 7.4397 5.58432 7.1897 4.00932C7.1272 3.63432 7.1522 3.33432 7.3522 3.00932C7.8022 2.25932 7.9022 2.30932 8.4147 2.98432C9.0397 3.79682 9.3272 4.73432 9.6272 5.67182C10.1522 7.34682 9.1647 8.70932 7.4147 8.70932C6.9897 8.70932 6.6272 8.82182 6.2522 9.03432C5.5397 9.44682 4.7897 9.77182 4.1022 10.2093C3.4522 10.6593 2.6647 10.8093 1.8522 11.2468Z" fill="#311C11"/>
<path fill-rule="evenodd" clip-rule="evenodd" d="M9.15221 0.871981C9.28971 0.846981 9.41471 0.809481 9.55221 0.784481C10.4272 0.646981 10.4522 0.671981 10.2647 1.52198C10.0522 2.50948 10.0522 2.50948 9.02721 2.43448C8.83971 2.42198 8.65221 2.49698 8.46471 2.52198C8.46471 2.47198 8.43971 2.38448 8.46471 2.35948C9.26471 1.85948 9.30221 1.78448 9.15221 0.871981Z" fill="#311C11"/>
<path fill-rule="evenodd" clip-rule="evenodd" d="M5.91471 4.35923C5.47721 4.35923 5.11471 4.00923 5.13971 3.59673C5.16471 3.12173 5.48971 2.93423 5.91471 2.89673C6.35221 2.87173 6.75221 3.23423 6.73971 3.62173C6.73971 3.99673 6.32721 4.35923 5.91471 4.35923Z" fill="#311C11"/>
<path fill-rule="evenodd" clip-rule="evenodd" d="M12.5147 6.62186C12.5147 5.92186 13.0647 5.72186 13.5147 5.50936C13.9022 5.33436 14.0147 5.74686 14.1897 5.98436C14.5522 6.47186 14.9022 6.94686 15.2647 7.43436C15.3897 7.59686 15.6522 7.73436 15.4897 7.97186C15.3272 8.18436 15.0522 8.40936 14.8022 8.33436C14.3772 8.20936 14.1272 8.25936 14.0022 8.69686C13.9772 8.79686 13.8897 8.84686 13.7772 8.82186C13.6397 8.79686 13.5772 8.68436 13.5772 8.55936C13.6397 7.83436 13.2147 7.40936 12.6772 7.04686C12.5272 6.94686 12.5022 6.77186 12.5147 6.62186Z" fill="#311C11"/>
<path fill-rule="evenodd" clip-rule="evenodd" d="M13.6397 5.23451C13.2147 5.13451 12.8897 5.27201 12.6772 5.68451C12.6147 5.82201 12.4897 5.94701 12.3022 5.92201C12.0772 5.89701 12.0647 5.69701 12.0147 5.53451C11.8772 5.10951 11.8147 4.67201 11.5522 4.28451C11.3522 4.00951 11.6897 3.92201 11.8022 3.78451C12.4022 3.02201 12.7522 2.97201 13.5522 3.53451C13.8147 3.72201 14.0647 3.94701 14.3147 4.17201C14.5272 4.35951 14.7147 4.57201 14.6022 4.87201C14.4772 5.19701 14.1897 5.24701 13.8772 5.23451C13.8022 5.22201 13.7272 5.23451 13.6397 5.23451Z" fill="#311C11"/>
<path fill-rule="evenodd" clip-rule="evenodd" d="M18.0147 14.5842C18.0022 14.8342 17.8022 15.0342 17.5397 15.1217C17.0647 15.2717 16.8397 15.5592 16.8272 16.0467C16.8272 16.2842 16.7897 16.6092 16.4647 16.6092C16.2022 16.6092 16.1397 16.3342 16.1272 16.0842C16.1022 15.6717 15.8147 15.4342 15.5522 15.1842C15.0272 14.6717 15.0647 14.4967 15.7147 14.1717C15.8022 14.1217 15.9022 14.0092 15.9272 13.9092C16.1022 13.1717 16.7397 13.5092 17.0397 13.5717C17.4272 13.6467 17.9022 13.9342 18.0022 14.4592C18.0147 14.4842 18.0147 14.5092 18.0147 14.5842Z" fill="#311C11"/>
<path fill-rule="evenodd" clip-rule="evenodd" d="M16.5022 10.6093C16.5647 10.9593 16.3897 11.1718 16.0647 11.2593C15.7147 11.3468 15.5897 11.0593 15.4647 10.8218C15.3897 10.6718 15.3522 10.4343 15.1522 10.4468C14.9147 10.4593 15.0022 10.7218 14.9272 10.8593C14.8397 11.0343 14.8647 11.3593 14.5522 11.2718C14.2522 11.1968 14.3647 10.9218 14.4147 10.7343C14.5272 10.2843 14.2897 9.99683 14.0147 9.70933C13.7147 9.38433 13.8272 8.82183 14.3397 8.55933C14.5647 8.44683 14.9522 8.42183 15.1397 8.80933C15.3397 9.20933 15.7897 9.35933 16.0772 9.67183C16.3522 9.94683 16.5522 10.2218 16.5022 10.6093Z" fill="#311C11"/>
<path fill-rule="evenodd" clip-rule="evenodd" d="M11.9397 2.73422C11.9397 3.39672 11.6147 3.85921 11.1522 3.90921C10.6647 3.95921 10.1522 3.55921 10.0022 3.00921C9.9647 2.89671 9.9022 2.75922 10.0022 2.68422C10.4522 2.28422 10.3772 1.69671 10.5147 1.19671C10.5772 0.959215 10.7022 0.846715 10.8522 1.02171C11.3272 1.52171 12.0022 1.93422 11.9397 2.73422Z" fill="#311C11"/>
<path fill-rule="evenodd" clip-rule="evenodd" d="M16.7147 13.3844C16.6772 13.3719 16.6147 13.3594 16.5647 13.3219C16.1022 12.9969 15.9147 13.2594 15.7897 13.6844C15.7522 13.8094 15.7147 13.9719 15.5397 13.9344C15.3897 13.8969 15.4272 13.7344 15.4397 13.6344C15.5147 13.0844 15.2647 12.6844 14.9022 12.2844C14.7397 12.1094 14.4147 11.8594 14.7272 11.5469C14.9772 11.3094 15.1772 11.1844 15.6522 11.3469C16.3397 11.5844 16.6022 12.1469 17.0397 12.5719C17.1897 12.7219 17.2522 12.9469 17.1022 13.1594C17.0272 13.2969 16.9022 13.3969 16.7147 13.3844Z" fill="#311C11"/>
<path fill-rule="evenodd" clip-rule="evenodd" d="M17.9022 17.1469C17.7522 17.1344 17.6772 17.1469 17.6022 17.1344C16.8772 17.0219 16.8897 16.9344 16.9897 16.2344C17.0897 15.4969 17.6897 15.3219 18.1397 14.9969C18.3897 14.8219 18.7647 15.1844 18.7022 15.5719C18.6522 15.8969 18.5897 16.1969 18.7772 16.5219C18.9022 16.7469 18.8272 16.9969 18.5022 17.0219C18.2897 17.0344 18.0772 17.1969 17.9022 17.1469Z" fill="#311C11"/>
<path fill-rule="evenodd" clip-rule="evenodd" d="M20.4147 13.2593C20.0272 13.9218 19.7272 14.4718 19.5522 15.0843C19.4897 15.3093 19.2897 15.2968 19.1272 15.2593C18.8522 15.1968 19.0022 15.0093 19.0647 14.8968C19.2647 14.4593 19.3147 13.9593 19.6397 13.5843C19.7897 13.3968 20.0022 13.3093 20.4147 13.2593Z" fill="#311C11"/>
<path fill-rule="evenodd" clip-rule="evenodd" d="M21.6147 25.3345C21.4647 25.247 21.3397 25.122 21.2647 24.9595C21.1397 24.7595 21.2022 24.547 21.2522 24.347C21.5522 23.2095 21.7647 22.047 21.6897 20.8595C21.6522 20.2345 21.7147 19.622 21.9522 19.047C22.0397 18.8595 22.1272 18.6595 22.3022 18.522C22.5522 18.7595 22.5522 19.0845 22.5897 19.3845C22.8397 21.3345 22.6147 23.222 21.8647 25.047C21.8272 25.1595 21.7647 25.2845 21.6147 25.3345Z" fill="#311C11"/>
<path fill-rule="evenodd" clip-rule="evenodd" d="M25.2772 26.9845C26.5147 26.6345 26.7147 25.597 26.7397 24.572C26.8147 21.9845 27.0147 19.372 26.1772 16.847C26.0272 16.3845 25.9272 15.9095 25.5897 15.5345C25.6647 15.4845 25.7397 15.447 25.8147 15.397C26.5772 16.972 26.9647 18.6595 26.9897 20.397C27.0147 21.9345 27.1272 23.472 26.8897 24.997C26.8522 25.2095 26.7897 25.4095 26.7772 25.622C26.7272 26.247 26.4522 26.672 25.8522 26.897C25.7147 26.947 25.6022 27.072 25.4772 27.1595C25.4147 27.1095 25.3397 27.047 25.2772 26.9845Z" fill="#311C11"/>
<path fill-rule="evenodd" clip-rule="evenodd" d="M24.3022 26.9471C25.2522 26.2096 25.4147 25.2096 25.3897 24.0596C25.3397 22.0846 25.4522 20.1096 25.1272 18.1471C25.0147 17.4596 24.8272 16.7971 24.6647 16.1221C24.7397 16.0846 24.8147 16.0346 24.8897 15.9971C25.2897 17.8721 25.6647 19.7596 25.6272 21.6971C25.6147 22.7846 25.6147 23.8721 25.6022 24.9596C25.5897 25.7346 25.3147 26.3846 24.6772 26.8596C24.5522 26.8721 24.4272 26.9096 24.3022 26.9471Z" fill="#311C11"/>
<path fill-rule="evenodd" clip-rule="evenodd" d="M24.0897 16.5342C24.4772 17.3967 24.5897 18.3342 24.6397 19.2592C24.7397 20.8842 25.0147 22.4967 24.9022 24.1342C24.8647 24.7342 24.8647 25.3467 24.7647 25.9342C24.6522 26.5342 24.0397 26.6217 23.6022 26.8717C23.5272 26.8342 23.4522 26.7842 23.3772 26.7467C24.5397 26.5217 24.6147 25.6342 24.6772 24.6967C24.7647 23.2717 24.6397 21.8717 24.5272 20.4592C24.4147 19.1842 24.3522 17.9092 23.9522 16.6717C23.9897 16.6217 24.0397 16.5717 24.0897 16.5342Z" fill="#311C11"/>
<path fill-rule="evenodd" clip-rule="evenodd" d="M22.7897 26.3467C22.6647 26.2467 22.5397 26.1342 22.4272 26.0342C23.0772 25.5217 23.1897 24.7842 23.2897 24.0217C23.4522 22.8842 23.3772 21.7467 23.3147 20.6092C23.2522 19.4967 23.2647 18.3842 23.2647 17.2717C23.3022 17.2342 23.3397 17.1967 23.3772 17.1592C23.6147 17.4717 23.5772 17.8717 23.6022 18.2217C23.7147 19.5717 23.9522 20.9217 23.8647 22.2842C23.7897 23.4467 23.6397 24.5967 23.4897 25.7467C23.4272 26.0842 23.1522 26.2967 22.7897 26.3467Z" fill="#311C11"/>
<path fill-rule="evenodd" clip-rule="evenodd" d="M22.7897 26.3471C23.1772 26.1221 23.3522 25.8221 23.4272 25.3346C23.7522 23.1596 23.8897 20.9971 23.5272 18.8221C23.4397 18.2721 23.4147 17.7096 23.3647 17.1471C23.4147 17.0971 23.4647 17.0471 23.5147 16.9971C23.7647 18.9721 24.1147 20.9471 23.8897 22.9596C23.8022 23.7471 23.6897 24.5471 23.6272 25.3346C23.5897 25.8596 23.4022 26.2221 22.9772 26.4721C22.9272 26.4346 22.8522 26.3971 22.7897 26.3471Z" fill="#311C11"/>
<path fill-rule="evenodd" clip-rule="evenodd" d="M20.5897 27.072C20.0272 27.172 19.6397 26.8095 19.3647 26.447C18.8897 25.8095 18.2772 25.322 17.7272 24.7595C17.4397 24.472 17.1897 24.147 17.2147 23.7095C18.5897 24.5845 19.4522 25.9595 20.5897 27.072Z" fill="#311C11"/>
<path fill-rule="evenodd" clip-rule="evenodd" d="M23.2522 17.272C23.4397 19.047 23.3772 20.822 23.4897 22.597C23.5397 23.4345 23.3022 24.247 23.2272 25.072C23.1772 25.6095 22.7897 25.797 22.4147 26.047C22.3397 25.997 22.2772 25.947 22.2022 25.897C22.7522 25.6595 22.9647 25.2595 23.0772 24.6595C23.3147 23.2845 23.2647 21.922 23.1897 20.5345C23.1522 19.8595 23.1522 19.172 23.1522 18.497C23.1522 18.172 23.1397 17.8345 23.0272 17.522C23.0647 17.4095 23.1397 17.322 23.2522 17.272Z" fill="#311C11"/>
<path fill-rule="evenodd" clip-rule="evenodd" d="M21.6147 25.3345C22.6272 23.147 22.8397 20.872 22.3147 18.522C22.3647 18.4345 22.4147 18.3595 22.4647 18.272C23.1272 20.7595 22.8772 23.1595 21.7522 25.472C21.7022 25.4345 21.6647 25.3845 21.6147 25.3345Z" fill="#311C11"/>
<path fill-rule="evenodd" clip-rule="evenodd" d="M21.0522 24.6842C21.4522 23.8717 21.5397 22.9717 21.6147 22.0967C21.6897 21.2342 21.6147 20.3592 21.7147 19.4842C21.7647 19.3217 21.8272 19.1467 21.9647 19.0342C21.8147 21.0217 21.9522 23.0342 21.2647 24.9592C21.1522 24.9092 21.0772 24.8217 21.0522 24.6842Z" fill="#311C11"/>
<path fill-rule="evenodd" clip-rule="evenodd" d="M26.6647 13.7842C27.0397 13.4342 27.2647 12.9842 27.4647 12.5217C27.5647 12.2842 27.7022 12.1842 27.9522 12.2342C28.0647 12.2467 28.1897 12.2217 28.2522 12.3592C28.3022 12.4842 28.2272 12.5842 28.1397 12.6717C27.9897 12.8217 27.8397 12.9717 27.6897 13.1217C27.3272 13.4717 26.9522 13.8092 26.8272 14.3342C26.7897 14.4717 26.7022 14.5842 26.5397 14.5842C26.5897 14.3092 26.6272 14.0467 26.6647 13.7842Z" fill="#311C11"/>
<path fill-rule="evenodd" clip-rule="evenodd" d="M20.5772 24.1343C20.4147 23.9718 20.2647 23.8093 20.2272 23.5718C20.3647 22.9468 20.3522 22.2968 20.5897 21.6843C20.7022 21.5218 20.8147 21.3593 20.9147 21.1968C20.9522 21.2343 21.0147 21.2718 21.0147 21.3343C21.0147 22.2218 20.9772 23.1093 20.7522 23.9843C20.7272 24.0718 20.6522 24.1093 20.5772 24.1343Z" fill="#311C11"/>
<path fill-rule="evenodd" clip-rule="evenodd" d="M25.2522 12.0971C25.3772 11.8846 25.4272 11.6346 25.6147 11.4471C25.8022 11.2596 25.9647 11.3471 26.1397 11.4471C26.3522 11.5721 26.3147 11.7096 26.2022 11.8846C26.0647 12.1221 25.9397 12.3596 25.8022 12.5846C25.5397 12.5096 25.3897 12.3096 25.2522 12.0971Z" fill="#311C11"/>
<path fill-rule="evenodd" clip-rule="evenodd" d="M20.5772 24.1342C20.9147 23.1842 20.9272 22.1967 20.9272 21.2092C20.9397 20.9967 21.0147 20.8217 21.1522 20.6592C21.2147 21.6842 21.0897 22.6967 20.9522 23.7092C20.9272 23.9217 20.8772 24.1217 20.7272 24.2967C20.6647 24.2467 20.6272 24.1842 20.5772 24.1342Z" fill="#311C11"/>
<path fill-rule="evenodd" clip-rule="evenodd" d="M26.1772 12.9093C26.3022 12.6343 26.4147 12.3468 26.5647 12.0843C26.6397 11.9468 26.7272 11.7218 26.9522 11.8843C27.1647 12.0218 27.1772 12.2093 27.0147 12.4218C26.8147 12.6718 26.6272 12.9468 26.4397 13.1968C26.3397 13.0968 26.2522 13.0093 26.1772 12.9093Z" fill="#311C11"/>
<path fill-rule="evenodd" clip-rule="evenodd" d="M20.5897 21.6846C20.6147 22.3346 20.6147 22.9971 20.2272 23.5721C20.1022 23.4846 20.1147 23.3596 20.1147 23.2221C20.3272 22.7846 20.0522 22.2471 20.4147 21.8346C20.4772 21.7971 20.5272 21.7471 20.5897 21.6846Z" fill="#311C11"/>
<path fill-rule="evenodd" clip-rule="evenodd" d="M26.5272 13.4095C26.7272 13.1095 26.9397 12.822 27.1397 12.522C27.0772 12.972 26.8397 13.3095 26.5647 13.647C26.5522 13.5595 26.5397 13.4845 26.5272 13.4095Z" fill="#311C11"/>
<path fill-rule="evenodd" clip-rule="evenodd" d="M24.4022 11.5342C24.5022 11.3467 24.6397 11.3092 24.8147 11.4217C24.9522 11.5092 25.0772 11.6092 24.8897 11.7717C24.7147 11.7342 24.5522 11.6717 24.4022 11.5342Z" fill="#311C11"/>
<path fill-rule="evenodd" clip-rule="evenodd" d="M20.2022 21.9346C20.1522 22.1221 20.1147 22.3221 20.0647 22.5096C19.9522 22.3471 19.8272 22.1846 19.7147 22.0096C19.8772 21.8846 20.0522 21.9596 20.2022 21.9346Z" fill="#311C11"/>
<path fill-rule="evenodd" clip-rule="evenodd" d="M2.75221 9.13428C2.92721 9.19678 3.20221 9.34678 2.97721 9.65928C2.61471 10.1468 2.27721 10.6843 1.55221 10.6968C1.33971 10.6968 1.17721 10.7343 1.32721 10.9843C1.40221 11.1218 1.46471 11.2218 1.27721 11.3093C1.11471 11.3843 0.939708 11.4343 0.789708 11.3093C0.639708 11.1843 0.777208 11.0718 0.839708 10.9593C0.964708 10.7593 0.927208 10.3968 1.36471 10.5718C1.50221 10.6218 1.46471 10.3718 1.47721 10.2468C1.58971 9.59678 2.05221 9.14678 2.75221 9.13428Z" fill="#311C11"/>
<path fill-rule="evenodd" clip-rule="evenodd" d="M5.1272 7.37207C5.2897 5.98457 6.3772 5.50957 7.1147 4.55957C7.0772 5.35957 7.1147 5.95957 6.3772 6.30957C5.9522 6.50957 5.6272 6.94707 5.1272 7.37207Z" fill="#311C11"/>
<path fill-rule="evenodd" clip-rule="evenodd" d="M6.1022 2.69679C6.5897 2.48429 6.9022 2.17179 7.1397 1.79679C7.2897 1.57179 7.4772 1.55929 7.6772 1.74679C7.8647 1.92179 7.9147 2.09679 7.7022 2.28429C7.3772 2.55929 7.1772 2.93429 6.9647 3.34679C6.7147 3.04679 6.5022 2.79679 6.1022 2.69679Z" fill="#311C11"/>
<path fill-rule="evenodd" clip-rule="evenodd" d="M6.0772 6.88428C6.2397 6.90928 6.2147 7.00928 6.2147 7.09678C6.2147 7.19678 6.1772 7.29678 6.0647 7.28428C5.9647 7.28428 5.8897 7.20928 5.8897 7.09678C5.8772 6.95928 6.0147 6.94678 6.0772 6.88428Z" fill="#311C11"/>
<path fill-rule="evenodd" clip-rule="evenodd" d="M3.4397 8.88422C3.4272 9.02172 3.3147 9.05922 3.2147 9.10922C3.1147 9.14672 3.0022 9.12172 3.0147 9.00922C3.0272 8.88422 3.1647 8.84672 3.2647 8.79672C3.3647 8.73422 3.4022 8.80922 3.4397 8.88422Z" fill="#311C11"/>
<path fill-rule="evenodd" clip-rule="evenodd" d="M52.9147 13.3344C52.6022 13.5219 52.5272 13.7219 52.7522 14.0094C52.9397 14.2469 52.7897 14.4094 52.5272 14.4469C52.3522 14.4719 52.1772 14.4719 52.0022 14.4594C51.8397 14.4469 51.5772 14.5469 51.5397 14.3719C51.5022 14.1469 51.4772 13.8719 51.6897 13.6594C52.0147 13.3469 52.3897 13.1969 52.9147 13.3344Z" fill="#311C11"/>
<path fill-rule="evenodd" clip-rule="evenodd" d="M53.4772 14.4469C52.9522 14.5969 52.9772 14.0344 52.9647 13.8469C52.9522 13.6094 53.3522 13.5469 53.6147 13.5219C53.7397 13.5094 54.0522 13.5844 53.9397 13.6594C53.6397 13.8719 54.2147 14.5219 53.4772 14.4469Z" fill="#311C11"/>
<path fill-rule="evenodd" clip-rule="evenodd" d="M54.7022 14.6846C54.5147 14.6471 54.1397 14.7596 54.1647 14.4096C54.1897 14.0846 54.5897 13.9846 54.8647 13.9221C55.1647 13.8471 55.3272 14.2346 55.3272 14.3971C55.3147 14.6971 55.0022 14.6971 54.7022 14.6846Z" fill="#311C11"/>
<path fill-rule="evenodd" clip-rule="evenodd" d="M56.8147 15.0342C56.8647 15.0467 56.9272 15.0467 56.9772 15.0717C57.2397 15.2092 57.6147 15.1592 57.7147 15.5342C57.7272 15.5717 57.6147 15.6967 57.5772 15.6967C57.2022 15.6592 56.8647 15.4717 56.6022 15.2467C56.4397 15.1092 56.6897 15.0592 56.8147 15.0342Z" fill="#311C11"/>
<path fill-rule="evenodd" clip-rule="evenodd" d="M58.0272 15.6592C58.2772 15.7717 58.3772 15.9967 58.4272 16.2467C58.4522 16.3467 58.4397 16.5467 58.3022 16.5092C58.0397 16.4342 57.8397 16.2217 57.7647 15.9592C57.7522 15.8342 57.9022 15.7342 58.0272 15.6592Z" fill="#311C11"/>
<path fill-rule="evenodd" clip-rule="evenodd" d="M58.7772 16.6846C59.0272 16.7346 59.2147 16.8846 59.2522 17.1721C59.2647 17.3221 59.1647 17.3721 59.0397 17.3596C58.7522 17.3471 58.6647 17.1221 58.6022 16.8971C58.5647 16.7846 58.6022 16.6846 58.7772 16.6846Z" fill="#311C11"/>
<path fill-rule="evenodd" clip-rule="evenodd" d="M55.7022 14.6093C55.8522 14.7968 56.2522 14.5093 56.3397 14.8968C56.3647 15.0218 56.2897 15.1468 56.1522 15.1218C55.8897 15.0718 55.6147 14.9968 55.4772 14.7468C55.4397 14.6718 55.5647 14.5968 55.7022 14.6093Z" fill="#311C11"/>
<path fill-rule="evenodd" clip-rule="evenodd" d="M60.5897 20.897C60.8272 21.1345 60.9647 21.322 60.8522 21.597C60.8397 21.622 60.7397 21.6595 60.7147 21.6345C60.4772 21.4595 60.5647 21.222 60.5897 20.897Z" fill="#311C11"/>
<path fill-rule="evenodd" clip-rule="evenodd" d="M59.9147 18.1343C60.0897 18.2218 60.1272 18.3968 60.1772 18.5593C60.1897 18.6343 60.1647 18.7343 60.0772 18.7343C59.8647 18.7093 59.8272 18.5093 59.7772 18.3593C59.7272 18.2468 59.8147 18.1718 59.9147 18.1343Z" fill="#311C11"/>
<path fill-rule="evenodd" clip-rule="evenodd" d="M60.2772 19.6968C60.0522 19.4843 59.9647 19.3093 60.0272 19.0718C60.2897 19.2718 60.2897 19.2718 60.2772 19.6968Z" fill="#311C11"/>
<path fill-rule="evenodd" clip-rule="evenodd" d="M59.6147 18.097C59.3522 17.947 59.2397 17.822 59.3272 17.622C59.3647 17.5595 59.4397 17.497 59.5147 17.547C59.7147 17.672 59.5897 17.847 59.6147 18.097Z" fill="#311C11"/>
<path fill-rule="evenodd" clip-rule="evenodd" d="M60.6147 20.5217C60.3772 20.3842 60.3022 20.2342 60.3522 20.0467C60.3772 19.9717 60.4647 19.9467 60.5397 19.9967C60.7147 20.1342 60.6772 20.2967 60.6147 20.5217Z" fill="#311C11"/>
<path fill-rule="evenodd" clip-rule="evenodd" d="M29.3272 14.9468C29.9772 15.1093 30.4897 15.5218 30.9897 15.9343C31.9772 16.7468 32.4147 17.9218 32.8397 19.0718C33.3647 20.4718 33.6522 21.9343 33.8772 23.4093C33.9647 23.9718 33.7897 24.5218 33.7272 25.0843C33.5772 23.8343 33.4772 22.5843 33.1897 21.3593C32.9022 20.1093 32.5897 18.8718 31.8772 17.7718C31.1772 16.6968 30.3147 15.7718 29.3272 14.9468Z" fill="#311C11"/>
<path fill-rule="evenodd" clip-rule="evenodd" d="M35.3022 19.9596C34.6147 18.3721 33.3772 17.2096 32.1647 16.0346C31.7647 15.6471 31.3772 15.2221 30.7522 14.9971C32.3022 15.0346 34.9272 17.9346 35.3147 19.9471L35.3022 19.9596Z" fill="#311C11"/>
<path fill-rule="evenodd" clip-rule="evenodd" d="M37.4022 23.3218C36.4522 20.2593 35.6147 17.2718 32.9522 15.3218C33.3397 15.3343 33.6272 15.5718 33.9147 15.8218C34.3647 16.1968 34.7397 16.6718 35.0147 17.1718C35.8897 18.7718 36.9397 20.2843 37.3272 22.1093C37.4147 22.4718 37.4147 22.8218 37.4022 23.3218Z" fill="#311C11"/>
<path fill-rule="evenodd" clip-rule="evenodd" d="M36.4522 16.772C37.7897 17.4095 39.4522 21.3345 38.9772 22.772C38.7772 20.447 37.7022 18.647 36.4522 16.772Z" fill="#311C11"/>
<path fill-rule="evenodd" clip-rule="evenodd" d="M40.4522 20.922C39.8022 19.072 38.7397 17.5095 37.2897 16.2095C38.4772 16.4845 40.4897 19.4595 40.4522 20.922Z" fill="#311C11"/>
<path fill-rule="evenodd" clip-rule="evenodd" d="M42.2647 15.2719C41.9272 15.2719 41.6647 15.2719 41.3897 15.2719C41.1897 15.2719 41.0772 15.1468 41.0022 14.9718C40.9147 14.7468 41.0772 14.6468 41.2272 14.5718C41.6522 14.3718 41.7647 14.0718 41.6147 13.6343C41.5647 13.5093 41.5147 13.2968 41.6897 13.2218C41.8897 13.1343 41.9272 13.3594 42.0022 13.4844C42.0897 13.6094 42.1397 13.7593 42.2397 13.8718C42.4022 14.0468 42.5647 14.1719 42.2522 14.3969C41.9897 14.5969 42.1397 14.9094 42.2647 15.2719Z" fill="#311C11"/>
<path fill-rule="evenodd" clip-rule="evenodd" d="M40.9772 15.3467C40.6147 15.4717 40.3772 15.3342 40.2272 15.0842C40.0522 14.8092 40.3772 14.7217 40.5022 14.5967C40.7647 14.3342 40.7147 14.1342 40.4522 13.9217C40.2772 13.7842 40.1397 13.5842 40.2772 13.3717C40.4022 13.1717 40.6397 13.1842 40.8647 13.1842C41.1522 13.1717 41.1272 13.3717 41.1772 13.5717C41.2772 13.9467 41.5522 14.2842 40.9397 14.5467C40.6147 14.6842 40.8147 15.0467 40.9772 15.3467Z" fill="#311C11"/>
<path fill-rule="evenodd" clip-rule="evenodd" d="M37.7022 13.9092C37.9397 13.8717 38.1772 13.8217 38.4147 13.7967C38.5772 13.7717 38.7022 13.8592 38.6897 14.0217C38.6647 14.4092 38.8647 14.7717 38.8272 15.1717C38.8022 15.5217 38.6397 15.5717 38.3772 15.4592C38.0147 15.2967 37.6522 15.0967 37.1522 14.8467C37.4522 14.8217 37.6022 14.8217 37.7522 14.8092C37.9147 14.7967 38.1397 14.8842 38.2022 14.6592C38.2647 14.4592 38.0772 14.3592 37.9397 14.2592C37.8272 14.1592 37.6772 14.1217 37.7022 13.9092Z" fill="#311C11"/>
<path fill-rule="evenodd" clip-rule="evenodd" d="M40.0897 15.3721C40.1272 15.5471 40.0147 15.6471 39.8772 15.6721C39.6022 15.7221 39.3522 15.6346 39.1522 15.4346C39.0147 15.2971 38.9647 15.0721 39.1147 14.9596C39.5647 14.6346 39.4147 14.2721 39.2397 13.8846C39.1522 13.7096 39.1647 13.5346 39.3647 13.4346C39.5647 13.3471 39.6897 13.4971 39.6897 13.6471C39.7147 14.2471 39.9272 14.7971 40.0897 15.3721Z" fill="#311C11"/>
<path fill-rule="evenodd" clip-rule="evenodd" d="M36.2397 15.1844C36.3897 15.0719 36.5397 14.8719 36.8397 14.9844C38.3772 15.5344 39.5772 16.4719 40.2647 18.0219C39.2897 16.5219 37.9772 15.5469 36.2397 15.1844Z" fill="#311C11"/>
<path fill-rule="evenodd" clip-rule="evenodd" d="M33.2272 14.5718C34.6397 15.1468 35.8647 15.9468 36.5397 17.3968C35.9897 16.8968 35.5272 16.3218 34.9522 15.8468C34.4147 15.3843 33.6397 15.2218 33.2272 14.5718Z" fill="#311C11"/>
<path fill-rule="evenodd" clip-rule="evenodd" d="M34.7272 21.1342C34.0022 19.6592 33.1897 18.4217 32.3147 17.2217C33.5022 18.2217 34.4897 19.3592 34.7272 21.1342Z" fill="#311C11"/>
<path fill-rule="evenodd" clip-rule="evenodd" d="M29.9897 12.8096C29.5272 13.7471 29.1022 14.4971 28.1522 14.7846C28.3022 14.0971 29.1897 13.0971 29.9897 12.8096Z" fill="#311C11"/>
<path fill-rule="evenodd" clip-rule="evenodd" d="M28.9522 12.772C28.6772 13.5095 28.0022 13.8095 27.7147 14.397C27.6397 14.5595 27.5147 14.4345 27.4147 14.422C27.2897 14.4095 27.2397 14.3345 27.3147 14.222C27.7147 13.647 28.0272 12.947 28.9522 12.772Z" fill="#311C11"/>
<path fill-rule="evenodd" clip-rule="evenodd" d="M30.1522 14.7721C30.3522 14.2096 30.7397 13.9096 31.0897 13.5846C31.2147 13.4721 31.3772 13.4596 31.4397 13.6971C31.5272 14.0846 31.1147 14.6346 30.7022 14.6846C30.5522 14.7096 30.4022 14.7346 30.1522 14.7721Z" fill="#311C11"/>
<path fill-rule="evenodd" clip-rule="evenodd" d="M37.7647 19.4717C38.4397 20.5592 38.7397 21.7342 38.6397 23.0217C38.3522 21.8342 38.0522 20.6592 37.7647 19.4717Z" fill="#311C11"/>
<path fill-rule="evenodd" clip-rule="evenodd" d="M37.6897 17.5221C37.0647 16.5846 35.9897 16.1471 35.2772 15.3096C36.2022 15.9096 37.2772 16.3346 37.6897 17.5221Z" fill="#311C11"/>
<path fill-rule="evenodd" clip-rule="evenodd" d="M37.2897 14.272C37.2522 14.6095 37.1022 14.8345 36.7772 14.7845C36.4272 14.722 36.4397 14.3345 36.3522 14.097C36.2522 13.8345 36.5647 13.8595 36.7522 13.8595C37.0272 13.872 37.2772 13.947 37.2897 14.272Z" fill="#311C11"/>
<path fill-rule="evenodd" clip-rule="evenodd" d="M34.8647 14.7721C35.3897 14.6846 35.4397 14.4096 35.4147 14.0721C35.3897 13.8096 35.5772 13.6471 35.8022 13.6846C36.0522 13.7221 35.9397 13.9346 35.9147 14.1096C35.7772 14.9721 35.5897 15.1346 34.8647 14.7721Z" fill="#311C11"/>
<path fill-rule="evenodd" clip-rule="evenodd" d="M30.2647 13.3096C30.2897 13.8346 29.9647 14.1971 29.8272 14.6221C29.7522 14.8596 29.5772 14.6471 29.4522 14.5971C29.3147 14.5471 29.1897 14.4471 29.3397 14.2971C29.6522 14.0096 29.8022 13.5471 30.2647 13.3096Z" fill="#311C11"/>
<path fill-rule="evenodd" clip-rule="evenodd" d="M35.3147 19.9346C36.0397 20.7846 36.0022 21.8596 36.1647 22.8721C35.8772 21.8971 35.5897 20.9221 35.2897 19.9471C35.3022 19.9596 35.3147 19.9346 35.3147 19.9346Z" fill="#311C11"/>
<path fill-rule="evenodd" clip-rule="evenodd" d="M34.5272 14.8842C34.3772 14.8467 34.2522 14.7342 34.2897 14.6967C34.5772 14.4592 34.2897 13.8967 34.7647 13.8092C34.9772 13.7717 35.0772 13.9717 35.0897 14.1967C35.1147 14.6592 34.5772 14.5592 34.5272 14.8842Z" fill="#311C11"/>
<path fill-rule="evenodd" clip-rule="evenodd" d="M33.5522 14.1093C33.5522 13.8718 33.5772 13.6593 33.8647 13.6468C34.1147 13.6343 34.2522 13.7593 34.2522 14.0218C34.2522 14.2968 34.1522 14.4593 33.8522 14.4593C33.6022 14.4593 33.5272 14.3218 33.5522 14.1093Z" fill="#311C11"/>
<path fill-rule="evenodd" clip-rule="evenodd" d="M32.0272 14.5843C32.5147 14.5968 32.5647 14.2093 32.7647 13.9968C32.8647 13.8968 32.9772 13.6843 33.1397 13.8218C33.2897 13.9468 33.2147 14.1343 33.0647 14.2718C32.9772 14.3468 32.8522 14.4218 32.8272 14.5218C32.6772 15.0593 32.4147 14.8593 32.0272 14.5843Z" fill="#311C11"/>
<path fill-rule="evenodd" clip-rule="evenodd" d="M39.2272 20.8843C39.3147 21.7343 39.8522 22.6218 38.9897 23.3843C39.5522 22.5843 39.2022 21.7218 39.2272 20.8843Z" fill="#311C11"/>
<path fill-rule="evenodd" clip-rule="evenodd" d="M41.2272 20.2969C41.0397 20.9344 40.7647 21.5094 40.2772 21.9719C40.4522 21.3344 40.8897 20.8344 41.2272 20.2969Z" fill="#311C11"/>
<path fill-rule="evenodd" clip-rule="evenodd" d="M37.4772 23.5469C37.5897 24.0969 37.1522 24.9219 36.5897 25.1594C36.8647 24.5844 37.4272 24.1969 37.4772 23.5469Z" fill="#311C11"/>
<path fill-rule="evenodd" clip-rule="evenodd" d="M31.4897 14.447C31.5647 14.2595 31.6147 14.147 31.6647 14.047C31.7522 13.8845 31.8147 13.6595 32.0522 13.6845C32.2022 13.697 32.1522 13.872 32.1647 13.972C32.1897 14.2095 32.1272 14.397 31.8522 14.4345C31.7522 14.4595 31.6647 14.447 31.4897 14.447Z" fill="#311C11"/>
<path fill-rule="evenodd" clip-rule="evenodd" d="M36.2397 24.8594C35.9647 25.4844 35.5772 25.9594 34.8272 25.9844C35.3522 25.6594 35.7897 25.2469 36.2397 24.8594Z" fill="#311C11"/>
<path fill-rule="evenodd" clip-rule="evenodd" d="M36.2397 24.8469C36.2397 24.3469 36.2397 23.8594 36.2397 23.3594C36.2272 23.8594 36.6022 24.3594 36.2397 24.8469Z" fill="#311C11"/>
<path fill-rule="evenodd" clip-rule="evenodd" d="M41.1522 19.8593C40.9022 19.4843 40.7897 19.1843 40.7022 18.7593C40.9897 19.0843 41.1522 19.3593 41.1522 19.8593Z" fill="#311C11"/>
<path fill-rule="evenodd" clip-rule="evenodd" d="M33.7897 26.3718C33.9772 26.0843 34.2772 25.9843 34.5647 25.8843C34.4272 26.2343 34.0897 26.2843 33.7897 26.3718Z" fill="#311C11"/>
<path fill-rule="evenodd" clip-rule="evenodd" d="M37.9397 14.5596C37.6397 14.5846 37.3647 14.6346 37.4397 14.1846C37.6522 14.2596 37.8022 14.3596 37.9397 14.5596Z" fill="#311C11"/>
<path fill-rule="evenodd" clip-rule="evenodd" d="M37.7522 19.4721C37.5272 19.2346 37.4397 18.9346 37.3522 18.6221C37.5772 18.8721 37.7647 19.1221 37.7522 19.4721Z" fill="#311C11"/>
<path fill-rule="evenodd" clip-rule="evenodd" d="M26.4022 14.8217C27.3897 14.4967 28.0647 14.8967 28.6772 15.6592C29.4397 16.6092 29.8022 17.7342 30.1897 18.8592C30.7897 20.6217 31.3897 22.3967 31.3147 24.2967C31.2897 25.1217 31.1647 25.9467 31.0772 26.7717C31.8522 26.6092 32.1772 26.2467 32.2522 25.1092C32.3522 23.3967 32.2897 21.6967 31.9897 19.9967C31.7522 18.6592 30.9147 17.6467 30.0647 16.6592C29.5647 16.0842 29.2147 15.3592 28.4397 14.9967C28.6772 14.7217 28.8397 14.9217 28.9522 15.0217C30.6397 16.4342 32.0147 18.0592 32.3897 20.3217C32.6897 22.1092 32.7647 23.9092 32.3147 25.6842C32.2647 25.8717 32.4022 26.0342 32.3522 26.1842C32.2897 26.3342 32.1772 26.4717 31.9897 26.7467C32.7272 26.5217 33.2022 26.1592 33.6647 25.8092C33.9772 25.9592 33.2897 26.2967 33.8147 26.3717V26.3592C32.5522 26.7092 31.4147 27.3467 30.1522 27.7217C28.6897 28.1592 27.2397 27.8592 25.7772 27.9717C25.6897 27.9842 25.5897 27.9092 25.5022 27.8717C25.5147 27.7967 25.5272 27.7092 25.5522 27.6342C26.2272 27.3467 26.9272 27.1092 27.5272 26.6467C27.9272 26.3467 28.1772 26.0342 28.2272 25.5092C28.4147 23.6217 28.5147 21.7467 28.0272 19.8967C27.7147 18.6967 27.3272 17.5092 26.7022 16.3842C27.0897 17.8467 27.4022 19.2967 27.4897 20.7717C27.5897 22.5717 27.6772 24.3842 27.2647 26.1717C27.1272 26.7967 26.2022 27.4467 25.6272 27.3842C25.5897 27.2967 25.5397 27.2092 25.5022 27.1217C25.5022 26.8342 25.7397 26.7342 25.9522 26.6467C26.3397 26.4717 26.5397 26.1717 26.6147 25.7592C26.7647 24.9842 26.9272 24.2092 26.8897 23.3967C26.8522 22.7217 26.8647 22.0342 26.8897 21.3592C26.9522 19.3967 26.6022 17.5092 25.8647 15.6967C25.8147 15.5842 25.8022 15.4717 25.8647 15.3592C26.0147 15.2092 26.2022 15.0092 26.4022 14.8217Z" fill="#311C11"/>
<path fill-rule="evenodd" clip-rule="evenodd" d="M44.1897 13.9971C44.3897 13.8096 44.4397 13.5846 44.3897 13.3096C44.3397 13.0096 44.3897 12.7596 44.7897 12.9096C44.7022 13.2221 44.6272 13.5346 44.5272 13.8346C44.4772 14.0096 44.4272 14.2096 44.1897 13.9971Z" fill="#311C11"/>
<path fill-rule="evenodd" clip-rule="evenodd" d="M43.1522 13.897C43.1272 13.547 42.8522 13.322 42.7147 13.0345C42.6397 12.872 42.6147 12.6845 42.7897 12.572C43.0022 12.4345 43.1147 12.622 43.2022 12.7595C43.4147 13.072 43.6147 13.4095 43.8147 13.7345C43.5772 13.7345 43.3397 13.7345 43.1522 13.897Z" fill="#311C11"/>
<path fill-rule="evenodd" clip-rule="evenodd" d="M39.0272 13.5093C39.0272 13.7968 39.0897 14.0843 39.2397 14.3343C39.3022 14.4468 39.2772 14.5718 39.1397 14.6218C38.9897 14.6718 38.9397 14.5343 38.9272 14.4218C38.8897 14.1968 38.8647 13.9718 38.8397 13.7343C38.8897 13.6593 38.9522 13.5843 39.0272 13.5093Z" fill="#311C11"/>
<path fill-rule="evenodd" clip-rule="evenodd" d="M46.4022 13.9846C46.8272 13.7721 46.8272 13.3221 47.0022 12.9596C47.1397 12.6596 47.2397 12.0846 47.5647 12.2221C47.9022 12.3596 47.6647 12.8846 47.5272 13.2096C47.4272 13.4596 47.2397 13.6721 47.1022 13.9096C46.9897 14.1221 46.8772 14.3721 47.1397 14.5221C47.4147 14.6721 47.6522 14.5221 47.7647 14.2721C47.9647 13.8721 48.0147 13.4096 48.2647 13.0346C48.4522 12.7471 48.5772 12.1971 49.0272 12.4846C49.4647 12.7721 48.9897 13.1221 48.8522 13.4221C48.7522 13.6346 48.3897 13.8596 48.5897 14.0346C48.8647 14.2846 49.1647 13.9971 49.3772 13.7596C49.5522 13.5596 49.7147 13.3346 49.8897 13.1221C50.0147 12.9846 50.1772 12.8846 50.3522 13.0096C50.5522 13.1471 50.3522 13.2721 50.3022 13.4096C50.2397 13.5846 50.0147 13.7846 50.2272 13.9221C50.4772 14.0846 50.5772 13.7971 50.7147 13.6471C50.8147 13.5346 50.9022 13.3846 51.0397 13.3221C51.2272 13.2346 51.4022 13.2096 51.3647 13.5596C51.2397 14.5346 51.2272 14.5096 50.2147 14.5846C49.0147 14.6721 47.8272 14.8346 46.6272 14.9596C46.3022 14.6971 46.4147 14.3221 46.4022 13.9846Z" fill="#311C11"/>
<path fill-rule="evenodd" clip-rule="evenodd" d="M43.7272 15.2718C43.2647 15.5218 42.8647 15.2968 42.4897 15.0843C42.2147 14.9343 42.2647 14.6468 42.5022 14.4593C42.6522 14.3468 42.8397 14.2843 43.0147 14.1968C42.8897 14.7968 43.5522 14.8718 43.7272 15.2718Z" fill="#311C11"/>
</svg>
