<svg width="64" height="64" viewBox="0 0 64 64" fill="none" xmlns="http://www.w3.org/2000/svg">
<path d="M63.1762 7.00962L60.0341 3.8675C59.6678 3.50138 59.0743 3.50138 58.7082 3.8675C58.3421 4.23362 58.3421 4.82725 58.7082 5.19338L61.8505 8.33562C62.0275 8.51275 62.125 8.74813 62.125 8.9985C62.125 9.24887 62.0275 9.48425 61.8503 9.66138C61.6733 9.8385 61.4378 9.936 61.1875 9.936C60.9371 9.936 60.7016 9.8385 60.5246 9.66138L58.757 7.89363L58.7568 7.8935L56.1052 5.24175C56.1048 5.24138 56.1045 5.24112 56.1041 5.24075L54.3373 3.474C53.9718 3.1085 53.9718 2.51375 54.3372 2.14825C54.7027 1.78275 55.2975 1.7825 55.6631 2.14825L55.874 2.35913C56.2402 2.72525 56.8337 2.72525 57.1998 2.35913C57.566 1.993 57.566 1.39938 57.1998 1.03325L56.9888 0.822375C55.8925 -0.274125 54.108 -0.274125 53.0113 0.822375C51.915 1.919 51.915 3.70325 53.0113 4.79988L54.1162 5.90475L50.7576 9.2635L46.5592 5.06488C45.4628 3.96838 43.6783 3.96838 42.5817 5.06488C41.4853 6.1615 41.4853 7.94575 42.5817 9.0425L43.1563 9.61713L19.2472 33.5266L17.126 35.648C16.8072 35.9666 16.6316 36.3905 16.6316 36.8414C16.6316 37.2921 16.8071 37.7159 17.1258 38.0346L20.8823 41.7912L0.274594 62.3995C-0.0915312 62.7656 -0.0915312 63.3592 0.274594 63.7254C0.457594 63.9084 0.697594 63.9999 0.937469 63.9999C1.17734 63.9999 1.41734 63.9084 1.60034 63.7253L22.2082 43.1169L25.9647 46.8735C26.2937 47.2025 26.7258 47.367 27.158 47.367C27.5901 47.367 28.0222 47.2025 28.3512 46.8735L30.4726 44.7521L47.1615 28.0629C47.5276 27.6967 47.5276 27.1031 47.1615 26.737C46.7952 26.3709 46.2017 26.3709 45.8356 26.737L44.4488 28.1237C44.435 28.1231 44.4212 28.1216 44.4071 28.1216H31.9351L31.225 27.4115C30.859 27.0454 30.2653 27.0454 29.8992 27.4115C29.7041 27.6066 29.6141 27.8661 29.6268 28.1216H27.3036L44.4821 10.943L53.0557 19.5167L48.6632 23.9094C48.2971 24.2755 48.2971 24.8691 48.6632 25.2352C49.0295 25.6014 49.623 25.6014 49.9891 25.2352L54.3816 20.8427L54.9561 21.4172H54.9562C55.5045 21.9655 56.2246 22.2396 56.9448 22.2396C57.6651 22.2396 58.3853 21.9655 58.9337 21.4172C60.0301 20.3206 60.0301 18.5364 58.9337 17.4397L54.7352 13.2411L58.0938 9.88237L59.1987 10.9873C59.73 11.5185 60.4362 11.811 61.1875 11.811C61.9387 11.811 62.645 11.5184 63.1761 10.9873C63.7073 10.456 64 9.74963 64 8.9985C64 8.24737 63.7073 7.54087 63.1762 7.00962ZM25.6716 29.9969H31.1585L31.8685 30.707C32.0515 30.8901 32.2913 30.9816 32.5313 30.9816C32.7712 30.9816 33.0112 30.8901 33.1942 30.707C33.3893 30.5119 33.4795 30.2524 33.4666 29.9969H42.5758L29.8096 42.7635L25.7502 38.7041C25.3841 38.338 24.7905 38.338 24.4245 38.7041C24.0583 39.0702 24.0583 39.6639 24.4245 40.03L28.4838 44.0894L27.158 45.4152L18.5843 36.8414L19.9102 35.5155L21.5967 37.202C21.7797 37.385 22.0197 37.4766 22.2596 37.4766C22.4995 37.4766 22.7395 37.3851 22.9225 37.202C23.2886 36.8359 23.2886 36.2422 22.9225 35.8761L21.236 34.1896L25.4548 29.9707C25.5245 29.9871 25.5968 29.9969 25.6716 29.9969ZM57.6078 20.0912C57.2422 20.4567 56.6476 20.4569 56.2818 20.0912H56.282L43.9076 7.71663C43.542 7.35113 43.542 6.75625 43.9075 6.39075C44.273 6.02525 44.8677 6.025 45.2333 6.39075L57.6077 18.7654C57.9732 19.131 57.9732 19.7257 57.6078 20.0912ZM53.4093 11.9151L52.0835 10.5892L55.4421 7.2305L56.768 8.55638L53.4093 11.9151Z" fill="#311C11"/>
</svg>
