<svg width="64" height="64" viewBox="0 0 64 64" fill="none" xmlns="http://www.w3.org/2000/svg">
<path d="M64 12.1775L60.348 0L46.0593 3.36228C43.1997 4.03596 41.1152 6.45426 40.8726 9.38141C40.7497 10.8537 41.1224 12.3516 41.923 13.6006C44.1734 17.1073 49.4052 26.0126 49.4052 32.9573C49.4052 36.3923 48.8042 39.3389 47.6186 41.7152L49.4503 42.6295C50.7792 39.9675 51.4529 36.7137 51.4529 32.9573C51.4529 25.471 45.9938 16.1531 43.6472 12.4949C43.0882 11.6226 42.8271 10.5783 42.912 9.55137C43.082 7.51189 44.5359 5.82563 46.5293 5.35569L58.9392 2.43673L61.4302 10.7359L52.5392 13.0754L53.4637 14.2948C56.5373 18.3471 61.6913 26.4273 61.6913 35.005C61.6913 48.2544 52.5105 61.6247 32 61.6247C11.4895 61.6247 2.30875 48.2544 2.30875 35.005C2.30875 26.4273 7.46274 18.3471 10.5353 14.2948L11.4598 13.0754L2.56881 10.7359L5.06082 2.43673L17.4707 5.35569C19.4641 5.82563 20.918 7.51189 21.088 9.55137C21.1729 10.5783 20.9119 11.6226 20.3528 12.4949C18.0062 16.1531 12.5471 25.471 12.5471 32.9573C12.5471 41.365 15.9217 51.3863 32 51.3863C39.5354 51.3863 44.9822 49.1431 48.1869 44.7191L46.5293 43.5171C43.7301 47.3801 38.8423 49.3387 32 49.3387C20.4511 49.3387 14.5948 43.8274 14.5948 32.9573C14.5948 26.0126 19.8266 17.1073 22.077 13.6006C22.8776 12.3516 23.2513 10.8537 23.1274 9.38141C22.8848 6.45529 20.8003 4.03596 17.9407 3.36228L3.65202 0L0 12.1775L8.0023 14.2835C4.76186 18.8243 0.261078 26.6382 0.261078 35.005C0.261078 49.2752 10.0756 63.6724 32 63.6724C53.9244 63.6724 63.7389 49.2752 63.7389 35.005C63.7389 26.6382 59.2381 18.8243 55.9967 14.2835L64 12.1775Z" fill="#311C11"/>
<path d="M33.0238 55.4814H30.9762V57.5291H33.0238V55.4814Z" fill="#311C11"/>
<path d="M44.286 52.4102H42.2384V54.4578H44.286V52.4102Z" fill="#311C11"/>
<path d="M53.5006 46.2671H51.4529V48.3148H53.5006V46.2671Z" fill="#311C11"/>
<path d="M57.5959 36.0288H55.5482V38.0765H57.5959V36.0288Z" fill="#311C11"/>
<path d="M21.7616 52.4102H19.714V54.4578H21.7616V52.4102Z" fill="#311C11"/>
<path d="M12.5471 46.2671H10.4994V48.3148H12.5471V46.2671Z" fill="#311C11"/>
<path d="M8.45177 36.0288H6.4041V38.0765H8.45177V36.0288Z" fill="#311C11"/>
<path d="M17.0909 14.1226L15.4589 12.8848L12.9833 16.1488C11.5571 18.0295 8.90328 21.8669 7.13921 26.4455L9.05071 27.1816C10.7237 22.8385 13.2546 19.1803 14.6142 17.3876L17.0909 14.1226Z" fill="#311C11"/>
<path d="M48.5411 12.8862L46.9091 14.124L49.3848 17.388C50.7444 19.1818 53.2764 22.8389 54.9493 27.1821L56.8608 26.4459C55.0967 21.8673 52.443 18.03 51.0167 16.1492L48.5411 12.8862Z" fill="#311C11"/>
</svg>
