<svg width="64" height="64" viewBox="0 0 64 64" fill="none" xmlns="http://www.w3.org/2000/svg">
<g clip-path="url(#clip0_259_7882)">
<path d="M49.8937 4.33689C44.2363 -1.39539 35.0018 -1.45525 29.2695 4.21715C29.2246 4.26205 29.1946 4.29199 29.1497 4.33689L17.0267 16.46C16.7872 16.5947 16.5926 16.7892 16.4579 17.0287L4.26001 29.2117C-1.42737 34.914 -1.4124 44.1485 4.27497 49.8359C10.0072 55.5083 19.2268 55.5083 24.974 49.8359L24.989 49.8209L37.1719 37.593C37.2617 37.5332 37.3366 37.4733 37.4114 37.3985C37.4862 37.3236 37.5461 37.2488 37.606 37.159L49.774 24.9611C55.5062 19.3037 55.5511 10.0692 49.8937 4.33689ZM22.8637 47.7106C18.2988 52.2156 10.9502 52.2305 6.38529 47.7106C1.88029 43.1757 1.88029 35.8569 6.38529 31.322L17.8199 19.8874L34.2235 36.3209L22.8637 47.7106ZM47.6636 22.8208L36.3338 34.1806L19.9302 17.777L31.275 6.43223C35.795 1.91227 43.1437 1.91227 47.6636 6.43223C52.1836 10.9522 52.1836 18.3009 47.6636 22.8208Z" fill="#311C11"/>
<path d="M36.0494 11.042C35.4807 10.4433 34.5378 10.4284 33.9391 11.027L28.7606 16.1157C28.1619 16.6994 28.1619 17.6424 28.7307 18.2261C29.2994 18.8098 30.2573 18.8247 30.841 18.256L30.8559 18.241L36.0195 13.1523C36.6181 12.5686 36.6181 11.6257 36.0494 11.042Z" fill="#311C11"/>
<path d="M59.7568 39.2244C59.7568 39.2244 59.7568 39.2244 59.7418 39.2094C54.1592 33.537 45.0295 33.4772 39.3571 39.0747C39.3122 39.1196 39.2673 39.1645 39.2224 39.2094C33.55 44.8818 33.55 54.0714 39.2074 59.7438C44.8648 65.4162 54.0694 65.4162 59.7418 59.7588C65.4142 54.0864 65.4142 44.8968 59.7568 39.2244ZM37.9652 49.4766C37.9652 43.1158 43.1287 37.9522 49.4896 37.9522C52.0189 37.9522 54.4885 38.7904 56.494 40.3319L40.3449 56.4961C38.8033 54.4755 37.9652 52.006 37.9652 49.4766ZM57.6315 57.6186C53.5456 61.7045 47.05 62.1236 42.4702 58.6064L58.6193 42.4572C62.1515 47.0371 61.7324 53.5326 57.6315 57.6186Z" fill="#311C11"/>
</g>
<defs>
<clipPath id="clip0_259_7882">
<rect width="64" height="64" fill="white"/>
</clipPath>
</defs>
</svg>
