<svg width="64" height="64" viewBox="0 0 64 64" fill="none" xmlns="http://www.w3.org/2000/svg">
<path d="M8.56188 25.1502C11.399 25.1502 13.699 22.8504 13.699 20.0131C13.699 17.1759 11.399 14.876 8.56188 14.876C5.72463 14.876 3.42475 17.176 3.42475 20.0131C3.4275 22.8491 5.72588 25.1475 8.56188 25.1502ZM8.56188 16.5884C10.4533 16.5884 11.9865 18.1217 11.9865 20.0131C11.9865 21.9045 10.4531 23.4377 8.56188 23.4377C6.6705 23.4377 5.13713 21.9044 5.13713 20.0131C5.13713 18.1217 6.6705 16.5884 8.56188 16.5884Z" fill="#311C11"/>
<path d="M7.70575 22.5819H9.418V20.8696H11.1304V19.1572H9.418V17.4448H7.70575V19.1572H5.99325V20.8696H7.70575V22.5819Z" fill="#311C11"/>
<path d="M25.6745 36.4196C25.6685 36.333 25.669 36.2913 25.6721 36.2737C25.666 36.2548 25.659 36.2325 25.6499 36.2017C25.605 36.0691 25.5989 36.0391 25.6304 36.109C25.5311 35.887 25.479 35.6532 25.4766 35.4247H23.9731C22.5545 35.4247 21.4046 36.5746 21.4046 37.9932V52.5483C21.4046 53.0211 21.0214 53.4046 20.5484 53.4046C20.0754 53.4046 19.6921 53.0212 19.6921 52.5483V37.9932C19.6921 35.6288 17.7755 33.7123 15.4111 33.7123C13.0469 33.7123 11.1302 35.6288 11.1302 37.9932V45.699C11.1302 46.1717 10.747 46.5552 10.274 46.5552C9.801 46.5552 9.41775 46.1718 9.41775 45.699V32H10.274C10.7469 32 11.1302 31.6167 11.1302 31.1437V28.5752H14.555C15.9736 28.5752 17.1235 27.4252 17.1235 26.0067V15.9443C17.1098 15.8213 17.1 15.697 17.097 15.5705C17.0925 15.3818 17.1024 15.1948 17.1235 15.0098V8.88295C17.1235 7.46433 15.9735 6.31445 14.555 6.31445H2.5685C1.15 6.31445 0 7.46433 0 8.88295V26.0067C0 27.4253 1.15 28.5752 2.5685 28.5752V52.5485H0.85625C0.383375 52.5485 0 52.9317 0 53.4047V56.8293C0 57.3022 0.38325 57.6856 0.85625 57.6856H12.8429C13.3157 57.6856 13.6991 57.3023 13.6991 56.8293V53.4047C13.6991 52.9318 13.3159 52.5485 12.8429 52.5485H4.281V28.5752H5.99337V31.1437C5.99337 31.6166 6.37663 32 6.84963 32H7.70587V45.699C7.70587 47.1176 8.85588 48.2676 10.2744 48.2676C11.6929 48.2676 12.8429 47.1176 12.8429 45.699V37.9932C12.8429 36.5746 13.9929 35.4247 15.4114 35.4247C16.83 35.4247 17.98 36.5746 17.98 37.9932V52.5483C17.98 53.967 19.13 55.117 20.5485 55.117C21.967 55.117 23.117 53.967 23.117 52.5483V37.9932C23.117 37.5205 23.5002 37.137 23.9732 37.137H25.6625C25.6777 36.8986 25.691 36.658 25.6745 36.4196ZM1.71238 8.88295C1.71238 8.41008 2.09562 8.0267 2.5685 8.0267H14.5551C15.028 8.0267 15.4113 8.40995 15.4113 8.88295V11.354C14.9643 11.2272 14.5445 11.0187 14.1733 10.7392C13.2989 10.0757 12.2279 9.72358 11.1304 9.7392C10.0324 9.7237 8.96075 10.0757 8.08575 10.7392C7.4935 11.215 6.75262 11.4671 5.99325 11.4516C5.234 11.4672 4.4935 11.215 3.90162 10.7392C3.2555 10.2606 2.50525 9.94133 1.71238 9.8077V8.88295ZM11.9866 54.2608V55.9731H1.71238V54.2608H11.9866ZM2.5685 26.8628C2.09562 26.8628 1.71238 26.4795 1.71238 26.0066V11.5491C2.15875 11.6763 2.57788 11.8847 2.94863 12.1638C3.82325 12.828 4.89512 13.18 5.99325 13.1638C7.09125 13.1793 8.16288 12.8273 9.03788 12.1638C9.63013 11.6882 10.371 11.4361 11.1304 11.4515C11.8901 11.4358 12.6311 11.688 13.2238 12.1638C13.8695 12.6421 14.619 12.9613 15.4113 13.0953V26.0067C15.4113 26.4796 15.028 26.863 14.5551 26.863H2.5685V26.8628ZM7.70575 30.2876V28.5752H9.41813V30.2876H7.70575Z" fill="#311C11"/>
<path d="M22.6044 6.18429V25.9102C22.6044 27.5058 23.6996 28.8503 25.1774 29.2323V47.3512C25.1774 48.4695 25.8946 49.4225 26.8926 49.7763V63.017C26.8926 63.491 27.2767 63.8749 27.7502 63.8749C28.2242 63.8749 28.6079 63.491 28.6079 63.017V49.7763C29.6063 49.4225 30.3232 48.4695 30.3232 47.3512V45.3502H33.7537V47.3512C33.7537 48.4695 34.4712 49.4225 35.4692 49.7763V63.017C35.4692 63.491 35.8534 63.8749 36.3268 63.8749C36.8008 63.8749 37.1842 63.491 37.1842 63.017V49.7763C38.1826 49.4225 38.8996 48.4695 38.8996 47.3512V45.2278L42.1265 44.7294C43.1882 47.8239 46.0819 49.9243 49.4202 49.9243H51.9931V63.0172C51.9931 63.4912 52.3767 63.875 52.8507 63.875C53.3246 63.875 53.7081 63.4912 53.7081 63.0172V47.0493C55.1246 48.8013 57.289 49.9242 59.7116 49.9242H62.2846V63.017C62.2846 63.491 62.6684 63.8749 63.1423 63.8749C63.6163 63.8749 63.9999 63.491 63.9999 63.017V49.0664C63.9999 48.5927 63.6163 48.2089 63.1423 48.2089H60.5694V43.9183C61.2866 44.458 62.1774 44.7782 63.1423 44.7782C63.6163 44.7782 63.9999 44.3942 63.9999 43.9207V35.3443C63.9999 31.0878 60.5371 27.6255 56.281 27.6255H40.6147V18.1915C40.6147 13.9355 37.1525 10.4727 32.896 10.4727V9.61504C32.896 7.25029 30.9725 5.32691 28.6077 5.32691C28.1342 5.32691 27.7501 5.71054 27.7502 6.18454V10.4724H24.3196V6.18429C24.3196 5.71029 23.936 5.32666 23.462 5.32666C22.9884 5.32666 22.6043 5.71029 22.6044 6.18429ZM38.8995 18.1913V27.4779C37.9015 27.1238 37.1841 26.1705 37.1841 25.0524V18.1913C37.1841 15.9444 36.2265 13.8762 34.6201 12.441C37.0926 13.1839 38.8995 15.4803 38.8995 18.1913ZM60.5695 40.4902V35.3442C60.5695 33.0589 59.5708 31.0037 57.9871 29.5889C60.469 30.3259 62.2848 32.6264 62.2848 35.3442V42.916C61.2864 42.5619 60.5695 41.6082 60.5695 40.4902ZM43.8565 44.4618L51.9931 43.2055V48.2088H49.42C46.9305 48.2089 44.7587 46.7072 43.8565 44.4618ZM24.3196 25.91V12.1878H28.6077C29.0817 12.1878 29.4654 11.804 29.4654 11.3302V7.18891C30.4638 7.54304 31.1806 8.49679 31.1806 9.61479V11.8309C31.1806 12.1802 31.3929 12.4948 31.7167 12.6255C33.996 13.5489 35.4689 15.7337 35.4689 18.1914V25.0525C35.4689 27.4169 37.3929 29.3409 39.7571 29.3409H52.8506C56.161 29.3409 58.854 32.0339 58.854 35.3443V48.1465C55.9488 47.7289 53.708 45.2244 53.708 42.2057C53.708 42.1748 53.7061 42.1445 53.7033 42.1145C53.7029 42.1082 53.701 42.1019 53.7006 42.0958C53.6975 42.0715 53.6939 42.0479 53.689 42.0248C53.687 42.0179 53.6849 42.0109 53.6836 42.0038C53.6785 41.9818 53.6724 41.9599 53.6654 41.9385C53.6628 41.9309 53.6595 41.923 53.6569 41.9152C53.6497 41.8952 53.6421 41.8755 53.6334 41.8564C53.6297 41.8474 53.6251 41.8392 53.6211 41.8308C53.6122 41.8129 53.6033 41.7952 53.5933 41.778C53.5881 41.7693 53.5826 41.7602 53.5769 41.7508C53.567 41.7352 53.5568 41.72 53.546 41.7049C53.5395 41.6954 53.5325 41.6865 53.5254 41.6775C53.5144 41.6633 53.5027 41.6494 53.4901 41.6354C53.483 41.6272 53.4755 41.6187 53.4675 41.6105C53.4541 41.5968 53.4398 41.5834 53.4248 41.5699C53.4196 41.5649 53.4145 41.5597 53.4089 41.5547C53.407 41.5529 53.4054 41.552 53.4035 41.5504C53.3839 41.5337 53.3639 41.5187 53.3429 41.5037C53.3399 41.5015 53.3369 41.4994 53.334 41.4972C53.2844 41.4634 53.2313 41.435 53.1753 41.4122C53.1705 41.4099 53.165 41.4082 53.1596 41.4063C53.1378 41.3979 53.1151 41.3898 53.0923 41.3832C53.0839 41.3804 53.0757 41.3785 53.0676 41.3764C53.0476 41.3713 53.0271 41.3665 53.0064 41.3625C52.9959 41.3607 52.9851 41.3594 52.9745 41.3577C52.9565 41.3549 52.9381 41.3525 52.9194 41.3514C52.907 41.35 52.894 41.3495 52.8815 41.3489C52.8711 41.3487 52.8609 41.3477 52.8507 41.3477C52.8435 41.3477 52.8369 41.3487 52.8302 41.3487C52.8172 41.3489 52.8042 41.35 52.7912 41.3508C52.7732 41.3519 52.7555 41.3537 52.7375 41.3558C52.7317 41.3568 52.7254 41.3568 52.7195 41.3577L37.9109 43.6448C37.4927 43.7095 37.184 44.0692 37.184 44.4925V47.3513C37.184 47.8238 36.7995 48.2089 36.3265 48.2089C35.8535 48.2089 35.469 47.8239 35.469 47.3513V44.4925C35.469 44.0187 35.0854 43.635 34.6113 43.635H29.4654C28.9919 43.635 28.6077 44.0187 28.6077 44.4925V47.3513C28.6077 47.8238 28.2233 48.2089 27.7501 48.2089C27.2775 48.2089 26.8925 47.8239 26.8925 47.3513V29.2322C28.3707 28.8503 29.4655 27.5057 29.4655 25.91V22.3932C31.4206 21.9948 32.8961 20.262 32.8961 18.1912C32.8961 17.7172 32.5125 17.3335 32.0384 17.3335C31.5649 17.3335 31.1807 17.7172 31.1807 18.1912C31.1807 19.6098 30.0266 20.764 28.6079 20.764C28.1344 20.764 27.7502 21.1478 27.7502 21.6217V25.9099C27.7502 26.8555 26.9813 27.6252 26.0349 27.6252C25.0891 27.6253 24.3196 26.8558 24.3196 25.91Z" fill="#311C11"/>
</svg>
