<svg width="64" height="64" viewBox="0 0 64 64" fill="none" xmlns="http://www.w3.org/2000/svg">
<g clip-path="url(#clip0_259_7804)">
<path d="M49.1396 9.56199L49.4702 9.75244C49.1679 10.5058 49 11.3271 49 12.1875C49 15.8061 51.9438 18.75 55.5625 18.75C59.1807 18.75 62.125 15.8061 62.125 12.1875C62.125 11.3271 61.9566 10.5058 61.6543 9.75244L61.9848 9.56199C62.4336 9.30321 62.5869 8.72945 62.3282 8.28124C62.0693 7.83249 61.4961 7.67969 61.0474 7.93799L60.7144 8.13036C60.3935 7.72364 60.0259 7.35596 59.6197 7.03516L59.8116 6.70215C60.0704 6.25393 59.9171 5.68017 59.4688 5.4214C59.0201 5.16263 58.4468 5.31644 58.188 5.76465L57.9971 6.09521C57.5225 5.90481 57.0215 5.76807 56.5001 5.69287V5.31249C56.5001 4.79441 56.0802 4.375 55.5626 4.375C55.0445 4.375 54.6251 4.79441 54.6251 5.31249V5.69287C54.1036 5.76807 53.6021 5.90481 53.1275 6.09521L52.9366 5.76465C52.6778 5.31644 52.1045 5.16311 51.6563 5.4214C51.2076 5.68023 51.0543 6.25393 51.313 6.70215L51.5054 7.03516C51.0987 7.35596 50.7309 7.72364 50.4102 8.13036L50.0772 7.93799C49.6285 7.67916 49.0552 7.83249 48.7964 8.28124C48.5376 8.72945 48.6914 9.30321 49.1396 9.56199ZM55.5625 16.8749C52.9775 16.8749 50.875 14.7719 50.875 12.1874C50.875 9.60247 52.9775 7.49991 55.5625 7.49991C58.147 7.49991 60.25 9.60247 60.25 12.1874C60.25 14.772 58.147 16.8749 55.5625 16.8749Z" fill="#311C11"/>
<path d="M63.3589 62.1728L60.25 61.1367V50.625H63.062C63.5801 50.625 63.9995 50.2051 63.9995 49.6875V24.0625C63.9995 22.167 62.4575 20.625 60.5625 20.625H50.5625C48.667 20.625 47.125 22.167 47.125 24.0625V49.6875C47.125 49.936 47.2237 50.1743 47.3995 50.3501C47.5753 50.5259 47.8136 50.625 48.0626 50.625H50.875V61.1367L47.7657 62.1729C47.2745 62.3364 47.0093 62.8677 47.1729 63.3589C47.3037 63.7514 47.6699 64 48.0621 64C48.1607 64 48.2603 63.9844 48.3589 63.9517L52.109 62.7017C52.4918 62.5742 52.7501 62.2159 52.7501 61.8125V50.625H58.3751V61.8125C58.3751 62.2159 58.6329 62.5742 59.0157 62.7017L62.7658 63.9517C62.8644 63.9844 62.9645 64 63.0626 64C63.4552 64 63.8209 63.7515 63.9518 63.3589C64.1152 62.8677 63.8501 62.3364 63.3589 62.1728ZM62.125 24.0625V48.75H60.25V22.5H60.5625C61.4238 22.5 62.125 23.2007 62.125 24.0625ZM55.5625 33.75C56.0801 33.75 56.5 33.3301 56.5 32.8125V28.6553C57.1924 28.5142 57.8296 28.2203 58.375 27.8096V35.6251H52.75V27.8101C53.2955 28.2203 53.9326 28.5147 54.625 28.6558V32.8125C54.625 33.3301 55.0444 33.75 55.5625 33.75ZM58.375 24.0625C58.375 25.6133 57.1128 26.875 55.5625 26.875C54.0117 26.875 52.75 25.6133 52.75 24.0625V22.5H58.375L58.375 24.0625ZM52.75 37.5H58.375V40.311C57.566 40.9189 56.5816 41.25 55.5626 41.25C54.543 41.25 53.5587 40.9184 52.7501 40.311V37.5H52.75ZM49 48.75V24.0625C49 23.2007 49.7007 22.5 50.5625 22.5H50.875V48.75H49ZM52.75 48.75V42.4902C53.6216 42.9043 54.5801 43.1249 55.5625 43.1249C56.5444 43.1249 57.5029 42.9042 58.375 42.4902V48.75L52.75 48.75Z" fill="#311C11"/>
<path d="M44.3125 0C43.7944 0 43.375 0.419413 43.375 0.937493V5.62501H39.625V0.937493C39.625 0.419413 39.2051 0 38.6875 0C36.1026 0 34 2.10256 34 4.68752V5.62501C29.3472 5.62501 25.5625 9.41019 25.5625 14.0625V24.375H8.43749C3.78517 24.375 0 28.1597 0 32.8125V42.1875C0 42.7051 0.419413 43.125 0.937493 43.125C1.99216 43.125 2.96581 42.7749 3.74997 42.185V46.875H0.937493C0.419413 46.875 0 47.2945 0 47.8125V63.062C0 63.5801 0.419413 63.9995 0.937493 63.9995C1.45557 63.9995 1.87499 63.5801 1.87499 63.062V48.75H4.68747C7.33589 48.75 9.70165 47.5225 11.25 45.6074V63.062C11.25 63.5801 11.6694 63.9995 12.1875 63.9995C12.7055 63.9995 13.125 63.5801 13.125 63.062V48.75H15.9374C19.5863 48.75 22.7495 46.4541 23.9101 43.0713L27.4374 43.6162V45.9375C27.4374 47.1597 28.2211 48.2017 29.3124 48.5884V63.062C29.3124 63.5801 29.7318 63.9995 30.2499 63.9995C30.7675 63.9995 31.1874 63.5801 31.1874 63.062V48.5884C32.2782 48.2017 33.0624 47.1597 33.0624 45.9375V43.75H36.8124V45.9375C36.8124 47.1597 37.5961 48.2017 38.6874 48.5884V63.062C38.6874 63.5801 39.1068 63.9995 39.6249 63.9995C40.1425 63.9995 40.5624 63.5801 40.5624 63.062V48.5884C41.6532 48.2017 42.4374 47.1597 42.4374 45.9375V26.1314C44.0526 25.7139 45.2499 24.2442 45.2499 22.5V0.937493C45.25 0.419413 44.8301 0 44.3125 0ZM32.1152 7.77685C30.3594 9.34571 29.3125 11.6065 29.3125 14.0625V21.5625C29.3125 22.7847 28.5283 23.8267 27.4375 24.2139V14.0625C27.4375 11.0991 29.4126 8.58885 32.1152 7.77685ZM1.87499 41.0894V32.8125C1.87499 29.8418 3.85984 27.3271 6.57275 26.5214C4.84176 28.0678 3.74997 30.3145 3.74997 32.8125V38.4375C3.75003 39.6597 2.96629 40.7021 1.87499 41.0894ZM15.9375 46.875H13.125V41.4058L22.0191 42.7793C21.0327 45.2334 18.6587 46.875 15.9375 46.875ZM41.5 24.375C40.4658 24.375 39.625 23.5337 39.625 22.5V17.8125C39.625 17.2944 39.2051 16.875 38.6875 16.875C37.1367 16.875 35.875 15.6133 35.875 14.0625C35.875 13.5444 35.4551 13.125 34.9375 13.125C34.4195 13.125 34.0001 13.5444 34.0001 14.0625C34.0001 16.3262 35.6129 18.2202 37.7501 18.6558V22.5001C37.7501 24.2442 38.9468 25.7139 40.5626 26.1314V45.9375C40.5626 46.4542 40.1417 46.875 39.6251 46.875C39.108 46.875 38.6876 46.4541 38.6876 45.9375V42.8125C38.6876 42.2945 38.2677 41.875 37.7501 41.875H32.125C31.6069 41.875 31.1875 42.2945 31.1875 42.8125V45.9375C31.1875 46.4542 30.7671 46.875 30.25 46.875C29.733 46.875 29.3125 46.4541 29.3125 45.9375V42.8125C29.3125 42.3496 28.9751 41.9566 28.5181 41.8858L12.3306 39.3858C12.3242 39.3848 12.3174 39.3848 12.311 39.3838C12.2915 39.3814 12.272 39.3794 12.2524 39.3785C12.2382 39.3774 12.2241 39.3765 12.2099 39.376C12.2026 39.376 12.1953 39.375 12.1875 39.375C12.1763 39.375 12.165 39.376 12.1538 39.3764C12.1401 39.377 12.126 39.3774 12.1123 39.3789C12.0918 39.3803 12.0717 39.3828 12.0522 39.3857C12.0405 39.3877 12.0288 39.3891 12.0171 39.3911C11.9946 39.3955 11.9722 39.4009 11.9502 39.4062C11.9414 39.4087 11.9326 39.4106 11.9233 39.4136C11.8984 39.4209 11.8735 39.4297 11.8496 39.439C11.8437 39.441 11.8379 39.4429 11.8325 39.4453C11.7715 39.4702 11.7134 39.5015 11.6592 39.5381C11.6558 39.5405 11.6529 39.543 11.6494 39.5454C11.6265 39.5615 11.6045 39.5781 11.583 39.5962C11.5811 39.5981 11.5791 39.5991 11.5772 39.6011C11.5708 39.6065 11.5654 39.6123 11.5596 39.6177C11.5435 39.6324 11.5279 39.647 11.5132 39.6621C11.5044 39.6709 11.4962 39.6802 11.4883 39.6895C11.4747 39.7046 11.462 39.7198 11.4498 39.7354C11.442 39.7452 11.4346 39.7549 11.4273 39.7652C11.4156 39.7818 11.4044 39.7984 11.3936 39.8155C11.3873 39.8257 11.3814 39.8355 11.3756 39.8453C11.3648 39.8638 11.355 39.8834 11.3453 39.9029C11.3409 39.9122 11.336 39.921 11.3321 39.9307C11.3223 39.9517 11.314 39.9732 11.3062 39.9951C11.3033 40.0035 11.2999 40.0122 11.297 40.0206C11.2892 40.044 11.2828 40.0679 11.277 40.0918C11.2755 40.0996 11.2731 40.1075 11.2711 40.1148C11.2657 40.1403 11.2618 40.1661 11.2584 40.1925C11.2579 40.1993 11.2559 40.2061 11.2555 40.213C11.2521 40.2457 11.2501 40.2789 11.2501 40.3126C11.2501 43.6124 8.80085 46.3502 5.62507 46.8068V32.8125C5.62507 29.1938 8.56891 26.25 12.1876 26.25H26.5001C29.0845 26.25 31.1876 24.1469 31.1876 21.5625V14.0625C31.1876 11.376 32.7974 8.98779 35.2891 7.97851C35.6432 7.83541 35.875 7.49168 35.875 7.10987V4.68752C35.875 3.46533 36.6587 2.42288 37.75 2.03568V6.56251C37.75 7.08059 38.1694 7.5 38.6875 7.5H43.375V22.5C43.375 23.5337 42.5337 24.375 41.5 24.375Z" fill="#311C11"/>
</g>
<defs>
<clipPath id="clip0_259_7804">
<rect width="64" height="64" fill="white"/>
</clipPath>
</defs>
</svg>
