<svg width="62" height="62" viewBox="0 0 62 62" fill="none" xmlns="http://www.w3.org/2000/svg">
<path d="M17 0H1C0.447 0 0 0.448 0 1V15C0 15.552 0.447 16 1 16H2V55C2 58.86 5.141 62 9 62C12.859 62 16 58.86 16 55V16H17C17.553 16 18 15.552 18 15V1C18 0.448 17.553 0 17 0ZM10 14V2H12V14H10ZM6 14V2H8V14H6ZM2 2H4V14H2V2ZM4 24H14V50H4V24ZM9 60C6.243 60 4 57.757 4 55V52H14V55C14 57.757 11.757 60 9 60ZM14 22H4V16H14V22ZM16 14H14V2H16V14Z" fill="#311C11"/>
<path d="M10 28V26H8V28H6V30H8V32H10V30H12V28H10Z" fill="#311C11"/>
<path d="M6 36H12V38H6V36Z" fill="#311C11"/>
<path d="M6 40H12V42H6V40Z" fill="#311C11"/>
<path d="M6 44H12V46H6V44Z" fill="#311C11"/>
<path d="M38 1C38 0.448 37.553 0 37 0H21C20.447 0 20 0.448 20 1V15C20 15.552 20.447 16 21 16H22V55C22 58.86 25.141 62 29 62C32.859 62 36 58.86 36 55V16H37C37.553 16 38 15.552 38 15V1ZM30 14V2H32V14H30ZM26 14V2H28V14H26ZM22 2H24V14H22V2ZM24 24H34V50H24V24ZM29 60C26.243 60 24 57.757 24 55V52H34V55C34 57.757 31.7571 60 29 60ZM34 22H24V16H34V22ZM36 14H34V2H36V14Z" fill="#311C11"/>
<path d="M30 28V26H28V28H26V30H28V32H30V30H32V28H30Z" fill="#311C11"/>
<path d="M26 36H32V38H26V36Z" fill="#311C11"/>
<path d="M26 40H32V42H26V40Z" fill="#311C11"/>
<path d="M26 44H32V46H26V44Z" fill="#311C11"/>
<path d="M50 13C43.383 13 38 18.383 38 25C38 27.5 38.755 29.872 40.19 31.901L38.131 35.504C37.9251 35.864 37.963 36.3139 38.226 36.634C38.42 36.87 38.706 37 39 37C39.105 37 39.212 36.983 39.316 36.949L44.005 35.386C45.832 36.443 47.895 37 50 37C56.617 37 62 31.617 62 25C62 18.383 56.617 13 50 13ZM50 35C48.113 35 46.2681 34.462 44.663 33.446C44.501 33.343 44.315 33.291 44.1281 33.291C44.022 33.291 43.9151 33.308 43.8121 33.342L41.1671 34.224L42.2531 32.324C42.4561 31.969 42.4221 31.527 42.168 31.2061C40.75 29.418 40 27.272 40 25C40 19.486 44.486 15 50 15C55.514 15 60 19.486 60 25C60 30.514 55.514 35 50 35Z" fill="#311C11"/>
<path d="M50.852 17.476C50.489 16.885 49.5119 16.885 49.149 17.476L44.813 24.518C43.821 26.129 43.735 28.103 44.584 29.799C45.481 31.594 47.261 32.78 49.344 32.97C49.559 32.99 49.777 33 50 33C50.223 33 50.441 32.99 50.657 32.97C52.74 32.78 54.519 31.594 55.417 29.799C56.266 28.104 56.18 26.13 55.187 24.518L50.852 17.476ZM53.629 28.904C53.042 30.076 51.863 30.851 50.4759 30.979C50.1619 31.007 49.8389 31.007 49.525 30.979C48.137 30.852 46.959 30.076 46.3719 28.904C45.8279 27.816 45.8809 26.599 46.5169 25.567L50 19.907L53.484 25.566C54.12 26.599 54.173 27.815 53.629 28.904Z" fill="#311C11"/>
</svg>
