<svg width="63" height="64" viewBox="0 0 63 64" fill="none" xmlns="http://www.w3.org/2000/svg">
<path d="M24.5334 25.6001C19.8228 25.6053 16.0054 29.4228 16 34.1335V42.667C16 43.8451 15.0449 44.8002 13.8667 44.8002C12.6885 44.8002 11.7334 43.845 11.7334 42.667V28.8001C11.7334 27.0328 10.3007 25.6001 8.53337 25.6001C6.76612 25.6001 5.33337 27.0328 5.33337 28.8001V42.6668C5.33337 47.3796 9.15387 51.2001 13.8667 51.2001C18.5796 51.2001 22.4001 47.3797 22.4001 42.6668V34.1333C22.4001 32.9551 23.3552 32.0001 24.5334 32.0001C25.7115 32.0001 26.6667 32.9552 26.6667 34.1333V48.0001C26.6667 49.7675 28.0994 51.2001 29.8667 51.2001C31.634 51.2001 33.0667 49.7675 33.0667 48.0001V34.1333C33.0615 29.4228 29.244 25.6053 24.5334 25.6001ZM8.53337 27.7335C9.1225 27.7335 9.6 28.211 9.6 28.8001V30.9335H7.46675V28.8001C7.46675 28.211 7.94425 27.7335 8.53337 27.7335ZM30.9334 39.4667H28.8V36.2666H30.9334V39.4667ZM29.8667 49.0667C29.2776 49.0667 28.8 48.5892 28.8 48.0001V41.6001H30.9334V48.0001C30.9334 48.5892 30.4559 49.0667 29.8667 49.0667ZM28.8001 34.1333C28.8001 31.777 26.8899 29.8667 24.5335 29.8667C22.1771 29.8667 20.2669 31.777 20.2669 34.1333V42.6668C20.2669 46.2013 17.4015 49.0667 13.8669 49.0667C10.3322 49.0667 7.46687 46.2013 7.46687 42.6668V33.0667H9.60012V42.6668C9.60012 45.0232 11.5104 46.9335 13.8669 46.9335C16.2232 46.9335 18.1335 45.0232 18.1335 42.6668V34.1333C18.1335 30.5987 20.9989 27.7333 24.5335 27.7333C28.0681 27.7333 30.9335 30.5987 30.9335 34.1333H28.8001Z" fill="#311C11"/>
<path d="M60.2529 41.9659L60.2423 41.9584C59.4006 40.8112 58.3888 39.7995 57.2416 38.9579L57.2341 38.9473C57.2133 38.931 57.191 38.9165 57.168 38.9034C51.2649 34.6154 43.0449 35.6586 38.4 41.2854V20.0214C38.3943 17.8018 37.0143 15.8177 34.9354 15.04L29.8666 13.1285V10.6666C31.0448 10.6666 31.9999 9.7115 31.9999 8.53325V5.33325C31.9965 2.38925 29.6108 0.0035 26.6667 0H11.7334C8.78938 0.0035 6.40363 2.38925 6.40013 5.33337V8.53337C6.40013 9.71163 7.35525 10.6667 8.53337 10.6667V13.1286L3.46988 15.0316C1.386 15.8088 0.003125 17.7974 0 20.0215V56.5335C0.00475 60.6551 3.345 63.9954 7.46675 64H30.9334C34.2606 63.9943 37.1836 61.7902 38.1045 58.593C38.9022 59.624 39.8404 60.5382 40.8918 61.3089L40.8993 61.3195C40.9202 61.3358 40.9424 61.3503 40.9654 61.3633C46.4746 65.3556 54.0684 64.7524 58.8783 59.9403C63.6881 55.1281 64.2875 47.534 60.2924 42.0266C60.2764 42.0075 60.2668 41.9829 60.2529 41.9659ZM40.0545 57.6353L56.5685 41.1211C57.1164 41.5781 57.6219 42.0838 58.079 42.6315L41.5649 59.1456C41.017 58.6885 40.5115 58.183 40.0545 57.6353ZM49.0667 38.4C51.0674 38.3994 53.0345 38.9135 54.7788 39.8932L38.8268 55.8464C36.7928 52.2147 36.8376 47.7767 38.9445 44.1872C41.0515 40.5974 44.9044 38.3946 49.0667 38.4ZM35.2001 50.1333C35.2039 51.2114 35.3339 52.2854 35.5874 53.3334H2.13338V23.4666H36.2668V44.8085C35.5619 46.4952 35.1991 48.3051 35.2001 50.1333ZM8.53337 5.33337C8.53337 3.56612 9.966 2.13337 11.7334 2.13337H26.6667C28.434 2.13337 29.8667 3.56612 29.8667 5.33337V8.53337H8.53337V5.33337ZM27.7334 10.6666V12.8H10.6667V10.6666H27.7334ZM4.2155 17.0304L9.79413 14.9334H28.6059L34.1898 17.0336C35.4449 17.4894 36.2767 18.6863 36.2666 20.0214V21.3334H2.13338L2.1335 20.0214C2.124 18.684 2.95813 17.4858 4.2155 17.0304ZM30.9334 61.8667H7.46675C4.52275 61.8632 2.13688 59.4775 2.13338 56.5334V55.4668H36.2668V56.5334C36.2632 59.4774 33.8774 61.8631 30.9334 61.8667ZM49.0667 61.8667C47.0661 61.8674 45.0991 61.3531 43.3548 60.3734L59.3068 44.4202C61.3408 48.0518 61.296 52.4897 59.1891 56.0794C57.082 59.6693 53.2291 61.8721 49.0667 61.8667Z" fill="#311C11"/>
</svg>
