<svg width="19" height="24" viewBox="0 0 19 24" fill="none" xmlns="http://www.w3.org/2000/svg">
<path d="M15.9284 22.2483C16.1726 22.7513 16.8627 23.129 17.9324 23.3507C17.7097 22.276 17.3296 21.5856 16.8233 21.344C16.4446 21.1633 16.0733 21.279 15.9222 21.3419C15.8578 21.494 15.7417 21.8639 15.9284 22.2483Z" fill="#F5F3CA"/>
<path d="M5.63013 11.5809C5.56841 12.079 5.94142 12.8521 6.37291 13.2835C6.60792 13.5186 6.92349 13.6087 7.18053 13.5413L6.47461 12.8339C6.36187 12.7209 6.3621 12.538 6.47502 12.4254C6.58805 12.3126 6.77094 12.3127 6.88362 12.4258L7.58988 13.1335C7.65836 12.8761 7.56839 12.5595 7.33273 12.3238C6.90119 11.8925 6.12813 11.5192 5.63013 11.5809Z" fill="#F5F3CA"/>
<path d="M9.57868 12.0592C9.92591 11.9134 10.1763 11.5136 10.1763 11.0432C10.1763 10.2658 9.81808 9.23564 9.28975 8.86523C8.76141 9.2357 8.40308 10.2659 8.40308 11.0432C8.40308 11.5135 8.65352 11.9133 9.00082 12.0592V10.7317C9.00082 10.5721 9.13014 10.4427 9.28975 10.4427C9.44935 10.4427 9.57868 10.5721 9.57868 10.7317V12.0592Z" fill="#F5F3CA"/>
<path d="M1.75008 21.3464C1.24694 21.5908 0.869366 22.2808 0.647583 23.3505C1.72211 23.1279 2.4126 22.7478 2.65426 22.2416C2.83496 21.863 2.71927 21.4916 2.65628 21.3404C2.50298 21.2755 2.13384 21.1601 1.75008 21.3464Z" fill="#F5F3CA"/>
<path d="M9.28968 2.74907C11.055 2.74907 12.731 2.86927 14.0091 3.08753C14.7374 3.21188 15.2343 3.34907 15.575 3.487C15.5429 3.35606 15.4689 3.04199 15.4686 3.03558C15.4685 3.03529 15.4685 3.035 15.4684 3.03465C15.4173 2.93977 15.0019 2.66031 13.6362 2.42483C12.4531 2.22079 10.9095 2.1084 9.28979 2.1084C7.66999 2.1084 6.12647 2.22073 4.9433 2.42478C3.57764 2.66031 3.16221 2.93977 3.11107 3.03465C3.11102 3.03494 3.03659 3.35606 3.00452 3.48694C3.3454 3.34901 3.84276 3.21171 4.57231 3.08724C5.85025 2.86915 7.52547 2.74907 9.28968 2.74907Z" fill="#311C11"/>
<path d="M2.65112 1.74795C2.40685 1.24486 1.71683 0.867291 0.647095 0.645508C0.869802 1.7201 1.24992 2.41064 1.75618 2.65224C2.13486 2.833 2.50619 2.7172 2.6573 2.65421C2.72167 2.50223 2.83776 2.1324 2.65112 1.74795Z" fill="#F5F3CA"/>
<path d="M9.28992 21.2448C7.52473 21.2448 5.84859 21.1246 4.57053 20.9063C3.84225 20.782 3.34541 20.6448 3.00476 20.5068C3.03683 20.6377 3.11103 20.9588 3.11109 20.9591C3.16223 21.0541 3.57765 21.3335 4.94343 21.5691C6.12648 21.773 7.67 21.8854 9.28969 21.8854C10.9094 21.8854 12.453 21.773 13.6361 21.5691C15.0018 21.3335 15.4173 21.0541 15.4684 20.9591C15.4685 20.9588 15.5427 20.6378 15.5747 20.507C15.2339 20.6449 14.7366 20.7821 14.0073 20.9065C12.7293 21.1247 11.054 21.2448 9.28992 21.2448Z" fill="#311C11"/>
<path d="M11.711 12.4261C11.8237 12.3131 12.0066 12.3129 12.1196 12.4257C12.2326 12.5383 12.2328 12.7213 12.12 12.8342L11.4067 13.5491C11.6637 13.6165 11.9791 13.5264 12.2141 13.2913C12.6456 12.86 13.0187 12.0869 12.9568 11.5888C12.4587 11.5269 11.6858 11.9002 11.2544 12.3317C11.0186 12.5674 10.9287 12.884 10.9972 13.1414L11.711 12.4261Z" fill="#F5F3CA"/>
<path d="M13.8231 3.64249C12.5879 3.43914 10.9779 3.32715 9.28968 3.32715C7.60158 3.32715 5.99148 3.43914 4.75619 3.64254C3.31183 3.88033 2.87508 4.1658 2.82475 4.25976C1.70029 9.3462 1.70006 14.6495 2.8248 19.7359C2.82486 19.7363 2.82509 19.7366 2.82521 19.7369C2.86653 19.8226 3.29767 20.1115 4.75654 20.3517C5.99183 20.555 7.60169 20.6671 9.28991 20.6671C10.978 20.6671 12.588 20.555 13.8233 20.3516C15.2713 20.1132 15.7067 19.827 15.7552 19.7337C16.8797 14.647 16.8791 9.34337 15.754 4.25675C15.7113 4.17031 15.279 3.88213 13.8231 3.64249ZM9.2898 17.5161C6.24655 17.5161 3.77065 15.0402 3.77065 11.997C3.77065 8.95384 6.24655 6.47799 9.2898 6.47799C12.333 6.47799 14.8089 8.95384 14.8089 11.997C14.8089 15.0403 12.333 17.5161 9.2898 17.5161Z" fill="#311C11"/>
<path d="M16.8294 2.64867C17.3326 2.40441 17.7102 1.71432 17.932 0.644531C16.8574 0.867181 16.1669 1.2473 15.9253 1.75362C15.7446 2.13212 15.8602 2.50339 15.9232 2.65468C16.0764 2.71951 16.4456 2.83497 16.8294 2.64867Z" fill="#F5F3CA"/>
<path d="M9.2898 7.05566C6.56518 7.05566 4.34851 9.27228 4.34851 11.9968C4.34851 14.7214 6.56513 16.938 9.2898 16.938C12.0145 16.938 14.2311 14.7214 14.2311 11.9968C14.231 9.27228 12.0144 7.05566 9.2898 7.05566ZM13.293 11.0761L13.2926 11.0773C13.3718 11.1054 13.4386 11.1665 13.4689 11.252C13.7578 12.0676 13.1481 13.1741 12.6228 13.6993C12.3265 13.9956 11.9443 14.1468 11.5782 14.1468C11.3625 14.1468 11.1531 14.093 10.9692 13.9868L9.57867 15.3803V16.0884C9.57867 16.248 9.44935 16.3774 9.28974 16.3774C9.13014 16.3774 9.00081 16.248 9.00081 16.0884V15.365L7.61782 13.9792C7.434 14.0855 7.22447 14.1393 7.00875 14.1393C6.64262 14.1393 6.26059 13.9881 5.96421 13.6918C5.43893 13.1665 4.82912 12.0601 5.11816 11.2445C5.14839 11.1591 5.21524 11.098 5.29447 11.0699L5.29401 11.0687C6.10931 10.78 7.21597 11.3897 7.74113 11.9148C8.21301 12.3868 8.31547 13.0755 8.02706 13.5713L9.00081 14.547V12.664C8.33118 12.5121 7.82521 11.843 7.82521 11.0428C7.82521 10.0164 8.3376 8.66426 9.16544 8.26963L9.16596 8.27079C9.24184 8.23467 9.33221 8.23063 9.4141 8.26963C10.2418 8.66431 10.7541 10.0164 10.7541 11.0428C10.7541 11.8431 10.2482 12.5121 9.57861 12.664V14.5623L10.5599 13.5789C10.2714 13.083 10.3737 12.3943 10.8457 11.9223C11.3711 11.3971 12.4777 10.7873 13.293 11.0761Z" fill="#F5F3CA"/>
<path d="M10.56 13.5791L9.57873 14.5625V12.6642C10.2483 12.5123 10.7542 11.8432 10.7542 11.043C10.7542 10.0166 10.2419 8.66449 9.41421 8.26981C9.33233 8.23081 9.24201 8.23485 9.16608 8.27097L9.16556 8.26981C8.33772 8.66444 7.82533 10.0166 7.82533 11.043C7.82533 11.8432 8.3313 12.5122 9.00093 12.6642V14.5472L8.02717 13.5715C8.31559 13.0757 8.21313 12.387 7.74125 11.915C7.21609 11.3899 6.10949 10.7801 5.29413 11.0689L5.29459 11.0701C5.21536 11.0982 5.14856 11.1593 5.11828 11.2447C4.82924 12.0603 5.43905 13.1667 5.96433 13.6919C6.26071 13.9883 6.64274 14.1395 7.00887 14.1395C7.22458 14.1395 7.43412 14.0856 7.61793 13.9794L9.00093 15.3651V16.0886C9.00093 16.2482 9.13025 16.3775 9.28986 16.3775C9.44946 16.3775 9.57879 16.2482 9.57879 16.0886V15.3805L10.9694 13.987C11.1532 14.0932 11.3626 14.1469 11.5784 14.1469C11.9444 14.1469 12.3266 13.9958 12.6229 13.6995C13.1482 13.1743 13.7579 12.0679 13.469 11.2522C13.4388 11.1667 13.3719 11.1056 13.2927 11.0775L13.2931 11.0763C12.4779 10.7875 11.3713 11.3973 10.846 11.9225C10.3738 12.3945 10.2715 13.0832 10.56 13.5791ZM7.58979 13.1333L6.88353 12.4256C6.77085 12.3126 6.58795 12.3125 6.47493 12.4252C6.36201 12.5379 6.36178 12.7208 6.47452 12.8338L7.18044 13.5411C6.92346 13.6086 6.60789 13.5184 6.37282 13.2833C5.94133 12.852 5.56832 12.0788 5.63003 11.5808C6.12804 11.5191 6.9011 11.8922 7.33259 12.3236C7.5683 12.5593 7.65821 12.8759 7.58979 13.1333ZM9.2898 10.4426C9.1302 10.4426 9.00087 10.572 9.00087 10.7315V12.059C8.65358 11.9132 8.40313 11.5134 8.40313 11.043C8.40313 10.2656 8.76146 9.23548 9.2898 8.86507C9.81814 9.23553 10.1764 10.2657 10.1764 11.043C10.1764 11.5134 9.92597 11.9132 9.57873 12.059V10.7315C9.57873 10.5719 9.44935 10.4426 9.2898 10.4426ZM11.2545 12.3312C11.6859 11.8998 12.4588 11.5265 12.957 11.5883C13.0187 12.0864 12.6457 12.8595 12.2142 13.2908C11.9792 13.5259 11.6638 13.6161 11.4068 13.5486L12.1202 12.8338C12.2329 12.7208 12.2327 12.5378 12.1198 12.4252C12.0067 12.3125 11.8238 12.3126 11.7112 12.4256L10.9974 13.1409C10.9288 12.8835 11.0188 12.5669 11.2545 12.3312Z" fill="#311C11"/>
<path d="M9.28978 6.47852C6.24653 6.47852 3.77063 8.95436 3.77063 11.9975C3.77063 15.0408 6.24653 17.5166 9.28978 17.5166C12.333 17.5166 14.8089 15.0407 14.8089 11.9975C14.8089 8.95436 12.333 6.47852 9.28978 6.47852ZM9.28978 16.9387C6.56516 16.9387 4.34849 14.7222 4.34849 11.9975C4.34849 9.27299 6.56511 7.05638 9.28978 7.05638C12.0144 7.05638 14.2311 9.27299 14.2311 11.9975C14.231 14.7222 12.0144 16.9387 9.28978 16.9387Z" fill="#311C11"/>
<path d="M17.0721 3.1733C17.8296 2.81179 18.3421 1.8563 18.5768 0.330631C18.6198 0.0511774 18.3435 -0.0102493 18.2466 0.00130796L18.2463 0.00015224C16.7216 0.241062 15.7652 0.747326 15.4038 1.50484C15.2792 1.76598 15.2442 2.01989 15.2518 2.24335C14.9404 2.11963 14.5099 1.99868 13.9157 1.88814C12.6773 1.65775 11.0345 1.53085 9.28972 1.53085C7.54498 1.53085 5.90213 1.65775 4.66366 1.88814C4.0699 1.99863 3.63957 2.11946 3.32828 2.24312C3.33579 2.01978 3.30019 1.76575 3.17566 1.5049C2.81421 0.747326 1.85779 0.24112 0.333167 0.00015224L0.332936 0.00136575C0.128893 -0.00291042 -0.0222174 0.17299 0.00268836 0.330631C0.243541 1.85537 0.749862 2.81179 1.50738 3.1733C1.74667 3.28754 1.98053 3.32724 2.18989 3.32724C2.28374 3.32724 2.37209 3.31898 2.45432 3.30621C1.0537 9.00103 1.05382 14.9947 2.45467 20.6894C2.18862 20.6479 1.85323 20.6549 1.50738 20.8222C0.595458 21.2632 -0.000952161 23.3376 0.00268836 23.755C0.00390187 23.8991 0.147963 23.9988 0.287689 23.9988C0.580202 23.9988 2.80208 23.4139 3.17572 22.4906C3.2843 22.2223 3.33596 21.9748 3.32833 21.7511C3.63974 21.8748 4.06996 21.9956 4.66371 22.1061C5.90218 22.3365 7.54498 22.4634 9.28966 22.4634C11.0344 22.4634 12.6773 22.3366 13.9157 22.1061C14.5097 21.9956 14.9401 21.8747 15.2514 21.751C15.2437 21.9747 15.2791 22.2292 15.4038 22.4906C15.7653 23.2481 16.7244 23.7384 18.2464 23.9953C18.3089 24.0059 18.3366 23.9953 18.3366 23.9953C18.4942 23.9703 18.6018 23.8224 18.5769 23.6648C18.336 22.14 17.8297 21.1836 17.0722 20.8222C16.7253 20.6566 16.3908 20.6479 16.1248 20.6894C17.5257 14.9947 17.5259 9.00097 16.1251 3.30609C16.2074 3.31892 16.2958 3.32724 16.3897 3.32724C16.599 3.32724 16.8329 3.28749 17.0721 3.1733ZM3.11106 3.03496C3.1622 2.94008 3.57762 2.66062 4.94328 2.42509C6.12645 2.22104 7.66998 2.10871 9.28978 2.10871C10.9095 2.10871 12.4531 2.22104 13.6362 2.42514C15.0019 2.66068 15.4172 2.94013 15.4684 3.03496C15.4684 3.03525 15.4685 3.03554 15.4686 3.03589C15.4688 3.0423 15.5429 3.35643 15.5749 3.48731C15.2343 3.34938 14.7374 3.21219 14.0091 3.08784C12.731 2.86958 11.055 2.74938 9.28966 2.74938C7.52551 2.74938 5.85023 2.86946 4.5723 3.08755C3.84275 3.21202 3.34544 3.34932 3.0045 3.48725C3.03657 3.35637 3.111 3.03525 3.11106 3.03496ZM1.75621 2.65178C1.24989 2.41018 0.869826 1.71963 0.647119 0.645045C1.71685 0.866828 2.40688 1.2444 2.65114 1.74749C2.83779 2.13188 2.72175 2.50171 2.65732 2.65375C2.50621 2.71673 2.13488 2.83254 1.75621 2.65178ZM2.6542 22.2418C2.41254 22.748 1.72206 23.1282 0.647523 23.3508C0.869306 22.281 1.24688 21.591 1.75002 21.3466C2.13378 21.1603 2.50292 21.2757 2.65622 21.3406C2.71921 21.4918 2.8349 21.8632 2.6542 22.2418ZM15.4684 20.9593C15.4172 21.0542 15.0018 21.3337 13.636 21.5692C12.453 21.7731 10.9093 21.8856 9.28966 21.8856C7.66998 21.8856 6.12645 21.7732 4.9434 21.5692C3.57762 21.3337 3.1622 21.0542 3.11106 20.9593C3.111 20.9589 3.0368 20.6379 3.00473 20.507C3.34538 20.6449 3.84223 20.7821 4.5705 20.9065C5.84856 21.1247 7.5247 21.245 9.28989 21.245C11.0539 21.245 12.7293 21.1249 14.0073 20.9067C14.7366 20.7823 15.2339 20.645 15.5747 20.5071C15.5426 20.638 15.4684 20.9589 15.4684 20.9593ZM16.8233 21.3437C17.3296 21.5853 17.7097 22.2758 17.9324 23.3504C16.8626 23.1287 16.1726 22.7511 15.9284 22.248C15.7417 21.8636 15.8577 21.4937 15.9222 21.3416C16.0733 21.2787 16.4446 21.163 16.8233 21.3437ZM15.7551 19.7337C15.7066 19.827 15.2713 20.1132 13.8232 20.3516C12.5879 20.555 10.9779 20.6671 9.28983 20.6671C7.60161 20.6671 5.99175 20.5549 4.75646 20.3517C3.29759 20.1116 2.86645 19.8226 2.82513 19.7369C2.82502 19.7366 2.82479 19.7362 2.82473 19.7359C1.69998 14.6495 1.70021 9.34618 2.82467 4.25974C2.875 4.16578 3.31175 3.88031 4.75611 3.64252C5.99141 3.43912 7.6015 3.32713 9.2896 3.32713C10.9778 3.32713 12.5878 3.43912 13.823 3.64247C15.2789 3.88211 15.7112 4.17028 15.754 4.25662C16.8791 9.34341 16.8796 14.647 15.7551 19.7337ZM15.9233 2.65479C15.8603 2.5035 15.7447 2.13229 15.9254 1.75373C16.167 1.24741 16.8575 0.867348 17.9321 0.64464C17.7103 1.71443 17.3327 2.40452 16.8295 2.64878C16.4457 2.83514 16.0765 2.71968 15.9233 2.65479Z" fill="#311C11"/>
</svg>
