<svg width="24" height="24" viewBox="0 0 24 24" fill="none" xmlns="http://www.w3.org/2000/svg">
<g clip-path="url(#clip0_1676_42167)">
<path d="M18.6375 22.2483C18.8817 22.7513 19.5718 23.129 20.6415 23.3507C20.4188 22.276 20.0387 21.5856 19.5324 21.344C19.1537 21.1633 18.7824 21.279 18.6313 21.3419C18.5669 21.494 18.4508 21.8639 18.6375 22.2483Z" fill="white"/>
<path d="M8.33923 11.5809C8.27752 12.079 8.65053 12.8521 9.08201 13.2835C9.31703 13.5186 9.6326 13.6087 9.88963 13.5413L9.18372 12.8339C9.07098 12.7209 9.07121 12.538 9.18412 12.4254C9.29715 12.3126 9.48004 12.3127 9.59273 12.4258L10.299 13.1335C10.3675 12.8761 10.2775 12.5595 10.0418 12.3238C9.61029 11.8925 8.83723 11.5192 8.33923 11.5809Z" fill="white"/>
<path d="M12.2879 12.0592C12.6351 11.9134 12.8855 11.5136 12.8855 11.0432C12.8855 10.2658 12.5273 9.23564 11.999 8.86523C11.4706 9.2357 11.1123 10.2659 11.1123 11.0432C11.1123 11.5135 11.3628 11.9133 11.71 12.0592V10.7317C11.71 10.5721 11.8394 10.4427 11.999 10.4427C12.1586 10.4427 12.2879 10.5721 12.2879 10.7317V12.0592Z" fill="white"/>
<path d="M4.45919 21.3464C3.95605 21.5908 3.57847 22.2808 3.35669 23.3505C4.43122 23.1279 5.12171 22.7478 5.36337 22.2416C5.54407 21.863 5.42838 21.4916 5.36539 21.3404C5.21208 21.2755 4.84295 21.1601 4.45919 21.3464Z" fill="white"/>
<path d="M11.9988 2.74907C13.7641 2.74907 15.4401 2.86927 16.7182 3.08753C17.4465 3.21188 17.9434 3.34907 18.2841 3.487C18.252 3.35606 18.178 3.04199 18.1777 3.03558C18.1776 3.03529 18.1776 3.035 18.1775 3.03465C18.1264 2.93977 17.7111 2.66031 16.3453 2.42483C15.1622 2.22079 13.6186 2.1084 11.9989 2.1084C10.3791 2.1084 8.83557 2.22073 7.6524 2.42478C6.28675 2.66031 5.87132 2.93977 5.82018 3.03465C5.82012 3.03494 5.74569 3.35606 5.71362 3.48694C6.0545 3.34901 6.55187 3.21171 7.28142 3.08724C8.55936 2.86915 10.2346 2.74907 11.9988 2.74907Z" fill="white"/>
<path d="M5.36047 1.74795C5.1162 1.24486 4.42618 0.867291 3.35645 0.645508C3.57915 1.7201 3.95927 2.41064 4.46553 2.65224C4.84421 2.833 5.21554 2.7172 5.36665 2.65421C5.43102 2.50223 5.54712 2.1324 5.36047 1.74795Z" fill="white"/>
<path d="M11.999 21.2448C10.2338 21.2448 8.55769 21.1246 7.27964 20.9063C6.55136 20.782 6.05452 20.6448 5.71387 20.5068C5.74594 20.6377 5.82014 20.9588 5.82019 20.9591C5.87133 21.0541 6.28676 21.3335 7.65253 21.5691C8.83559 21.773 10.3791 21.8854 11.9988 21.8854C13.6185 21.8854 15.1621 21.773 16.3452 21.5691C17.7109 21.3335 18.1264 21.0541 18.1775 20.9591C18.1776 20.9588 18.2518 20.6378 18.2838 20.507C17.943 20.6449 17.4457 20.7821 16.7164 20.9065C15.4384 21.1247 13.7631 21.2448 11.999 21.2448Z" fill="white"/>
<path d="M14.4203 12.4261C14.533 12.3131 14.7158 12.3129 14.8289 12.4257C14.9418 12.5383 14.942 12.7213 14.8293 12.8342L14.1159 13.5491C14.3729 13.6165 14.6883 13.5264 14.9234 13.2913C15.3548 12.86 15.7279 12.0869 15.6661 11.5888C15.1679 11.5269 14.395 11.9002 13.9636 12.3317C13.7279 12.5674 13.6379 12.884 13.7064 13.1414L14.4203 12.4261Z" fill="white"/>
<path d="M16.5322 3.64249C15.297 3.43914 13.687 3.32715 11.9988 3.32715C10.3107 3.32715 8.70059 3.43914 7.4653 3.64254C6.02093 3.88033 5.58419 4.1658 5.53385 4.25976C4.40939 9.3462 4.40916 14.6495 5.53391 19.7359C5.53397 19.7363 5.5342 19.7366 5.53432 19.7369C5.57563 19.8226 6.00677 20.1115 7.46564 20.3517C8.70093 20.555 10.3108 20.6671 11.999 20.6671C13.6871 20.6671 15.2971 20.555 16.5324 20.3516C17.9805 20.1132 18.4158 19.827 18.4643 19.7337C19.5888 14.647 19.5882 9.34337 18.4631 4.25675C18.4204 4.17031 17.9881 3.88213 16.5322 3.64249ZM11.9989 17.5161C8.95566 17.5161 6.47975 15.0402 6.47975 11.997C6.47975 8.95384 8.95566 6.47799 11.9989 6.47799C15.0421 6.47799 17.518 8.95384 17.518 11.997C17.518 15.0403 15.0421 17.5161 11.9989 17.5161Z" fill="white"/>
<path d="M19.5387 2.64867C20.0418 2.40441 20.4194 1.71432 20.6412 0.644531C19.5666 0.867181 18.8761 1.2473 18.6345 1.75362C18.4538 2.13212 18.5695 2.50339 18.6325 2.65468C18.7857 2.71951 19.1548 2.83497 19.5387 2.64867Z" fill="white"/>
<path d="M11.9989 7.05566C9.27429 7.05566 7.05762 9.27228 7.05762 11.9968C7.05762 14.7214 9.27423 16.938 11.9989 16.938C14.7236 16.938 16.9402 14.7214 16.9402 11.9968C16.9401 9.27228 14.7235 7.05566 11.9989 7.05566ZM16.0021 11.0761L16.0017 11.0773C16.0809 11.1054 16.1477 11.1665 16.178 11.252C16.4669 12.0676 15.8572 13.1741 15.3319 13.6993C15.0356 13.9956 14.6534 14.1468 14.2873 14.1468C14.0716 14.1468 13.8622 14.093 13.6783 13.9868L12.2878 15.3803V16.0884C12.2878 16.248 12.1585 16.3774 11.9988 16.3774C11.8392 16.3774 11.7099 16.248 11.7099 16.0884V15.365L10.3269 13.9792C10.1431 14.0855 9.93357 14.1393 9.71786 14.1393C9.35172 14.1393 8.9697 13.9881 8.67332 13.6918C8.14804 13.1665 7.53822 12.0601 7.82727 11.2445C7.85749 11.1591 7.92435 11.098 8.00358 11.0699L8.00311 11.0687C8.81842 10.78 9.92508 11.3897 10.4502 11.9148C10.9221 12.3868 11.0246 13.0755 10.7362 13.5713L11.7099 14.547V12.664C11.0403 12.5121 10.5343 11.843 10.5343 11.0428C10.5343 10.0164 11.0467 8.66426 11.8745 8.26963L11.8751 8.27079C11.9509 8.23467 12.0413 8.23063 12.1232 8.26963C12.9509 8.66431 13.4632 10.0164 13.4632 11.0428C13.4632 11.8431 12.9573 12.5121 12.2877 12.664V14.5623L13.269 13.5789C12.9805 13.083 13.0828 12.3943 13.5549 11.9223C14.0802 11.3971 15.1868 10.7873 16.0021 11.0761Z" fill="white"/>
<path d="M13.2691 13.5791L12.2878 14.5625V12.6642C12.9574 12.5123 13.4633 11.8432 13.4633 11.043C13.4633 10.0166 12.951 8.66449 12.1233 8.26981C12.0414 8.23081 11.9511 8.23485 11.8752 8.27097L11.8747 8.26981C11.0468 8.66444 10.5344 10.0166 10.5344 11.043C10.5344 11.8432 11.0404 12.5122 11.71 12.6642V14.5472L10.7363 13.5715C11.0247 13.0757 10.9222 12.387 10.4504 11.915C9.9252 11.3899 8.81859 10.7801 8.00323 11.0689L8.00369 11.0701C7.92447 11.0982 7.85767 11.1593 7.82739 11.2447C7.53834 12.0603 8.14816 13.1667 8.67343 13.6919C8.96982 13.9883 9.35184 14.1395 9.71798 14.1395C9.93369 14.1395 10.1432 14.0856 10.327 13.9794L11.71 15.3651V16.0886C11.71 16.2482 11.8394 16.3775 11.999 16.3775C12.1586 16.3775 12.2879 16.2482 12.2879 16.0886V15.3805L13.6785 13.987C13.8623 14.0932 14.0718 14.1469 14.2875 14.1469C14.6535 14.1469 15.0357 13.9958 15.332 13.6995C15.8573 13.1743 16.467 12.0679 16.1781 11.2522C16.1479 11.1667 16.081 11.1056 16.0018 11.0775L16.0022 11.0763C15.187 10.7875 14.0804 11.3973 13.5551 11.9225C13.0829 12.3945 12.9806 13.0832 13.2691 13.5791ZM10.2989 13.1333L9.59264 12.4256C9.47995 12.3126 9.29706 12.3125 9.18403 12.4252C9.07112 12.5379 9.07089 12.7208 9.18363 12.8338L9.88954 13.5411C9.63257 13.6086 9.317 13.5184 9.08192 13.2833C8.65044 12.852 8.27743 12.0788 8.33914 11.5808C8.83714 11.5191 9.6102 11.8922 10.0417 12.3236C10.2774 12.5593 10.3673 12.8759 10.2989 13.1333ZM11.9989 10.4426C11.8393 10.4426 11.71 10.572 11.71 10.7315V12.059C11.3627 11.9132 11.1122 11.5134 11.1122 11.043C11.1122 10.2656 11.4706 9.23548 11.9989 8.86507C12.5272 9.23553 12.8855 10.2657 12.8855 11.043C12.8855 11.5134 12.6351 11.9132 12.2878 12.059V10.7315C12.2878 10.5719 12.1585 10.4426 11.9989 10.4426ZM13.9636 12.3312C14.395 11.8998 15.1679 11.5265 15.6661 11.5883C15.7278 12.0864 15.3548 12.8595 14.9233 13.2908C14.6883 13.5259 14.3729 13.6161 14.1159 13.5486L14.8293 12.8338C14.942 12.7208 14.9418 12.5378 14.8289 12.4252C14.7158 12.3125 14.5329 12.3126 14.4203 12.4256L13.7065 13.1409C13.6379 12.8835 13.7279 12.5669 13.9636 12.3312Z" fill="#181818"/>
<path d="M11.9989 6.47852C8.95564 6.47852 6.47974 8.95436 6.47974 11.9975C6.47974 15.0408 8.95564 17.5166 11.9989 17.5166C15.0421 17.5166 17.518 15.0407 17.518 11.9975C17.518 8.95436 15.0421 6.47852 11.9989 6.47852ZM11.9989 16.9387C9.27427 16.9387 7.0576 14.7222 7.0576 11.9975C7.0576 9.27299 9.27421 7.05638 11.9989 7.05638C14.7236 7.05638 16.9402 9.27299 16.9402 11.9975C16.9401 14.7222 14.7235 16.9387 11.9989 16.9387Z" fill="#181818"/>
<path d="M19.7813 3.1733C20.5389 2.81179 21.0513 1.8563 21.286 0.330631C21.329 0.0511774 21.0528 -0.0102493 20.9558 0.00130796L20.9556 0.00015224C19.4309 0.241062 18.4745 0.747326 18.113 1.50484C17.9884 1.76598 17.9534 2.01989 17.961 2.24335C17.6496 2.11963 17.2191 1.99868 16.6249 1.88814C15.3865 1.65775 13.7437 1.53085 11.9989 1.53085C10.2542 1.53085 8.61136 1.65775 7.37288 1.88814C6.77913 1.99863 6.3488 2.11946 6.03751 2.24312C6.04502 2.01978 6.00942 1.76575 5.88489 1.5049C5.52344 0.747326 4.56702 0.24112 3.0424 0.00015224L3.04216 0.00136575C2.83812 -0.00291042 2.68701 0.17299 2.71192 0.330631C2.95277 1.85537 3.45909 2.81179 4.21661 3.1733C4.4559 3.28754 4.68976 3.32724 4.89912 3.32724C4.99296 3.32724 5.08132 3.31898 5.16355 3.30621C3.76293 9.00103 3.76305 14.9947 5.1639 20.6894C4.89785 20.6479 4.56246 20.6549 4.21661 20.8222C3.30469 21.2632 2.70828 23.3376 2.71192 23.755C2.71313 23.8991 2.85719 23.9988 2.99692 23.9988C3.28943 23.9988 5.51131 23.4139 5.88495 22.4906C5.99353 22.2223 6.04519 21.9748 6.03756 21.7511C6.34897 21.8748 6.77919 21.9956 7.37294 22.1061C8.61141 22.3365 10.2542 22.4634 11.9989 22.4634C13.7436 22.4634 15.3865 22.3366 16.625 22.1061C17.2189 21.9956 17.6493 21.8747 17.9606 21.751C17.9529 21.9747 17.9884 22.2292 18.1131 22.4906C18.4746 23.2481 19.4336 23.7384 20.9556 23.9953C21.0181 24.0059 21.0458 23.9953 21.0458 23.9953C21.2035 23.9703 21.3111 23.8224 21.2861 23.6648C21.0452 22.14 20.5389 21.1836 19.7814 20.8222C19.4346 20.6566 19.1 20.6479 18.834 20.6894C20.235 14.9947 20.2351 9.00097 18.8343 3.30609C18.9166 3.31892 19.005 3.32724 19.0989 3.32724C19.3083 3.32724 19.5421 3.28749 19.7813 3.1733ZM5.82029 3.03496C5.87143 2.94008 6.28685 2.66062 7.65251 2.42509C8.83568 2.22104 10.3792 2.10871 11.999 2.10871C13.6187 2.10871 15.1623 2.22104 16.3454 2.42514C17.7112 2.66068 18.1265 2.94013 18.1776 3.03496C18.1777 3.03525 18.1777 3.03554 18.1778 3.03589C18.1781 3.0423 18.2521 3.35643 18.2842 3.48731C17.9435 3.34938 17.4466 3.21219 16.7183 3.08784C15.4402 2.86958 13.7642 2.74938 11.9989 2.74938C10.2347 2.74938 8.55946 2.86946 7.28152 3.08755C6.55198 3.21202 6.05467 3.34932 5.71373 3.48725C5.7458 3.35637 5.82023 3.03525 5.82029 3.03496ZM4.46544 2.65178C3.95911 2.41018 3.57905 1.71963 3.35635 0.645045C4.42608 0.866828 5.11611 1.2444 5.36037 1.74749C5.54702 2.13188 5.43098 2.50171 5.36655 2.65375C5.21544 2.71673 4.84411 2.83254 4.46544 2.65178ZM5.36343 22.2418C5.12177 22.748 4.43128 23.1282 3.35675 23.3508C3.57853 22.281 3.95611 21.591 4.45925 21.3466C4.84301 21.1603 5.21215 21.2757 5.36545 21.3406C5.42844 21.4918 5.54413 21.8632 5.36343 22.2418ZM18.1776 20.9593C18.1265 21.0542 17.711 21.3337 16.3453 21.5692C15.1622 21.7731 13.6186 21.8856 11.9989 21.8856C10.3792 21.8856 8.83568 21.7732 7.65263 21.5692C6.28685 21.3337 5.87143 21.0542 5.82029 20.9593C5.82023 20.9589 5.74603 20.6379 5.71396 20.507C6.05461 20.6449 6.55145 20.7821 7.27973 20.9065C8.55779 21.1247 10.2339 21.245 11.9991 21.245C13.7632 21.245 15.4385 21.1249 16.7165 20.9067C17.4458 20.7823 17.9431 20.645 18.2839 20.5071C18.2519 20.638 18.1776 20.9589 18.1776 20.9593ZM19.5325 21.3437C20.0388 21.5853 20.4189 22.2758 20.6416 23.3504C19.5719 23.1287 18.8818 22.7511 18.6376 22.248C18.4509 21.8636 18.567 21.4937 18.6314 21.3416C18.7825 21.2787 19.1538 21.163 19.5325 21.3437ZM18.4643 19.7337C18.4159 19.827 17.9805 20.1132 16.5324 20.3516C15.2971 20.555 13.6872 20.6671 11.9991 20.6671C10.3108 20.6671 8.70098 20.5549 7.46569 20.3517C6.00682 20.1116 5.57568 19.8226 5.53436 19.7369C5.53425 19.7366 5.53402 19.7362 5.53396 19.7359C4.40921 14.6495 4.40944 9.34618 5.5339 4.25974C5.58423 4.16578 6.02098 3.88031 7.46534 3.64252C8.70063 3.43912 10.3107 3.32713 11.9988 3.32713C13.6871 3.32713 15.297 3.43912 16.5322 3.64247C17.9881 3.88211 18.4204 4.17028 18.4632 4.25662C19.5883 9.34341 19.5889 14.647 18.4643 19.7337ZM18.6326 2.65479C18.5696 2.5035 18.4539 2.13229 18.6346 1.75373C18.8762 1.24741 19.5667 0.867348 20.6413 0.64464C20.4195 1.71443 20.0419 2.40452 19.5388 2.64878C19.1549 2.83514 18.7857 2.71968 18.6326 2.65479Z" fill="#181818"/>
</g>
<defs>
<clipPath id="clip0_1676_42167">
<rect width="24" height="24" fill="white"/>
</clipPath>
</defs>
</svg>
