<svg width="64" height="64" viewBox="0 0 64 64" fill="none" xmlns="http://www.w3.org/2000/svg">
<g clip-path="url(#clip0_342_29503)">
<path d="M60.7861 41.9659L60.7755 41.9584C59.9339 40.8112 58.922 39.7995 57.7749 38.9579L57.7674 38.9473C57.7465 38.931 57.7243 38.9165 57.7013 38.9034C51.7981 34.6154 43.5781 35.6586 38.9333 41.2854V20.0214C38.9275 17.8018 37.5475 15.8177 35.4686 15.04L30.3999 13.1285V10.6666C31.578 10.6666 32.5331 9.7115 32.5331 8.53325V5.33325C32.5298 2.38925 30.144 0.0035 27.2 0H12.2666C9.32264 0.0035 6.93689 2.38925 6.93339 5.33337V8.53337C6.93339 9.71163 7.88851 10.6667 9.06664 10.6667V13.1286L4.00314 15.0316C1.91926 15.8088 0.536389 17.7974 0.533264 20.0215V56.5335C0.538014 60.6551 3.87826 63.9954 8.00001 64H31.4666C34.7939 63.9943 37.7169 61.7902 38.6378 58.593C39.4355 59.624 40.3736 60.5382 41.425 61.3089L41.4325 61.3195C41.4535 61.3358 41.4756 61.3503 41.4986 61.3633C47.0079 65.3556 54.6016 64.7524 59.4115 59.9403C64.2214 55.1281 64.8208 47.534 60.8256 42.0266C60.8096 42.0075 60.8 41.9829 60.7861 41.9659ZM40.5878 57.6353L57.1018 41.1211C57.6496 41.5781 58.1551 42.0838 58.6123 42.6315L42.0981 59.1456C41.5503 58.6885 41.0448 58.183 40.5878 57.6353ZM49.6 38.4C51.6006 38.3994 53.5678 38.9135 55.312 39.8932L39.36 55.8464C37.326 52.2147 37.3709 47.7767 39.4778 44.1872C41.5848 40.5974 45.4376 38.3946 49.6 38.4ZM35.7334 50.1333C35.7371 51.2114 35.8671 52.2854 36.1206 53.3334H2.66664V23.4666H36.8V44.8085C36.0951 46.4952 35.7324 48.3051 35.7334 50.1333ZM9.06664 5.33337C9.06664 3.56612 10.4993 2.13337 12.2666 2.13337H27.2C28.9673 2.13337 30.4 3.56612 30.4 5.33337V8.53337H9.06664V5.33337ZM28.2666 10.6666V12.8H11.2V10.6666H28.2666ZM4.74876 17.0304L10.3274 14.9334H29.1391L34.723 17.0336C35.9781 17.4894 36.81 18.6863 36.7999 20.0214V21.3334H2.66664L2.66676 20.0214C2.65726 18.684 3.49139 17.4858 4.74876 17.0304ZM31.4666 61.8667H8.00001C5.05601 61.8632 2.67014 59.4775 2.66664 56.5334V55.4668H36.8V56.5334C36.7965 59.4774 34.4106 61.8631 31.4666 61.8667ZM49.6 61.8667C47.5994 61.8674 45.6324 61.3531 43.888 60.3734L59.84 44.4202C61.874 48.0518 61.8293 52.4897 59.7224 56.0794C57.6153 59.6693 53.7624 61.8721 49.6 61.8667Z" fill="#311C11"/>
</g>
<defs>
<clipPath id="clip0_342_29503">
<rect width="64" height="64" fill="white"/>
</clipPath>
</defs>
</svg>
