<svg width="64" height="64" viewBox="0 0 64 64" fill="none" xmlns="http://www.w3.org/2000/svg">
<path d="M55 58.0005C54.6786 47.0195 55.9678 40.9407 53.0679 31.7005C52.9884 31.4475 52.8117 31.2364 52.5766 31.1136C52.3415 30.9908 52.0673 30.9665 51.8143 31.0459C51.5612 31.1253 51.3501 31.302 51.2273 31.5371C51.1045 31.7722 51.0802 32.0465 51.1596 32.2995C53.9366 41.1479 52.6839 46.8637 53 58.0005H47C46.7348 58.0005 46.4804 58.1059 46.2929 58.2934C46.1054 58.481 46 58.7353 46 59.0005C46 59.2657 46.1054 59.5201 46.2929 59.7076C46.4804 59.8952 46.7348 60.0005 47 60.0005H54C54.75 60.052 55.2615 59.8479 55.7066 60.2913C55.846 60.4315 55.9408 60.6097 55.9791 60.8036C56.0174 60.9975 55.9976 61.1984 55.9221 61.381C55.8466 61.5637 55.7188 61.72 55.5547 61.8302C55.3906 61.9404 55.1976 61.9997 55 62.0005C-0.171501 61.8912 2.84912 62.263 2.29338 61.7098C2.15403 61.5696 2.05923 61.3914 2.0209 61.1975C1.98256 61.0036 2.00239 60.8027 2.07791 60.62C2.15342 60.4374 2.28124 60.2811 2.4453 60.1709C2.60937 60.0607 2.80235 60.0014 3 60.0005H9C9.26522 60.0005 9.51957 59.8952 9.70711 59.7076C9.89464 59.5201 10 59.2657 10 59.0005C10 58.7353 9.89464 58.481 9.70711 58.2934C9.51957 58.1059 9.26522 58.0005 9 58.0005H5V44.3243C5.00377 37.4421 6.77116 30.6757 10.1335 24.6708C10.2608 24.4396 10.2915 24.1675 10.219 23.9138C10.1465 23.66 9.97669 23.4452 9.74651 23.3162C9.51633 23.1872 9.24447 23.1543 8.99019 23.2249C8.7359 23.2954 8.51981 23.4636 8.389 23.6928C4.85932 29.9965 3.00397 37.0996 3 44.3243V58.0005C2.20435 58.0005 1.44129 58.3166 0.87868 58.8792C0.31607 59.4418 0 60.2049 0 61.0005C0 61.7962 0.31607 62.5592 0.87868 63.1218C1.44129 63.6845 2.20435 64.0005 3 64.0005H55C57.6646 64.0005 59.0021 60.7653 57.1209 58.8772C56.8427 58.5984 56.512 58.3774 56.148 58.2269C55.784 58.0765 55.3939 57.9995 55 58.0005Z" fill="#311C11"/>
<path d="M43.4313 14.2075C44.321 13.967 45.2541 13.9347 46.1583 14.1129C47.0626 14.2912 47.9136 14.6753 48.6455 15.2354C49.3774 15.7955 49.9705 16.5167 50.3788 17.3429C50.7871 18.1692 50.9997 19.0784 51 20C51.164 25.5539 50.3909 22.9015 52.382 27H37.618C39.6055 22.9096 38.844 25.5105 39 20C39 19.7348 38.8947 19.4804 38.7071 19.2929C38.5196 19.1054 38.2652 19 38 19C37.7348 19 37.4804 19.1054 37.2929 19.2929C37.1054 19.4804 37 19.7348 37 20V23.7639C35.4098 27.2585 34.6458 27.7106 35.1493 28.5264C35.6516 29.3389 36.4089 28.8618 40.1006 29.0006C40.3308 30.1302 40.9441 31.1456 41.837 31.8749C42.7298 32.6042 43.8472 33.0026 45 33.0026C46.1528 33.0026 47.2702 32.6042 48.1631 31.8749C49.0559 31.1456 49.6693 30.1302 49.8994 29.0006C53.593 28.8616 54.3483 29.3391 54.8508 28.5264C55.3566 27.7075 54.5508 27.1711 53 23.7645V20C53.0012 18.0512 52.2905 16.1692 51.0014 14.7077C49.7123 13.2462 47.9337 12.3061 46 12.064V10C46 9.73478 45.8947 9.48043 45.7071 9.29289C45.5196 9.10536 45.2652 9 45 9C44.7348 9 44.4804 9.10536 44.2929 9.29289C44.1054 9.48043 44 9.73478 44 10V12.0625C43.6308 12.1083 43.2652 12.1801 42.9061 12.2774C42.7794 12.3118 42.6607 12.3709 42.5569 12.4513C42.453 12.5316 42.3659 12.6316 42.3007 12.7456C42.2355 12.8596 42.1933 12.9853 42.1767 13.1156C42.1601 13.2458 42.1692 13.3781 42.2037 13.5048C42.2382 13.6315 42.2973 13.7502 42.3776 13.8541C42.4579 13.958 42.558 14.045 42.6719 14.1102C42.7859 14.1755 42.9116 14.2176 43.0419 14.2343C43.1722 14.2509 43.3044 14.2417 43.4311 14.2072L43.4313 14.2075ZM42.172 29H47.828C46.8846 31.6596 43.1159 31.6609 42.172 29Z" fill="#311C11"/>
<path d="M49 0C48.7348 0 48.4804 0.105357 48.2929 0.292893C48.1054 0.48043 48 0.734784 48 1C48 1.26522 48.1054 1.51957 48.2929 1.70711C48.4804 1.89464 48.7348 2 49 2C52.4466 2.0039 55.7509 3.3748 58.1881 5.81192C60.6252 8.24905 61.9961 11.5534 62 15C62 15.2652 62.1054 15.5196 62.2929 15.7071C62.4804 15.8946 62.7348 16 63 16C63.2652 16 63.5196 15.8946 63.7071 15.7071C63.8946 15.5196 64 15.2652 64 15C63.9955 11.0231 62.4137 7.21044 59.6016 4.39837C56.7896 1.5863 52.9769 0.00449947 49 0Z" fill="#311C11"/>
<path d="M49 4C48.7348 4 48.4804 4.10536 48.2929 4.29289C48.1054 4.48043 48 4.73478 48 5C48 5.26522 48.1054 5.51957 48.2929 5.70711C48.4804 5.89464 48.7348 6 49 6C51.3861 6.00268 53.6738 6.95175 55.361 8.639C57.0482 10.3262 57.9973 12.6139 58 15C58 15.2652 58.1054 15.5196 58.2929 15.7071C58.4804 15.8946 58.7348 16 59 16C59.2652 16 59.5196 15.8946 59.7071 15.7071C59.8946 15.5196 60 15.2652 60 15C59.9967 12.0836 58.8367 9.28766 56.7745 7.22548C54.7123 5.1633 51.9164 4.00331 49 4Z" fill="#311C11"/>
<path d="M54 15C54 15.2652 54.1054 15.5196 54.2929 15.7071C54.4804 15.8946 54.7348 16 55 16C55.2652 16 55.5196 15.8946 55.7071 15.7071C55.8946 15.5196 56 15.2652 56 15C55.9979 13.1441 55.2597 11.3649 53.9474 10.0526C52.6351 8.74025 50.8559 8.00208 49 8C48.7348 8 48.4804 8.10536 48.2929 8.29289C48.1054 8.48043 48 8.73478 48 9C48 9.26522 48.1054 9.51957 48.2929 9.70711C48.4804 9.89464 48.7348 10 49 10C50.3256 10.0015 51.5965 10.5288 52.5339 11.4661C53.4712 12.4035 53.9985 13.6744 54 15Z" fill="#311C11"/>
<path d="M15 10.0003H20.6544C18.4066 11.6063 16.322 13.4294 14.4309 15.4433C14.2493 15.6367 14.1519 15.8942 14.1602 16.1594C14.1685 16.4245 14.2818 16.6755 14.4752 16.8571C14.6685 17.0387 14.9261 17.1361 15.1913 17.1278C15.4564 17.1194 15.7074 17.0062 15.889 16.8128C18.367 14.1744 21.1901 11.8828 24.2816 10.0003H33.7191C34.9417 10.7451 36.1237 11.5546 37.26 12.4253C37.3642 12.5052 37.4832 12.5639 37.6101 12.5978C37.737 12.6318 37.8693 12.6404 37.9996 12.6233C38.1298 12.6061 38.2554 12.5634 38.3691 12.4977C38.4829 12.432 38.5826 12.3445 38.6625 12.2403C38.7424 12.1361 38.8011 12.0171 38.835 11.8902C38.869 11.7633 38.8776 11.631 38.8605 11.5007C38.8433 11.3705 38.8006 11.2449 38.7349 11.1312C38.6692 11.0174 38.5817 10.9177 38.4775 10.8378C37.4132 10.0212 36.2955 9.24667 35.1465 8.52929C36.8286 1.18105 37.298 1.06354 36.7663 0.383794C36.2125 -0.323206 36.4545 0.140544 22.0212 0.000294222C21.8695 0.000272203 21.7197 0.034791 21.5833 0.101235C21.4468 0.167679 21.3273 0.264306 21.2337 0.383794C20.7072 1.05642 21.1991 1.31692 22.4684 6.97342L17.4961 4.13204C17.3821 4.06668 17.2563 4.02443 17.1259 4.00772C16.9956 3.99101 16.8632 4.00017 16.7363 4.03466C16.6095 4.06916 16.4907 4.12832 16.3868 4.20877C16.2828 4.28921 16.1958 4.38936 16.1305 4.50348C16.0653 4.6176 16.0233 4.74346 16.0067 4.87386C15.9902 5.00425 15.9995 5.13662 16.0342 5.26341C16.0689 5.39019 16.1282 5.50889 16.2088 5.61273C16.2894 5.71656 16.3897 5.80349 16.5039 5.86854L20.2344 8.00029H15C14.7348 8.00029 14.4804 8.10565 14.2929 8.29319C14.1054 8.48072 14 8.73508 14 9.00029C14 9.26551 14.1054 9.51987 14.2929 9.7074C14.4804 9.89494 14.7348 10.0003 15 10.0003ZM26 2.00029V5.00029C26 5.26551 26.1054 5.51986 26.2929 5.7074C26.4804 5.89494 26.7348 6.00029 27 6.00029C27.2652 6.00029 27.5196 5.89494 27.7071 5.7074C27.8946 5.51986 28 5.26551 28 5.00029V2.00029H30V5.00029C30 5.26551 30.1054 5.51986 30.2929 5.7074C30.4804 5.89494 30.7348 6.00029 31 6.00029C31.2652 6.00029 31.5196 5.89494 31.7071 5.7074C31.8946 5.51986 32 5.26551 32 5.00029V2.00029H34.7012L33.2173 8.00029H24.7827L23.2987 2.00029H26Z" fill="#311C11"/>
<path d="M34.2768 41.3729C37.0643 39.8786 38.8445 35.7866 38.919 35.6131C38.9782 35.475 39.0056 35.3254 38.9991 35.1753C38.9926 35.0252 38.9523 34.8785 38.8813 34.7461C38.8103 34.6137 38.7104 34.499 38.589 34.4106C38.4676 34.3221 38.3278 34.2621 38.18 34.2351C37.9941 34.2009 33.6003 33.4202 30.8136 34.9143C30.0684 35.3087 29.4301 35.8783 28.9538 36.5741C28.4774 35.8783 27.8391 35.3087 27.0938 34.9143C24.307 33.4201 19.9131 34.2011 19.7274 34.2351C19.5796 34.2621 19.4398 34.3221 19.3185 34.4106C19.1971 34.4991 19.0972 34.6138 19.0262 34.7462C18.9552 34.8786 18.9149 35.0252 18.9084 35.1753C18.9019 35.3254 18.9293 35.475 18.9885 35.6131C19.0629 35.7866 20.8438 39.8786 23.6306 41.3729C25.0079 42.1114 26.4931 42.1762 27.938 41.7066V45.1222C26.7117 45.3252 25.5785 45.9032 24.6942 46.7767C23.81 47.6502 23.2181 48.7763 23 49.9999H21C20.7348 49.9999 20.4804 50.1053 20.2929 50.2928C20.1054 50.4804 20 50.7347 20 50.9999C20 51.2652 20.1054 51.5195 20.2929 51.707C20.4804 51.8946 20.7348 51.9999 21 51.9999H37C37.2652 51.9999 37.5196 51.8946 37.7071 51.707C37.8947 51.5195 38 51.2652 38 50.9999C38 50.7347 37.8947 50.4804 37.7071 50.2928C37.5196 50.1053 37.2652 49.9999 37 49.9999H34.8149C34.5985 48.7867 34.0147 47.6692 33.1423 46.7988C32.27 45.9283 31.1512 45.3469 29.9375 45.1332V41.6957C31.4105 42.1828 32.9044 42.1088 34.2768 41.3729ZM36.4625 36.0434C34.8808 38.8594 32.8375 40.9647 29.9798 39.5623C29.9749 39.5033 29.9689 39.4413 29.9615 39.3748C30.45 36.2863 33.3435 35.8107 36.4625 36.0434ZM27.9283 39.5624C25.0658 40.9658 23.0268 38.8583 21.4455 36.0433C24.5654 35.8101 27.458 36.2871 27.9466 39.3752C27.9391 39.4413 27.9331 39.5036 27.9283 39.5624ZM32.7686 49.9999H25.0463C26.1083 46.0718 31.7056 46.0686 32.7686 49.9999Z" fill="#311C11"/>
<path d="M13 58C12.7348 58 12.4804 58.1054 12.2929 58.2929C12.1054 58.4804 12 58.7348 12 59C12 59.2652 12.1054 59.5196 12.2929 59.7071C12.4804 59.8946 12.7348 60 13 60H27C27.2652 60 27.5196 59.8946 27.7071 59.7071C27.8946 59.5196 28 59.2652 28 59C28 58.7348 27.8946 58.4804 27.7071 58.2929C27.5196 58.1054 27.2652 58 27 58H13Z" fill="#311C11"/>
<path d="M43 60C43.5523 60 44 59.5523 44 59C44 58.4477 43.5523 58 43 58C42.4477 58 42 58.4477 42 59C42 59.5523 42.4477 60 43 60Z" fill="#311C11"/>
<path d="M12 21C12.5523 21 13 20.5523 13 20C13 19.4477 12.5523 19 12 19C11.4477 19 11 19.4477 11 20C11 20.5523 11.4477 21 12 21Z" fill="#311C11"/>
<path d="M39 17C39.5523 17 40 16.5523 40 16C40 15.4477 39.5523 15 39 15C38.4477 15 38 15.4477 38 16C38 16.5523 38.4477 17 39 17Z" fill="#311C11"/>
</svg>
