<svg width="64" height="64" viewBox="0 0 64 64" fill="none" xmlns="http://www.w3.org/2000/svg">
<g clip-path="url(#clip0_359_28180)">
<path d="M54.3605 24.3392C53.9652 18.1915 50.3211 12.7213 44.8 9.98827V8.53333H46.9333C47.5224 8.53333 48 8.05573 48 7.46667V3.2C48 1.43267 46.5673 0 44.8 0H19.2C17.4327 0 16 1.43267 16 3.2V7.46667C16 8.05573 16.4776 8.53333 17.0667 8.53333H19.2V9.98827C13.6788 12.7216 10.0347 18.1923 9.63947 24.3403C9.61987 24.4032 9.60667 24.4679 9.60001 24.5333V58.6667C9.60347 61.6107 11.9893 63.9965 14.9333 64H49.0667C52.0107 63.9965 54.3965 61.6107 54.4 58.6667V24.5333C54.3933 24.4675 54.3801 24.4024 54.3605 24.3392ZM18.1333 6.4V3.2C18.1333 2.61093 18.6109 2.13333 19.2 2.13333H44.8C45.3891 2.13333 45.8667 2.61093 45.8667 3.2V6.4H18.1333ZM20.6997 11.6416C21.0851 11.4704 21.3333 11.0883 21.3333 10.6667V8.53333H42.6667V10.6667C42.6667 11.0883 42.9149 11.4704 43.3003 11.6416C48.0995 13.7799 51.4432 18.2577 52.1301 23.4667H11.8699C12.5568 18.2577 15.9005 13.7799 20.6997 11.6416ZM52.2667 58.6667C52.2667 60.434 50.834 61.8667 49.0667 61.8667H14.9333C13.166 61.8667 11.7333 60.434 11.7333 58.6667V55.4667H52.2667V58.6667ZM52.2667 40.5333H48V42.6667H52.2667V44.8H48V46.9333H52.2667V49.0667H45.8667V38.4H52.2667V40.5333ZM52.2667 27.7333H48V29.8667H52.2667V32H43.7333V34.1333H52.2667V36.2667H44.8C44.2109 36.2667 43.7333 36.7443 43.7333 37.3333V50.1333C43.7333 50.7224 44.2109 51.2 44.8 51.2H52.2667V53.3333H11.7333V25.6H52.2667V27.7333Z" fill="#311C11"/>
<path d="M40.2057 36.5711C40.0083 36.3775 39.7432 36.2682 39.4667 36.2662H34.7947L36.2453 29.0128C36.358 28.4346 35.9805 27.8746 35.4024 27.7619C35.0551 27.6942 34.6968 27.8032 34.4459 28.0528L23.7792 38.7195C23.3668 39.1402 23.3736 39.8155 23.7943 40.2279C23.9917 40.4215 24.2568 40.5308 24.5333 40.5328H29.2053L27.7547 47.7862C27.642 48.3644 28.0195 48.9244 28.5976 49.0371C28.9449 49.1048 29.3032 48.9958 29.5541 48.7462L40.2208 38.0795C40.6332 37.6588 40.6264 36.9835 40.2057 36.5711ZM30.5365 44.7547L31.552 39.6795C31.6699 39.1023 31.2975 38.5388 30.7203 38.4211C30.65 38.4067 30.5784 38.3995 30.5067 38.3995H27.1083L33.4635 32.0443L32.448 37.1195C32.3301 37.6967 32.7025 38.2602 33.2797 38.3779C33.35 38.3923 33.4216 38.3995 33.4933 38.3995H36.8917L30.5365 44.7547Z" fill="#311C11"/>
<path d="M45.8667 27.7334H43.7333V29.8667H45.8667V27.7334Z" fill="#311C11"/>
<path d="M19.2 44.7998H14.9333C14.3443 44.7998 13.8667 45.2774 13.8667 45.8665V50.1331C13.8667 50.7222 14.3443 51.1998 14.9333 51.1998H19.2C19.7891 51.1998 20.2667 50.7222 20.2667 50.1331V45.8665C20.2667 45.2774 19.7891 44.7998 19.2 44.7998ZM18.1333 49.0665H16V46.9331H18.1333V49.0665Z" fill="#311C11"/>
<path d="M19.2 36.2666H14.9333C14.3443 36.2666 13.8667 36.7442 13.8667 37.3333V41.5999C13.8667 42.189 14.3443 42.6666 14.9333 42.6666H19.2C19.7891 42.6666 20.2667 42.189 20.2667 41.5999V37.3333C20.2667 36.7442 19.7891 36.2666 19.2 36.2666ZM18.1333 40.5333H16V38.3999H18.1333V40.5333Z" fill="#311C11"/>
<path d="M20.2667 32H16V34.1333H20.2667V32Z" fill="#311C11"/>
<path d="M20.2667 27.7334H13.8667V29.8667H20.2667V27.7334Z" fill="#311C11"/>
</g>
<defs>
<clipPath id="clip0_359_28180">
<rect width="64" height="64" fill="white"/>
</clipPath>
</defs>
</svg>
