<svg width="74" height="64" viewBox="0 0 74 64" fill="none" xmlns="http://www.w3.org/2000/svg">
<path d="M51.0138 51.9854C50.9918 52.1033 50.9836 52.2248 50.9856 52.3443C50.9902 52.6233 51.0412 52.9001 51.0485 53.179C51.0647 53.7982 50.6826 54.2699 50.8676 54.9128C50.9522 55.2066 51.2695 55.7596 51.6239 55.7518C51.9767 55.7439 52.1941 55.3619 52.2958 55.0782C52.4501 54.6477 52.5977 54.2543 52.8162 53.8475C52.9218 53.651 53.0246 53.4489 53.108 53.2412C52.3444 52.9033 51.6624 52.5036 51.1762 52.125C51.1185 52.0801 51.0648 52.0334 51.0138 51.9854Z" fill="#311C11"/>
<path d="M58.8965 52.7539C58.9822 52.8456 59.0656 52.9396 59.153 53.0297C59.4022 53.2865 59.7223 53.5573 60.0729 53.4856C60.3634 53.4262 60.5618 53.1328 60.5933 52.8387C60.6247 52.5445 60.522 52.2525 60.3948 51.985C60.0862 51.3346 59.6297 50.7691 59.1253 50.2598C59.1398 50.4019 59.1539 50.5445 59.1643 50.6875C59.2149 51.3728 59.163 52.1358 58.8965 52.7539Z" fill="#311C11"/>
<path d="M59.2682 54.7206C59.1681 54.1566 58.963 53.6198 58.7061 53.1094C58.5385 53.3663 58.3202 53.5827 58.0359 53.7329C57.7574 53.88 57.4428 53.9729 57.105 54.0223C57.3181 54.4899 57.5463 54.9508 57.7943 55.4012C57.9664 55.7145 58.2036 56.06 58.5607 56.0832C58.8568 56.1023 59.1257 55.8716 59.2339 55.5962C59.3421 55.3207 59.3201 55.0121 59.2682 54.7206Z" fill="#311C11"/>
<path d="M54.9053 53.8584C54.9151 53.9049 54.9251 53.9511 54.9357 53.9972C55.0605 54.5552 55.209 55.108 55.3804 55.6538C55.4874 55.9947 55.6515 56.38 55.9972 56.4731C56.2834 56.5501 56.5929 56.3769 56.7532 56.128C56.9137 55.8793 56.9532 55.5723 56.96 55.2764C56.9696 54.8643 56.9221 54.4555 56.8392 54.0531C56.2365 54.0996 55.5717 54.0195 54.9053 53.8584Z" fill="#311C11"/>
<path d="M50.0282 37.2012C50.1127 37.8788 50.0945 38.5693 49.9682 39.2404C49.8469 39.8856 49.6929 40.5367 49.7132 41.1976C49.7486 42.3563 50.3918 43.6424 50.8617 44.6861C50.9855 44.9609 51.1149 45.2357 51.2508 45.509C52.2405 47.4983 53.5686 49.4054 55.4408 50.6292C55.9127 50.9368 56.4354 51.2049 56.9984 51.2318C57.5934 51.2603 58.1751 51.0127 58.6528 50.6577C58.771 50.5697 58.9334 50.3837 59.1172 50.1749C58.5168 44.5723 54.8968 39.521 50.4355 36.2049C50.3181 36.1175 50.1848 36.0201 50.0419 35.9219C50.1296 36.3288 50.1072 36.7707 50.0282 37.2012Z" fill="#EBF2E5"/>
<path d="M58.7063 53.1091C58.7793 52.9977 58.8423 52.8789 58.8964 52.7535C59.1629 52.1353 59.2148 51.3723 59.1642 50.687C59.1538 50.544 59.1397 50.4014 59.1252 50.2593C59.1224 50.231 59.1205 50.2029 59.1173 50.1749C58.9335 50.3836 58.7711 50.5697 58.6529 50.6576C58.1751 51.0127 57.5935 51.2602 56.9985 51.2317C56.4355 51.2048 55.9128 50.9367 55.4409 50.6291C53.5687 49.4053 52.2406 47.4982 51.2509 45.5089C51.115 45.2356 50.9855 44.9609 50.8618 44.686C50.3919 43.6423 49.7487 42.3562 49.7133 41.1975C49.693 40.5367 49.8469 39.8855 49.9682 39.2404C50.0946 38.5692 50.1128 37.8787 50.0283 37.2012C50.025 37.2194 50.022 37.2378 50.0183 37.256C49.9826 37.4393 49.9372 37.6204 49.8854 37.7952C49.8613 37.8766 49.835 37.9572 49.8089 38.0381C49.8243 38.1592 49.8269 38.2816 49.8158 38.3998C49.769 38.9045 49.5389 39.3704 49.3687 39.8477C49.0851 40.6429 49.0012 41.4514 49.0282 42.2628C49.0659 43.3899 49.3176 44.5228 49.5448 45.6328C50.2127 48.8941 52.0257 51.9521 54.8022 53.8319C54.8365 53.8406 54.8709 53.8494 54.9052 53.8576C55.5716 54.0187 56.2363 54.0988 56.8391 54.0523C56.9294 54.0453 57.0178 54.0347 57.1052 54.022C57.443 53.9726 57.7577 53.8797 58.0362 53.7325C58.3204 53.5824 58.5387 53.366 58.7063 53.1091Z" fill="#C6CAD6"/>
<path d="M49.5449 45.6338C49.3177 44.5237 49.066 43.3908 49.0283 42.2637C49.0014 41.4523 49.0852 40.6438 49.3688 39.8486C49.539 39.3713 49.7691 38.9054 49.8159 38.4008C49.827 38.2825 49.8244 38.1601 49.809 38.0391C49.3483 39.4573 48.5639 40.7695 47.5335 41.8489C47.4245 42.3467 47.3001 42.8416 47.1636 43.3338C47.689 44.2286 48.1702 45.1491 48.6046 46.091C48.6197 46.1241 48.6351 46.1571 48.6502 46.1902C49.1342 47.2494 49.5593 48.3354 49.9226 49.4414C50.2249 50.3617 50.305 51.3169 51.0139 51.9856C51.0648 52.0336 51.1185 52.0803 51.1762 52.1252C51.6624 52.5037 52.3444 52.9035 53.108 53.2414C53.6453 53.4792 54.2231 53.6856 54.8023 53.8328C52.0258 51.953 50.2128 48.8951 49.5449 45.6338Z" fill="#A1A8C3"/>
<path d="M48.1238 34.4575C48.4014 35.1598 48.5615 35.9085 48.5955 36.6629C48.6028 36.827 48.6063 36.999 48.6867 37.1426C48.7529 37.2608 48.889 37.327 49.0505 37.3589C49.3438 37.4166 49.7212 37.3613 49.9163 37.2997C49.9506 37.2888 49.9844 37.2735 50.0183 37.2564C50.0219 37.2382 50.025 37.2198 50.0282 37.2016C50.1072 36.7711 50.1296 36.3292 50.0418 35.9222C49.9815 35.6435 49.8704 35.3807 49.6905 35.15C49.3231 34.6795 48.7171 34.442 48.1157 34.4494C48.1162 34.4564 48.1167 34.4636 48.1169 34.4705C48.1194 34.4662 48.1216 34.4619 48.1238 34.4575Z" fill="#3D2618"/>
<path d="M49.0504 37.3594C48.8889 37.3275 48.7528 37.2613 48.6867 37.1431C48.6062 36.9995 48.6028 36.8275 48.5955 36.6634C48.5614 35.909 48.4013 35.1604 48.1237 34.458C48.1215 34.4624 48.1193 34.4667 48.1169 34.471C48.1283 34.6636 48.1392 34.8561 48.1464 35.0489C48.1745 35.8103 48.1694 36.5726 48.1324 37.3338C48.1014 37.9715 48.0501 38.608 47.974 39.2424C47.8695 40.1163 47.7218 40.9864 47.5332 41.8488C48.5636 40.7695 49.348 39.4573 49.8087 38.039C49.8348 37.9581 49.8611 37.8775 49.8852 37.7961C49.9369 37.6213 49.9824 37.4402 50.0181 37.2569C49.9842 37.274 49.9504 37.2893 49.9162 37.3002C49.7211 37.3618 49.3437 37.4172 49.0504 37.3594Z" fill="#311C11"/>
<path d="M16.8008 52.125C16.3146 52.5036 15.6326 52.9033 14.8691 53.2412C14.9524 53.4489 15.0554 53.651 15.1608 53.8475C15.3792 54.2543 15.527 54.6477 15.6812 55.0782C15.7829 55.3619 16.0003 55.7439 16.3533 55.7518C16.7076 55.7596 17.0249 55.2066 17.1094 54.9128C17.2943 54.2699 16.9123 53.7982 16.9285 53.179C16.9359 52.9001 16.9867 52.6233 16.9915 52.3443C16.9934 52.2248 16.9851 52.1033 16.9631 51.9854C16.9122 52.0335 16.8586 52.0802 16.8008 52.125Z" fill="#311C11"/>
<path d="M8.81256 50.6875C8.82314 50.5445 8.83724 50.4019 8.85171 50.2598C8.34733 50.7691 7.89084 51.3346 7.58206 51.985C7.45502 52.2525 7.35216 52.5445 7.38366 52.8387C7.41503 53.1328 7.61355 53.4262 7.90398 53.4856C8.25481 53.5573 8.57479 53.2865 8.82389 53.0297C8.91131 52.9397 8.99468 52.8456 9.08039 52.7539C8.8139 52.1358 8.76211 51.3728 8.81256 50.6875Z" fill="#311C11"/>
<path d="M9.27043 53.1094C9.0138 53.6198 8.80859 54.1566 8.70841 54.7206C8.65662 55.0121 8.63462 55.3207 8.7428 55.5963C8.85088 55.8716 9.1199 56.1023 9.4158 56.0832C9.77307 56.06 10.0102 55.7146 10.1825 55.4012C10.4303 54.9508 10.6586 54.4899 10.8718 54.0223C10.5339 53.9729 10.2191 53.88 9.94072 53.7329C9.65639 53.5827 9.43817 53.3663 9.27043 53.1094Z" fill="#311C11"/>
<path d="M11.1377 54.0531C11.0548 54.4555 11.0073 54.8642 11.0168 55.2764C11.0238 55.5723 11.0631 55.8793 11.2236 56.128C11.3841 56.3769 11.6935 56.5501 11.9796 56.4731C12.3254 56.38 12.4895 55.9947 12.5964 55.6538C12.7679 55.1081 12.9163 54.5552 13.0414 53.9972C13.0517 53.9511 13.0617 53.9049 13.0717 53.8584C12.4052 54.0195 11.7405 54.0996 11.1377 54.0531Z" fill="#311C11"/>
<path d="M9.41897 50.6618C9.89662 51.017 10.4784 51.2645 11.0734 51.236C11.6364 51.2091 12.1592 50.941 12.631 50.6333C14.503 49.4095 15.8312 47.5027 16.821 45.5133C16.9569 45.24 17.0865 44.9653 17.2101 44.6904C17.68 43.6468 18.3231 42.3606 18.3586 41.2018C18.3788 40.541 18.225 39.8898 18.1035 39.2448C17.9959 38.6727 17.9683 38.0869 18.014 37.5067C17.886 36.9837 17.8266 36.426 17.9352 35.9219C17.7921 36.0201 17.659 36.1175 17.5415 36.2049C13.1043 39.503 9.49986 44.5176 8.87012 50.0839C9.08868 50.3299 9.28319 50.5609 9.41897 50.6618Z" fill="#EBF2E5"/>
<path d="M18.5271 45.6375C18.7545 44.5272 19.0061 43.3945 19.0437 42.2671C19.0707 41.4559 18.9868 40.6474 18.7032 39.8522C18.5329 39.3749 18.3029 38.9087 18.256 38.4043C18.2521 38.3619 18.2499 38.3191 18.2491 38.2761C18.193 38.1171 18.1396 37.9571 18.0916 37.7954C18.0663 37.7099 18.0429 37.6224 18.021 37.5344C18.0187 37.5253 18.0163 37.5162 18.014 37.5068C17.9683 38.087 17.9959 38.6729 18.1035 39.245C18.2249 39.89 18.3788 40.5412 18.3585 41.202C18.323 42.3608 17.6799 43.6469 17.2101 44.6906C17.0864 44.9655 16.9569 45.2402 16.8209 45.5135C15.8311 47.5029 14.503 49.4097 12.631 50.6335C12.1592 50.9412 11.6363 51.2093 11.0733 51.2362C10.4784 51.2647 9.89656 51.0171 9.41894 50.662C9.28316 50.5611 9.08865 50.3301 8.87005 50.0841C8.86336 50.1425 8.85776 50.2009 8.85181 50.2595C8.83734 50.4017 8.82325 50.5442 8.81266 50.6872C8.76222 51.3725 8.814 52.1355 9.08046 52.7537C9.13455 52.8791 9.19779 52.998 9.27058 53.1093C9.43836 53.3662 9.65655 53.5826 9.9409 53.7328C10.2193 53.8799 10.534 53.9728 10.872 54.0222C10.9592 54.035 11.0475 54.0455 11.1379 54.0526C11.7407 54.099 12.4054 54.019 13.0719 53.8579C13.161 53.8361 13.25 53.8131 13.339 53.7888C16.0762 51.9052 17.865 48.8713 18.5271 45.6375Z" fill="#C6CAD6"/>
<path d="M18.249 38.2764C18.2497 38.3193 18.2519 38.3621 18.2558 38.4046C18.3027 38.9089 18.5327 39.3751 18.7031 39.8524C18.9867 40.6477 19.0706 41.4562 19.0436 42.2674C19.006 43.3948 18.7543 44.5275 18.527 45.6377C17.8648 48.8716 16.0761 51.9055 13.3389 53.7891C13.8627 53.6457 14.3824 53.4561 14.869 53.241C15.6325 52.903 16.3145 52.5033 16.8007 52.1248C16.8585 52.0799 16.9121 52.0332 16.963 51.9852C17.672 51.3166 17.7522 50.3613 18.0543 49.441C18.4175 48.335 18.8428 47.249 19.3268 46.1898C19.3419 46.1567 19.3572 46.1237 19.3724 46.0906C19.7796 45.2075 20.2303 44.3445 20.7177 43.5028C20.5436 42.8903 20.3928 42.2727 20.2618 41.6514C19.377 40.673 18.6882 39.519 18.249 38.2764Z" fill="#A1A8C3"/>
<path d="M18.0139 37.5071C18.0162 37.5164 18.0185 37.5255 18.0208 37.5346C18.0821 37.5587 18.1499 37.5696 18.2159 37.566C18.4155 37.5551 18.6944 37.4502 18.8995 37.3016C18.9966 37.2312 19.0771 37.1509 19.1249 37.0664C19.1923 36.9464 19.2083 36.8057 19.2267 36.6696C19.3076 36.0739 19.4654 35.489 19.6922 34.932C19.6988 34.7719 19.7101 34.6121 19.7197 34.4521C19.1662 34.4809 18.6247 34.7165 18.2863 35.1501C18.1062 35.3808 17.9951 35.6433 17.935 35.9223C17.8264 36.4264 17.8859 36.9841 18.0139 37.5071Z" fill="#3D2618"/>
<path d="M19.6868 35.1486C19.6891 35.0765 19.6893 35.0039 19.6924 34.9316C19.4656 35.4887 19.3078 36.0735 19.2269 36.6693C19.2084 36.8054 19.1925 36.9461 19.1251 37.066C19.0773 37.1506 18.9968 37.2309 18.8997 37.3012C18.6946 37.4498 18.4157 37.5547 18.2161 37.5657C18.1501 37.5692 18.0822 37.5584 18.021 37.5342C18.043 37.6223 18.0663 37.7098 18.0916 37.7953C18.1396 37.957 18.193 38.117 18.2492 38.276C18.6884 39.5186 19.3772 40.6726 20.262 41.6509C20.1641 41.1879 20.0783 40.7231 20.0046 40.2563C19.9513 39.9188 19.9023 39.5806 19.8617 39.2417C19.699 37.8832 19.6414 36.5146 19.6868 35.1486Z" fill="#311C11"/>
<path d="M26.2437 53.0221C26.3104 53.1487 26.3796 53.2742 26.454 53.3969C28.1369 55.0028 30.273 56.1321 32.5517 56.6143C33.9355 56.9072 35.3682 56.9609 36.7707 56.7818C37.6384 56.5422 38.4662 56.1768 39.217 55.6726C40.2092 55.0069 41.0369 54.0784 41.5934 53.0215C38.154 54.3007 29.6846 54.3008 26.2437 53.0221Z" fill="#311C11"/>
<path d="M48.1467 35.0488C46.356 35.853 44.4673 36.457 42.5381 36.8722C41.2953 37.1397 40.0348 37.3309 38.7669 37.4492C35.7953 37.7263 32.7573 37.5766 29.7957 37.2343C26.2807 36.8278 22.917 36.3447 19.6868 35.1494C19.6415 36.5153 19.699 37.884 19.8617 39.2424C19.9023 39.5813 19.9513 39.9195 20.0046 40.2571C21.396 41.3485 22.82 42.3986 24.3689 43.248C28.4086 45.4634 33.9533 46.4842 38.4995 45.3146C38.5568 45.2998 38.6141 45.2848 38.6711 45.2692C40.7786 44.6981 43.0689 42.5128 44.6478 41.081C45.913 39.9335 47.0789 38.6774 48.1327 37.3338C48.1696 36.5726 48.1747 35.8102 48.1467 35.0488Z" fill="#EBF2E5"/>
<path d="M31.0718 51.8406C28.5073 51.5825 25.9729 51.0011 23.5571 50.1035C23.979 50.8159 24.4319 51.5129 24.9194 52.19C25.15 52.5103 25.6133 52.7873 26.2439 53.0217C29.6848 54.3005 38.1542 54.3004 41.5936 53.0211C42.2236 52.7868 42.6863 52.5101 42.9168 52.19C43.3664 51.5655 43.7854 50.9232 44.1791 50.2686C43.7955 50.4039 43.4099 50.5342 43.0207 50.6538C39.1683 51.8376 35.0823 52.2445 31.0718 51.8406Z" fill="#C6CAD6"/>
<path d="M47.9741 39.2417C48.0501 38.6073 48.1015 37.9707 48.1325 37.333C47.0787 38.6767 45.9128 39.9327 44.6476 41.0802C43.0687 42.512 40.7783 44.6974 38.6708 45.2685C38.6138 45.284 38.5566 45.299 38.4993 45.3138C33.953 46.4834 28.4084 45.4627 24.3687 43.2472C22.8198 42.3978 21.3957 41.3477 20.0044 40.2564C20.0781 40.7231 20.1639 41.1879 20.2617 41.6509C20.3928 42.2722 20.5435 42.8899 20.7176 43.5023C21.3488 45.7232 22.2607 47.8776 23.4383 49.9042C24.2632 50.2163 25.1019 50.4929 25.9522 50.7302C29.7984 51.8037 33.8502 52.1085 37.8139 51.6182C40.0211 51.3453 42.2017 50.8297 44.2953 50.076C45.5522 47.9484 46.513 45.6767 47.1633 43.333C47.2998 42.8408 47.4242 42.3459 47.5332 41.8481C47.7218 40.9856 47.8695 40.1155 47.9741 39.2417Z" fill="#C6CAD6"/>
<path d="M37.8141 51.6183C33.8504 52.1086 29.7986 51.8038 25.9524 50.7302C25.1021 50.493 24.2634 50.2164 23.4385 49.9043C23.4773 49.9709 23.5176 50.037 23.557 50.1033C25.9728 51.001 28.5071 51.5824 31.0717 51.8405C35.0822 52.2444 39.1682 51.8374 43.0206 50.6537C43.4097 50.534 43.7953 50.4038 44.179 50.2684C44.2178 50.2043 44.2574 50.1406 44.2955 50.0761C42.2019 50.8299 40.0213 51.3454 37.8141 51.6183Z" fill="#3D2618"/>
<path d="M19.6865 35.1494C22.9167 36.3447 26.2803 36.8279 29.7953 37.2343C32.757 37.5766 35.7949 37.7263 38.7665 37.4493C40.0345 37.3309 41.295 37.1397 42.5378 36.8723C44.467 36.4571 46.3557 35.8531 48.1463 35.0489C48.1392 34.8561 48.1282 34.6636 48.1168 34.471C48.1166 34.4641 48.1161 34.4569 48.1156 34.4499C48.1051 34.2745 48.0947 34.0991 48.0808 33.9238C43.5163 34.3689 24.3189 34.3689 19.7547 33.9238C19.7406 34.1 19.7301 34.2762 19.7196 34.4526C19.71 34.6125 19.6987 34.7723 19.6921 34.9324C19.6891 35.0047 19.6888 35.0773 19.6865 35.1494Z" fill="#A1A8C3"/>
<path d="M30.5 37.5L37.5 44.5H30.5L37.5 51.5" fill="#311C11"/>
<path d="M13.6964 20.0752C13.8542 19.3879 14.0981 18.2189 14.1458 18.054C14.3817 17.2365 14.6629 16.431 14.9921 15.6462C15.0496 15.5092 15.1217 15.3145 15.2097 15.1067C15.5068 14.0856 15.8643 13.0873 16.2778 12.1252C16.3241 12.0176 16.3709 11.9101 16.4182 11.8027C15.6461 11.97 14.9873 12.1786 14.722 12.4C14.3066 12.7466 14.0316 13.2016 13.7825 13.6556C12.7184 15.596 12.1382 17.6105 11.9824 19.6378C12.3531 19.8967 12.7402 20.1323 13.144 20.3359C13.3687 20.4492 13.6403 20.3199 13.6964 20.0752Z" fill="#3D2618"/>
<path d="M54.0531 13.656C53.8041 13.2019 53.5293 12.747 53.1136 12.4004C52.848 12.1788 52.1884 11.97 51.4155 11.8027C51.4638 11.9097 51.5113 12.0172 51.5577 12.1255C52.176 13.5639 52.671 15.0825 53.0213 16.6389C53.172 16.8588 53.319 17.0151 53.413 17.2786C53.6437 17.926 53.8376 18.5791 54.0749 19.2216C54.1475 19.4181 54.2241 19.6135 54.3071 19.8075C54.8831 19.5668 55.3683 19.233 55.7659 18.8103C55.5303 17.0633 54.9723 15.332 54.0531 13.656Z" fill="#3D2618"/>
<path d="M55.8983 20.7455C55.8976 20.0995 55.8531 19.4538 55.7663 18.8101C55.3686 19.2328 54.8835 19.5666 54.3075 19.8073C54.2244 19.6133 54.1478 19.4179 54.0753 19.2214C53.838 18.5789 53.6441 17.9258 53.4133 17.2784C53.3193 17.015 53.1724 16.8586 53.0216 16.6387C53.3173 17.9517 53.5095 19.2918 53.5851 20.6334C53.711 22.8753 53.5115 25.1219 52.922 27.2553C52.6766 28.1437 52.3384 29.0966 51.8989 30.0185C52.7218 29.7889 53.4331 29.5177 53.6989 29.2629C54.0893 28.8885 54.3322 28.4156 54.5491 27.9454C55.6448 25.5708 56.0617 23.1392 55.8983 20.7455Z" fill="#311C11"/>
<path d="M14.2227 21.3347C14.2765 19.2327 14.6227 17.1244 15.2096 15.1064C15.1216 15.3142 15.0495 15.5089 14.992 15.6459C14.6628 16.4307 14.3816 17.2362 14.1456 18.0537C14.098 18.2187 13.8541 19.3876 13.6963 20.0749C13.6401 20.3196 13.3686 20.4489 13.1439 20.3357C12.7401 20.132 12.353 19.8964 11.9823 19.6375C11.954 20.0065 11.9381 20.3757 11.9376 20.7451C11.7741 23.1387 12.1911 25.5703 13.2868 27.945C13.5036 28.4152 13.7465 28.8881 14.1369 29.2624C14.4026 29.5173 15.114 29.7884 15.9371 30.018C15.4975 29.0961 15.1593 28.1433 14.9138 27.2549C14.386 25.3441 14.1715 23.3424 14.2227 21.3347Z" fill="#311C11"/>
<path d="M53.0214 16.6386C52.671 15.0822 52.1761 13.5636 51.5578 12.1252C51.5114 12.0169 51.4638 11.9095 51.4156 11.8025C50.7788 10.3877 49.9849 9.08629 48.7054 8.1102C46.4428 6.38447 21.6728 6.44074 19.1303 8.1102C17.7842 8.99412 17.0468 10.3759 16.418 11.8028C16.3707 11.9102 16.324 12.0176 16.2776 12.1252C15.8642 13.0874 15.5066 14.0857 15.2095 15.1068C14.6226 17.1248 14.2764 19.2331 14.2227 21.3351C14.6185 21.793 15.0504 22.22 15.5119 22.6116C16.1741 23.1736 16.9847 24.0559 17.8719 23.4445C18.5671 22.9655 18.4303 22.0995 18.4965 21.3593C18.5663 20.578 18.6451 19.7868 18.8285 19.0225C18.9372 18.569 19.0672 18.1198 19.2174 17.6775C19.5722 15.8509 20.3108 14.1163 21.6089 12.7507C21.9445 12.3976 28.0009 12.2704 33.9178 12.3005C39.8348 12.2704 45.8911 12.3976 46.2268 12.7507C47.3215 13.9023 48.0175 15.3168 48.4221 16.8271C48.5203 17.0246 48.6132 17.2246 48.6985 17.4279C49.0126 18.1773 49.2115 18.9148 49.32 19.716L49.6709 22.3153C49.7313 22.7616 50.2045 23.029 50.6164 22.8451C51.4373 22.4786 52.2058 22.0208 52.8688 21.4126C53.1422 21.1618 53.3781 20.9015 53.5849 20.6334C53.5092 19.2917 53.317 17.9517 53.0214 16.6386Z" fill="#EBF2E5"/>
<path d="M53.5849 20.6335C53.3781 20.9015 53.1422 21.1619 52.8688 21.4127C52.2058 22.0209 51.4373 22.4787 50.6164 22.8451C50.2045 23.029 49.7313 22.7617 49.6709 22.3154L49.32 19.7161C49.2115 18.9149 49.0126 18.1774 48.6985 17.428C48.6132 17.2247 48.5203 17.0246 48.4221 16.8271C48.6906 17.8304 48.8311 18.8758 48.8721 19.9155C48.9768 20.4766 49.0412 21.05 49.0636 21.6254C49.1514 23.894 48.5058 29.2218 47.0939 29.8957C45.5101 30.6514 23.6373 29.9282 22.0658 29.7996C20.76 29.6927 20.325 29.0018 19.9356 27.7584C19.6001 26.6863 19.3985 25.5481 19.3419 24.4045C18.9294 22.3767 18.7746 19.9559 19.2174 17.6776C19.0673 18.1198 18.9372 18.569 18.8285 19.0226C18.6452 19.7869 18.5663 20.578 18.4965 21.3593C18.4304 22.0996 18.5672 22.9656 17.8719 23.4446C16.9847 24.0559 16.1741 23.1736 15.5119 22.6116C15.0505 22.22 14.6185 21.7931 14.2227 21.3351C14.1715 23.3428 14.386 25.3445 14.9138 27.2553C15.1593 28.1437 15.4974 29.0965 15.937 30.0184C16.6253 31.4622 17.5643 32.8295 18.8001 33.7489C18.8865 33.813 19.2207 33.8713 19.7549 33.9233C24.319 34.3684 43.5165 34.3684 48.081 33.9233C48.615 33.8713 48.9493 33.813 49.0356 33.7489C50.2714 32.8296 51.2102 31.4622 51.8988 30.0184C52.3383 29.0965 52.6765 28.1437 52.9219 27.2553C53.5113 25.1219 53.7108 22.8753 53.5849 20.6335Z" fill="#C6CAD6"/>
<path d="M46.4921 29.0705C46.117 29.2914 39.9476 29.3991 33.9177 29.3938C27.8879 29.3991 21.7183 29.2914 21.3434 29.0705C20.6947 28.6882 19.8346 26.8269 19.3418 24.4041C19.3984 25.5477 19.6 26.6859 19.9355 27.7579C20.3249 29.0014 20.7599 29.6923 22.0657 29.7992C23.6372 29.9278 45.51 30.651 47.0938 29.8952C48.5057 29.2214 49.1513 23.8936 49.0635 21.625C49.0411 21.0496 48.9767 20.4762 48.872 19.915C49.0437 24.2468 47.508 28.4718 46.4921 29.0705Z" fill="#A1A8C3"/>
<path d="M48.8723 19.915C48.8313 18.8754 48.6908 17.83 48.4222 16.8267C48.0176 15.3164 47.3217 13.9019 46.2269 12.7503C45.8913 12.3972 39.8349 12.2701 33.918 12.3002C28.001 12.2701 21.9447 12.3972 21.609 12.7503C20.3109 14.1159 19.5724 15.8505 19.2175 17.6772C18.7748 19.9555 18.9295 22.3763 19.342 24.4041C19.8349 26.8269 20.6949 28.6882 21.3436 29.0705C21.7185 29.2914 27.8881 29.3991 33.9179 29.3938C39.9478 29.3991 46.1172 29.2914 46.4923 29.0705C47.5083 28.4718 49.0439 24.2468 48.8723 19.915Z" fill="#311C11"/>
<path d="M21.3446 19.5216C21.1535 20.4792 20.9979 21.4956 21.3331 22.413C21.8709 23.8845 23.4838 24.0083 24.8359 23.9524C24.8889 23.9502 24.9423 23.9472 24.9953 23.945C24.7798 23.5323 24.6674 23.057 24.6391 22.6028C24.5691 21.4827 24.6914 17.1597 25.2568 16.5465C26.0815 15.6523 27.8602 15.6428 28.6934 16.5465C29.2588 17.16 29.3811 21.4827 29.3111 22.6028C29.2883 22.9681 29.2109 23.3466 29.0697 23.6956C31.1251 23.5294 33.1837 23.2977 35.2136 22.9743C36.3189 22.7982 37.4192 22.5918 38.5138 22.3586C38.4713 20.9599 38.6119 17.1216 39.1421 16.5465C39.9669 15.6523 41.7454 15.6428 42.5787 16.5465C42.9828 16.9849 43.1604 19.3174 43.2036 21.0219C43.73 20.7663 44.2294 20.4436 44.6977 20.0114C45.6573 19.1254 46.4499 17.6861 45.818 16.3903C45.4599 15.6552 44.769 15.1234 44.0177 14.7976C43.2665 14.4719 42.4502 14.33 41.642 14.198C36.2987 13.3253 30.7987 12.7672 25.4947 13.8534C24.8341 13.9886 24.1029 14.1376 23.5118 14.4774C22.9909 14.7769 22.7273 15.342 22.4647 15.8755C21.9007 17.0217 21.5934 18.2752 21.3446 19.5216Z" fill="#3D2618"/>
<path d="M28.6937 16.5463C27.8605 15.6426 26.0818 15.6521 25.2571 16.5463C24.6917 17.1595 24.5694 21.4825 24.6394 22.6026C24.6677 23.0567 24.7801 23.5321 24.9956 23.9448C25.1668 24.2728 25.4031 24.5615 25.715 24.7682C26.3918 25.2167 27.5372 25.2312 28.2357 24.7682C28.6245 24.5104 28.8958 24.1255 29.0699 23.6954C29.2112 23.3464 29.2885 22.9678 29.3114 22.6026C29.3814 21.4825 29.2591 17.1597 28.6937 16.5463Z" fill="#BBA783"/>
<path d="M39.1423 16.5463C38.612 17.1214 38.4715 20.9597 38.5139 22.3584C38.5167 22.451 38.5204 22.5331 38.5248 22.6026C38.5756 23.4178 38.896 24.3014 39.6003 24.7681C40.2769 25.2167 41.4223 25.2311 42.1209 24.7681C42.8253 24.3014 43.1457 23.4178 43.1966 22.6026C43.2165 22.2831 43.2209 21.7022 43.2038 21.0217C43.1606 19.3171 42.983 16.9847 42.5789 16.5463C41.7456 15.6426 39.967 15.6521 39.1423 16.5463Z" fill="#BBA783"/>
<path d="M32.5518 56.6138C30.2731 56.1317 28.1371 55.0024 26.4541 53.3965C26.9998 54.2974 27.7456 55.0862 28.619 55.6722C30.1668 56.7113 32.0425 57.1615 33.9178 57.137C34.8839 57.1496 35.8497 57.0362 36.7708 56.7814C35.3683 56.9605 33.9356 56.9068 32.5518 56.6138Z" fill="#3D2618"/>
<g clip-path="url(#clip0_1499_67136)">
<path d="M57.9999 25.2421L56.1683 32.9975C56.034 33.5662 56.3894 34.1414 56.9582 34.2757L68.3328 36.9621C68.9015 37.0964 69.4767 36.741 69.611 36.1722L71.4426 28.4168C71.5769 27.8481 71.2215 27.2729 70.6528 27.1386L59.2782 24.4522C58.7095 24.3179 58.1342 24.6733 57.9999 25.2421Z" stroke="#311C11" stroke-miterlimit="10" stroke-linecap="round" stroke-linejoin="round"/>
<path d="M58.2939 37.8662L65.5323 39.5757" stroke="#311C11" stroke-miterlimit="10" stroke-linecap="round" stroke-linejoin="round"/>
<path d="M61.0947 35.252C60.8383 36.3378 60.1711 37.5449 59.4314 38.1344" stroke="#311C11" stroke-miterlimit="10" stroke-linecap="round" stroke-linejoin="round"/>
<path d="M64.3948 39.3073C63.997 38.4491 63.9404 37.0711 64.1968 35.9854" stroke="#311C11" stroke-miterlimit="10" stroke-linecap="round" stroke-linejoin="round"/>
<path d="M61.6477 28.2873C60.5102 28.0186 59.3598 28.7295 59.0912 29.8669C58.8225 31.0044 59.5334 32.1548 60.6708 32.4235C61.8083 32.6921 62.9587 31.9812 63.2274 30.8438" stroke="#311C11" stroke-miterlimit="10" stroke-linecap="round" stroke-linejoin="round"/>
<path d="M62.2871 27.8916L61.7987 29.9597L63.8668 30.4481C64.1354 29.3107 63.4246 28.1602 62.2871 27.8916Z" stroke="#311C11" stroke-miterlimit="10" stroke-linecap="round" stroke-linejoin="round"/>
<path d="M66.0571 30.4199L68.6423 31.0305" stroke="#311C11" stroke-miterlimit="10" stroke-linecap="round" stroke-linejoin="round"/>
<path d="M67.2417 32.3369L68.2758 32.5811" stroke="#311C11" stroke-miterlimit="10" stroke-linecap="round" stroke-linejoin="round"/>
</g>
<defs>
<clipPath id="clip0_1499_67136">
<rect width="17" height="17" fill="white" transform="translate(57.1816 21.7734) rotate(13.2881)"/>
</clipPath>
</defs>
</svg>
