<svg width="73" height="78" viewBox="0 0 73 78" fill="none" xmlns="http://www.w3.org/2000/svg">
<g opacity="0.5">
<path d="M49.128 4.13053C47.5159 4.13053 46.0296 4.66803 44.837 5.57281C43.8293 2.87269 41.2279 0.949219 38.1763 0.949219C35.1241 0.949219 32.522 2.87332 31.5151 5.57471C30.3221 4.66897 28.8352 4.13085 27.2217 4.13085C23.296 4.13085 20.1138 7.31311 20.1138 11.2388C20.1138 15.1642 23.296 18.3468 27.2217 18.3468C30.274 18.3468 32.876 16.4227 33.883 13.7213C35.076 14.627 36.5629 15.1651 38.1763 15.1651C39.7885 15.1651 41.2747 14.6277 42.4674 13.7229C43.475 16.423 46.0764 18.3465 49.128 18.3465C53.0538 18.3465 56.236 15.1642 56.236 11.2385C56.2357 7.31279 53.0534 4.13053 49.128 4.13053Z" fill="#1A3C55"/>
<path d="M51.0848 13.2145C49.5132 12.024 46.4321 11.3733 43.5738 11.0322C43.1562 10.9826 42.8601 10.5998 42.9199 10.1834C43.0268 9.4381 43.2581 8.43809 43.7605 7.61555C43.509 7.78291 43.2372 8.0496 42.9772 8.39285C41.8905 9.82785 40.2293 10.7086 38.4292 10.6921C38.3403 10.6912 38.2555 10.6909 38.1752 10.6909C38.0957 10.6909 38.0116 10.6912 37.9236 10.6921C36.1239 10.7083 34.463 9.82817 33.3766 8.39316C33.1166 8.0496 32.8442 7.78259 32.593 7.61523C33.0941 8.43619 33.3257 9.4343 33.4329 10.1793C33.4927 10.596 33.1963 10.9791 32.7781 11.0284C29.897 11.3685 26.7944 12.0196 25.2655 13.2142C22.8713 15.0845 24.7609 18.1763 27.2225 18.1763H49.1288C51.5894 18.1766 53.5066 15.0487 51.0848 13.2145Z" fill="#1A3C55"/>
<path d="M49.128 33.4952H27.2217V14.1068C27.2217 13.5383 27.5532 13.0207 28.0736 12.7923C29.4096 12.2061 32.4191 11.2459 37.8134 11.2383C43.6142 11.2301 46.8363 12.2111 48.2488 12.8015C48.7835 13.0248 49.128 13.5484 49.128 14.128V33.4952Z" fill="#1A3C55"/>
<path d="M49.459 25.0479H26.8931V33.4946H49.459V25.0479Z" fill="#1A3C55"/>
<path d="M49.128 23.5498V25.0484H40.8419C39.7767 25.0484 38.8697 25.8513 38.7036 26.9418L38.175 30.4094L37.6464 26.9418C37.48 25.8513 36.5733 25.0484 35.5081 25.0484H27.2217V23.5498H49.128Z" fill="#1A3C55"/>
</g>
<path d="M48.8116 3.18131C47.1995 3.18131 45.7132 3.71881 44.5205 4.6236C43.5129 1.92347 40.9115 0 37.8599 0C34.8077 0 32.2056 1.9241 31.1986 4.62549C30.0057 3.71976 28.5188 3.18163 26.9053 3.18163C22.9796 3.18163 19.7974 6.36389 19.7974 10.2896C19.7974 14.215 22.9796 17.3976 26.9053 17.3976C29.9576 17.3976 32.5596 15.4735 33.5666 12.7721C34.7596 13.6778 36.2465 14.2159 37.8599 14.2159C39.4721 14.2159 40.9583 13.6784 42.151 12.7737C43.1586 15.4738 45.76 17.3972 48.8116 17.3972C52.737 17.3972 55.9193 14.215 55.9193 10.2893C55.9193 6.36357 52.737 3.18131 48.8116 3.18131Z" fill="#311C11"/>
<path d="M50.7684 12.2649C49.1968 11.0745 46.1157 10.4237 43.2574 10.0827C42.8398 10.033 42.5437 9.65023 42.6035 9.2339C42.7104 8.48856 42.9417 7.48855 43.4441 6.66602C43.1926 6.83337 42.9208 7.10006 42.6608 7.44363C41.5741 8.87863 39.9129 9.75938 38.1128 9.74293C38.0239 9.74198 37.9391 9.74166 37.8587 9.74166C37.7793 9.74166 37.6952 9.74198 37.6072 9.74293C35.8075 9.75906 34.1466 8.87895 33.0602 7.44394C32.8002 7.10038 32.5278 6.83337 32.2766 6.66602C32.7777 7.48697 33.0093 8.48508 33.1165 9.23011C33.1763 9.64676 32.8799 10.0299 32.4617 10.0792C29.5806 10.4193 26.478 11.0704 24.9491 12.2649C22.5549 14.1353 24.4445 17.227 26.9061 17.227H48.8124C51.273 17.227 53.1902 14.0992 50.7684 12.2649Z" fill="#3D2618"/>
<path d="M48.8116 32.546H26.9053V13.1575C26.9053 12.589 27.2368 12.0715 27.7572 11.8431C29.0932 11.2569 32.1027 10.2967 37.497 10.2891C43.2978 10.2809 46.5199 11.2619 47.9324 11.8522C48.4671 12.0756 48.8116 12.5992 48.8116 13.1787V32.546Z" fill="#311C11"/>
<path d="M49.1426 24.0996H26.5767V32.5464H49.1426V24.0996Z" fill="#311C11"/>
<path d="M48.8116 22.6006V24.0992H40.5255C39.4603 24.0992 38.5533 24.9021 38.3872 25.9926L37.8586 29.4602L37.33 25.9926C37.1635 24.9021 36.2569 24.0992 35.1917 24.0992H26.9053V22.6006H48.8116Z" fill="#3D2618"/>
<path d="M54.8112 65.9805C54.7892 66.0984 54.7809 66.2199 54.783 66.3394C54.7876 66.6184 54.8386 66.8952 54.8459 67.1741C54.8621 67.7933 54.4799 68.2651 54.665 68.9079C54.7496 69.2017 55.0669 69.7548 55.4212 69.7469C55.774 69.739 55.9915 69.357 56.0931 69.0733C56.2474 68.6428 56.3951 68.2494 56.6136 67.8426C56.7191 67.6461 56.8219 67.444 56.9053 67.2363C56.1418 66.8984 55.4598 66.4987 54.9735 66.1201C54.9159 66.0752 54.8621 66.0285 54.8112 65.9805Z" fill="#311C11"/>
<path d="M62.6938 66.749C62.7796 66.8407 62.863 66.9347 62.9504 67.0248C63.1996 67.2816 63.5197 67.5524 63.8703 67.4807C64.1608 67.4213 64.3592 67.1279 64.3907 66.8339C64.4221 66.5396 64.3193 66.2476 64.1922 65.9801C63.8835 65.3297 63.427 64.7642 62.9227 64.2549C62.9371 64.397 62.9512 64.5396 62.9617 64.6826C63.0123 65.3679 62.9603 66.1309 62.6938 66.749Z" fill="#311C11"/>
<path d="M63.0655 68.7157C62.9655 68.1517 62.7604 67.6149 62.5035 67.1045C62.3359 67.3614 62.1175 67.5778 61.8333 67.728C61.5548 67.8751 61.2402 67.968 60.9023 68.0174C61.1155 68.485 61.3436 68.9459 61.5916 69.3963C61.7637 69.7096 62.0009 70.0551 62.3581 70.0783C62.6541 70.0974 62.923 69.8667 63.0312 69.5914C63.1394 69.3158 63.1174 69.0072 63.0655 68.7157Z" fill="#311C11"/>
<path d="M58.7026 67.8535C58.7125 67.9 58.7225 67.9462 58.733 67.9923C58.8579 68.5503 59.0063 69.1031 59.1777 69.6489C59.2847 69.9898 59.4488 70.3751 59.7946 70.4682C60.0807 70.5452 60.3903 70.372 60.5506 70.1231C60.711 69.8744 60.7506 69.5674 60.7574 69.2715C60.767 68.8594 60.7195 68.4506 60.6365 68.0482C60.0338 68.0947 59.3691 68.0146 58.7026 67.8535Z" fill="#311C11"/>
<path d="M53.8256 51.1963C53.9101 51.8739 53.8918 52.5644 53.7655 53.2355C53.6442 53.8807 53.4903 54.5319 53.5106 55.1927C53.546 56.3514 54.1892 57.6375 54.659 58.6812C54.7828 58.9561 54.9123 59.2308 55.0482 59.5041C56.0379 61.4934 57.366 63.4005 59.2381 64.6243C59.7101 64.9319 60.2328 65.2 60.7958 65.2269C61.3907 65.2554 61.9725 65.0078 62.4502 64.6528C62.5684 64.5649 62.7308 64.3788 62.9146 64.17C62.3142 58.5674 58.6941 53.5161 54.2328 50.2C54.1154 50.1126 53.9822 50.0152 53.8392 49.917C53.927 50.3239 53.9046 50.7659 53.8256 51.1963Z" fill="#EBF2E5"/>
<path d="M62.5037 67.1042C62.5766 66.9929 62.6397 66.874 62.6938 66.7486C62.9603 66.1304 63.0122 65.3674 62.9616 64.6821C62.9511 64.5391 62.937 64.3966 62.9226 64.2544C62.9198 64.2261 62.9178 64.198 62.9147 64.17C62.7309 64.3787 62.5684 64.5648 62.4503 64.6527C61.9725 65.0078 61.3908 65.2554 60.7959 65.2269C60.2329 65.1999 59.7101 64.9319 59.2382 64.6242C57.3661 63.4004 56.038 61.4934 55.0483 59.504C54.9124 59.2307 54.7829 58.956 54.6591 58.6811C54.1893 57.6375 53.546 56.3513 53.5107 55.1926C53.4904 54.5318 53.6443 53.8807 53.7656 53.2355C53.8919 52.5643 53.9102 51.8739 53.8257 51.1963C53.8224 51.2145 53.8194 51.2329 53.8157 51.2511C53.78 51.4344 53.7345 51.6155 53.6827 51.7903C53.6587 51.8717 53.6324 51.9524 53.6063 52.0333C53.6217 52.1543 53.6243 52.2767 53.6132 52.395C53.5664 52.8996 53.3363 53.3655 53.1661 53.8428C52.8825 54.638 52.7986 55.4465 52.8256 56.2579C52.8633 57.385 53.1149 58.5179 53.3421 59.628C54.01 62.8892 55.8231 65.9472 58.5996 67.827C58.6339 67.8357 58.6683 67.8445 58.7026 67.8527C59.369 68.0138 60.0337 68.0939 60.6365 68.0474C60.7268 68.0404 60.8152 68.0298 60.9026 68.0171C61.2404 67.9677 61.555 67.8748 61.8335 67.7277C62.1177 67.5775 62.336 67.3611 62.5037 67.1042Z" fill="#C6CAD6"/>
<path d="M53.3422 59.6289C53.115 58.5189 52.8634 57.3859 52.8257 56.2588C52.7987 55.4474 52.8826 54.639 53.1662 53.8437C53.3364 53.3664 53.5665 52.9005 53.6133 52.3959C53.6244 52.2776 53.6218 52.1552 53.6064 52.0342C53.1456 53.4524 52.3613 54.7647 51.3309 55.844C51.2218 56.3418 51.0975 56.8367 50.9609 57.3289C51.4864 58.2237 51.9675 59.1442 52.402 60.0861C52.4171 60.1192 52.4324 60.1522 52.4476 60.1853C52.9316 61.2445 53.3567 62.3305 53.7199 63.4365C54.0223 64.3568 54.1024 65.3121 54.8112 65.9807C54.8622 66.0287 54.9159 66.0754 54.9735 66.1203C55.4598 66.4989 56.1418 66.8986 56.9054 67.2365C57.4427 67.4744 58.0205 67.6807 58.5996 67.828C55.8232 65.9481 54.0101 62.8902 53.3422 59.6289Z" fill="#A1A8C3"/>
<path d="M51.9211 48.4526C52.1988 49.155 52.3589 49.9036 52.3929 50.658C52.4002 50.8221 52.4036 50.9941 52.4841 51.1377C52.5502 51.2559 52.6864 51.3221 52.8478 51.354C53.1412 51.4118 53.5185 51.3565 53.7136 51.2948C53.7479 51.2839 53.7817 51.2686 53.8156 51.2515C53.8193 51.2333 53.8223 51.2149 53.8256 51.1967C53.9046 50.7662 53.927 50.3243 53.8392 49.9173C53.7789 49.6386 53.6678 49.3758 53.4879 49.1451C53.1205 48.6746 52.5145 48.4371 51.9131 48.4445C51.9136 48.4516 51.9141 48.4587 51.9143 48.4656C51.9167 48.4614 51.9189 48.457 51.9211 48.4526Z" fill="#3D2618"/>
<path d="M52.8478 51.3545C52.6863 51.3226 52.5501 51.2564 52.484 51.1382C52.4035 50.9946 52.4001 50.8226 52.3928 50.6585C52.3588 49.9041 52.1987 49.1555 51.921 48.4531C51.9189 48.4575 51.9166 48.4618 51.9142 48.4661C51.9256 48.6587 51.9366 48.8512 51.9437 49.044C51.9718 49.8054 51.9667 50.5677 51.9298 51.3289C51.8988 51.9666 51.8475 52.6032 51.7714 53.2376C51.6668 54.1114 51.5191 54.9815 51.3306 55.844C52.361 54.7646 53.1453 53.4524 53.6061 52.0341C53.6322 51.9532 53.6585 51.8726 53.6825 51.7912C53.7343 51.6164 53.7798 51.4353 53.8155 51.252C53.7816 51.2691 53.7478 51.2844 53.7135 51.2953C53.5185 51.3569 53.1411 51.4123 52.8478 51.3545Z" fill="#311C11"/>
<path d="M20.5982 66.1201C20.1119 66.4987 19.4299 66.8984 18.6665 67.2363C18.7498 67.444 18.8527 67.6461 18.9581 67.8426C19.1766 68.2494 19.3243 68.6428 19.4786 69.0733C19.5802 69.357 19.7977 69.739 20.1506 69.7469C20.505 69.7548 20.8223 69.2017 20.9068 68.9079C21.0917 68.2651 20.7097 67.7933 20.7259 67.1741C20.7333 66.8952 20.7841 66.6184 20.7888 66.3394C20.7908 66.2199 20.7825 66.0984 20.7605 65.9805C20.7096 66.0286 20.6559 66.0753 20.5982 66.1201Z" fill="#311C11"/>
<path d="M12.6099 64.6826C12.6205 64.5396 12.6346 64.397 12.6491 64.2549C12.1447 64.7642 11.6882 65.3297 11.3794 65.9801C11.2524 66.2476 11.1495 66.5396 11.181 66.8339C11.2124 67.1279 11.4109 67.4213 11.7013 67.4807C12.0522 67.5524 12.3722 67.2816 12.6213 67.0248C12.7087 66.9348 12.792 66.8407 12.8778 66.749C12.6113 66.1309 12.5595 65.3679 12.6099 64.6826Z" fill="#311C11"/>
<path d="M13.0678 67.1045C12.8112 67.6149 12.606 68.1517 12.5058 68.7157C12.454 69.0072 12.432 69.3158 12.5402 69.5914C12.6482 69.8667 12.9173 70.0975 13.2132 70.0783C13.5704 70.0551 13.8075 69.7097 13.9799 69.3964C14.2277 68.946 14.456 68.485 14.6692 68.0174C14.3312 67.968 14.0165 67.8751 13.7381 67.728C13.4538 67.5778 13.2355 67.3614 13.0678 67.1045Z" fill="#311C11"/>
<path d="M14.935 68.0482C14.8521 68.4506 14.8047 68.8594 14.8142 69.2715C14.8211 69.5674 14.8605 69.8744 15.021 70.1231C15.1814 70.372 15.4908 70.5452 15.777 70.4682C16.1227 70.3751 16.2868 69.9898 16.3938 69.6489C16.5652 69.1032 16.7136 68.5503 16.8388 67.9923C16.8491 67.9462 16.859 67.9 16.869 67.8535C16.2026 68.0146 15.5379 68.0947 14.935 68.0482Z" fill="#311C11"/>
<path d="M13.2163 64.6569C13.694 65.0121 14.2758 65.2597 14.8707 65.2312C15.4337 65.2042 15.9566 64.9362 16.4284 64.6284C18.3004 63.4046 19.6285 61.4978 20.6183 59.5085C20.7543 59.2352 20.8838 58.9604 21.0075 58.6856C21.4774 57.6419 22.1204 56.3557 22.1559 55.1969C22.1762 54.5361 22.0223 53.885 21.9009 53.2399C21.7933 52.6678 21.7657 52.082 21.8114 51.5018C21.6834 50.9788 21.624 50.4211 21.7325 49.917C21.5894 50.0152 21.4563 50.1127 21.3389 50.2C16.9017 53.4981 13.2972 58.5127 12.6675 64.079C12.886 64.3251 13.0806 64.556 13.2163 64.6569Z" fill="#EBF2E5"/>
<path d="M22.3245 59.6326C22.5518 58.5223 22.8035 57.3896 22.8411 56.2623C22.868 55.451 22.7842 54.6425 22.5006 53.8473C22.3302 53.37 22.1002 52.9038 22.0533 52.3994C22.0494 52.357 22.0472 52.3142 22.0465 52.2712C21.9903 52.1122 21.937 51.9522 21.8889 51.7905C21.8636 51.705 21.8403 51.6176 21.8183 51.5295C21.816 51.5204 21.8137 51.5113 21.8114 51.502C21.7657 52.0821 21.7933 52.668 21.9009 53.2401C22.0223 53.8851 22.1762 54.5363 22.1559 55.1971C22.1204 56.3559 21.4773 57.642 21.0075 58.6857C20.8838 58.9606 20.7542 59.2353 20.6183 59.5086C19.6285 61.498 18.3004 63.4048 16.4284 64.6286C15.9566 64.9363 15.4337 65.2044 14.8707 65.2313C14.2758 65.2598 13.6939 65.0123 13.2163 64.6571C13.0805 64.5562 12.886 64.3252 12.6674 64.0792C12.6607 64.1376 12.6551 64.1961 12.6492 64.2546C12.6347 64.3968 12.6206 64.5393 12.61 64.6823C12.5596 65.3677 12.6114 66.1307 12.8778 66.7488C12.9319 66.8742 12.9952 66.9931 13.0679 67.1044C13.2357 67.3613 13.4539 67.5778 13.7383 67.7279C14.0166 67.8751 14.3314 67.968 14.6694 68.0173C14.7565 68.0301 14.8449 68.0406 14.9352 68.0477C15.5381 68.0941 16.2028 68.0141 16.8693 67.853C16.9584 67.8313 17.0474 67.8082 17.1363 67.7839C19.8736 65.9003 21.6623 62.8664 22.3245 59.6326Z" fill="#C6CAD6"/>
<path d="M22.0464 52.2715C22.0471 52.3144 22.0493 52.3573 22.0532 52.3997C22.1001 52.9041 22.3301 53.3702 22.5004 53.8475C22.784 54.6428 22.8679 55.4513 22.8409 56.2625C22.8034 57.3899 22.5517 58.5226 22.3244 59.6329C21.6622 62.8667 19.8734 65.9006 17.1362 67.7842C17.6601 67.6409 18.1798 67.4513 18.6664 67.2361C19.4298 66.8981 20.1118 66.4985 20.5981 66.1199C20.6558 66.075 20.7095 66.0283 20.7604 65.9803C21.4694 65.3117 21.5496 64.3564 21.8517 63.4361C22.2148 62.3301 22.6402 61.2441 23.1242 60.1849C23.1392 60.1518 23.1546 60.1188 23.1697 60.0857C23.577 59.2026 24.0276 58.3396 24.515 57.4979C24.3409 56.8854 24.1902 56.2678 24.0592 55.6465C23.1744 54.6681 22.4856 53.5141 22.0464 52.2715Z" fill="#A1A8C3"/>
<path d="M21.8112 51.5022C21.8135 51.5115 21.8158 51.5206 21.8182 51.5297C21.8795 51.5539 21.9473 51.5647 22.0133 51.5612C22.2129 51.5502 22.4918 51.4453 22.6969 51.2967C22.794 51.2263 22.8745 51.146 22.9222 51.0615C22.9897 50.9416 23.0056 50.8008 23.0241 50.6648C23.105 50.069 23.2627 49.4841 23.4896 48.9271C23.4961 48.767 23.5074 48.6073 23.5171 48.4473C22.9636 48.476 22.4221 48.7116 22.0836 49.1452C21.9036 49.376 21.7925 49.6385 21.7323 49.9174C21.6238 50.4215 21.6832 50.9793 21.8112 51.5022Z" fill="#3D2618"/>
<path d="M23.4842 49.1438C23.4865 49.0716 23.4867 48.999 23.4898 48.9268C23.2629 49.4838 23.1051 50.0687 23.0243 50.6644C23.0058 50.8005 22.9899 50.9412 22.9224 51.0611C22.8746 51.1457 22.7942 51.226 22.697 51.2963C22.4919 51.4449 22.2131 51.5499 22.0135 51.5608C21.9474 51.5643 21.8796 51.5535 21.8184 51.5294C21.8404 51.6174 21.8637 51.7049 21.889 51.7904C21.937 51.9521 21.9904 52.1121 22.0465 52.2711C22.4858 53.5137 23.1746 54.6678 24.0593 55.646C23.9615 55.183 23.8757 54.7182 23.802 54.2515C23.7486 53.9139 23.6996 53.5757 23.659 53.2368C23.4963 51.8784 23.4388 50.5097 23.4842 49.1438Z" fill="#311C11"/>
<path d="M30.041 67.0172C30.1078 67.1439 30.1769 67.2693 30.2513 67.392C31.9343 68.9979 34.0704 70.1272 36.349 70.6094C37.7329 70.9023 39.1655 70.9561 40.568 70.7769C41.4358 70.5373 42.2635 70.1719 43.0143 69.6677C44.0066 69.002 44.8343 68.0735 45.3907 67.0166C41.9513 68.2959 33.482 68.296 30.041 67.0172Z" fill="#311C11"/>
<path d="M51.944 49.0439C50.1533 49.8482 48.2647 50.4521 46.3355 50.8673C45.0927 51.1348 43.8322 51.326 42.5642 51.4444C39.5926 51.7214 36.5546 51.5717 33.593 51.2294C30.078 50.8229 26.7144 50.3398 23.4842 49.1445C23.4389 50.5105 23.4964 51.8791 23.659 53.2375C23.6996 53.5765 23.7486 53.9147 23.802 54.2522C25.1933 55.3436 26.6174 56.3937 28.1662 57.2431C32.2059 59.4586 37.7506 60.4793 42.2969 59.3097C42.3542 59.2949 42.4114 59.2799 42.4684 59.2644C44.5759 58.6933 46.8663 56.5079 48.4452 55.0761C49.7103 53.9286 50.8763 52.6725 51.9301 51.3289C51.967 50.5677 51.9721 49.8054 51.944 49.0439Z" fill="#EBF2E5"/>
<path d="M34.8692 65.8358C32.3046 65.5776 29.7703 64.9962 27.3545 64.0986C27.7763 64.811 28.2293 65.508 28.7168 66.1851C28.9474 66.5054 29.4107 66.7824 30.0413 67.0169C33.4822 68.2956 41.9516 68.2955 45.391 67.0162C46.0209 66.7819 46.4836 66.5052 46.7141 66.1851C47.1638 65.5606 47.5827 64.9183 47.9765 64.2637C47.5928 64.399 47.2072 64.5293 46.8181 64.6489C42.9657 65.8327 38.8797 66.2397 34.8692 65.8358Z" fill="#C6CAD6"/>
<path d="M51.7714 53.2368C51.8475 52.6024 51.8988 51.9658 51.9298 51.3281C50.8761 52.6718 49.7101 53.9278 48.445 55.0753C46.8661 56.5072 44.5757 58.6925 42.4682 59.2636C42.4112 59.2791 42.3539 59.2942 42.2967 59.309C37.7504 60.4785 32.2057 59.4578 28.166 57.2424C26.6171 56.3929 25.1931 55.3428 23.8018 54.2515C23.8754 54.7182 23.9613 55.1831 24.0591 55.6461C24.1902 56.2674 24.3409 56.885 24.515 57.4975C25.1461 59.7184 26.058 61.8728 27.2356 63.8993C28.0606 64.2114 28.8993 64.488 29.7495 64.7253C33.5958 65.7988 37.6475 66.1036 41.6113 65.6133C43.8184 65.3404 45.9991 64.8249 48.0926 64.0711C49.3495 61.9435 50.3104 59.6718 50.9606 57.3281C51.0972 56.8359 51.2215 56.341 51.3306 55.8432C51.5192 54.9807 51.6669 54.1106 51.7714 53.2368Z" fill="#C6CAD6"/>
<path d="M41.6114 65.6134C37.6477 66.1037 33.596 65.7989 29.7497 64.7254C28.8995 64.4881 28.0608 64.2115 27.2358 63.8994C27.2746 63.966 27.315 64.0321 27.3544 64.0985C29.7702 64.9961 32.3045 65.5775 34.8691 65.8356C38.8796 66.2395 42.9656 65.8325 46.8179 64.6488C47.2071 64.5292 47.5927 64.3989 47.9764 64.2635C48.0151 64.1994 48.0548 64.1357 48.0928 64.0712C45.9993 64.825 43.8186 65.3405 41.6114 65.6134Z" fill="#3D2618"/>
<path d="M23.4839 49.1445C26.7141 50.3398 30.0777 50.823 33.5927 51.2295C36.5543 51.5718 39.5923 51.7215 42.5639 51.4444C43.8319 51.326 45.0924 51.1348 46.3352 50.8674C48.2643 50.4522 50.153 49.8482 51.9437 49.044C51.9366 48.8512 51.9256 48.6587 51.9142 48.4661C51.9139 48.4592 51.9135 48.4521 51.913 48.445C51.9025 48.2696 51.892 48.0942 51.8782 47.9189C47.3137 48.364 28.1163 48.364 23.5521 47.9189C23.538 48.0951 23.5274 48.2713 23.517 48.4477C23.5074 48.6077 23.4961 48.7674 23.4895 48.9275C23.4864 48.9998 23.4862 49.0724 23.4839 49.1445Z" fill="#A1A8C3"/>
<path d="M17.4938 34.0703C17.6516 33.383 17.8954 32.2141 17.9431 32.0491C18.1791 31.2316 18.4603 30.4261 18.7895 29.6413C18.847 29.5043 18.9191 29.3096 19.0071 29.1018C19.3042 28.0807 19.6617 27.0824 20.0751 26.1203C20.1215 26.0127 20.1683 25.9052 20.2156 25.7979C19.4435 25.9651 18.7847 26.1737 18.5193 26.3951C18.1039 26.7417 17.8289 27.1967 17.5798 27.6507C16.5158 29.5911 15.9355 31.6056 15.7798 33.6329C16.1504 33.8918 16.5375 34.1274 16.9414 34.3311C17.166 34.4443 17.4376 34.315 17.4938 34.0703Z" fill="#3D2618"/>
<path d="M57.8504 27.6511C57.6015 27.1971 57.3266 26.7421 56.911 26.3955C56.6453 26.1739 55.9857 25.9651 55.2129 25.7979C55.2612 25.9048 55.3087 26.0123 55.3551 26.1206C55.9734 27.559 56.4683 29.0776 56.8187 30.634C56.9694 30.8539 57.1164 31.0103 57.2103 31.2737C57.4411 31.9211 57.635 32.5742 57.8723 33.2167C57.9449 33.4132 58.0215 33.6086 58.1045 33.8026C58.6805 33.5619 59.1657 33.2281 59.5633 32.8054C59.3276 31.0584 58.7696 29.3271 57.8504 27.6511Z" fill="#3D2618"/>
<path d="M59.6957 34.7407C59.6949 34.0946 59.6504 33.4489 59.5636 32.8052C59.166 33.2279 58.6808 33.5617 58.1048 33.8024C58.0218 33.6084 57.9452 33.413 57.8726 33.2165C57.6353 32.574 57.4414 31.9209 57.2107 31.2735C57.1167 31.0101 56.9697 30.8537 56.819 30.6338C57.1146 31.9469 57.3068 33.2869 57.3824 34.6286C57.5084 36.8704 57.3089 39.117 56.7194 41.2505C56.4739 42.1389 56.1358 43.0917 55.6963 44.0136C56.5192 43.784 57.2305 43.5129 57.4962 43.258C57.8867 42.8837 58.1296 42.4107 58.3465 41.9406C59.4422 39.5659 59.859 37.1343 59.6957 34.7407Z" fill="#311C11"/>
<path d="M18.0201 35.3298C18.0738 33.2278 18.42 31.1195 19.007 29.1016C18.9189 29.3093 18.8468 29.504 18.7894 29.641C18.4602 30.4258 18.179 31.2314 17.943 32.0488C17.8954 32.2138 17.6515 33.3827 17.4937 34.07C17.4375 34.3147 17.1659 34.444 16.9413 34.3308C16.5374 34.1271 16.1504 33.8916 15.7797 33.6326C15.7514 34.0016 15.7355 34.3708 15.735 34.7402C15.5714 37.1338 15.9884 39.5654 17.0841 41.9401C17.301 42.4103 17.5439 42.8832 17.9342 43.2575C18.2 43.5124 18.9114 43.7835 19.7344 44.0131C19.2948 43.0912 18.9566 42.1384 18.7112 41.25C18.1833 39.3392 17.9689 37.3375 18.0201 35.3298Z" fill="#311C11"/>
<path d="M56.8187 30.6337C56.4684 29.0773 55.9735 27.5588 55.3552 26.1204C55.3088 26.0121 55.2612 25.9046 55.213 25.7976C54.5762 24.3828 53.7822 23.0814 52.5027 22.1053C50.2401 20.3796 25.4701 20.4359 22.9277 22.1053C21.5816 22.9892 20.8442 24.371 20.2154 25.7979C20.1681 25.9053 20.1213 26.0128 20.075 26.1204C19.6615 27.0825 19.304 28.0808 19.0069 29.1019C18.42 31.1199 18.0738 33.2282 18.02 35.3302C18.4159 35.7881 18.8478 36.2151 19.3092 36.6067C19.9714 37.1687 20.782 38.051 21.6692 37.4396C22.3645 36.9606 22.2277 36.0946 22.2938 35.3544C22.3636 34.5731 22.4425 33.7819 22.6258 33.0176C22.7345 32.5641 22.8646 32.1149 23.0147 31.6727C23.3696 29.846 24.1081 28.1114 25.4062 26.7458C25.7419 26.3927 31.7983 26.2656 37.7152 26.2957C43.6321 26.2656 49.6885 26.3927 50.0241 26.7458C51.1189 27.8974 51.8148 29.3119 52.2194 30.8222C52.3176 31.0197 52.4105 31.2197 52.4959 31.423C52.81 32.1724 53.0089 32.9099 53.1173 33.7111L53.4683 36.3105C53.5287 36.7567 54.0019 37.0241 54.4137 36.8402C55.2347 36.4737 56.0032 36.016 56.6661 35.4078C56.9395 35.1569 57.1755 34.8966 57.3823 34.6285C57.3066 33.2868 57.1144 31.9468 56.8187 30.6337Z" fill="#EBF2E5"/>
<path d="M57.3823 34.6286C57.1755 34.8967 56.9395 35.157 56.6661 35.4078C56.0032 36.016 55.2347 36.4738 54.4137 36.8403C54.0019 37.0241 53.5287 36.7568 53.4683 36.3105L53.1173 33.7112C53.0089 32.91 52.81 32.1725 52.4959 31.4231C52.4105 31.2198 52.3176 31.0198 52.2194 30.8223C52.488 31.8256 52.6285 32.8709 52.6695 33.9106C52.7741 34.4717 52.8386 35.0451 52.8609 35.6205C52.9488 37.8891 52.3032 43.217 50.8913 43.8908C49.3075 44.6465 27.4347 43.9233 25.8632 43.7947C24.5573 43.6878 24.1223 42.9969 23.733 41.7535C23.3975 40.6814 23.1959 39.5433 23.1393 38.3996C22.7268 36.3719 22.572 33.9511 23.0148 31.6727C22.8646 32.1149 22.7346 32.5641 22.6259 33.0177C22.4425 33.782 22.3637 34.5731 22.2939 35.3544C22.2277 36.0947 22.3645 36.9607 21.6693 37.4397C20.7821 38.051 19.9715 37.1687 19.3093 36.6067C18.8478 36.2152 18.4159 35.7882 18.0201 35.3302C17.9689 37.3379 18.1833 39.3396 18.7112 41.2504C18.9566 42.1388 19.2948 43.0916 19.7344 44.0135C20.4227 45.4574 21.3617 46.8247 22.5974 47.744C22.6839 47.8082 23.0181 47.8664 23.5522 47.9184C28.1164 48.3635 47.3138 48.3635 51.8783 47.9184C52.4124 47.8664 52.7467 47.8082 52.833 47.744C54.0687 46.8247 55.0076 45.4574 55.6962 44.0135C56.1356 43.0916 56.4738 42.1388 56.7193 41.2504C57.3087 39.1171 57.5082 36.8704 57.3823 34.6286Z" fill="#C6CAD6"/>
<path d="M50.2894 43.0656C49.9144 43.2865 43.745 43.3942 37.7151 43.3889C31.6852 43.3942 25.5157 43.2865 25.1408 43.0656C24.4921 42.6833 23.632 40.8221 23.1392 38.3992C23.1958 39.5428 23.3974 40.681 23.7329 41.7531C24.1223 42.9965 24.5572 43.6874 25.8631 43.7943C27.4346 43.9229 49.3074 44.6461 50.8912 43.8904C52.3031 43.2165 52.9487 37.8887 52.8608 35.6201C52.8384 35.0447 52.774 34.4713 52.6694 33.9102C52.841 38.2419 51.3054 42.4669 50.2894 43.0656Z" fill="#A1A8C3"/>
<path d="M52.6696 33.9101C52.6287 32.8705 52.4881 31.8251 52.2196 30.8218C51.815 29.3115 51.119 27.897 50.0243 26.7454C49.6887 26.3923 43.6323 26.2652 37.7153 26.2953C31.7984 26.2652 25.7421 26.3923 25.4064 26.7454C24.1083 28.111 23.3698 29.8456 23.0149 31.6723C22.5721 33.9507 22.7269 36.3714 23.1394 38.3992C23.6322 40.8221 24.4923 42.6833 25.141 43.0656C25.5159 43.2865 31.6854 43.3942 37.7153 43.3889C43.7452 43.3942 49.9146 43.2865 50.2896 43.0656C51.3056 42.4669 52.8413 38.2419 52.6696 33.9101Z" fill="#311C11"/>
<path d="M25.142 33.5167C24.9509 34.4743 24.7953 35.4907 25.1304 36.4081C25.6682 37.8796 27.2812 38.0034 28.6333 37.9475C28.6863 37.9453 28.7397 37.9423 28.7927 37.9401C28.5771 37.5275 28.4648 37.0521 28.4365 36.5979C28.3665 35.4779 28.4888 31.1548 29.0542 30.5417C29.8789 29.6474 31.6575 29.638 32.4908 30.5417C33.0562 31.1551 33.1785 35.4779 33.1085 36.5979C33.0856 36.9632 33.0083 37.3417 32.867 37.6907C34.9225 37.5245 36.9811 37.2928 39.0109 36.9694C40.1162 36.7933 41.2165 36.5869 42.3111 36.3537C42.2687 34.955 42.4092 31.1167 42.9395 30.5416C43.7642 29.6474 45.5427 29.6379 46.3761 30.5416C46.7802 30.98 46.9578 33.3125 47.001 35.017C47.5273 34.7614 48.0267 34.4388 48.495 34.0066C49.4547 33.1205 50.2473 31.6812 49.6154 30.3854C49.2572 29.6503 48.5664 29.1185 47.8151 28.7927C47.0639 28.467 46.2476 28.3251 45.4394 28.1931C40.096 27.3204 34.5961 26.7623 29.2921 27.8485C28.6315 27.9837 27.9002 28.1327 27.3092 28.4725C26.7883 28.772 26.5247 29.3371 26.2621 29.8706C25.6981 31.0168 25.3907 32.2703 25.142 33.5167Z" fill="#3D2618"/>
<path d="M32.4911 30.5414C31.6579 29.6377 29.8792 29.6472 29.0545 30.5414C28.4891 31.1546 28.3667 35.4776 28.4368 36.5977C28.4651 37.0518 28.5774 37.5272 28.793 37.9399C28.9641 38.2679 29.2005 38.5566 29.5124 38.7633C30.1891 39.2118 31.3346 39.2263 32.0331 38.7633C32.4219 38.5055 32.6932 38.1206 32.8673 37.6905C33.0085 37.3415 33.0859 36.9629 33.1087 36.5977C33.1788 35.4776 33.0565 31.1548 32.4911 30.5414Z" fill="#BBA783"/>
<path d="M42.9397 30.5414C42.4094 31.1165 42.2688 34.9548 42.3113 36.3535C42.3141 36.4461 42.3177 36.5282 42.3221 36.5977C42.3729 37.413 42.6934 38.2965 43.3976 38.7633C44.0743 39.2118 45.2197 39.2263 45.9182 38.7633C46.6227 38.2965 46.943 37.413 46.994 36.5977C47.0139 36.2782 47.0183 35.6973 47.0011 35.0168C46.9579 33.3123 46.7803 30.9798 46.3763 30.5414C45.5429 29.6377 43.7644 29.6472 42.9397 30.5414Z" fill="#BBA783"/>
<path d="M36.3492 70.609C34.0705 70.1268 31.9345 68.9975 30.2515 67.3916C30.7972 68.2925 31.543 69.0813 32.4164 69.6673C33.9641 70.7064 35.8398 71.1566 37.7151 71.1321C38.6812 71.1447 39.6471 71.0313 40.5682 70.7765C39.1657 70.9557 37.733 70.9019 36.3492 70.609Z" fill="#3D2618"/>
<path d="M33.522 61.7011C33.5245 61.7041 33.5288 61.7053 33.5318 61.7088C34.6569 62.8515 36.1938 63.4951 37.798 63.4951C39.4022 63.4951 40.9392 62.8515 42.0642 61.7088C42.0668 61.7058 42.0702 61.7049 42.0728 61.7024C42.0754 61.6998 42.0749 61.6972 42.0766 61.6946C44.3899 59.3424 44.368 55.5646 42.0277 53.2392C39.6874 50.9138 35.9073 50.9138 33.567 53.2392C31.2267 55.5646 31.2048 59.3424 33.5181 61.6946C33.5198 61.6955 33.5202 61.6986 33.522 61.7011ZM34.5719 61.4955C34.8936 61.3591 35.2489 61.3229 35.5915 61.3915C36.0413 61.4908 36.512 61.4132 36.9059 61.1747C37.455 60.8479 38.1392 60.8479 38.6883 61.1747C39.0823 61.4139 39.5533 61.4917 40.0032 61.3919C40.3458 61.3233 40.7012 61.3595 41.0228 61.496C39.1425 63.0191 36.4522 63.0191 34.572 61.496V61.4955H34.5719ZM37.7974 52.3583C39.8115 52.3552 41.6414 53.5293 42.4773 55.3607C43.3131 57.1921 43.0004 59.3428 41.6777 60.8607C41.1197 60.531 40.4586 60.4216 39.8241 60.5541C39.5885 60.6066 39.3417 60.5667 39.1346 60.4427C38.8604 60.279 38.5578 60.1686 38.2427 60.1172C38.3351 59.2347 38.5629 58.3717 38.9181 57.5584C39.0113 57.5789 39.1064 57.5901 39.2018 57.5919C39.7914 57.5833 40.3284 57.2509 40.5985 56.7271C40.9234 56.1133 40.7901 55.225 40.6217 54.5915C40.5733 54.4029 40.4474 54.2435 40.2751 54.1526C40.1028 54.0617 39.9001 54.0479 39.717 54.1144C39.096 54.3333 38.2881 54.7235 37.962 55.3394C37.6482 55.9212 37.7307 56.6369 38.1686 57.1323C37.9128 57.7135 37.7105 58.3167 37.5643 58.9346C37.3967 58.7012 37.2249 58.4926 37.0804 58.329C37.4492 57.8321 37.4971 57.1668 37.2034 56.6222C36.8781 56.0084 36.0703 55.6182 35.4557 55.4019C35.2727 55.3332 35.0692 55.3453 34.8957 55.4351C34.7221 55.5249 34.5948 55.684 34.5454 55.8731C34.3761 56.51 34.2429 57.3983 34.5673 58.0112C34.837 58.536 35.3742 58.8694 35.9644 58.8781C36.1001 58.8758 36.2347 58.8541 36.3643 58.8139C36.7312 59.2066 37.0377 59.6515 37.2737 60.1343C36.9863 60.1896 36.7107 60.2945 36.4594 60.4445C36.2524 60.5682 36.0058 60.6079 35.7703 60.5554C35.1358 60.4229 34.4746 60.5322 33.9167 60.8621C32.593 59.3441 32.2799 57.1928 33.1159 55.3608C33.9519 53.5288 35.7827 52.3546 37.7974 52.3583ZM39.8361 54.9826C39.9776 55.4188 39.9793 55.8882 39.8408 56.3254C39.7555 56.5588 39.5423 56.7215 39.2944 56.7423C39.0466 56.763 38.8092 56.6381 38.6862 56.4222C38.5631 56.2063 38.5766 55.9385 38.7209 55.736C39.0049 55.3748 39.3949 55.1113 39.8361 54.9826ZM36.4448 57.0196C36.5905 57.222 36.605 57.4905 36.4821 57.7074C36.3591 57.9243 36.1211 58.0499 35.8726 58.029C35.6241 58.0081 35.4104 57.8446 35.3254 57.6103C35.1871 57.1731 35.1889 56.7037 35.3306 56.2675C35.7711 56.3965 36.1605 56.6594 36.4448 57.0196Z" fill="#311C11"/>
<g clip-path="url(#clip0_1499_65659)">
<path d="M62.5572 45.8281L61.1905 44.4681M67.0239 46.4948L65.3839 44.8548M58.3105 50.9615C58.3105 50.9615 64.8905 48.6281 66.7972 46.7215C67.0761 46.4431 67.2973 46.1125 67.4484 45.7486C67.5995 45.3846 67.6774 44.9945 67.6777 44.6005C67.678 44.2065 67.6007 43.8162 67.4502 43.4521C67.2997 43.0879 67.0789 42.757 66.8005 42.4781C66.5221 42.1993 66.1915 41.978 65.8276 41.827C65.4637 41.6759 65.0736 41.598 64.6796 41.5977C64.2855 41.5973 63.8953 41.6747 63.5312 41.8252C63.167 41.9757 62.8361 42.1964 62.5572 42.4748C60.6439 44.3881 58.3105 50.9615 58.3105 50.9615Z" stroke="#311C11" stroke-width="1.33333" stroke-linecap="round" stroke-linejoin="round"/>
<path d="M71.464 42.4945C71.464 42.4945 70.5774 41.1611 69.1307 41.1611C68.0374 41.1611 66.7974 42.4945 66.7974 42.4945C66.7974 42.4945 67.684 43.8278 69.1307 43.8278C70.5774 43.8278 71.464 42.4945 71.464 42.4945Z" stroke="#311C11" stroke-width="1.33333" stroke-linecap="round" stroke-linejoin="round"/>
<path d="M66.7972 37.8281C66.7972 37.8281 65.4639 38.7148 65.4639 40.1615C65.4639 41.6081 66.7972 42.4948 66.7972 42.4948C66.7972 42.4948 68.1305 41.2681 68.1305 40.1615C68.1305 38.7148 66.7972 37.8281 66.7972 37.8281Z" stroke="#311C11" stroke-width="1.33333" stroke-linecap="round" stroke-linejoin="round"/>
</g>
<g clip-path="url(#clip1_1499_65659)">
<path d="M5.86121 47.5648C6.81993 49.3971 7.7674 50.5695 9.63946 51.5906C10.9929 52.2345 12.1982 51.9425 12.9456 50.6042C13.1144 50.3142 13.4357 50.1461 13.7708 50.1724C15.2961 50.3223 16.2229 49.4981 16.4656 48.019C16.6937 45.8983 16.2711 44.4521 15.3127 42.6203C14.4902 41.0485 12.4929 40.0928 11.0434 40.8513C10.295 41.2429 9.83398 42.0055 9.58639 42.6971C9.55785 42.7748 9.50139 42.8392 9.42801 42.8776C9.35463 42.916 9.26958 42.9257 9.18944 42.9048C8.481 42.7142 7.59076 42.6578 6.84234 43.0494C5.39277 43.8078 5.0394 45.9941 5.86121 47.5648Z" stroke="#311C11" stroke-width="1.33333" stroke-linecap="round" stroke-linejoin="round"/>
<path d="M7.8436 47.0399C7.38928 46.1716 7.38857 45.5174 7.80245 44.8042M9.25176 42.5411C8.88088 41.8323 8.52763 39.9103 9.78759 39.2511" stroke="#311C11" stroke-width="1.33333" stroke-linecap="round" stroke-linejoin="round"/>
</g>
<defs>
<clipPath id="clip0_1499_65659">
<rect width="16" height="16" fill="white" transform="translate(56.7974 36.4951)"/>
</clipPath>
<clipPath id="clip1_1499_65659">
<rect width="16" height="16" fill="white" transform="translate(0 42.1152) rotate(-27.6196)"/>
</clipPath>
</defs>
</svg>
