<svg width="68" height="69" viewBox="0 0 68 69" fill="none" xmlns="http://www.w3.org/2000/svg">
<path d="M51.0138 56.4854C50.9918 56.6033 50.9836 56.7248 50.9856 56.8443C50.9902 57.1233 51.0412 57.4001 51.0485 57.679C51.0647 58.2982 50.6826 58.7699 50.8676 59.4128C50.9522 59.7066 51.2695 60.2596 51.6239 60.2518C51.9767 60.2439 52.1941 59.8619 52.2958 59.5782C52.4501 59.1477 52.5977 58.7543 52.8162 58.3475C52.9218 58.151 53.0246 57.9489 53.108 57.7412C52.3444 57.4033 51.6624 57.0036 51.1762 56.625C51.1185 56.5801 51.0648 56.5334 51.0138 56.4854Z" fill="#311C11"/>
<path d="M58.8965 57.2539C58.9822 57.3456 59.0656 57.4396 59.153 57.5297C59.4022 57.7865 59.7223 58.0573 60.0729 57.9856C60.3634 57.9262 60.5618 57.6328 60.5933 57.3387C60.6247 57.0445 60.522 56.7525 60.3948 56.485C60.0862 55.8346 59.6297 55.2691 59.1253 54.7598C59.1398 54.9019 59.1539 55.0445 59.1643 55.1875C59.2149 55.8728 59.163 56.6358 58.8965 57.2539Z" fill="#311C11"/>
<path d="M59.2682 59.2206C59.1681 58.6566 58.963 58.1198 58.7061 57.6094C58.5385 57.8663 58.3202 58.0827 58.0359 58.2329C57.7574 58.38 57.4428 58.4729 57.105 58.5223C57.3181 58.9899 57.5463 59.4508 57.7943 59.9012C57.9664 60.2145 58.2036 60.56 58.5607 60.5832C58.8568 60.6023 59.1257 60.3716 59.2339 60.0962C59.3421 59.8207 59.3201 59.5121 59.2682 59.2206Z" fill="#311C11"/>
<path d="M54.9053 58.3584C54.9151 58.4049 54.9251 58.4511 54.9357 58.4972C55.0605 59.0552 55.209 59.608 55.3804 60.1538C55.4874 60.4947 55.6515 60.88 55.9972 60.9731C56.2834 61.0501 56.5929 60.8769 56.7532 60.628C56.9137 60.3793 56.9532 60.0723 56.96 59.7764C56.9696 59.3643 56.9221 58.9555 56.8392 58.5531C56.2365 58.5996 55.5717 58.5195 54.9053 58.3584Z" fill="#311C11"/>
<path d="M50.0282 41.7012C50.1127 42.3788 50.0945 43.0693 49.9682 43.7404C49.8469 44.3856 49.6929 45.0367 49.7132 45.6976C49.7486 46.8563 50.3918 48.1424 50.8617 49.1861C50.9855 49.4609 51.1149 49.7357 51.2508 50.009C52.2405 51.9983 53.5686 53.9054 55.4408 55.1292C55.9127 55.4368 56.4354 55.7049 56.9984 55.7318C57.5934 55.7603 58.1751 55.5127 58.6528 55.1577C58.771 55.0697 58.9334 54.8837 59.1172 54.6749C58.5168 49.0723 54.8968 44.021 50.4355 40.7049C50.3181 40.6175 50.1848 40.5201 50.0419 40.4219C50.1296 40.8288 50.1072 41.2707 50.0282 41.7012Z" fill="#EBF2E5"/>
<path d="M58.7063 57.6091C58.7793 57.4977 58.8423 57.3789 58.8964 57.2535C59.1629 56.6353 59.2148 55.8723 59.1642 55.187C59.1538 55.044 59.1397 54.9014 59.1252 54.7593C59.1224 54.731 59.1205 54.7029 59.1173 54.6749C58.9335 54.8836 58.7711 55.0697 58.6529 55.1576C58.1751 55.5127 57.5935 55.7602 56.9985 55.7317C56.4355 55.7048 55.9128 55.4367 55.4409 55.1291C53.5687 53.9053 52.2406 51.9982 51.2509 50.0089C51.115 49.7356 50.9855 49.4609 50.8618 49.186C50.3919 48.1423 49.7487 46.8562 49.7133 45.6975C49.693 45.0367 49.8469 44.3855 49.9682 43.7404C50.0946 43.0692 50.1128 42.3787 50.0283 41.7012C50.025 41.7194 50.022 41.7378 50.0183 41.756C49.9826 41.9393 49.9372 42.1204 49.8854 42.2952C49.8613 42.3766 49.835 42.4572 49.8089 42.5381C49.8243 42.6592 49.8269 42.7816 49.8158 42.8998C49.769 43.4045 49.5389 43.8704 49.3687 44.3477C49.0851 45.1429 49.0012 45.9514 49.0282 46.7628C49.0659 47.8899 49.3176 49.0228 49.5448 50.1328C50.2127 53.3941 52.0257 56.4521 54.8022 58.3319C54.8365 58.3406 54.8709 58.3494 54.9052 58.3576C55.5716 58.5187 56.2363 58.5988 56.8391 58.5523C56.9294 58.5453 57.0178 58.5347 57.1052 58.522C57.443 58.4726 57.7577 58.3797 58.0362 58.2325C58.3204 58.0824 58.5387 57.866 58.7063 57.6091Z" fill="#C6CAD6"/>
<path d="M49.5449 50.1338C49.3177 49.0237 49.066 47.8908 49.0283 46.7637C49.0014 45.9523 49.0852 45.1438 49.3688 44.3486C49.539 43.8713 49.7691 43.4054 49.8159 42.9008C49.827 42.7825 49.8244 42.6601 49.809 42.5391C49.3483 43.9573 48.5639 45.2695 47.5335 46.3489C47.4245 46.8467 47.3001 47.3416 47.1636 47.8338C47.689 48.7286 48.1702 49.6491 48.6046 50.591C48.6197 50.6241 48.6351 50.6571 48.6502 50.6902C49.1342 51.7494 49.5593 52.8354 49.9226 53.9414C50.2249 54.8617 50.305 55.8169 51.0139 56.4856C51.0648 56.5336 51.1185 56.5803 51.1762 56.6252C51.6624 57.0037 52.3444 57.4035 53.108 57.7414C53.6453 57.9792 54.2231 58.1856 54.8023 58.3328C52.0258 56.453 50.2128 53.3951 49.5449 50.1338Z" fill="#A1A8C3"/>
<path d="M48.1238 38.9575C48.4014 39.6598 48.5615 40.4085 48.5955 41.1629C48.6028 41.327 48.6063 41.499 48.6867 41.6426C48.7529 41.7608 48.889 41.827 49.0505 41.8589C49.3438 41.9166 49.7212 41.8613 49.9163 41.7997C49.9506 41.7888 49.9844 41.7735 50.0183 41.7564C50.0219 41.7382 50.025 41.7198 50.0282 41.7016C50.1072 41.2711 50.1296 40.8292 50.0418 40.4222C49.9815 40.1435 49.8704 39.8807 49.6905 39.65C49.3231 39.1795 48.7171 38.942 48.1157 38.9494C48.1162 38.9564 48.1167 38.9636 48.1169 38.9705C48.1194 38.9662 48.1216 38.9619 48.1238 38.9575Z" fill="#3D2618"/>
<path d="M49.0504 41.8594C48.8889 41.8275 48.7528 41.7613 48.6867 41.6431C48.6062 41.4995 48.6028 41.3275 48.5955 41.1634C48.5614 40.409 48.4013 39.6604 48.1237 38.958C48.1215 38.9624 48.1193 38.9667 48.1169 38.971C48.1283 39.1636 48.1392 39.3561 48.1464 39.5489C48.1745 40.3103 48.1694 41.0726 48.1324 41.8338C48.1014 42.4715 48.0501 43.108 47.974 43.7424C47.8695 44.6163 47.7218 45.4864 47.5332 46.3488C48.5636 45.2695 49.348 43.9573 49.8087 42.539C49.8348 42.4581 49.8611 42.3775 49.8852 42.2961C49.9369 42.1213 49.9824 41.9402 50.0181 41.7569C49.9842 41.774 49.9504 41.7893 49.9162 41.8002C49.7211 41.8618 49.3437 41.9172 49.0504 41.8594Z" fill="#311C11"/>
<path d="M16.8008 56.625C16.3146 57.0036 15.6326 57.4033 14.8691 57.7412C14.9524 57.9489 15.0554 58.151 15.1608 58.3475C15.3792 58.7543 15.527 59.1477 15.6812 59.5782C15.7829 59.8619 16.0003 60.2439 16.3533 60.2518C16.7076 60.2596 17.0249 59.7066 17.1094 59.4128C17.2943 58.7699 16.9123 58.2982 16.9285 57.679C16.9359 57.4001 16.9867 57.1233 16.9915 56.8443C16.9934 56.7248 16.9851 56.6033 16.9631 56.4854C16.9122 56.5335 16.8586 56.5802 16.8008 56.625Z" fill="#311C11"/>
<path d="M8.81256 55.1875C8.82314 55.0445 8.83724 54.9019 8.85171 54.7598C8.34733 55.2691 7.89084 55.8346 7.58206 56.485C7.45502 56.7525 7.35216 57.0445 7.38366 57.3387C7.41503 57.6328 7.61355 57.9262 7.90398 57.9856C8.25481 58.0573 8.57479 57.7865 8.82389 57.5297C8.91131 57.4397 8.99468 57.3456 9.08039 57.2539C8.8139 56.6358 8.76211 55.8728 8.81256 55.1875Z" fill="#311C11"/>
<path d="M9.27043 57.6094C9.0138 58.1198 8.80859 58.6566 8.70841 59.2206C8.65662 59.5121 8.63462 59.8207 8.7428 60.0963C8.85088 60.3716 9.1199 60.6023 9.4158 60.5832C9.77307 60.56 10.0102 60.2146 10.1825 59.9012C10.4303 59.4508 10.6586 58.9899 10.8718 58.5223C10.5339 58.4729 10.2191 58.38 9.94072 58.2329C9.65639 58.0827 9.43817 57.8663 9.27043 57.6094Z" fill="#311C11"/>
<path d="M11.1377 58.5531C11.0548 58.9555 11.0073 59.3642 11.0168 59.7764C11.0238 60.0723 11.0631 60.3793 11.2236 60.628C11.3841 60.8769 11.6935 61.0501 11.9796 60.9731C12.3254 60.88 12.4895 60.4947 12.5964 60.1538C12.7679 59.6081 12.9163 59.0552 13.0414 58.4972C13.0517 58.4511 13.0617 58.4049 13.0717 58.3584C12.4052 58.5195 11.7405 58.5996 11.1377 58.5531Z" fill="#311C11"/>
<path d="M9.41897 55.1618C9.89662 55.517 10.4784 55.7645 11.0734 55.736C11.6364 55.7091 12.1592 55.441 12.631 55.1333C14.503 53.9095 15.8312 52.0027 16.821 50.0133C16.9569 49.74 17.0865 49.4653 17.2101 49.1904C17.68 48.1468 18.3231 46.8606 18.3586 45.7018C18.3788 45.041 18.225 44.3898 18.1035 43.7448C17.9959 43.1727 17.9683 42.5869 18.014 42.0067C17.886 41.4837 17.8266 40.926 17.9352 40.4219C17.7921 40.5201 17.659 40.6175 17.5415 40.7049C13.1043 44.003 9.49986 49.0176 8.87012 54.5839C9.08868 54.8299 9.28319 55.0609 9.41897 55.1618Z" fill="#EBF2E5"/>
<path d="M18.5271 50.1375C18.7545 49.0272 19.0061 47.8945 19.0437 46.7671C19.0707 45.9559 18.9868 45.1474 18.7032 44.3522C18.5329 43.8749 18.3029 43.4087 18.256 42.9043C18.2521 42.8619 18.2499 42.8191 18.2491 42.7761C18.193 42.6171 18.1396 42.4571 18.0916 42.2954C18.0663 42.2099 18.0429 42.1224 18.021 42.0344C18.0187 42.0253 18.0163 42.0162 18.014 42.0068C17.9683 42.587 17.9959 43.1729 18.1035 43.745C18.2249 44.39 18.3788 45.0412 18.3585 45.702C18.323 46.8608 17.6799 48.1469 17.2101 49.1906C17.0864 49.4655 16.9569 49.7402 16.8209 50.0135C15.8311 52.0029 14.503 53.9097 12.631 55.1335C12.1592 55.4412 11.6363 55.7093 11.0733 55.7362C10.4784 55.7647 9.89656 55.5171 9.41894 55.162C9.28316 55.0611 9.08865 54.8301 8.87005 54.5841C8.86336 54.6425 8.85776 54.7009 8.85181 54.7595C8.83734 54.9017 8.82325 55.0442 8.81266 55.1872C8.76222 55.8725 8.814 56.6355 9.08046 57.2537C9.13455 57.3791 9.19779 57.498 9.27058 57.6093C9.43836 57.8662 9.65655 58.0826 9.9409 58.2328C10.2193 58.3799 10.534 58.4728 10.872 58.5222C10.9592 58.535 11.0475 58.5455 11.1379 58.5526C11.7407 58.599 12.4054 58.519 13.0719 58.3579C13.161 58.3361 13.25 58.3131 13.339 58.2888C16.0762 56.4052 17.865 53.3713 18.5271 50.1375Z" fill="#C6CAD6"/>
<path d="M18.249 42.7764C18.2497 42.8193 18.2519 42.8621 18.2558 42.9046C18.3027 43.4089 18.5327 43.8751 18.7031 44.3524C18.9867 45.1477 19.0706 45.9562 19.0436 46.7674C19.006 47.8948 18.7543 49.0275 18.527 50.1377C17.8648 53.3716 16.0761 56.4055 13.3389 58.2891C13.8627 58.1457 14.3824 57.9561 14.869 57.741C15.6325 57.403 16.3145 57.0033 16.8007 56.6248C16.8585 56.5799 16.9121 56.5332 16.963 56.4852C17.672 55.8166 17.7522 54.8613 18.0543 53.941C18.4175 52.835 18.8428 51.749 19.3268 50.6898C19.3419 50.6567 19.3572 50.6237 19.3724 50.5906C19.7796 49.7075 20.2303 48.8445 20.7177 48.0028C20.5436 47.3903 20.3928 46.7727 20.2618 46.1514C19.377 45.173 18.6882 44.019 18.249 42.7764Z" fill="#A1A8C3"/>
<path d="M18.0139 42.0071C18.0162 42.0164 18.0185 42.0255 18.0208 42.0346C18.0821 42.0587 18.1499 42.0696 18.2159 42.066C18.4155 42.0551 18.6944 41.9502 18.8995 41.8016C18.9966 41.7312 19.0771 41.6509 19.1249 41.5664C19.1923 41.4464 19.2083 41.3057 19.2267 41.1696C19.3076 40.5739 19.4654 39.989 19.6922 39.432C19.6988 39.2719 19.7101 39.1121 19.7197 38.9521C19.1662 38.9809 18.6247 39.2165 18.2863 39.6501C18.1062 39.8808 17.9951 40.1433 17.935 40.4223C17.8264 40.9264 17.8859 41.4841 18.0139 42.0071Z" fill="#3D2618"/>
<path d="M19.6868 39.6486C19.6891 39.5765 19.6893 39.5039 19.6924 39.4316C19.4656 39.9887 19.3078 40.5735 19.2269 41.1693C19.2084 41.3054 19.1925 41.4461 19.1251 41.566C19.0773 41.6506 18.9968 41.7309 18.8997 41.8012C18.6946 41.9498 18.4157 42.0547 18.2161 42.0657C18.1501 42.0692 18.0822 42.0584 18.021 42.0342C18.043 42.1223 18.0663 42.2098 18.0916 42.2953C18.1396 42.457 18.193 42.617 18.2492 42.776C18.6884 44.0186 19.3772 45.1726 20.262 46.1509C20.1641 45.6879 20.0783 45.2231 20.0046 44.7563C19.9513 44.4188 19.9023 44.0806 19.8617 43.7417C19.699 42.3832 19.6414 41.0146 19.6868 39.6486Z" fill="#311C11"/>
<path d="M26.2437 57.5221C26.3104 57.6487 26.3796 57.7742 26.454 57.8969C28.1369 59.5028 30.273 60.6321 32.5517 61.1143C33.9355 61.4072 35.3682 61.4609 36.7707 61.2818C37.6384 61.0422 38.4662 60.6768 39.217 60.1726C40.2092 59.5069 41.0369 58.5784 41.5934 57.5215C38.154 58.8007 29.6846 58.8008 26.2437 57.5221Z" fill="#311C11"/>
<path d="M48.1467 39.5488C46.356 40.353 44.4673 40.957 42.5381 41.3722C41.2953 41.6397 40.0348 41.8309 38.7669 41.9492C35.7953 42.2263 32.7573 42.0766 29.7957 41.7343C26.2807 41.3278 22.917 40.8447 19.6868 39.6494C19.6415 41.0153 19.699 42.384 19.8617 43.7424C19.9023 44.0813 19.9513 44.4195 20.0046 44.7571C21.396 45.8485 22.82 46.8986 24.3689 47.748C28.4086 49.9634 33.9533 50.9842 38.4995 49.8146C38.5568 49.7998 38.6141 49.7848 38.6711 49.7692C40.7786 49.1981 43.0689 47.0128 44.6478 45.581C45.913 44.4335 47.0789 43.1774 48.1327 41.8338C48.1696 41.0726 48.1747 40.3102 48.1467 39.5488Z" fill="#EBF2E5"/>
<path d="M31.0718 56.3406C28.5073 56.0825 25.9729 55.5011 23.5571 54.6035C23.979 55.3159 24.4319 56.0129 24.9194 56.69C25.15 57.0103 25.6133 57.2873 26.2439 57.5217C29.6848 58.8005 38.1542 58.8004 41.5936 57.5211C42.2236 57.2868 42.6863 57.0101 42.9168 56.69C43.3664 56.0655 43.7854 55.4232 44.1791 54.7686C43.7955 54.9039 43.4099 55.0342 43.0207 55.1538C39.1683 56.3376 35.0823 56.7445 31.0718 56.3406Z" fill="#C6CAD6"/>
<path d="M47.9741 43.7417C48.0501 43.1073 48.1015 42.4707 48.1325 41.833C47.0787 43.1767 45.9128 44.4327 44.6476 45.5802C43.0687 47.012 40.7783 49.1974 38.6708 49.7685C38.6138 49.784 38.5566 49.799 38.4993 49.8138C33.953 50.9834 28.4084 49.9627 24.3687 47.7472C22.8198 46.8978 21.3957 45.8477 20.0044 44.7564C20.0781 45.2231 20.1639 45.6879 20.2617 46.1509C20.3928 46.7722 20.5435 47.3899 20.7176 48.0023C21.3488 50.2232 22.2607 52.3776 23.4383 54.4042C24.2632 54.7163 25.1019 54.9929 25.9522 55.2302C29.7984 56.3037 33.8502 56.6085 37.8139 56.1182C40.0211 55.8453 42.2017 55.3297 44.2953 54.576C45.5522 52.4484 46.513 50.1767 47.1633 47.833C47.2998 47.3408 47.4242 46.8459 47.5332 46.3481C47.7218 45.4856 47.8695 44.6155 47.9741 43.7417Z" fill="#C6CAD6"/>
<path d="M37.8141 56.1183C33.8504 56.6086 29.7986 56.3038 25.9524 55.2302C25.1021 54.993 24.2634 54.7164 23.4385 54.4043C23.4773 54.4709 23.5176 54.537 23.557 54.6033C25.9728 55.501 28.5071 56.0824 31.0717 56.3405C35.0822 56.7444 39.1682 56.3374 43.0206 55.1537C43.4097 55.034 43.7953 54.9038 44.179 54.7684C44.2178 54.7043 44.2574 54.6406 44.2955 54.5761C42.2019 55.3299 40.0213 55.8454 37.8141 56.1183Z" fill="#3D2618"/>
<path d="M19.6865 39.6494C22.9167 40.8447 26.2803 41.3279 29.7953 41.7343C32.757 42.0766 35.7949 42.2263 38.7665 41.9493C40.0345 41.8309 41.295 41.6397 42.5378 41.3723C44.467 40.9571 46.3557 40.3531 48.1463 39.5489C48.1392 39.3561 48.1282 39.1636 48.1168 38.971C48.1166 38.9641 48.1161 38.9569 48.1156 38.9499C48.1051 38.7745 48.0947 38.5991 48.0808 38.4238C43.5163 38.8689 24.3189 38.8689 19.7547 38.4238C19.7406 38.6 19.7301 38.7762 19.7196 38.9526C19.71 39.1125 19.6987 39.2723 19.6921 39.4324C19.6891 39.5047 19.6888 39.5773 19.6865 39.6494Z" fill="#A1A8C3"/>
<path d="M13.6964 24.5752C13.8542 23.8879 14.0981 22.7189 14.1458 22.554C14.3817 21.7365 14.6629 20.931 14.9921 20.1462C15.0496 20.0092 15.1217 19.8145 15.2097 19.6067C15.5068 18.5856 15.8643 17.5873 16.2778 16.6252C16.3241 16.5176 16.3709 16.4101 16.4182 16.3027C15.6461 16.47 14.9873 16.6786 14.722 16.9C14.3066 17.2466 14.0316 17.7016 13.7825 18.1556C12.7184 20.096 12.1382 22.1105 11.9824 24.1378C12.3531 24.3967 12.7402 24.6323 13.144 24.8359C13.3687 24.9492 13.6403 24.8199 13.6964 24.5752Z" fill="#3D2618"/>
<path d="M54.0531 18.156C53.8041 17.7019 53.5293 17.247 53.1136 16.9004C52.848 16.6788 52.1884 16.47 51.4155 16.3027C51.4638 16.4097 51.5113 16.5172 51.5577 16.6255C52.176 18.0639 52.671 19.5825 53.0213 21.1389C53.172 21.3588 53.319 21.5151 53.413 21.7786C53.6437 22.426 53.8376 23.0791 54.0749 23.7216C54.1475 23.9181 54.2241 24.1135 54.3071 24.3075C54.8831 24.0668 55.3683 23.733 55.7659 23.3103C55.5303 21.5633 54.9723 19.832 54.0531 18.156Z" fill="#3D2618"/>
<path d="M55.8983 25.2455C55.8976 24.5995 55.8531 23.9538 55.7663 23.3101C55.3686 23.7328 54.8835 24.0666 54.3075 24.3073C54.2244 24.1133 54.1478 23.9179 54.0753 23.7214C53.838 23.0789 53.6441 22.4258 53.4133 21.7784C53.3193 21.515 53.1724 21.3586 53.0216 21.1387C53.3173 22.4517 53.5095 23.7918 53.5851 25.1334C53.711 27.3753 53.5115 29.6219 52.922 31.7553C52.6766 32.6437 52.3384 33.5966 51.8989 34.5185C52.7218 34.2889 53.4331 34.0177 53.6989 33.7629C54.0893 33.3885 54.3322 32.9156 54.5491 32.4454C55.6448 30.0708 56.0617 27.6392 55.8983 25.2455Z" fill="#311C11"/>
<path d="M34.3581 53.2095C37.3725 53.2095 39.8163 50.7886 39.8163 47.802C39.8163 44.8155 37.3725 42.3945 34.3581 42.3945C31.3435 42.3945 28.8999 44.8156 28.8999 47.802C28.9028 50.7873 31.3448 53.2066 34.3581 53.2095ZM34.3581 44.197C36.3677 44.197 37.9968 45.8111 37.9968 47.802C37.9968 49.793 36.3676 51.4069 34.3581 51.4069C32.3485 51.4069 30.7193 49.7928 30.7193 47.802C30.7193 45.8111 32.3485 44.197 34.3581 44.197Z" fill="#311C11"/>
<path d="M33.4489 50.5042H35.2682V48.7017H37.0876V46.8992H35.2682V45.0967H33.4489V46.8992H31.6294V48.7017H33.4489V50.5042Z" fill="#311C11"/>
<path d="M14.2227 25.8347C14.2765 23.7327 14.6227 21.6244 15.2096 19.6064C15.1216 19.8142 15.0495 20.0089 14.992 20.1459C14.6628 20.9307 14.3816 21.7362 14.1456 22.5537C14.098 22.7187 13.8541 23.8876 13.6963 24.5749C13.6401 24.8196 13.3686 24.9489 13.1439 24.8357C12.7401 24.632 12.353 24.3964 11.9823 24.1375C11.954 24.5065 11.9381 24.8757 11.9376 25.2451C11.7741 27.6387 12.1911 30.0703 13.2868 32.445C13.5036 32.9152 13.7465 33.3881 14.1369 33.7624C14.4026 34.0173 15.114 34.2884 15.9371 34.518C15.4975 33.5961 15.1593 32.6433 14.9138 31.7549C14.386 29.8441 14.1715 27.8424 14.2227 25.8347Z" fill="#311C11"/>
<path d="M53.0214 21.1386C52.671 19.5822 52.1761 18.0636 51.5578 16.6252C51.5114 16.5169 51.4638 16.4095 51.4156 16.3025C50.7788 14.8877 49.9849 13.5863 48.7054 12.6102C46.4428 10.8845 21.6728 10.9407 19.1303 12.6102C17.7842 13.4941 17.0468 14.8759 16.418 16.3028C16.3707 16.4102 16.324 16.5176 16.2776 16.6252C15.8642 17.5874 15.5066 18.5857 15.2095 19.6068C14.6226 21.6248 14.2764 23.7331 14.2227 25.8351C14.6185 26.293 15.0504 26.72 15.5119 27.1116C16.1741 27.6736 16.9847 28.5559 17.8719 27.9445C18.5671 27.4655 18.4303 26.5995 18.4965 25.8593C18.5663 25.078 18.6451 24.2868 18.8285 23.5225C18.9372 23.069 19.0672 22.6198 19.2174 22.1775C19.5722 20.3509 20.3108 18.6163 21.6089 17.2507C21.9445 16.8976 28.0009 16.7704 33.9178 16.8005C39.8348 16.7704 45.8911 16.8976 46.2268 17.2507C47.3215 18.4023 48.0175 19.8168 48.4221 21.3271C48.5203 21.5246 48.6132 21.7246 48.6985 21.9279C49.0126 22.6773 49.2115 23.4148 49.32 24.216L49.6709 26.8153C49.7313 27.2616 50.2045 27.529 50.6164 27.3451C51.4373 26.9786 52.2058 26.5208 52.8688 25.9126C53.1422 25.6618 53.3781 25.4015 53.5849 25.1334C53.5092 23.7917 53.317 22.4517 53.0214 21.1386Z" fill="#EBF2E5"/>
<path d="M53.5849 25.1335C53.3781 25.4015 53.1422 25.6619 52.8688 25.9127C52.2058 26.5209 51.4373 26.9787 50.6164 27.3451C50.2045 27.529 49.7313 27.2617 49.6709 26.8154L49.32 24.2161C49.2115 23.4149 49.0126 22.6774 48.6985 21.928C48.6132 21.7247 48.5203 21.5246 48.4221 21.3271C48.6906 22.3304 48.8311 23.3758 48.8721 24.4155C48.9768 24.9766 49.0412 25.55 49.0636 26.1254C49.1514 28.394 48.5058 33.7218 47.0939 34.3957C45.5101 35.1514 23.6373 34.4282 22.0658 34.2996C20.76 34.1927 20.325 33.5018 19.9356 32.2584C19.6001 31.1863 19.3985 30.0481 19.3419 28.9045C18.9294 26.8767 18.7746 24.4559 19.2174 22.1776C19.0673 22.6198 18.9372 23.069 18.8285 23.5226C18.6452 24.2869 18.5663 25.078 18.4965 25.8593C18.4304 26.5996 18.5672 27.4656 17.8719 27.9446C16.9847 28.5559 16.1741 27.6736 15.5119 27.1116C15.0505 26.72 14.6185 26.2931 14.2227 25.8351C14.1715 27.8428 14.386 29.8445 14.9138 31.7553C15.1593 32.6437 15.4974 33.5965 15.937 34.5184C16.6253 35.9622 17.5643 37.3295 18.8001 38.2489C18.8865 38.313 19.2207 38.3713 19.7549 38.4233C24.319 38.8684 43.5165 38.8684 48.081 38.4233C48.615 38.3713 48.9493 38.313 49.0356 38.2489C50.2714 37.3296 51.2102 35.9622 51.8988 34.5184C52.3383 33.5965 52.6765 32.6437 52.9219 31.7553C53.5113 29.6219 53.7108 27.3753 53.5849 25.1335Z" fill="#C6CAD6"/>
<path d="M46.4921 33.5705C46.117 33.7914 39.9476 33.8991 33.9177 33.8938C27.8879 33.8991 21.7183 33.7914 21.3434 33.5705C20.6947 33.1882 19.8346 31.3269 19.3418 28.9041C19.3984 30.0477 19.6 31.1859 19.9355 32.2579C20.3249 33.5014 20.7599 34.1923 22.0657 34.2992C23.6372 34.4278 45.51 35.151 47.0938 34.3952C48.5057 33.7214 49.1513 28.3936 49.0635 26.125C49.0411 25.5496 48.9767 24.9762 48.872 24.415C49.0437 28.7468 47.508 32.9718 46.4921 33.5705Z" fill="#A1A8C3"/>
<path d="M48.8723 24.415C48.8313 23.3754 48.6908 22.33 48.4222 21.3267C48.0176 19.8164 47.3217 18.4019 46.2269 17.2503C45.8913 16.8972 39.8349 16.7701 33.918 16.8002C28.001 16.7701 21.9447 16.8972 21.609 17.2503C20.3109 18.6159 19.5724 20.3505 19.2175 22.1772C18.7748 24.4555 18.9295 26.8763 19.342 28.9041C19.8349 31.3269 20.6949 33.1882 21.3436 33.5705C21.7185 33.7914 27.8881 33.8991 33.9179 33.8938C39.9478 33.8991 46.1172 33.7914 46.4923 33.5705C47.5083 32.9718 49.0439 28.7468 48.8723 24.415Z" fill="#311C11"/>
<path d="M21.3446 24.0216C21.1535 24.9792 20.9979 25.9956 21.3331 26.913C21.8709 28.3845 23.4838 28.5083 24.8359 28.4524C24.8889 28.4502 24.9423 28.4472 24.9953 28.445C24.7798 28.0323 24.6674 27.557 24.6391 27.1028C24.5691 25.9827 24.6914 21.6597 25.2568 21.0465C26.0815 20.1523 27.8602 20.1428 28.6934 21.0465C29.2588 21.66 29.3811 25.9827 29.3111 27.1028C29.2883 27.4681 29.2109 27.8466 29.0697 28.1956C31.1251 28.0294 33.1837 27.7977 35.2136 27.4743C36.3189 27.2982 37.4192 27.0918 38.5138 26.8586C38.4713 25.4599 38.6119 21.6216 39.1421 21.0465C39.9669 20.1523 41.7454 20.1428 42.5787 21.0465C42.9828 21.4849 43.1604 23.8174 43.2036 25.5219C43.73 25.2663 44.2294 24.9436 44.6977 24.5114C45.6573 23.6254 46.4499 22.1861 45.818 20.8903C45.4599 20.1552 44.769 19.6234 44.0177 19.2976C43.2665 18.9719 42.4502 18.83 41.642 18.698C36.2987 17.8253 30.7987 17.2672 25.4947 18.3534C24.8341 18.4886 24.1029 18.6376 23.5118 18.9774C22.9909 19.2769 22.7273 19.842 22.4647 20.3755C21.9007 21.5217 21.5934 22.7752 21.3446 24.0216Z" fill="#3D2618"/>
<path d="M28.6937 21.0463C27.8605 20.1426 26.0818 20.1521 25.2571 21.0463C24.6917 21.6595 24.5694 25.9825 24.6394 27.1026C24.6677 27.5567 24.7801 28.0321 24.9956 28.4448C25.1668 28.7728 25.4031 29.0615 25.715 29.2682C26.3918 29.7167 27.5372 29.7312 28.2357 29.2682C28.6245 29.0104 28.8958 28.6255 29.0699 28.1954C29.2112 27.8464 29.2885 27.4678 29.3114 27.1026C29.3814 25.9825 29.2591 21.6597 28.6937 21.0463Z" fill="#BBA783"/>
<path d="M39.1423 21.0463C38.612 21.6214 38.4715 25.4597 38.5139 26.8584C38.5167 26.951 38.5204 27.0331 38.5248 27.1026C38.5756 27.9178 38.896 28.8014 39.6003 29.2681C40.2769 29.7167 41.4223 29.7311 42.1209 29.2681C42.8253 28.8014 43.1457 27.9178 43.1966 27.1026C43.2165 26.7831 43.2209 26.2022 43.2038 25.5217C43.1606 23.8171 42.983 21.4847 42.5789 21.0463C41.7456 20.1426 39.967 20.1521 39.1423 21.0463Z" fill="#BBA783"/>
<path d="M32.5518 61.1138C30.2731 60.6317 28.1371 59.5024 26.4541 57.8965C26.9998 58.7974 27.7456 59.5862 28.619 60.1722C30.1668 61.2113 32.0425 61.6615 33.9178 61.637C34.8839 61.6496 35.8497 61.5362 36.7708 61.2814C35.3683 61.4605 33.9356 61.4068 32.5518 61.1138Z" fill="#3D2618"/>
<path d="M53.7762 8.45659C53.7586 8.41265 53.7408 8.36908 53.7227 8.32587C52.5608 5.5835 49.4794 3.87969 46.0038 2.6118C42.4715 1.32342 38.1515 0.137517 34.1411 0.00734978C30.3154 -0.116171 26.6023 1.34004 23.396 2.65667C20.7493 3.74343 18.1018 4.98473 16.4401 6.81316C15.1625 8.21897 14.7162 9.88954 15.1765 11.5296C15.7291 13.4955 17.3117 15.464 19.079 17C19.0076 16.938 19.0829 16.805 19.2467 16.6322C19.9173 15.9265 22.1278 14.5301 22.425 14.3429C22.654 14.1984 22.9039 14.0687 23.1624 13.9458C24.3592 13.3758 25.8254 13.013 27.1681 12.7028C30.8067 11.8625 34.7372 11.6282 38.5031 12.1406C39.9529 12.3372 41.3702 12.6402 42.7688 12.977C44.3196 13.3509 45.7376 13.7946 46.9771 14.4011C48.0684 14.9339 49.0207 15.5947 49.8031 16.4444C49.935 16.5873 50.0631 16.7341 50.1857 16.8881C50.1322 16.8211 51.7062 15.2425 51.8529 15.0464C52.3629 14.3618 52.7882 13.6456 53.1235 12.9083C53.7491 11.5324 54.3335 9.86295 53.7762 8.45659Z" fill="#311C11"/>
<path d="M33.4484 8.4075H35.2677V6.605H37.0871V4.8025H35.2677V3H33.4484V4.8025H31.6289V6.605H33.4484V8.4075Z" fill="white"/>
</svg>
