<svg width="32" height="50" viewBox="0 0 32 50" fill="none" xmlns="http://www.w3.org/2000/svg">
<rect x="-18" width="50" height="50" rx="16" fill="#311C11"/>
<path d="M12.729 14.0625C12.729 13.8692 12.6522 13.6837 12.5154 13.5469C12.3787 13.4102 12.1932 13.3334 11.9998 13.3334C11.8065 13.3334 11.621 13.4102 11.4842 13.5469C11.3475 13.6837 11.2707 13.8692 11.2707 14.0625V15.0834H6.89567C6.23815 15.0834 5.60757 15.3446 5.14263 15.8095C4.6777 16.2744 4.4165 16.905 4.4165 17.5625V22.5209C4.4165 23.1784 4.6777 23.809 5.14263 24.2739C5.60757 24.7388 6.23815 25 6.89567 25H17.104C17.7615 25 18.3921 24.7388 18.857 24.2739C19.322 23.809 19.5832 23.1784 19.5832 22.5209V17.5625C19.5832 16.905 19.322 16.2744 18.857 15.8095C18.3921 15.3446 17.7615 15.0834 17.104 15.0834H12.729V14.0625ZM9.08317 21.5C8.6964 21.5 8.32546 21.3464 8.05197 21.0729C7.77848 20.7994 7.62484 20.4285 7.62484 20.0417C7.62484 19.6549 7.77848 19.284 8.05197 19.0105C8.32546 18.737 8.6964 18.5834 9.08317 18.5834C9.46994 18.5834 9.84088 18.737 10.1144 19.0105C10.3879 19.284 10.5415 19.6549 10.5415 20.0417C10.5415 20.4285 10.3879 20.7994 10.1144 21.0729C9.84088 21.3464 9.46994 21.5 9.08317 21.5ZM16.3748 20.0417C16.3748 20.4285 16.2212 20.7994 15.9477 21.0729C15.6742 21.3464 15.3033 21.5 14.9165 21.5C14.5297 21.5 14.1588 21.3464 13.8853 21.0729C13.6118 20.7994 13.4582 20.4285 13.4582 20.0417C13.4582 19.6549 13.6118 19.284 13.8853 19.0105C14.1588 18.737 14.5297 18.5834 14.9165 18.5834C15.3033 18.5834 15.6742 18.737 15.9477 19.0105C16.2212 19.284 16.3748 19.6549 16.3748 20.0417ZM2.6665 29.8125C2.6665 29.155 2.9277 28.5244 3.39263 28.0595C3.85757 27.5946 4.48815 27.3334 5.14567 27.3334H18.854C19.5115 27.3334 20.1421 27.5946 20.607 28.0595C21.072 28.5244 21.3332 29.155 21.3332 29.8125V30.425C21.3332 32.2649 20.4378 33.8597 18.8038 34.9663C17.1915 36.0583 14.8815 36.6667 11.9998 36.6667C9.11817 36.6667 6.80817 36.0583 5.19584 34.9663C3.56192 33.8597 2.6665 32.2649 2.6665 30.425V29.8125Z" fill="white"/>
</svg>
