<svg width="81" height="81" viewBox="0 0 81 81" fill="none" xmlns="http://www.w3.org/2000/svg">
<path d="M61.0357 31.2971C65.5915 35.391 70.2371 39.5968 73.1513 44.984C76.0658 50.3711 76.9608 57.2637 73.8502 62.54C71.5814 66.3885 67.541 68.8606 63.407 70.5547C54.9295 74.0289 45.6296 74.8311 36.4913 75.484C33.2555 75.715 29.8457 75.9013 26.9297 74.4794C23.8799 72.9925 21.8847 69.9934 20.2465 67.022C15.7601 58.8846 12.824 49.896 11.6417 40.6795C11.0468 36.0422 10.905 31.2439 12.2869 26.7775C13.6686 22.3111 16.7739 18.1931 21.1381 16.5171C25.2927 14.9217 29.9623 15.6883 34.2552 16.8615C43.1573 19.2946 51.8837 23.073 61.0357 31.2971Z" fill="#FF7700" fill-opacity="0.43"/>
<path d="M74.8002 48.8527C74.3698 47.51 73.8135 46.2079 73.1513 44.984C70.9091 40.8391 67.6417 37.3936 64.1791 34.1604C57.2747 37.7934 53.444 44.7507 52.8313 51.8283C52.2108 58.9973 54.5243 66.1667 58.338 72.3061C60.054 71.8118 61.7464 71.2351 63.4068 70.5545C65.2151 69.8136 67.0052 68.9238 68.6374 67.835C67.7389 64.2851 67.8896 60.4683 69.106 57.0121C70.2205 53.8447 72.2233 51.0028 74.8002 48.8527Z" fill="#FF7700" fill-opacity="0.5"/>
<path d="M50.8557 23.7384C47.508 21.7418 44.1883 20.2074 40.8648 18.9712C39.2191 25.2481 33.9506 30.5005 27.6098 31.9772C24.3057 32.7464 20.8598 32.5611 17.492 32.9694C15.314 33.2334 13.0727 33.818 11.2147 34.9342C11.2326 36.8538 11.3979 38.7801 11.6415 40.6795C12.0073 43.5314 12.5416 46.3614 13.2373 49.1512C15.6716 48.2398 18.2578 47.734 20.8565 47.6714C22.3465 47.6354 24.0251 47.833 24.9571 48.9959C25.838 50.0947 25.7385 51.6669 25.4959 53.0545C24.6693 57.7827 22.6697 62.2964 19.75 66.1047C19.9134 66.4115 20.0784 66.7175 20.2463 67.0221C21.8845 69.9936 23.8795 72.9927 26.9295 74.4796C28.3358 75.1654 29.8574 75.475 31.4187 75.588C33.8518 72.5349 34.5065 68.5864 34.6414 64.8539C34.802 60.4087 34.402 55.8627 35.6405 51.5906C37.2517 46.0329 41.4074 41.6556 44.9462 37.0769C47.9635 33.1726 50.7 28.5541 50.8557 23.7384Z" fill="#FF7700" fill-opacity="0.5"/>
<circle cx="37.5" cy="18.5" r="13.5" fill="#BB5800"/>
<path d="M37.0794 24.7738C35.4197 24.7738 33.909 24.104 33.0383 22.9821C32.947 22.8645 32.8797 22.73 32.8404 22.5864C32.801 22.4427 32.7904 22.2927 32.809 22.145C32.8276 21.9972 32.8751 21.8546 32.9489 21.7252C33.0226 21.5958 33.1211 21.4822 33.2388 21.3909C33.3564 21.2996 33.4909 21.2323 33.6345 21.193C33.7782 21.1536 33.9281 21.1429 34.0759 21.1616C34.3743 21.1992 34.6456 21.3538 34.83 21.5914C35.2609 22.147 36.1438 22.5058 37.0794 22.5058C38.5511 22.5058 39.5766 21.6772 39.5766 20.9328C39.5766 20.1884 38.5511 19.359 37.0794 19.359C35.8644 19.359 34.7142 18.9977 33.8337 18.3408C32.8682 17.6207 32.3141 16.592 32.3141 15.5172C32.3141 14.4423 32.8682 13.4112 33.8337 12.6935C34.7142 12.0374 35.8668 11.6761 37.0794 11.6761C38.7391 11.6761 40.2505 12.346 41.1205 13.4679C41.2148 13.5852 41.2849 13.7202 41.3265 13.8649C41.3682 14.0096 41.3806 14.1612 41.363 14.3107C41.3455 14.4603 41.2983 14.6049 41.2243 14.736C41.1502 14.8671 41.0508 14.9822 40.9319 15.0745C40.8129 15.1668 40.6767 15.2345 40.5313 15.2736C40.3859 15.3127 40.2341 15.3225 40.0849 15.3023C39.9356 15.2821 39.7919 15.2324 39.6621 15.1561C39.5323 15.0798 39.419 14.9784 39.3287 14.8578C38.8978 14.303 38.0149 13.9441 37.0794 13.9441C35.6076 13.9441 34.5821 14.7728 34.5821 15.5172C34.5821 16.2616 35.6076 17.091 37.0794 17.091C38.2944 17.091 39.4446 17.4523 40.325 18.1092C41.2906 18.8293 41.8446 19.858 41.8446 20.9328C41.8446 22.0077 41.2906 23.0388 40.325 23.7565C39.447 24.4126 38.2919 24.7738 37.0794 24.7738Z" fill="white"/>
<path d="M37.0794 13.9441C36.7786 13.9441 36.4902 13.8246 36.2775 13.612C36.0648 13.3993 35.9454 13.1109 35.9454 12.8101V11.0046C35.9454 10.7038 36.0648 10.4154 36.2775 10.2027C36.4902 9.99008 36.7786 9.87061 37.0794 9.87061C37.3801 9.87061 37.6686 9.99008 37.8812 10.2027C38.0939 10.4154 38.2134 10.7038 38.2134 11.0046V12.8101C38.2134 13.1109 38.0939 13.3993 37.8812 13.612C37.6686 13.8246 37.3801 13.9441 37.0794 13.9441ZM37.0794 26.5793C36.7786 26.5793 36.4902 26.4598 36.2775 26.2471C36.0648 26.0345 35.9454 25.746 35.9454 25.4453V23.6398C35.9454 23.339 36.0648 23.0506 36.2775 22.8379C36.4902 22.6253 36.7786 22.5058 37.0794 22.5058C37.3801 22.5058 37.6686 22.6253 37.8812 22.8379C38.0939 23.0506 38.2134 23.339 38.2134 23.6398V25.4453C38.2134 25.746 38.0939 26.0345 37.8812 26.2471C37.6686 26.4598 37.3801 26.5793 37.0794 26.5793Z" fill="white"/>
<path d="M21.141 69.579H14.661C14.3603 69.579 14.0718 69.4595 13.8591 69.2469C13.6465 69.0342 13.527 68.7458 13.527 68.445V55.0436C13.527 54.7428 13.6465 54.4544 13.8591 54.2417C14.0718 54.029 14.3603 53.9096 14.661 53.9096C14.9618 53.9096 15.2502 54.029 15.4629 54.2417C15.6755 54.4544 15.795 54.7428 15.795 55.0436V67.311H20.007V54.2255C20.007 53.9247 20.1265 53.6363 20.3391 53.4236C20.5518 53.2109 20.8403 53.0915 21.141 53.0915C21.4418 53.0915 21.7302 53.2109 21.9429 53.4236C22.1555 53.6363 22.275 53.9247 22.275 54.2255V68.445C22.275 68.7458 22.1555 69.0342 21.9429 69.2469C21.7302 69.4595 21.4418 69.579 21.141 69.579ZM36.207 69.579H29.727C29.4263 69.579 29.1378 69.4595 28.9251 69.2469C28.7125 69.0342 28.593 68.7458 28.593 68.445V52.6087C28.593 52.308 28.7125 52.0195 28.9251 51.8069C29.1378 51.5942 29.4263 51.4747 29.727 51.4747C30.0278 51.4747 30.3162 51.5942 30.5289 51.8069C30.7415 52.0195 30.861 52.308 30.861 52.6087V67.311H35.073V50.9271C35.073 50.6264 35.1925 50.338 35.4051 50.1253C35.6178 49.9126 35.9063 49.7931 36.207 49.7931C36.5078 49.7931 36.7962 49.9126 37.0089 50.1253C37.2215 50.338 37.341 50.6264 37.341 50.9271V68.445C37.341 68.7458 37.2215 69.0342 37.0089 69.2469C36.7962 69.4595 36.5078 69.579 36.207 69.579ZM51.273 69.579H44.793C44.4923 69.579 44.2038 69.4595 43.9911 69.2469C43.7785 69.0342 43.659 68.7458 43.659 68.445V47.8961C43.659 47.5954 43.7785 47.3069 43.9911 47.0943C44.2038 46.8816 44.4923 46.7621 44.793 46.7621C45.0938 46.7621 45.3822 46.8816 45.5949 47.0943C45.8075 47.3069 45.927 47.5954 45.927 47.8961V67.311H50.139V44.7477C50.139 44.4469 50.2585 44.1585 50.4711 43.9458C50.6838 43.7331 50.9723 43.6137 51.273 43.6137C51.5738 43.6137 51.8622 43.7331 52.0749 43.9458C52.2875 44.1585 52.407 44.4469 52.407 44.7477V68.445C52.407 68.7458 52.2875 69.0342 52.0749 69.2469C51.8622 69.4595 51.5738 69.579 51.273 69.579ZM66.339 69.579H59.859C59.5583 69.579 59.2698 69.4595 59.0572 69.2469C58.8445 69.0342 58.725 68.7458 58.725 68.445V38.5317C58.725 38.231 58.8445 37.9425 59.0572 37.7299C59.2698 37.5172 59.5583 37.3977 59.859 37.3977C60.1598 37.3977 60.4482 37.5172 60.6609 37.7299C60.8735 37.9425 60.993 38.231 60.993 38.5317V67.311H65.205V34.2007C65.205 33.8999 65.3245 33.6115 65.5372 33.3988C65.7498 33.1861 66.0383 33.0667 66.339 33.0667C66.6398 33.0667 66.9282 33.1861 67.1409 33.3988C67.3535 33.6115 67.473 33.8999 67.473 34.2007V68.445C67.473 68.7458 67.3535 69.0342 67.1409 69.2469C66.9282 69.4595 66.6398 69.579 66.339 69.579Z" fill="#BB5800"/>
<path d="M9.26883 56.5769C8.99147 56.5763 8.72395 56.4741 8.51688 56.2895C8.30982 56.105 8.17756 55.851 8.14514 55.5755C8.11271 55.3 8.18237 55.0223 8.34092 54.7947C8.49948 54.5671 8.73594 54.4055 9.00558 54.3405C30.2349 49.274 42.1046 41.5474 48.323 35.9576C54.952 30 56.6457 25.2704 56.666 25.2234C56.729 25.042 56.8371 24.8796 56.98 24.7514C57.123 24.6231 57.2962 24.5333 57.4834 24.4903C57.6705 24.4473 57.8656 24.4526 58.0501 24.5056C58.2347 24.5586 58.4028 24.6576 58.5387 24.7933L65.5727 31.833C65.755 32.0153 65.8697 32.2542 65.8979 32.5104C65.9262 32.7666 65.8664 33.0248 65.7283 33.2424C62.5117 38.3058 57.5165 42.687 50.8826 46.2575C45.6297 49.0861 39.3368 51.4189 32.1781 53.1936C20.0281 56.206 9.41139 56.5729 9.30528 56.5769H9.26883ZM58.0843 27.549C57.0313 29.574 54.6466 33.3226 49.8393 37.644C45.7447 41.3246 40.7106 44.6772 34.8778 47.607C30.9784 49.572 26.7122 51.3451 22.113 52.9222C25.046 52.45 28.299 51.8198 31.671 50.9782C42.3014 48.3384 56.295 43.0475 63.3128 32.7759L58.0843 27.549Z" fill="#BB5800"/>
<path d="M69.093 38.0878C68.9441 38.0878 68.7966 38.0585 68.659 38.0015C68.5214 37.9445 68.3964 37.861 68.2911 37.7557L52.6103 22.0757C52.4614 21.9269 52.3569 21.7396 52.3084 21.5347C52.2599 21.3299 52.2694 21.1155 52.3358 20.9158C52.4022 20.716 52.523 20.5387 52.6845 20.4036C52.846 20.2686 53.0418 20.1812 53.2502 20.1512L71.5692 17.5122C71.7437 17.4871 71.9216 17.503 72.0889 17.5587C72.2562 17.6144 72.4082 17.7083 72.5328 17.833C72.6574 17.9577 72.7513 18.1098 72.8069 18.2771C72.8624 18.4444 72.8782 18.6223 72.853 18.7968L70.2149 37.115C70.1759 37.3849 70.041 37.6318 69.8348 37.8103C69.6286 37.9888 69.3649 38.0871 69.0922 38.087L69.093 38.0878ZM55.8155 22.0733L68.2895 34.5473L70.389 19.9673L55.8155 22.0733Z" fill="#BB5800"/>
</svg>
