<svg width="24" height="24" viewBox="0 0 24 24" fill="none" xmlns="http://www.w3.org/2000/svg">
<path d="M22.3895 23.7776C21.987 24.2032 20.3482 23.9058 19.869 23.8032C19.7924 23.7878 19.7349 23.716 19.7349 23.634C19.7349 23.4494 19.7349 23.2648 19.7349 23.0853C19.7636 21.2548 19.4186 19.5166 18.6759 17.8706C18.6279 17.7629 18.604 17.6501 18.604 17.5322C18.5896 14.6351 18.0625 11.8457 17.0083 9.17938C16.9748 9.09734 16.9892 8.98966 16.9987 8.89224C17.0035 8.82558 17.0467 8.75892 17.0467 8.69739C17.0323 8.28719 17.2479 7.98466 17.43 7.66675C17.5881 7.39499 17.7271 7.10785 17.8565 6.8207C17.9619 6.58483 18.0577 6.34384 18.1584 6.09259C18.1967 6.00029 18.3021 5.95414 18.3836 6.00542C19.8115 6.87711 21.1005 7.94364 22.2553 9.19989C22.3272 9.27681 22.4374 9.49216 22.5668 9.70239C24.2775 12.4251 24.7327 21.3009 22.3895 23.7776Z" fill="#311C11"/>
<path d="M13.9843 9.22333C12.748 11.8999 11.0661 14.1817 8.90499 16.1096C7.93226 14.797 6.76785 13.7305 5.44531 12.9306C5.61303 12.3358 5.79991 11.7717 5.9197 11.1923C6.01075 10.7565 6.0347 10.3052 6.05387 9.85915C6.08262 9.14129 6.35575 8.58238 6.89244 8.15679C7.18474 7.92605 7.45787 7.66968 7.74059 7.42868C7.79809 7.38253 7.87476 7.32613 7.94184 7.32613C10.1125 7.24921 12.1059 7.8235 13.9076 9.15154C13.9268 9.1618 13.9412 9.18231 13.9843 9.22333ZM10.5055 12.6075C11.1763 12.6024 11.7178 12.3819 12.1586 11.9153C12.7193 11.3205 12.5707 10.3309 11.852 9.98734C11.5932 9.86427 11.2961 9.80274 11.0134 9.77198C10.6348 9.73096 10.3234 9.91555 10.1029 10.2488C9.95919 10.4591 9.8346 10.6847 9.69564 10.9C9.45126 11.2692 9.38417 11.6589 9.59022 12.064C9.79627 12.4691 10.1365 12.6229 10.5055 12.6075Z" fill="#311C11"/>
<path d="M4.04025 14.8938C5.06569 15.4578 5.96655 16.2167 6.74282 17.1448C6.80991 17.2268 6.87699 17.314 6.94408 17.396C7.09262 17.5806 7.19325 17.7704 7.20763 18.0421C7.23159 18.5805 7.49513 19.0061 7.93598 19.2727C8.10849 19.3753 8.20911 19.5086 8.2762 19.6932C8.35766 19.9291 8.45349 20.1598 8.56371 20.4623C8.01265 20.6418 7.49034 20.8264 6.96324 20.9751C6.67574 21.0571 6.37385 21.0879 6.07676 21.1289C5.85155 21.1597 5.73654 21.2776 5.66467 21.5084C5.56883 21.816 5.43945 22.1134 5.30528 22.4006C5.26695 22.4826 5.16632 22.5287 5.08486 22.6005C5.04173 22.1185 5.42508 21.4776 6.24927 20.6418C6.11989 20.4316 5.98572 20.2162 5.84196 19.9855C5.03215 20.5803 4.50505 21.3648 4.31338 22.3647C4.23192 22.78 4.069 23.0466 3.73357 23.2671C3.09626 23.6824 2.52124 23.6773 1.94144 23.1851C1.63955 22.9287 1.34246 22.6621 1.03579 22.4108C0.848906 22.257 0.777029 22.057 0.738694 21.8058C0.690776 21.5237 0.604524 21.2315 0.470353 20.9802C0.178053 20.4316 -0.0136187 19.8573 0.000756737 19.2266C0.00554854 19.0369 0.0870092 18.7959 0.216388 18.6677C1.46226 17.4114 2.72729 16.1706 3.98274 14.9246C3.99712 14.9143 4.01149 14.9092 4.04025 14.8938ZM1.44788 20.6982C1.46705 20.7085 1.48622 20.7136 1.51017 20.7238C1.51017 21.252 1.81685 21.7237 2.27686 21.8878C2.73688 22.0519 3.24481 21.8775 3.53711 21.4468C3.70003 21.2058 3.85337 20.9597 3.99233 20.7085C4.39005 19.9752 4.0642 19.0523 3.32627 18.7754C2.82792 18.5908 2.4302 18.7292 2.13311 19.1958C2.01331 19.3855 1.87435 19.565 1.7881 19.7701C1.64914 20.0675 1.55809 20.3905 1.44788 20.6982Z" fill="#311C11"/>
<path d="M15.3509 11.6624C15.672 12.6622 15.9068 13.6313 16.041 14.621C16.1416 15.3901 16.1895 16.1644 16.271 16.9386C16.2853 17.0976 16.247 17.2001 16.1176 17.2924C14.8909 18.1846 13.5396 18.6564 12.059 18.6871C11.8242 18.6922 11.5846 18.6871 11.3498 18.6871C10.8706 18.6871 10.8706 18.6871 10.492 19.005C10.3914 18.7692 10.2668 18.5435 10.1997 18.3026C10.1758 18.2154 10.2812 18.0667 10.3627 17.9795C11.1294 17.1796 11.9344 16.4156 12.6723 15.5798C13.6594 14.4671 14.4788 13.216 15.212 11.8931C15.2455 11.8418 15.2839 11.7752 15.3509 11.6624Z" fill="#311C11"/>
<path d="M9.46191 4.91215C10.1136 4.24043 10.8611 4.00457 11.7332 4.08661C11.7332 4.34811 11.7332 4.59936 11.7332 4.866C11.992 4.866 12.2316 4.866 12.4807 4.866C12.5526 3.42002 12.4664 2.00994 11.8914 0.676776C11.877 0.640883 11.8578 0.599862 11.8434 0.563969C11.7859 0.405015 11.647 0.240933 11.8195 0.0819781C11.9872 -0.0718488 12.1693 0.0204474 12.3226 0.117871C12.428 0.184529 12.5143 0.292208 12.5958 0.39476C13.4295 1.51257 14.1435 2.71755 14.7712 3.97893C15.0683 4.57373 15.3702 5.16852 15.6769 5.75819C15.7536 5.90177 15.7583 6.01457 15.6769 6.15302C15.5427 6.37863 15.4229 6.61963 15.2887 6.84524C15.1977 6.99906 15.0731 7.05034 14.9102 6.93753C13.281 5.80434 11.4936 5.14801 9.56254 4.94291C9.54337 4.93778 9.51942 4.92753 9.46191 4.91215Z" fill="#311C11"/>
<path d="M9.83803 16.8443L9.83324 16.8391C9.70386 16.675 9.72303 16.4289 9.87157 16.2853C11.7164 14.5368 13.221 12.4961 14.3759 10.163C14.4717 9.97331 14.6873 9.8964 14.8646 9.98869L14.8694 9.99382C15.0611 10.0912 15.1426 10.3425 15.0419 10.5425C13.8488 12.9576 12.2914 15.0752 10.3699 16.8955C10.2166 17.0391 9.9722 17.0186 9.83803 16.8443Z" fill="#311C11"/>
<path d="M10.3846 3.39445C9.7379 3.61493 9.2062 3.97386 8.75113 4.52764C8.54036 4.15845 8.43019 3.76876 8.36792 3.36368C8.229 2.45097 8.39666 1.60493 8.83735 0.810153C8.96669 0.579413 9.09123 0.343545 9.23015 0.117932C9.25889 0.0717835 9.32595 0.0512732 9.37385 0.0205078C9.40259 0.076911 9.45049 0.128187 9.45049 0.18459C9.47923 1.33829 9.7858 2.39457 10.3846 3.39445Z" fill="#311C11"/>
<path d="M17.3877 16.2645H17.3829C17.1769 16.3004 16.9805 16.1312 16.9566 15.9056C16.9087 15.4954 16.8656 15.0903 16.8129 14.6852C16.6404 13.4033 16.3291 12.1522 15.9123 10.937C15.8884 10.8652 15.8836 10.7831 15.8884 10.6908C15.9267 10.2755 16.4632 10.2037 16.5973 10.5934C17.1817 12.2804 17.5506 14.0186 17.7086 15.8286C17.7278 16.0491 17.5841 16.2337 17.3877 16.2645Z" fill="#311C11"/>
<path d="M9.22093 6.54004C8.8855 6.50927 8.69862 6.11445 8.88071 5.81193L8.8855 5.8068C8.91425 5.76065 8.98613 5.7145 9.03405 5.71963C10.9364 5.83244 12.6998 6.40672 14.3146 7.4989C14.3194 7.50402 14.3242 7.51428 14.3194 7.51428C14.2859 7.59632 14.2475 7.67836 14.214 7.7604C14.1038 8.01165 13.8163 8.10908 13.5911 7.97063C12.2398 7.15022 10.7878 6.67336 9.22093 6.54004Z" fill="#311C11"/>
<path d="M7.78474 16.6162L7.77994 16.6214C7.62661 16.7496 7.40618 16.7239 7.27201 16.5701C6.58679 15.7548 5.80093 15.0626 4.90966 14.4883C4.72277 14.3652 4.67486 14.0986 4.80424 13.9089L4.80903 13.9038C4.92403 13.7397 5.13487 13.6935 5.30258 13.7961C6.26094 14.4063 7.1043 15.1498 7.84224 16.0317C7.98599 16.206 7.95724 16.4778 7.78474 16.6162Z" fill="#311C11"/>
<path d="M16.2776 8.53745C16.2776 8.97842 15.9422 9.34761 15.5303 9.35273C15.1183 9.35786 14.7734 8.99893 14.7639 8.55796C14.7543 8.10161 15.0992 7.72729 15.5207 7.72729C15.9327 7.73242 16.2776 8.09648 16.2776 8.53745Z" fill="#311C11"/>
<path d="M9.46222 17.891C9.46222 18.332 9.11733 18.696 8.71016 18.7012C8.28863 18.7012 7.94374 18.3217 7.95332 17.8705C7.9629 17.4295 8.303 17.0706 8.71974 17.0757C9.12691 17.0809 9.46701 17.45 9.46222 17.891Z" fill="#311C11"/>
<path d="M16.3679 7.2233L16.3631 7.21818C16.2242 7.10537 16.1715 6.90539 16.2482 6.73106C16.3871 6.40289 16.5308 6.07473 16.6745 5.73631C16.7607 5.53633 16.9859 5.44917 17.1727 5.54146L17.187 5.54659C17.3691 5.63889 17.4457 5.87475 17.3595 6.07473C17.211 6.40802 17.0673 6.74131 16.9236 7.06948C16.8278 7.30022 16.5547 7.372 16.3679 7.2233Z" fill="#311C11"/>
<path d="M9.46686 19.2648C9.59141 19.1981 9.74948 19.2545 9.80696 19.393C9.8836 19.5776 9.81654 19.6288 9.5435 19.8237C9.52434 19.8391 9.50039 19.8544 9.48123 19.8647C9.34711 19.957 9.16987 19.8955 9.11239 19.7416V19.7365C9.06449 19.6083 9.11718 19.4596 9.23214 19.393C9.31358 19.3468 9.39022 19.3058 9.46686 19.2648Z" fill="#311C11"/>
<path d="M10.4995 12.6073C10.1305 12.6278 9.79027 12.4689 9.58423 12.0638C9.37818 11.6587 9.44526 11.269 9.68965 10.8998C9.82861 10.6845 9.95799 10.4589 10.0969 10.2486C10.3174 9.91534 10.6288 9.73075 11.0074 9.77177C11.2901 9.80253 11.5872 9.86406 11.846 9.98712C12.5647 10.3307 12.7133 11.3203 12.1526 11.9151C11.7118 12.3817 11.1703 12.5971 10.4995 12.6073ZM10.5809 11.8279C10.9739 11.7818 11.3045 11.6433 11.5824 11.3716C11.707 11.2485 11.7789 11.0998 11.7022 10.9203C11.5872 10.6486 11.3332 10.6332 11.1032 10.5819C10.9163 10.5409 10.7678 10.6076 10.6624 10.7922C10.5665 10.9665 10.442 11.1254 10.3557 11.3049C10.2982 11.4177 10.2359 11.5818 10.2695 11.6792C10.2982 11.7561 10.4707 11.7818 10.5809 11.8279Z" fill="#F5F3CA"/>
<path d="M1.44824 20.7006C1.55842 20.3878 1.65422 20.0699 1.78355 19.7725C1.87457 19.5674 2.01348 19.3879 2.12844 19.1982C2.42543 18.7316 2.81823 18.588 3.32119 18.7778C4.05888 19.0547 4.38461 19.9776 3.98702 20.7109C3.84811 20.9672 3.69482 21.2134 3.53196 21.4492C3.23976 21.8799 2.732 22.0543 2.27215 21.8902C1.81708 21.7261 1.50572 21.2544 1.50572 20.7262C1.48656 20.716 1.4674 20.7109 1.44824 20.7006ZM2.23862 20.6903C2.26257 20.9057 2.33921 21.0493 2.52124 21.1159C2.69368 21.1775 2.8326 21.1057 2.93319 20.9519C3.06731 20.7416 3.2206 20.5416 3.3164 20.316C3.37388 20.1776 3.40262 19.9725 3.34514 19.8443C3.28287 19.7059 3.1248 19.5828 2.98109 19.5366C2.91403 19.5161 2.77511 19.6648 2.69847 19.7623C2.59309 19.8956 2.50208 20.0494 2.42543 20.2032C2.344 20.3571 2.2961 20.5263 2.23862 20.6903Z" fill="#F5F3CA"/>
<path d="M4.89686 20.3054C4.70525 20.3054 4.54239 20.1516 4.52323 19.9465C4.46095 19.3568 4.23582 18.844 3.81428 18.4287C3.67537 18.2954 3.65142 18.0749 3.75201 17.9057L3.7568 17.9006C3.88135 17.7006 4.1448 17.6544 4.31246 17.8134C4.83459 18.3005 5.2178 19.1209 5.27049 19.8644C5.28486 20.1054 5.11721 20.3054 4.89686 20.3054Z" fill="#F5F3CA"/>
<path d="M10.5786 11.8341C10.4684 11.7828 10.296 11.7623 10.2672 11.6802C10.2337 11.5777 10.296 11.4187 10.3535 11.3059C10.4397 11.1265 10.5642 10.9675 10.66 10.7932C10.7654 10.6086 10.9139 10.5419 11.1007 10.5829C11.3259 10.6342 11.5797 10.6496 11.6995 10.9214C11.7761 11.1008 11.7043 11.2495 11.5797 11.3726C11.3019 11.6546 10.9714 11.7879 10.5786 11.8341Z" fill="#311C11"/>
<path d="M2.24316 20.6888C2.30544 20.5247 2.35334 20.3555 2.42519 20.2016C2.50183 20.0427 2.59285 19.894 2.69823 19.7607C2.77487 19.6633 2.91379 19.5094 2.98085 19.5351C3.11976 19.5812 3.28263 19.7043 3.3449 19.8427C3.40238 19.9709 3.37364 20.176 3.31616 20.3145C3.21556 20.5401 3.06707 20.7452 2.93295 20.9503C2.83235 21.1041 2.69344 21.1759 2.52099 21.1144C2.34376 21.0477 2.26232 20.9041 2.24316 20.6888Z" fill="#311C11"/>
</svg>
