<svg width="72" height="63" viewBox="0 0 72 63" fill="none" xmlns="http://www.w3.org/2000/svg">
<path d="M57.7693 0.00657616C57.0792 0.0190083 56.5505 0.0622228 56.2458 0.1306C55.991 0.18653 55.5251 0.317292 55.2204 0.416732C54.9158 0.516181 54.2568 0.79639 53.7595 1.0388C53.2623 1.28114 52.6222 1.61665 52.3298 1.79076C52.0377 1.96479 51.4343 2.34396 50.9929 2.64232C50.5515 2.93447 49.7803 3.50035 49.2829 3.89818C48.7857 4.29595 48.1393 4.84894 47.8347 5.12865C47.537 5.40148 47.3076 5.65581 47.3249 5.69408C47.3255 5.69513 47.3256 5.69672 47.3259 5.69798C47.3216 5.69706 47.3172 5.69505 47.3122 5.69505C47.281 5.68913 47.1131 5.84439 46.9392 6.03685C46.7956 6.18538 46.6721 6.32266 46.6277 6.38158C46.5608 6.42003 46.4605 6.49411 46.3611 6.58958C46.2056 6.7326 45.8267 7.13006 45.5222 7.46556C45.2114 7.80744 44.7197 8.37944 44.4275 8.73997C44.1353 9.10051 43.7187 9.62946 43.4949 9.92162C43.2638 10.2272 41.6417 11.9236 39.616 13.9802C37.2598 16.3672 36.0723 17.5236 35.948 17.5671C35.8483 17.5982 35.4507 17.673 35.0779 17.7351C34.5246 17.8283 34.0333 17.8464 32.4978 17.8464C31.0991 17.8464 30.3407 17.8159 29.6072 17.7351C29.0601 17.6729 28.1524 17.5545 27.5867 17.4675C27.021 17.3805 25.8771 17.1692 25.0378 17.0076C24.1986 16.8397 23.0548 16.6032 22.489 16.4851C21.9233 16.367 20.978 16.2 20.3874 16.113C19.8031 16.026 18.9079 15.9198 18.3982 15.8826C17.7392 15.8328 17.3412 15.8387 16.9558 15.8884C16.6637 15.9257 16.0486 16.026 15.5886 16.113C15.1286 16.2 14.5253 16.3239 14.2517 16.3923C13.9782 16.4607 13.4431 16.616 13.0701 16.7341C12.6971 16.8584 12.1503 17.0574 11.8581 17.1755C11.566 17.2936 11.1179 17.4991 10.863 17.6296C10.422 17.847 10.3596 17.8593 9.65111 17.8904C9.01089 17.9214 8.80562 17.9585 8.22142 18.1511C7.84843 18.2754 7.17684 18.5615 6.72923 18.779C6.28162 19.0028 5.72231 19.3143 5.48607 19.4822C5.25007 19.6498 5.01391 19.8482 4.9763 19.9353C4.9328 20.0161 4.83312 20.128 4.75853 20.1902C4.67789 20.246 4.58475 20.2776 4.55345 20.2654C4.52237 20.2467 4.23601 20.4952 3.93138 20.8122C3.62058 21.1293 3.2106 21.614 3.02415 21.8874C2.83144 22.1609 2.59468 22.5398 2.489 22.7263C2.38332 22.9128 2.21577 23.2612 2.11009 23.5036C2.0044 23.7461 1.83002 24.2499 1.72435 24.6228C1.6125 24.9958 1.47632 25.6728 1.40794 26.114C1.34578 26.5553 1.27132 27.3823 1.25267 27.948C1.22781 28.5136 1.24564 29.5768 1.28294 30.3103C1.32025 31.0438 1.43837 32.7095 1.53783 34.0085C1.6373 35.3077 1.74955 36.8746 1.78685 37.49C1.82415 38.1053 1.86169 38.8884 1.8679 39.2302C1.8679 39.6715 1.87989 39.7274 1.89232 39.4353C1.9032 39.2123 1.9286 39.0654 1.9597 39.0447L1.97337 39.0437C1.92986 39.025 1.91088 39.4908 1.91087 40.3796C1.91087 41.2499 1.93607 41.7468 1.97337 41.7468C1.97634 41.7468 1.97826 41.75 1.98119 41.7517C1.9566 41.7764 1.92219 41.9509 1.89915 42.1638C1.86807 42.4 1.84935 42.7798 1.84935 43.0222C1.84933 43.2648 1.80566 43.9482 1.74974 44.5447C1.70001 45.1414 1.60036 45.9936 1.53197 46.4411C1.46979 46.8887 1.35131 47.5416 1.28294 47.9021C1.20832 48.2627 1.0592 48.9147 0.941147 49.362C0.823029 49.8096 0.54998 50.6805 0.338608 51.3083C0.127388 51.9295 -0.0220032 52.4574 0.00267029 52.489C0.0337601 52.5139 0.618271 52.5329 1.30833 52.5329C2.30287 52.5329 2.66965 52.5076 3.06126 52.4206C3.33479 52.3585 3.82588 52.2216 4.14915 52.116C4.47237 52.0165 5.05056 51.7806 5.42357 51.6003C5.79658 51.4201 6.38132 51.084 7.32005 50.4499L7.48802 50.8855C7.58745 51.1216 7.67446 51.3145 7.6931 51.3083C7.71184 51.3083 7.75494 51.3081 7.78587 51.3142C7.81684 51.3204 7.81718 51.3451 7.77415 51.3699C7.71821 51.4009 7.78588 51.6873 8.04076 52.4704C8.22726 53.0485 8.40199 53.5711 8.42064 53.6208C8.43924 53.6707 8.4639 53.7757 8.47631 53.8562C8.48873 53.9307 8.54441 54.043 8.60033 54.1052C8.66869 54.1736 8.68124 54.2168 8.63158 54.2292C8.59428 54.2354 8.57582 54.2859 8.59447 54.3357C8.61327 54.3852 8.66894 54.4284 8.71849 54.4285C8.74367 54.4285 8.76775 54.4425 8.7849 54.4656C8.76833 54.4464 8.74706 54.4343 8.72435 54.4343C8.65629 54.4344 8.64449 54.4589 8.69408 54.5271C8.72513 54.5768 8.73057 54.6515 8.7058 54.6951C8.67679 54.7489 8.68731 54.7595 8.73705 54.7263C8.79918 54.6952 8.80519 54.7326 8.77416 54.8816C8.75556 54.9932 8.74983 55.0683 8.7683 55.0564C8.77772 55.0422 8.80701 54.9771 8.83764 54.8982C8.78506 55.0362 8.74974 55.1758 8.74974 55.2058C8.74995 55.2364 8.78059 55.2111 8.82396 55.1492C8.86749 55.087 8.94293 55.0504 8.98021 55.0691C9.02351 55.0941 9.06029 55.1563 9.06029 55.2058C9.06016 55.2552 9.02966 55.2982 8.99877 55.2986C8.96774 55.2986 8.93639 55.2616 8.93627 55.2243C8.93627 55.1705 8.91521 55.1749 8.87377 55.237C8.84283 55.2869 8.81234 55.3919 8.81224 55.4724C8.81224 55.5467 8.84279 55.6214 8.87377 55.6404C8.91107 55.659 8.91719 55.6093 8.89232 55.5036C8.86134 55.3734 8.86776 55.3425 8.92357 55.3796C8.96709 55.4045 8.99877 55.4792 8.99877 55.5476C8.9987 55.6159 8.96732 55.6842 8.93627 55.7029C8.90519 55.7215 8.87377 55.8338 8.87377 55.9519C8.87383 56.0693 8.89885 56.1741 8.92357 56.1872C8.93681 56.1899 8.95265 56.2109 8.96752 56.2429C8.97342 56.3826 8.98594 56.5079 9.01049 56.5476C9.01921 56.5621 9.0271 56.5693 9.03295 56.571C9.02782 56.5804 9.017 56.5704 8.99877 56.5417C8.96147 56.4796 8.93627 57.1759 8.93627 60.7995L10.7703 62.6335H14.1277L14.0896 62.3044C14.0865 62.2759 14.0818 62.2463 14.0769 62.2165C14.0951 62.3202 14.1151 62.4485 14.1335 62.6081L14.6619 62.6394V62.6335H15.6501C16.2693 62.6335 16.6423 62.6091 16.6453 62.572C16.6453 62.5409 16.5336 62.0553 16.4031 61.4958C16.2725 60.9425 15.9608 59.656 15.2771 56.7908L14.8425 52.4831C14.6064 50.1218 14.3822 47.959 14.3572 47.6843C14.3075 47.2618 14.3138 47.1558 14.407 46.9695C14.4691 46.8514 14.6802 46.5406 14.8728 46.2859C15.0717 46.031 15.5072 45.5084 15.8367 45.1355C16.1723 44.7626 16.7443 44.1287 17.1111 43.737C17.4841 43.3454 17.9819 42.786 18.2244 42.4939C18.4668 42.2018 18.8517 41.698 19.0818 41.3747C19.3056 41.0515 19.6604 40.4733 19.8718 40.1003C20.0831 39.7274 20.2631 39.3853 20.2693 39.3542C20.2826 39.324 20.5434 39.5042 20.8474 39.7585C21.152 40.0196 21.569 40.3551 21.7742 40.5105C21.9793 40.6721 22.4947 41.0264 22.9236 41.3122C23.3525 41.5919 24.1732 42.0523 24.7576 42.3445C25.3544 42.6366 26.188 42.9846 26.6667 43.1462C27.1391 43.3016 27.5682 43.4265 27.6179 43.4265C27.6675 43.4264 27.6981 43.395 27.6794 43.364C27.6609 43.333 27.686 43.3017 27.7292 43.3015C27.7727 43.3015 27.8348 43.333 27.866 43.364C27.8671 43.3653 27.8696 43.3657 27.8708 43.3669C27.8694 43.366 27.8674 43.366 27.866 43.365C27.8162 43.3339 27.748 43.3086 27.7107 43.321C27.6797 43.3273 27.6732 43.3648 27.698 43.4021C27.7229 43.4394 27.8416 43.4885 27.9597 43.5134C28.1212 43.5444 28.2148 43.5258 28.3142 43.4451C28.3609 43.4076 28.397 43.3593 28.4226 43.3015C28.398 43.3603 28.3661 43.4117 28.3328 43.4451C28.2272 43.532 28.2269 43.5569 28.3015 43.5818C28.3512 43.6004 28.4815 43.612 28.5808 43.612C28.6862 43.612 28.7552 43.5877 28.737 43.5505C28.7269 43.5336 28.7281 43.5131 28.7361 43.4949C28.7225 43.5325 28.7512 43.59 28.7986 43.6316C28.8545 43.6689 28.8985 43.6877 28.8923 43.6628C28.8926 43.6321 28.9482 43.6445 29.0163 43.6755C29.1157 43.7252 29.1406 43.7128 29.1531 43.6199C29.1537 43.616 29.1527 43.6118 29.1531 43.6081C29.1838 43.6718 29.2872 43.72 29.489 43.7556C29.657 43.7805 30.2535 43.7986 30.8191 43.7986C31.3847 43.7986 32.2116 43.7681 32.6531 43.737C33.0945 43.6997 33.7848 43.6309 34.1765 43.5749C34.5682 43.519 35.2272 43.4077 35.6374 43.3269C36.0478 43.2461 36.7319 43.0782 37.1609 42.9538C37.5898 42.8295 38.2048 42.6305 38.5281 42.5124C38.8512 42.3881 39.4106 42.1519 39.7712 41.9841C40.1318 41.8163 40.6481 41.5426 40.9216 41.3747C41.1951 41.2132 41.6361 40.921 41.8972 40.7283C42.1629 40.5367 42.392 40.4005 42.407 40.4294C42.4194 40.4543 42.4505 40.6665 42.4753 40.9089C42.4941 41.1518 42.6005 42.0091 42.6999 42.823C42.7994 43.6309 42.9734 44.8925 43.0915 45.6199C43.2283 46.4465 43.3273 47.3792 43.3708 48.1189C43.4081 48.7716 43.4644 49.8725 43.5017 50.5749C43.5328 51.2772 43.5827 52.0047 43.6013 52.1911C43.6199 52.3777 43.6388 52.7315 43.6326 52.9675C43.6263 53.2037 43.6503 53.4713 43.6814 53.5583C43.7033 53.6144 43.7192 53.6454 43.7292 53.6511C43.7249 53.6758 43.723 53.6937 43.7195 53.7009C43.707 53.7258 43.7252 54.2476 43.7624 54.8503C43.7997 55.4595 43.8373 56.026 43.8435 56.113C43.8545 56.1894 43.9102 56.2728 43.9822 56.322C43.9265 56.2948 43.8595 56.2611 43.781 56.2185L43.8249 56.5544C43.8498 56.7347 43.8811 57.0458 43.906 57.6052L44.1482 57.5622C44.1044 57.5696 44.0618 57.578 44.03 57.5867C43.9617 57.6115 43.8932 57.6863 43.8806 57.7546C43.8671 57.8403 43.8627 57.8633 43.9021 57.8318C43.9049 57.8791 43.9124 57.9143 43.9177 57.9158C43.9225 57.9158 43.953 57.8883 43.9929 57.8533C43.9289 57.9137 43.8747 57.9909 43.8747 58.0349C43.8749 58.0753 43.9087 58.1593 43.9607 58.2429C43.933 58.2087 43.9008 58.1708 43.8679 58.1267V58.8298C43.8741 59.451 43.887 59.5261 43.9802 59.5261C44.0424 59.5261 44.1606 59.457 44.4031 59.2146V59.2156L44.2478 59.3708C44.1608 59.4578 44.0424 59.526 43.9802 59.5261C43.9243 59.5261 43.8747 59.5701 43.8747 59.6199C43.8748 59.6692 43.9055 59.7238 43.9363 59.7429C43.8993 59.7262 43.8748 59.915 43.8747 60.7995L44.4529 61.198C44.7638 61.4218 45.3485 61.8316 46.4548 62.6208L47.2937 62.6335V62.4158C47.2937 62.2792 47.3253 62.1863 47.3874 62.1677C47.389 62.1671 47.3907 62.1672 47.3923 62.1667C47.3435 62.1985 47.3164 62.2748 47.3064 62.405C47.3002 62.5722 47.3185 62.6342 47.3865 62.6345C47.4361 62.6345 47.4801 62.5787 47.4802 62.5105C47.4802 62.4421 47.5116 62.3855 47.5427 62.3855C47.5738 62.386 47.6169 62.4424 47.6355 62.5105C47.6542 62.5786 47.7099 62.6342 47.7595 62.6345C47.7939 62.6345 47.8245 62.613 47.8406 62.5837C47.8444 62.5998 47.8497 62.6161 47.8533 62.6335H51.4587L51.3904 62.3415C51.353 62.1735 51.1541 61.2848 50.949 60.365C50.7501 59.4452 50.4835 58.2393 50.3591 57.6921C50.2348 57.1451 50.1161 56.5291 50.0974 56.324C50.0788 56.1186 50.0794 55.64 50.1042 55.2673C50.1291 54.8933 50.185 52.6937 50.241 50.3884C50.2906 48.0881 50.3277 46.1585 50.3279 46.0993C50.3279 46.0497 50.346 45.8071 50.3708 45.571C50.3957 45.3348 50.4144 44.7249 50.4206 44.2214C50.4261 43.7853 50.4096 43.3976 50.3894 43.2878C50.4056 43.3184 50.4198 43.3628 50.4265 43.4128C50.4389 43.5061 50.4519 43.276 50.4519 42.9031C50.4581 42.5241 50.4458 42.2512 50.4333 42.2947C50.4144 42.3381 50.3025 42.3747 50.1599 42.3747C50.0541 42.3747 49.9915 42.369 49.9558 42.3503L49.9519 42.3464C49.9883 42.3644 50.0504 42.3689 50.1531 42.3689C50.296 42.3689 50.415 42.3382 50.4275 42.2947C50.4461 42.2517 50.458 42.3945 50.4704 42.6179C50.4829 42.9473 50.4894 42.8853 50.5329 42.3074C50.5578 41.9158 50.6076 40.9334 50.6511 40.1316C50.6884 39.3297 50.7315 38.4901 50.7439 38.2663C50.7563 38.0426 50.7754 37.7135 50.7878 37.5271C50.8065 37.1915 50.8062 37.1912 51.3904 36.6257C51.7136 36.315 52.1245 35.905 52.2986 35.7185C52.4664 35.5321 52.7398 35.2088 52.8953 35.0036C53.0507 34.7985 53.3176 34.4187 53.4792 34.1638C53.6471 33.9089 53.9835 33.275 54.2322 32.7654C54.4808 32.2496 54.8101 31.4792 54.9656 31.0378C55.121 30.6027 55.2944 30.0051 55.3503 29.7068C55.4125 29.342 55.4519 28.6419 55.4685 27.6062C55.4871 26.7488 55.512 25.8168 55.5369 25.5242C55.5555 25.232 55.5995 24.8395 55.6306 24.6531C55.6802 24.3864 55.674 24.2995 55.612 24.2683C55.5499 24.231 55.5501 24.2185 55.6247 24.2185C55.6868 24.2177 55.7615 24.0497 55.8669 23.6716C55.9477 23.3733 56.4259 21.9434 56.9294 20.489C57.4329 19.0348 57.9864 17.4559 58.1482 16.9831C58.4279 16.1938 58.4839 16.0814 58.7947 15.7458C59.0122 15.5097 59.2733 15.3171 59.5095 15.199C59.7147 15.0995 60.0074 14.9998 60.1628 14.9812C60.3926 14.9502 60.5669 14.9935 61.1257 15.1921C61.5049 15.3289 62.3014 15.6527 62.8982 15.9138C63.4948 16.1748 64.1781 16.4922 64.4206 16.6228C64.775 16.8093 64.8993 16.921 65.1169 17.238C65.2661 17.4556 65.5032 17.7409 65.6462 17.8777C65.7955 18.0207 66.1931 18.2701 66.5349 18.4441C66.9078 18.6243 67.3431 18.7915 67.6228 18.8474C67.915 18.9096 68.2758 18.9344 68.5867 18.9158C68.9097 18.9033 69.2451 18.8351 69.5495 18.7234C69.8044 18.6363 70.1842 18.4496 70.3894 18.3191C70.5945 18.1823 70.8929 17.9335 71.0544 17.7595C71.2222 17.5855 71.4082 17.3247 71.4704 17.1755C71.5388 17.0327 71.6135 16.7595 71.6384 16.573C71.6633 16.3866 71.7506 16.0507 71.8376 15.8269C71.962 15.5037 71.9935 15.3042 71.9997 14.8318C72.0059 14.4962 71.9684 14.1044 71.9187 13.9304C71.8689 13.7563 71.7502 13.4644 71.657 13.2781C71.5574 13.0853 71.2845 12.7493 71.0359 12.5007C70.7872 12.2583 70.4201 11.8361 70.2087 11.5564C69.9974 11.2767 69.5749 10.7105 69.2703 10.2878C68.9656 9.87135 68.5052 9.23133 68.2566 8.87083C68.0079 8.51035 67.7844 8.20553 67.7595 8.1931C67.7346 8.18074 67.6725 8.21826 67.6228 8.27415C67.5889 8.31224 67.5257 8.34237 67.4617 8.35716C67.5283 8.3356 67.5961 8.29493 67.6345 8.24388C67.6967 8.1755 67.7342 8.09465 67.7156 8.05736C67.6998 8.02616 67.6454 8.03102 67.573 8.06615C67.6027 8.03967 67.6225 8.01318 67.6228 7.99486C67.6228 7.95762 67.5732 7.84551 67.5173 7.73997L67.405 7.55345L67.2683 7.70872C67.2641 7.71329 67.2607 7.71865 67.2566 7.72337C67.3257 7.6211 67.3545 7.51497 67.3367 7.45482C67.2994 7.36158 67.2681 7.3738 67.1189 7.56029C67.0288 7.66733 66.9563 7.81545 66.9431 7.90697C66.9541 7.81749 67.0154 7.6809 67.0945 7.59056C67.1809 7.49178 67.2488 7.39892 67.2497 7.38548C67.2497 7.37927 67.2245 7.31709 67.1872 7.24876C67.1421 7.15357 67.1187 7.14407 66.9773 7.28685C67.0329 7.21798 67.0691 7.16155 67.0691 7.13744C67.0691 7.09398 67.0448 7.00071 67.0076 6.93236C66.964 6.8702 66.9074 6.81419 66.8826 6.81419C66.8597 6.81439 66.8475 6.8516 66.8474 6.90599C66.8297 6.78267 66.7501 6.58254 66.6589 6.44017C66.5594 6.28468 66.3356 5.9553 66.1492 5.70677C65.9691 5.4647 65.8204 5.24122 65.8201 5.2097C65.8201 5.18484 66.0377 4.70603 66.3113 4.14037C66.5786 3.57473 66.8892 2.84123 66.9949 2.5056C67.1002 2.17737 67.1866 1.88614 67.1872 1.85326C67.1872 1.82839 66.976 1.6854 66.7087 1.53001C66.4414 1.38083 66.0807 1.21841 65.9128 1.16869C65.7386 1.12519 65.3102 1.06304 64.9499 1.03197C64.5148 0.994671 64.1206 0.999081 63.7683 1.04466C63.4761 1.08196 63.072 1.1571 62.4939 1.32494L62.2136 1.13841C62.0581 1.03894 61.7411 0.864516 61.4988 0.75267C61.2563 0.634578 60.8522 0.47247 60.5974 0.385482C60.3425 0.304677 59.9195 0.187137 59.6648 0.137436C59.41 0.0877386 59.1119 0.0320661 59.0124 0.0134121C58.913 0.00098131 58.3536 -0.00585054 57.7693 0.00657616ZM47.6355 62.2292C47.6815 62.2555 47.7255 62.2998 47.7644 62.3708C47.7426 62.342 47.7177 62.3134 47.6911 62.2868C47.6621 62.2578 47.6299 62.2313 47.5974 62.2097C47.6104 62.2159 47.6232 62.2222 47.6355 62.2292ZM13.5251 62.28C13.525 62.2839 13.5242 62.2878 13.5242 62.2917L13.4372 61.9997L13.5251 62.28ZM13.9714 61.8435C13.9935 61.8793 14.0168 61.9389 14.0408 62.0359C14.0182 61.9512 13.9904 61.878 13.9656 61.8376L13.9226 61.7859C13.9409 61.8027 13.9574 61.8218 13.9714 61.8435ZM13.6091 61.7165C13.5708 61.7368 13.5518 61.7852 13.5408 61.906C13.5459 61.7766 13.5568 61.7323 13.6091 61.7165ZM13.3093 60.6658C13.337 60.6833 13.3254 60.7208 13.2937 60.8054C13.2564 60.8861 13.2322 61.0542 13.2322 61.1785C13.2322 61.3525 13.2066 61.3962 13.1072 61.3962C13.0143 61.3963 12.9832 61.4337 12.9831 61.5515C12.9831 61.5998 12.9873 61.6335 12.9997 61.657C12.9834 61.6334 12.9773 61.5984 12.9773 61.5456C12.9773 61.434 13.0082 61.3904 13.1013 61.3904C13.2008 61.3904 13.2253 61.3466 13.2253 61.1726C13.2254 61.0545 13.2568 60.8865 13.2878 60.7995C13.3171 60.7247 13.3294 60.6859 13.3093 60.6658ZM14.7302 61.6081C14.7501 61.6161 14.7631 61.6234 14.7703 61.6296C14.7625 61.6248 14.7509 61.6199 14.7361 61.614L14.7302 61.6081ZM13.9343 61.1609C14.0236 61.0158 14.0831 60.9655 14.1033 61.0017C14.0775 60.9774 14.024 61.0289 13.9402 61.1599C13.8469 61.3028 13.7413 61.3962 13.6667 61.3962C13.6252 61.3962 13.5984 61.3895 13.5798 61.365C13.5983 61.3841 13.6232 61.3904 13.6609 61.3904C13.7354 61.3904 13.8411 61.2974 13.9343 61.1609ZM14.656 60.7165L14.4001 60.9118C14.2187 61.0547 14.1502 61.085 14.1238 61.0427C14.1597 61.0745 14.268 61.0108 14.656 60.7068V60.7165ZM13.4314 58.5749C13.4873 58.811 13.5553 59.0661 13.574 59.1531C13.5925 59.2397 13.6174 59.3384 13.6238 59.3699C13.6362 59.4009 13.661 59.5446 13.6921 59.6814C13.717 59.818 13.7669 59.967 13.7917 60.0105C13.8227 60.0477 13.841 60.1157 13.8288 60.1531C13.8226 60.1904 13.8602 60.2409 13.9099 60.2595C13.9213 60.264 13.9317 60.2647 13.9402 60.2663C13.9334 60.2729 13.9256 60.2771 13.9158 60.2771C13.8785 60.2771 13.8533 60.3023 13.8533 60.3396C13.8533 60.3707 13.8785 60.3833 13.9158 60.3708C13.9186 60.3691 13.9217 60.368 13.9245 60.3669C13.9106 60.379 13.8936 60.3951 13.8728 60.4148C13.842 60.4425 13.806 60.4636 13.7751 60.4753C13.7569 60.4761 13.7375 60.4789 13.7165 60.4792C13.7123 60.4778 13.7077 60.4792 13.7048 60.4763C13.6869 60.4584 13.6798 60.4618 13.6785 60.4792C13.6218 60.4794 13.5557 60.4789 13.4802 60.4763C13.0702 60.4639 12.9831 60.4766 12.9831 60.5574C12.9832 60.5723 12.9876 60.5851 12.9949 60.5964C12.9843 60.5836 12.9773 60.5696 12.9773 60.5515C12.9773 60.4769 12.8652 60.4577 11.7029 60.4577L11.1745 59.9294V58.1579H13.3191L13.4314 58.5749ZM46.113 58.1579C48.0647 58.1579 48.2263 58.1709 48.2263 58.2517C48.2263 58.3013 48.2325 58.3632 48.2449 58.3943C48.2573 58.4191 48.289 58.537 48.3201 58.655C48.3449 58.7729 48.3759 58.9282 48.3884 58.9968C48.4008 59.0652 48.4186 59.1901 48.4372 59.2771C48.4559 59.3639 48.4869 59.4941 48.5056 59.5749C48.5243 59.6495 48.5495 59.7744 48.5681 59.8552C48.5868 59.9298 48.6182 60.0978 48.6306 60.2283L48.6619 60.4577L47.2009 60.4333C46.6731 60.0608 46.424 59.8928 46.3181 59.8181L46.113 59.6814V58.1579ZM13.9704 60.3835C13.9748 60.3915 13.9782 60.4015 13.9783 60.4138C13.9783 60.4263 13.9704 60.4362 13.9558 60.4451C13.962 60.4198 13.9675 60.3995 13.9704 60.3835ZM13.9968 60.1101C14.002 60.1101 14.0073 60.112 14.0124 60.116C14.0113 60.116 14.0097 60.1159 14.0085 60.116C13.9839 60.1161 13.9669 60.1288 13.9578 60.1472C13.9625 60.1273 13.9758 60.1136 13.9968 60.1101ZM44.0486 58.824C44.0186 58.854 44.0882 58.9406 44.3728 59.1872L44.1853 59.0281C43.9928 58.8666 43.9804 58.8358 44.0798 58.7986C44.085 58.796 44.0911 58.7965 44.0964 58.7947C44.0776 58.8023 44.0603 58.8123 44.0486 58.824ZM44.2546 58.8269C44.2894 58.8485 44.3286 58.8776 44.3718 58.9167C44.4589 58.9987 44.5376 59.0414 44.573 59.0368C44.5293 59.062 44.4668 59.031 44.3777 58.9363C44.3379 58.8934 44.2938 58.8548 44.2546 58.8269ZM44.7234 58.9675C44.6856 58.9687 44.62 58.9928 44.5896 59.029L44.5867 59.03C44.5873 59.0292 44.589 59.029 44.5896 59.0281C44.6084 58.9971 44.6641 58.9666 44.7136 58.9665C44.7168 58.9665 44.7202 58.9674 44.7234 58.9675ZM44.1238 58.0681C44.1247 58.1172 44.1547 58.1718 44.1853 58.1902C44.2004 58.1992 44.2258 58.2019 44.2536 58.1999C44.2257 58.203 44.2008 58.2013 44.1853 58.1951C44.1481 58.1763 44.1228 58.1207 44.1228 58.071L44.1238 58.0681ZM44.696 58.0876C44.6885 58.1255 44.6758 58.1601 44.6589 58.1931C44.6757 58.1601 44.6886 58.1255 44.696 58.0876ZM44.4158 58.1169C44.4004 58.134 44.3823 58.1486 44.365 58.1609C44.3828 58.1481 44.4004 58.1334 44.4158 58.1169ZM44.2478 58.1531C44.2413 58.1548 44.2347 58.1549 44.2292 58.156C44.2348 58.1545 44.2413 58.1542 44.2478 58.1521C44.2601 58.1475 44.2722 58.1405 44.2839 58.1326L44.2478 58.1531ZM44.4411 57.7243C44.472 57.7532 44.5003 57.7924 44.5271 57.8484C44.5949 57.9839 44.609 58.0282 44.5476 58.1091C44.605 58.0286 44.593 57.9861 44.5212 57.8474C44.492 57.7911 44.4685 57.7513 44.4411 57.7243ZM44.198 58.0837C44.1934 58.0929 44.1903 58.1016 44.1872 58.1091C44.1899 58.1002 44.1932 58.0894 44.198 58.0779C44.202 58.0699 44.204 58.0617 44.2068 58.0544C44.2043 58.0635 44.2021 58.0736 44.198 58.0837ZM44.2663 57.8913C44.3283 57.9162 44.3713 57.9784 44.3591 58.0281C44.362 57.9794 44.3261 57.9212 44.2663 57.8972C44.1994 57.8668 44.121 57.8784 44.071 57.9255C44.0719 57.9247 44.0721 57.9233 44.073 57.9226C44.1227 57.8729 44.198 57.8603 44.2663 57.8913ZM44.7009 57.9685V57.9714C44.6976 57.9424 44.6913 57.9142 44.6814 57.8865C44.6908 57.9134 44.6977 57.9403 44.7009 57.9685ZM44.3259 57.5486C44.4155 57.5546 44.4691 57.5947 44.5642 57.698C44.6224 57.7659 44.66 57.8258 44.6814 57.8865C44.6606 57.8281 44.6245 57.7715 44.571 57.7117C44.502 57.6267 44.4003 57.5624 44.3259 57.5486ZM44.1951 57.7312C44.1486 57.7447 44.0897 57.7762 44.0378 57.8152C44.0828 57.7689 44.1478 57.7372 44.1951 57.7312ZM44.2536 57.6618C44.33 57.6619 44.3838 57.6768 44.4294 57.7136C44.3768 57.6704 44.3065 57.6679 44.1609 57.6794C44.155 57.6798 44.1489 57.68 44.1433 57.6804C44.1817 57.6692 44.22 57.6618 44.2536 57.6618ZM44.7156 56.2898C44.7455 56.3181 44.7694 56.3604 44.7947 56.4236C44.8186 56.4804 44.8492 56.5247 44.8826 56.5564C44.8467 56.5245 44.8142 56.478 44.7888 56.4177C44.7652 56.3588 44.7427 56.318 44.7156 56.2898ZM63.9607 3.24486C64.085 3.21999 64.2037 3.22035 64.2224 3.239C64.2466 3.25883 64.0971 3.62501 63.8923 4.05931C63.6873 4.50039 63.4887 4.99143 63.4451 5.16576C63.3953 5.4019 63.3892 5.53893 63.4451 5.72533C63.4886 5.87447 63.7307 6.2352 64.0476 6.62669C64.3333 6.98692 64.5765 7.29766 64.5769 7.32298C64.5769 7.35406 64.6325 7.43491 64.7009 7.50951C64.7693 7.59027 64.8188 7.67727 64.8064 7.71458C64.794 7.75188 64.483 7.7706 64.0105 7.76439C63.5878 7.75818 63.2024 7.77078 63.1589 7.79564C63.1486 7.80086 63.141 7.81293 63.1326 7.83177C63.1248 7.81886 63.1179 7.81421 63.115 7.82005C63.115 7.82275 63.1164 7.8383 63.1179 7.87083C63.0848 7.99405 63.0672 8.27831 63.0535 8.83372C63.0473 9.37938 63.0596 9.87545 63.0906 9.93333C63.1403 10.0328 63.2586 10.0456 64.1413 10.0456C64.6878 10.0456 65.1721 10.033 65.2165 10.0144C65.2725 9.98953 65.2852 9.78472 65.279 9.23802C65.2667 8.77386 65.285 8.49437 65.322 8.49193C65.3593 8.49193 65.4531 8.60971 65.5339 8.75267C65.6147 8.90186 65.9566 9.42433 66.2986 9.92162C66.6405 10.4189 67.3739 11.4381 67.9333 12.1902C68.4926 12.942 69.1266 13.7248 69.3445 13.9304C69.7113 14.2723 69.7489 14.329 69.78 14.615C69.8048 14.8447 69.7739 15.0126 69.6745 15.2673C69.5999 15.4538 69.5062 15.777 69.4626 15.9822C69.3881 16.3425 69.3759 16.3616 69.0466 16.5417C68.7794 16.6847 68.6361 16.7218 68.3689 16.7156C68.1452 16.7093 67.8964 16.6535 67.654 16.5417C67.4489 16.4547 67.2309 16.3301 67.1687 16.2742C67.1004 16.2182 67.0198 16.0815 66.9763 15.9822C66.9328 15.8828 66.8024 15.6902 66.6843 15.5535C66.5662 15.4229 66.2489 15.1673 65.9753 14.987C65.7018 14.8068 65.2537 14.5457 64.9802 14.4089C64.7065 14.2721 64.1157 14.0117 63.6745 13.8191C63.2332 13.6264 62.4071 13.3154 61.8415 13.1228C60.8717 12.7933 60.784 12.7748 60.2556 12.781C59.8641 12.7872 59.566 12.8372 59.2615 12.9304C59.0193 13.0111 58.7022 13.1347 58.5466 13.2156C58.3912 13.2902 58.0985 13.4769 57.8933 13.6199C57.6881 13.7691 57.3527 14.0615 57.1413 14.279C56.9362 14.4966 56.6936 14.8014 56.6003 14.9568C56.5132 15.1124 56.3388 15.5165 56.2146 15.8581C56.0901 16.2005 55.7109 17.2627 55.3816 18.2195C55.0459 19.1766 54.5548 20.6126 54.2937 21.4021C54.0334 22.1951 53.7919 22.8461 53.7595 22.8503C53.7286 22.8503 53.6973 22.8323 53.697 22.8015C53.697 22.7766 53.5356 22.546 53.3367 22.2849C53.1439 22.03 52.789 21.6016 52.5466 21.3406C52.3048 21.074 52.0819 20.8687 52.0437 20.8738C52.0002 20.8862 51.6331 21.2039 51.2165 21.5769C50.8001 21.9498 50.4646 22.2731 50.4646 22.2917C50.4676 22.3136 50.7024 22.5918 50.9988 22.9128C51.2908 23.2359 51.5648 23.5652 51.6023 23.6462C51.6458 23.7208 51.6952 23.7829 51.7263 23.7829C51.7512 23.7829 51.7703 23.8144 51.7703 23.8454C51.7703 23.8766 51.8195 23.964 51.8816 24.0261C51.9377 24.0886 52.1179 24.3927 52.2732 24.697C52.4348 24.9954 52.6399 25.4558 52.7331 25.7107C52.8264 25.9656 52.9571 26.4128 53.0193 26.7048C53.1001 27.0405 53.1565 27.5816 53.1814 28.197C53.2124 28.9924 53.1994 29.235 53.1062 29.5954C53.0502 29.8379 52.8767 30.3534 52.7214 30.7449C52.566 31.1365 52.2859 31.7525 52.0994 32.113C51.9128 32.4735 51.6016 33.0016 51.4089 33.2937C51.1727 33.648 50.7127 34.1638 50.029 34.8474C49.2146 35.6555 48.9601 35.9547 48.8171 36.2468C48.6866 36.5202 48.6246 36.7629 48.5935 37.1482C48.5624 37.4404 48.5243 38.0242 48.5056 38.4529C48.487 38.8818 48.4565 39.4233 48.4441 39.6658C48.4254 39.9084 48.4002 40.4678 48.3816 40.9089C48.3629 41.3504 48.3193 42.3076 48.282 43.0222C48.2447 43.736 48.2075 44.4126 48.1951 44.5134C48.1826 44.6129 48.158 45.4274 48.1394 46.3161C48.1145 47.205 48.0835 48.1999 48.071 48.5232C48.0524 48.8464 48.0272 49.8413 48.0085 50.7302C47.9899 51.6191 47.9594 52.7506 47.947 53.2478C47.9346 53.7451 47.9093 54.5469 47.9031 55.0378C47.8844 55.8573 47.8782 55.9266 47.7605 55.9577C47.6921 55.9826 47.2871 55.9768 46.8581 55.9519C46.4294 55.927 46.0692 55.8953 46.0505 55.8767C46.0319 55.8643 46.0134 55.7587 46.0134 55.6531C46.0072 55.5412 45.9755 55.0067 45.9382 54.4597C45.9071 53.9127 45.8763 53.4089 45.8826 53.3406C45.8825 53.2719 45.8635 52.9236 45.8386 52.5632C45.8199 52.2021 45.7458 50.9595 45.6775 49.7976C45.6091 48.6352 45.5528 47.485 45.5466 47.2488C45.5404 47.0126 45.5093 46.6893 45.4783 46.5339C45.4471 46.3779 45.2977 45.402 45.1423 44.3581C45.1154 44.1775 45.0911 43.9948 45.0652 43.8152C45.0675 43.7786 45.0564 43.713 45.0369 43.6052C45.0359 43.5999 45.034 43.5948 45.0329 43.5896C45.0064 43.4038 44.9804 43.2231 44.9568 43.0525C44.9562 43.0484 44.9563 43.0439 44.9558 43.0398C44.9531 43.0184 44.9486 42.9963 44.9451 42.9734C44.8764 42.4739 44.8243 42.072 44.8074 41.9031C44.7991 41.8208 44.7885 41.7145 44.7761 41.5935C44.7853 41.5606 44.7822 41.4953 44.7693 41.4177C44.7615 41.3736 44.752 41.3207 44.7429 41.2683C44.715 40.9971 44.6836 40.6989 44.6579 40.4421C44.6452 40.3285 44.6332 40.2121 44.6208 40.0984V39.8201L44.5925 39.8308C44.5634 39.5577 44.538 39.3287 44.5271 39.2302C44.5147 39.0562 44.4587 38.5398 44.4089 38.0798C44.3531 37.6205 44.3159 37.186 44.322 37.1169C44.322 37.0485 44.3094 36.868 44.2908 36.7126C44.2721 36.5572 44.2284 36.2528 44.1911 36.029C44.1601 35.8053 44.1112 35.4821 44.0925 35.3142C44.0739 35.1401 44.0428 34.8788 44.0242 34.7234C44.0055 34.568 43.9489 34.4253 43.8992 34.3943C43.8496 34.3694 43.8124 34.3072 43.8122 34.2576C43.8122 34.2078 43.688 33.7913 43.5388 33.3376C43.3896 32.8901 43.1283 32.231 42.948 31.8767C42.7761 31.5329 42.6285 31.2499 42.6189 31.2429C42.6065 31.2429 42.171 31.4539 41.655 31.7087C41.1331 31.9635 40.7042 32.2058 40.7038 32.237C40.7038 32.2681 40.7909 32.4675 40.8904 32.6726C40.9898 32.8778 41.152 33.2318 41.239 33.4617C41.3256 33.6968 41.406 33.9134 41.4128 33.946C41.4253 33.9771 41.4498 34.0526 41.4685 34.1023C41.4874 34.1528 41.575 34.4632 41.6619 34.7859C41.7427 35.1091 41.8414 35.5321 41.8786 35.7185C41.9159 35.9047 41.9599 36.1589 41.9724 36.2771C41.991 36.3952 42.0218 36.6628 42.0466 36.8679C42.0715 37.073 42.097 37.285 42.1033 37.3347C42.1093 37.3845 42.0905 37.4834 42.0535 37.5515C42.0162 37.6199 41.8476 37.825 41.6736 38.0115C41.4995 38.1917 41.1641 38.5033 40.9216 38.696C40.6791 38.8949 40.2751 39.1809 40.0203 39.3425C39.7653 39.4979 39.2302 39.7772 38.8386 39.9636C38.4469 40.1501 37.8005 40.4177 37.4089 40.5544C37.0173 40.6911 36.4023 40.8717 36.0417 40.9587C35.6812 41.0457 35.2888 41.1325 35.1706 41.1511C35.0525 41.1698 34.8845 41.2008 34.7976 41.2195C34.7108 41.2381 34.5993 41.2624 34.5495 41.281C34.4998 41.2934 34.12 41.3494 33.7097 41.3992C33.2994 41.4489 32.6717 41.5179 32.3113 41.5427C31.9507 41.5676 31.2791 41.5925 30.8191 41.5925C30.3591 41.5925 29.7871 41.5676 29.5447 41.5427C29.3022 41.5116 28.8855 41.4492 28.612 41.3933C28.3384 41.3435 27.8473 41.2196 27.5242 41.114C27.2009 41.0083 26.7968 40.8647 26.6228 40.7839C26.4549 40.7093 26.1873 40.598 26.032 40.5359C26.0133 40.5276 25.9919 40.5155 25.9665 40.5036C25.9596 40.4971 25.9503 40.4911 25.9392 40.4851C25.9341 40.4825 25.928 40.4827 25.9226 40.4812C25.7295 40.3884 25.4087 40.2276 25.1306 40.0759C24.7887 39.8832 24.2976 39.5908 24.0427 39.4167C23.7878 39.2427 23.4209 38.988 23.2283 38.8513C23.0355 38.7207 22.5078 38.2787 22.0603 37.8747C21.6127 37.4769 21.2458 37.1042 21.2458 37.0544C21.2459 37.0045 21.3136 36.7873 21.3943 36.5701C21.4751 36.3587 21.6003 35.9912 21.6687 35.7488C21.7433 35.5061 21.8737 34.9466 21.9607 34.5056C22.0477 34.0644 22.1348 33.5983 22.1472 33.4802C22.1659 33.3618 22.2215 32.8025 22.2712 32.237C22.321 31.6714 22.364 31.0933 22.364 30.9441V30.6833C21.9041 30.6398 21.413 30.6144 20.9656 30.6081L20.1579 30.5896C20.0958 31.839 20.0452 32.4546 20.0017 32.7654C19.9644 33.0761 19.8777 33.6356 19.8093 34.0085C19.741 34.3814 19.6102 34.9282 19.5232 35.2204C19.4361 35.5126 19.2123 36.0785 19.032 36.4763C18.8455 36.8803 18.697 37.2476 18.697 37.2849C18.6967 37.3291 18.6405 37.5209 18.5662 37.7068C18.4978 37.8932 18.2988 38.3288 18.1247 38.6706C17.957 39.0124 17.6402 39.5593 17.4226 39.8826C17.2051 40.2057 16.8443 40.6969 16.6267 40.9704C16.4091 41.2439 15.9051 41.8034 15.5134 42.2136C15.1218 42.6238 14.5434 43.2515 14.2263 43.612C13.903 43.9726 13.4308 44.5511 13.1697 44.8992C12.9086 45.241 12.5919 45.7322 12.4675 45.987C12.3432 46.2357 12.2063 46.5776 12.1628 46.7517C12.1007 47.0003 12.1003 47.2552 12.1687 47.9949C12.2122 48.5043 12.2558 48.9828 12.2683 49.0515C12.2807 49.1199 12.3865 50.1392 12.5046 51.3201C12.6227 52.5011 12.7346 53.6639 12.7595 53.9001C12.7782 54.1363 12.8096 54.4596 12.822 54.615C12.8407 54.7704 12.8837 55.1127 12.9148 55.3738C12.952 55.6409 12.9647 55.8896 12.946 55.9206C12.9259 55.9578 12.5595 55.9822 12.0447 55.9822C11.53 55.9822 11.1637 55.9578 11.1433 55.9206C11.1246 55.8896 11.1001 55.7523 11.0876 55.6218C11.0752 55.4974 11.0185 55.156 10.9626 54.864C10.9129 54.5718 10.8573 54.2665 10.8386 54.1794C10.8197 54.0914 10.6949 53.6194 10.5583 53.1228C10.4215 52.6255 10.1675 51.8298 9.99974 51.3513C9.83189 50.8727 9.56434 50.1453 9.40892 49.7351C9.24731 49.3249 9.09137 48.9333 9.06029 48.865C9.02903 48.7961 8.88673 48.4478 8.74389 48.0876C8.60093 47.7272 8.45145 47.3544 8.40795 47.2488C8.39491 47.2211 8.38128 47.1859 8.36498 47.1472C8.36514 47.1456 8.36367 47.1436 8.364 47.1423C8.36716 47.126 8.36171 47.1175 8.35131 47.115C8.30851 47.0115 8.25871 46.8865 8.22142 46.7829C8.1655 46.6276 8.07879 46.3788 8.02904 46.2234C7.97931 46.068 7.91071 45.8623 7.87962 45.7566C7.84863 45.6506 7.83596 45.3714 7.84837 45.1355C7.86697 44.8938 7.91628 44.6644 7.9597 44.6199C7.997 44.5763 8.01582 44.5384 7.99095 44.5447C7.96053 44.5435 8.01067 44.376 8.0974 44.1716C8.18447 43.9665 8.33945 43.6496 8.44506 43.4695C8.55696 43.2954 8.719 43.0339 8.81224 42.8972C8.84596 42.8477 8.88929 42.7754 8.9392 42.6931C8.96051 42.681 8.98114 42.6601 8.99779 42.6296C9.01172 42.6046 9.02119 42.5771 9.02514 42.5515C9.09044 42.44 9.15788 42.3207 9.21556 42.2136C9.35213 41.9715 9.48891 41.7604 9.52025 41.7351C9.55746 41.7103 9.57027 41.6854 9.54564 41.6853C9.51456 41.6853 9.56409 41.5426 9.65111 41.3747C9.69572 41.2855 9.75428 41.1486 9.81322 41.0007C9.88196 40.8514 9.9303 40.7364 9.93041 40.7214C9.93041 40.7185 9.92683 40.7136 9.92162 40.7058C9.93715 40.6618 9.95518 40.6197 9.96849 40.5788C10.0555 40.3179 10.1422 40.0321 10.1609 39.9451C10.1733 39.8581 10.2106 39.5661 10.2292 39.2927C10.2541 39.0192 10.2545 38.5585 10.2234 38.2663C10.1985 37.9741 10.1053 37.3716 10.0183 36.9304C9.93128 36.4892 9.76301 35.7744 9.65111 35.3454C9.53922 34.9166 9.26588 33.8659 9.03588 33.0144C8.81207 32.1566 8.53867 31.0556 8.4392 30.5583C8.33975 30.0612 8.23971 29.5887 8.22728 29.5017C8.20861 29.4144 8.17176 29.1909 8.13451 29.0046C8.09721 28.8181 8.05355 28.4949 8.0349 28.2898C8.01625 28.0846 7.98492 27.6931 7.95384 27.4197C7.92899 27.1462 7.91089 26.6864 7.91087 26.3943C7.91087 26.1022 7.93484 25.6172 7.9597 25.3064C7.98457 24.9956 8.06612 24.498 8.13451 24.1872C8.20289 23.8765 8.28959 23.5406 8.32689 23.4411C8.36424 23.3416 8.48265 23.0623 8.59447 22.8201C8.70016 22.5776 8.91109 22.204 9.06029 21.9802C9.20952 21.7564 9.51426 21.3834 9.73803 21.1472C9.96185 20.911 10.3475 20.5755 10.5837 20.3952C10.82 20.2212 11.2555 19.9351 11.5476 19.7673C11.8397 19.6057 12.2869 19.3821 12.5417 19.2702C12.7966 19.1646 13.3191 18.9717 13.6921 18.8474C14.0651 18.7293 14.6746 18.5555 15.0476 18.4685C15.4144 18.3815 16.0861 18.2507 16.5398 18.1824C17.1922 18.0767 17.5095 18.0579 18.1062 18.0827C18.5165 18.1076 19.1881 18.1635 19.5984 18.2195C20.0087 18.2754 20.7665 18.4003 21.2761 18.4997C21.792 18.5992 22.4762 18.7357 22.7995 18.8103C23.1228 18.8787 23.4586 18.9537 23.5456 18.9724C23.6329 18.9911 24.1922 19.0965 24.7888 19.2146C25.3855 19.3327 26.2806 19.4938 26.7781 19.5808C27.2753 19.6678 28.1831 19.7985 28.7986 19.8669C29.414 19.9353 30.5893 20.022 31.4099 20.0593C32.2305 20.0966 33.1696 20.1033 33.4929 20.0847C33.8162 20.066 34.363 20.0224 34.7048 19.9851C35.0467 19.954 35.6375 19.8669 36.0105 19.7986C36.3835 19.7364 36.9617 19.6121 37.2849 19.5251L37.8757 19.3757C39.0816 19.8108 39.697 20.0104 40.0203 20.0974C40.3431 20.1843 40.6537 20.2649 40.7038 20.2712C40.7536 20.2837 41.1208 20.3393 41.5124 20.3952C41.718 20.4246 41.9887 20.4484 42.2898 20.4675C42.2929 20.4795 42.3063 20.486 42.3328 20.488C42.3537 20.488 42.3793 20.4826 42.407 20.4753C42.712 20.4926 43.0426 20.5046 43.365 20.5076C43.9894 20.5137 44.5093 20.5074 44.5271 20.489C44.5395 20.4704 44.6394 20.4513 44.7576 20.4451C44.8695 20.4388 45.155 20.4013 45.3972 20.364C45.6396 20.3205 46.0815 20.2215 46.3923 20.1345C46.7032 20.0475 47.1198 19.9165 47.3249 19.8357C47.5301 19.7611 47.9899 19.55 48.3503 19.3699C48.7108 19.1897 49.208 18.9098 49.4568 18.7419C49.698 18.5749 49.9336 18.4386 49.9665 18.4372C49.9976 18.4372 50.029 18.4185 50.029 18.3874C50.0295 18.3624 50.104 18.3 50.197 18.238C50.2965 18.182 50.5078 18.0024 50.6755 17.8347C50.8434 17.6731 51.1044 17.368 51.2536 17.1628C51.409 16.9577 51.6889 16.5231 51.8816 16.1999C52.0743 15.8768 52.4845 15.081 52.8015 14.4285C53.1123 13.7758 53.585 12.7557 53.8523 12.1589C54.1134 11.5621 54.6915 10.3437 55.1267 9.45482C55.5681 8.56597 56.1035 7.57784 56.321 7.25462C56.551 6.90661 56.8429 6.56455 57.0232 6.42162C57.1973 6.28485 57.5887 6.04831 57.8933 5.89915C58.1979 5.74997 58.8013 5.52063 59.2302 5.37767C59.6592 5.24092 60.2867 5.04131 60.6286 4.92943C60.9705 4.81757 61.4616 4.62539 61.7165 4.49486C61.9711 4.36449 62.2321 4.26464 62.2947 4.26439C62.3504 4.26439 62.3998 4.23385 62.4001 4.20287C62.4001 4.16557 62.5499 3.99091 62.7302 3.80443C62.985 3.54353 63.128 3.45029 63.3953 3.37572C63.5816 3.32602 63.8363 3.26355 63.9607 3.24486ZM8.83471 54.6326C8.84612 54.648 8.85894 54.6549 8.87377 54.6462C8.87998 54.6425 8.88465 54.6436 8.88744 54.6492C8.88522 54.6497 8.88229 54.6508 8.87963 54.6521C8.86034 54.6583 8.84554 54.6504 8.83471 54.6326ZM44.9001 53.322C44.925 53.4525 44.9501 53.4588 45.4285 53.3718V53.3786L45.1804 53.4206C44.9504 53.4641 44.925 53.4584 44.9001 53.3279C44.898 53.3149 44.8936 53.3027 44.8894 53.2908C44.8933 53.3009 44.8974 53.3112 44.9001 53.322ZM44.1042 52.9988C44.2014 52.9988 44.2529 53.0043 44.28 53.0329C44.2515 53.0095 44.2011 53.0046 44.1111 53.0046C43.9992 53.0046 43.8808 53.0237 43.8435 53.0486C43.8062 53.0736 43.7687 53.2224 43.7624 53.3777C43.7612 53.3921 43.7589 53.4064 43.7576 53.4206C43.7619 53.2987 43.7621 53.1818 43.7566 53.154C43.7505 53.1229 43.7815 53.0734 43.8249 53.0486C43.8685 53.0237 43.9987 52.9988 44.1042 52.9988ZM44.7917 53.1853C44.7479 53.1871 44.6754 53.2293 44.6267 53.2839C44.5708 53.3336 44.4838 53.3776 44.4216 53.3777C44.3811 53.3777 44.3549 53.3633 44.3386 53.3327C44.3557 53.3594 44.3802 53.3718 44.4158 53.3718C44.4779 53.3778 44.5712 53.3339 44.6208 53.2781C44.6706 53.2223 44.7516 53.1791 44.7888 53.1853H44.7917ZM6.77904 21.2966C6.80389 21.2966 6.82298 21.3157 6.82298 21.3406C6.82225 21.3732 6.67889 21.7146 6.51146 22.1052C6.49825 22.136 6.48606 22.1687 6.4724 22.2019C6.4469 22.2099 6.42987 22.2224 6.42455 22.241C6.4116 22.2712 6.41183 22.3071 6.41869 22.3347C6.27272 22.7055 6.11703 23.1608 6.04564 23.4411C5.95861 23.783 5.84049 24.399 5.79076 24.8093C5.71 25.381 5.69755 25.8533 5.7224 26.8288C5.74726 27.5808 5.80896 28.4448 5.88353 28.9421C5.95191 29.4021 6.10722 30.2417 6.22533 30.8074C6.34966 31.373 6.55536 32.2682 6.69212 32.7966C6.82268 33.325 7.02102 34.0837 7.12669 34.4753C7.19296 34.7209 7.27661 35.0224 7.34642 35.2761C7.34782 35.2874 7.3476 35.2982 7.35033 35.3074C7.3537 35.3195 7.35986 35.3294 7.364 35.3386C7.37985 35.3963 7.39526 35.4507 7.40892 35.5007C7.40987 35.5252 7.41229 35.552 7.41869 35.5808C7.4354 35.6435 7.45664 35.7028 7.47142 35.741C7.53165 35.9678 7.58829 36.186 7.59935 36.2468C7.61186 36.3154 7.65523 36.4833 7.68626 36.6199C7.71732 36.7565 7.7617 36.9361 7.77415 37.0232C7.79281 37.1102 7.82387 37.2477 7.84251 37.3347C7.86116 37.4218 7.89226 37.5889 7.91087 37.7068C7.93575 37.8249 7.96645 38.1921 7.98509 38.5154C8.00995 38.8945 7.99086 39.2611 7.94115 39.5408C7.88522 39.8266 7.74908 40.1935 7.53783 40.5974C7.40728 40.845 7.20541 41.1989 7.03001 41.4988C6.96967 41.5988 6.90593 41.7063 6.84056 41.8093C6.67199 42.0796 6.58199 42.228 6.53978 42.3337C6.41571 42.5526 6.29654 42.771 6.21947 42.9285C6.19544 42.9776 6.17399 43.0298 6.15013 43.0808C6.13816 43.0979 6.12527 43.1151 6.114 43.1335C6.05186 43.2392 6.02016 43.313 6.0388 43.282C6.04279 43.2768 6.05042 43.275 6.06029 43.2761C5.97949 43.4582 5.91032 43.6216 5.88353 43.7058C5.84003 43.8425 5.7905 43.9978 5.77806 44.0476C5.76563 44.0973 5.70963 44.4206 5.6599 44.7624C5.57289 45.3279 5.57294 45.4338 5.6599 45.9431C5.71579 46.2536 5.77141 46.5336 5.78392 46.5652C5.79635 46.5962 5.82777 46.6707 5.84642 46.7204C5.86507 46.7702 5.99543 47.1248 6.13841 47.4978C6.27505 47.8704 6.38725 48.2304 6.38744 48.2868C6.38744 48.3552 6.19482 48.5415 5.94017 48.7341C5.6915 48.9144 5.27416 49.1888 5.01927 49.3318C4.76439 49.4809 4.37283 49.679 4.14915 49.7722C3.92535 49.8654 3.60838 49.9842 3.43431 50.0339C3.2665 50.0898 3.10468 50.1144 3.07982 50.0896C3.0551 50.0646 3.06149 49.9837 3.09251 49.9031C3.12977 49.8285 3.16663 49.6919 3.18529 49.5925C3.19772 49.4993 3.27316 49.1758 3.34154 48.865C3.40977 48.5549 3.47735 48.2632 3.48997 48.2126C3.50241 48.1629 3.53383 47.9762 3.55247 47.8083C3.57734 47.6343 3.621 47.3299 3.65208 47.1247C3.68932 46.92 3.7265 46.6965 3.739 46.6277C3.75143 46.5593 3.78835 46.3348 3.81322 46.1296C3.83794 45.9257 3.85724 45.7402 3.8513 45.7077C3.84509 45.6829 3.86319 45.558 3.89427 45.4275C3.92535 45.303 3.96938 44.8863 3.98802 44.5134C4.01289 44.1405 4.04395 43.6744 4.05638 43.488C4.07502 43.3009 4.08665 42.1635 4.08665 40.9704C4.09287 39.7708 4.08089 38.6519 4.06224 38.4841C4.04359 38.3099 4.01253 37.8062 3.99388 37.365C3.96902 36.9176 3.94382 36.4703 3.93138 36.3708C3.91895 36.2652 3.89437 35.9041 3.87572 35.5622C3.85704 35.2201 3.79457 34.4371 3.74486 33.822C3.69514 33.2067 3.6087 32.1318 3.56517 31.4294C3.50922 30.6587 3.47755 29.5021 3.48997 28.5076C3.50241 27.6003 3.52762 26.7178 3.55247 26.5495C3.57734 26.3755 3.62686 26.1267 3.65794 25.99C3.68903 25.8532 3.73242 25.6853 3.74486 25.6169C3.7635 25.5486 3.79456 25.4058 3.81322 25.3064C3.83187 25.2007 3.86977 25.0884 3.88841 25.0574C3.91322 25.0261 3.93753 24.9391 3.94994 24.8708C3.96248 24.8023 4.07443 24.523 4.20482 24.2497C4.32915 23.9762 4.57861 23.5407 4.75267 23.2859C4.92671 23.0311 5.25578 22.6149 5.49193 22.3601C5.72813 22.1115 6.10112 21.763 6.32494 21.6013C6.54874 21.4335 6.74796 21.2966 6.77904 21.2966ZM50.0525 43.3806C50.0793 43.4441 50.0974 43.5142 50.0974 43.5691C50.0975 43.6364 50.1122 43.6959 50.1335 43.7243C50.1109 43.7001 50.0916 43.6407 50.0915 43.5691C50.0915 43.5122 50.0763 43.4433 50.0525 43.3806ZM2.87474 42.5242C2.89339 42.8971 2.93074 43.3204 2.9929 43.7058L2.94994 43.4568C2.93128 43.3198 2.89339 42.8978 2.87474 42.5251C2.86697 42.3931 2.85986 42.2851 2.85228 42.199V42.198C2.85987 42.2842 2.86696 42.3919 2.87474 42.5242ZM49.2595 43.5525C49.2581 43.5476 49.2569 43.5421 49.2556 43.5359C49.257 43.5419 49.2579 43.5475 49.2595 43.5525ZM28.7742 43.4548C28.7622 43.462 28.7518 43.4707 28.7439 43.4802C28.7503 43.471 28.7579 43.4624 28.7673 43.4568C28.7691 43.4557 28.7719 43.4558 28.7742 43.4548ZM28.2468 43.2361C28.2279 43.284 28.19 43.3177 28.1208 43.3523C28.0651 43.377 28.0172 43.3909 27.9753 43.3933C28.0105 43.3878 28.0526 43.3748 28.1023 43.3513C28.1819 43.3132 28.2259 43.2824 28.2468 43.2361ZM50.3523 43.2488C50.3279 43.2505 50.2988 43.2684 50.2781 43.3015C50.2653 43.3185 50.2552 43.3442 50.2458 43.3738C50.2489 43.3604 50.2491 43.348 50.2527 43.3386C50.2651 43.2827 50.3091 43.2458 50.3464 43.2458C50.3486 43.2459 50.3501 43.248 50.3523 43.2488ZM49.3826 43.2888C49.391 43.3086 49.4042 43.3263 49.4187 43.3406C49.4025 43.3266 49.3887 43.3074 49.3826 43.2888C49.3789 43.2803 49.375 43.2755 49.3718 43.2732C49.3754 43.2714 49.3788 43.2757 49.3826 43.2888ZM27.4158 43.1579C27.4096 43.1673 27.4077 43.1766 27.405 43.1833C27.4124 43.1637 27.4336 43.1307 27.4685 43.0915L27.4158 43.1579ZM49.8376 43.1482C49.8561 43.1566 49.8745 43.1668 49.8923 43.1785C49.8746 43.1669 49.8561 43.157 49.8376 43.1482ZM49.2273 42.5613V43.0896C49.2273 43.1088 49.2281 43.128 49.2283 43.1462C49.2243 42.999 49.2224 42.8066 49.2224 42.5574L49.2273 42.5613ZM28.0652 42.6804C28.1646 42.6804 28.2956 42.7241 28.364 42.78C28.4335 42.8311 28.4653 42.8891 28.4714 42.988L28.4558 42.9021C28.4395 42.8518 28.4104 42.8141 28.364 42.78C28.2956 42.7241 28.1646 42.6814 28.0652 42.6814C27.9696 42.6814 27.8526 42.7413 27.7195 42.8552C27.8528 42.741 27.9695 42.6804 28.0652 42.6804ZM48.823 39.7771C48.8234 39.7788 48.8255 39.7803 48.8259 39.782C48.8139 39.8613 48.7982 40.4912 48.7927 42.3103L48.7859 42.3074L48.7917 40.9831C48.7979 40.2626 48.8106 39.7158 48.823 39.7771ZM2.33763 42.1277C2.32064 42.1648 2.28059 42.1985 2.23412 42.2077C2.20445 42.2175 2.17151 42.2175 2.14232 42.2136C2.17162 42.2171 2.20531 42.2173 2.23412 42.2077C2.28082 42.1984 2.32078 42.1641 2.33763 42.1267V42.1277ZM49.7497 42.1208C49.833 42.1209 49.8785 42.1379 49.8962 42.1853C49.868 42.1423 49.7911 42.1267 49.6003 42.1267V42.1208H49.7497ZM2.35814 42.0486C2.35053 42.0603 2.34642 42.0739 2.34642 42.0896L2.35716 42.0486C2.36462 42.0368 2.37593 42.0271 2.39037 42.0193L2.35814 42.0486ZM2.04173 42.0261C2.03988 42.0021 2.03588 41.9774 2.03587 41.9529V41.946C2.03587 41.9732 2.03972 42.0002 2.04173 42.0261ZM2.76341 41.9216C2.71992 41.9651 2.61382 41.9968 2.51439 41.9968C2.48785 41.9968 2.46385 41.9978 2.4431 42.0017L2.51439 41.9958C2.61355 41.9958 2.71877 41.9649 2.76244 41.9216C2.76963 41.9136 2.7767 41.909 2.78294 41.9079C2.77681 41.909 2.77047 41.9138 2.76341 41.9216ZM3.46556 39.821C3.46556 40.8774 3.46498 40.8777 3.32201 40.8777C3.21299 40.8777 3.19165 40.8862 3.16185 41.4773C3.19167 40.8856 3.21283 40.8767 3.32201 40.8767C3.465 40.8767 3.46556 40.8768 3.46556 39.8201L3.4597 38.7673C3.46166 38.7664 3.46359 38.7654 3.46556 38.7644V39.821ZM49.4695 40.2927C49.4384 40.3238 49.4073 40.4917 49.4011 40.6658C49.3962 40.8193 49.3886 40.8776 49.3757 40.8386C49.3843 40.853 49.3908 40.7858 49.3953 40.6472C49.4015 40.4673 49.4384 40.3059 49.4695 40.2868C49.4743 40.284 49.4772 40.2766 49.4822 40.2673C49.4774 40.2782 49.4741 40.2872 49.4695 40.2927ZM49.364 40.7839C49.3648 40.7915 49.3671 40.7984 49.3679 40.8044C49.3671 40.7999 49.3649 40.795 49.364 40.7898C49.3627 40.7779 49.3595 40.767 49.3581 40.7566C49.3596 40.7653 49.3626 40.7742 49.364 40.7839ZM48.9421 40.5954C48.9703 40.6223 49.023 40.6219 49.1277 40.616C49.2256 40.6065 49.2786 40.6071 49.3103 40.6316C49.2781 40.6102 49.2243 40.6099 49.1277 40.616C49.0193 40.6255 48.9679 40.6274 48.9421 40.5954ZM49.5622 39.7722C49.5565 39.788 49.5497 39.8379 49.5437 39.9197C49.542 39.9658 49.5386 40.012 49.5329 40.0554C49.5369 40.0149 49.5378 39.9712 49.5378 39.9265C49.5461 39.728 49.5467 39.6646 49.5622 39.7722ZM48.9001 39.8601C48.9428 39.8756 49.0053 39.8825 49.0964 39.8826C49.229 39.8826 49.2945 39.8905 49.324 39.9245C49.2921 39.8956 49.2267 39.8884 49.1023 39.8884C49.0067 39.8884 48.9428 39.879 48.9001 39.8601ZM1.96751 38.8689C1.99967 38.9385 2.02498 39.0044 2.03197 39.0329C2.02482 39.0043 1.9995 38.9397 1.96751 38.8757C1.93647 38.8067 1.92416 38.7756 1.93138 38.7761C1.9306 38.784 1.94162 38.8142 1.96751 38.8689ZM3.27904 38.8572C3.22617 38.882 3.1651 38.9045 3.10912 38.9216L3.03392 38.9411C3.09939 38.9258 3.19762 38.8889 3.34837 38.8191L3.27904 38.8572ZM57.738 2.18822C58.1296 2.16958 58.6081 2.18255 58.7947 2.21361C58.9812 2.24469 59.373 2.33202 59.6589 2.41283C59.9511 2.49363 60.2313 2.58611 60.281 2.62962C60.3616 2.68556 60.1685 2.76672 59.2615 3.05247C58.646 3.25139 57.9304 3.49403 57.6755 3.59349C57.4208 3.69292 56.9861 3.89137 56.7126 4.02806C56.4391 4.16481 56.0467 4.39486 55.8415 4.53783C55.6364 4.68702 55.3197 4.97368 55.1394 5.17259C54.9591 5.3715 54.6605 5.76245 54.4802 6.03587C54.2999 6.30938 53.9832 6.83833 53.7781 7.21751C53.5667 7.5967 53.2248 8.26837 53.0134 8.7097C52.802 9.15122 52.3297 10.1892 51.9568 11.0095C51.5838 11.83 51.105 12.8806 50.8874 13.3406C50.6699 13.8003 50.3341 14.4585 50.1413 14.8005C49.9486 15.1424 49.662 15.597 49.5066 15.8083C49.3449 16.0321 49.0156 16.3549 48.7361 16.5661C48.475 16.7651 47.9648 17.0824 47.6042 17.2751C47.2437 17.4616 46.7031 17.7043 46.3923 17.8161C46.0816 17.9218 45.5535 18.071 45.2117 18.1394C44.702 18.2513 44.3782 18.2757 43.3777 18.282C42.6256 18.282 41.9912 18.2506 41.699 18.2009C41.4441 18.1512 41.0086 18.058 40.7351 17.9958C40.4616 17.9275 40.02 17.8032 39.7527 17.7224C39.4922 17.6356 39.2816 17.5427 39.2869 17.5115C39.2993 17.4742 40.5489 16.1813 42.072 14.6335C43.595 13.0859 45.0179 11.5812 45.2419 11.2888C45.4595 10.9966 45.7957 10.5674 45.9822 10.3249C46.1749 10.0825 46.5476 9.63523 46.821 9.3308C47.0883 9.02624 47.5859 8.47941 47.9216 8.11888C48.2573 7.75835 48.8603 7.16727 49.2644 6.80052C49.6685 6.44 50.2223 5.96142 50.4958 5.74388C50.7694 5.52007 51.2418 5.15346 51.5525 4.92357C51.8634 4.68734 52.4605 4.28359 52.8894 4.01634C53.3184 3.75527 54.0081 3.36339 54.4245 3.15208C54.8471 2.94705 55.375 2.6982 55.6052 2.61107C55.8414 2.52404 56.2526 2.40015 56.5261 2.33177C56.806 2.26963 57.3403 2.20064 57.738 2.18822ZM67.1277 7.96849C67.1314 8.01767 67.1838 8.0829 67.2497 8.11888C67.2573 8.12268 67.2656 8.12457 67.2732 8.12767C67.2657 8.12478 67.2574 8.12343 67.2497 8.11986C67.1816 8.08267 67.1251 8.02047 67.1247 7.98314C67.1241 7.9789 67.1271 7.97394 67.1277 7.96849ZM66.5036 7.54954C66.4816 7.59224 66.4807 7.62249 66.4978 7.64427C66.4792 7.6221 66.4801 7.59257 66.5036 7.54954ZM66.8513 6.96947C66.8612 7.02884 66.8512 7.08605 66.8152 7.15306C66.8302 7.12019 66.8407 7.08746 66.8464 7.05247L66.8513 6.96947Z" fill="#311C11"/>
<g clip-path="url(#clip0_971_89203)">
<path d="M31.9992 26C35.3129 26 37.9992 28.6863 37.9992 32C37.9992 35.3137 35.3129 38 31.9992 38C28.6855 38 25.9992 35.3137 25.9992 32C25.9992 28.6863 28.6855 26 31.9992 26ZM35.4992 29.5C35.223 29.2239 34.7753 29.2239 34.4992 29.5L31.7062 32.293C31.3157 32.6834 30.6827 32.6834 30.2922 32.293L29.4992 31.5C29.223 31.2239 28.7753 31.2239 28.4992 31.5C28.2231 31.7761 28.2231 32.2239 28.4992 32.5L30.2922 34.293C30.6827 34.6834 31.3157 34.6834 31.7062 34.293L35.4992 30.5C35.7753 30.2239 35.7753 29.7761 35.4992 29.5Z" fill="#16A500"/>
</g>
<defs>
<clipPath id="clip0_971_89203">
<rect width="12" height="12" fill="white" transform="translate(25.9992 26)"/>
</clipPath>
</defs>
</svg>
