<svg width="72" height="63" viewBox="0 0 72 63" fill="none" xmlns="http://www.w3.org/2000/svg">
<path d="M57.7693 0.00688062C57.0793 0.0193157 56.5504 0.0625312 56.2458 0.130904C55.9909 0.186895 55.5249 0.317629 55.2204 0.417037C54.9158 0.516511 54.2568 0.796696 53.7595 1.03911C53.2622 1.28153 52.622 1.61704 52.3298 1.79106C52.0376 1.96512 51.4343 2.34426 50.9929 2.64262C50.5515 2.93481 49.7812 3.50073 49.2839 3.89848C48.7866 4.29631 48.1393 4.84923 47.8347 5.12895C47.5369 5.40195 47.3071 5.65645 47.3249 5.69438C47.3255 5.69549 47.3256 5.69695 47.3259 5.69829C47.3217 5.6974 47.3171 5.69536 47.3122 5.69536C47.2803 5.69031 47.1126 5.84514 46.9392 6.03715C46.7962 6.1851 46.6745 6.32265 46.6296 6.38188C46.5628 6.42012 46.462 6.49392 46.362 6.58989C46.2066 6.73285 45.8268 7.13021 45.5222 7.46587C45.2114 7.80769 44.7207 8.37974 44.4284 8.74028C44.1364 9.10065 43.7197 9.62871 43.4958 9.92094C43.2658 10.2255 41.6426 11.923 39.6159 13.9805C37.2599 16.3673 36.0723 17.5239 35.948 17.5674C35.8477 17.5986 35.4502 17.6733 35.0779 17.7354C34.5247 17.8286 34.0331 17.8467 32.4978 17.8467C31.0992 17.8467 30.3407 17.8162 29.6072 17.7354C29.0601 17.6732 28.1523 17.5548 27.5867 17.4678C27.0209 17.3808 25.877 17.1695 25.0378 17.0079C24.1986 16.84 23.0547 16.6035 22.489 16.4854C21.9233 16.3673 20.978 16.1994 20.3874 16.1123C19.803 16.0253 18.9078 15.9201 18.3982 15.8829C17.7394 15.8332 17.3412 15.839 16.9558 15.8887C16.6635 15.926 16.0484 16.0254 15.5886 16.1123C15.1286 16.1994 14.5252 16.3242 14.2517 16.3926C13.9781 16.461 13.4439 16.6164 13.071 16.7344C12.698 16.8587 12.1503 17.0577 11.8581 17.1758C11.5661 17.2939 11.1189 17.4985 10.864 17.629C10.4226 17.8465 10.3598 17.8596 9.6511 17.8907C9.01106 17.9217 8.80569 17.9587 8.22142 18.1514C7.84838 18.2758 7.17679 18.5618 6.72923 18.7793C6.28168 19.0031 5.72227 19.3137 5.48607 19.4815C5.24983 19.6493 5.0136 19.8486 4.9763 19.9356C4.93275 20.0164 4.83309 20.1283 4.75853 20.1905C4.67776 20.2463 4.5845 20.2771 4.55345 20.2647C4.5209 20.2478 4.2359 20.4957 3.93236 20.8116C3.62151 21.1286 3.21066 21.6142 3.02415 21.8877C2.8315 22.1612 2.59563 22.5402 2.48997 22.7266C2.38428 22.9131 2.21577 23.2615 2.11009 23.504C2.00442 23.7465 1.83095 24.2494 1.72533 24.6221C1.61342 24.9951 1.47633 25.673 1.40794 26.1143C1.34577 26.5556 1.27132 27.3826 1.25267 27.9483C1.22781 28.514 1.24662 29.5772 1.28392 30.3106C1.32124 31.0443 1.43935 32.7099 1.5388 34.0088C1.63824 35.3077 1.74952 36.8736 1.78685 37.4893C1.82415 38.1047 1.86169 38.8886 1.8679 39.2305C1.8679 39.6715 1.88087 39.7274 1.8933 39.4356C1.9054 39.1874 1.93445 39.0347 1.97044 39.044C1.92927 39.0499 1.91185 39.5137 1.91185 40.3799C1.91185 41.2485 1.93619 41.7453 1.97337 41.7471C1.97633 41.7471 1.97826 41.7504 1.98119 41.752C1.9566 41.7779 1.92209 41.952 1.89915 42.1641C1.86806 42.4003 1.84935 42.7801 1.84935 43.0225C1.84929 43.2654 1.80565 43.9486 1.74974 44.545C1.70001 45.1416 1.60035 45.9928 1.53197 46.4405C1.46981 46.8879 1.35231 47.5408 1.28392 47.9014C1.20933 48.2619 1.06023 48.9148 0.942123 49.3624C0.82402 49.8098 0.549965 50.6799 0.338608 51.3077C0.127319 51.929 -0.0220566 52.4578 0.00267029 52.4893C0.0337524 52.5142 0.618347 52.5323 1.30833 52.5323C2.30266 52.5323 2.66976 52.5079 3.06126 52.4209C3.33468 52.3588 3.82587 52.2219 4.14915 52.1163C4.47227 52.0168 5.05054 51.7809 5.42357 51.6006C5.79656 51.4204 6.38136 51.0842 7.32005 50.4502L7.48802 50.8858C7.58743 51.1218 7.67445 51.3139 7.6931 51.3077C7.71175 51.3077 7.75576 51.3083 7.78685 51.3145C7.81744 51.3209 7.81731 51.3454 7.77415 51.3702C7.7182 51.4012 7.78684 51.6875 8.04173 52.4707C8.22794 53.0479 8.4016 53.5693 8.42064 53.6202C8.43927 53.6699 8.46386 53.7757 8.4763 53.8565C8.48874 53.9311 8.54535 54.0434 8.6013 54.1055C8.66937 54.1737 8.68122 54.2171 8.63157 54.2295C8.59455 54.236 8.57604 54.2855 8.59446 54.335C8.61306 54.3846 8.66887 54.4285 8.71849 54.4288C8.73891 54.4288 8.75743 54.4393 8.77317 54.4551C8.75877 54.4429 8.74299 54.4347 8.72532 54.4346C8.65696 54.4346 8.64439 54.4591 8.69407 54.5274C8.7251 54.577 8.73148 54.6518 8.70677 54.6954C8.67782 54.7491 8.68758 54.7595 8.73704 54.7266C8.79919 54.6955 8.80619 54.7328 8.77513 54.8819C8.75649 54.9937 8.74968 55.068 8.76829 55.0557C8.77804 55.041 8.80917 54.9734 8.84056 54.8916C8.7868 55.0312 8.75005 55.1738 8.74974 55.2051C8.74974 55.2362 8.78142 55.2116 8.82493 55.1495C8.86847 55.0874 8.94295 55.0498 8.98021 55.0684C9.02361 55.0932 9.06106 55.1555 9.06126 55.2051C9.06126 55.2548 9.02982 55.2988 8.99876 55.2989C8.96781 55.2989 8.93652 55.2618 8.93626 55.2247C8.93626 55.1709 8.91603 55.1745 8.87474 55.2364C8.84367 55.2861 8.81227 55.3919 8.81224 55.4727C8.81224 55.5473 8.84365 55.622 8.87474 55.6407C8.91175 55.6589 8.91806 55.6093 8.89329 55.504C8.86221 55.3734 8.86859 55.3426 8.92454 55.3799C8.9678 55.4051 8.99876 55.4798 8.99876 55.5479C8.99862 55.6161 8.96727 55.6846 8.93626 55.7032C8.90532 55.7224 8.87478 55.8336 8.87474 55.9512C8.87474 56.0693 8.89968 56.1751 8.92454 56.1875C8.93793 56.1906 8.95256 56.2125 8.96751 56.2452C8.9735 56.3841 8.98605 56.5084 9.01048 56.5479C9.01892 56.562 9.02719 56.5682 9.03294 56.5704C9.02795 56.5805 9.01728 56.5711 8.99876 56.542C8.96146 56.4799 8.93626 57.176 8.93626 60.7999L10.7702 62.6338H14.1277L14.0906 62.3047C14.0879 62.2798 14.0839 62.2536 14.0798 62.2276C14.0974 62.3293 14.1157 62.4544 14.1335 62.6084L14.6618 62.6397V62.6338H15.6511C16.2725 62.6338 16.6452 62.6086 16.6452 62.5713C16.6447 62.538 16.5333 62.0541 16.4031 61.4961C16.2725 60.9429 15.9618 59.6563 15.2781 56.7911L14.8425 52.4825C14.6063 50.1205 14.382 47.9571 14.3572 47.6836C14.3075 47.2613 14.3137 47.1552 14.407 46.9688C14.4693 46.8505 14.6812 46.5399 14.8738 46.2852C15.0728 46.0302 15.5083 45.5086 15.8376 45.1358C16.1733 44.7628 16.7453 44.1289 17.112 43.7374C17.4851 43.3457 17.9819 42.7854 18.2243 42.4932C18.4668 42.201 18.8528 41.6982 19.0827 41.375C19.3065 41.0518 19.6604 40.4736 19.8718 40.1006C20.083 39.728 20.2627 39.3862 20.2693 39.3545C20.2817 39.3235 20.5437 39.504 20.8484 39.7588C21.153 40.0199 21.5691 40.3555 21.7742 40.5108C21.9793 40.6724 22.4956 41.0266 22.9245 41.3125C23.3535 41.5923 24.1742 42.0527 24.7585 42.3448C25.3553 42.6369 26.1881 42.9849 26.6667 43.1465C27.139 43.3019 27.5678 43.4257 27.6179 43.4258C27.6674 43.4258 27.6985 43.3952 27.6804 43.3643C27.6618 43.3332 27.6867 43.3018 27.7302 43.3018C27.7737 43.302 27.8359 43.3333 27.8669 43.3643C27.8172 43.3332 27.748 43.3089 27.7107 43.3213C27.6799 43.3278 27.6742 43.3652 27.699 43.4024C27.7244 43.4396 27.842 43.4889 27.9597 43.5137C28.1213 43.5448 28.2147 43.5262 28.3142 43.4454C28.3753 43.3964 28.4157 43.3281 28.4411 43.2452C28.4155 43.3267 28.3763 43.4008 28.3327 43.4444C28.2272 43.5312 28.2273 43.5563 28.3015 43.5811C28.3512 43.5997 28.4823 43.6124 28.5818 43.6124C28.687 43.6123 28.755 43.5879 28.737 43.5508C28.727 43.534 28.7283 43.5133 28.7361 43.4952C28.7228 43.5328 28.7514 43.5905 28.7986 43.6319C28.8545 43.6692 28.8985 43.688 28.8923 43.6631C28.8923 43.6321 28.948 43.6448 29.0163 43.6758C29.1158 43.7256 29.1406 43.7124 29.1531 43.6192C29.1537 43.6152 29.1527 43.6113 29.1531 43.6075C29.1834 43.6715 29.2865 43.7202 29.489 43.7559C29.6568 43.7808 30.2543 43.7989 30.82 43.7989C31.3858 43.7989 32.2128 43.7684 32.654 43.7374C33.0954 43.7001 33.7849 43.6312 34.1765 43.5752C34.5681 43.5193 35.2271 43.407 35.6374 43.3262C36.0477 43.2454 36.7319 43.0775 37.1609 42.9532C37.5896 42.8289 38.2047 42.6308 38.5281 42.5127C38.8513 42.3884 39.4116 42.1523 39.7722 41.9844C40.1326 41.8166 40.648 41.5429 40.9216 41.375C41.1952 41.2134 41.6371 40.9213 41.8982 40.7286C42.1653 40.536 42.3952 40.3989 42.4079 40.4297C42.4204 40.4546 42.4514 40.6659 42.4763 40.9082C42.495 41.1507 42.6005 42.009 42.6999 42.8233C42.7994 43.6313 42.9734 44.8929 43.0915 45.6202C43.2283 46.4469 43.3273 47.3795 43.3708 48.1192C43.4081 48.7718 43.4644 49.8718 43.5017 50.5743C43.5328 51.2764 43.5826 52.0036 43.6013 52.1905C43.62 52.377 43.6388 52.7316 43.6326 52.9678C43.6263 53.204 43.6513 53.4716 43.6824 53.5586C43.7041 53.6142 43.7192 53.6455 43.7292 53.6514C43.7249 53.676 43.723 53.6941 43.7195 53.7012C43.7073 53.729 43.7253 54.2496 43.7624 54.8506C43.7997 55.459 43.8372 56.0242 43.8435 56.1124C43.8544 56.1886 43.9104 56.272 43.9822 56.3213C43.9267 56.2942 43.8601 56.2612 43.782 56.2188L43.8249 56.5547C43.8498 56.735 43.8811 57.0456 43.906 57.6045L44.1443 57.5625C44.1018 57.5698 44.0608 57.5786 44.03 57.587C43.9616 57.6118 43.893 57.6866 43.8806 57.7549C43.867 57.8412 43.8629 57.8636 43.9031 57.8311C43.9059 57.8799 43.9134 57.9161 43.9187 57.9161C43.9239 57.9153 43.9502 57.8908 43.9861 57.8594C43.9254 57.9186 43.8751 57.9917 43.8747 58.0342C43.8747 58.0728 43.9046 58.1531 43.9529 58.2334C43.9274 58.2017 43.8986 58.167 43.8689 58.127V58.8291C43.8751 59.45 43.8873 59.5252 43.9802 59.5254C44.0424 59.5254 44.1607 59.4572 44.4031 59.2149V59.2159L44.2478 59.3711C44.1608 59.4582 44.0424 59.5264 43.9802 59.5264C43.9243 59.5265 43.8747 59.5705 43.8747 59.6202C43.8749 59.6697 43.9063 59.7245 43.9372 59.7432C43.8999 59.7246 43.8747 59.9111 43.8747 60.7999L44.4529 61.1983C44.7637 61.4221 45.3484 61.8318 46.4548 62.6211L47.2937 62.6338V62.4161C47.2937 62.2794 47.3253 62.1867 47.3874 62.168C47.3886 62.1676 47.3901 62.1674 47.3913 62.167C47.3432 62.1992 47.3163 62.2752 47.3064 62.4043C47.3002 62.5722 47.319 62.6348 47.3874 62.6348C47.4371 62.6346 47.4802 62.5781 47.4802 62.5098C47.4803 62.4416 47.5117 62.3858 47.5427 62.3858C47.5737 62.3859 47.6168 62.4417 47.6355 62.5098C47.6541 62.5782 47.7107 62.6348 47.7605 62.6348C47.7946 62.6347 47.8244 62.6131 47.8406 62.584C47.8444 62.6001 47.8497 62.6164 47.8533 62.6338H51.4597L51.3913 62.3418C51.354 62.174 51.1551 61.2851 50.9499 60.3653C50.7511 59.4456 50.4835 58.2397 50.3591 57.6924C50.2348 57.1454 50.116 56.5294 50.0974 56.3243C50.0788 56.119 50.0794 55.6405 50.1042 55.2676C50.1291 54.8944 50.185 52.6937 50.2409 50.3877C50.2907 48.0817 50.3279 46.1484 50.3279 46.0987C50.3279 46.0483 50.347 45.8061 50.3718 45.5704C50.3967 45.3339 50.4154 44.725 50.4216 44.2217C50.4271 43.7819 50.4099 43.3912 50.3894 43.2852C50.4062 43.3159 50.4206 43.3617 50.4275 43.4131C50.4399 43.5064 50.4519 43.2763 50.4519 42.9034C50.4581 42.5252 50.4457 42.2521 50.4333 42.294C50.4147 42.3375 50.3029 42.375 50.1599 42.375C50.0336 42.375 49.9704 42.3653 49.9392 42.337C49.9729 42.362 50.0366 42.3692 50.154 42.3692C50.2967 42.3692 50.4148 42.3384 50.4275 42.295C50.4461 42.2515 50.458 42.3944 50.4704 42.6182C50.4829 42.9474 50.4894 42.8847 50.5329 42.3067C50.5578 41.9148 50.6076 40.9334 50.6511 40.1319C50.6884 39.33 50.7324 38.4904 50.7449 38.2666C50.7573 38.043 50.7754 37.7139 50.7878 37.5274C50.8065 37.1917 50.807 37.1917 51.3913 36.626C51.7146 36.3152 52.1245 35.9043 52.2986 35.7178C52.4664 35.5313 52.7399 35.208 52.8952 35.003C53.0507 34.7978 53.3186 34.4189 53.4802 34.1641C53.6481 33.9091 53.9836 33.2752 54.2322 32.7657C54.4808 32.2497 54.8101 31.4785 54.9656 31.0372C55.121 30.602 55.2954 30.0054 55.3513 29.7071C55.4134 29.3424 55.4529 28.6422 55.4695 27.6065C55.4881 26.7487 55.513 25.8156 55.5378 25.5235C55.5565 25.2314 55.5995 24.8398 55.6306 24.6534C55.6803 24.3863 55.6741 24.2997 55.612 24.2686C55.5499 24.2313 55.5501 24.2188 55.6247 24.2188C55.6869 24.2185 55.7613 24.0498 55.8669 23.6709C55.948 23.3718 56.4271 21.9423 56.9304 20.4883C57.4339 19.0339 57.9866 17.4548 58.1482 16.9825C58.4279 16.1932 58.4848 16.0818 58.7956 15.7461C59.0132 15.51 59.2743 15.3174 59.5105 15.1993C59.7156 15.0998 60.0074 15.0001 60.1628 14.9815C60.3928 14.9504 60.5672 14.9935 61.1267 15.1924C61.506 15.3292 62.3014 15.6531 62.8982 15.9141C63.495 16.1752 64.1792 16.4916 64.4216 16.6221C64.7758 16.8085 64.9004 16.9205 65.1179 17.2373C65.2671 17.4549 65.5032 17.7412 65.6462 17.878C65.7955 18.0209 66.1931 18.2694 66.5349 18.4434C66.9078 18.6236 67.343 18.7917 67.6228 18.8477C67.915 18.9099 68.2758 18.9347 68.5867 18.9161C68.9099 18.9036 69.2459 18.8356 69.5505 18.7237C69.8054 18.6366 70.1843 18.4499 70.3894 18.3194C70.5945 18.1826 70.8928 17.9339 71.0544 17.7598C71.2222 17.5858 71.4092 17.325 71.4714 17.1758C71.5398 17.0329 71.6145 16.7588 71.6394 16.5723C71.6643 16.3858 71.7506 16.0499 71.8376 15.8262C71.9619 15.5032 71.9935 15.3044 71.9997 14.8321C72.006 14.4964 71.9684 14.1048 71.9187 13.9307C71.869 13.7567 71.7512 13.4648 71.6579 13.2784C71.5585 13.0857 71.2845 12.7497 71.0359 12.501C70.7872 12.2586 70.4201 11.8364 70.2087 11.5567C69.9974 11.277 69.5749 10.7108 69.2702 10.2881C68.9657 9.87179 68.5063 9.2317 68.2576 8.87114C68.0089 8.51061 67.7844 8.20584 67.7595 8.1934C67.7345 8.18125 67.6724 8.21866 67.6228 8.27446C67.5881 8.31328 67.5231 8.34416 67.4577 8.35844C67.5258 8.33731 67.5963 8.29638 67.6355 8.24419C67.6975 8.17602 67.7348 8.09511 67.7165 8.05766C67.7008 8.02617 67.6451 8.03076 67.572 8.06645C67.6025 8.0395 67.6228 8.01269 67.6228 7.99419C67.6226 7.95664 67.5731 7.84474 67.5173 7.7393L67.405 7.55278L67.2683 7.70805C67.2644 7.71225 67.2614 7.71739 67.2576 7.72172C67.3261 7.61969 67.3546 7.51394 67.3367 7.45415C67.2994 7.3613 67.2679 7.37435 67.1189 7.56059C67.0262 7.67086 66.9518 7.82449 66.9421 7.91508C66.9501 7.82602 67.0131 7.68401 67.0945 7.59087C67.1815 7.49141 67.2497 7.39724 67.2497 7.38481C67.2487 7.37641 67.2247 7.31501 67.1882 7.24809C67.1432 7.15322 67.119 7.14422 66.9783 7.28618C67.0333 7.2179 67.0688 7.16191 67.0691 7.13774C67.0691 7.0943 67.0448 7.00101 67.0076 6.93266C66.964 6.8705 66.9074 6.8145 66.8826 6.8145C66.8596 6.81503 66.8472 6.85291 66.8474 6.90825C66.8304 6.78511 66.7506 6.58367 66.6589 6.44047C66.5594 6.285 66.3356 5.95563 66.1492 5.70708C65.9696 5.46564 65.8212 5.24245 65.8201 5.21001C65.8201 5.18514 66.0378 4.70626 66.3113 4.14067C66.5785 3.57518 66.8891 2.84171 66.9949 2.5059C67.1005 2.17645 67.1882 1.88366 67.1882 1.85258C67.1864 1.82679 66.9749 1.68405 66.7087 1.52934C66.4416 1.38033 66.0817 1.2188 65.9138 1.16899C65.7398 1.12548 65.3105 1.06336 64.9499 1.03227C64.5148 0.994975 64.1206 0.999382 63.7683 1.04497C63.4761 1.08228 63.0718 1.15649 62.4939 1.32426L62.2146 1.13774C62.0592 1.03832 61.7421 0.864862 61.4997 0.752974C61.2574 0.634908 60.8533 0.472833 60.5984 0.385787C60.3436 0.305011 59.9207 0.187505 59.6658 0.13774C59.4109 0.0880114 59.1119 0.0313882 59.0124 0.01274C58.912 0.000335902 58.353 -0.0055375 57.7693 0.00688062ZM47.6365 62.2295C47.6824 62.2558 47.7256 62.3002 47.7644 62.3711C47.7426 62.3423 47.7186 62.3127 47.6921 62.2862C47.6627 62.2568 47.6293 62.2308 47.5964 62.209C47.61 62.2154 47.6237 62.2222 47.6365 62.2295ZM13.4206 61.9483C13.4493 62.0285 13.4828 62.1352 13.5251 62.2774C13.525 62.2822 13.5243 62.2872 13.5242 62.292L13.4372 62C13.4318 61.9817 13.4256 61.9645 13.4206 61.9483ZM13.9724 61.8438C14.0003 61.8893 14.0295 61.9723 14.0603 62.1221C14.0345 62.0027 13.9985 61.8915 13.9656 61.8379L13.9236 61.7862C13.9418 61.803 13.9585 61.8222 13.9724 61.8438ZM13.6081 61.7168C13.5706 61.7375 13.5527 61.7862 13.5417 61.9053C13.5469 61.7775 13.557 61.7329 13.6081 61.7168ZM13.3064 60.6641C13.3381 60.6807 13.3275 60.718 13.2947 60.8057C13.2574 60.8865 13.2322 61.0544 13.2322 61.1788C13.2322 61.3526 13.2073 61.3964 13.1081 61.3965C13.0149 61.3965 12.9831 61.4337 12.9831 61.5518C12.9831 61.5996 12.9876 61.6329 12.9997 61.6563C12.9837 61.6327 12.9773 61.5983 12.9773 61.5459C12.9773 61.4342 13.0084 61.3908 13.1013 61.3907C13.2008 61.3907 13.2263 61.3469 13.2263 61.1729C13.2263 61.0548 13.2567 60.8869 13.2878 60.7999C13.3184 60.7217 13.3302 60.6835 13.3064 60.6641ZM14.7322 61.6084C14.7512 61.6161 14.7633 61.6239 14.7702 61.6299C14.7626 61.6252 14.7515 61.6201 14.737 61.6143C14.7351 61.6133 14.7341 61.6099 14.7322 61.6084ZM13.9353 61.1602C14.0254 61.0139 14.0847 60.9645 14.1042 61.003C14.0789 60.9765 14.026 61.0276 13.9411 61.1602C13.848 61.3029 13.7423 61.3962 13.6677 61.3965C13.6254 61.3965 13.5974 61.3898 13.5788 61.3643C13.5973 61.3843 13.6227 61.3906 13.6609 61.3907C13.7355 61.3907 13.842 61.297 13.9353 61.1602ZM14.656 60.7168L14.4011 60.9112C14.2178 61.0556 14.1487 61.086 14.1228 61.042C14.1576 61.0762 14.264 61.0143 14.656 60.7071V60.7168ZM13.4314 58.5743C13.4872 58.8101 13.5552 59.065 13.574 59.1524C13.5926 59.2393 13.6175 59.3389 13.6238 59.3702C13.6362 59.4012 13.6611 59.5441 13.6921 59.6807C13.717 59.8175 13.7669 59.9673 13.7917 60.0108C13.8228 60.0481 13.8412 60.1161 13.8288 60.1534C13.8226 60.1906 13.8602 60.2401 13.9099 60.2588C13.9209 60.2632 13.9309 60.265 13.9392 60.2666C13.9326 60.2727 13.9252 60.2774 13.9158 60.2774C13.8786 60.2775 13.8542 60.3027 13.8542 60.3399C13.8544 60.3707 13.8788 60.3833 13.9158 60.3711C13.9184 60.3695 13.9219 60.3693 13.9245 60.3682C13.9108 60.3802 13.8933 60.3957 13.8728 60.4151C13.8416 60.4431 13.8053 60.464 13.7742 60.4756C13.7557 60.4764 13.7359 60.4782 13.7146 60.4786C13.7114 60.4772 13.7071 60.4789 13.7048 60.4766C13.6872 60.459 13.679 60.4617 13.6775 60.4786C13.6212 60.4787 13.556 60.4792 13.4812 60.4766C13.0709 60.4642 12.9831 60.4769 12.9831 60.5577C12.9832 60.5722 12.9879 60.5846 12.9949 60.5957C12.9846 60.5831 12.9774 60.5695 12.9773 60.5518C12.9773 60.4772 12.8654 60.4581 11.7029 60.4581L11.1745 59.9297V58.1582H13.3191L13.4314 58.5743ZM46.113 58.1582C48.0619 58.1582 48.2258 58.1706 48.2263 58.251C48.2263 58.3008 48.2324 58.3635 48.2449 58.3946C48.2573 58.4194 48.289 58.5372 48.3201 58.6553C48.3449 58.7733 48.376 58.9286 48.3884 58.9971C48.4008 59.0655 48.4196 59.1904 48.4382 59.2774C48.4569 59.3644 48.4879 59.4945 48.5066 59.5752C48.5252 59.6498 48.5494 59.7747 48.5681 59.8555C48.5868 59.9302 48.6182 60.0982 48.6306 60.2286L48.6618 60.4581L47.2009 60.4336C46.6725 60.0607 46.4238 59.892 46.3181 59.8174L46.113 59.6807V58.1582ZM13.9704 60.3829C13.975 60.391 13.9782 60.4014 13.9783 60.4141C13.9783 60.4264 13.9708 60.4356 13.9568 60.4444C13.963 60.4192 13.9675 60.3987 13.9704 60.3829ZM13.9968 60.1104C14.002 60.1104 14.0073 60.1123 14.0124 60.1163H14.0095C13.9836 60.1163 13.9655 60.1296 13.9568 60.1495C13.9608 60.1283 13.9751 60.1141 13.9968 60.1104ZM44.0486 58.8243C44.0188 58.8546 44.0892 58.9426 44.3767 59.1915L44.1853 59.0284C43.993 58.8671 43.9808 58.8361 44.0798 58.7989C44.0855 58.796 44.0925 58.796 44.0984 58.794C44.0789 58.8017 44.0606 58.8122 44.0486 58.8243ZM44.2576 58.8282C44.2916 58.8496 44.3298 58.8781 44.3718 58.9161C44.4604 58.9995 44.5405 59.0425 44.5749 59.0362C44.5312 59.0632 44.4689 59.0315 44.3786 58.9356C44.3396 58.8936 44.2962 58.8559 44.2576 58.8282ZM44.7234 58.9668C44.6855 58.9681 44.6198 58.993 44.5896 59.0293L44.5867 59.0303C44.5874 59.0295 44.589 59.0294 44.5896 59.0284C44.6082 58.9973 44.6648 58.9659 44.7146 58.9659C44.7175 58.9659 44.7205 58.9667 44.7234 58.9668ZM44.1247 58.0674C44.1254 58.1167 44.1546 58.172 44.1853 58.1905C44.2005 58.1996 44.2265 58.2014 44.2546 58.1993C44.2264 58.2025 44.2009 58.2016 44.1853 58.1954C44.1482 58.1765 44.1238 58.1208 44.1238 58.0713C44.1238 58.0701 44.1247 58.0687 44.1247 58.0674ZM44.2536 57.6622C44.3904 57.6622 44.4587 57.7057 44.5271 57.8487C44.5946 57.9837 44.6093 58.028 44.5486 58.1084C44.6054 58.0285 44.5927 57.9859 44.5212 57.8477C44.4342 57.6799 44.3971 57.6611 44.1609 57.6797C44.1549 57.6801 44.149 57.6803 44.1433 57.6807C44.1817 57.6695 44.2199 57.6622 44.2536 57.6622ZM44.198 58.084C44.1951 58.0898 44.1934 58.0956 44.1911 58.1006C44.1934 58.094 44.1947 58.0861 44.198 58.0782C44.2013 58.0716 44.2033 58.0648 44.2058 58.0586C44.2035 58.0665 44.2014 58.0754 44.198 58.084ZM44.1267 58.0411C44.1273 58.0377 44.1278 58.0344 44.1286 58.0313C44.1277 58.0345 44.1274 58.0378 44.1267 58.0411ZM44.2663 57.8916C44.3284 57.9165 44.3723 57.9787 44.3601 58.0284V58.0293C44.3636 57.9804 44.3266 57.9216 44.2663 57.8975C44.2006 57.8676 44.124 57.8779 44.074 57.9229C44.1237 57.8733 44.198 57.8606 44.2663 57.8916ZM44.3308 57.5489C44.4177 57.556 44.4716 57.5966 44.5652 57.6983C44.6483 57.7952 44.69 57.8751 44.7009 57.9659C44.6896 57.8779 44.6485 57.7976 44.571 57.711C44.5034 57.6278 44.4047 57.5644 44.3308 57.5489ZM44.1941 57.7315C44.1487 57.7449 44.0915 57.775 44.0408 57.8125C44.0852 57.7681 44.1479 57.7378 44.1941 57.7315ZM44.7195 56.292C44.748 56.3204 44.7702 56.3628 44.7947 56.4239C44.8185 56.4803 44.8494 56.5241 44.8826 56.5557C44.8469 56.5239 44.8141 56.478 44.7888 56.418C44.766 56.3611 44.7453 56.3202 44.7195 56.292ZM63.9617 3.24516C64.0859 3.22037 64.2038 3.22067 64.2224 3.2393C64.2469 3.25858 64.0982 3.62498 63.8933 4.05962C63.6881 4.50096 63.4886 4.99201 63.4451 5.16606C63.3953 5.40227 63.3891 5.53916 63.4451 5.72563C63.4886 5.87482 63.7315 6.23538 64.0486 6.627C64.3345 6.98746 64.5769 7.29843 64.5769 7.32329C64.5771 7.35451 64.6327 7.43537 64.7009 7.50981C64.7693 7.59061 64.8188 7.6776 64.8064 7.71489C64.7924 7.75198 64.4825 7.77088 64.0115 7.76469C63.5887 7.75848 63.2024 7.77108 63.1589 7.79594C63.1487 7.80128 63.1409 7.81325 63.1326 7.83208C63.1248 7.81912 63.1189 7.8145 63.1159 7.82036C63.116 7.82354 63.1176 7.838 63.1189 7.86723C63.0852 7.98848 63.0674 8.27319 63.0534 8.83403C63.0473 9.37982 63.0596 9.87611 63.0906 9.93364C63.1403 10.0331 63.2588 10.0459 64.1413 10.0459C64.6884 10.0459 65.174 10.0333 65.2175 10.0147C65.2732 9.98917 65.2852 9.78329 65.279 9.23735C65.2666 8.77133 65.2857 8.49126 65.323 8.49126C65.3604 8.49165 65.4532 8.61025 65.5339 8.75297C65.6148 8.90217 65.9568 9.42383 66.2986 9.92094C66.6405 10.4182 67.3748 11.4383 67.9343 12.1905C68.4938 12.9425 69.1279 13.7256 69.3454 13.9307C69.712 14.2723 69.7489 14.3286 69.78 14.6143C69.8049 14.8443 69.774 15.0128 69.6745 15.2676C69.6 15.4542 69.5071 15.7775 69.4636 15.9825C69.3891 16.3427 69.3758 16.3609 69.0466 16.5411C68.7793 16.684 68.6362 16.7221 68.3689 16.7159C68.1451 16.7096 67.8964 16.6529 67.654 16.5411C67.4489 16.454 67.2308 16.3304 67.1687 16.2745C67.1004 16.2185 67.0198 16.0818 66.9763 15.9825C66.9328 15.883 66.8024 15.6895 66.6843 15.5528C66.566 15.4222 66.2487 15.1675 65.9753 14.9873C65.7018 14.8071 65.2547 14.546 64.9812 14.4092C64.7077 14.2725 64.1169 14.0121 63.6755 13.8194C63.2342 13.6267 62.4073 13.3158 61.8415 13.1231C60.872 12.7937 60.7846 12.7751 60.2566 12.7813C59.865 12.7875 59.566 12.8365 59.2615 12.9297C59.0191 13.0105 58.7021 13.1351 58.5466 13.2159C58.3912 13.2905 58.0984 13.4772 57.8933 13.6202C57.6881 13.7694 57.3526 14.0619 57.1413 14.2793C56.9363 14.4968 56.6936 14.8007 56.6003 14.9561C56.5133 15.1114 56.3399 15.5157 56.2156 15.8575C56.0912 16.1993 55.712 17.2626 55.3826 18.2198C55.0469 19.1769 54.5558 20.6129 54.2947 21.4024C54.0336 22.198 53.7906 22.8506 53.7595 22.8506C53.7284 22.8506 53.697 22.8319 53.697 22.8008C53.6957 22.7744 53.5348 22.5452 53.3367 22.2852C53.1439 22.0303 52.79 21.6009 52.5476 21.3399C52.3052 21.0726 52.081 20.8679 52.0437 20.8741C52.0001 20.8866 51.633 21.2033 51.2165 21.5762C50.8023 21.9472 50.4682 22.2692 50.4646 22.2911C50.4646 22.3097 50.7013 22.5899 50.9997 22.9131C51.2918 23.2363 51.565 23.5657 51.6023 23.6465C51.6456 23.7208 51.6952 23.7828 51.7263 23.7832C51.7512 23.7832 51.7702 23.8147 51.7702 23.8457C51.7706 23.8771 51.8206 23.9635 51.8826 24.0254C51.9386 24.0878 52.1188 24.3929 52.2742 24.6973C52.4357 24.9956 52.6409 25.4552 52.7341 25.71C52.8274 25.9649 52.9581 26.413 53.0202 26.7051C53.101 27.0408 53.1565 27.5813 53.1814 28.1963C53.2125 28.992 53.2004 29.2352 53.1072 29.5957C53.0511 29.8383 52.8768 30.3538 52.7214 30.7452C52.566 31.1367 52.2859 31.7518 52.0993 32.1124C51.9129 32.4729 51.6026 33.0018 51.4099 33.294C51.1737 33.6483 50.7129 34.1639 50.029 34.8477C49.215 35.6555 48.9601 35.9541 48.8171 36.2461C48.6866 36.5196 48.6246 36.7623 48.5935 37.1475C48.5624 37.4397 48.5252 38.0243 48.5066 38.4532C48.4879 38.8819 48.4565 39.4225 48.4441 39.6651C48.4254 39.9075 48.4002 40.4669 48.3816 40.9082C48.3629 41.3496 48.3202 42.3077 48.2829 43.0225C48.2457 43.7369 48.2075 44.4139 48.1951 44.5137C48.1826 44.6132 48.158 45.4276 48.1394 46.3165C48.1145 47.2053 48.0835 48.2002 48.071 48.5235C48.0524 48.8469 48.0281 49.841 48.0095 50.7295C47.9909 51.6182 47.9594 52.7496 47.947 53.2471C47.9346 53.7444 47.9093 54.5471 47.9031 55.0381C47.8844 55.8582 47.8786 55.927 47.7605 55.9581C47.6921 55.9829 47.288 55.9761 46.8591 55.9512C46.4302 55.9264 46.0692 55.8956 46.0505 55.877C46.0319 55.8643 46.0134 55.7588 46.0134 55.6534C46.0072 55.5415 45.9765 55.0069 45.9392 54.46C45.9081 53.9135 45.8764 53.41 45.8826 53.3409C45.8826 53.2725 45.8644 52.9241 45.8396 52.5635C45.8209 52.2028 45.7458 50.96 45.6775 49.7979C45.6091 48.6357 45.5538 47.4856 45.5476 47.2491C45.5414 47.013 45.5103 46.6897 45.4792 46.5342C45.4481 46.3788 45.2987 45.4027 45.1433 44.3584C45.1163 44.1768 45.0922 43.9931 45.0661 43.8125C45.0677 43.7755 45.056 43.7107 45.0368 43.6055C45.0362 43.6022 45.0355 43.599 45.0349 43.5957C45.0094 43.417 44.9835 43.2431 44.9607 43.0782C44.9592 43.0662 44.9585 43.0534 44.9568 43.0401C44.9533 43.0124 44.947 42.9833 44.9421 42.9532C44.8748 42.4634 44.824 42.0701 44.8074 41.9034C44.7992 41.8216 44.7884 41.7158 44.7761 41.5957C44.7861 41.5637 44.7834 41.4972 44.7702 41.418C44.7621 41.372 44.7514 41.3164 44.7419 41.2618C44.7142 40.9924 44.6834 40.6971 44.6579 40.4424C44.645 40.3278 44.6333 40.2104 44.6208 40.0957V39.8204L44.5925 39.8311C44.5634 39.5582 44.539 39.3292 44.5281 39.2305C44.5156 39.0565 44.4596 38.5401 44.4099 38.0801C44.3541 37.6213 44.316 37.1873 44.322 37.1172C44.322 37.0489 44.3104 36.8683 44.2917 36.7129C44.2731 36.5576 44.2294 36.2531 44.1921 36.0293C44.1611 35.8057 44.1112 35.4824 44.0925 35.3145C44.0739 35.1405 44.0428 34.8791 44.0242 34.7237C44.0056 34.5688 43.9497 34.4263 43.9001 34.3946C43.8504 34.3697 43.8122 34.3066 43.8122 34.2569C43.8115 34.205 43.6875 33.7893 43.5388 33.337C43.3896 32.8896 43.1292 32.2313 42.949 31.877C42.7749 31.5289 42.6251 31.2422 42.6189 31.2422C42.6032 31.2439 42.169 31.4552 41.655 31.709C41.133 31.9638 40.7038 32.2063 40.7038 32.2374C40.7042 32.2691 40.7912 32.4674 40.8904 32.6719C40.9898 32.877 41.152 33.232 41.239 33.462C41.3258 33.6975 41.4062 33.9144 41.4128 33.9463C41.4252 33.9773 41.4499 34.0519 41.4685 34.1016C41.4871 34.1513 41.5748 34.4629 41.6618 34.7862C41.7426 35.1092 41.8423 35.5313 41.8796 35.7178C41.9169 35.9042 41.9599 36.1592 41.9724 36.2774C41.991 36.3955 42.0227 36.6631 42.0476 36.8682C42.0724 37.0729 42.097 37.2838 42.1033 37.334C42.1095 37.3837 42.0907 37.4834 42.0534 37.5518C42.0162 37.6201 41.8485 37.8254 41.6745 38.0118C41.5005 38.192 41.1641 38.5027 40.9216 38.6954C40.6792 38.8943 40.2751 39.1802 40.0202 39.3418C39.7654 39.4972 39.2312 39.7774 38.8396 39.9639C38.4481 40.1503 37.8016 40.4169 37.4099 40.5538C37.0183 40.6905 36.4023 40.871 36.0417 40.9581C35.6813 41.045 35.2899 41.1327 35.1716 41.1514C35.0535 41.1701 34.8856 41.2011 34.7986 41.2198C34.7115 41.2384 34.5993 41.2626 34.5495 41.2813C34.4995 41.2938 34.1207 41.3498 33.7107 41.3995C33.3004 41.4492 32.6718 41.5182 32.3113 41.543C31.9507 41.5679 31.2799 41.5918 30.82 41.5918C30.3603 41.5918 29.7884 41.5679 29.5456 41.543C29.3033 41.5119 28.8866 41.4495 28.613 41.3936C28.3396 41.3439 27.8484 41.219 27.5251 41.1133C27.2021 41.0077 26.798 40.8651 26.6238 40.7842C26.4559 40.7096 26.1884 40.5974 26.0329 40.5352C26.0135 40.5266 25.9912 40.5136 25.9646 40.501C25.958 40.4953 25.949 40.4907 25.9392 40.4854C25.935 40.4833 25.9299 40.4839 25.9255 40.4825C25.7327 40.39 25.4109 40.2276 25.1316 40.0752C24.7898 39.8826 24.2987 39.5911 24.0437 39.417C23.7888 39.243 23.422 38.9874 23.2292 38.8506C23.0365 38.7201 22.5079 38.2791 22.0603 37.875C21.6131 37.4776 21.2465 37.105 21.2458 37.0547C21.2458 37.005 21.3144 36.7869 21.3952 36.5694C21.4761 36.358 21.6003 35.9913 21.6687 35.7491C21.7433 35.5065 21.8737 34.9471 21.9607 34.5059C22.0477 34.0648 22.1347 33.5989 22.1472 33.4805C22.1658 33.3624 22.2215 32.8029 22.2712 32.2374C22.3209 31.6719 22.3649 31.0939 22.365 30.9444V30.6827C21.9049 30.6391 21.4132 30.6147 20.9656 30.6084L20.1579 30.5899C20.0958 31.8393 20.0462 32.4549 20.0027 32.7657C19.9654 33.0765 19.8777 33.6359 19.8093 34.0088C19.7409 34.3817 19.6112 34.9286 19.5242 35.2207C19.4371 35.5129 19.2132 36.0788 19.0329 36.4766C18.847 36.8794 18.6979 37.245 18.697 37.2842C18.697 37.3277 18.6407 37.5206 18.5661 37.7071C18.4978 37.8936 18.2988 38.3291 18.1247 38.6709C17.9569 39.0128 17.6401 39.5597 17.4226 39.8829C17.205 40.2061 16.8443 40.6972 16.6267 40.9707C16.4091 41.2443 15.9051 41.8037 15.5134 42.2139C15.1218 42.6241 14.5443 43.2518 14.2273 43.6124C13.904 43.9728 13.4318 44.5513 13.1706 44.8995C12.9095 45.2413 12.5918 45.7325 12.4675 45.9874C12.3432 46.236 12.2063 46.578 12.1628 46.752C12.1007 47.0005 12.1013 47.2558 12.1697 47.9952C12.2132 48.5048 12.2559 48.9834 12.2683 49.0518C12.2808 49.1211 12.3866 50.14 12.5046 51.3204C12.6227 52.5014 12.7346 53.6642 12.7595 53.9004C12.7782 54.1366 12.8096 54.4599 12.822 54.6153C12.8407 54.7708 12.8847 55.1122 12.9158 55.3731C12.953 55.6399 12.9645 55.8882 12.946 55.92C12.9274 55.9573 12.5607 55.9825 12.0447 55.9825C11.5288 55.9825 11.1619 55.9573 11.1433 55.92C11.1247 55.8882 11.1 55.7521 11.0876 55.6221C11.0752 55.4978 11.0196 55.1555 10.9636 54.8633C10.9139 54.5712 10.8573 54.2667 10.8386 54.1797C10.8198 54.0922 10.696 53.62 10.5593 53.1231C10.4225 52.6258 10.1676 51.8303 9.99974 51.3516C9.83189 50.873 9.56434 50.1457 9.40892 49.7354C9.2475 49.3257 9.09263 48.9344 9.06126 48.8653C9.03018 48.7969 8.88686 48.4485 8.74388 48.0879C8.60093 47.7275 8.45148 47.3548 8.40794 47.2491C8.39482 47.2212 8.3814 47.1855 8.36497 47.1465C8.36513 47.1452 8.36372 47.1437 8.36399 47.1426C8.36734 47.1259 8.36206 47.1166 8.3513 47.1143C8.30855 47.0108 8.25863 46.8856 8.22142 46.7823C8.16551 46.627 8.07874 46.3789 8.02903 46.2237C7.9793 46.0683 7.91071 45.8626 7.87962 45.7569C7.84859 45.6511 7.83598 45.3718 7.84837 45.1358C7.86702 44.8934 7.91716 44.6627 7.96068 44.6192C7.99763 44.576 8.01623 44.5392 7.99193 44.545C7.96084 44.545 8.01036 44.377 8.09739 44.1719C8.18439 43.9669 8.33939 43.6501 8.44505 43.4698C8.45312 43.4572 8.4619 43.4441 8.47044 43.4307V43.4317L8.48216 43.4112C8.59043 43.2412 8.72889 43.0197 8.81224 42.8975C8.84615 42.8478 8.89082 42.7754 8.94114 42.6924C8.96191 42.6802 8.98251 42.6597 8.99876 42.6299C9.01209 42.6059 9.01997 42.5794 9.02415 42.5547C9.08999 42.4424 9.15835 42.322 9.21653 42.2139C9.35328 41.9715 9.49014 41.7603 9.52122 41.7354C9.55839 41.7106 9.57047 41.6856 9.54564 41.6856C9.51485 41.6852 9.56431 41.5425 9.6511 41.375C9.69698 41.2833 9.7585 41.1411 9.81907 40.9883C9.88434 40.8458 9.93081 40.7372 9.93138 40.7217C9.93138 40.7188 9.92759 40.7137 9.92259 40.7061C9.93812 40.6621 9.95517 40.62 9.96849 40.5791C10.0554 40.3184 10.1421 40.0328 10.1609 39.9454C10.1733 39.8583 10.2106 39.5655 10.2292 39.292C10.2541 39.0185 10.2544 38.5587 10.2234 38.2666C10.1985 37.9746 10.1053 37.372 10.0183 36.9307C9.93126 36.4894 9.76301 35.7737 9.6511 35.3448C9.53913 34.9156 9.26581 33.865 9.03587 33.0137C8.81209 32.156 8.53864 31.0558 8.43919 30.5586C8.33973 30.0614 8.24069 29.589 8.22825 29.502C8.20961 29.415 8.17179 29.1914 8.1345 29.0049C8.09721 28.8185 8.05355 28.4952 8.03489 28.2901C8.01625 28.085 7.98492 27.6935 7.95384 27.42C7.92897 27.1465 7.91087 26.6858 7.91087 26.3936C7.9109 26.1015 7.93584 25.6174 7.96068 25.3067C7.98553 24.996 8.06613 24.4984 8.1345 24.1875C8.20285 23.8769 8.28955 23.5411 8.32689 23.4415C8.36419 23.342 8.48256 23.0618 8.59446 22.8194C8.70019 22.5769 8.91212 22.2042 9.06126 21.9805C9.21049 21.7568 9.51431 21.3836 9.73802 21.1475C9.96177 20.9114 10.3475 20.5759 10.5837 20.3956C10.82 20.2215 11.2554 19.9355 11.5476 19.7676C11.8398 19.606 12.2878 19.3824 12.5427 19.2706C12.7977 19.1649 13.3193 18.972 13.6921 18.8477C14.0651 18.7296 14.6746 18.5558 15.0476 18.4688C15.4144 18.3818 16.086 18.251 16.5398 18.1827C17.1924 18.077 17.5095 18.0582 18.1062 18.0831C18.5165 18.1079 19.1881 18.1638 19.5984 18.2198C20.0087 18.2757 20.7673 18.4006 21.2771 18.5C21.7929 18.5995 22.4762 18.736 22.7995 18.8106C23.1223 18.8789 23.458 18.9529 23.5456 18.9717C23.6327 18.9904 24.193 19.0968 24.7898 19.2149C25.3866 19.333 26.2818 19.4941 26.779 19.5811C27.2764 19.6681 28.1842 19.7989 28.7995 19.8672C29.415 19.9356 30.5895 20.0223 31.4099 20.0596C32.2305 20.0969 33.1696 20.1037 33.4929 20.085C33.8161 20.0664 34.3629 20.0227 34.7048 19.9854C35.0467 19.9543 35.6375 19.8672 36.0105 19.7989C36.3834 19.7367 36.9616 19.6125 37.2849 19.5254L37.8757 19.376C39.0814 19.811 39.6969 20.0097 40.0202 20.0967C40.3426 20.1835 40.6528 20.2649 40.7038 20.2715C40.7536 20.284 41.1208 20.3396 41.5124 20.3956C41.7181 20.4249 41.9893 20.4487 42.2908 20.4678C42.2942 20.4795 42.3068 20.4863 42.3327 20.4883C42.3539 20.4883 42.38 20.483 42.4079 20.4756C42.7128 20.4929 43.0429 20.505 43.365 20.5079C43.9929 20.5141 44.5156 20.507 44.5281 20.4883C44.5419 20.4698 44.6405 20.4515 44.7576 20.4454C44.8695 20.4391 45.1557 20.4016 45.3982 20.3643C45.6406 20.3208 46.0816 20.2218 46.3923 20.1348C46.7031 20.0478 47.1197 19.9168 47.3249 19.836C47.5301 19.7614 47.9907 19.5504 48.3513 19.3702C48.7119 19.1899 49.2091 18.91 49.4577 18.7422C49.7002 18.5744 49.9364 18.4375 49.9675 18.4375C49.9985 18.4375 50.029 18.4187 50.029 18.3877C50.029 18.3629 50.1038 18.3005 50.197 18.2383C50.2965 18.1824 50.5086 18.0019 50.6765 17.834C50.8444 17.6723 51.1056 17.3681 51.2546 17.1631C51.4101 16.9579 51.6899 16.5224 51.8826 16.1993C52.0754 15.8757 52.4856 15.0801 52.8025 14.4278C53.1133 13.7751 53.586 12.7559 53.8533 12.1592C54.1144 11.5624 54.6925 10.3439 55.1277 9.45512C55.569 8.56635 56.1034 7.57821 56.321 7.25493C56.551 6.90695 56.8429 6.56498 57.0232 6.42192C57.1972 6.28521 57.5887 6.04865 57.8933 5.89946C58.1979 5.75027 58.8012 5.51997 59.2302 5.377C59.659 5.24029 60.2866 5.04164 60.6286 4.92973C60.9706 4.81784 61.4626 4.6257 61.7175 4.49516C61.9723 4.36468 62.2335 4.26469 62.2956 4.26469C62.3514 4.26454 62.4011 4.23319 62.4011 4.20219C62.4023 4.16399 62.5506 3.99047 62.7302 3.80473C62.985 3.54377 63.1281 3.4506 63.3952 3.37602C63.5817 3.32629 63.8373 3.26381 63.9617 3.24516ZM8.88743 54.6495C8.88531 54.65 8.88312 54.6511 8.8806 54.6524C8.8697 54.656 8.86074 54.6529 8.85228 54.6485C8.85941 54.6508 8.86715 54.6511 8.87474 54.6465C8.88094 54.6428 8.88466 54.6439 8.88743 54.6495ZM44.9011 53.3223C44.926 53.4525 44.9511 53.4591 45.4294 53.3721V53.379L45.1804 53.4209C44.9505 53.4644 44.925 53.4585 44.9001 53.3282C44.8976 53.3128 44.8928 53.2981 44.8874 53.2842C44.8925 53.2964 44.8978 53.3091 44.9011 53.3223ZM44.1052 52.9991C44.2016 52.9991 44.2528 53.0042 44.28 53.0323C44.2514 53.0091 44.2007 53.0049 44.1111 53.0049C43.9992 53.0049 43.8808 53.023 43.8435 53.0479C43.8062 53.0728 43.7687 53.2226 43.7624 53.378C43.7612 53.3924 43.7589 53.4067 43.7576 53.4209C43.7619 53.299 43.7621 53.1822 43.7566 53.1543C43.7504 53.1233 43.7816 53.0738 43.8249 53.0489C43.8685 53.024 43.9995 52.9991 44.1052 52.9991ZM44.7898 53.1856C44.7457 53.1887 44.6746 53.2304 44.6267 53.2842C44.5707 53.3339 44.4838 53.378 44.4216 53.378C44.3867 53.3779 44.3649 53.3652 44.3484 53.3428C44.3651 53.3615 44.3857 53.3721 44.4158 53.3721C44.4779 53.3783 44.5711 53.3343 44.6208 53.2784C44.6706 53.2225 44.7515 53.1794 44.7888 53.1856H44.7898ZM6.77904 21.2969C6.80375 21.2969 6.82275 21.3153 6.82298 21.3399C6.82298 21.371 6.6802 21.7131 6.51244 22.1045C6.49929 22.1352 6.48697 22.1682 6.47337 22.2012C6.44738 22.2092 6.4299 22.2225 6.42455 22.2413C6.41154 22.2718 6.41154 22.3083 6.41869 22.336C6.27281 22.7067 6.11692 23.1614 6.04564 23.4415C5.95863 23.7833 5.8405 24.3984 5.79076 24.8086C5.70994 25.3805 5.69753 25.8532 5.7224 26.8291C5.74726 27.5812 5.80991 28.4451 5.88451 28.9424C5.95289 29.4024 6.10818 30.242 6.2263 30.8077C6.35064 31.3733 6.55537 32.2686 6.69212 32.7969C6.82265 33.3252 7.02199 34.0831 7.12767 34.4747C7.19348 34.7185 7.27688 35.0179 7.34642 35.2706C7.34782 35.2842 7.34808 35.2969 7.3513 35.3077C7.35518 35.3216 7.36106 35.3328 7.36595 35.3428C7.38141 35.3991 7.39654 35.4521 7.4099 35.501C7.41087 35.5254 7.41328 35.5524 7.41966 35.5811C7.43629 35.6434 7.45766 35.7021 7.4724 35.7403C7.53259 35.967 7.58914 36.1849 7.60033 36.2461C7.61275 36.3145 7.65616 36.4825 7.68724 36.6192C7.71832 36.7559 7.76172 36.9365 7.77415 37.0235C7.79279 37.1104 7.82386 37.247 7.84251 37.334C7.86115 37.421 7.89222 37.589 7.91087 37.7071C7.93574 37.8252 7.96644 38.1924 7.98509 38.5157C8.00993 38.8947 7.99184 39.2614 7.94212 39.5411C7.88618 39.827 7.74918 40.1937 7.53783 40.5977C7.40739 40.845 7.20627 41.1984 7.03099 41.4981C6.97051 41.5984 6.90708 41.7063 6.84154 41.8096C6.67292 42.0799 6.58297 42.2283 6.54076 42.334C6.4166 42.553 6.29655 42.7713 6.21947 42.9288C6.19584 42.977 6.17457 43.028 6.15111 43.0782C6.13869 43.0958 6.12567 43.1138 6.114 43.1329C6.05183 43.2385 6.02113 43.3134 6.03978 43.2823C6.04375 43.2773 6.05067 43.2754 6.06029 43.2764C5.97955 43.4583 5.91128 43.622 5.88451 43.7061C5.841 43.8428 5.79049 43.9982 5.77806 44.0479C5.76548 44.0986 5.70953 44.4215 5.6599 44.7627C5.57291 45.3281 5.57291 45.434 5.6599 45.9434C5.71584 46.2542 5.77246 46.5344 5.7849 46.5655C5.79742 46.5968 5.82784 46.6712 5.84642 46.7207C5.8651 46.7706 5.99647 47.1243 6.13939 47.4971C6.27615 47.8701 6.38744 48.2312 6.38744 48.2872C6.38721 48.3556 6.19482 48.5419 5.94017 48.7344C5.6916 48.9146 5.27516 49.1881 5.02025 49.3311C4.76536 49.4803 4.37296 49.6793 4.14915 49.7725C3.92537 49.8657 3.6083 49.9845 3.43431 50.0342C3.26739 50.0898 3.10676 50.1142 3.0808 50.0899C3.05595 50.065 3.06149 49.9841 3.09251 49.9034C3.12977 49.8289 3.16759 49.6922 3.18626 49.5928C3.19869 49.4996 3.27316 49.176 3.34154 48.8653C3.40992 48.5545 3.47852 48.2617 3.49095 48.212C3.50346 48.1615 3.53388 47.9758 3.55247 47.8086C3.57732 47.6347 3.621 47.3302 3.65208 47.125C3.68938 46.9199 3.72656 46.6954 3.739 46.627C3.75148 46.5583 3.78936 46.3348 3.81419 46.1299C3.83905 45.9249 3.85751 45.7381 3.8513 45.7071C3.84528 45.6817 3.86332 45.5578 3.89427 45.4278C3.92535 45.3035 3.96937 44.8867 3.98802 44.5137C4.01288 44.1408 4.04395 43.6748 4.05638 43.4883C4.07503 43.3018 4.08763 42.1642 4.08763 40.9707C4.09384 39.7713 4.08088 38.6526 4.06224 38.4844C4.04359 38.3104 4.01253 37.8066 3.99388 37.3653C3.96905 36.9183 3.9448 36.4713 3.93236 36.3711C3.91992 36.2655 3.89436 35.9044 3.87572 35.5625C3.85706 35.2206 3.79556 34.4376 3.74583 33.8223C3.6961 33.2069 3.60869 32.1312 3.56517 31.4288C3.50924 30.6581 3.47853 29.5022 3.49095 28.5079C3.50337 27.6011 3.52763 26.7188 3.55247 26.5498C3.57733 26.3759 3.62783 26.1271 3.65892 25.9903C3.68998 25.8536 3.73336 25.6857 3.74583 25.6172C3.76446 25.5489 3.79553 25.4061 3.81419 25.3067C3.83282 25.2011 3.86974 25.0889 3.88841 25.0577C3.91328 25.0266 3.93848 24.9395 3.95091 24.8711C3.96334 24.8028 4.07524 24.5226 4.2058 24.2491C4.33018 23.9756 4.57869 23.5409 4.75267 23.2862C4.92673 23.0313 5.25667 22.6143 5.4929 22.3594C5.72916 22.1108 6.10223 21.7631 6.32591 21.6016C6.54902 21.4343 6.74712 21.2977 6.77904 21.2969ZM50.0456 43.3643C50.0765 43.4318 50.0973 43.5088 50.0974 43.5684C50.0974 43.6359 50.1122 43.6961 50.1335 43.7247C50.111 43.7004 50.0916 43.6408 50.0915 43.5694C50.0915 43.5074 50.0734 43.4312 50.0456 43.3643ZM2.81517 41.9454C2.83886 42.0166 2.8553 42.1941 2.87474 42.5245C2.89339 42.8973 2.93077 43.3198 2.9929 43.7051V43.7061L2.94994 43.4571C2.93128 43.3203 2.89339 42.8974 2.87474 42.5245C2.85535 42.195 2.83877 42.0179 2.81517 41.9463V41.9454ZM49.2605 43.5538C49.2589 43.5484 49.2581 43.5422 49.2566 43.5352C49.2582 43.542 49.2587 43.5482 49.2605 43.5538ZM28.7624 43.462C28.7644 43.4605 28.7662 43.4583 28.7683 43.4571C28.77 43.4561 28.7722 43.456 28.7742 43.4551C28.7702 43.4575 28.766 43.4593 28.7624 43.462ZM49.3523 43.3829C49.352 43.3875 49.3508 43.392 49.3503 43.3965C49.3505 43.3917 49.3513 43.3867 49.3513 43.3819C49.3517 43.3758 49.3538 43.37 49.3542 43.3643C49.3541 43.3701 49.3523 43.3765 49.3523 43.3829ZM28.2478 43.2354C28.229 43.2837 28.1913 43.3178 28.1218 43.3526C28.0659 43.3774 28.0173 43.3913 27.9753 43.3936C28.0106 43.3882 28.0534 43.3752 28.1033 43.3516C28.1832 43.3133 28.227 43.2821 28.2478 43.2354ZM50.3533 43.2481C50.3287 43.2495 50.299 43.2682 50.2781 43.3018C50.2653 43.3189 50.2552 43.3444 50.2458 43.3741C50.2489 43.3608 50.2491 43.3484 50.2527 43.3389C50.2651 43.283 50.3091 43.2452 50.3464 43.2452C50.3488 43.2452 50.3508 43.2472 50.3533 43.2481ZM49.3826 43.2891C49.3906 43.308 49.4041 43.324 49.4177 43.3379C49.4024 43.3242 49.3885 43.3069 49.3826 43.2891C49.3793 43.2815 49.3756 43.2771 49.3728 43.2745C49.3763 43.273 49.3789 43.2762 49.3826 43.2891ZM28.0652 42.6797C28.1646 42.6797 28.2956 42.7234 28.364 42.7793C28.4148 42.8166 28.4435 42.8583 28.4587 42.9161C28.4434 42.8587 28.4146 42.8174 28.364 42.7803C28.2956 42.7244 28.1646 42.6807 28.0652 42.6807C27.9534 42.6808 27.8106 42.7619 27.6492 42.917C27.5225 43.0271 27.4225 43.1383 27.405 43.1836C27.4215 43.1388 27.5218 43.0268 27.6492 42.9161C27.8105 42.761 27.9534 42.6799 28.0652 42.6797ZM49.8357 43.1475C49.8569 43.157 49.8779 43.1689 49.8982 43.1827C49.878 43.1692 49.8569 43.1575 49.8357 43.1475ZM49.2273 42.5616V43.0899C49.2273 43.1092 49.2281 43.1282 49.2283 43.1465C49.2243 42.9994 49.2224 42.8069 49.2224 42.5577L49.2273 42.5616ZM48.823 39.7774C48.8235 39.7795 48.8254 39.7812 48.8259 39.7832C48.8139 39.8678 48.7982 40.5004 48.7927 42.3096L48.7859 42.3067L48.7927 40.9834C48.7989 40.2624 48.8105 39.7152 48.823 39.7774ZM2.34642 42.0899C2.34623 42.1395 2.29705 42.1956 2.23509 42.2081C2.22076 42.2128 2.2053 42.2147 2.19017 42.2159C2.20545 42.2147 2.22107 42.2118 2.23509 42.2071C2.29704 42.1945 2.34642 42.1385 2.34642 42.0889V42.0899ZM49.7497 42.1211C49.8327 42.1211 49.8783 42.1377 49.8962 42.1846C49.8676 42.142 49.7904 42.127 49.6003 42.127V42.1211H49.7497ZM2.03587 41.9463C2.03587 42.0227 2.04492 42.0988 2.05833 42.1475C2.04503 42.0993 2.0359 42.0249 2.03587 41.9532V41.9463ZM3.13646 42.0391V42.0264C3.14188 41.901 3.1476 41.789 3.15208 41.6895C3.14744 41.7924 3.14211 41.9084 3.13646 42.0391ZM2.76341 41.9219C2.71989 41.9654 2.61385 41.9961 2.51439 41.9961L2.58958 41.9903C2.66312 41.9795 2.73084 41.9535 2.76341 41.9209C2.77032 41.9133 2.77691 41.9094 2.78294 41.9082C2.77682 41.9094 2.77043 41.9141 2.76341 41.9219ZM3.2429 40.8975C3.21384 40.9254 3.19756 40.992 3.18333 41.1514C3.20242 40.9372 3.22572 40.8902 3.27708 40.8799L3.2429 40.8975ZM3.40501 40.8614C3.39505 40.8694 3.38335 40.873 3.36986 40.875L3.40501 40.8604C3.41508 40.8521 3.42341 40.8399 3.4304 40.8213L3.40501 40.8614ZM49.4695 40.293C49.4385 40.3248 49.4073 40.4926 49.4011 40.6661C49.3961 40.8203 49.3887 40.8784 49.3757 40.8379C49.3845 40.8554 49.3907 40.7884 49.3952 40.6475C49.3999 40.5126 49.4222 40.3881 49.446 40.3262L49.4802 40.2715C49.4761 40.2803 49.4734 40.2882 49.4695 40.293ZM49.364 40.7842C49.3652 40.7954 49.3686 40.8047 49.3699 40.8125C49.3685 40.8058 49.3654 40.7986 49.364 40.7901C49.3627 40.7779 49.3605 40.7666 49.3591 40.7559C49.3606 40.7649 49.3625 40.7742 49.364 40.7842ZM48.9431 40.5967C48.9715 40.6226 49.0244 40.6222 49.1277 40.6163C49.2262 40.6067 49.2796 40.607 49.3113 40.6319C49.2791 40.6101 49.2249 40.6102 49.1277 40.6163C49.0207 40.6257 48.9691 40.6275 48.9431 40.5967ZM49.5622 39.7725C49.5566 39.7887 49.5506 39.8388 49.5447 39.92C49.5425 39.9785 49.5352 40.0369 49.5271 40.0899C49.5333 40.0401 49.5388 39.9845 49.5388 39.9268C49.5471 39.7282 49.5466 39.6646 49.5622 39.7725ZM48.9001 39.8604C48.9428 39.876 49.006 39.8829 49.0974 39.8829C49.223 39.8829 49.2876 39.8902 49.3191 39.92C49.2855 39.8947 49.2209 39.8887 49.1033 39.8887C49.0073 39.8887 48.9429 39.8794 48.9001 39.8604ZM3.46556 39.8204L3.46068 38.7657C3.46224 38.7649 3.46398 38.7645 3.46556 38.7637V39.8204ZM1.96751 38.8692C1.99973 38.939 2.02505 39.0048 2.03197 39.0332C2.02489 39.0047 1.99955 38.9401 1.96751 38.876C1.93906 38.8128 1.92671 38.78 1.9304 38.7754C1.92873 38.7821 1.94077 38.8127 1.96751 38.8692ZM3.27904 38.8565C3.17347 38.9062 3.03696 38.9501 2.96849 38.9502C3.02698 38.9502 3.13464 38.9169 3.3474 38.8184L3.27904 38.8565ZM1.94017 38.7813C1.94672 38.7878 1.95689 38.7989 1.96947 38.8155C1.95699 38.7991 1.94675 38.7881 1.94017 38.7813ZM57.738 2.18852C58.1297 2.16987 58.6091 2.18283 58.7956 2.21391C58.9823 2.24505 59.3733 2.33145 59.6589 2.41215C59.9511 2.49296 60.2312 2.58641 60.281 2.62993C60.3618 2.68587 60.1691 2.76684 59.2615 3.05278C58.6462 3.25164 57.9316 3.49429 57.6765 3.59379C57.4217 3.69323 56.9862 3.89161 56.7126 4.02837C56.4392 4.16505 56.0477 4.39515 55.8425 4.53813C55.6374 4.6873 55.3197 4.97301 55.1394 5.17192C54.9592 5.37075 54.6615 5.76269 54.4812 6.03618C54.3009 6.30968 53.9832 6.83864 53.7781 7.21782C53.5667 7.59702 53.2247 8.26783 53.0134 8.70903C52.8021 9.15031 52.3298 10.1884 51.9568 11.0088C51.5838 11.8292 51.1051 12.8797 50.8874 13.3399C50.6699 13.7998 50.3341 14.4589 50.1413 14.8008C49.9487 15.1425 49.663 15.5962 49.5076 15.8077C49.3459 16.0314 49.0158 16.3551 48.7361 16.5665C48.4749 16.7654 47.9657 17.0828 47.6052 17.2754C47.2446 17.4619 46.7032 17.7036 46.3923 17.8155C46.0815 17.9211 45.5535 18.0703 45.2117 18.1387C44.7019 18.2506 44.3785 18.2761 43.3777 18.2823C42.6254 18.2823 41.9911 18.2509 41.699 18.2012C41.4441 18.1515 41.0086 18.0583 40.7351 17.9961C40.4615 17.9277 40.0199 17.8035 39.7527 17.7227C39.4917 17.6357 39.2806 17.5419 39.2868 17.5108C39.3068 17.4659 40.5536 16.1759 42.072 14.6329C43.5951 13.0851 45.0191 11.5813 45.2429 11.2891C45.4605 10.997 45.7957 10.5676 45.9822 10.3252C46.1749 10.0828 46.5485 9.63567 46.822 9.3311C47.0892 9.02662 47.5859 8.4797 47.9216 8.11919C48.2573 7.75871 48.8603 7.16759 49.2644 6.80083C49.6685 6.44029 50.2223 5.96175 50.4958 5.74419C50.7693 5.52044 51.2417 5.15386 51.5525 4.92387C51.8633 4.68766 52.4604 4.28296 52.8894 4.01567C53.3183 3.75465 54.0081 3.36371 54.4245 3.15239C54.8473 2.94726 55.3762 2.6984 55.6062 2.61137C55.8424 2.52436 56.2526 2.40044 56.5261 2.33208C56.8058 2.26993 57.3402 2.20098 57.738 2.18852ZM67.1277 7.96977C67.1322 8.0188 67.1843 8.08351 67.2497 8.11919C67.1815 8.08187 67.1257 8.01972 67.1257 7.98247C67.1252 7.97865 67.1273 7.97456 67.1277 7.96977ZM66.5036 7.55083C66.4855 7.58641 66.4807 7.614 66.49 7.63481C66.4795 7.61391 66.4841 7.5869 66.5036 7.55083ZM66.8523 6.96977C66.8619 7.02803 66.8516 7.08402 66.8171 7.14946C66.844 7.0892 66.8525 7.0287 66.8513 6.95512C66.8518 6.95985 66.8516 6.96492 66.8523 6.96977Z" fill="#311C11"/>
<g clip-path="url(#clip0_971_89184)">
<path d="M31.9995 26C35.3132 26 37.9995 28.6863 37.9995 32C37.9995 35.3137 35.3132 38 31.9995 38C28.6858 38 25.9995 35.3137 25.9995 32C25.9995 28.6863 28.6858 26 31.9995 26ZM34.6235 29.3203C34.5238 29.3203 34.4284 29.3602 34.3579 29.4307L32.0005 31.792L29.6431 29.4307C29.5725 29.3602 29.4771 29.3203 29.3774 29.3203C29.2777 29.3203 29.1823 29.3602 29.1118 29.4307C29.0413 29.5012 29.0015 29.5966 29.0014 29.6963C29.0014 29.7961 29.0412 29.8923 29.1118 29.9629L31.4722 32.3203L29.1118 34.6777C29.0768 34.7124 29.0488 34.7534 29.0298 34.7988C29.0107 34.8445 29.0005 34.8939 29.0005 34.9434C29.0005 34.9928 29.0107 35.0422 29.0298 35.0879C29.0488 35.1334 29.0768 35.1743 29.1118 35.209C29.1465 35.244 29.1874 35.272 29.2329 35.291C29.2786 35.31 29.328 35.3203 29.3774 35.3203C29.4269 35.3203 29.4763 35.31 29.522 35.291C29.5674 35.272 29.6084 35.244 29.6431 35.209L32.0005 32.8486L34.3579 35.209C34.3926 35.244 34.4335 35.272 34.479 35.291C34.5246 35.31 34.5741 35.3203 34.6235 35.3203C34.673 35.3203 34.7224 35.31 34.7681 35.291C34.8135 35.272 34.8544 35.244 34.8891 35.209C34.9241 35.1743 34.9522 35.1334 34.9712 35.0879C34.9902 35.0422 35.0005 34.9928 35.0005 34.9434C35.0005 34.8939 34.9902 34.8445 34.9712 34.7988C34.9522 34.7534 34.9241 34.7124 34.8891 34.6777L32.5288 32.3203L34.8891 29.9629C34.9597 29.8923 34.9995 29.7961 34.9995 29.6963C34.9994 29.5966 34.9596 29.5012 34.8891 29.4307C34.8186 29.3602 34.7232 29.3203 34.6235 29.3203Z" fill="#CE1126"/>
</g>
<defs>
<clipPath id="clip0_971_89184">
<rect width="12" height="12" fill="white" transform="translate(25.9995 26)"/>
</clipPath>
</defs>
</svg>
