<svg width="22" height="22" viewBox="0 0 22 22" fill="none" xmlns="http://www.w3.org/2000/svg">
<path d="M9.5 0C8.04131 0 6.64236 0.579463 5.61091 1.61091C4.57946 2.64236 4 4.04131 4 5.5C4 6.95869 4.57946 8.35764 5.61091 9.38909C6.64236 10.4205 8.04131 11 9.5 11C10.9587 11 12.3576 10.4205 13.3891 9.38909C14.4205 8.35764 15 6.95869 15 5.5C15 4.04131 14.4205 2.64236 13.3891 1.61091C12.3576 0.579463 10.9587 0 9.5 0ZM17.5 10.75V12.126C18.215 12.31 18.852 12.686 19.354 13.198L20.546 12.509L21.546 14.241L20.355 14.929C20.5497 15.6297 20.5497 16.3703 20.355 17.071L21.546 17.759L20.546 19.491L19.354 18.802C18.8449 19.3212 18.2039 19.6918 17.5 19.874V21.25H15.5V19.874C14.7961 19.6918 14.1551 19.3212 13.646 18.802L12.453 19.491L11.453 17.759L12.645 17.071C12.4503 16.3703 12.4503 15.6297 12.645 14.929L11.453 14.241L12.453 12.509L13.646 13.197C14.1552 12.6782 14.7962 12.3079 15.5 12.126V10.75H17.5ZM14.749 15.033C14.5852 15.329 14.4992 15.6617 14.499 16C14.499 16.35 14.59 16.68 14.749 16.967L14.785 17.03C14.9627 17.3262 15.214 17.5713 15.5146 17.7414C15.8151 17.9116 16.1546 18.001 16.5 18.001C16.8454 18.001 17.1849 17.9116 17.4854 17.7414C17.786 17.5713 18.0373 17.3262 18.215 17.03L18.251 16.967C18.41 16.68 18.5 16.351 18.5 16C18.5 15.65 18.41 15.32 18.251 15.033L18.214 14.97C18.0363 14.6741 17.7849 14.4292 17.4845 14.2592C17.184 14.0892 16.8447 13.9998 16.4995 13.9998C16.1543 13.9998 15.815 14.0892 15.5145 14.2592C15.2141 14.4292 14.9627 14.6741 14.785 14.97L14.749 15.033ZM11.062 12C10.2075 13.1584 9.74764 14.5606 9.75 16C9.74764 17.4394 10.2075 18.8416 11.062 20H0V18C0 16.4087 0.632141 14.8826 1.75736 13.7574C2.88258 12.6321 4.4087 12 6 12H11.062Z" fill="#311C11"/>
</svg>
