<svg width="96" height="92" viewBox="0 0 96 92" fill="none" xmlns="http://www.w3.org/2000/svg">
<path d="M50.1993 33.1055C51.2498 34.028 52.7459 34.187 54.1465 34.2824C55.2925 34.3461 56.4702 34.3779 57.4889 33.8371C58.3483 33.36 58.9532 32.5648 59.4625 31.706C60.2901 30.3382 60.8949 28.8751 61.2769 27.3483C61.5316 26.3622 61.6907 25.3762 61.8499 24.3901C61.9135 24.0402 61.9772 23.7221 62.0409 23.3722C62.0727 23.2132 62.1045 23.0542 62.1364 22.8951C62.2 22.577 62.2637 22.2589 62.3592 21.9409C62.4547 21.5274 62.582 21.1457 62.7412 20.764C63.6325 18.3147 65.7652 16.7561 67.516 14.8794C69.5533 12.7483 71.304 10.3945 73.3413 8.29515C74.7419 6.86378 76.3335 5.62326 77.957 4.47816C78.9756 3.77838 79.7396 3.61934 78.3708 3.04679C77.5113 2.6969 76.5245 2.47425 75.6014 2.34701C73.7233 2.09255 71.8452 2.53786 70.1899 3.26945C68.853 3.842 67.5797 4.28731 66.2427 4.76444C65.4151 5.05071 64.6829 5.49602 63.8553 5.75049C63.537 5.84591 61.8181 6.45027 61.5952 6.22761C62.7412 7.3409 64.5238 7.78621 66.0836 7.3409C63.1232 10.7444 58.9213 12.4302 54.815 14.0206C56.1838 15.3566 58.412 15.2611 60.3219 15.1021C59.367 16.0245 58.3802 16.8834 57.3297 17.6786C57.0751 17.8694 56.8204 18.0603 56.5657 18.2193C56.4384 18.3147 56.3111 18.3783 56.1838 18.4738C55.9291 18.6646 55.6426 18.8237 55.388 19.0145C54.242 19.7461 53.0324 20.4141 51.7591 20.9866C53.1597 21.591 54.7831 21.591 56.1838 20.9866C55.1333 24.1674 52.905 26.6803 50.0401 28.4297C51.8546 29.1931 53.86 29.4476 55.8018 29.1295C54.815 31.2289 52.3957 32.2785 50.1993 33.1055Z" fill="#1B1F3B"/>
<path d="M81.2994 4.57355C81.1402 4.41451 80.9811 4.28728 80.8219 4.16005C80.5991 4.03282 78.1798 2.88772 78.148 2.91953C79.0711 2.50602 80.0898 2.44241 81.0766 2.47421C82.7955 2.53783 84.1643 3.93739 85.7559 4.47813C86.87 4.85983 88.0796 4.98706 89.1938 4.63717C89.2893 4.95525 89.0028 5.24153 88.7163 5.43238C88.1433 5.78227 87.5385 6.03673 86.9019 6.19577C87.5703 6.48205 88.3343 6.60928 89.0664 6.54566C89.2256 6.89555 88.8436 7.27725 88.4935 7.43629C87.443 7.91342 86.1697 8.2315 85.0874 7.75437C83.2412 6.99098 82.5727 5.9095 81.2994 4.57355Z" fill="#1B1F3B"/>
<path d="M30.527 32.2149C30.3042 33.1691 29.1901 33.2327 28.7126 33.9007C27.3757 32.5647 27.694 30.8789 27.885 29.2567C28.076 27.6345 28.6171 26.0759 29.4448 24.6127C30.2406 23.1813 30.7817 21.6227 31.6093 20.1914C31.8322 19.8097 32.055 19.3325 31.5775 18.9826C31.1319 18.6327 30.6862 18.919 30.3361 19.2053C29.3811 20.0005 28.4898 20.8911 27.885 22.0044C26.0705 25.3761 23.142 26.9029 19.4495 27.1892C18.4308 27.2528 17.4122 27.4118 16.4254 27.5709C14.3245 27.9207 12.7965 29.1295 11.7461 30.9425C11.3004 31.7377 10.9184 32.5647 10.6319 33.4236C9.61332 36.7316 7.83071 39.4353 4.93398 41.4392C3.27871 42.5843 2.48291 44.3338 2.00543 46.2741C1.81443 47.1011 1.84626 48.2144 0.636642 48.437C-0.254658 47.1329 0.0318322 45.6697 0.0954965 44.2702C-0.0318322 44.0157 -0.0318322 43.6976 0.0954965 43.4431C0.795804 41.8845 1.17779 40.2623 1.55978 38.6083C2.29192 37.5268 3.02405 36.4772 3.81986 35.2684C2.99222 35.2684 2.45108 35.7138 1.65527 36.1273C2.16459 33.5508 3.31055 31.5787 4.87032 29.7656C5.82529 28.6523 7.03491 27.8253 7.63972 26.3621C8.56285 24.1674 10.6956 23.5312 12.8602 23.2449C14.5473 23.0223 16.2344 22.895 17.9215 22.8314C21.3275 22.7042 24.0015 21.3364 26.0387 18.6009C26.9618 17.3286 27.885 16.0245 29.1264 15.0066C29.7949 14.4659 30.4634 13.9569 31.2592 13.6389C32.246 13.2254 33.1373 13.3208 33.9649 13.9888C34.8244 14.7203 34.8881 15.7064 34.5061 16.6288C33.8694 18.1874 33.0736 19.6824 32.3096 21.2092C31.2592 23.404 30.0814 25.5351 29.7949 28.0162C29.7312 29.543 29.8586 30.9107 30.527 32.2149Z" fill="#221A19"/>
<path d="M0.700287 48.5006C1.43243 47.9917 1.46426 47.1329 1.62342 46.4013C2.03724 44.1111 3.02404 42.2026 4.9658 40.8985C7.6397 39.1172 9.29497 36.6044 10.1544 33.6144C11.4596 29.0976 14.3881 26.871 19.0674 26.7756C22.8555 26.6802 25.8159 25.1534 27.5985 21.6863C28.1714 20.5412 29.1264 19.746 30.0177 18.8554C30.5907 18.3146 31.2592 17.7739 32.0868 18.4737C32.8508 19.1098 32.4051 19.746 32.055 20.4458C30.6862 23.2767 28.9354 25.9168 28.3624 29.1294C28.0759 30.8153 28.2988 32.3421 28.7126 33.9325C28.6808 34.0279 28.6489 34.1551 28.5853 34.2505C28.3943 34.346 28.1714 34.4414 27.9805 34.505C27.121 33.9007 27.2165 32.9146 26.9937 32.0876C26.8027 31.3242 26.8345 30.529 26.7072 29.7338C26.6435 29.4157 26.7072 28.9704 26.3252 28.875C25.8477 28.7477 25.6249 29.193 25.4657 29.5111C24.4152 31.5787 23.7149 33.7734 23.0146 35.9682C22.6008 37.0815 22.2188 38.1948 21.6777 39.2762C21.0092 40.6122 21.0092 40.6122 19.1948 40.6758C18.9719 40.6758 19.0038 40.8985 18.9083 40.9939C17.9533 42.139 16.5209 43.4431 15.4067 42.4889C14.3563 41.5982 15.4067 39.9124 16.3299 38.7991C16.3617 38.7673 16.3299 38.7355 16.298 38.6401C13.7833 41.2484 10.1544 41.6937 7.16221 43.3795C6.36641 44.1429 6.14359 45.2244 5.6661 46.4013C5.31595 45.5425 4.58381 44.9699 3.979 45.0017C3.21503 45.0653 2.73754 45.9878 2.67388 46.783C2.57838 47.7372 1.68708 48.1507 1.40059 48.9459C1.3051 49.1686 1.11411 49.1686 1.01861 49.0732C0.827616 48.9141 0.795783 48.6915 0.700287 48.5006Z" fill="#1B1F3B"/>
<path d="M95.6238 15.1339C95.592 14.7204 95.3691 14.3705 95.2418 13.957C95.019 13.2572 95.4965 12.5893 95.4328 11.8895C95.3691 11.0625 94.6688 11.3169 94.064 11.4123C92.5361 11.6032 91.04 11.2851 89.5757 10.6489C87.8249 9.88555 86.5198 8.67684 85.342 7.18185C84.3234 5.90953 83.0819 4.79624 81.6176 4.09646C81.2357 3.90561 80.8218 3.81019 80.4398 3.61934C79.9305 3.36487 80.1215 3.26945 80.1534 2.6969C80.1852 2.02893 80.0897 1.36095 79.835 0.72479C79.7395 0.470324 79.5485 -0.197649 79.1666 0.056817C78.8801 0.247666 79.0392 1.20191 78.9437 1.52C78.6573 2.47424 77.7341 3.58753 76.8428 4.03284C75.9834 4.50997 74.9011 4.66901 73.9779 5.08251C71.9088 6.06857 70.2536 7.3409 68.6619 8.96311C67.0385 10.5853 64.4601 14.0524 63.6325 16.12C62.6138 18.6964 62.1045 21.4637 61.4042 24.1356C60.7039 26.8075 59.7171 29.5112 57.8708 31.5787C55.7381 33.9326 52.905 34.5369 49.8491 34.2188C49.117 34.1552 48.6077 34.0916 47.8755 33.8053C47.0161 33.4554 46.1566 33.1055 45.2971 32.7875C43.5782 32.1513 41.7956 31.6106 39.9493 31.3243C39.8538 31.2925 39.7265 31.2925 39.631 31.2607C38.3896 31.0698 37.1163 31.038 35.8748 31.1016C34.5379 31.1652 33.2009 31.3561 31.9276 31.6742C30.5907 31.9923 28.1078 33.2646 26.9936 34.0598C26.2615 34.6005 25.5612 35.2367 24.9246 35.9047C24.4152 36.4772 24.0969 36.9861 23.5876 37.8132C23.2693 38.3539 22.951 38.8628 22.7281 39.4672C22.2188 40.8031 21.9323 42.2027 21.8368 43.6341C21.6777 46.5286 22.378 49.455 23.9059 51.9042C24.6062 53.0175 25.4657 54.0353 26.166 55.1804C27.1528 56.8027 27.6303 58.7111 27.2483 60.556C26.8345 62.6872 26.166 64.7547 25.3065 66.7268C25.3065 66.7904 25.3065 66.854 25.3065 66.9177C25.3065 67.3312 25.0201 67.6811 24.8609 68.031C24.6381 68.5399 24.4471 69.0488 24.3197 69.5896C24.1606 70.2575 24.0651 70.9573 24.0651 71.6571C24.0651 72.2614 24.1924 72.7704 24.0969 73.3747C23.9696 74.1699 23.8741 74.9969 23.7468 75.7922C23.5239 77.3826 23.3011 78.9412 23.0783 80.5316C22.9191 81.5494 22.7918 82.5991 22.2825 83.4897C22.0597 83.9032 21.7413 84.2849 21.6458 84.7302C21.4867 85.4618 21.9323 85.8117 22.3143 86.3207C22.8236 87.0204 22.187 87.6248 21.805 88.2291C21.6777 88.42 21.5503 88.6427 21.4867 88.8653C21.4548 89.088 21.4867 89.3106 21.5185 89.5651C21.5503 89.8196 21.9005 90.6466 22.0278 90.8374C22.0915 90.9329 22.8555 90.8692 22.951 90.901C23.5876 90.9329 24.2561 90.9647 24.8927 90.9965C25.4339 91.0283 25.975 91.0919 26.5162 91.0919C26.6117 91.0919 26.7072 91.0919 26.7708 91.0601C27.2165 90.9329 27.0573 90.3285 26.7708 89.915C26.357 89.2788 25.975 88.6109 25.7522 87.8793C25.5612 87.2431 25.4657 86.5433 25.4339 85.8753C25.3384 84.6348 25.3702 83.4261 25.4975 82.1856C25.6249 80.9133 25.784 79.6409 26.0387 78.3686C26.166 77.7324 26.2933 77.0963 26.4843 76.4919C26.6435 75.8558 26.8027 75.2832 27.1528 74.7107C27.0891 74.8061 27.2483 75.2196 27.2801 75.315C27.3438 75.5377 27.4075 75.7285 27.4711 75.9512C27.5985 76.3965 27.7576 76.81 27.9168 77.2235C28.0759 77.637 28.2669 78.0187 28.4898 78.4322C28.7126 78.8139 28.9672 79.1638 29.1582 79.5773C29.3492 79.9908 29.4447 80.468 29.5721 80.8815C29.7312 81.454 29.8585 82.0266 29.954 82.5991C30.0495 83.1717 30.1132 83.776 30.1769 84.3486C30.2087 84.8575 30.2724 85.43 30.5588 85.9072C30.909 86.4797 32.1505 86.6069 31.864 87.4976C31.8003 87.6884 31.7048 87.8475 31.673 88.0383C31.6411 88.1337 31.6411 88.2292 31.6411 88.3246C31.6411 88.8017 31.7685 89.3106 31.9595 89.756C32.1505 90.2013 32.3096 90.4557 32.7871 90.6148C33.1691 90.742 33.5829 90.7738 33.9967 90.7738L36.3841 90.8374C36.798 90.8374 37.3073 90.8374 37.5619 90.4875C37.7529 90.2331 37.7529 89.8832 37.6574 89.5969C37.3709 88.7699 36.5433 88.0065 35.9703 87.3703C35.3337 86.6387 34.697 85.8753 34.2195 85.0483C33.3919 83.5852 32.6916 82.0266 32.1186 80.4361C30.9727 77.2553 30.3997 73.8837 30.3997 70.4802C30.3997 69.176 31.2592 68.2218 32.246 67.4902C32.9781 66.9177 33.7739 66.4405 34.4424 65.8044C36.1295 64.0867 36.4796 61.383 38.1349 59.6336C39.1535 58.5839 40.5541 57.9796 41.7001 57.0253C42.7824 56.1029 43.5782 54.8624 43.9284 53.4946C43.7692 54.0353 46.7614 54.8942 47.1434 55.0214C48.6713 55.4985 50.2311 55.7848 51.8227 55.912C55.2606 56.1983 58.2847 55.3713 61.5952 54.6079C62.0727 57.9478 62.391 61.3512 62.009 64.7229C61.8499 66.3133 61.2769 67.8083 61.1177 69.4305C60.9904 70.512 61.0222 71.6253 61.1496 72.7068C61.4042 74.6152 61.4997 76.5237 61.3405 78.4322C61.2769 79.3547 61.1814 80.3407 60.8949 81.2313C60.7039 81.8039 60.3219 82.3446 60.2264 82.949C60.0991 83.7124 60.5766 84.0941 61.0859 84.603C61.1496 84.6666 61.2132 84.7302 61.2769 84.7939C61.4997 85.0801 61.7225 85.3664 61.7862 85.7163C61.818 85.8435 61.818 86.0026 61.7544 86.1298C61.6907 86.257 61.5634 86.1934 61.4679 86.257C61.3724 86.3525 61.3405 86.5433 61.3405 86.6705C61.3405 86.9886 61.3405 87.3385 61.3405 87.6566C61.3405 87.8793 61.3406 88.1337 61.4042 88.3564C61.5952 89.0244 62.4865 89.2788 63.0913 89.2788C63.1868 89.2788 63.2823 89.2788 63.3778 89.2788C63.5688 89.2788 63.7598 89.2788 63.9508 89.2788C64.0781 89.2788 64.2054 89.2788 64.3328 89.2788C65.0012 89.2788 65.6379 89.3424 66.2745 89.1834C66.6565 89.088 66.8793 89.0562 66.6247 88.5154C66.4019 88.0701 66.2109 87.7202 65.9244 87.3067C65.2877 86.4161 64.6511 85.5255 64.1418 84.5394C63.3142 82.9172 62.9003 81.2314 62.9322 79.4183C62.9322 78.6231 63.4415 77.9233 63.6325 77.1281C63.8553 76.2375 63.919 75.3468 64.0463 74.4562C64.11 73.9155 64.3009 73.6928 64.6193 73.2475C64.9376 72.7386 65.1286 72.166 65.2559 71.5935C65.4151 70.7346 65.3832 69.8758 65.3832 69.017C65.3514 67.8401 65.3196 66.695 65.3196 65.5181C65.3196 64.373 65.6379 63.3233 65.8607 62.21C66.37 59.8244 66.8793 57.4388 67.3887 55.085C67.4842 54.5443 67.6115 53.9717 68.0571 53.6854C68.5028 53.431 69.0758 53.5582 69.4896 53.8445C69.9352 54.1626 70.2217 54.6715 70.4127 55.2122C70.5719 55.753 70.6355 56.2937 70.6992 56.8345C70.922 58.5203 71.2085 60.2697 71.2722 61.9556C71.3359 63.7368 71.3677 65.5181 71.3995 67.2994C71.3995 67.7129 71.3995 68.1264 71.304 68.5399C71.1449 69.176 70.731 69.685 70.5719 70.3211C70.4127 71.0209 70.4127 71.7207 70.5082 72.4205C70.6037 73.1203 70.7629 73.8519 70.9857 74.5198C71.1767 75.156 71.2085 75.9194 71.2404 76.5874C71.2404 76.8736 71.2404 77.1281 71.2404 77.4144C71.3995 77.4144 71.5268 77.4144 71.686 77.4462C72.1635 77.5734 72.641 77.637 73.1185 77.6688C73.1821 77.637 73.2776 77.6688 73.3413 77.6688C73.3731 77.3826 73.4049 77.0963 73.4368 76.81C73.5641 75.824 73.6278 74.7107 74.0098 73.7882C74.4236 72.7704 74.6782 71.8797 74.6146 70.7665C74.5827 69.8122 74.3599 68.9216 74.1371 67.9991C74.0098 67.4584 74.1371 66.7904 74.2007 66.2497C74.2326 65.5817 74.2962 64.9456 74.3917 64.2776C74.5509 62.9734 74.7737 61.6693 75.0921 60.397C75.5059 58.6793 76.0152 57.0253 76.3335 55.2759C76.6518 53.6854 76.9065 51.8406 76.3017 50.3138C76.1425 49.9003 76.5245 49.5504 76.7473 49.2641C77.0656 48.8506 77.3521 48.4371 77.6068 47.9918C78.1479 47.133 78.5618 46.1787 78.8801 45.2245C79.5167 43.2842 79.7077 41.2166 79.3894 39.1809C79.0392 36.8907 78.1161 34.7278 77.2885 32.5966C76.9065 31.6106 76.5882 30.5927 76.1425 29.6703C75.4422 28.2389 75.2512 26.7439 74.9647 25.1853C74.6782 23.5631 74.3599 21.9091 74.5191 20.255C74.6146 19.3008 74.8692 18.3465 75.3149 17.4877C75.6332 16.8834 76.047 16.438 76.5245 16.0245C76.7792 15.8019 77.0656 15.611 77.3521 15.3884C77.9251 16.1836 78.7846 16.7879 79.7395 17.0424C80.4399 17.2332 81.172 17.2332 81.8723 17.0742C82.5089 16.9152 82.7318 16.5653 83.4002 16.6289C84.1006 16.7243 84.8009 16.7879 85.5012 16.8197C87.0609 16.8515 88.5571 16.5971 90.085 16.3426C90.2123 16.3108 90.3397 16.279 90.467 16.279C91.1991 16.279 90.9445 17.4877 91.4538 17.9012C91.7084 18.0921 92.0268 18.1875 92.3451 18.1239C93.2682 17.9648 93.4592 16.8197 94.255 16.5335C94.4778 16.4699 94.7007 16.438 94.8917 16.3426C95.3373 16.2472 95.6556 15.6746 95.6238 15.1339Z" fill="#806358"/>
<path d="M75.5696 87.4021C75.3149 87.0522 75.0603 86.7341 74.7419 86.4161C73.8825 85.5254 73.5005 84.4758 73.3413 83.2352C73.1185 81.454 73.1822 78.8139 73.3413 77.0008C73.214 77.0008 72.8639 77.7324 72.7365 77.7324C72.1635 77.7006 71.7179 76.9372 71.1449 76.8418C71.1449 77.3825 71.1131 78.7185 71.0494 79.2592C70.9539 80.1499 70.8266 81.0405 70.6356 81.8993C70.5401 82.3446 70.4128 82.7581 70.3173 83.2034C70.2218 83.5533 69.9353 83.9668 70.1581 84.3167C70.3809 84.6666 70.9539 84.8893 71.2404 85.2074C71.5587 85.589 71.8134 86.0662 71.7816 86.5433C71.7816 86.766 71.7179 86.9886 71.6542 87.1795C71.6542 87.4975 71.4314 87.8474 71.3677 88.1655C71.2722 88.6108 71.1767 89.1198 71.3041 89.5969C71.3359 89.7877 71.3677 90.0422 71.5587 90.1376C71.8452 90.2967 72.1317 90.3603 72.45 90.4557C72.832 90.5511 73.214 90.6147 73.6278 90.6784C73.7551 90.7102 73.9143 90.7102 74.0416 90.742C74.8056 90.8692 75.6014 90.9964 76.3654 91.0919C76.5882 91.1237 76.8429 91.1555 77.0339 91.0283C77.193 90.901 77.2248 90.6784 77.2248 90.4875C77.2248 89.8832 76.8429 89.406 76.5564 88.9289C76.2699 88.3882 75.9516 87.8792 75.5696 87.4021Z" fill="#FCEDE8"/>
<path d="M76.9702 91.3463L71.6224 90.5511C71.4632 90.5193 71.3359 90.3921 71.304 90.2331L71.1449 88.9289L71.113 88.8017L76.2062 88.6108C76.3653 88.6108 76.5245 88.7063 76.5882 88.8335C76.8747 89.4697 77.193 90.1376 77.4158 90.8374C77.5113 91.1237 77.2566 91.41 76.9702 91.3463Z" fill="#1B1F3B"/>
<path d="M32.1187 90.2967L32.2142 90.742C32.246 90.8693 32.3415 90.9647 32.4688 90.9647L37.8166 91.1555C38.0076 91.1555 38.1668 90.9647 38.1031 90.7738C37.8803 90.1695 37.5938 89.6287 37.3073 89.0562C37.2436 88.929 37.1163 88.8971 36.989 88.929L32.3096 89.9786C32.1823 90.0104 32.0868 90.1377 32.1187 90.2967Z" fill="#1B1F3B"/>
<path d="M27.2165 91.2509L21.8368 91.0601C21.7413 91.0601 21.6458 90.9646 21.6458 90.8692L21.5503 90.233C21.5185 90.1058 21.614 89.9786 21.7095 89.9786L24.8927 89.3106L26.4843 88.9925C26.5798 88.9607 26.6435 89.0243 26.7072 89.1198C26.9936 89.7241 27.2483 90.3285 27.4711 90.9646C27.4711 91.0919 27.3438 91.2509 27.2165 91.2509Z" fill="#1B1F3B"/>
<path d="M66.8157 90.2967L61.7544 89.5333C61.5953 89.5015 61.4679 89.406 61.4361 89.247L61.3724 88.3564L61.3406 88.2291L61.3088 87.8156L65.9881 87.7838C66.1473 87.7838 66.2746 87.8474 66.3382 87.9747C66.6566 88.5472 66.9749 89.1516 67.2295 89.7877C67.325 90.074 67.0704 90.3603 66.8157 90.2967Z" fill="#1B1F3B"/>
<path d="M83.9096 7.75445C84.1325 7.69083 84.3553 7.65903 84.6099 7.62722L84.037 7.11829C82.7 7.43637 81.936 8.10434 81.5222 9.34486C81.8724 8.96316 82.2544 8.64508 82.6363 8.35881C82.509 8.61327 82.4772 8.86774 82.6045 9.09039C82.8273 9.5039 83.5913 9.75837 84.1006 9.47209C84.6099 9.18582 84.6736 8.48604 84.4508 8.07253C84.3235 7.91349 84.1325 7.78626 83.9096 7.75445Z" fill="#1B1F3B"/>
<path d="M84.5462 8.29515C84.7372 8.77227 84.4825 9.31301 84.005 9.50386C83.5276 9.69471 82.9864 9.44024 82.7954 8.96312C82.6044 8.486 82.8591 7.94526 83.3366 7.75441C83.814 7.56356 84.3552 7.81802 84.5462 8.29515Z" fill="#1B1F3B"/>
<path d="M84.3871 8.96322C84.4507 9.12226 84.3553 9.31311 84.1961 9.37672C84.0369 9.44034 83.8459 9.34492 83.7823 9.18587C83.7186 9.02683 83.8141 8.83598 83.9733 8.77237C84.1643 8.70875 84.3234 8.80418 84.3871 8.96322Z" fill="white"/>
<path d="M94.1914 13.7025C93.1727 13.3208 91.2946 12.3984 92.9181 11.8577C93.3955 11.6986 94.5097 11.5078 94.8598 12.0485C95.1463 12.4938 94.7007 13.3845 94.637 13.8616C94.5097 13.798 94.3505 13.7662 94.1914 13.7025Z" fill="#1B1F3B"/>
<path d="M94.3187 13.3845C93.1727 12.971 92.6634 12.5256 92.6316 12.3984L92.6634 12.3666C92.7271 12.3348 92.8226 12.2712 93.0454 12.1758C93.5547 12.0167 94.3824 11.9213 94.5733 12.2394C94.7007 12.4302 94.5415 12.9391 94.446 13.2572C94.4142 13.3208 94.4142 13.3527 94.4142 13.4163C94.3505 13.3845 94.3187 13.3845 94.3187 13.3845Z" fill="#161110"/>
<path d="M95.5602 15.5475C95.592 15.961 95.4328 16.4699 94.7007 17.0107C94.5415 17.1379 94.2869 17.1697 94.0959 17.1061C93.5866 16.8834 92.9818 16.629 92.4088 16.3745C92.2178 16.2791 92.0268 16.1836 91.8676 16.0882C91.804 16.0564 91.7403 16.0246 91.7085 15.9928C91.6448 15.961 91.613 15.9292 91.5811 15.9292L91.1037 15.5475C91.1991 15.6111 95.0508 17.615 95.4965 15.5793L95.5602 15.5475Z" fill="#806358"/>
</svg>
