<svg width="60" height="60" viewBox="0 0 60 60" fill="none" xmlns="http://www.w3.org/2000/svg">
<g clip-path="url(#clip0_18_389)">
<path d="M59.0605 47.9749C59.5794 47.9749 60 47.5545 60 47.0354V13.9666C60 13.7175 59.9011 13.4787 59.725 13.3023L49.7041 3.28148C49.5278 3.10535 49.2889 3.00645 49.0398 3.00645H27.9332V2.81836C27.9332 1.26434 26.6688 0 25.1148 0H2.81836C1.26434 0 0 1.26434 0 2.81836V33.1315C0 34.6855 1.26434 35.9498 2.81836 35.9498H10.0208V59.0605C10.0208 59.5794 10.4413 60 10.9603 60H59.0605C59.5794 60 60 59.5795 60 59.0605V52.0459C60 51.527 59.5795 51.1064 59.0605 51.1064C58.5416 51.1064 58.121 51.5269 58.121 52.0459V58.121H11.8998V35.9498H25.1148C26.6688 35.9498 27.9332 34.6855 27.9332 33.1315V16.9723C27.9332 16.4534 27.5127 16.0328 26.9937 16.0328C26.4746 16.0328 26.0542 16.4532 26.0542 16.9723V33.1316C26.0542 33.6497 25.6328 34.0711 25.1147 34.0711H2.81836C2.30027 34.0711 1.87887 33.6497 1.87887 33.1316V2.81836C1.87887 2.30027 2.30027 1.87887 2.81836 1.87887H25.1148C25.6329 1.87887 26.0543 2.30027 26.0543 2.81836V11.9624C26.0543 12.4813 26.4748 12.9019 26.9938 12.9019C27.5128 12.9019 27.9333 12.4814 27.9333 11.9624V4.8852H48.1035C48.1021 4.90594 48.1003 4.92668 48.1003 4.94777V13.9665C48.1003 14.4854 48.5208 14.906 49.0398 14.906H58.0586C58.0798 14.906 58.1004 14.9043 58.1211 14.9029V47.0355C58.1211 47.5545 58.5416 47.9749 59.0605 47.9749ZM49.9792 13.0271V6.21375L56.7926 13.0271H49.9792Z" fill="#007A7C"/>
<path d="M23.2359 43.0897H16.9729C16.4539 43.0897 16.0334 43.5102 16.0334 44.0292C16.0334 44.5481 16.4538 44.9687 16.9729 44.9687H23.2359C23.7548 44.9687 24.1754 44.5482 24.1754 44.0292C24.1753 43.5103 23.7548 43.0897 23.2359 43.0897Z" fill="#007A7C"/>
<path d="M23.2359 48.1002H16.9729C16.4539 48.1002 16.0334 48.5207 16.0334 49.0397C16.0334 49.5586 16.4538 49.9792 16.9729 49.9792H23.2359C23.7548 49.9792 24.1754 49.5587 24.1754 49.0397C24.1753 48.5207 23.7548 48.1002 23.2359 48.1002Z" fill="#007A7C"/>
<path d="M42.0251 29.0605C38.1853 29.0605 34.6062 30.5867 31.9468 33.3579C31.5875 33.7323 31.5997 34.327 31.9741 34.6863C32.3487 35.0457 32.9433 35.0334 33.3025 34.6589C35.6041 32.2605 38.702 30.9395 42.0251 30.9395C48.6902 30.9395 54.1127 36.362 54.1127 43.0272C54.1127 49.6923 48.6902 55.1148 42.0251 55.1148C35.3599 55.1148 29.9374 49.6923 29.9374 43.0272C29.9374 41.0587 30.3954 39.1819 31.2987 37.4489C31.5384 36.9888 31.3598 36.4214 30.8999 36.1816C30.4398 35.9421 29.8724 36.1204 29.6325 36.5805C28.6029 38.5561 28.0586 40.7854 28.0586 43.0272C28.0586 50.7284 34.324 56.9938 42.0252 56.9938C49.7264 56.9938 55.9918 50.7284 55.9918 43.0272C55.9918 35.326 49.7262 29.0605 42.0251 29.0605Z" fill="#007A7C"/>
<circle cx="42" cy="43" r="13" fill="#007A7C"/>
<path d="M44.1697 42.213L42.7139 42.1701V36.952H46.0334C46.5523 36.952 46.9729 36.5315 46.9729 36.0125C46.9729 35.4936 46.5524 35.073 46.0334 35.073H42.7139V34.0082C42.7139 33.4893 42.2934 33.0687 41.7744 33.0687C41.2555 33.0687 40.8349 33.4892 40.8349 34.0082V35.073H39.8954C38.3414 35.073 37.0771 36.3373 37.0771 37.8913V41.1481C37.0771 42.697 38.3332 43.9583 39.8802 43.9665L40.8349 43.9945V49.1021H38.0166C37.4977 49.1021 37.0771 49.5226 37.0771 50.0416C37.0771 50.5605 37.4975 50.9811 38.0166 50.9811H40.8349V52.0458C40.8349 52.5647 41.2554 52.9853 41.7744 52.9853C42.2933 52.9853 42.7139 52.5649 42.7139 52.0458V50.9811H44.1544C45.7084 50.9811 46.9727 49.7167 46.9727 48.1627V45.0312C46.9729 43.4825 45.7167 42.2213 44.1697 42.213ZM40.835 42.1149L39.9233 42.0881C39.9142 42.0878 39.9049 42.0877 39.8957 42.0877C39.3776 42.0877 38.9562 41.6663 38.9562 41.1482V37.8915C38.9562 37.3734 39.3776 36.952 39.8957 36.952H40.8352L40.835 42.1149ZM45.094 48.1629C45.094 48.681 44.6726 49.1024 44.1545 49.1024H42.714V44.05L44.1268 44.0916C44.136 44.0918 44.1452 44.092 44.1545 44.092C44.6726 44.092 45.094 44.5134 45.094 45.0315V48.1629Z" fill="white"/>
<path d="M23.9875 3.00623H3.9457C3.4268 3.00623 3.00621 3.42669 3.00621 3.94572V8.95619C3.00621 9.47509 3.42668 9.89568 3.9457 9.89568H23.9875C24.5064 9.89568 24.927 9.47521 24.927 8.95619V3.94572C24.927 3.42681 24.5065 3.00623 23.9875 3.00623ZM23.048 8.01669H4.88519V4.88521H23.0481V8.01669H23.048Z" fill="#007A7C"/>
<path d="M7.9541 11.0229H3.9457C3.4268 11.0229 3.00621 11.4434 3.00621 11.9624V15.9708C3.00621 16.4897 3.42668 16.9103 3.9457 16.9103H7.9541C8.47301 16.9103 8.89359 16.4899 8.89359 15.9708V11.9624C8.89348 11.4434 8.47301 11.0229 7.9541 11.0229ZM7.01461 15.0312H4.88519V12.9018H7.01461V15.0312Z" fill="#007A7C"/>
<path d="M15.9708 11.0229H11.9624C11.4435 11.0229 11.0229 11.4434 11.0229 11.9624V15.9708C11.0229 16.4897 11.4434 16.9103 11.9624 16.9103H15.9708C16.4897 16.9103 16.9103 16.4899 16.9103 15.9708V11.9624C16.9103 11.4434 16.4897 11.0229 15.9708 11.0229ZM15.0313 15.0312H12.9019V12.9018H15.0313V15.0312Z" fill="#007A7C"/>
<path d="M23.9875 11.0229H19.9791C19.4602 11.0229 19.0396 11.4434 19.0396 11.9624V15.9708C19.0396 16.4897 19.46 16.9103 19.9791 16.9103H23.9875C24.5064 16.9103 24.927 16.4899 24.927 15.9708V11.9624C24.927 11.4434 24.5065 11.0229 23.9875 11.0229ZM23.048 15.0312H20.9186V12.9018H23.048V15.0312Z" fill="#007A7C"/>
<path d="M7.9541 19.0397H3.9457C3.4268 19.0397 3.00621 19.4601 3.00621 19.9792V23.9876C3.00621 24.5065 3.42668 24.9271 3.9457 24.9271H7.9541C8.47301 24.9271 8.89359 24.5066 8.89359 23.9876V19.9792C8.89348 19.4601 8.47301 19.0397 7.9541 19.0397ZM7.01461 23.048H4.88519V20.9185H7.01461V23.048Z" fill="#007A7C"/>
<path d="M15.9708 19.0397H11.9624C11.4435 19.0397 11.0229 19.4601 11.0229 19.9792V23.9876C11.0229 24.5065 11.4434 24.9271 11.9624 24.9271H15.9708C16.4897 24.9271 16.9103 24.5066 16.9103 23.9876V19.9792C16.9103 19.4601 16.4897 19.0397 15.9708 19.0397ZM15.0313 23.048H12.9019V20.9185H15.0313V23.048Z" fill="#007A7C"/>
<path d="M7.9541 27.0564H3.9457C3.4268 27.0564 3.00621 27.4769 3.00621 27.9959V32.0043C3.00621 32.5232 3.42668 32.9438 3.9457 32.9438H7.9541C8.47301 32.9438 8.89359 32.5233 8.89359 32.0043V27.9959C8.89348 27.4769 8.47301 27.0564 7.9541 27.0564ZM7.01461 31.0648H4.88519V28.9354H7.01461V31.0648Z" fill="#007A7C"/>
<path d="M15.9708 27.0564H11.9624C11.4435 27.0564 11.0229 27.4769 11.0229 27.9959V32.0043C11.0229 32.5232 11.4434 32.9438 11.9624 32.9438H15.9708C16.4897 32.9438 16.9103 32.5233 16.9103 32.0043V27.9959C16.9103 27.4769 16.4897 27.0564 15.9708 27.0564ZM15.0313 31.0648H12.9019V28.9354H15.0313V31.0648Z" fill="#007A7C"/>
<path d="M23.9875 19.0397H19.9791C19.4602 19.0397 19.0396 19.4601 19.0396 19.9792V32.0042C19.0396 32.5231 19.46 32.9437 19.9791 32.9437H23.9875C24.5064 32.9437 24.927 32.5233 24.927 32.0042V19.9792C24.927 19.4601 24.5065 19.0397 23.9875 19.0397ZM23.048 31.0648H20.9186V20.9187H23.048V31.0648Z" fill="#007A7C"/>
<path d="M55.6989 22.1531L50.5815 17.2937C50.2055 16.9363 49.6109 16.9519 49.2534 17.328C48.896 17.7042 48.9116 18.2988 49.2878 18.6561L53.7059 22.8517L52.9261 23.6314L39.4192 10.1239C39.2879 9.9928 39.1209 9.90338 38.9391 9.86706L35.4579 9.17085L33.782 7.32292C33.4334 6.93842 32.839 6.90936 32.455 7.25799C32.0707 7.60651 32.0416 8.20053 32.39 8.58503C32.39 8.58503 34.3218 10.6987 34.386 10.741L34.9991 13.8068C35.0354 13.9887 35.1248 14.1557 35.256 14.2869L50.2249 29.256C50.7744 29.8053 51.4961 30.0799 52.2178 30.0799C52.9396 30.0799 53.6612 29.8053 54.2106 29.256H54.2107L54.3878 29.0788C55.4864 27.9799 55.4864 26.1919 54.3878 25.0931L54.2549 24.9602L55.7163 23.4988C56.0846 23.1303 56.0767 22.5117 55.6989 22.1531ZM36.7857 13.1597L36.4095 11.2774L38.2916 11.6538L47.3462 20.7087L45.8406 22.2143L36.7857 13.1597ZM53.0593 27.7501L52.8824 27.9272C52.5158 28.2933 51.9199 28.2936 51.5537 27.9272L47.1695 23.5428L48.675 22.0372L53.0593 26.4216C53.4257 26.7878 53.4255 27.3838 53.0593 27.7501Z" fill="#007A7C"/>
</g>
<defs>
<clipPath id="clip0_18_389">
<rect width="60" height="60" fill="white"/>
</clipPath>
</defs>
</svg>
