<svg width="24" height="24" viewBox="0 0 24 24" fill="none" xmlns="http://www.w3.org/2000/svg">
<path d="M2.25 4.5V15.75C2.25 16.575 2.925 17.25 3.75 17.25H20.25C21.075 17.25 21.75 16.575 21.75 15.75V4.5C21.75 3.675 21.075 3 20.25 3H3.75C2.925 3 2.25 3.675 2.25 4.5Z" fill="#311C11"/>
<path d="M6.75 21.75H17.25" stroke="#311C11" stroke-miterlimit="10" stroke-linecap="round" stroke-linejoin="round"/>
<path d="M9.75002 17.25C9.75002 18.825 9.22502 20.7 8.40002 21.75L9.75002 17.25Z" fill="#311C11"/>
<path d="M9.75002 17.25C9.75002 18.825 9.22502 20.7 8.40002 21.75" stroke="#311C11" stroke-miterlimit="10" stroke-linecap="round" stroke-linejoin="round"/>
<path d="M15.6 21.75C14.775 20.7 14.25 18.825 14.25 17.25L15.6 21.75Z" fill="#311C11"/>
<path d="M15.6 21.75C14.775 20.7 14.25 18.825 14.25 17.25" stroke="#311C11" stroke-miterlimit="10" stroke-linecap="round" stroke-linejoin="round"/>
<path d="M8.25 7.5C6.6 7.5 5.25 8.85 5.25 10.5C5.25 12.15 6.6 13.5 8.25 13.5C9.9 13.5 11.25 12.15 11.25 10.5" fill="#311C11"/>
<path d="M8.25 7.5C6.6 7.5 5.25 8.85 5.25 10.5C5.25 12.15 6.6 13.5 8.25 13.5C9.9 13.5 11.25 12.15 11.25 10.5" stroke="#F5F3CA" stroke-miterlimit="10" stroke-linecap="round" stroke-linejoin="round"/>
<path d="M9 6.75V9.75H12C12 8.1 10.65 6.75 9 6.75Z" fill="#311C11" stroke="#F5F3CA" stroke-miterlimit="10" stroke-linecap="round" stroke-linejoin="round"/>
<path d="M15 9H18.75" stroke="#F5F3CA" stroke-miterlimit="10" stroke-linecap="round" stroke-linejoin="round"/>
<path d="M17.25 11.25H18.75" stroke="#F5F3CA" stroke-miterlimit="10" stroke-linecap="round" stroke-linejoin="round"/>
</svg>
