<svg width="64" height="64" viewBox="0 0 64 64" fill="none" xmlns="http://www.w3.org/2000/svg">
<path d="M43.002 14.0004H42V12.3074L43.155 10.5744L43.293 10.7124C43.4881 10.9074 43.744 11.0054 44 11.0054C44.256 11.0054 44.512 10.9074 44.707 10.7124C45.098 10.3214 45.098 9.68936 44.707 9.29836L43.707 8.29836C43.683 8.27436 43.651 8.26535 43.625 8.24335C43.599 8.22135 43.584 8.19236 43.555 8.17336C43.526 8.15436 43.4919 8.15135 43.462 8.13535C43.4 8.10335 43.339 8.07735 43.274 8.05835C43.213 8.04135 43.155 8.02935 43.093 8.02435C43.029 8.01735 42.967 8.01835 42.9029 8.02535C42.8389 8.03135 42.7779 8.04335 42.7149 8.06135C42.6559 8.07935 42.602 8.10135 42.5459 8.13035C42.4839 8.16135 42.4299 8.19835 42.3749 8.24335C42.3489 8.26435 42.3169 8.27336 42.2929 8.29836C42.269 8.32336 42.2599 8.35435 42.238 8.38035C42.2161 8.40635 42.187 8.42135 42.1679 8.45035L40.465 11.0054H34.999C34.446 11.0054 33.999 11.4524 33.999 12.0054C33.999 12.5584 34.446 13.0054 34.999 13.0054H35V14.0004H28.997V12.3074L30.152 10.5744L30.29 10.7124C30.485 10.9074 30.741 11.0054 30.997 11.0054C31.253 11.0054 31.509 10.9074 31.704 10.7124C32.095 10.3214 32.095 9.68936 31.704 9.29836L30.704 8.29836C30.68 8.27436 30.648 8.26535 30.622 8.24335C30.596 8.22135 30.58 8.19236 30.552 8.17336C30.523 8.15336 30.489 8.15135 30.459 8.13535C30.397 8.10335 30.336 8.07735 30.271 8.05835C30.21 8.04035 30.151 8.02736 30.09 8.02236C30.026 8.01536 29.964 8.01635 29.9 8.02335C29.836 8.02935 29.775 8.04135 29.713 8.05935C29.653 8.07735 29.599 8.09936 29.543 8.12836C29.481 8.15936 29.427 8.19635 29.372 8.24135C29.346 8.26235 29.314 8.27135 29.29 8.29635C29.266 8.32135 29.257 8.35236 29.235 8.37836C29.213 8.40436 29.184 8.41935 29.165 8.44835L27.462 11.0034H21.996C21.443 11.0034 20.996 11.4504 20.996 12.0034C20.996 12.5564 21.443 13.0034 21.996 13.0034H21.997V14.0004H20.998C9.42 14.0004 0 23.4204 0 34.9984C0 46.5762 9.42 55.9962 20.998 55.9962H43.002C54.58 55.9962 64 46.5762 64 34.9984C64 23.4204 54.58 14.0004 43.002 14.0004ZM37 13.0044H40V14.0004H37V13.0044ZM40.9661 16.9984H36.034C36.5701 16.9794 37.0001 16.5464 37.0001 16.0054V16.0004H40.0001V16.0054C40 16.5464 40.43 16.9794 40.9661 16.9984ZM43 18.9984C51.822 18.9984 59 26.1764 59 34.9984C59 43.8204 51.822 50.9984 43 50.9984H35.992V49.9834H35.993C36.5461 49.9834 36.993 49.5364 36.993 48.9834C36.993 48.4302 36.5461 47.9834 35.993 47.9834H30.527L28.824 45.4284C28.804 45.4004 28.775 45.3844 28.754 45.3584C28.733 45.3324 28.724 45.3004 28.699 45.2764C28.674 45.2524 28.642 45.2424 28.616 45.2204C28.562 45.1764 28.508 45.1404 28.447 45.1084C28.39 45.0804 28.336 45.0564 28.276 45.0394C28.213 45.0194 28.153 45.0094 28.088 45.0022C28.025 44.9962 27.965 44.9952 27.901 45.0012C27.837 45.0074 27.778 45.0202 27.715 45.0372C27.651 45.0562 27.591 45.0814 27.5301 45.1132C27.5001 45.1292 27.4661 45.1322 27.4361 45.1512C27.4061 45.1701 27.392 45.2002 27.366 45.2212C27.34 45.2422 27.308 45.2512 27.284 45.2762L26.284 46.2762C25.893 46.6672 25.893 47.2994 26.284 47.6902C26.479 47.8854 26.735 47.9834 26.991 47.9834C27.247 47.9834 27.503 47.8854 27.698 47.6902L27.836 47.5522L28.991 49.2852V50.9972H21C12.178 50.9972 5 43.8191 5 34.9972C5 26.1751 12.178 18.9972 21 18.9972H43V18.9984ZM30.992 50.9984V49.9834H33.992V50.9984H30.992ZM23.997 16.0054V16.0004H26.997V16.0054C26.997 16.5464 27.427 16.9804 27.963 16.9984H23.031C23.567 16.9794 23.997 16.5464 23.997 16.0054ZM35 16.0004V16.0054C35 16.5464 35.4299 16.9804 35.9661 16.9984H28.0311C28.5671 16.9794 28.9971 16.5464 28.9971 16.0054V16.0004H35ZM23.997 13.0044H26.997V14.0004H23.997V13.0044ZM43.002 53.9964H20.998C10.522 53.9964 2 45.4744 2 34.9984C2 24.5224 10.522 16.0004 20.998 16.0004H21.997V16.0054C21.997 16.5464 22.427 16.9804 22.963 16.9984H21C11.075 16.9984 3 25.0734 3 34.9984C3 44.9232 11.075 52.9984 21 52.9984H28.995C29.003 53.5442 29.444 53.9844 29.992 53.9844C30.54 53.9844 30.981 53.5442 30.989 52.9984H33.995C34.0029 53.5442 34.444 53.9844 34.992 53.9844C35.5401 53.9844 35.981 53.5442 35.9891 52.9984H43C52.925 52.9984 61 44.9232 61 34.9984C61 25.0734 52.925 16.9984 43 16.9984H41.034C41.57 16.9794 42 16.5464 42 16.0054V16.0004H43.002C53.478 16.0004 62 24.5224 62 34.9984C62 45.4744 53.478 53.9964 43.002 53.9964Z" fill="#311C11"/>
<path d="M16.001 24.998V39.998V42.9919V42.9949V42.9979C16.001 43.5509 16.448 43.9979 17.001 43.9979H35H35.006H46.999C47.552 43.9979 47.999 43.5509 47.999 42.9979V42.9949V42.9919V39.998V24.998C47.999 24.445 47.552 23.998 46.999 23.998H17.001C16.448 23.998 16.001 24.445 16.001 24.998ZM21.9 25.998H42.097C42.4959 27.955 44.041 29.499 45.998 29.897V35.097C44.042 35.496 42.4969 37.0412 42.099 38.9972H21.9C21.501 37.0412 19.957 35.4972 18.001 35.099V29.896C19.957 29.498 21.501 27.954 21.9 25.998ZM45.999 38.998H44.183C44.485 38.15 45.152 37.483 45.999 37.182V38.998ZM18.001 37.183C18.848 37.485 19.515 38.151 19.816 38.9982H18.001V37.183ZM35 41.998H18.001V40.998H45.999V41.998H35.006H35ZM45.999 27.814C45.151 27.512 44.483 26.845 44.182 25.998H45.999V27.814ZM19.816 25.998C19.514 26.846 18.847 27.512 18.001 27.813V25.998H19.816Z" fill="#311C11"/>
<path d="M32 36.998C34.481 36.998 36.5 34.979 36.5 32.498C36.5 30.0169 34.481 27.998 32 27.998C29.519 27.998 27.5 30.017 27.5 32.498C27.5 34.979 29.519 36.998 32 36.998ZM32 29.998C33.379 29.998 34.5 31.119 34.5 32.498C34.5 33.8769 33.379 34.998 32 34.998C30.621 34.998 29.5 33.8769 29.5 32.498C29.5 31.119 30.621 29.998 32 29.998Z" fill="#311C11"/>
</svg>
