<svg width="51" height="64" viewBox="0 0 51 64" fill="none" xmlns="http://www.w3.org/2000/svg">
<path d="M49.9183 26.2781C51.1865 24.3352 50.9523 21.8074 49.3487 20.1306C48.6419 19.3916 48.3465 18.3534 48.5583 17.3531C49.0392 15.0833 47.9075 12.8106 45.8064 11.8265C44.8804 11.3927 44.2299 10.5312 44.066 9.522C43.6944 7.23175 41.8181 5.52138 39.5035 5.36263C38.4834 5.29262 37.5655 4.72438 37.0482 3.84238C35.8742 1.84125 33.5074 0.924125 31.2912 1.61213C30.3147 1.91537 29.2537 1.71688 28.4525 1.0815C26.6349 -0.3605 24.0963 -0.3605 22.2788 1.0815C21.4778 1.71713 20.4165 1.91537 19.4402 1.61213C17.2244 0.924 14.857 1.84113 13.6832 3.84238C13.1658 4.72438 12.248 5.29262 11.2279 5.36263C8.91315 5.52138 7.03703 7.23188 6.66528 9.522C6.50153 10.5312 5.8509 11.3927 4.92503 11.8265C2.82403 12.8108 1.6924 15.0834 2.17303 17.3531C2.3849 18.3534 2.0894 19.3917 1.38278 20.1307C-0.220724 21.8075 -0.455099 24.3355 0.813151 26.2784C1.37203 27.1345 1.47165 28.2095 1.07953 29.1539C0.189901 31.2966 0.884776 33.7385 2.76903 35.092C3.59953 35.6886 4.08065 36.655 4.05615 37.6771C4.00078 39.9965 5.53078 42.0225 7.77678 42.604C8.43978 42.7756 9.01578 43.1592 9.42853 43.6825L4.26303 56.1529C3.53915 57.9005 5.17753 59.7001 6.98415 59.1455L12.6394 57.41C12.8047 57.3596 12.9829 57.4335 13.0638 57.5859L15.8354 62.8119C16.722 64.4836 19.1527 64.3656 19.8757 62.62L25.2595 49.6224C25.3302 49.62 25.4008 49.62 25.4714 49.6224L30.8553 62.62C31.5796 64.3684 34.0102 64.4812 34.8957 62.812L37.6673 57.5859C37.748 57.4334 37.9264 57.3595 38.0917 57.4101L43.7468 59.1456C45.5544 59.7005 47.1915 57.8996 46.468 56.153L41.3024 43.6826C41.7152 43.1594 42.2912 42.7757 42.9542 42.6041C45.2001 42.0228 46.73 39.9967 46.6748 37.6772C46.6503 36.6551 47.1315 35.6888 47.962 35.0923C49.8464 33.7386 50.541 31.2967 49.6514 29.154C49.2599 28.2092 49.3595 27.1342 49.9183 26.2781ZM18.1438 61.9022C18.0262 62.1862 17.6354 62.2036 17.492 61.9333L14.7204 56.7072C14.219 55.7619 13.1127 55.3039 12.0898 55.6176L6.43453 57.3531C6.14115 57.4429 5.87803 57.1539 5.99553 56.8703L10.5783 45.8061C11.6123 47.2225 13.3408 48.0119 15.1604 47.7994C16.1759 47.681 17.1825 48.0707 17.8532 48.8425C18.826 49.9625 20.1969 50.557 21.5955 50.5569C22.0379 50.5569 22.4829 50.495 22.9192 50.3739L18.1438 61.9022ZM44.2971 57.353L38.642 55.6175C37.6191 55.3037 36.5125 55.7619 36.0113 56.7071L33.2397 61.9331C33.0965 62.2033 32.7053 62.1857 32.5878 61.9021L27.8134 50.376C29.6283 50.8797 31.5982 50.316 32.8785 48.8423C33.549 48.0704 34.5553 47.6804 35.5713 47.7991C37.3927 48.012 39.12 47.2224 40.1534 45.806L44.7364 56.8698C44.8541 57.1545 44.5895 57.4424 44.2971 57.353ZM48.3484 25.2534C47.4506 26.6287 47.2907 28.3555 47.9204 29.8725C48.4742 31.2064 48.0418 32.7264 46.8687 33.5691C45.5347 34.5274 44.7617 36.0797 44.8009 37.7216C44.8354 39.1656 43.8829 40.4269 42.4846 40.7887C41.1768 41.1274 40.0785 41.9786 39.4199 43.1297C39.4182 43.1331 39.4163 43.1364 39.4145 43.1396C39.2749 43.385 39.1539 43.6432 39.0565 43.9139C38.5672 45.2728 37.2243 46.1055 35.7889 45.9372C34.1578 45.7465 32.5404 46.3731 31.4633 47.613C30.5162 48.7032 28.9625 48.9936 27.6853 48.3192C27.2509 48.0897 26.7909 47.9305 26.3212 47.8384C26.3173 47.8375 26.3134 47.8366 26.3095 47.8359C25.6855 47.715 25.0443 47.7151 24.4203 47.8364C24.418 47.8369 24.4159 47.8374 24.4137 47.8377C23.9428 47.9299 23.4819 48.0894 23.0465 48.3192C21.7693 48.9937 20.2158 48.7032 19.2687 47.613C18.3189 46.5199 16.9498 45.9036 15.5209 45.9036C15.3292 45.9036 15.136 45.9147 14.9429 45.9374C13.5089 46.1052 12.1645 45.273 11.6752 43.914C11.5778 43.6436 11.457 43.3857 11.3175 43.1405C11.3154 43.1365 11.3133 43.1328 11.3112 43.1287C10.6524 41.9781 9.55453 41.1273 8.24703 40.7887C6.84878 40.4268 5.8964 39.1656 5.9309 37.7217C5.97015 36.0798 5.19715 34.5275 3.86315 33.5691C2.69015 32.7265 2.25753 31.2064 2.8114 29.8724C3.44115 28.3554 3.28115 26.6286 2.3834 25.2532C1.59403 24.0439 1.73978 22.4701 2.73815 21.4264C3.87328 20.2394 4.3479 18.5714 4.00765 16.9646C3.7084 15.5516 4.4129 14.1369 5.72078 13.5241C7.20815 12.8274 8.25315 11.4435 8.5164 9.82225C8.74778 8.3965 9.91578 7.33175 11.3567 7.233C12.9953 7.12063 14.4698 6.20775 15.3008 4.79087C16.0317 3.54513 17.5056 2.97438 18.8845 3.40263C20.4531 3.88975 22.1578 3.57113 23.4445 2.55025C24.5758 1.6525 26.1563 1.6525 27.2879 2.55025C28.5745 3.571 30.2789 3.88988 31.8478 3.40263C33.2271 2.97425 34.7009 3.54525 35.4315 4.79087C36.2625 6.20762 37.737 7.1205 39.3757 7.233C40.8165 7.33188 41.9845 8.39663 42.2159 9.82225C42.4791 11.4435 43.5243 12.8274 45.0115 13.5243C46.3195 14.1369 47.0239 15.5516 46.7247 16.9646C46.3844 18.5714 46.8589 20.2394 47.9942 21.4264C48.992 22.4701 49.1378 24.0439 48.3484 25.2534Z" fill="#311C11"/>
<path d="M7.60965 24.0157C8.12303 24.0788 8.5914 23.7136 8.65453 23.1998C9.68978 14.7854 16.8742 8.4403 25.3658 8.4403C33.8615 8.4403 41.0462 14.7888 42.078 23.2077C42.1363 23.6828 42.5405 24.0312 43.0073 24.0312C43.0454 24.0312 43.0838 24.0288 43.1225 24.0241C43.6364 23.9611 44.0019 23.4934 43.939 22.9796C42.792 13.6219 34.8073 6.56543 25.3658 6.56543C15.9287 6.56543 7.9444 13.6182 6.79365 22.9708C6.73053 23.4847 7.09578 23.9524 7.60965 24.0157Z" fill="#311C11"/>
<path d="M43.1227 26.5324C42.6103 26.4699 42.1412 26.835 42.0782 27.3489C41.0466 35.7681 33.8619 42.117 25.3658 42.117C16.8735 42.117 9.68915 35.7712 8.65428 27.3562C8.59115 26.8425 8.12365 26.4774 7.6094 26.5402C7.09565 26.6034 6.73015 27.0712 6.7934 27.5851C7.94365 36.9385 15.9279 43.9917 25.3657 43.9917C34.8077 43.9917 42.7924 36.9349 43.9389 27.5767C44.002 27.063 43.6365 26.5954 43.1227 26.5324Z" fill="#311C11"/>
<path d="M38.6031 21.4105C38.3649 20.6772 37.7131 20.1855 36.9425 20.1578L29.5924 19.8942L27.0703 12.9852C26.8059 12.261 26.1369 11.793 25.3659 11.793C24.5949 11.793 23.9259 12.261 23.6615 12.9852L21.1394 19.8942L13.7893 20.1578C13.0188 20.1855 12.3669 20.6772 12.1286 21.4105C11.8904 22.1437 12.1286 22.9247 12.7358 23.4L18.5271 27.9336L16.5066 35.0056C16.2948 35.747 16.561 36.5188 17.1849 36.9721C17.808 37.4248 18.6244 37.4403 19.2645 37.0093L25.3658 32.9022L31.4671 37.0091C32.1065 37.4396 32.9229 37.4251 33.5468 36.9718C34.1706 36.5187 34.4368 35.7468 34.2249 35.0053L32.2044 27.9335L37.9958 23.3998C38.603 22.9246 38.8414 22.1437 38.6031 21.4105ZM31.0169 26.4822C30.4325 26.9397 30.1866 27.6963 30.3906 28.4096L32.3769 35.3615L26.3791 31.3243C26.0713 31.1171 25.7185 31.0135 25.3658 31.0135C25.013 31.0135 24.6603 31.1171 24.3525 31.3242L18.3546 35.3613L20.3409 28.4096C20.5448 27.6961 20.299 26.9397 19.7148 26.4822L14.0215 22.0255L21.2471 21.7662C21.9886 21.7396 22.6321 21.272 22.8865 20.5751L25.3659 13.7833L27.8453 20.5751C28.0998 21.272 28.7431 21.7396 29.4846 21.7661L36.71 22.0253L31.0169 26.4822Z" fill="#311C11"/>
</svg>
