<svg width="46" height="62" viewBox="0 0 46 62" fill="none" xmlns="http://www.w3.org/2000/svg">
<path d="M30.0002 17H32.0002V23H30.0002V17Z" fill="#311C11"/>
<path d="M30.0002 25H32.0002V27H30.0002V25Z" fill="#311C11"/>
<path d="M43.9892 18.181C43.8782 9.466 42.0562 1.144 41.9762 0.783L41.8022 0H38.0002V3H36.0002V0H34.0002V3H32.0002V0H30.0002V3H28.0002V0H26.0002V3H24.0002V0H20.1982L20.0242 0.783C19.9442 1.143 18.1222 9.465 18.0112 18.181C16.8442 18.592 16.0002 19.694 16.0002 21V23C16.0002 24.654 17.3462 26 19.0002 26H20.3862L23.2683 48.387C23.6212 51.145 25.4512 53.4411 28.0002 54.45V57C28.0002 58.013 28.7592 58.843 29.7362 58.973C29.3932 59.583 28.7482 60 28.0002 60H16.0002C14.8972 60 14.0002 59.103 14.0002 58V17C14.0002 14.243 11.7572 12 9.0002 12C6.2432 12 4.0002 14.243 4.0002 17V22C2.8972 22 2.0002 22.897 2.0002 24V26.161C1.3572 26.428 0.869203 27.01 0.761203 27.735L0.0212034 33.7119C-0.0627966 34.279 0.105204 34.855 0.482204 35.292C0.862204 35.732 1.4132 35.985 2.0002 35.996V38H4.0002V36H6.0002V38H8.0002V35.996C8.5862 35.985 9.1382 35.732 9.5182 35.292C9.8952 34.855 10.0632 34.279 9.9822 33.7361L9.2362 27.712C9.1312 27.004 8.6432 26.427 8.0002 26.161V24C8.0002 22.897 7.1032 22 6.0002 22V17C6.0002 15.346 7.3462 14 9.0002 14C10.6542 14 12.0002 15.346 12.0002 17V58C12.0002 60.206 13.7942 62 16.0002 62H28.0002C29.8582 62 31.4112 60.72 31.8582 59H32.0002C33.1032 59 34.0002 58.103 34.0002 57V54.45C36.5492 53.4411 38.3792 51.1451 38.7321 48.387L41.6212 26H43.0002C44.6542 26 46.0002 24.654 46.0002 23V21C46.0002 19.694 45.1562 18.592 43.9892 18.181ZM6.0002 24V26H4.0002V24H6.0002ZM7.9602 34L2.0032 33.981L2.7832 28L7.2552 27.981L8.0052 33.984C8.0032 33.985 7.9932 34 7.9602 34ZM41.2422 18C39.5992 13.785 35.5752 11 31.0002 11C26.4252 11 22.4012 13.785 20.7582 18H20.0872L20.2802 15.682C20.6182 11.623 23.8952 9 28.6281 9H33.3711C38.1041 9 41.3811 11.623 41.7191 15.682L41.9132 18H41.2422ZM25.4252 14.934C26.9732 13.712 28.9152 13 31.0002 13C33.0852 13 35.0272 13.712 36.5752 14.934C35.5532 16.005 34.0002 18.249 34.0002 22V30C34.0002 30.551 33.5512 31 33.0002 31H29.0002C28.4492 31 28.0002 30.551 28.0002 30V22C28.0002 18.249 26.4472 16.005 25.4252 14.934ZM22.0002 2V5H40.0002V2H40.1862C40.4622 3.38 41.0322 6.465 41.4601 10.235C39.6162 8.204 36.7792 7 33.3722 7H28.6293C25.2222 7 22.3853 8.204 20.5413 10.235C20.9693 6.465 21.5393 3.381 21.8153 2H22.0002ZM19.0002 24C18.4492 24 18.0002 23.551 18.0002 23V21C18.0002 20.449 18.4492 20 19.0002 20H20.1902C20.0692 20.657 20.0002 21.325 20.0002 22V23L20.1292 24H19.0002ZM32.0002 57H30.0002V53L32.0002 53.003V57ZM33.8702 52.311C33.5882 51.548 32.8602 51 32.0002 51H30.0002C29.5112 51 29.0382 51.182 28.6612 51.517C28.4182 51.736 28.2442 52.012 28.1323 52.313C27.2443 51.832 26.5093 51.13 25.9993 50.274C26.8532 48.749 28.4863 48 31.0002 48C33.5142 48 35.1472 48.75 36.0002 50.273C35.4912 51.128 34.7572 51.83 33.8702 52.311ZM40.0002 22.936L36.7683 47.978C35.4602 46.665 33.5302 46 31.0002 46C28.4712 46 26.5402 46.665 25.2321 47.978L22.0002 22.936V22C22.0002 21.079 22.1392 20.171 22.4142 19.301C22.7632 18.194 23.3122 17.198 24.0062 16.337C24.7582 17.129 26.0002 18.904 26.0002 22V30C26.0002 31.654 27.3462 33 29.0002 33H33.0002C34.6542 33 36.0002 31.654 36.0002 30V22C36.0002 18.905 37.2392 17.133 37.9952 16.338C38.6892 17.199 39.2382 18.195 39.5872 19.301C39.8612 20.171 40.0002 21.079 40.0002 22V22.936ZM44.0002 23C44.0002 23.551 43.5512 24 43.0002 24H41.8792L41.9921 23.128L42.0002 22C42.0002 21.325 41.9312 20.657 41.8102 20H43.0002C43.5512 20 44.0002 20.449 44.0002 21V23Z" fill="#311C11"/>
</svg>
