<svg width="24" height="24" viewBox="0 0 24 24" fill="none" xmlns="http://www.w3.org/2000/svg">
<path d="M12.6362 3.84469C12.5913 3.04937 12.3797 2.30578 12.072 1.58159C11.9759 1.34881 11.9053 1.06431 11.9374 0.818603C12.0207 0.249594 12.5592 -0.0801716 13.1362 0.0168184C13.5593 0.0879444 13.8862 0.320721 14.1491 0.656953C15.0338 1.79497 15.8095 3.00411 16.4698 4.29085C16.5659 4.47189 16.6813 4.58182 16.8801 4.65294C19.5854 5.65517 21.9381 7.21348 23.9575 9.28907C24.0152 9.35373 24.0152 9.45072 23.9511 9.50891L23.6113 9.82574C23.5536 9.88394 23.4575 9.87747 23.3998 9.81928C22.1689 8.55841 20.7778 7.46565 19.2071 6.57981C19.1751 6.6574 19.143 6.72206 19.1174 6.78026C18.8482 7.3234 18.5853 7.87948 18.2968 8.41616C18.175 8.64247 18.0853 8.85584 18.0212 9.11448C17.9314 9.48305 18.0019 9.77402 18.1366 10.0973C19.0982 12.5156 19.579 15.0244 19.5982 17.6302C19.5982 17.7531 19.6303 17.8759 19.6815 17.9858C20.3931 19.486 20.7521 21.0637 20.7457 22.7319C20.7457 23.0423 20.7457 23.3591 20.7457 23.6759C20.7457 23.857 20.6047 23.9992 20.4252 23.9992H20.2906C20.1175 23.9992 19.9764 23.857 19.9764 23.6759V23.6695C19.9957 22.5314 19.97 21.3999 19.688 20.2813C19.4315 19.2661 19.0405 18.3091 18.4891 17.4233C18.4571 17.3716 18.4186 17.3198 18.393 17.281C17.9506 17.5914 17.534 17.9212 17.0852 18.1928C15.7261 19.0204 14.2324 19.4019 12.649 19.3502C12.2579 19.3372 11.9694 19.4472 11.6681 19.7058C10.4501 20.7727 9.0141 21.3934 7.41783 21.6197C7.27038 21.6391 7.2191 21.6973 7.18063 21.8331C6.95626 22.6026 6.44981 23.0552 5.67411 23.2168C5.52025 23.2492 5.3664 23.3397 5.22536 23.4302C4.86636 23.6695 4.50095 23.9022 4.05861 23.9669C3.41113 24.0639 2.84057 23.9087 2.32771 23.5078C2.00077 23.2492 1.68023 22.9841 1.35329 22.7254C0.994285 22.4409 0.801963 22.0724 0.769909 21.6068C0.757088 21.4452 0.680159 21.2835 0.59682 21.1412C0.224998 20.514 0.0262652 19.848 0.000622343 19.1239C-0.0121991 18.6777 0.173712 18.2509 0.500659 17.9535C1.7187 16.8284 2.92391 15.6839 4.14836 14.5653C5.39845 13.4208 6.12286 11.8043 6.15492 10.1038C6.16774 9.17914 6.57161 8.43555 7.32808 7.91181C8.06531 7.39453 8.66151 6.76086 9.09103 5.97201C9.15514 5.84915 9.14872 5.76509 9.08462 5.64871C8.25763 4.20679 8.23199 2.74547 9.02051 1.27769C9.17437 0.993185 9.34105 0.721613 9.50772 0.450041C9.73851 0.0814784 10.1103 -0.0672396 10.495 0.0426824C10.886 0.152604 11.1296 0.475905 11.136 0.902661C11.1489 1.87256 11.4309 2.75194 11.9438 3.57312C12.1105 3.84469 12.3092 3.92875 12.6362 3.84469ZM6.2639 13.007C6.91779 13.492 7.57169 13.9187 8.16147 14.4231C8.75126 14.9339 9.27694 15.5223 9.84108 16.0848C11.9823 14.2873 13.6939 12.1082 14.9376 9.57357C14.9248 9.54124 14.9184 9.52831 14.9184 9.52831C14.8863 9.50244 14.8543 9.47658 14.8222 9.45718C13.0144 8.22218 11.0142 7.67903 8.84101 7.75016C8.77049 7.75016 8.69356 7.79542 8.63587 7.84068C8.32815 8.07992 8.02685 8.33856 7.71913 8.57781C7.24474 8.9399 6.94344 9.41192 6.93061 10.0068C6.89856 11.0672 6.71265 12.0824 6.2639 13.007ZM4.85354 14.9533C3.55216 16.1624 2.26361 17.3586 0.987874 18.5678C0.86607 18.6842 0.782731 18.904 0.782731 19.0786C0.769909 19.6864 0.968642 20.2425 1.26353 20.7727C1.40457 21.0249 1.44304 21.3288 1.54561 21.6068C1.6033 21.7685 1.661 21.956 1.77639 22.0594C2.12257 22.3698 2.48798 22.6608 2.8598 22.9388C3.21239 23.2039 3.61627 23.3074 4.03938 23.1716C4.30863 23.0811 4.54583 22.9065 4.79584 22.7707C4.98175 22.6737 5.06509 22.5314 5.09715 22.3181C5.1869 21.7167 5.41768 21.1736 5.78309 20.6886C5.95618 20.4559 6.14851 20.2425 6.37288 20.0614C6.54597 19.9192 6.8024 19.958 6.93061 20.1455L6.93702 20.152C7.04601 20.3136 7.01395 20.527 6.86651 20.6563C6.37929 21.0895 6.03952 21.6133 5.89208 22.3181C5.97542 22.2663 6.01388 22.2469 6.05234 22.2211C6.35365 22.0012 6.44981 21.665 6.51392 21.3223C6.5652 21.0572 6.71265 20.9408 6.9819 20.8955C7.61656 20.7727 8.24481 20.624 8.86665 20.4623C9.06539 20.4106 9.24488 20.3136 9.45003 20.2295C9.34746 19.9774 9.25771 19.764 9.17437 19.5441C9.10385 19.3566 8.99487 19.2273 8.81537 19.1239C8.32815 18.8394 8.09737 18.3867 8.07172 17.8242C8.06531 17.7337 8.04608 17.6302 7.99479 17.5591C7.13576 16.4663 6.09722 15.5999 4.85354 14.9533ZM11.4181 18.9169C11.6617 18.529 12.0143 18.5807 12.3605 18.5807C12.5977 18.5807 12.8413 18.5872 13.0785 18.5807C14.553 18.529 15.8992 18.0893 17.1173 17.2423C17.2391 17.1582 17.2839 17.0677 17.2647 16.9254C17.1365 15.9297 17.0467 14.9274 16.8801 13.9317C16.7647 13.2527 16.5467 12.5867 16.3736 11.9143C16.2582 11.9919 16.2133 12.063 16.1685 12.1341C15.5979 12.9682 15.053 13.8217 14.444 14.63C13.5208 15.8521 12.4374 16.9254 11.2643 17.9018C11.104 18.0376 11.0527 18.1604 11.1617 18.3544C11.2514 18.5161 11.3155 18.6971 11.4181 18.9169ZM10.3988 5.44826C10.4245 5.45473 10.4437 5.46766 10.4629 5.46766C12.4246 5.66164 14.2324 6.28884 15.8864 7.36866C16.0531 7.47859 16.1749 7.42686 16.271 7.27814C16.4121 7.05183 16.5531 6.82552 16.6685 6.59274C16.7134 6.50222 16.7134 6.3535 16.6685 6.26944C16.2903 5.55172 15.8992 4.84046 15.5146 4.12273C14.9376 3.06231 14.2773 2.05361 13.5208 1.10957C13.4119 0.973787 13.2452 0.863865 13.0849 0.799205C12.9887 0.760409 12.8157 0.799205 12.7451 0.863865C12.6874 0.915593 12.7003 1.09664 12.7451 1.18716C13.1298 2.01481 13.3734 2.88126 13.4247 3.7865C13.4503 4.19386 13.4375 4.60768 13.4311 5.01504C13.4311 5.22195 13.258 5.39653 13.0529 5.39653C12.8413 5.39653 12.6746 5.22195 12.6746 5.01504V4.65941C11.7451 4.56888 10.8027 4.90512 10.3988 5.44826ZM15.4376 10.2784C14.226 12.632 12.6233 14.6752 10.6488 16.4017C10.5719 16.4728 10.5655 16.5892 10.636 16.6668C10.6873 16.7185 10.7322 16.7702 10.7706 16.8155C10.8091 16.8608 10.8412 16.906 10.8732 16.9577C10.9373 17.0483 11.0591 17.0612 11.1425 16.9901C13.2131 15.1796 14.8735 13.0523 16.13 10.6146C16.1749 10.5241 16.1364 10.4077 16.0467 10.3624L15.6813 10.1878C15.5915 10.1555 15.4889 10.1943 15.4376 10.2784ZM11.2707 3.98048C11.1296 3.70244 10.9758 3.4244 10.8412 3.13343C10.5399 2.46097 10.3924 1.74324 10.3668 1.00612C10.3668 0.934991 10.3219 0.863865 10.2962 0.792739C10.2321 0.838001 10.1488 0.876797 10.1103 0.941457C9.98212 1.13544 9.86672 1.34235 9.74492 1.54926C9.39233 2.13767 9.20001 2.8166 9.21924 3.50846C9.23847 4.06454 9.36669 4.58828 9.62953 5.0603C9.89237 4.84046 10.1232 4.62061 10.3924 4.44603C10.6617 4.25852 10.9694 4.13566 11.2707 3.98048ZM17.4378 10.4465C17.3865 10.3172 17.2198 10.2913 17.1301 10.3948C16.9442 10.6081 16.8159 10.9573 16.8929 11.1577C17.3993 12.5544 17.7519 13.9899 17.9122 15.4706C17.9378 15.6969 17.9635 15.9297 17.9891 16.1689C18.0019 16.2982 18.1366 16.3693 18.252 16.3111C18.3417 16.2659 18.4315 16.253 18.5212 16.2788C18.643 16.3111 18.752 16.2077 18.7392 16.0848C18.5853 14.1192 18.1494 12.2505 17.4378 10.4465ZM9.70646 6.97424C11.5527 7.05183 13.2388 7.56264 14.803 8.50668C14.8991 8.56487 15.0274 8.51961 15.0658 8.40969C15.0851 8.35796 15.1043 8.30623 15.1235 8.26097C15.1556 8.19631 15.1876 8.13812 15.2197 8.07992C15.271 7.99587 15.2389 7.87948 15.1556 7.82775C13.6619 6.92251 12.0528 6.40523 10.3283 6.23711C9.9693 6.20478 9.71287 6.24358 9.59106 6.62507C9.58465 6.65094 9.57183 6.6768 9.5526 6.70266C9.48849 6.81905 9.56542 6.96777 9.70646 6.97424ZM8.87306 16.2012C8.05249 15.2443 7.1037 14.4489 6.00106 13.8153C5.92413 13.77 5.82156 13.7894 5.76386 13.867L5.52667 14.1903C5.46256 14.2808 5.4882 14.4037 5.58436 14.4619C6.61649 15.0567 7.50758 15.8003 8.27687 16.6862C8.34097 16.7573 8.44995 16.7702 8.52688 16.712L8.84742 16.4663C8.92435 16.4081 8.93717 16.2853 8.87306 16.2012ZM16.3864 8.13812C16.0787 8.18985 15.8223 8.42909 15.7582 8.73946C15.6492 9.2632 16.0851 9.73522 16.6044 9.67056C16.957 9.6253 17.2326 9.34079 17.2711 8.98516C17.3224 8.48081 16.8929 8.06053 16.3864 8.13812ZM10.3668 17.8565C10.3924 17.4168 10.0462 17.0483 9.61671 17.0418C9.20001 17.0353 8.84742 17.3716 8.8346 17.7919C8.82819 18.2316 9.18078 18.5936 9.61671 18.5872C10.0078 18.5742 10.3411 18.2509 10.3668 17.8565ZM17.7583 6.0496C17.5596 6.48929 17.3609 6.90958 17.1749 7.3234C17.1365 7.40099 17.1621 7.49798 17.2326 7.54971C17.3352 7.6273 17.4442 7.7049 17.5596 7.79542C17.6493 7.86655 17.784 7.82775 17.8353 7.72429C18.0404 7.27814 18.2455 6.83845 18.4571 6.38583C18.502 6.29531 18.4635 6.18539 18.3738 6.14012L18.0083 5.96554C17.9122 5.91381 17.8032 5.95261 17.7583 6.0496ZM10.0526 19.667C10.0911 19.7705 10.2257 19.8093 10.3219 19.7446C10.4501 19.6605 10.5719 19.5765 10.6873 19.4924C10.7258 19.4666 10.7578 19.3825 10.745 19.3372C10.7322 19.2855 10.7129 19.2402 10.6937 19.1885C10.6488 19.0915 10.5399 19.0527 10.4437 19.098L10.0847 19.279C10.0014 19.3243 9.96289 19.4213 9.99494 19.5118L10.0526 19.667Z" fill="#181818"/>
<path d="M11.4694 12.7743C11.0463 12.8002 10.6937 12.645 10.4822 12.2506C10.277 11.8626 10.354 11.4876 10.5976 11.1449C10.7002 11.0026 10.7899 10.8539 10.8925 10.7052C11.2707 10.1297 11.6169 9.98099 12.2964 10.1168C12.7259 10.2008 13.1042 10.3754 13.3093 10.8022C13.5401 11.2613 13.4375 11.785 13.0593 12.1536C12.649 12.548 12.0977 12.7678 11.4694 12.7743ZM11.4887 12.0372C11.899 11.9919 12.2387 11.8626 12.5272 11.591C12.6747 11.4552 12.7195 11.2936 12.617 11.1125C12.4246 10.7892 11.7772 10.7634 11.572 11.0737C11.4694 11.2289 11.354 11.3776 11.2707 11.5393C11.213 11.6427 11.1425 11.7915 11.181 11.8755C11.213 11.966 11.3797 11.9919 11.4887 12.0372Z" fill="#181818"/>
<path d="M4.99465 19.9257C4.98824 19.971 5.00106 20.1003 4.94336 20.1908C4.69334 20.6046 4.46897 21.0508 4.15484 21.4129C3.84072 21.7685 3.29581 21.775 2.88552 21.5422C2.46882 21.3029 2.23804 20.8309 2.31496 20.333C2.41113 19.7188 2.77013 19.2403 3.174 18.8006C3.41761 18.5355 3.76379 18.5484 4.09715 18.6454C4.62282 18.8006 4.98824 19.2985 4.99465 19.9257ZM3.14195 20.2425C3.0522 20.4236 3.07143 20.6434 3.21247 20.7921C3.23811 20.818 3.26375 20.8374 3.28939 20.8503C3.38556 20.9021 3.59711 20.8891 3.65481 20.818C3.86636 20.5529 4.06509 20.2619 4.21254 19.958C4.31511 19.7511 4.14202 19.4989 3.92406 19.3955C3.68045 19.2791 3.60352 19.4537 3.50095 19.6153C3.45607 19.6929 3.39838 19.7576 3.3535 19.8352C3.27657 19.971 3.21247 20.1003 3.14195 20.2425Z" fill="#181818"/>
<path d="M5.13562 17.7401C5.7254 18.2768 6.05235 18.9299 6.12928 19.7252C6.14851 19.9321 5.98824 20.1132 5.77669 20.1132H5.71899C5.53949 20.1132 5.38564 19.9774 5.37281 19.7963C5.31512 19.2144 5.07792 18.723 4.64199 18.3156C4.51378 18.1992 4.48172 17.9988 4.57788 17.8501L4.60994 17.7983C4.73174 17.6302 4.97535 17.5979 5.13562 17.7401Z" fill="#181818"/>
</svg>
