<svg width="24" height="24" viewBox="0 0 24 24" fill="none" xmlns="http://www.w3.org/2000/svg">
<path d="M17.3278 9.8548C17.3278 10.5561 17.8978 11.1298 18.6028 11.1298C19.3078 11.1298 19.8778 10.5598 19.8778 9.8548C19.8778 9.1498 19.3041 8.5798 18.6028 8.5798C17.9016 8.5798 17.3278 9.1498 17.3278 9.8548ZM19.1278 9.8548C19.1278 10.1436 18.8916 10.3798 18.6028 10.3798C18.3141 10.3798 18.0778 10.1436 18.0778 9.8548C18.0778 9.56605 18.3141 9.3298 18.6028 9.3298C18.8916 9.3298 19.1278 9.56605 19.1278 9.8548ZM9.56531 7.1098C9.56531 6.25105 8.86406 5.5498 8.00531 5.5498C7.14656 5.5498 6.44531 6.25105 6.44531 7.1098C6.44531 7.96855 7.14656 8.66981 8.00531 8.66981C8.86406 8.66981 9.56531 7.96855 9.56531 7.1098ZM7.19531 7.1098C7.19531 6.66355 7.55906 6.2998 8.00531 6.2998C8.45156 6.2998 8.81531 6.66355 8.81531 7.1098C8.81531 7.55605 8.45156 7.91981 8.00531 7.91981C7.55906 7.91981 7.19531 7.55605 7.19531 7.1098Z" fill="#311C11"/>
<path d="M16.6803 17.9325C16.8394 17.9328 16.9963 17.8956 17.1384 17.8239C17.2804 17.7523 17.4035 17.6481 17.4978 17.52C17.8316 17.07 17.7341 16.4288 17.3103 16.1175C16.9803 15.825 16.4928 15.2812 16.4441 14.9813C16.3578 14.4713 16.2041 14.0963 15.9566 13.8038C15.7916 13.605 15.6041 13.4812 15.4241 13.38C16.2903 12.12 16.7816 10.62 16.7816 9.09C16.7816 4.905 13.3766 1.5 9.19156 1.5C5.00656 1.5 1.60156 4.905 1.60156 9.09C1.60156 13.275 5.00656 16.68 9.19156 16.68C10.9391 16.68 12.6191 16.0613 13.9728 14.9625C14.0816 15.0075 14.1828 15.0487 14.2616 15.0787L14.3928 15.1312C14.4041 15.1687 14.4191 15.2287 14.4341 15.3187C14.6891 16.8337 16.0353 17.7075 16.0728 17.73C16.2528 17.865 16.4666 17.9288 16.6766 17.9288L16.6803 17.9325ZM9.19156 15.9338C5.41906 15.9338 2.35156 12.8663 2.35156 9.09375C2.35156 5.32125 5.41906 2.25 9.19156 2.25C12.9641 2.25 16.0316 5.3175 16.0316 9.09C16.0316 10.5188 15.5591 11.9213 14.7266 13.08C14.5091 12.9938 14.3066 12.8737 14.0216 12.6075C14.1303 12.285 14.1678 11.9438 14.1303 11.6063C14.5241 10.83 14.7378 9.96375 14.7378 9.09375C14.7378 6.285 12.4128 3.54375 9.18781 3.54375C5.96281 3.54375 3.63781 6.03375 3.63781 9.09375C3.63781 11.9625 5.98906 14.6437 9.18781 14.6437C9.95656 14.6437 10.7291 14.4675 11.4341 14.1562C11.5616 14.1788 11.6891 14.1937 11.8166 14.1937C12.0791 14.1937 12.3378 14.1412 12.5891 14.055C12.8178 14.2688 13.0353 14.4375 13.2416 14.5725C12.0678 15.4425 10.6578 15.9375 9.18781 15.9375L9.19156 15.9338ZM12.9416 12.975C12.6433 13.2722 12.2395 13.4391 11.8184 13.4391C11.3974 13.4391 10.9935 13.2722 10.6953 12.975C10.3503 12.63 10.0091 11.9888 9.84031 11.3775C9.66781 10.7362 9.70531 10.215 9.94156 9.975C10.0916 9.825 10.3278 9.76125 10.6053 9.76125C11.3666 9.76125 12.4466 10.2338 12.9378 10.7288C13.235 11.027 13.4019 11.4308 13.4019 11.8519C13.4019 12.2729 13.235 12.6768 12.9378 12.975H12.9416ZM4.74781 10.8825C5.67406 10.8263 6.34906 11.5575 6.34906 12.3787C6.34906 12.5475 6.31531 12.7087 6.26281 12.8625C5.59906 12.345 5.06656 11.67 4.74781 10.8825ZM4.83781 10.1175C4.73281 10.1175 4.63156 10.1512 4.52656 10.1663C4.44781 9.8175 4.39531 9.46125 4.39531 9.09C4.39531 6.4425 6.54781 4.29 9.19531 4.29C9.60781 4.29 10.0053 4.3575 10.3878 4.45875C10.2903 4.71375 10.2228 4.98 10.2228 5.2575C10.2228 6.5025 11.2391 7.51875 12.4841 7.51875C12.8853 7.51875 13.2716 7.41 13.6128 7.21125C13.8663 7.80381 13.9964 8.44177 13.9953 9.08625C13.9953 9.5775 13.8941 10.0575 13.7478 10.5225C13.6691 10.4062 13.5828 10.2937 13.4778 10.1925C12.6341 9.34875 10.3878 8.4675 9.42031 9.43875C8.44906 10.41 9.32656 12.6525 10.1741 13.4963C10.2528 13.575 10.3391 13.6388 10.4291 13.7025C10.0278 13.8075 9.61531 13.8825 9.19906 13.8825C8.35906 13.8825 7.58281 13.6463 6.89656 13.2675C7.02031 12.9825 7.10656 12.6863 7.10656 12.3713C7.10656 11.1263 6.09406 10.11 4.84531 10.11L4.83781 10.1175ZM11.0966 4.69125C11.981 5.07817 12.7284 5.72237 13.2416 6.54C13.0091 6.67875 12.7578 6.7725 12.4803 6.7725C11.6478 6.7725 10.9691 6.09375 10.9691 5.26125C10.9691 5.0625 11.0216 4.87125 11.0966 4.69125ZM15.1766 15.195C15.1316 14.9213 15.0641 14.7412 14.9703 14.6287C14.9141 14.5612 14.8878 14.5162 14.5278 14.3812C14.2428 14.2725 13.7891 14.085 13.2828 13.6613C13.3466 13.6088 13.4141 13.5638 13.4741 13.5075C13.5416 13.44 13.5978 13.3612 13.6541 13.2863C14.4191 13.9388 15.0003 13.8337 15.3828 14.2913C15.5403 14.4788 15.6416 14.7413 15.7053 15.1125C15.8178 15.7725 16.6503 16.5375 16.8416 16.7062C16.8983 16.7488 16.9361 16.812 16.9466 16.8822C16.9571 16.9524 16.9396 17.0239 16.8978 17.0812C16.8552 17.1381 16.7918 17.1758 16.7216 17.1863C16.6503 17.1975 16.5791 17.1788 16.5041 17.1225C16.4928 17.115 15.3791 16.3837 15.1803 15.2025L15.1766 15.195Z" fill="#311C11"/>
<path d="M15.1875 22.4929C15.21 22.4966 15.2362 22.5004 15.2587 22.5004C15.435 22.5004 15.5887 22.3766 15.6262 22.2004C15.6675 21.9979 15.5362 21.8029 15.3337 21.7579C15.2775 21.7466 14.7675 21.6266 14.805 21.2029C14.8612 20.5504 14.6887 20.3066 14.43 20.0704C14.8987 19.6429 15.0862 18.9604 14.8237 18.3416C14.535 17.6554 13.425 16.5716 12.5588 16.9391C11.6925 17.3066 11.6925 18.8516 11.985 19.5416C12.103 19.8209 12.3008 20.0592 12.5537 20.2266C12.8065 20.3941 13.103 20.4832 13.4062 20.4829C13.5075 20.4829 13.6125 20.4416 13.7137 20.4191C13.7775 20.4829 13.8337 20.5391 13.8862 20.5841C14.055 20.7341 14.0888 20.7679 14.0588 21.1391C13.9838 22.0241 14.7637 22.4141 15.1912 22.4966L15.1875 22.4929ZM12.675 19.2454C12.4537 18.7166 12.5588 17.7491 12.8513 17.6254C12.8775 17.6141 12.9075 17.6104 12.9412 17.6104C13.2787 17.6104 13.9312 18.1504 14.1337 18.6304C14.2149 18.8234 14.2163 19.0407 14.1376 19.2347C14.0588 19.4286 13.9064 19.5835 13.7137 19.6654C13.5208 19.7466 13.3035 19.7479 13.1095 19.6692C12.9155 19.5905 12.7606 19.4381 12.6788 19.2454H12.675ZM21.5025 15.7316C21.7688 15.7316 22.02 15.6604 22.185 15.5816C22.3725 15.4916 22.4513 15.2704 22.3612 15.0829C22.275 14.8954 22.05 14.8166 21.8625 14.9029C21.81 14.9291 21.33 15.1354 21.1088 14.7679C20.7675 14.2091 20.4825 14.1191 20.1337 14.0779C20.2575 13.4554 20.0025 12.7954 19.425 12.4541C18.7837 12.0716 17.25 11.8616 16.77 12.6679C16.29 13.4779 17.2087 14.7229 17.85 15.1016C18.0975 15.2479 18.3675 15.3191 18.6337 15.3191C19.0725 15.3191 19.4962 15.1241 19.7925 14.7791C19.86 14.7904 19.9463 14.8091 19.9988 14.8129C20.2238 14.8354 20.2688 14.8391 20.4675 15.1579C20.7338 15.5966 21.135 15.7279 21.4988 15.7279L21.5025 15.7316ZM18.2362 14.4604C17.745 14.1679 17.2537 13.3279 17.415 13.0541C17.49 12.9266 17.745 12.8629 18.0413 12.8629C18.3825 12.8629 18.78 12.9454 19.0425 13.0991C19.4175 13.3204 19.5413 13.8079 19.32 14.1829C19.0988 14.5579 18.6112 14.6816 18.2362 14.4604ZM8.0625 19.2829C8.0625 20.0816 8.71125 20.7304 9.51 20.7304C10.3088 20.7304 10.9575 20.0816 10.9575 19.2829C10.9575 18.4841 10.3088 17.8354 9.51 17.8354C8.71125 17.8354 8.0625 18.4841 8.0625 19.2829ZM10.2075 19.2829C10.2075 19.6654 9.89625 19.9804 9.51 19.9804C9.12375 19.9804 8.8125 19.6691 8.8125 19.2829C8.8125 18.8966 9.12375 18.5854 9.51 18.5854C9.89625 18.5854 10.2075 18.8966 10.2075 19.2829Z" fill="#311C11"/>
<path d="M11.5566 12.1084C11.8155 12.1084 12.0254 11.8985 12.0254 11.6396C12.0254 11.3808 11.8155 11.1709 11.5566 11.1709C11.2978 11.1709 11.0879 11.3808 11.0879 11.6396C11.0879 11.8985 11.2978 12.1084 11.5566 12.1084Z" fill="#311C11"/>
<path d="M10.7168 8.61719C10.9757 8.61719 11.1855 8.40732 11.1855 8.14844C11.1855 7.88955 10.9757 7.67969 10.7168 7.67969C10.4579 7.67969 10.248 7.88955 10.248 8.14844C10.248 8.40732 10.4579 8.61719 10.7168 8.61719Z" fill="#311C11"/>
<path d="M8.55469 12.7725C8.81357 12.7725 9.02344 12.5626 9.02344 12.3037C9.02344 12.0448 8.81357 11.835 8.55469 11.835C8.2958 11.835 8.08594 12.0448 8.08594 12.3037C8.08594 12.5626 8.2958 12.7725 8.55469 12.7725Z" fill="#311C11"/>
<path d="M19.4359 15.9111C18.7684 15.9111 18.2246 16.4549 18.2246 17.1224C18.2246 17.7899 18.7684 18.3336 19.4359 18.3336C20.1034 18.3336 20.6471 17.7899 20.6471 17.1224C20.6471 16.4549 20.1034 15.9111 19.4359 15.9111ZM19.4359 17.5799C19.3135 17.5799 19.1962 17.5313 19.1097 17.4448C19.0232 17.3583 18.9746 17.241 18.9746 17.1186C18.9746 16.9963 19.0232 16.879 19.1097 16.7925C19.1962 16.706 19.3135 16.6574 19.4359 16.6574C19.5582 16.6574 19.6755 16.706 19.762 16.7925C19.8485 16.879 19.8971 16.9963 19.8971 17.1186C19.8971 17.241 19.8485 17.3583 19.762 17.4448C19.6755 17.5313 19.5582 17.5799 19.4359 17.5799Z" fill="#311C11"/>
</svg>
