<svg width="24" height="24" viewBox="0 0 24 24" fill="none" xmlns="http://www.w3.org/2000/svg">
<g clip-path="url(#clip0_1676_25678)">
<path d="M23.6242 19.19C23.8318 19.19 24 19.0218 24 18.8142V5.58666C24 5.487 23.9604 5.39147 23.89 5.32092L19.8817 1.31259C19.8111 1.24214 19.7156 1.20258 19.6159 1.20258H11.1733V1.12734C11.1733 0.505734 10.6675 0 10.0459 0H1.12734C0.505734 0 0 0.505734 0 1.12734V13.2526C0 13.8742 0.505734 14.3799 1.12734 14.3799H4.00833V23.6242C4.00833 23.8318 4.17652 24 4.38412 24H23.6242C23.8318 24 24 23.8318 24 23.6242V20.8184C24 20.6108 23.8318 20.4426 23.6242 20.4426C23.4166 20.4426 23.2484 20.6108 23.2484 20.8184V23.2484H4.75992V14.3799H10.0459C10.6675 14.3799 11.1733 13.8742 11.1733 13.2526V6.78891C11.1733 6.58134 11.0051 6.41311 10.7975 6.41311C10.5899 6.41311 10.4217 6.5813 10.4217 6.78891V13.2526C10.4217 13.4599 10.2531 13.6284 10.0459 13.6284H1.12734C0.920109 13.6284 0.751547 13.4599 0.751547 13.2526V1.12734C0.751547 0.920109 0.920109 0.751547 1.12734 0.751547H10.0459C10.2532 0.751547 10.4217 0.920109 10.4217 1.12734V4.78495C10.4217 4.99252 10.5899 5.16075 10.7975 5.16075C11.0051 5.16075 11.1733 4.99256 11.1733 4.78495V1.95408H19.2414C19.2408 1.96238 19.2401 1.97067 19.2401 1.97911V5.58661C19.2401 5.79417 19.4083 5.96241 19.6159 5.96241H23.2234C23.2319 5.96241 23.2402 5.9617 23.2485 5.96114V18.8142C23.2485 19.0218 23.4166 19.19 23.6242 19.19ZM19.9917 5.21086V2.4855L22.717 5.21086H19.9917Z" fill="#181818"/>
<path d="M9.29509 17.2363H6.78986C6.5823 17.2363 6.41406 17.4045 6.41406 17.6121C6.41406 17.8197 6.58225 17.9879 6.78986 17.9879H9.29509C9.50266 17.9879 9.67089 17.8197 9.67089 17.6121C9.67084 17.4046 9.50266 17.2363 9.29509 17.2363Z" fill="#181818"/>
<path d="M9.29509 19.2402H6.78986C6.5823 19.2402 6.41406 19.4084 6.41406 19.616C6.41406 19.8236 6.58225 19.9918 6.78986 19.9918H9.29509C9.50266 19.9918 9.67089 19.8236 9.67089 19.616C9.67084 19.4084 9.50266 19.2402 9.29509 19.2402Z" fill="#181818"/>
<path d="M16.8093 11.624C15.2734 11.624 13.8417 12.2345 12.778 13.343C12.6343 13.4927 12.6391 13.7306 12.7889 13.8743C12.9387 14.0181 13.1765 14.0131 13.3202 13.8634C14.2409 12.904 15.48 12.3756 16.8093 12.3756C19.4753 12.3756 21.6443 14.5446 21.6443 17.2107C21.6443 19.8767 19.4753 22.0457 16.8093 22.0457C14.1432 22.0457 11.9742 19.8767 11.9742 17.2107C11.9742 16.4233 12.1574 15.6726 12.5187 14.9794C12.6146 14.7953 12.5432 14.5684 12.3592 14.4724C12.1752 14.3767 11.9482 14.448 11.8522 14.632C11.4404 15.4223 11.2227 16.314 11.2227 17.2107C11.2227 20.2912 13.7288 22.7973 16.8093 22.7973C19.8898 22.7973 22.396 20.2912 22.396 17.2107C22.396 14.1302 19.8897 11.624 16.8093 11.624Z" fill="#181818"/>
<path d="M17.6671 16.8852L17.0848 16.8681V14.7808H18.4126C18.6202 14.7808 18.7884 14.6126 18.7884 14.405C18.7884 14.1975 18.6202 14.0292 18.4126 14.0292H17.0848V13.6033C17.0848 13.3958 16.9166 13.2275 16.709 13.2275C16.5015 13.2275 16.3332 13.3957 16.3332 13.6033V14.0292H15.9574C15.3358 14.0292 14.8301 14.535 14.8301 15.1566V16.4593C14.8301 17.0788 15.3325 17.5834 15.9513 17.5866L16.3332 17.5978V19.6409H15.2059C14.9983 19.6409 14.8301 19.8091 14.8301 20.0167C14.8301 20.2242 14.9983 20.3925 15.2059 20.3925H16.3332V20.8184C16.3332 21.0259 16.5014 21.1942 16.709 21.1942C16.9166 21.1942 17.0848 21.026 17.0848 20.8184V20.3925H17.661C18.2826 20.3925 18.7883 19.8867 18.7883 19.2651V18.0125C18.7884 17.393 18.2859 16.8886 17.6671 16.8852ZM16.3333 16.846L15.9686 16.8353C15.9649 16.8352 15.9612 16.8351 15.9575 16.8351C15.7503 16.8351 15.5817 16.6666 15.5817 16.4593V15.1566C15.5817 14.9494 15.7503 14.7808 15.9575 14.7808H16.3333L16.3333 16.846ZM18.0368 19.2652C18.0368 19.4725 17.8683 19.641 17.661 19.641H17.0849V17.6201L17.65 17.6367C17.6536 17.6368 17.6573 17.6368 17.661 17.6368C17.8683 17.6368 18.0368 17.8054 18.0368 18.0126V19.2652Z" fill="#181818"/>
<path d="M9.59562 1.20215H1.57892C1.37136 1.20215 1.20312 1.37034 1.20312 1.57795V3.58213C1.20312 3.7897 1.37131 3.95793 1.57892 3.95793H9.59562C9.80319 3.95793 9.97142 3.78974 9.97142 3.58213V1.57795C9.97142 1.37038 9.80323 1.20215 9.59562 1.20215ZM9.21983 3.20634H1.95472V1.95374H9.21988V3.20634H9.21983Z" fill="#181818"/>
<path d="M3.18228 4.40918H1.57892C1.37136 4.40918 1.20312 4.57737 1.20312 4.78498V6.38834C1.20312 6.5959 1.37131 6.76413 1.57892 6.76413H3.18228C3.38984 6.76413 3.55808 6.59595 3.55808 6.38834V4.78498C3.55803 4.57737 3.38984 4.40918 3.18228 4.40918ZM2.80648 6.01249H1.95472V5.16073H2.80648V6.01249Z" fill="#181818"/>
<path d="M6.38736 4.40918H4.784C4.57644 4.40918 4.4082 4.57737 4.4082 4.78498V6.38834C4.4082 6.5959 4.57639 6.76413 4.784 6.76413H6.38736C6.59492 6.76413 6.76316 6.59595 6.76316 6.38834V4.78498C6.76316 4.57737 6.59492 4.40918 6.38736 4.40918ZM6.01156 6.01249H5.1598V5.16073H6.01156V6.01249Z" fill="#181818"/>
<path d="M9.59439 4.40918H7.99103C7.78347 4.40918 7.61523 4.57737 7.61523 4.78498V6.38834C7.61523 6.5959 7.78342 6.76413 7.99103 6.76413H9.59439C9.80195 6.76413 9.97019 6.59595 9.97019 6.38834V4.78498C9.97019 4.57737 9.802 4.40918 9.59439 4.40918ZM9.21859 6.01249H8.36683V5.16073H9.21859V6.01249Z" fill="#181818"/>
<path d="M3.18228 7.61621H1.57892C1.37136 7.61621 1.20312 7.7844 1.20312 7.99201V9.59537C1.20312 9.80293 1.37131 9.97116 1.57892 9.97116H3.18228C3.38984 9.97116 3.55808 9.80298 3.55808 9.59537V7.99201C3.55803 7.7844 3.38984 7.61621 3.18228 7.61621ZM2.80648 9.21952H1.95472V8.36776H2.80648V9.21952Z" fill="#181818"/>
<path d="M6.38736 7.61621H4.784C4.57644 7.61621 4.4082 7.7844 4.4082 7.99201V9.59537C4.4082 9.80293 4.57639 9.97116 4.784 9.97116H6.38736C6.59492 9.97116 6.76316 9.80298 6.76316 9.59537V7.99201C6.76316 7.7844 6.59492 7.61621 6.38736 7.61621ZM6.01156 9.21952H5.1598V8.36776H6.01156V9.21952Z" fill="#181818"/>
<path d="M3.18228 10.8223H1.57892C1.37136 10.8223 1.20312 10.9905 1.20312 11.1981V12.8014C1.20312 13.009 1.37131 13.1772 1.57892 13.1772H3.18228C3.38984 13.1772 3.55808 13.009 3.55808 12.8014V11.1981C3.55803 10.9905 3.38984 10.8223 3.18228 10.8223ZM2.80648 12.4256H1.95472V11.5739H2.80648V12.4256Z" fill="#181818"/>
<path d="M6.38736 10.8223H4.784C4.57644 10.8223 4.4082 10.9905 4.4082 11.1981V12.8014C4.4082 13.009 4.57639 13.1772 4.784 13.1772H6.38736C6.59492 13.1772 6.76316 13.009 6.76316 12.8014V11.1981C6.76316 10.9905 6.59492 10.8223 6.38736 10.8223ZM6.01156 12.4256H5.1598V11.5739H6.01156V12.4256Z" fill="#181818"/>
<path d="M9.59439 7.61621H7.99103C7.78347 7.61621 7.61523 7.7844 7.61523 7.99201V12.802C7.61523 13.0096 7.78342 13.1778 7.99103 13.1778H9.59439C9.80195 13.1778 9.97019 13.0096 9.97019 12.802V7.99201C9.97019 7.7844 9.802 7.61621 9.59439 7.61621ZM9.21859 12.4262H8.36683V8.3678H9.21859V12.4262Z" fill="#181818"/>
<path d="M22.2803 8.86115L20.2333 6.91738C20.0829 6.77441 19.8451 6.78065 19.7021 6.93112C19.5591 7.08158 19.5654 7.31943 19.7158 7.46235L21.4831 9.14057L21.1712 9.45247L15.7684 4.04947C15.7159 3.99702 15.6491 3.96126 15.5764 3.94672L14.1839 3.66824L13.5135 2.92907C13.3741 2.77527 13.1363 2.76365 12.9827 2.9031C12.829 3.04251 12.8174 3.28012 12.9567 3.43391C12.9567 3.43391 13.7294 4.2794 13.7551 4.29632L14.0004 5.52262C14.0149 5.59537 14.0507 5.66216 14.1031 5.71466L20.0907 11.7023C20.3105 11.922 20.5991 12.0319 20.8879 12.0319C21.1766 12.0319 21.4652 11.922 21.685 11.7023H21.685L21.7558 11.6314C22.1953 11.1919 22.1953 10.4766 21.7558 10.0371L21.7027 9.98399L22.2873 9.39941C22.4346 9.25204 22.4314 9.00458 22.2803 8.86115ZM14.715 5.26377L14.5645 4.51087L15.3174 4.66143L18.9392 8.28337L18.337 8.88562L14.715 5.26377ZM21.2245 11.0999L21.1537 11.1708C21.0071 11.3172 20.7687 11.3173 20.6222 11.1708L18.8685 9.41704L19.4707 8.81479L21.2245 10.5685C21.371 10.715 21.3709 10.9534 21.2245 11.0999Z" fill="#181818"/>
</g>
<defs>
<clipPath id="clip0_1676_25678">
<rect width="24" height="24" fill="white"/>
</clipPath>
</defs>
</svg>
