<svg width="24" height="24" viewBox="0 0 24 24" fill="none" xmlns="http://www.w3.org/2000/svg">
<path d="M12.4998 2.5C12.9759 2.5 13.3088 2.49999 13.5691 2.51758C13.8248 2.53486 13.9744 2.56743 14.0886 2.61426L14.0896 2.61523C14.2727 2.69004 14.4395 2.80005 14.5798 2.93945C14.72 3.07872 14.831 3.24437 14.907 3.42676L14.908 3.42969C14.9511 3.53218 14.9814 3.66179 14.9998 3.875L15.0144 4.11816C15.0248 4.4747 15.1247 4.82326 15.3054 5.13086C15.4874 5.4405 15.7453 5.69905 16.0544 5.88184L16.0662 5.8877C16.3811 6.0629 16.7351 6.15637 17.0955 6.1582C17.4537 6.16002 17.8066 6.07133 18.1218 5.90137C18.4453 5.73103 18.6276 5.66665 18.78 5.64648L18.7791 5.64551C19.1771 5.59369 19.5801 5.7012 19.9001 5.94336V5.94434C19.9983 6.01932 20.1014 6.1312 20.2439 6.3418C20.3892 6.55649 20.5552 6.8424 20.7937 7.25195C21.032 7.66104 21.1978 7.94664 21.3123 8.17871C21.3968 8.3501 21.4444 8.47388 21.4695 8.57617L21.4871 8.67188C21.5121 8.86662 21.4991 9.06432 21.448 9.25391C21.3968 9.44363 21.3089 9.62154 21.1892 9.77734C21.0962 9.89716 20.9491 10.0199 20.6365 10.2158C20.0281 10.5947 19.6199 11.2543 19.6199 12C19.6199 12.6999 19.9797 13.323 20.5271 13.7109L20.6384 13.7852C20.9498 13.9799 21.0958 14.103 21.1873 14.2217C21.3076 14.3777 21.3965 14.5558 21.448 14.7461C21.4993 14.9356 21.512 15.1334 21.4871 15.3281C21.4708 15.4493 21.4246 15.5935 21.3123 15.8213C21.1978 16.0533 21.032 16.3388 20.7937 16.748V16.749C20.5559 17.1582 20.3901 17.4436 20.2449 17.6582C20.1022 17.869 19.9988 17.9803 19.9011 18.0547V18.0557C19.5822 18.2985 19.1787 18.406 18.78 18.3535C18.6656 18.3384 18.5345 18.298 18.3396 18.207L18.1218 18.0986C17.8068 17.9289 17.4543 17.841 17.0964 17.8428C16.7814 17.8444 16.4707 17.9149 16.1873 18.0498L16.0671 18.1123L16.0613 18.1152C15.4139 18.4862 15.0408 19.1653 15.0144 19.8818C14.9999 20.2483 14.9655 20.4337 14.908 20.5703L14.907 20.5732C14.831 20.7556 14.72 20.9213 14.5798 21.0605C14.4395 21.1999 14.2727 21.31 14.0896 21.3848L14.0886 21.3857C13.9744 21.4326 13.8248 21.4651 13.5691 21.4824C13.3088 21.5 12.9759 21.5 12.4998 21.5C12.024 21.5 11.6916 21.5 11.4314 21.4824C11.1754 21.4651 11.0251 21.4327 10.9109 21.3857C10.5394 21.233 10.2453 20.94 10.0925 20.5732L10.0916 20.5703C10.0484 20.4679 10.0191 20.338 10.0007 20.125L9.98608 19.8818C9.95871 19.1661 9.58687 18.4885 8.94116 18.1162V18.1152L8.93433 18.1123L8.81421 18.0498C8.53067 17.9147 8.22018 17.8435 7.90503 17.8418C7.58965 17.8402 7.27799 17.9087 6.99292 18.041L6.87769 18.0986C6.63551 18.2262 6.47298 18.2945 6.34253 18.3291L6.22046 18.3535C5.87061 18.3988 5.51823 18.3219 5.22241 18.1396L5.09937 18.0557C5.00133 17.9807 4.89898 17.8685 4.75659 17.6582C4.6113 17.4435 4.44434 17.1576 4.20581 16.748C3.96764 16.3391 3.80171 16.0533 3.68726 15.8213C3.57481 15.5933 3.5287 15.4489 3.51245 15.3281C3.4874 15.1334 3.50135 14.9357 3.55249 14.7461C3.60369 14.5563 3.69149 14.3785 3.81128 14.2227C3.90426 14.1028 4.05043 13.9791 4.36304 13.7832C4.97144 13.4043 5.37964 12.7457 5.37964 12C5.37964 11.2535 4.97077 10.5945 4.36108 10.2148H4.36206C4.0505 10.02 3.90475 9.89704 3.81323 9.77832H3.81226C3.56786 9.46271 3.46046 9.06449 3.51245 8.67188C3.52871 8.55069 3.57495 8.40633 3.68726 8.17871C3.80171 7.9468 3.96756 7.66104 4.20581 7.25195L4.20679 7.25098C4.44459 6.84179 4.61039 6.55635 4.75562 6.3418C4.86264 6.18369 4.94739 6.08149 5.02417 6.00879L5.09839 5.94531C5.41866 5.70221 5.82175 5.59471 6.22046 5.64648C6.37287 5.66664 6.55445 5.73116 6.87769 5.90137V5.90039C7.19303 6.07049 7.54571 6.15903 7.90405 6.15723C8.26422 6.1554 8.61854 6.06268 8.93335 5.8877L8.94409 5.88184C9.25355 5.69918 9.51188 5.44058 9.69409 5.13086C9.87505 4.82323 9.9756 4.47484 9.98608 4.11816C10.0005 3.75269 10.0341 3.56622 10.0916 3.42969L10.0925 3.42676C10.1685 3.24425 10.2804 3.07879 10.4207 2.93945C10.5608 2.8002 10.727 2.69002 10.9099 2.61523L10.9109 2.61426C11.0259 2.5672 11.1759 2.53485 11.4314 2.51758C11.6915 2.49999 12.0237 2.5 12.4998 2.5ZM12.4998 8.5C10.5584 8.50017 8.97729 10.0633 8.97729 12C8.97729 13.9367 10.5584 15.4998 12.4998 15.5C14.4423 15.5 16.0232 13.9367 16.0232 12C16.0232 10.0632 14.4412 8.5 12.4998 8.5Z" stroke="#1B1F3B"/>
</svg>
