<svg width="24" height="24" viewBox="0 0 24 24" fill="none" xmlns="http://www.w3.org/2000/svg">
<path d="M17.3288 9.8548C17.3288 10.5561 17.8988 11.1298 18.6038 11.1298C19.3088 11.1298 19.8788 10.5598 19.8788 9.8548C19.8788 9.1498 19.305 8.5798 18.6038 8.5798C17.9025 8.5798 17.3288 9.1498 17.3288 9.8548ZM19.1288 9.8548C19.1288 10.1436 18.8925 10.3798 18.6038 10.3798C18.315 10.3798 18.0788 10.1436 18.0788 9.8548C18.0788 9.56605 18.315 9.3298 18.6038 9.3298C18.8925 9.3298 19.1288 9.56605 19.1288 9.8548ZM9.56629 7.1098C9.56629 6.25105 8.86504 5.5498 8.00629 5.5498C7.14754 5.5498 6.44629 6.25105 6.44629 7.1098C6.44629 7.96855 7.14754 8.66981 8.00629 8.66981C8.86504 8.66981 9.56629 7.96855 9.56629 7.1098ZM7.19629 7.1098C7.19629 6.66355 7.56004 6.2998 8.00629 6.2998C8.45254 6.2998 8.81629 6.66355 8.81629 7.1098C8.81629 7.55605 8.45254 7.91981 8.00629 7.91981C7.56004 7.91981 7.19629 7.55605 7.19629 7.1098Z" fill="#181818"/>
<path d="M16.6799 17.9325C16.839 17.9328 16.996 17.8956 17.138 17.8239C17.28 17.7523 17.4032 17.6481 17.4974 17.52C17.8312 17.07 17.7337 16.4288 17.3099 16.1175C16.9799 15.825 16.4924 15.2812 16.4437 14.9813C16.3574 14.4713 16.2037 14.0963 15.9562 13.8038C15.7912 13.605 15.6037 13.4812 15.4237 13.38C16.2899 12.12 16.7812 10.62 16.7812 9.09C16.7812 4.905 13.3762 1.5 9.1912 1.5C5.0062 1.5 1.6012 4.905 1.6012 9.09C1.6012 13.275 5.0062 16.68 9.1912 16.68C10.9387 16.68 12.6187 16.0613 13.9724 14.9625C14.0812 15.0075 14.1824 15.0487 14.2612 15.0787L14.3924 15.1312C14.4037 15.1687 14.4187 15.2287 14.4337 15.3187C14.6887 16.8337 16.0349 17.7075 16.0724 17.73C16.2524 17.865 16.4662 17.9288 16.6762 17.9288L16.6799 17.9325ZM9.1912 15.9338C5.4187 15.9338 2.3512 12.8663 2.3512 9.09375C2.3512 5.32125 5.4187 2.25 9.1912 2.25C12.9637 2.25 16.0312 5.3175 16.0312 9.09C16.0312 10.5188 15.5587 11.9213 14.7262 13.08C14.5087 12.9938 14.3062 12.8737 14.0212 12.6075C14.1299 12.285 14.1674 11.9438 14.1299 11.6063C14.5237 10.83 14.7374 9.96375 14.7374 9.09375C14.7374 6.285 12.4124 3.54375 9.18745 3.54375C5.96245 3.54375 3.63745 6.03375 3.63745 9.09375C3.63745 11.9625 5.9887 14.6437 9.18745 14.6437C9.9562 14.6437 10.7287 14.4675 11.4337 14.1562C11.5612 14.1788 11.6887 14.1937 11.8162 14.1937C12.0787 14.1937 12.3374 14.1412 12.5887 14.055C12.8174 14.2688 13.0349 14.4375 13.2412 14.5725C12.0674 15.4425 10.6574 15.9375 9.18745 15.9375L9.1912 15.9338ZM12.9412 12.975C12.643 13.2722 12.2391 13.4391 11.8181 13.4391C11.397 13.4391 10.9932 13.2722 10.6949 12.975C10.3499 12.63 10.0087 11.9888 9.83995 11.3775C9.66745 10.7362 9.70495 10.215 9.9412 9.975C10.0912 9.825 10.3274 9.76125 10.6049 9.76125C11.3662 9.76125 12.4462 10.2338 12.9374 10.7288C13.2346 11.027 13.4015 11.4308 13.4015 11.8519C13.4015 12.2729 13.2346 12.6768 12.9374 12.975H12.9412ZM4.74745 10.8825C5.6737 10.8263 6.3487 11.5575 6.3487 12.3787C6.3487 12.5475 6.31495 12.7087 6.26245 12.8625C5.5987 12.345 5.0662 11.67 4.74745 10.8825ZM4.83745 10.1175C4.73245 10.1175 4.6312 10.1512 4.5262 10.1663C4.44745 9.8175 4.39495 9.46125 4.39495 9.09C4.39495 6.4425 6.54745 4.29 9.19495 4.29C9.60745 4.29 10.0049 4.3575 10.3874 4.45875C10.2899 4.71375 10.2224 4.98 10.2224 5.2575C10.2224 6.5025 11.2387 7.51875 12.4837 7.51875C12.8849 7.51875 13.2712 7.41 13.6124 7.21125C13.8659 7.80381 13.996 8.44177 13.9949 9.08625C13.9949 9.5775 13.8937 10.0575 13.7474 10.5225C13.6687 10.4062 13.5824 10.2937 13.4774 10.1925C12.6337 9.34875 10.3874 8.4675 9.41995 9.43875C8.4487 10.41 9.3262 12.6525 10.1737 13.4963C10.2524 13.575 10.3387 13.6388 10.4287 13.7025C10.0274 13.8075 9.61495 13.8825 9.1987 13.8825C8.3587 13.8825 7.58245 13.6463 6.8962 13.2675C7.01995 12.9825 7.1062 12.6863 7.1062 12.3713C7.1062 11.1263 6.0937 10.11 4.84495 10.11L4.83745 10.1175ZM11.0962 4.69125C11.9806 5.07817 12.728 5.72237 13.2412 6.54C13.0087 6.67875 12.7574 6.7725 12.4799 6.7725C11.6474 6.7725 10.9687 6.09375 10.9687 5.26125C10.9687 5.0625 11.0212 4.87125 11.0962 4.69125ZM15.1762 15.195C15.1312 14.9213 15.0637 14.7412 14.9699 14.6287C14.9137 14.5612 14.8874 14.5162 14.5274 14.3812C14.2424 14.2725 13.7887 14.085 13.2824 13.6613C13.3462 13.6088 13.4137 13.5638 13.4737 13.5075C13.5412 13.44 13.5974 13.3612 13.6537 13.2863C14.4187 13.9388 14.9999 13.8337 15.3824 14.2913C15.5399 14.4788 15.6412 14.7413 15.7049 15.1125C15.8174 15.7725 16.6499 16.5375 16.8412 16.7062C16.898 16.7488 16.9357 16.812 16.9462 16.8822C16.9568 16.9524 16.9392 17.0239 16.8974 17.0812C16.8548 17.1381 16.7915 17.1758 16.7212 17.1863C16.6499 17.1975 16.5787 17.1788 16.5037 17.1225C16.4924 17.115 15.3787 16.3837 15.1799 15.2025L15.1762 15.195Z" fill="#181818"/>
<path d="M15.1875 22.4929C15.21 22.4966 15.2362 22.5004 15.2587 22.5004C15.435 22.5004 15.5887 22.3766 15.6262 22.2004C15.6675 21.9979 15.5362 21.8029 15.3337 21.7579C15.2775 21.7466 14.7675 21.6266 14.805 21.2029C14.8612 20.5504 14.6887 20.3066 14.43 20.0704C14.8987 19.6429 15.0862 18.9604 14.8237 18.3416C14.535 17.6554 13.425 16.5716 12.5588 16.9391C11.6925 17.3066 11.6925 18.8516 11.985 19.5416C12.103 19.8209 12.3008 20.0592 12.5537 20.2266C12.8065 20.3941 13.103 20.4832 13.4062 20.4829C13.5075 20.4829 13.6125 20.4416 13.7137 20.4191C13.7775 20.4829 13.8337 20.5391 13.8862 20.5841C14.055 20.7341 14.0888 20.7679 14.0588 21.1391C13.9838 22.0241 14.7637 22.4141 15.1912 22.4966L15.1875 22.4929ZM12.675 19.2454C12.4537 18.7166 12.5588 17.7491 12.8513 17.6254C12.8775 17.6141 12.9075 17.6104 12.9412 17.6104C13.2787 17.6104 13.9312 18.1504 14.1337 18.6304C14.2149 18.8234 14.2163 19.0407 14.1376 19.2347C14.0588 19.4286 13.9064 19.5835 13.7137 19.6654C13.5208 19.7466 13.3035 19.7479 13.1095 19.6692C12.9155 19.5905 12.7606 19.4381 12.6788 19.2454H12.675ZM21.5025 15.7316C21.7688 15.7316 22.02 15.6604 22.185 15.5816C22.3725 15.4916 22.4513 15.2704 22.3612 15.0829C22.275 14.8954 22.05 14.8166 21.8625 14.9029C21.81 14.9291 21.33 15.1354 21.1088 14.7679C20.7675 14.2091 20.4825 14.1191 20.1337 14.0779C20.2575 13.4554 20.0025 12.7954 19.425 12.4541C18.7837 12.0716 17.25 11.8616 16.77 12.6679C16.29 13.4779 17.2087 14.7229 17.85 15.1016C18.0975 15.2479 18.3675 15.3191 18.6337 15.3191C19.0725 15.3191 19.4962 15.1241 19.7925 14.7791C19.86 14.7904 19.9463 14.8091 19.9988 14.8129C20.2238 14.8354 20.2688 14.8391 20.4675 15.1579C20.7338 15.5966 21.135 15.7279 21.4988 15.7279L21.5025 15.7316ZM18.2362 14.4604C17.745 14.1679 17.2537 13.3279 17.415 13.0541C17.49 12.9266 17.745 12.8629 18.0413 12.8629C18.3825 12.8629 18.78 12.9454 19.0425 13.0991C19.4175 13.3204 19.5413 13.8079 19.32 14.1829C19.0988 14.5579 18.6112 14.6816 18.2362 14.4604ZM8.0625 19.2829C8.0625 20.0816 8.71125 20.7304 9.51 20.7304C10.3088 20.7304 10.9575 20.0816 10.9575 19.2829C10.9575 18.4841 10.3088 17.8354 9.51 17.8354C8.71125 17.8354 8.0625 18.4841 8.0625 19.2829ZM10.2075 19.2829C10.2075 19.6654 9.89625 19.9804 9.51 19.9804C9.12375 19.9804 8.8125 19.6691 8.8125 19.2829C8.8125 18.8966 9.12375 18.5854 9.51 18.5854C9.89625 18.5854 10.2075 18.8966 10.2075 19.2829Z" fill="#181818"/>
<path d="M11.5575 12.1084C11.8164 12.1084 12.0262 11.8985 12.0262 11.6396C12.0262 11.3808 11.8164 11.1709 11.5575 11.1709C11.2986 11.1709 11.0887 11.3808 11.0887 11.6396C11.0887 11.8985 11.2986 12.1084 11.5575 12.1084Z" fill="#181818"/>
<path d="M10.7175 8.61719C10.9764 8.61719 11.1863 8.40732 11.1863 8.14844C11.1863 7.88955 10.9764 7.67969 10.7175 7.67969C10.4586 7.67969 10.2488 7.88955 10.2488 8.14844C10.2488 8.40732 10.4586 8.61719 10.7175 8.61719Z" fill="#181818"/>
<path d="M8.55371 12.7725C8.81259 12.7725 9.02246 12.5626 9.02246 12.3037C9.02246 12.0448 8.81259 11.835 8.55371 11.835C8.29483 11.835 8.08496 12.0448 8.08496 12.3037C8.08496 12.5626 8.29483 12.7725 8.55371 12.7725Z" fill="#181818"/>
<path d="M19.4362 15.9111C18.7687 15.9111 18.225 16.4549 18.225 17.1224C18.225 17.7899 18.7687 18.3336 19.4362 18.3336C20.1037 18.3336 20.6475 17.7899 20.6475 17.1224C20.6475 16.4549 20.1037 15.9111 19.4362 15.9111ZM19.4362 17.5799C19.3139 17.5799 19.1966 17.5313 19.1101 17.4448C19.0236 17.3583 18.975 17.241 18.975 17.1186C18.975 16.9963 19.0236 16.879 19.1101 16.7925C19.1966 16.706 19.3139 16.6574 19.4362 16.6574C19.5586 16.6574 19.6759 16.706 19.7624 16.7925C19.8489 16.879 19.8975 16.9963 19.8975 17.1186C19.8975 17.241 19.8489 17.3583 19.7624 17.4448C19.6759 17.5313 19.5586 17.5799 19.4362 17.5799Z" fill="#181818"/>
</svg>
