<svg width="24" height="24" viewBox="0 0 24 24" fill="none" xmlns="http://www.w3.org/2000/svg">
<path d="M8 5H6C5.46957 5 4.96086 5.21071 4.58579 5.58579C4.21071 5.96086 4 6.46957 4 7V19C4 19.5304 4.21071 20.0391 4.58579 20.4142C4.96086 20.7893 5.46957 21 6 21H11.697M18 11V7C18 6.46957 17.7893 5.96086 17.4142 5.58579C17.0391 5.21071 16.5304 5 16 5H14" stroke="#181818" stroke-linecap="round" stroke-linejoin="round"/>
<path d="M8 11H12M8 15H11M8 5C8 4.46957 8.21071 3.96086 8.58579 3.58579C8.96086 3.21071 9.46957 3 10 3H12C12.5304 3 13.0391 3.21071 13.4142 3.58579C13.7893 3.96086 14 4.46957 14 5C14 5.53043 13.7893 6.03914 13.4142 6.41421C13.0391 6.78929 12.5304 7 12 7H10C9.46957 7 8.96086 6.78929 8.58579 6.41421C8.21071 6.03914 8 5.53043 8 5Z" stroke="#181818" stroke-linecap="round" stroke-linejoin="round"/>
<g clip-path="url(#clip0_1676_25772)">
<path d="M15.4093 21.2762C15.523 21.2762 15.6314 21.2328 15.7126 21.1407C18.3776 18.1778 16.5305 16.2657 16.5089 16.2495C16.4603 16.202 16.4008 16.1673 16.3356 16.1484C16.2704 16.1295 16.2015 16.127 16.1351 16.1412C15.9997 16.1682 15.8914 16.2657 15.8426 16.3957C15.4635 17.3978 14.1689 17.2299 14.1147 17.2191C14.0064 17.2028 13.898 17.2299 13.8114 17.3003L12.8526 18.037C12.8526 18.037 12.8093 18.0316 12.7768 17.9937L12.0455 17.1107C12.0185 17.0728 12.0185 16.9862 12.0672 16.9374L12.766 16.1953C13.1448 15.7886 13.3921 15.277 13.4755 14.7274C13.5514 14.2453 13.8818 13.7795 14.1364 13.5303L14.6239 13.0266C14.7322 12.9182 14.7647 12.7612 14.716 12.6149L14.391 11.6345C14.7322 11.7428 15.1222 11.9541 15.3172 12.3712C15.3768 12.5012 15.5068 12.5932 15.653 12.6041C19.228 12.902 20.9668 15.6049 20.9668 20.8645C20.9668 21.0866 21.151 21.2707 21.373 21.2707C21.5951 21.2707 21.7793 21.0866 21.7793 20.8645C21.7793 15.2853 19.813 12.2412 15.9401 11.8132C15.2739 10.7353 13.8601 10.7082 13.7951 10.7082C13.676 10.692 13.5405 10.7678 13.4647 10.8762C13.3889 10.9845 13.3672 11.1199 13.4051 11.2445L13.871 12.6366L13.5622 12.9507C13.2047 13.292 12.7768 13.9149 12.6685 14.5974C12.6089 14.9874 12.4301 15.3557 12.1701 15.632L11.4768 16.3741C11.1626 16.7045 11.1355 17.2353 11.4118 17.6037L12.143 18.4866C12.4085 18.8495 12.923 18.947 13.3185 18.6978L14.1797 18.037C14.7539 18.0803 15.653 17.9503 16.2272 17.3112C16.4493 17.907 16.5197 19.0282 15.1114 20.5937C14.9597 20.7616 14.976 21.0162 15.1439 21.1678C15.2197 21.2382 15.3172 21.2707 15.4147 21.2707L15.4093 21.2762Z" fill="#181818"/>
</g>
<defs>
<clipPath id="clip0_1676_25772">
<rect width="13" height="13" fill="white" transform="matrix(-1 0 0 1 23 9.07031)"/>
</clipPath>
</defs>
</svg>
