<svg width="24" height="24" viewBox="0 0 24 24" fill="none" xmlns="http://www.w3.org/2000/svg">
<path d="M10.9861 7.34076C10.4944 7.34076 10.0468 7.14228 9.78878 6.80988C9.76172 6.77502 9.74179 6.73518 9.73014 6.69262C9.71848 6.65006 9.71532 6.60562 9.72083 6.56184C9.72635 6.51806 9.74043 6.47579 9.76228 6.43745C9.78413 6.39912 9.81332 6.36546 9.84818 6.3384C9.88304 6.31134 9.92288 6.29142 9.96544 6.27976C10.008 6.2681 10.0524 6.26494 10.0962 6.27045C10.1846 6.28159 10.265 6.3274 10.3197 6.3978C10.4473 6.56244 10.7089 6.66876 10.9861 6.66876C11.4222 6.66876 11.7261 6.42324 11.7261 6.20268C11.7261 5.98212 11.4222 5.73636 10.9861 5.73636C10.6261 5.73636 10.2853 5.62932 10.0245 5.43468C9.73838 5.22132 9.57422 4.91652 9.57422 4.59804C9.57422 4.27956 9.73838 3.97404 10.0245 3.7614C10.2853 3.567 10.6269 3.45996 10.9861 3.45996C11.4779 3.45996 11.9257 3.65844 12.1835 3.99084C12.2115 4.02561 12.2322 4.0656 12.2446 4.10848C12.2569 4.15136 12.2606 4.19627 12.2554 4.24058C12.2502 4.2849 12.2362 4.32773 12.2143 4.36659C12.1923 4.40544 12.1629 4.43954 12.1276 4.46689C12.0924 4.49424 12.052 4.51429 12.0089 4.52588C11.9658 4.53746 11.9209 4.54035 11.8767 4.53438C11.8324 4.5284 11.7899 4.51368 11.7514 4.49107C11.7129 4.46845 11.6793 4.43841 11.6526 4.40268C11.5249 4.23828 11.2633 4.13196 10.9861 4.13196C10.5501 4.13196 10.2462 4.37748 10.2462 4.59804C10.2462 4.8186 10.5501 5.06436 10.9861 5.06436C11.3461 5.06436 11.6869 5.1714 11.9478 5.36604C12.2339 5.5794 12.3981 5.8842 12.3981 6.20268C12.3981 6.52116 12.2339 6.82668 11.9478 7.03932C11.6877 7.23372 11.3454 7.34076 10.9861 7.34076Z" fill="#181818"/>
<path d="M10.9864 4.13176C10.8973 4.13176 10.8118 4.09636 10.7488 4.03335C10.6858 3.97034 10.6504 3.88488 10.6504 3.79576V3.2608C10.6504 3.17169 10.6858 3.08623 10.7488 3.02322C10.8118 2.9602 10.8973 2.9248 10.9864 2.9248C11.0755 2.9248 11.161 2.9602 11.224 3.02322C11.287 3.08623 11.3224 3.17169 11.3224 3.2608V3.79576C11.3224 3.88488 11.287 3.97034 11.224 4.03335C11.161 4.09636 11.0755 4.13176 10.9864 4.13176ZM10.9864 7.87552C10.8973 7.87552 10.8118 7.84012 10.7488 7.77711C10.6858 7.7141 10.6504 7.62864 10.6504 7.53953V7.00456C10.6504 6.91545 10.6858 6.82999 10.7488 6.76698C10.8118 6.70396 10.8973 6.66856 10.9864 6.66856C11.0755 6.66856 11.161 6.70396 11.224 6.76698C11.287 6.82999 11.3224 6.91545 11.3224 7.00456V7.53953C11.3224 7.62864 11.287 7.7141 11.224 7.77711C11.161 7.84012 11.0755 7.87552 10.9864 7.87552Z" fill="#181818"/>
<path d="M10.9873 9.33587C8.817 9.33587 7.05132 7.57019 7.05132 5.39987C7.05132 3.22955 8.817 1.46387 10.9873 1.46387C13.1576 1.46387 14.9233 3.22955 14.9233 5.39987C14.9233 7.57019 13.1576 9.33587 10.9873 9.33587ZM10.9873 2.13587C9.18732 2.13587 7.72332 3.59987 7.72332 5.39987C7.72332 7.19987 9.18732 8.66387 10.9873 8.66387C12.7873 8.66387 14.2513 7.19987 14.2513 5.39987C14.2513 3.59987 12.7871 2.13587 10.9873 2.13587ZM22.2008 22.5359H1.80084C1.71173 22.5359 1.62627 22.5005 1.56326 22.4375C1.50024 22.3744 1.46484 22.289 1.46484 22.1999V20.2799C1.46484 20.1908 1.50024 20.1053 1.56326 20.0423C1.62627 19.9793 1.71173 19.9439 1.80084 19.9439H22.2008C22.29 19.9439 22.3754 19.9793 22.4384 20.0423C22.5014 20.1053 22.5368 20.1908 22.5368 20.2799V22.1999C22.5368 22.289 22.5014 22.3744 22.4384 22.4375C22.3754 22.5005 22.29 22.5359 22.2008 22.5359ZM2.13684 21.8639H21.8648V20.6159H2.13684V21.8639Z" fill="#181818"/>
<path d="M6.26381 20.6163H4.34381C4.2547 20.6163 4.16924 20.5809 4.10622 20.5179C4.04321 20.4549 4.00781 20.3694 4.00781 20.2803V16.3095C4.00781 16.2204 4.04321 16.135 4.10622 16.0719C4.16924 16.0089 4.2547 15.9735 4.34381 15.9735C4.43293 15.9735 4.51839 16.0089 4.5814 16.0719C4.64441 16.135 4.67981 16.2204 4.67981 16.3095V19.9443H5.92781V16.0671C5.92781 15.978 5.96321 15.8926 6.02622 15.8295C6.08924 15.7665 6.1747 15.7311 6.26381 15.7311C6.35293 15.7311 6.43839 15.7665 6.5014 15.8295C6.56441 15.8926 6.59981 15.978 6.59981 16.0671V20.2803C6.59981 20.3694 6.56441 20.4549 6.5014 20.5179C6.43839 20.5809 6.35293 20.6163 6.26381 20.6163ZM10.7278 20.6163H8.80781C8.7187 20.6163 8.63324 20.5809 8.57022 20.5179C8.50721 20.4549 8.47181 20.3694 8.47181 20.2803V15.5881C8.47181 15.499 8.50721 15.4135 8.57022 15.3505C8.63324 15.2875 8.7187 15.2521 8.80781 15.2521C8.89693 15.2521 8.98239 15.2875 9.0454 15.3505C9.10841 15.4135 9.14381 15.499 9.14381 15.5881V19.9443H10.3918V15.0899C10.3918 15.0007 10.4272 14.9153 10.4902 14.8523C10.5532 14.7893 10.6387 14.7539 10.7278 14.7539C10.8169 14.7539 10.9024 14.7893 10.9654 14.8523C11.0284 14.9153 11.0638 15.0007 11.0638 15.0899V20.2803C11.0638 20.3694 11.0284 20.4549 10.9654 20.5179C10.9024 20.5809 10.8169 20.6163 10.7278 20.6163ZM15.1918 20.6163H13.2718C13.1827 20.6163 13.0972 20.5809 13.0342 20.5179C12.9712 20.4549 12.9358 20.3694 12.9358 20.2803V14.1918C12.9358 14.1027 12.9712 14.0172 13.0342 13.9542C13.0972 13.8912 13.1827 13.8558 13.2718 13.8558C13.3609 13.8558 13.4464 13.8912 13.5094 13.9542C13.5724 14.0172 13.6078 14.1027 13.6078 14.1918V19.9443H14.8558V13.2589C14.8558 13.1698 14.8912 13.0843 14.9542 13.0213C15.0172 12.9583 15.1027 12.9229 15.1918 12.9229C15.2809 12.9229 15.3664 12.9583 15.4294 13.0213C15.4924 13.0843 15.5278 13.1698 15.5278 13.2589V20.2803C15.5278 20.3694 15.4924 20.4549 15.4294 20.5179C15.3664 20.5809 15.2809 20.6163 15.1918 20.6163ZM19.6558 20.6163H17.7358C17.6467 20.6163 17.5612 20.5809 17.4982 20.5179C17.4352 20.4549 17.3998 20.3694 17.3998 20.2803V11.4171C17.3998 11.328 17.4352 11.2426 17.4982 11.1795C17.5612 11.1165 17.6467 11.0811 17.7358 11.0811C17.8249 11.0811 17.9104 11.1165 17.9734 11.1795C18.0364 11.2426 18.0718 11.328 18.0718 11.4171V19.9443H19.3198V10.1339C19.3198 10.0447 19.3552 9.95928 19.4182 9.89626C19.4812 9.83325 19.5667 9.79785 19.6558 9.79785C19.7449 9.79785 19.8304 9.83325 19.8934 9.89626C19.9564 9.95928 19.9918 10.0447 19.9918 10.1339V20.2803C19.9918 20.3694 19.9564 20.4549 19.8934 20.5179C19.8304 20.5809 19.7449 20.6163 19.6558 20.6163Z" fill="#181818"/>
<path d="M2.74541 16.7637C2.66322 16.7635 2.58396 16.7332 2.52261 16.6786C2.46125 16.6239 2.42207 16.5486 2.41246 16.467C2.40285 16.3854 2.42349 16.3031 2.47047 16.2356C2.51745 16.1682 2.58751 16.1203 2.66741 16.1011C8.95757 14.5999 12.4745 12.3105 14.317 10.6543C16.2812 8.88907 16.783 7.48771 16.789 7.47379C16.8077 7.42004 16.8397 7.37191 16.8821 7.33392C16.9244 7.29592 16.9757 7.26931 17.0312 7.25657C17.0866 7.24384 17.1444 7.24539 17.1991 7.2611C17.2538 7.2768 17.3036 7.30614 17.3439 7.34635L19.428 9.43219C19.482 9.4862 19.516 9.55699 19.5244 9.6329C19.5328 9.70881 19.515 9.78531 19.4741 9.84979C18.5211 11.35 17.041 12.6482 15.0754 13.7061C13.519 14.5442 11.6544 15.2354 9.53333 15.7612C5.93333 16.6538 2.78765 16.7625 2.75621 16.7637H2.74541ZM17.2092 8.16283C16.8972 8.76283 16.1907 9.87355 14.7663 11.154C13.5531 12.2445 12.0615 13.2379 10.3332 14.106C9.17789 14.6882 7.91381 15.2136 6.55109 15.6808C7.42013 15.5409 8.38397 15.3542 9.38309 15.1048C12.5328 14.3227 16.6791 12.755 18.7584 9.71156L17.2092 8.16283Z" fill="#181818"/>
<path d="M20.4725 11.2855C20.4284 11.2855 20.3847 11.2768 20.3439 11.2599C20.3031 11.243 20.2661 11.2183 20.2349 11.1871L15.5887 6.54113C15.5446 6.49704 15.5136 6.44154 15.4993 6.38084C15.4849 6.32014 15.4877 6.25664 15.5074 6.19745C15.5271 6.13826 15.5628 6.08572 15.6107 6.0457C15.6585 6.00569 15.7166 5.97979 15.7783 5.97089L21.2062 5.18897C21.2579 5.18153 21.3106 5.18625 21.3602 5.20275C21.4097 5.21925 21.4548 5.24708 21.4917 5.28403C21.5286 5.32098 21.5564 5.36603 21.5729 5.41561C21.5894 5.46518 21.594 5.51791 21.5866 5.56961L20.8049 10.9972C20.7933 11.0772 20.7534 11.1503 20.6923 11.2032C20.6312 11.2561 20.5531 11.2852 20.4723 11.2852L20.4725 11.2855ZM16.5384 6.54041L20.2344 10.2364L20.8565 5.91641L16.5384 6.54041Z" fill="#181818"/>
</svg>
