<svg width="24" height="24" viewBox="0 0 24 24" fill="none" xmlns="http://www.w3.org/2000/svg">
<g clip-path="url(#clip0_1676_25784)">
<path d="M18.4955 21.7037C18.548 21.7037 18.598 21.6837 18.6355 21.6412C19.8655 20.2737 19.013 19.3912 19.003 19.3837C18.9806 19.3618 18.9532 19.3458 18.9231 19.337C18.893 19.3283 18.8612 19.3272 18.8305 19.3337C18.768 19.3462 18.718 19.3912 18.6955 19.4512C18.5205 19.9137 17.923 19.8362 17.898 19.8312C17.848 19.8237 17.798 19.8362 17.758 19.8687L17.3155 20.2087C17.3155 20.2087 17.2955 20.2062 17.2805 20.1887L16.943 19.7812C16.9305 19.7637 16.9305 19.7237 16.953 19.7012L17.2755 19.3587C17.4504 19.171 17.5645 18.9348 17.603 18.6812C17.638 18.4587 17.7905 18.2437 17.908 18.1287L18.133 17.8962C18.183 17.8462 18.198 17.7737 18.1755 17.7062L18.0255 17.2537C18.183 17.3037 18.363 17.4012 18.453 17.5937C18.4805 17.6537 18.5405 17.6962 18.608 17.7012C20.258 17.8387 21.0605 19.0862 21.0605 21.5137C21.0605 21.6162 21.1455 21.7012 21.248 21.7012C21.3505 21.7012 21.4355 21.6162 21.4355 21.5137C21.4355 18.9387 20.528 17.5337 18.7405 17.3362C18.433 16.8387 17.7805 16.8262 17.7505 16.8262C17.6955 16.8187 17.633 16.8537 17.598 16.9037C17.563 16.9537 17.553 17.0162 17.5705 17.0737L17.7855 17.7162L17.643 17.8612C17.478 18.0187 17.2805 18.3062 17.2305 18.6212C17.203 18.8012 17.1205 18.9712 17.0005 19.0987L16.6805 19.4412C16.5355 19.5937 16.523 19.8387 16.6505 20.0087L16.988 20.4162C17.1105 20.5837 17.348 20.6287 17.5305 20.5137L17.928 20.2087C18.193 20.2287 18.608 20.1687 18.873 19.8737C18.9755 20.1487 19.008 20.6662 18.358 21.3887C18.288 21.4662 18.2955 21.5837 18.373 21.6537C18.408 21.6862 18.453 21.7012 18.498 21.7012L18.4955 21.7037Z" fill="#181818"/>
</g>
<g clip-path="url(#clip1_1676_25784)">
<path d="M4.49555 21.7037C4.54805 21.7037 4.59805 21.6837 4.63555 21.6412C5.86555 20.2737 5.01305 19.3912 5.00305 19.3837C4.98065 19.3618 4.95317 19.3458 4.92308 19.337C4.89298 19.3283 4.86119 19.3272 4.83055 19.3337C4.76805 19.3462 4.71805 19.3912 4.69555 19.4512C4.52055 19.9137 3.92305 19.8362 3.89805 19.8312C3.84805 19.8237 3.79805 19.8362 3.75805 19.8687L3.31555 20.2087C3.31555 20.2087 3.29555 20.2062 3.28055 20.1887L2.94305 19.7812C2.93055 19.7637 2.93055 19.7237 2.95305 19.7012L3.27555 19.3587C3.45039 19.171 3.56453 18.9348 3.60305 18.6812C3.63805 18.4587 3.79055 18.2437 3.90805 18.1287L4.13305 17.8962C4.18305 17.8462 4.19805 17.7737 4.17555 17.7062L4.02555 17.2537C4.18305 17.3037 4.36305 17.4012 4.45305 17.5937C4.48055 17.6537 4.54055 17.6962 4.60805 17.7012C6.25805 17.8387 7.06055 19.0862 7.06055 21.5137C7.06055 21.6162 7.14555 21.7012 7.24805 21.7012C7.35055 21.7012 7.43555 21.6162 7.43555 21.5137C7.43555 18.9387 6.52805 17.5337 4.74055 17.3362C4.43305 16.8387 3.78055 16.8262 3.75055 16.8262C3.69555 16.8187 3.63305 16.8537 3.59805 16.9037C3.56305 16.9537 3.55305 17.0162 3.57055 17.0737L3.78555 17.7162L3.64305 17.8612C3.47805 18.0187 3.28055 18.3062 3.23055 18.6212C3.20305 18.8012 3.12055 18.9712 3.00055 19.0987L2.68055 19.4412C2.53555 19.5937 2.52305 19.8387 2.65055 20.0087L2.98805 20.4162C3.11055 20.5837 3.34805 20.6287 3.53055 20.5137L3.92805 20.2087C4.19305 20.2287 4.60805 20.1687 4.87305 19.8737C4.97555 20.1487 5.00805 20.6662 4.35805 21.3887C4.28805 21.4662 4.29555 21.5837 4.37305 21.6537C4.40805 21.6862 4.45305 21.7012 4.49805 21.7012L4.49555 21.7037Z" fill="#181818"/>
</g>
<g clip-path="url(#clip2_1676_25784)">
<path d="M11.3799 8.07031C11.4446 8.07031 11.5061 8.04571 11.5523 7.99344C13.0668 6.31158 12.0171 5.22621 12.0048 5.21698C11.9772 5.19003 11.9434 5.17032 11.9063 5.15959C11.8693 5.14886 11.8301 5.14745 11.7924 5.15549C11.7154 5.17086 11.6539 5.22621 11.6262 5.3C11.4107 5.86882 10.675 5.77351 10.6442 5.76736C10.5826 5.75813 10.5211 5.77351 10.4718 5.81348L9.92695 6.23164C9.92695 6.23164 9.90232 6.22856 9.88385 6.20704L9.46828 5.70586C9.45289 5.68434 9.45289 5.63514 9.4806 5.60747L9.8777 5.18624C10.093 4.95534 10.2335 4.66494 10.281 4.35299C10.3241 4.07934 10.5118 3.81492 10.6565 3.67348L10.9336 3.38753C10.9951 3.32604 11.0136 3.23687 10.9859 3.15385L10.8012 2.59733C10.9951 2.65883 11.2168 2.77874 11.3276 3.01549C11.3614 3.08929 11.4353 3.14156 11.5184 3.14771C13.5501 3.31681 14.5383 4.85109 14.5383 7.83663C14.5383 7.9627 14.6429 8.06724 14.7691 8.06724C14.8953 8.06724 15 7.9627 15 7.83663C15 4.66969 13.8826 2.9417 11.6816 2.6988C11.303 2.08693 10.4995 2.07156 10.4626 2.07156C10.3949 2.06233 10.3179 2.10538 10.2748 2.16687C10.2317 2.22837 10.2194 2.30524 10.2409 2.37595L10.5057 3.16615L10.3302 3.34449C10.127 3.53819 9.88385 3.89178 9.82229 4.2792C9.78843 4.50058 9.68684 4.70966 9.53908 4.86647L9.14506 5.2877C8.96652 5.47526 8.95113 5.77658 9.10812 5.98566L9.52369 6.48684C9.67453 6.69284 9.96697 6.74819 10.1917 6.60675L10.6811 6.23164C11.0074 6.25624 11.5184 6.18244 11.8447 5.81963C11.9709 6.15784 12.011 6.79431 11.2106 7.6829C11.1244 7.77821 11.1336 7.92273 11.2291 8.00882C11.2722 8.04879 11.3276 8.06724 11.383 8.06724L11.3799 8.07031Z" fill="#181818"/>
</g>
<circle cx="19" cy="19.0703" r="3.75" stroke="#181818" stroke-width="0.5"/>
<circle cx="5" cy="19.0703" r="3.75" stroke="#181818" stroke-width="0.5"/>
<circle cx="12" cy="5.07031" r="3.75" stroke="#181818" stroke-width="0.5"/>
<path d="M12 9.07031V13.0703" stroke="#181818" stroke-width="0.5"/>
<path d="M12 13.0703H5" stroke="#181818" stroke-width="0.5"/>
<path d="M5 15.0703L5 13.0703" stroke="#181818" stroke-width="0.5"/>
<path d="M19 15.0703L19 13.0703" stroke="#181818" stroke-width="0.5"/>
<path d="M19 13.0703H12" stroke="#181818" stroke-width="0.5"/>
<defs>
<clipPath id="clip0_1676_25784">
<rect width="6" height="6" fill="white" transform="matrix(-1 0 0 1 22 16.0703)"/>
</clipPath>
<clipPath id="clip1_1676_25784">
<rect width="6" height="6" fill="white" transform="matrix(-1 0 0 1 8 16.0703)"/>
</clipPath>
<clipPath id="clip2_1676_25784">
<rect width="6" height="6" fill="white" transform="matrix(-1 0 0 1 15 2.07031)"/>
</clipPath>
</defs>
</svg>
