<svg width="24" height="24" viewBox="0 0 24 24" fill="none" xmlns="http://www.w3.org/2000/svg">
<path d="M24 4.56657L22.6305 0L17.2722 1.26085C16.1999 1.51349 15.4182 2.42035 15.3272 3.51803C15.2811 4.07013 15.4209 4.63183 15.7211 5.10024C16.565 6.41523 18.527 9.75473 18.527 12.359C18.527 13.6471 18.3016 14.7521 17.857 15.6432L18.5438 15.9861C19.0422 14.9878 19.2948 13.7677 19.2948 12.359C19.2948 9.55162 17.2477 6.0574 16.3677 4.68559C16.1581 4.35847 16.0602 3.96685 16.092 3.58176C16.1558 2.81696 16.7009 2.18461 17.4485 2.00838L22.1022 0.913774L23.0363 4.02598L19.7022 4.90328L20.0489 5.36055C21.2015 6.88018 23.1342 9.91022 23.1342 13.1269C23.1342 18.0954 19.6914 23.1093 12 23.1093C4.30856 23.1093 0.865782 18.0954 0.865782 13.1269C0.865782 9.91022 2.79853 6.88018 3.95073 5.36055L4.29742 4.90328L0.963302 4.02598L1.89781 0.913774L6.55153 2.00838C7.29906 2.18461 7.84425 2.81696 7.90798 3.58176C7.93985 3.96685 7.84195 4.35847 7.63232 4.68559C6.75233 6.0574 4.70517 9.55162 4.70517 12.359C4.70517 15.5119 5.97063 19.2699 12 19.2699C14.8258 19.2699 16.8683 18.4287 18.0701 16.7697L17.4485 16.3189C16.3988 17.7675 14.5659 18.502 12 18.502C7.66917 18.502 5.47304 16.4353 5.47304 12.359C5.47304 9.75473 7.43497 6.41523 8.27887 5.10024C8.57911 4.63183 8.71925 4.07013 8.67279 3.51803C8.5818 2.42073 7.8001 1.51349 6.72776 1.26085L1.36951 0L0 4.56657L3.00086 5.35633C1.7857 7.05909 0.0979043 9.98931 0.0979043 13.1269C0.0979043 18.4782 3.77834 23.8771 12 23.8771C20.2217 23.8771 23.9021 18.4782 23.9021 13.1269C23.9021 9.98931 22.2143 7.05909 20.9988 5.35633L24 4.56657Z" fill="#1B1F3B"/>
<path d="M12.3838 20.8056H11.616V21.5735H12.3838V20.8056Z" fill="#1B1F3B"/>
<path d="M16.6072 19.6538H15.8394V20.4217H16.6072V19.6538Z" fill="#1B1F3B"/>
<path d="M20.0628 17.3502H19.2949V18.1181H20.0628V17.3502Z" fill="#1B1F3B"/>
<path d="M21.5984 13.5108H20.8306V14.2787H21.5984V13.5108Z" fill="#1B1F3B"/>
<path d="M8.1607 19.6538H7.39282V20.4217H8.1607V19.6538Z" fill="#1B1F3B"/>
<path d="M4.70513 17.3502H3.93726V18.1181H4.70513V17.3502Z" fill="#1B1F3B"/>
<path d="M3.16949 13.5108H2.40161V14.2787H3.16949V13.5108Z" fill="#1B1F3B"/>
<path d="M6.40913 5.29605L5.79713 4.83186L4.86877 6.05586C4.33394 6.76115 3.33877 8.20016 2.67725 9.91713L3.39406 10.1932C4.02142 8.56451 4.97051 7.1927 5.48038 6.52043L6.40913 5.29605Z" fill="#1B1F3B"/>
<path d="M18.2028 4.83225L17.5908 5.29643L18.5192 6.52043C19.0291 7.19309 19.9785 8.56452 20.6059 10.1932L21.3227 9.91713C20.6612 8.20016 19.666 6.76116 19.1312 6.05586L18.2028 4.83225Z" fill="#1B1F3B"/>
</svg>
