<svg width="24" height="18" viewBox="0 0 24 18" fill="none" xmlns="http://www.w3.org/2000/svg">
<g clip-path="url(#clip0_964_43843)">
<path d="M18.4273 3.58576L18.5513 3.65718C18.4379 3.9397 18.3749 4.24768 18.3749 4.57032C18.3749 5.92732 19.4789 7.03126 20.8359 7.03126C22.1927 7.03126 23.2968 5.92732 23.2968 4.57032C23.2968 4.24768 23.2337 3.9397 23.1203 3.65718L23.2443 3.58576C23.4125 3.48872 23.47 3.27356 23.373 3.10548C23.2759 2.9372 23.061 2.8799 22.8927 2.97676L22.7678 3.0489C22.6475 2.89638 22.5097 2.7585 22.3573 2.6382L22.4293 2.51332C22.5263 2.34524 22.4688 2.13008 22.3007 2.03304C22.1325 1.936 21.9175 1.99368 21.8204 2.16176L21.7489 2.28572C21.5709 2.21432 21.383 2.16304 21.1875 2.13484V1.9922C21.1875 1.79792 21.03 1.64064 20.8359 1.64064C20.6416 1.64064 20.4843 1.79792 20.4843 1.9922V2.13484C20.2888 2.16304 20.1007 2.21432 19.9228 2.28572L19.8512 2.16176C19.7541 1.99368 19.5391 1.93618 19.3711 2.03304C19.2028 2.1301 19.1453 2.34524 19.2423 2.51332L19.3145 2.6382C19.1619 2.7585 19.024 2.89638 18.9038 3.0489L18.7789 2.97676C18.6106 2.8797 18.3956 2.9372 18.2986 3.10548C18.2015 3.27356 18.2592 3.48872 18.4273 3.58576ZM20.8359 6.32812C19.8665 6.32812 19.0781 5.53948 19.0781 4.5703C19.0781 3.60094 19.8665 2.81248 20.8359 2.81248C21.8051 2.81248 22.5937 3.60094 22.5937 4.5703C22.5937 5.5395 21.8051 6.32812 20.8359 6.32812Z" fill="#1B1F3B"/>
<path d="M23.7595 23.3148L22.5937 22.9263V18.9844H23.6482C23.8425 18.9844 23.9997 18.8269 23.9997 18.6328V9.02344C23.9997 8.31262 23.4215 7.73438 22.7109 7.73438H18.9609C18.25 7.73438 17.6718 8.31262 17.6718 9.02344V18.6328C17.6718 18.726 17.7088 18.8154 17.7747 18.8813C17.8406 18.9472 17.93 18.9844 18.0234 18.9844H19.0781V22.9263L17.912 23.3148C17.7278 23.3762 17.6284 23.5754 17.6898 23.7596C17.7388 23.9068 17.8761 24 18.0232 24C18.0602 24 18.0975 23.9942 18.1345 23.9819L19.5408 23.5131C19.6843 23.4653 19.7812 23.331 19.7812 23.1797V18.9844H21.8906V23.1797C21.8906 23.331 21.9873 23.4653 22.1308 23.5131L23.5371 23.9819C23.5741 23.9942 23.6116 24 23.6484 24C23.7956 24 23.9328 23.9068 23.9818 23.7596C24.0431 23.5754 23.9437 23.3762 23.7595 23.3148ZM23.2968 9.02344V18.2813H22.5937V8.4375H22.7109C23.0339 8.4375 23.2968 8.70026 23.2968 9.02344ZM20.8359 12.6563C21.03 12.6563 21.1874 12.4988 21.1874 12.3047V10.7457C21.4471 10.6928 21.686 10.5826 21.8905 10.4286V13.3594H19.7812V10.4288C19.9857 10.5826 20.2247 10.693 20.4843 10.7459V12.3047C20.4843 12.4988 20.6416 12.6563 20.8359 12.6563ZM21.8905 9.02344C21.8905 9.60498 21.4172 10.0781 20.8359 10.0781C20.2543 10.0781 19.7812 9.60498 19.7812 9.02344V8.4375H21.8906L21.8905 9.02344ZM19.7812 14.0625H21.8906V15.1166C21.5872 15.3446 21.218 15.4687 20.8359 15.4687C20.4536 15.4687 20.0844 15.3444 19.7812 15.1166V14.0625H19.7812ZM18.3749 18.2813V9.02344C18.3749 8.70026 18.6377 8.4375 18.9609 8.4375H19.078V18.2813H18.3749ZM19.7812 18.2813V15.9338C20.108 16.0891 20.4675 16.1719 20.8359 16.1719C21.2041 16.1719 21.5635 16.0891 21.8905 15.9338V18.2812L19.7812 18.2813Z" fill="#1B1F3B"/>
<path d="M16.6172 0C16.4229 0 16.2656 0.15728 16.2656 0.35156V2.10938H14.8594V0.35156C14.8594 0.15728 14.7019 0 14.5078 0C13.5385 0 12.75 0.78846 12.75 1.75782V2.10938C11.0052 2.10938 9.58594 3.52882 9.58594 5.27344V9.14062H3.16406C1.41944 9.14062 0 10.5599 0 12.3047V15.8203C0 16.0144 0.15728 16.1719 0.35156 16.1719C0.74706 16.1719 1.11218 16.0406 1.40624 15.8194V17.5781H0.35156C0.15728 17.5781 0 17.7354 0 17.9297V23.6483C0 23.8425 0.15728 23.9998 0.35156 23.9998C0.54584 23.9998 0.70312 23.8425 0.70312 23.6483V18.2813H1.7578C2.75096 18.2813 3.63812 17.8209 4.21874 17.1028V23.6483C4.21874 23.8425 4.37602 23.9998 4.5703 23.9998C4.76458 23.9998 4.92186 23.8425 4.92186 23.6483V18.2813H5.97654C7.34488 18.2813 8.53106 17.4203 8.96628 16.1517L10.289 16.3561V17.2266C10.289 17.6849 10.5829 18.0756 10.9922 18.2206V23.6483C10.9922 23.8425 11.1494 23.9998 11.3437 23.9998C11.5378 23.9998 11.6953 23.8425 11.6953 23.6483V18.2206C12.1043 18.0756 12.3984 17.6849 12.3984 17.2266V16.4062H13.8047V17.2266C13.8047 17.6849 14.0985 18.0756 14.5078 18.2206V23.6483C14.5078 23.8425 14.6651 23.9998 14.8593 23.9998C15.0534 23.9998 15.2109 23.8425 15.2109 23.6483V18.2206C15.62 18.0756 15.914 17.6849 15.914 17.2266V9.79926C16.5197 9.6427 16.9687 9.09156 16.9687 8.4375V0.35156C16.9688 0.15728 16.8113 0 16.6172 0ZM12.0432 2.91632C11.3848 3.50464 10.9922 4.35242 10.9922 5.27344V8.08594C10.9922 8.54426 10.6981 8.935 10.2891 9.0802V5.27344C10.2891 4.16216 11.0297 3.22082 12.0432 2.91632ZM0.70312 15.4085V12.3047C0.70312 11.1907 1.44744 10.2477 2.46478 9.94554C1.81566 10.5254 1.40624 11.3679 1.40624 12.3047V14.4141C1.40626 14.8724 1.11236 15.2633 0.70312 15.4085ZM5.97656 17.5781H4.92188V15.5272L8.25716 16.0422C7.88726 16.9625 6.99702 17.5781 5.97656 17.5781ZM15.5625 9.14062C15.1747 9.14062 14.8594 8.82514 14.8594 8.4375V6.67968C14.8594 6.4854 14.7019 6.32812 14.5078 6.32812C13.9263 6.32812 13.4531 5.85498 13.4531 5.27344C13.4531 5.07916 13.2957 4.92188 13.1016 4.92188C12.9073 4.92188 12.75 5.07916 12.75 5.27344C12.75 6.12232 13.3548 6.83258 14.1563 6.99592V8.43752C14.1563 9.09158 14.6051 9.64272 15.211 9.79928V17.2266C15.211 17.4203 15.0531 17.5781 14.8594 17.5781C14.6655 17.5781 14.5078 17.4203 14.5078 17.2266V16.0547C14.5078 15.8604 14.3504 15.7031 14.1563 15.7031H12.0469C11.8526 15.7031 11.6953 15.8604 11.6953 16.0547V17.2266C11.6953 17.4203 11.5377 17.5781 11.3438 17.5781C11.1499 17.5781 10.9922 17.4203 10.9922 17.2266V16.0547C10.9922 15.8811 10.8657 15.7337 10.6943 15.7072L4.62396 14.7697C4.62158 14.7693 4.61902 14.7693 4.61664 14.7689C4.60932 14.768 4.602 14.7673 4.59466 14.7669C4.58934 14.7665 4.58404 14.7662 4.57872 14.766C4.57598 14.766 4.57324 14.7656 4.5703 14.7656C4.5661 14.7656 4.56188 14.766 4.55766 14.7662C4.55254 14.7664 4.54724 14.7665 4.5421 14.7671C4.53442 14.7676 4.5269 14.7685 4.51958 14.7696C4.51518 14.7704 4.5108 14.7709 4.5064 14.7717C4.49798 14.7733 4.48956 14.7753 4.48132 14.7773C4.47802 14.7783 4.47472 14.779 4.47124 14.7801C4.4619 14.7828 4.45256 14.7861 4.4436 14.7896C4.4414 14.7904 4.4392 14.7911 4.4372 14.792C4.4143 14.8013 4.39252 14.8131 4.3722 14.8268C4.37092 14.8277 4.36982 14.8286 4.36854 14.8295C4.35992 14.8356 4.35168 14.8418 4.34364 14.8486C4.3429 14.8493 4.34218 14.8497 4.34144 14.8504C4.33906 14.8524 4.33704 14.8546 4.33486 14.8566C4.32882 14.8621 4.32296 14.8676 4.31746 14.8733C4.31416 14.8766 4.31106 14.8801 4.30812 14.8836C4.303 14.8892 4.29824 14.8949 4.29366 14.9008C4.29074 14.9044 4.28798 14.9081 4.28524 14.912C4.28084 14.9182 4.27664 14.9244 4.2726 14.9308C4.27022 14.9346 4.26802 14.9383 4.26584 14.942C4.2618 14.9489 4.25814 14.9563 4.25448 14.9636C4.25284 14.9671 4.251 14.9704 4.24954 14.974C4.24588 14.9819 4.24276 14.9899 4.23984 14.9982C4.23874 15.0013 4.23746 15.0046 4.23636 15.0077C4.23344 15.0165 4.23104 15.0255 4.22886 15.0344C4.22832 15.0374 4.2274 15.0403 4.22666 15.0431C4.22464 15.0526 4.22318 15.0623 4.2219 15.0722C4.22172 15.0747 4.22098 15.0773 4.2208 15.0799C4.21952 15.0921 4.21878 15.1046 4.21878 15.1172C4.21878 16.3546 3.30032 17.3813 2.1094 17.5525V12.3047C2.1094 10.9477 3.21334 9.84374 4.57034 9.84374H9.93752C10.9067 9.84374 11.6953 9.0551 11.6953 8.08592V5.27344C11.6953 4.266 12.299 3.37042 13.2334 2.99194C13.3662 2.93828 13.4531 2.80938 13.4531 2.6662V1.75782C13.4531 1.2995 13.747 0.90858 14.1563 0.76338V2.46094C14.1563 2.65522 14.3135 2.8125 14.5078 2.8125H16.2656V8.4375C16.2656 8.82514 15.9501 9.14062 15.5625 9.14062Z" fill="#1B1F3B"/>
</g>
<defs>
<clipPath id="clip0_964_43843">
<rect width="24" height="24" fill="white"/>
</clipPath>
</defs>
</svg>
