<svg width="24" height="24" viewBox="0 0 24 24" fill="none" xmlns="http://www.w3.org/2000/svg">
<g clip-path="url(#clip0_964_45295)">
<path d="M21.0061 5.32814L21.3942 4.62912L22.0362 4.98556L21.6481 5.68478L21.0061 5.32814Z" fill="#311C11"/>
<path d="M14.2058 1.54924L14.5945 0.850021L20.5939 4.18497L20.2052 4.88419L14.2058 1.54924Z" fill="#311C11"/>
<path d="M23.1855 20.1392C23.1953 20.0693 23.1999 19.9988 23.1999 19.9281C23.1999 19.0445 22.4835 18.3281 21.5999 18.3281C21.465 18.3285 21.3304 18.3463 21.1999 18.3808V12.8162L22.7199 13.1201C22.7462 13.1256 22.773 13.1283 22.7999 13.1281C22.9833 13.1279 23.1431 13.0029 23.1876 12.825L23.5876 11.225C23.6146 11.1162 23.5949 11.0012 23.5329 10.9076C23.4712 10.8143 23.373 10.751 23.2624 10.7334L22.3263 10.5846L20.8999 6.30451C20.8683 6.20978 20.8025 6.13029 20.7152 6.08166L12.1943 1.34807C12.0734 1.28089 11.9265 1.28089 11.8056 1.34807L3.28554 6.08205C3.19843 6.13068 3.13241 6.21017 3.10077 6.3049L1.67441 10.585L0.738475 10.7338C0.627733 10.7514 0.529491 10.8147 0.467772 10.908C0.405858 11.0016 0.386132 11.1166 0.41328 11.2254L0.813279 12.8254C0.865232 13.0324 1.0707 13.1621 1.28007 13.1201L2.79999 12.8162V16.4961C2.07148 16.8141 1.60039 17.5332 1.6 18.3281C1.60078 18.6119 1.66269 18.8924 1.78164 19.1502C1.0666 19.2224 0.446874 19.6763 0.162109 20.3361C-0.122656 20.9961 -0.0275389 21.7584 0.410351 22.3281H0V23.1281H23.9999V22.3281H23.7775C23.9964 21.9609 24.0568 21.5209 23.9453 21.1082C23.8337 20.6957 23.5595 20.3461 23.1855 20.1392ZM1.29394 11.4545L2.03847 11.3346C2.18574 11.3111 2.308 11.2076 2.35527 11.0662L3.80917 6.70372L12 2.15491L20.1908 6.70568L21.6447 11.0682C21.6919 11.2098 21.8142 11.3131 21.9615 11.3365L22.706 11.4564L22.506 12.2629L21.106 11.983L19.5796 7.40177C19.548 7.30685 19.4818 7.22716 19.3943 7.17853L12.1943 3.17854C12.0734 3.11135 11.9265 3.11135 11.8056 3.17854L4.60565 7.17853C4.51815 7.22716 4.45194 7.30685 4.4203 7.40177L2.89394 11.9813L1.49394 12.2613L1.29394 11.4545ZM3.59999 12.3934L5.13046 7.80255L12 3.98576L18.8695 7.80255L20.3999 12.3934V18.8808C20.3285 18.9617 20.2652 19.0492 20.2111 19.1426C19.5648 19.0596 18.9326 19.3758 18.6111 19.9426C18.5412 19.933 18.4707 19.9281 18.4 19.9281C17.5164 19.9281 16.8 20.6445 16.8 21.5281C16.8017 21.8097 16.8785 22.0859 17.0224 22.3281H14.8V15.9281H16C16.2209 15.9281 16.4 15.749 16.4 15.5281V13.9281C16.4 13.7072 16.2209 13.5281 16 13.5281H7.99998C7.77908 13.5281 7.59998 13.7072 7.59998 13.9281V15.5281C7.59998 15.749 7.77908 15.9281 7.99998 15.9281H9.19998V22.3281H6.78963C7.22752 21.7584 7.32264 20.9961 7.03787 20.3361C6.7533 19.6763 6.13338 19.2224 5.41835 19.1502C5.53729 18.8924 5.5992 18.6119 5.59999 18.3281C5.59862 17.224 4.70409 16.3295 3.59999 16.3281V12.3934ZM14 16.848V21.4082L12.48 19.1281L14 16.848ZM12 18.4082L10.3472 15.9281H13.6527L12 18.4082ZM8.39998 15.1281V14.3281H15.6V15.1281H8.39998ZM11.5199 19.1281L9.99998 21.4082V16.848L11.5199 19.1281ZM12 19.848L13.6527 22.3281H10.3472L12 19.848ZM3.99999 21.1281C3.99999 20.4654 4.53729 19.9281 5.19999 19.9281C5.86268 19.9281 6.39998 20.4654 6.39998 21.1281C6.39998 21.7908 5.86268 22.3281 5.19999 22.3281C4.53729 22.3281 3.99999 21.7908 3.99999 21.1281ZM3.61034 22.3281H3.58964C3.59315 22.3236 3.59687 22.3201 3.59999 22.3156C3.60312 22.3201 3.60683 22.3236 3.61034 22.3281ZM3.59999 17.1281C4.26268 17.1281 4.79999 17.6654 4.79999 18.3281C4.79999 18.9908 4.26268 19.5281 3.59999 19.5281C2.9373 19.5281 2.39999 18.9908 2.39999 18.3281C2.39999 17.6654 2.9373 17.1281 3.59999 17.1281ZM0.799998 21.1281C0.799998 20.4654 1.3373 19.9281 1.99999 19.9281C2.66269 19.9281 3.19999 20.4654 3.19999 21.1281C3.19999 21.7908 2.66269 22.3281 1.99999 22.3281C1.3373 22.3281 0.799998 21.7908 0.799998 21.1281ZM18.4 22.3281C18.0767 22.3295 17.7843 22.1361 17.6589 21.8381C17.5337 21.54 17.6002 21.1959 17.8275 20.9658C18.0546 20.7359 18.398 20.6652 18.6976 20.7869C18.8033 20.8303 18.9228 20.8256 19.0248 20.7736C19.1269 20.7226 19.2025 20.6304 19.2324 20.5201C19.2929 20.3013 19.4435 20.1183 19.6464 20.0168C19.8496 19.9152 20.0861 19.9043 20.2976 19.9869C20.4033 20.0303 20.5228 20.0256 20.6248 19.9736C20.7269 19.9226 20.8025 19.8305 20.8324 19.7201C20.9081 19.4326 21.1374 19.2113 21.4273 19.1457C21.7173 19.0801 22.0197 19.1812 22.2117 19.408C22.4037 19.6349 22.4537 19.9498 22.3412 20.225C22.2986 20.3308 22.3033 20.45 22.3542 20.5523C22.405 20.6545 22.4972 20.7303 22.6076 20.7601C22.9943 20.8638 23.2443 21.2383 23.1917 21.6351C23.1392 22.0322 22.8003 22.3287 22.3999 22.3281H18.4Z" fill="#311C11"/>
<path d="M11.9998 11.5281C13.3254 11.5281 14.3998 10.4535 14.3998 9.12813C14.3998 7.80255 13.3254 6.72813 11.9998 6.72813C10.6745 6.72813 9.59985 7.80255 9.59985 9.12813C9.60122 10.4531 10.6749 11.5268 11.9998 11.5281ZM10.4567 9.52813H11.5998V10.6713C11.0401 10.525 10.603 10.0879 10.4567 9.52813ZM12.3998 10.6713V9.52813H13.543C13.3967 10.0879 12.9596 10.525 12.3998 10.6713ZM13.543 8.72813H12.3998V7.58497C12.9596 7.73126 13.3967 8.16837 13.543 8.72813ZM11.5998 7.58497V8.72813H10.4567C10.603 8.16837 11.0401 7.73126 11.5998 7.58497Z" fill="#311C11"/>
<path d="M7.6001 8.72813H8.4001V9.52813H7.6001V8.72813Z" fill="#311C11"/>
<path d="M15.5999 8.72813H16.3999V9.52813H15.5999V8.72813Z" fill="#311C11"/>
</g>
<defs>
<clipPath id="clip0_964_45295">
<rect width="24" height="24" fill="white"/>
</clipPath>
</defs>
</svg>
