<svg width="24" height="24" viewBox="0 0 24 24" fill="none" xmlns="http://www.w3.org/2000/svg">
<g clip-path="url(#clip0_964_43834)">
<path d="M3.2106 9.43143C4.27452 9.43143 5.13702 8.56898 5.13702 7.50501C5.13702 6.44104 4.27452 5.57859 3.2106 5.57859C2.14663 5.57859 1.28418 6.44109 1.28418 7.50501C1.28521 8.56851 2.1471 9.4304 3.2106 9.43143ZM3.2106 6.22073C3.91987 6.22073 4.49484 6.79575 4.49484 7.50501C4.49484 8.21428 3.91982 8.78925 3.2106 8.78925C2.50134 8.78925 1.92632 8.21423 1.92632 7.50501C1.92632 6.79575 2.50134 6.22073 3.2106 6.22073Z" fill="#1B1F3B"/>
<path d="M2.88975 8.46825H3.53184V7.82611H4.17398V7.18396H3.53184V6.54182H2.88975V7.18396H2.24756V7.82611H2.88975V8.46825Z" fill="#1B1F3B"/>
<path d="M9.62794 13.6574C9.62569 13.6249 9.62587 13.6093 9.62705 13.6027C9.62475 13.5956 9.62213 13.5872 9.6187 13.5757C9.60188 13.5259 9.59958 13.5147 9.61139 13.5409C9.57417 13.4576 9.55463 13.37 9.55373 13.2843H8.98992C8.45794 13.2843 8.02673 13.7155 8.02673 14.2475V19.7056C8.02673 19.8829 7.88302 20.0267 7.70564 20.0267C7.52827 20.0267 7.38455 19.883 7.38455 19.7056V14.2475C7.38455 13.3608 6.66581 12.6421 5.77917 12.6421C4.89258 12.6421 4.17384 13.3608 4.17384 14.2475V17.1371C4.17384 17.3144 4.03013 17.4582 3.85275 17.4582C3.67537 17.4582 3.53166 17.3145 3.53166 17.1371V12H3.85275C4.03008 12 4.17384 11.8563 4.17384 11.6789V10.7157H5.45813C5.99011 10.7157 6.42131 10.2845 6.42131 9.75253V5.97914C6.41616 5.93301 6.4125 5.88637 6.41138 5.83894C6.40969 5.7682 6.41339 5.69808 6.42131 5.6287V3.33112C6.42131 2.79914 5.99006 2.36794 5.45813 2.36794H0.963188C0.43125 2.36794 0 2.79914 0 3.33112V9.75253C0 10.2845 0.43125 10.7157 0.963188 10.7157V19.7057H0.321094C0.143766 19.7057 0 19.8494 0 20.0268V21.311C0 21.4883 0.143719 21.6321 0.321094 21.6321H4.81608C4.99341 21.6321 5.13717 21.4884 5.13717 21.311V20.0268C5.13717 19.8495 4.99345 19.7057 4.81608 19.7057H1.60538V10.7157H2.24752V11.6789C2.24752 11.8562 2.39123 12 2.56861 12H2.8897V17.1371C2.8897 17.6691 3.32095 18.1004 3.85289 18.1004C4.38483 18.1004 4.81608 17.6691 4.81608 17.1371V14.2475C4.81608 13.7155 5.24733 13.2843 5.77927 13.2843C6.31125 13.2843 6.7425 13.7155 6.7425 14.2475V19.7056C6.7425 20.2376 7.17375 20.6689 7.70569 20.6689C8.23763 20.6689 8.66887 20.2376 8.66887 19.7056V14.2475C8.66887 14.0702 8.81259 13.9264 8.98997 13.9264H9.62344C9.62916 13.837 9.63412 13.7467 9.62794 13.6574ZM0.642141 3.33112C0.642141 3.15379 0.785859 3.01003 0.963188 3.01003H5.45817C5.6355 3.01003 5.77922 3.15375 5.77922 3.33112V4.25775C5.61159 4.21022 5.45419 4.13203 5.31497 4.02722C4.98708 3.7784 4.58545 3.64636 4.17389 3.65222C3.76214 3.6464 3.36028 3.7784 3.03216 4.02722C2.81006 4.20562 2.53223 4.30017 2.24747 4.29436C1.96275 4.30022 1.68506 4.20562 1.46311 4.02722C1.22081 3.84773 0.939469 3.72801 0.642141 3.6779V3.33112ZM4.49498 20.3478V20.9899H0.642141V20.3478H4.49498ZM0.963188 10.0736C0.785859 10.0736 0.642141 9.92981 0.642141 9.75248V4.33092C0.809531 4.37864 0.966703 4.45678 1.10573 4.56145C1.43372 4.8105 1.83567 4.9425 2.24747 4.93645C2.65922 4.94226 3.06108 4.81026 3.3892 4.56145C3.6113 4.38309 3.88912 4.28854 4.17389 4.29431C4.4588 4.28845 4.73667 4.383 4.95891 4.56145C5.20106 4.74079 5.48213 4.86051 5.77922 4.91076V9.75253C5.77922 9.92986 5.6355 10.0736 5.45817 10.0736H0.963188V10.0736ZM2.88966 11.3579V10.7157H3.5318V11.3579H2.88966Z" fill="#1B1F3B"/>
<path d="M8.47656 2.31914V9.71634C8.47656 10.3147 8.88728 10.8189 9.44144 10.9621V17.7567C9.44144 18.1761 9.71041 18.5335 10.0847 18.6661V23.6314C10.0847 23.8092 10.2287 23.9531 10.4063 23.9531C10.584 23.9531 10.7279 23.8092 10.7279 23.6314V18.6661C11.1023 18.5335 11.3711 18.1761 11.3711 17.7567V17.0063H12.6576V17.7567C12.6576 18.1761 12.9266 18.5335 13.3009 18.6661V23.6314C13.3009 23.8092 13.4449 23.9531 13.6225 23.9531C13.8002 23.9531 13.944 23.8092 13.944 23.6314V18.6661C14.3184 18.5335 14.5873 18.1761 14.5873 17.7567V16.9605L15.7974 16.7736C16.1955 17.934 17.2806 18.7216 18.5325 18.7216H19.4973V23.6315C19.4973 23.8092 19.6412 23.9532 19.819 23.9532C19.9967 23.9532 20.1405 23.8092 20.1405 23.6315V17.6435C20.6717 18.3005 21.4833 18.7216 22.3918 18.7216H23.3567V23.6314C23.3567 23.8092 23.5006 23.9531 23.6783 23.9531C23.856 23.9531 23.9999 23.8092 23.9999 23.6314V18.3999C23.9999 18.2223 23.856 18.0784 23.6783 18.0784H22.7134V16.4694C22.9824 16.6718 23.3164 16.7918 23.6783 16.7918C23.856 16.7918 23.9999 16.6478 23.9999 16.4703V13.2541C23.9999 11.658 22.7013 10.3596 21.1053 10.3596H15.2305V6.82186C15.2305 5.22586 13.9321 3.92728 12.3359 3.92728V3.60567C12.3359 2.71889 11.6146 1.99762 10.7278 1.99762C10.5503 1.99762 10.4062 2.14148 10.4063 2.31923V3.92718H9.11978V2.31914C9.11978 2.14139 8.97592 1.99753 8.79817 1.99753C8.62056 1.99753 8.47652 2.14139 8.47656 2.31914ZM14.5872 6.82176V10.3042C14.213 10.1715 13.944 9.81398 13.944 9.39468V6.82176C13.944 5.97918 13.5849 5.20359 12.9825 4.66542C13.9097 4.944 14.5872 5.80514 14.5872 6.82176ZM22.7135 15.1838V13.2541C22.7135 12.3971 22.339 11.6264 21.7451 11.0959C22.6758 11.3722 23.3567 12.2349 23.3567 13.2541V16.0935C22.9823 15.9607 22.7135 15.6031 22.7135 15.1838ZM16.4461 16.6732L19.4973 16.2021V18.0783H18.5324C17.5989 18.0784 16.7845 17.5152 16.4461 16.6732ZM9.11978 9.71629V4.57045H10.7278C10.9056 4.57045 11.0494 4.42654 11.0494 4.24884V2.69587C11.4238 2.82867 11.6927 3.18633 11.6927 3.60558V4.43662C11.6927 4.56759 11.7722 4.68558 11.8937 4.73461C12.7484 5.08087 13.3007 5.90015 13.3007 6.82181V9.39473C13.3007 10.2814 14.0222 11.0029 14.9088 11.0029H19.8189C21.0603 11.0029 22.0702 12.0127 22.0702 13.2541V18.055C20.9807 17.8984 20.1404 16.9592 20.1404 15.8272C20.1404 15.8156 20.1397 15.8042 20.1386 15.793C20.1385 15.7906 20.1378 15.7882 20.1377 15.786C20.1365 15.7769 20.1351 15.768 20.1333 15.7593C20.1325 15.7567 20.1317 15.7541 20.1313 15.7515C20.1294 15.7432 20.1271 15.735 20.1244 15.727C20.1235 15.7241 20.1222 15.7212 20.1212 15.7182C20.1186 15.7107 20.1157 15.7034 20.1124 15.6962C20.1111 15.6928 20.1093 15.6897 20.1078 15.6866C20.1045 15.6799 20.1011 15.6732 20.0974 15.6668C20.0955 15.6635 20.0934 15.6601 20.0912 15.6566C20.0875 15.6507 20.0837 15.645 20.0797 15.6394C20.0772 15.6358 20.0746 15.6325 20.0719 15.6291C20.0678 15.6238 20.0635 15.6186 20.0587 15.6133C20.056 15.6102 20.0532 15.607 20.0502 15.604C20.0452 15.5988 20.0398 15.5938 20.0342 15.5887C20.0323 15.5869 20.0304 15.5849 20.0282 15.583L20.0262 15.5814C20.0189 15.5752 20.0114 15.5695 20.0035 15.5639L20.0002 15.5615C19.9816 15.5488 19.9616 15.5382 19.9406 15.5296C19.9406 15.5296 19.9368 15.5281 19.9348 15.5274C19.9266 15.5242 19.9181 15.5212 19.9095 15.5187C19.9064 15.5177 19.9033 15.517 19.9003 15.5162C19.8928 15.5143 19.8851 15.5125 19.8773 15.511C19.8734 15.5103 19.8693 15.5098 19.8654 15.5092C19.8586 15.5081 19.8517 15.5072 19.8447 15.5068C19.84 15.5063 19.8352 15.5061 19.8305 15.5059C19.8266 15.5058 19.8227 15.5054 19.819 15.5054C19.8162 15.5054 19.8137 15.5058 19.8113 15.5058C19.8064 15.5059 19.8015 15.5063 19.7966 15.5066C19.7899 15.507 19.7832 15.5077 19.7765 15.5084C19.7743 15.5088 19.7719 15.5088 19.7697 15.5092L14.2165 16.3668C14.0597 16.3911 13.9439 16.526 13.9439 16.6847V17.7568C13.9439 17.934 13.7997 18.0784 13.6224 18.0784C13.445 18.0784 13.3008 17.934 13.3008 17.7568V16.6847C13.3008 16.507 13.1569 16.3632 12.9791 16.3632H11.0494C10.8719 16.3632 10.7278 16.507 10.7278 16.6847V17.7568C10.7278 17.934 10.5836 18.0784 10.4062 18.0784C10.229 18.0784 10.0846 17.934 10.0846 17.7568V10.9621C10.639 10.8189 11.0495 10.3147 11.0495 9.71629V8.39747C11.7827 8.24808 12.336 7.59829 12.336 6.82172C12.336 6.64397 12.1921 6.50011 12.0143 6.50011C11.8367 6.50011 11.6927 6.64397 11.6927 6.82172C11.6927 7.3537 11.2599 7.78654 10.7279 7.78654C10.5503 7.78654 10.4063 7.93045 10.4063 8.10815V9.71625C10.4063 10.0709 10.1179 10.3595 9.763 10.3595C9.40834 10.3595 9.11978 10.071 9.11978 9.71629Z" fill="#1B1F3B"/>
</g>
<defs>
<clipPath id="clip0_964_43834">
<rect width="24" height="24" fill="white"/>
</clipPath>
</defs>
</svg>
