<svg width="24" height="24" viewBox="0 0 24 24" fill="none" xmlns="http://www.w3.org/2000/svg">
<path d="M6.58065 0H0.387097C0.173032 0 0 0.173419 0 0.387097V5.80645C0 6.02013 0.173032 6.19355 0.387097 6.19355H0.774194V21.2903C0.774194 22.7845 1.99006 24 3.48387 24C4.97768 24 6.19355 22.7845 6.19355 21.2903V6.19355H6.58065C6.79471 6.19355 6.96774 6.02013 6.96774 5.80645V0.387097C6.96774 0.173419 6.79471 0 6.58065 0ZM3.87097 5.41935V0.774194H4.64516V5.41935H3.87097ZM2.32258 5.41935V0.774194H3.09677V5.41935H2.32258ZM0.774194 0.774194H1.54839V5.41935H0.774194V0.774194ZM1.54839 9.29032H5.41935V19.3548H1.54839V9.29032ZM3.48387 23.2258C2.41665 23.2258 1.54839 22.3575 1.54839 21.2903V20.129H5.41935V21.2903C5.41935 22.3575 4.5511 23.2258 3.48387 23.2258ZM5.41935 8.51613H1.54839V6.19355H5.41935V8.51613ZM6.19355 5.41935H5.41935V0.774194H6.19355V5.41935Z" fill="#1B1F3B"/>
<path d="M3.8709 10.8387V10.0645H3.0967V10.8387H2.32251V11.6129H3.0967V12.3871H3.8709V11.6129H4.64509V10.8387H3.8709Z" fill="#1B1F3B"/>
<path d="M2.32251 13.9355H4.64509V14.7097H2.32251V13.9355Z" fill="#1B1F3B"/>
<path d="M2.32251 15.4839H4.64509V16.2581H2.32251V15.4839Z" fill="#1B1F3B"/>
<path d="M2.32251 17.0323H4.64509V17.8065H2.32251V17.0323Z" fill="#1B1F3B"/>
<path d="M14.7097 0.387097C14.7097 0.173419 14.5367 0 14.3226 0H8.12904C7.91498 0 7.74194 0.173419 7.74194 0.387097V5.80645C7.74194 6.02013 7.91498 6.19355 8.12904 6.19355H8.51614V21.2903C8.51614 22.7845 9.73201 24 11.2258 24C12.7196 24 13.9355 22.7845 13.9355 21.2903V6.19355H14.3226C14.5367 6.19355 14.7097 6.02013 14.7097 5.80645V0.387097ZM11.6129 5.41935V0.774194H12.3871V5.41935H11.6129ZM10.0645 5.41935V0.774194H10.8387V5.41935H10.0645ZM8.51614 0.774194H9.29033V5.41935H8.51614V0.774194ZM9.29033 9.29032H13.1613V19.3548H9.29033V9.29032ZM11.2258 23.2258C10.1586 23.2258 9.29033 22.3575 9.29033 21.2903V20.129H13.1613V21.2903C13.1613 22.3575 12.2931 23.2258 11.2258 23.2258ZM13.1613 8.51613H9.29033V6.19355H13.1613V8.51613ZM13.9355 5.41935H13.1613V0.774194H13.9355V5.41935Z" fill="#1B1F3B"/>
<path d="M11.6128 10.8387V10.0645H10.8386V10.8387H10.0645V11.6129H10.8386V12.3871H11.6128V11.6129H12.387V10.8387H11.6128Z" fill="#1B1F3B"/>
<path d="M10.0645 13.9355H12.387V14.7097H10.0645V13.9355Z" fill="#1B1F3B"/>
<path d="M10.0645 15.4839H12.387V16.2581H10.0645V15.4839Z" fill="#1B1F3B"/>
<path d="M10.0645 17.0323H12.387V17.8065H10.0645V17.0323Z" fill="#1B1F3B"/>
<path d="M19.355 5.03226C16.7935 5.03226 14.7098 7.116 14.7098 9.67742C14.7098 10.6452 15.0021 11.5634 15.5575 12.3488L14.7605 13.7435C14.6808 13.8828 14.6955 14.057 14.7973 14.1809C14.8724 14.2723 14.9831 14.3226 15.0969 14.3226C15.1375 14.3226 15.179 14.316 15.2192 14.3028L17.0343 13.6978C17.7415 14.107 18.5401 14.3226 19.355 14.3226C21.9164 14.3226 24.0001 12.2388 24.0001 9.67742C24.0001 7.116 21.9164 5.03226 19.355 5.03226ZM19.355 13.5484C18.6245 13.5484 17.9104 13.3401 17.289 12.9468C17.2263 12.907 17.1543 12.8868 17.082 12.8868C17.0409 12.8868 16.9995 12.8934 16.9597 12.9066L15.9358 13.248L16.3562 12.5125C16.4348 12.3751 16.4216 12.204 16.3232 12.0798C15.7743 11.3876 15.484 10.5569 15.484 9.67742C15.484 7.54297 17.2205 5.80645 19.355 5.80645C21.4894 5.80645 23.2259 7.54297 23.2259 9.67742C23.2259 11.8119 21.4894 13.5484 19.355 13.5484Z" fill="#1B1F3B"/>
<path d="M19.6846 6.76492C19.5441 6.53614 19.1659 6.53614 19.0254 6.76492L17.347 9.49085C16.963 10.1145 16.9297 10.8786 17.2583 11.5351C17.6055 12.23 18.2946 12.689 19.1009 12.7626C19.1841 12.7703 19.2685 12.7742 19.3548 12.7742C19.4412 12.7742 19.5255 12.7703 19.6092 12.7626C20.4155 12.689 21.1041 12.23 21.4517 11.5351C21.7804 10.879 21.7471 10.1149 21.3627 9.49085L19.6846 6.76492ZM20.7596 11.1887C20.5324 11.6423 20.076 11.9423 19.539 11.9919C19.4175 12.0027 19.2925 12.0027 19.171 11.9919C18.6337 11.9427 18.1777 11.6423 17.9504 11.1887C17.7398 10.7675 17.7603 10.2964 18.0065 9.89692L19.3548 7.70595L20.7035 9.89653C20.9497 10.2964 20.9702 10.7671 20.7596 11.1887Z" fill="#1B1F3B"/>
</svg>
