<svg width="24" height="24" viewBox="0 0 24 24" fill="none" xmlns="http://www.w3.org/2000/svg">
<path d="M9.2 9.60001C7.43352 9.60197 6.002 11.0335 5.99998 12.8V16.0001C5.99998 16.4419 5.64181 16.8001 5.20002 16.8001C4.75817 16.8001 4.4 16.4418 4.4 16.0001V10.8C4.4 10.1373 3.86277 9.60001 3.2 9.60001C2.53728 9.60001 2 10.1373 2 10.8V16C2 17.7673 3.43269 19.2 5.20002 19.2C6.96734 19.2 8.40003 17.7674 8.40003 16V12.8C8.40003 12.3581 8.7582 12 9.2 12C9.6418 12 10 12.3582 10 12.8V18C10 18.6628 10.5372 19.2 11.2 19.2C11.8627 19.2 12.4 18.6628 12.4 18V12.8C12.398 11.0335 10.9665 9.60197 9.2 9.60001ZM3.2 10.4C3.42092 10.4 3.59998 10.5791 3.59998 10.8V11.6H2.80002V10.8C2.80002 10.5791 2.97908 10.4 3.2 10.4ZM11.6 14.8H10.8V13.5999H11.6V14.8ZM11.2 18.4C10.9791 18.4 10.8 18.2209 10.8 18V15.6H11.6V18C11.6 18.2209 11.4209 18.4 11.2 18.4ZM10.8 12.8C10.8 11.9163 10.0837 11.2 9.20005 11.2C8.31641 11.2 7.60006 11.9163 7.60006 12.8V16C7.60006 17.3255 6.52555 18.4 5.20006 18.4C3.87458 18.4 2.80006 17.3255 2.80006 16V12.4H3.60003V16C3.60003 16.8837 4.31638 17.6 5.20006 17.6C6.0837 17.6 6.80005 16.8837 6.80005 16V12.8C6.80005 11.4745 7.87456 10.4 9.20005 10.4C10.5255 10.4 11.6 11.4745 11.6 12.8H10.8Z" fill="#1B1F3B"/>
<path d="M22.5948 15.7372L22.5908 15.7344C22.2752 15.3042 21.8958 14.9248 21.4656 14.6092L21.4628 14.6052C21.455 14.5991 21.4466 14.5937 21.438 14.5888C19.2243 12.9808 16.1418 13.372 14.4 15.482V7.50802C14.3978 6.67566 13.8803 5.93166 13.1008 5.64L11.2 4.92319V3.99998C11.6418 3.99998 12 3.64181 12 3.19997V1.99997C11.9987 0.895969 11.104 0.0013125 10 0H4.40002C3.29602 0.0013125 2.40136 0.895969 2.40005 2.00002V3.20002C2.40005 3.64186 2.75822 4.00003 3.20002 4.00003V4.92323L1.3012 5.63686C0.51975 5.92828 0.00117188 6.67402 0 7.50806V21.2001C0.00178125 22.7457 1.25438 23.9983 2.80003 24H11.6C12.8477 23.9978 13.9439 23.1713 14.2892 21.9724C14.5883 22.359 14.9401 22.7018 15.3344 22.9908L15.3372 22.9948C15.3451 23.0009 15.3534 23.0063 15.362 23.0112C17.428 24.5084 20.2756 24.2821 22.0793 22.4776C23.883 20.673 24.1078 17.8253 22.6096 15.76C22.6036 15.7528 22.6 15.7436 22.5948 15.7372ZM15.0204 21.6132L21.2132 15.4204C21.4186 15.5918 21.6082 15.7814 21.7796 15.9868L15.5868 22.1796C15.3814 22.0082 15.1918 21.8186 15.0204 21.6132ZM18.4 14.4C19.1503 14.3998 19.8879 14.5926 20.542 14.96L14.56 20.9424C13.7973 19.5805 13.8141 17.9163 14.6042 16.5702C15.3943 15.224 16.8391 14.398 18.4 14.4ZM13.2 18.8C13.2015 19.2043 13.2502 19.607 13.3453 20H0.800016V8.79998H13.6V16.8032C13.3357 17.4357 13.1997 18.1144 13.2 18.8ZM3.20002 2.00002C3.20002 1.3373 3.73725 0.800016 4.40002 0.800016H10C10.6628 0.800016 11.2 1.3373 11.2 2.00002V3.20002H3.20002V2.00002ZM10.4 3.99998V4.8H4.00003V3.99998H10.4ZM1.58081 6.38639L3.6728 5.60002H10.7272L12.8212 6.38761C13.2918 6.55852 13.6038 7.00734 13.6 7.50802V8.00002H0.800016L0.800063 7.50802C0.7965 7.0065 1.1093 6.55716 1.58081 6.38639ZM11.6 23.2H2.80003C1.69603 23.1987 0.801328 22.3041 0.800016 21.2V20.8H13.6V21.2C13.5987 22.304 12.704 23.1987 11.6 23.2ZM18.4 23.2C17.6498 23.2003 16.9122 23.0074 16.258 22.64L22.24 16.6576C23.0028 18.0194 22.986 19.6837 22.1959 21.0298C21.4058 22.376 19.9609 23.202 18.4 23.2Z" fill="#1B1F3B"/>
</svg>
