<svg width="64" height="64" viewBox="0 0 64 64" fill="none" xmlns="http://www.w3.org/2000/svg">
<path d="M8.56193 25.1502C11.3991 25.1502 13.6991 22.8504 13.6991 20.0131C13.6991 17.1759 11.3991 14.876 8.56193 14.876C5.72468 14.876 3.4248 17.176 3.4248 20.0131C3.42755 22.8491 5.72593 25.1475 8.56193 25.1502ZM8.56193 16.5884C10.4533 16.5884 11.9866 18.1217 11.9866 20.0131C11.9866 21.9045 10.4532 23.4377 8.56193 23.4377C6.67055 23.4377 5.13718 21.9044 5.13718 20.0131C5.13718 18.1217 6.67055 16.5884 8.56193 16.5884Z" fill="#311C11"/>
<path d="M7.70566 22.5824H9.41791V20.8701H11.1303V19.1577H9.41791V17.4453H7.70566V19.1577H5.99316V20.8701H7.70566V22.5824Z" fill="#311C11"/>
<path d="M25.6745 36.4196C25.6685 36.333 25.669 36.2913 25.6721 36.2737C25.666 36.2548 25.659 36.2325 25.6499 36.2017C25.605 36.0691 25.5989 36.0391 25.6304 36.109C25.5311 35.887 25.479 35.6532 25.4766 35.4247H23.9731C22.5545 35.4247 21.4046 36.5746 21.4046 37.9932V52.5483C21.4046 53.0211 21.0214 53.4046 20.5484 53.4046C20.0754 53.4046 19.6921 53.0212 19.6921 52.5483V37.9932C19.6921 35.6288 17.7755 33.7123 15.4111 33.7123C13.0469 33.7123 11.1302 35.6288 11.1302 37.9932V45.699C11.1302 46.1717 10.747 46.5552 10.274 46.5552C9.801 46.5552 9.41775 46.1718 9.41775 45.699V32H10.274C10.7469 32 11.1302 31.6167 11.1302 31.1437V28.5752H14.555C15.9736 28.5752 17.1235 27.4252 17.1235 26.0067V15.9443C17.1098 15.8213 17.1 15.697 17.097 15.5705C17.0925 15.3818 17.1024 15.1948 17.1235 15.0098V8.88295C17.1235 7.46433 15.9735 6.31445 14.555 6.31445H2.5685C1.15 6.31445 0 7.46433 0 8.88295V26.0067C0 27.4253 1.15 28.5752 2.5685 28.5752V52.5485H0.85625C0.383375 52.5485 0 52.9317 0 53.4047V56.8293C0 57.3022 0.38325 57.6856 0.85625 57.6856H12.8429C13.3157 57.6856 13.6991 57.3023 13.6991 56.8293V53.4047C13.6991 52.9318 13.3159 52.5485 12.8429 52.5485H4.281V28.5752H5.99337V31.1437C5.99337 31.6166 6.37663 32 6.84963 32H7.70587V45.699C7.70587 47.1176 8.85588 48.2676 10.2744 48.2676C11.6929 48.2676 12.8429 47.1176 12.8429 45.699V37.9932C12.8429 36.5746 13.9929 35.4247 15.4114 35.4247C16.83 35.4247 17.98 36.5746 17.98 37.9932V52.5483C17.98 53.967 19.13 55.117 20.5485 55.117C21.967 55.117 23.117 53.967 23.117 52.5483V37.9932C23.117 37.5205 23.5002 37.137 23.9732 37.137H25.6625C25.6777 36.8986 25.691 36.658 25.6745 36.4196ZM1.71238 8.88295C1.71238 8.41008 2.09562 8.0267 2.5685 8.0267H14.5551C15.028 8.0267 15.4113 8.40995 15.4113 8.88295V11.354C14.9643 11.2272 14.5445 11.0187 14.1733 10.7392C13.2989 10.0757 12.2279 9.72358 11.1304 9.7392C10.0324 9.7237 8.96075 10.0757 8.08575 10.7392C7.4935 11.215 6.75262 11.4671 5.99325 11.4516C5.234 11.4672 4.4935 11.215 3.90162 10.7392C3.2555 10.2606 2.50525 9.94133 1.71238 9.8077V8.88295ZM11.9866 54.2608V55.9731H1.71238V54.2608H11.9866ZM2.5685 26.8628C2.09562 26.8628 1.71238 26.4795 1.71238 26.0066V11.5491C2.15875 11.6763 2.57788 11.8847 2.94863 12.1638C3.82325 12.828 4.89512 13.18 5.99325 13.1638C7.09125 13.1793 8.16288 12.8273 9.03788 12.1638C9.63013 11.6882 10.371 11.4361 11.1304 11.4515C11.8901 11.4358 12.6311 11.688 13.2238 12.1638C13.8695 12.6421 14.619 12.9613 15.4113 13.0953V26.0067C15.4113 26.4796 15.028 26.863 14.5551 26.863H2.5685V26.8628ZM7.70575 30.2876V28.5752H9.41813V30.2876H7.70575Z" fill="#311C11"/>
<path d="M22.6045 6.18477V25.9106C22.6045 27.5063 23.6997 28.8508 25.1775 29.2328V47.3516C25.1775 48.47 25.8947 49.423 26.8927 49.7768V63.0175C26.8927 63.4915 27.2769 63.8754 27.7504 63.8754C28.2244 63.8754 28.608 63.4915 28.608 63.0175V49.7768C29.6064 49.423 30.3234 48.47 30.3234 47.3516V45.3506H33.7539V47.3516C33.7539 48.47 34.4714 49.423 35.4694 49.7768V63.0175C35.4694 63.4915 35.8535 63.8754 36.3269 63.8754C36.8009 63.8754 37.1844 63.4915 37.1844 63.0175V49.7768C38.1827 49.423 38.8997 48.47 38.8997 47.3516V45.2283L42.1266 44.7299C43.1884 47.8244 46.082 49.9248 49.4204 49.9248H51.9932V63.0176C51.9932 63.4916 52.3769 63.8755 52.8509 63.8755C53.3247 63.8755 53.7082 63.4916 53.7082 63.0176V47.0498C55.1247 48.8018 57.2891 49.9247 59.7117 49.9247H62.2847V63.0175C62.2847 63.4915 62.6685 63.8754 63.1424 63.8754C63.6164 63.8754 64 63.4915 64 63.0175V49.0669C64 48.5932 63.6164 48.2094 63.1424 48.2094H60.5695V43.9188C61.2867 44.4585 62.1775 44.7786 63.1424 44.7786C63.6164 44.7786 64 44.3946 64 43.9212V35.3448C64 31.0883 60.5372 27.626 56.2811 27.626H40.6149V18.192C40.6149 13.936 37.1526 10.4731 32.8961 10.4731V9.61552C32.8961 7.25077 30.9726 5.3274 28.6079 5.3274C28.1344 5.3274 27.7502 5.71102 27.7504 6.18502V10.4729H24.3197V6.18477C24.3197 5.71077 23.9361 5.32715 23.4621 5.32715C22.9885 5.32715 22.6044 5.71077 22.6045 6.18477ZM38.8996 18.1918V27.4784C37.9016 27.1243 37.1842 26.171 37.1842 25.0529V18.1918C37.1842 15.9449 36.2266 13.8766 34.6202 12.4415C37.0927 13.1844 38.8996 15.4808 38.8996 18.1918ZM60.5696 40.4906V35.3446C60.5696 33.0594 59.5709 31.0041 57.9872 29.5894C60.4691 30.3264 62.2849 32.6269 62.2849 35.3446V42.9165C61.2865 42.5624 60.5696 41.6086 60.5696 40.4906ZM43.8566 44.4623L51.9932 43.206V48.2093H49.4201C46.9306 48.2094 44.7589 46.7076 43.8566 44.4623ZM24.3197 25.9105V12.1883H28.6079C29.0819 12.1883 29.4655 11.8045 29.4655 11.3306V7.1894C30.4639 7.54352 31.1807 8.49727 31.1807 9.61527V11.8314C31.1807 12.1806 31.393 12.4953 31.7169 12.626C33.9961 13.5494 35.469 15.7341 35.469 18.1919V25.053C35.469 27.4174 37.393 29.3414 39.7572 29.3414H52.8507C56.1611 29.3414 58.8541 32.0344 58.8541 35.3448V48.147C55.9489 47.7294 53.7081 45.2249 53.7081 42.2061C53.7081 42.1753 53.7062 42.145 53.7034 42.115C53.703 42.1086 53.7011 42.1024 53.7007 42.0963C53.6976 42.072 53.694 42.0484 53.6891 42.0253C53.6871 42.0184 53.685 42.0114 53.6837 42.0043C53.6786 41.9823 53.6725 41.9604 53.6655 41.939C53.6629 41.9314 53.6596 41.9235 53.657 41.9156C53.6499 41.8956 53.6422 41.876 53.6335 41.8569C53.6299 41.8479 53.6252 41.8396 53.6212 41.8313C53.6124 41.8134 53.6034 41.7957 53.5934 41.7785C53.5882 41.7698 53.5827 41.7607 53.577 41.7513C53.5671 41.7356 53.5569 41.7205 53.5461 41.7054C53.5396 41.6959 53.5326 41.687 53.5255 41.678C53.5145 41.6638 53.5029 41.6499 53.4902 41.6359C53.4831 41.6277 53.4756 41.6191 53.4676 41.611C53.4542 41.5973 53.4399 41.5839 53.4249 41.5704C53.4197 41.5654 53.4146 41.5601 53.409 41.5551C53.4071 41.5534 53.4055 41.5525 53.4036 41.5509C53.384 41.5341 53.364 41.5191 53.343 41.5042C53.34 41.502 53.337 41.4999 53.3341 41.4977C53.2845 41.4639 53.2314 41.4355 53.1754 41.4127C53.1706 41.4104 53.1651 41.4087 53.1597 41.4068C53.1379 41.3984 53.1152 41.3903 53.0924 41.3837C53.084 41.3809 53.0759 41.379 53.0677 41.3769C53.0477 41.3718 53.0272 41.367 53.0065 41.363C52.996 41.3611 52.9852 41.3599 52.9746 41.3581C52.9566 41.3554 52.9382 41.353 52.9195 41.3519C52.9071 41.3505 52.8941 41.35 52.8816 41.3494C52.8712 41.3491 52.861 41.3482 52.8509 41.3482C52.8436 41.3482 52.837 41.3492 52.8304 41.3492C52.8174 41.3494 52.8044 41.3505 52.7914 41.3513C52.7734 41.3524 52.7556 41.3541 52.7376 41.3563C52.7319 41.3573 52.7255 41.3573 52.7196 41.3581L37.911 43.6453C37.4929 43.71 37.1841 44.0697 37.1841 44.493V47.3518C37.1841 47.8243 36.7996 48.2094 36.3266 48.2094C35.8536 48.2094 35.4691 47.8244 35.4691 47.3518V44.493C35.4691 44.0192 35.0855 43.6355 34.6114 43.6355H29.4655C28.992 43.6355 28.6079 44.0192 28.6079 44.493V47.3518C28.6079 47.8243 28.2234 48.2094 27.7502 48.2094C27.2776 48.2094 26.8926 47.8244 26.8926 47.3518V29.2326C28.3709 28.8508 29.4656 27.5061 29.4656 25.9105V22.3936C31.4207 21.9953 32.8962 20.2625 32.8962 18.1916C32.8962 17.7176 32.5126 17.334 32.0385 17.334C31.565 17.334 31.1809 17.7176 31.1809 18.1916C31.1809 19.6103 30.0267 20.7645 28.608 20.7645C28.1345 20.7645 27.7504 21.1483 27.7504 21.6221V25.9104C27.7504 26.856 26.9814 27.6256 26.035 27.6256C25.0892 27.6258 24.3197 26.8563 24.3197 25.9105Z" fill="#311C11"/>
</svg>
