<svg width="64" height="64" viewBox="0 0 64 64" fill="none" xmlns="http://www.w3.org/2000/svg">
<path d="M31.5938 46.1748V12.3936C30.9293 12.4264 30.2168 12.4997 29.4512 12.6235C25.8886 13.2046 17.8766 15.7161 17.8766 15.7161C17.8766 15.7161 14.9912 17.2523 12.3887 17.2523C11.5019 17.2523 10.6479 17.0754 9.95053 16.5979C9.88484 16.5474 9.82925 16.4968 9.76609 16.4463V24.5467C9.76609 24.5467 8.288 45.4371 31.3942 46.1774C31.4624 46.1748 31.5256 46.1748 31.5938 46.1748ZM30.1157 44.6285C23.981 44.199 19.241 42.1777 16.0145 38.6151C10.7591 32.8114 11.2366 24.7287 11.2416 24.6503L11.2442 24.5973V24.5467V18.6445C11.608 18.7026 11.9895 18.7329 12.3887 18.7329C15.024 18.7329 17.7983 17.414 18.4401 17.0906C19.4482 16.7773 26.5051 14.6018 29.6912 14.0839C29.8327 14.0611 29.9742 14.0384 30.1157 14.0207V44.6285Z" fill="#311C11"/>
<path d="M45.8236 13.8968C45.0277 13.9903 44.199 14.0282 43.3854 14.0282C40.2473 14.0282 37.2886 13.4547 36.8464 13.1767C36.4497 12.9291 35.4947 12.6057 34.0898 12.4541V46.1495C53.823 45.1489 46.1824 25.0974 46.1824 25.0974C46.1824 25.0974 44.8458 19.2836 45.8236 13.8968ZM44.444 39.9491C42.7613 42.5263 39.7799 44.065 35.5679 44.5476V14.2379C35.8358 14.3213 36.0025 14.3946 36.0606 14.4325C36.9601 14.9959 40.4519 15.5088 43.3829 15.5088C43.6279 15.5088 43.8705 15.5063 44.108 15.4987C43.6229 20.4964 44.6866 25.2111 44.7371 25.4335L44.7599 25.532L44.7953 25.6255C44.8332 25.714 48.0597 34.4183 44.444 39.9491Z" fill="#311C11"/>
<path d="M58.1056 0.977813C57.9212 0.267825 57.0899 0 55.9428 0C52.4661 0 46.0914 2.4559 46.0914 2.4559C46.0914 2.4559 42.9659 4.53786 31.5 4.53786C25.8807 4.53786 18.2578 4.03758 8.01227 2.54939C8.01227 2.54939 1.74113 9.28291 9.76829 15.7056C9.83145 15.7562 9.88704 15.8067 9.95273 15.8572C10.6501 16.3348 11.5041 16.5116 12.3909 16.5116C14.9959 16.5116 17.8788 14.9754 17.8788 14.9754C17.8788 14.9754 25.8934 12.4614 29.4559 11.8828C30.5702 11.7009 31.5834 11.6302 32.4803 11.6302C34.7796 11.6302 36.3208 12.1052 36.8489 12.4387C37.2911 12.7141 40.2498 13.2902 43.3879 13.2902C44.2015 13.2902 45.0277 13.2523 45.8261 13.1588C47.0894 13.0122 48.2795 12.7318 49.2345 12.2542C53.1129 10.3138 59.5862 8.27983 58.1056 0.977813ZM49.9774 10.2582C49.4872 10.4881 49.0097 10.7105 48.57 10.9303C47.8449 11.2916 46.8645 11.5468 45.6517 11.6883C44.9594 11.7691 44.1964 11.8096 43.3879 11.8096C40.5176 11.8096 38.044 11.3143 37.5589 11.14C36.7276 10.6549 34.9817 10.1521 32.4778 10.1521C31.4267 10.1521 30.3276 10.243 29.2159 10.425C25.5902 11.0137 17.7651 13.462 17.4316 13.5656L17.3002 13.6085L17.1815 13.6717C17.1562 13.6843 14.5816 15.0361 12.3884 15.0361C11.734 15.0361 11.211 14.9123 10.8295 14.6672L10.7992 14.6419L10.688 14.551C8.51002 12.8076 7.32755 10.9126 7.17342 8.92159C7.01171 6.81437 8.02743 5.0154 8.64393 4.1336C17.4367 5.38429 25.1227 6.01595 31.4975 6.01595C42.0412 6.01595 45.864 4.28267 46.7357 3.7925C48.5372 3.10778 53.3782 1.47809 55.9453 1.47809C56.342 1.47809 56.5795 1.51852 56.7134 1.55136C57.5396 6.31409 54.4344 8.17118 49.9774 10.2582Z" fill="#311C11"/>
<path d="M33.349 52.4049V46.1792V12.3929C33.0307 12.3752 32.6896 12.3702 32.3333 12.3727V46.1919V52.4074C29.8117 52.7687 27.8662 55.8007 27.6464 59.717H25.9131V63.9997H39.9613V59.717H38.0334C37.8161 55.7982 35.8731 52.7662 33.349 52.4049ZM32.8412 53.4762C34.9231 53.4762 36.6968 56.2656 36.9242 59.7145H28.7631C28.9855 56.2681 30.7592 53.4762 32.8412 53.4762ZM38.4857 62.5165H27.3937V61.1926H38.4857V62.5165Z" fill="#311C11"/>
</svg>
