<svg width="64" height="64" viewBox="0 0 64 64" fill="none" xmlns="http://www.w3.org/2000/svg">
<path d="M56.0166 14.2088L57.0515 12.3447L58.7635 13.2952L57.7286 15.1598L56.0166 14.2088Z" fill="#311C11"/>
<path d="M37.8818 4.13118L38.9183 2.2666L54.9167 11.1598L53.8802 13.0244L37.8818 4.13118Z" fill="#311C11"/>
<path d="M61.828 53.7051C61.854 53.5186 61.8665 53.3306 61.8665 53.1421C61.8665 50.7858 59.9561 48.8754 57.5999 48.8754C57.24 48.8764 56.8811 48.9238 56.5332 49.016V34.177L60.5863 34.9874C60.6566 35.002 60.728 35.0093 60.7998 35.0088C61.2889 35.0083 61.715 34.6749 61.8337 34.2004L62.9004 29.9338C62.9722 29.6437 62.9196 29.3369 62.7545 29.0874C62.5899 28.8385 62.328 28.6697 62.0332 28.6229L59.5368 28.226L55.7332 16.8125C55.6488 16.5599 55.4733 16.3479 55.2405 16.2182L32.5181 3.59531C32.1958 3.41615 31.8041 3.41615 31.4817 3.59531L8.76144 16.2192C8.52915 16.3489 8.3531 16.5609 8.26873 16.8135L4.46509 28.227L1.96927 28.6239C1.67395 28.6708 1.41198 28.8395 1.24739 29.0885C1.08229 29.338 1.02968 29.6447 1.10208 29.9348L2.16874 34.2015C2.30729 34.7536 2.8552 35.0994 3.41353 34.9874L7.46665 34.177V43.99C5.52394 44.8379 4.2677 46.7556 4.26666 48.8754C4.26874 49.6322 4.43384 50.3801 4.75103 51.0676C2.84426 51.2603 1.19166 52.4707 0.432291 54.2301C-0.327083 55.99 -0.0734372 58.0228 1.09427 59.542H0V61.6754H63.9998V59.542H63.4066C63.9905 58.5629 64.1514 57.3894 63.854 56.2889C63.5566 55.1889 62.8254 54.2566 61.828 53.7051ZM3.45051 30.5458L5.43592 30.226C5.82863 30.1635 6.15467 29.8874 6.28071 29.5104L10.1578 17.877L31.9999 5.74687L53.8421 17.8823L57.7191 29.5156C57.8452 29.8932 58.1712 30.1687 58.5639 30.2312L60.5493 30.551L60.016 32.7015L56.2827 31.9551L52.2124 19.7385C52.128 19.4854 51.9514 19.2729 51.7181 19.1432L32.5181 8.47655C32.1958 8.29738 31.8041 8.29738 31.4817 8.47655L12.2817 19.1432C12.0484 19.2729 11.8718 19.4854 11.7875 19.7385L7.71717 31.9504L3.98384 32.6973L3.45051 30.5458ZM9.59998 33.0494L13.6812 20.8072L31.9999 10.6291L50.3186 20.8072L54.3999 33.0494V50.3494C54.2092 50.565 54.0405 50.7983 53.8962 51.0473C52.1728 50.8259 50.4869 51.6692 49.6296 53.1806C49.4431 53.1551 49.2551 53.1421 49.0665 53.1421C46.7103 53.1421 44.7999 55.0525 44.7999 57.4087C44.8046 58.1598 45.0093 58.8962 45.3931 59.542H39.4666V42.4754H42.6666C43.2556 42.4754 43.7332 41.9978 43.7332 41.4088V37.1421C43.7332 36.553 43.2556 36.0754 42.6666 36.0754H21.3333C20.7442 36.0754 20.2666 36.553 20.2666 37.1421V41.4088C20.2666 41.9978 20.7442 42.4754 21.3333 42.4754H24.5333V59.542H18.1057C19.2734 58.0228 19.527 55.99 18.7677 54.2301C18.0088 52.4707 16.3557 51.2603 14.4489 51.0676C14.7661 50.3801 14.9312 49.6322 14.9333 48.8754C14.9297 45.9311 12.5442 43.5457 9.59998 43.5421V33.0494ZM37.3332 44.9285V57.0889L33.2801 51.0087L37.3332 44.9285ZM31.9999 49.0889L27.5926 42.4754H36.4072L31.9999 49.0889ZM22.3999 40.3421V38.2088H41.5999V40.3421H22.3999ZM30.7197 51.0087L26.6666 57.0889V44.9285L30.7197 51.0087ZM31.9999 52.9285L36.4072 59.542H27.5926L31.9999 52.9285ZM10.6666 56.3421C10.6666 54.5749 12.0994 53.1421 13.8666 53.1421C15.6338 53.1421 17.0666 54.5749 17.0666 56.3421C17.0666 58.1092 15.6338 59.542 13.8666 59.542C12.0994 59.542 10.6666 58.1092 10.6666 56.3421ZM9.62758 59.542H9.57237C9.58175 59.5301 9.59164 59.5207 9.59998 59.5087C9.60831 59.5207 9.61821 59.5301 9.62758 59.542ZM9.59998 45.6754C11.3672 45.6754 12.8 47.1082 12.8 48.8754C12.8 50.6426 11.3672 52.0754 9.59998 52.0754C7.83279 52.0754 6.39998 50.6426 6.39998 48.8754C6.39998 47.1082 7.83279 45.6754 9.59998 45.6754ZM2.13333 56.3421C2.13333 54.5749 3.56614 53.1421 5.33332 53.1421C7.1005 53.1421 8.53331 54.5749 8.53331 56.3421C8.53331 58.1092 7.1005 59.542 5.33332 59.542C3.56614 59.542 2.13333 58.1092 2.13333 56.3421ZM49.0665 59.542C48.2046 59.5457 47.4249 59.0301 47.0905 58.2353C46.7567 57.4405 46.9337 56.5228 47.54 55.9092C48.1457 55.2962 49.0613 55.1077 49.8603 55.4322C50.1421 55.5478 50.4608 55.5353 50.7327 55.3967C51.0051 55.2608 51.2066 55.015 51.2863 54.7207C51.4478 54.1374 51.8493 53.6494 52.3905 53.3785C52.9322 53.1077 53.5629 53.0785 54.1269 53.2988C54.4087 53.4145 54.7275 53.402 54.9993 53.2634C55.2717 53.1275 55.4733 52.8816 55.553 52.5874C55.7551 51.8207 56.3665 51.2306 57.1394 51.0556C57.9129 50.8806 58.7191 51.1504 59.2311 51.7551C59.7431 52.3603 59.8764 53.1999 59.5764 53.9337C59.4629 54.216 59.4754 54.5337 59.6113 54.8066C59.7467 55.079 59.9926 55.2811 60.2868 55.3608C61.3181 55.6374 61.9847 56.6358 61.8446 57.6941C61.7045 58.753 60.8009 59.5436 59.7332 59.542H49.0665Z" fill="#311C11"/>
<path d="M31.9996 30.7414C35.5345 30.7414 38.3996 27.8758 38.3996 24.3414C38.3996 20.8065 35.5345 17.9414 31.9996 17.9414C28.4652 17.9414 25.5996 20.8065 25.5996 24.3414C25.6033 27.8747 28.4663 30.7377 31.9996 30.7414ZM27.8845 25.4081H30.9329V28.4565C29.4402 28.0664 28.2746 26.9008 27.8845 25.4081ZM33.0663 28.4565V25.4081H36.1147C35.7246 26.9008 34.559 28.0664 33.0663 28.4565ZM36.1147 23.2747H33.0663V20.2263C34.559 20.6164 35.7246 21.782 36.1147 23.2747ZM30.9329 20.2263V23.2747H27.8845C28.2746 21.782 29.4402 20.6164 30.9329 20.2263Z" fill="#311C11"/>
<path d="M20.2666 23.2754H22.3999V25.4087H20.2666V23.2754Z" fill="#311C11"/>
<path d="M41.5996 23.2754H43.7329V25.4087H41.5996V23.2754Z" fill="#311C11"/>
</svg>
