<svg width="64" height="64" viewBox="0 0 64 64" fill="none" xmlns="http://www.w3.org/2000/svg">
<g clip-path="url(#clip0_778_57304)">
<path d="M30.1817 48.8267L22.7885 47.291C22.4476 47.2202 22.2004 46.9161 22.2004 46.5681V45.7447C23.7501 44.3767 24.7304 42.3776 24.7304 40.1529V37.2947H26.5805C27.2709 37.2947 27.8305 36.735 27.8305 36.0447C27.8305 35.3545 27.2709 34.7947 26.5805 34.7947H24.4815V30.5077C24.4815 28.5681 22.9035 26.9902 20.964 26.9902H20.9194C19.9799 26.9902 19.0966 27.3561 18.4322 28.0202C18.4322 28.0204 18.4321 28.0204 18.4321 28.0204C18.1159 28.3366 17.6954 28.5109 17.2481 28.5109C16.8009 28.5109 16.3804 28.3366 16.064 28.0204C15.3996 27.3561 14.5164 26.9902 13.5769 26.9902C11.6372 26.9902 10.0594 28.5681 10.0594 30.5077V34.7947H7.91962C7.22925 34.7947 6.66962 35.3545 6.66962 36.0447C6.66962 36.735 7.22925 37.2947 7.91962 37.2947H9.81038V40.1529C9.81038 42.3776 10.7905 44.3767 12.3404 45.7447V46.5671C12.3404 46.9154 12.0929 47.2195 11.7517 47.2901L4.32163 48.8285C1.8175 49.3469 0 51.5794 0 54.1365V62.7501C0 63.4404 0.559625 64.0001 1.25 64.0001H6.446H28.0093H33.25C33.9404 64.0001 34.5 63.4404 34.5 62.7501V54.1341C34.5 51.5786 32.6839 49.3465 30.1817 48.8267ZM5.196 61.5001H2.5V54.1365C2.5 52.7587 3.47925 51.5557 4.8285 51.2764L5.196 51.2002V61.5001ZM12.5592 30.5077C12.5592 29.9467 13.0157 29.4902 13.5767 29.4902C13.8486 29.4902 14.1041 29.5961 14.2963 29.7882C15.0848 30.5767 16.133 31.0109 17.248 31.0109C18.363 31.0109 19.4112 30.5766 20.1996 29.7884C20.392 29.5961 20.6475 29.4902 20.9193 29.4902H20.9639C21.5249 29.4902 21.9814 29.9466 21.9814 30.5077V34.7947H12.5592V30.5077ZM12.3103 40.1527V37.2946H22.2302V40.1527C22.2302 42.8877 20.0053 45.1127 17.2703 45.1127C14.5353 45.1127 12.3103 42.8877 12.3103 40.1527ZM12.2424 49.7414L12.2585 49.738C13.5489 49.4709 14.5322 48.4415 14.7786 47.1834C15.5584 47.4605 16.3966 47.6129 17.2703 47.6129C18.1438 47.6129 18.9821 47.4606 19.7617 47.1835C20.0035 48.419 20.9569 49.4324 22.2127 49.7217V53.2641C22.2127 53.9697 21.6388 54.5437 20.9331 54.5437H13.522C12.8164 54.5437 12.2424 53.9696 12.2424 53.2641V49.7414ZM26.7594 61.5001H7.696V50.6826L9.7425 50.2589V53.264C9.7425 55.3481 11.438 57.0436 13.5221 57.0436H20.9333C23.0174 57.0436 24.7129 55.3481 24.7129 53.264V50.2441L26.7594 50.6692V61.5001ZM32 61.5001H29.2593V51.1885L29.6734 51.2745C31.0215 51.5545 32 52.7571 32 54.1341V61.5001Z" fill="#311C11"/>
<path d="M59.6819 21.8366L52.2885 20.3008C51.9476 20.23 51.7004 19.926 51.7004 19.578V18.7546C53.2501 17.3866 54.2304 15.3875 54.2304 13.1628V10.3046H56.0805C56.7709 10.3046 57.3305 9.74487 57.3305 9.05462C57.3305 8.36437 56.7709 7.80463 56.0805 7.80463H53.9815V3.5175C53.9815 1.57787 52.4035 0 50.464 0H50.4194C49.4798 0 48.5965 0.365875 47.9321 1.03025C47.2792 1.683 46.2169 1.68313 45.5643 1.03038C44.8998 0.366 44.0164 0 43.0768 0C41.1371 0 39.5592 1.57787 39.5592 3.5175V7.80463H37.4196C36.7292 7.80463 36.1696 8.36437 36.1696 9.05462C36.1696 9.74487 36.7292 10.3046 37.4196 10.3046H39.3104V13.1628C39.3104 15.3875 40.2905 17.3866 41.8404 18.7546V19.577C41.8404 19.9252 41.5929 20.2292 41.2518 20.2999L33.8218 21.8384C31.3175 22.3566 29.5 24.589 29.5 27.1462V35.7599C29.5 36.4501 30.0596 37.0099 30.75 37.0099H35.946H57.5093H62.75C63.4404 37.0099 64 36.4501 64 35.7599V27.144C64 24.5885 62.1839 22.3565 59.6819 21.8366ZM34.696 34.5099H32V27.1462C32 25.7685 32.9792 24.5656 34.3285 24.2862L34.696 24.2101V34.5099ZM43.0768 2.5C43.3485 2.5 43.604 2.60588 43.7962 2.79813C45.4239 4.42562 48.0721 4.42562 49.6997 2.79813C49.892 2.60588 50.1475 2.5 50.4193 2.5H50.4639C51.0249 2.5 51.4814 2.95637 51.4814 3.5175V7.80463H42.0592V3.5175C42.0592 2.9565 42.5158 2.5 43.0768 2.5ZM41.8102 13.1628V10.3046H41.8104H51.7303V13.1628C51.7303 15.8977 49.5052 18.1227 46.7702 18.1227C44.0352 18.1227 41.8102 15.8977 41.8102 13.1628ZM41.7424 22.7512L41.7584 22.748C43.0489 22.4807 44.0323 21.4514 44.2786 20.1933C45.0584 20.4704 45.8966 20.6227 46.7702 20.6227C47.6437 20.6227 48.4821 20.4705 49.2617 20.1934C49.5035 21.4289 50.4569 22.4421 51.7127 22.7315V26.274C51.7127 26.9796 51.1388 27.5536 50.4331 27.5536H43.022C42.3164 27.5536 41.7424 26.9795 41.7424 26.274V22.7512ZM56.2594 34.5098H37.196V23.6925L39.2425 23.2687V26.2739C39.2425 28.358 40.938 30.0535 43.0221 30.0535H50.4333C52.5174 30.0535 54.2129 28.358 54.2129 26.2739V23.2539L56.2594 23.679V34.5098ZM61.5 34.5099H58.7593V24.1984L59.1734 24.2844C60.5215 24.5644 61.5 25.767 61.5 27.144V34.5099Z" fill="#311C11"/>
<path d="M41.3931 57.3963C41.2036 56.7325 40.512 56.3476 39.848 56.5379C39.8305 56.5429 39.8056 56.5508 39.7884 56.5563C39.1335 56.7746 38.7799 57.4823 38.998 58.1371C39.1725 58.6609 39.6605 58.9923 40.1839 58.9923C40.3098 58.9923 40.4376 58.9731 40.5638 58.9329C41.2096 58.7316 41.58 58.0503 41.3931 57.3963Z" fill="#311C11"/>
<path d="M57.4788 41.09C56.8402 40.828 56.11 41.133 55.8478 41.7716C53.5683 47.3246 49.3877 51.9362 44.0761 54.7571C43.4665 55.081 43.2346 55.8377 43.5583 56.4474C43.783 56.8702 44.2158 57.1114 44.6635 57.1114C44.8612 57.1114 45.0618 57.0644 45.2487 56.9651C51.0745 53.8711 55.6601 48.8125 58.1606 42.7211C58.4226 42.0824 58.1175 41.3521 57.4788 41.09Z" fill="#311C11"/>
<path d="M32.0159 3.75H32C31.3096 3.75 30.75 4.30975 30.75 5C30.75 5.69025 31.3096 6.25 32 6.25H32.0159C32.7063 6.25 33.2659 5.69025 33.2659 5C33.2659 4.30975 32.7063 3.75 32.0159 3.75Z" fill="#311C11"/>
<path d="M28.8552 5.15357C28.7436 4.47232 28.1012 4.01133 27.4198 4.12183C20.8831 5.1917 14.8961 8.56495 10.5615 13.6201C6.17913 18.7309 3.76562 25.2582 3.76562 31.9997C3.76562 32.69 4.32525 33.2497 5.01562 33.2497C5.706 33.2497 6.26562 32.69 6.26562 31.9997C6.26562 19.3201 15.3321 8.63345 27.8236 6.58908C28.5049 6.47745 28.9669 5.83482 28.8552 5.15357Z" fill="#311C11"/>
</g>
<defs>
<clipPath id="clip0_778_57304">
<rect width="64" height="64" fill="white"/>
</clipPath>
</defs>
</svg>
