<svg width="64" height="64" viewBox="0 0 64 64" fill="none" xmlns="http://www.w3.org/2000/svg">
<g clip-path="url(#clip0_778_57232)">
<path d="M6.53873 58.9291C6.98186 61.0177 8.43723 62.7475 10.4191 63.5415C12.4009 64.3355 14.6481 64.089 16.4107 62.8843C17.941 61.8503 19.8795 61.6275 21.6044 62.2879C24.9419 63.4663 28.4611 64.0458 32.0001 63.9999C35.5389 64.0474 39.0581 63.4697 42.3959 62.2933C44.121 61.6329 46.0599 61.8554 47.5906 62.8896C50.238 64.6986 53.8154 64.2694 55.9596 61.8854C58.1039 59.5015 58.1531 55.8986 56.0749 53.457C55.0826 52.3776 54.2995 51.1233 53.7655 49.7578C52.7544 46.7883 52.2477 43.6703 52.2667 40.5333V10.6666C52.2621 9.28865 51.3741 8.06915 50.0641 7.64152C49.6102 4.26302 46.572 1.84415 43.1777 2.1589C41.9657 0.791024 40.2275 0.00552364 38.4 2.36382e-05C36.8935 -0.00410136 35.4354 0.531774 34.2901 1.5104C32.8202 0.920524 31.1796 0.920524 29.7097 1.5104C28.5646 0.531774 27.1065 -0.00410136 25.6 2.36382e-05C23.3115 -0.00347636 21.1959 1.21715 20.0534 3.20002C17.3942 3.29877 15.0725 5.02965 14.2187 7.5499C12.7654 7.8829 11.7345 9.17565 11.7334 10.6668V40.5334C11.7525 43.6658 11.2477 46.7793 10.24 49.7451C9.70561 51.1144 8.92061 52.3723 7.92536 53.4539C6.63923 54.9653 6.12698 56.9876 6.53873 58.9291ZM20.2666 5.3334C20.306 5.33527 20.3452 5.3399 20.3839 5.34727C20.4586 5.3569 20.5332 5.36652 20.609 5.3729C21.065 5.4104 21.4942 5.1529 21.6756 4.7329C22.3442 3.1579 23.889 2.13477 25.5999 2.1334C26.786 2.13302 27.9174 2.63202 28.7167 3.5084C29.0461 3.86065 29.5709 3.94815 29.9967 3.72177C31.2379 3.0264 32.7514 3.0264 33.9925 3.72177C34.4196 3.9509 34.9477 3.86327 35.2777 3.5084C36.0782 2.63077 37.2121 2.1314 38.4 2.1334C39.7736 2.13965 41.0606 2.80552 41.8592 3.92327C42.1014 4.26115 42.5176 4.42765 42.9259 4.3499C45.1359 3.90702 47.3036 5.27952 47.8485 7.46677H16.5802C17.3421 6.15052 18.7459 5.33815 20.2666 5.3334ZM9.54773 54.8353C10.7055 53.5495 11.6212 52.065 12.2507 50.4534C13.3394 47.26 13.8856 43.907 13.8667 40.5334V10.6666C13.8667 10.0775 14.3444 9.5999 14.9335 9.5999H49.0667C49.6559 9.5999 50.1334 10.0775 50.1334 10.6666V40.5333C50.1154 43.9071 50.6626 47.2601 51.7526 50.4533C52.3699 52.0672 53.285 53.5506 54.4502 54.8265C55.3175 55.837 55.6585 57.1968 55.3706 58.4969V58.5044C55.0297 60.132 53.7639 61.4073 52.1387 61.7599C50.9835 62.0173 49.7732 61.7855 48.7947 61.1199C46.6904 59.6953 44.0242 59.3836 41.648 60.2846C38.5484 61.3686 35.2835 61.9039 32 61.8665C28.7175 61.905 25.4534 61.3711 22.3541 60.2889C21.4632 59.9549 20.5195 59.7836 19.568 59.7833C18.0119 59.78 16.4911 60.2474 15.2054 61.1241C14.2266 61.7924 13.0144 62.0241 11.8582 61.7641C10.4017 61.4352 9.22323 60.3689 8.75073 58.9525C8.27823 57.5361 8.58048 55.9758 9.54773 54.8383V54.8353Z" fill="#311C11"/>
<path d="M18.0809 56.6508C18.1407 57.1908 18.5968 57.5997 19.1402 57.6002C19.1797 57.6002 19.2193 57.5981 19.2586 57.5938C19.8423 57.529 20.2638 57.0045 20.2014 56.4205C19.9131 53.8117 18.6699 51.4018 16.7113 49.6546C16.4279 49.3962 16.0278 49.3097 15.6631 49.4281C15.2984 49.5463 15.0252 49.8515 14.9478 50.2271C14.8703 50.6026 15.0003 50.9907 15.2883 51.244C16.8543 52.6401 17.8489 54.5658 18.0809 56.6508Z" fill="#311C11"/>
<path d="M43.7981 56.416C43.7358 57 44.1573 57.5245 44.7411 57.5893C44.7807 57.5936 44.8207 57.5957 44.8606 57.5957C45.4035 57.5947 45.859 57.1861 45.9187 56.6463C46.1503 54.56 47.1448 52.6328 48.7112 51.2352C48.9993 50.9821 49.1293 50.5938 49.0518 50.2183C48.9743 49.8427 48.7012 49.5378 48.3365 49.4193C47.9718 49.301 47.5716 49.3873 47.2883 49.6458C45.3298 51.395 44.0867 53.8061 43.7981 56.416Z" fill="#311C11"/>
<path d="M21.3588 42.4677C21.3651 42.4751 21.3758 42.4782 21.3833 42.4867C24.1834 45.3327 28.0088 46.9355 32.0014 46.9355C35.994 46.9355 39.8194 45.3327 42.6195 42.4867C42.6259 42.4793 42.6344 42.4772 42.6409 42.4708C42.6473 42.4643 42.6461 42.4578 42.6504 42.4516C48.4079 36.5935 48.3534 27.1853 42.5286 21.3942C36.7038 15.603 27.2956 15.603 21.4709 21.3942C15.6461 27.1853 15.5916 36.5935 21.349 42.4516C21.3534 42.4538 21.3544 42.4613 21.3588 42.4677ZM23.972 41.9557C24.7725 41.616 25.6569 41.5257 26.5096 41.6966C27.629 41.944 28.8005 41.7506 29.781 41.1568C31.1478 40.3428 32.8505 40.3428 34.2173 41.1568C35.1978 41.7523 36.3701 41.9461 37.4899 41.6976C38.3425 41.5267 39.227 41.617 40.0275 41.9568C35.3478 45.7501 28.6518 45.7501 23.9721 41.9568V41.9557H23.972ZM31.9998 19.2005C37.0128 19.1928 41.5673 22.1166 43.6475 26.6776C45.7279 31.2385 44.9496 36.5945 41.6574 40.3748C40.2688 39.5537 38.6234 39.2812 37.044 39.6111C36.4576 39.7418 35.8434 39.6426 35.3279 39.3337C34.6456 38.9261 33.8925 38.6511 33.1081 38.5232C33.338 36.3255 33.905 34.1761 34.7891 32.1508C35.0211 32.2018 35.2578 32.2297 35.4953 32.2341C36.9626 32.2128 38.2991 31.385 38.9715 30.0805C39.7801 28.5518 39.4483 26.3397 39.0291 24.7621C38.9088 24.2923 38.5954 23.8953 38.1666 23.669C37.7378 23.4426 37.2333 23.4081 36.7775 23.5738C35.2319 24.1188 33.2213 25.0906 32.4096 26.6245C31.6285 28.0735 31.8338 29.8558 32.9236 31.0895C32.287 32.537 31.7836 34.0392 31.4196 35.5781C31.0026 34.9968 30.5749 34.4772 30.2154 34.0698C31.1331 32.8323 31.2525 31.1756 30.5215 29.8192C29.7119 28.2907 27.7013 27.319 26.1716 26.7802C25.7163 26.6091 25.2098 26.6392 24.7778 26.8628C24.3458 27.0865 24.029 27.4828 23.906 27.9536C23.4846 29.5397 23.153 31.752 23.9605 33.2783C24.6316 34.5852 25.9688 35.4156 27.4378 35.4372C27.7754 35.4316 28.1105 35.3776 28.433 35.2773C29.3461 36.2553 30.109 37.3635 30.6964 38.5658C29.981 38.7035 29.2953 38.9646 28.6698 39.3382C28.1544 39.6463 27.5406 39.7452 26.9545 39.6145C25.3754 39.2843 23.7298 39.5567 22.3411 40.3782C19.0468 36.5977 18.2674 31.2402 20.3481 26.6777C22.4289 22.1153 26.9854 19.1913 31.9998 19.2005ZM37.074 25.736C37.426 26.8222 37.4303 27.9912 37.0858 29.08C36.8733 29.6613 36.3426 30.0665 35.7258 30.1182C35.1089 30.17 34.5181 29.8588 34.2119 29.3211C33.9056 28.7833 33.9393 28.1165 34.2984 27.6123C35.0053 26.7126 35.9758 26.0566 37.074 25.736ZM28.6334 30.809C28.9959 31.3128 29.0321 31.9817 28.7261 32.5218C28.4201 33.062 27.8278 33.3747 27.2093 33.3227C26.5908 33.2707 26.0589 32.8635 25.8473 32.28C25.503 31.1911 25.5075 30.0221 25.8601 28.936C26.9565 29.2572 27.9258 29.9118 28.6334 30.809Z" fill="#311C11"/>
<path d="M30.9338 13.8668H33.0671C33.6562 13.8668 34.1337 13.3891 34.1337 12.8C34.1337 12.2109 33.6562 11.7334 33.0671 11.7334H30.9338C30.3447 11.7334 29.8672 12.2109 29.8672 12.8C29.8672 13.3891 30.3447 13.8668 30.9338 13.8668Z" fill="#311C11"/>
<path d="M24.5334 13.8668H26.6668C27.2558 13.8668 27.7334 13.3891 27.7334 12.8C27.7334 12.2109 27.2558 11.7334 26.6668 11.7334H24.5334C23.9443 11.7334 23.4668 12.2109 23.4668 12.8C23.4668 13.3891 23.9443 13.8668 24.5334 13.8668Z" fill="#311C11"/>
<path d="M18.133 13.8668H20.2664C20.8555 13.8668 21.333 13.3891 21.333 12.8C21.333 12.2109 20.8555 11.7334 20.2664 11.7334H18.133C17.544 11.7334 17.0664 12.2109 17.0664 12.8C17.0664 13.3891 17.544 13.8668 18.133 13.8668Z" fill="#311C11"/>
<path d="M43.7337 13.8668H45.867C46.4561 13.8668 46.9336 13.3891 46.9336 12.8C46.9336 12.2109 46.4561 11.7334 45.867 11.7334H43.7337C43.1446 11.7334 42.667 12.2109 42.667 12.8C42.667 13.3891 43.1446 13.8668 43.7337 13.8668Z" fill="#311C11"/>
<path d="M37.3332 13.8668H39.4666C40.0557 13.8668 40.5332 13.3891 40.5332 12.8C40.5332 12.2109 40.0557 11.7334 39.4666 11.7334H37.3332C36.7442 11.7334 36.2666 12.2109 36.2666 12.8C36.2666 13.3891 36.7442 13.8668 37.3332 13.8668Z" fill="#311C11"/>
</g>
<defs>
<clipPath id="clip0_778_57232">
<rect width="64" height="64" fill="white"/>
</clipPath>
</defs>
</svg>
