<svg width="64" height="64" viewBox="0 0 64 64" fill="none" xmlns="http://www.w3.org/2000/svg">
<g clip-path="url(#clip0_778_57338)">
<path d="M63.9999 10.6141L57.835 0.749023L48.5801 6.39837C46.5333 7.6472 45.2625 9.91122 45.2625 12.3087C45.2625 13.5122 45.5774 14.6998 46.1756 15.7444L48.3525 19.5526L48.4167 19.6527C51.0245 23.192 52.4038 27.3684 52.4038 31.7305C52.4038 42.9814 43.2506 52.1341 32.0002 52.1341C20.7493 52.1341 11.5966 42.9814 11.5966 31.7305C11.5966 27.3684 12.9759 23.192 15.5842 19.6527L17.8258 15.7444C18.4225 14.6998 18.7378 13.5122 18.7378 12.3087C18.7378 9.91122 17.4666 7.6472 15.4213 6.39837L6.16492 0.749023L0 10.6141L5.62444 14.2908C2.18631 19.4744 0.374597 25.4819 0.374597 31.7305C0.374597 49.1697 14.562 63.3561 32.0002 63.3561C49.4379 63.3561 63.6258 49.1697 63.6258 31.7305C63.6258 25.4819 61.8136 19.4744 58.3759 14.2908L63.9999 10.6141ZM61.5854 31.7305C61.5854 48.0435 48.3136 61.3158 32.0002 61.3158C15.6863 61.3158 2.41496 48.0435 2.41496 31.7305C2.41496 25.5537 4.30737 19.6303 7.88697 14.5997L8.50217 13.7349L2.78906 9.99989L6.82594 3.54207L14.3582 8.13985C15.8003 9.02055 16.6975 10.6181 16.6975 12.3087C16.6975 13.1571 16.4748 13.9949 16.0534 14.7327L13.9059 18.4906C11.0596 22.3726 9.55622 26.9489 9.55622 31.7305C9.55622 44.1067 19.624 54.1745 32.0002 54.1745C44.3759 54.1745 54.4442 44.1067 54.4442 31.7305C54.4442 26.9489 52.9403 22.3726 50.0939 18.4896L47.9465 14.7317C47.5251 13.9949 47.3029 13.1571 47.3029 12.3087C47.3029 10.6181 48.1995 9.02055 49.6421 8.13985L57.1739 3.54207L61.2108 9.99989L55.4977 13.7349L56.1129 14.5997C59.693 19.6303 61.5854 25.5537 61.5854 31.7305Z" fill="#311C11"/>
<path d="M51.4062 46.6597L53.0222 47.905C53.8486 46.833 54.5973 45.6903 55.2479 44.5102L53.4606 43.5254C52.8608 44.6153 52.1694 45.6689 51.4062 46.6597Z" fill="#311C11"/>
<path d="M53.1055 19.3227C53.7411 20.4007 54.296 21.532 54.7568 22.6871L56.6512 21.932C56.1526 20.6801 55.5508 19.4532 54.8629 18.2871L53.1055 19.3227Z" fill="#311C11"/>
<path d="M55.3154 39.2288L57.2577 39.852C57.6696 38.5678 57.9869 37.2398 58.1981 35.9033L56.1822 35.585C55.9884 36.8173 55.697 38.0433 55.3154 39.2288Z" fill="#311C11"/>
<path d="M56.4705 30.9064L58.5099 30.8386C58.465 29.4852 58.3161 28.1263 58.067 26.8027L56.0615 27.1793C56.2922 28.4017 56.4296 29.6556 56.4705 30.9064Z" fill="#311C11"/>
<path d="M8.73926 44.4843C9.38932 45.6659 10.137 46.8096 10.9614 47.8826L12.5794 46.6392C11.8172 45.6474 11.1263 44.5929 10.5276 43.502L8.73926 44.4843Z" fill="#311C11"/>
<path d="M7.94303 27.156L5.93804 26.7754C5.68748 28.0994 5.53604 29.4573 5.49121 30.8103L7.53058 30.8795C7.57242 29.6297 7.7114 28.3774 7.94303 27.156Z" fill="#311C11"/>
<path d="M5.79688 35.8749C6.00609 37.2104 6.32091 38.5399 6.73237 39.8271L8.6756 39.2059C8.29502 38.0184 8.00461 36.791 7.81183 35.5586L5.79688 35.8749Z" fill="#311C11"/>
<path d="M10.9066 19.2998L9.15021 18.2617C8.46129 19.4254 7.85855 20.6518 7.35742 21.9046L9.25183 22.6617C9.7141 21.5066 10.271 20.3743 10.9066 19.2998Z" fill="#311C11"/>
<path d="M32.0006 36.8314C30.8754 36.8314 29.9603 35.9163 29.9603 34.791H27.9199C27.9199 36.6879 29.2255 38.271 30.9805 38.7273V40.9121H33.0208V38.7273C34.7753 38.271 36.0814 36.6879 36.0814 34.791C36.0814 32.5404 34.2512 30.7103 32.0006 30.7103C30.8754 30.7103 29.9603 29.7952 29.9603 28.6699C29.9603 27.5446 30.8754 26.6295 32.0006 26.6295C33.1259 26.6295 34.041 27.5446 34.041 28.6699H36.0814C36.0814 26.7735 34.7753 25.1904 33.0208 24.7341V22.5488H30.9805V24.7341C29.2255 25.1904 27.9199 26.7735 27.9199 28.6699C27.9199 30.9205 29.7501 32.7506 32.0006 32.7506C33.1259 32.7506 34.041 33.6657 34.041 34.791C34.041 35.9163 33.1259 36.8314 32.0006 36.8314Z" fill="#311C11"/>
<path d="M32.0003 49.0738C41.5635 49.0738 49.3434 41.294 49.3434 31.7308C49.3434 22.1676 41.5635 14.3877 32.0003 14.3877C22.4371 14.3877 14.6572 22.1676 14.6572 31.7308C14.6572 41.294 22.4371 49.0738 32.0003 49.0738ZM16.7494 32.7509H18.7898C19.2874 39.2496 24.4814 44.4432 30.9801 44.9413V46.9817C23.3572 46.4756 17.2555 40.3749 16.7494 32.7509ZM32.0003 20.5088C38.1876 20.5088 43.2223 25.5434 43.2223 31.7308C43.2223 37.9181 38.1876 42.9527 32.0003 42.9527C25.8125 42.9527 20.7783 37.9181 20.7783 31.7308C20.7783 25.5434 25.8125 20.5088 32.0003 20.5088ZM33.0205 46.9817V44.9413C39.5186 44.4432 44.7127 39.2496 45.2103 32.7509H47.2507C46.7446 40.3749 40.6429 46.4756 33.0205 46.9817ZM47.2507 30.7106H45.2103C44.7127 24.2124 39.5186 19.0184 33.0205 18.5207V16.4804C40.6429 16.9865 46.7446 23.0871 47.2507 30.7106ZM30.9801 16.4804V18.5207C24.4814 19.0184 19.2874 24.2124 18.7898 30.7106H16.7494C17.2555 23.0871 23.3572 16.9865 30.9801 16.4804Z" fill="#311C11"/>
</g>
<defs>
<clipPath id="clip0_778_57338">
<rect width="64" height="64" fill="white"/>
</clipPath>
</defs>
</svg>
