<svg width="64" height="64" viewBox="0 0 64 64" fill="none" xmlns="http://www.w3.org/2000/svg">
<g clip-path="url(#clip0_778_57247)">
<path d="M10.4344 38.9423C4.66165 38.9423 -0.0380859 43.642 -0.0380859 49.4148C-0.0380859 55.1876 4.66165 59.8895 10.4344 59.8895C16.2072 59.8895 20.9091 55.1876 20.9091 49.4148C20.9091 43.642 16.2072 38.9423 10.4344 38.9423ZM10.4344 41.2698C14.9486 41.2698 18.5795 44.9007 18.5795 49.4148C18.5795 53.929 14.9486 57.5578 10.4344 57.5578C5.92031 57.5578 2.28938 53.929 2.28938 49.4148C2.28938 44.9007 5.91818 41.2698 10.4344 41.2698ZM6.16778 39.0554C6.22111 39.034 6.27871 39.017 6.33418 39.0084C6.25951 38.9018 6.15925 38.8292 6.12511 38.697C5.96298 38.0804 5.82431 37.4468 5.78165 36.8175C5.63658 34.7652 6.09738 32.7834 6.58591 30.8122C6.70965 30.3215 6.87818 29.8394 7.05311 29.2698C6.89098 29.5023 6.71178 29.7327 6.65205 29.9908C6.32778 31.3882 6.02485 32.7919 5.78378 34.2042C5.65151 34.97 5.59391 35.7594 5.61951 36.5359C5.64511 37.2484 5.77951 37.9652 5.95871 38.6543C5.99498 38.793 6.07391 38.9252 6.16778 39.0554ZM63.1918 22.01C61.9673 22.7055 60.683 22.6116 59.4094 22.1615C58.3043 21.7732 57.4681 20.4399 58.1678 19.1194C58.6051 18.3087 59.1598 17.5492 59.7465 16.8346C60.6638 15.7167 61.1395 14.4495 61.1758 13.0223C61.2057 11.8618 60.6403 10.8996 59.8979 10.0804C58.859 8.92416 57.5576 8.1711 56.011 7.8447C54.8227 7.5951 53.643 7.54176 52.4398 7.65696C51.3283 7.7615 50.3086 8.1199 49.2995 8.55083C48.4206 8.93056 47.9491 9.3039 48.3075 10.5135C48.6894 11.8127 48.8494 13.1268 48.5742 14.4879C48.1795 16.4527 47.4691 18.2404 46.0782 19.7252C44.9326 20.9455 43.5352 21.7434 41.9288 22.1274C40.924 22.3663 39.8787 22.4282 38.8568 22.5711C37.2931 22.7887 35.7272 22.6628 34.2041 22.3364C32.6488 22.0036 31.1598 21.4148 29.7432 20.6788C28.5998 20.0836 27.6526 19.2218 27.3347 17.9908C26.9336 16.4292 26.7779 14.8015 26.5454 13.1972C26.4024 12.2095 26.3662 11.2047 26.1912 10.2234C25.7518 7.7423 24.5955 5.68576 22.4835 4.23083C20.0088 2.52416 17.3464 1.97163 14.3939 2.7823C11.8019 3.4927 9.80938 4.96256 8.30538 7.14923C8.08565 7.46923 8.11978 7.48416 7.91925 7.81696C8.00245 7.82763 8.06005 7.82123 8.10911 7.8255C8.41205 7.43936 8.41631 7.45003 8.70645 7.05323C9.45311 6.03136 10.2808 5.07563 11.4136 4.48896C13.355 3.4799 15.42 2.95723 17.6387 3.22603C19.8638 3.49483 21.6984 4.39083 23.1043 6.23403C24.3459 7.86816 24.7427 9.71776 24.9368 11.6634C25.0563 12.8538 24.8942 14.0186 24.4184 15.1215C24.1731 15.689 23.947 16.2863 23.5864 16.7834C22.6648 18.0548 21.4488 18.9935 20.011 19.6378C19.6632 19.7935 19.3283 19.9748 18.987 20.1434C19.004 20.1775 19.019 20.2138 19.0318 20.2479C19.0915 20.2394 19.1534 20.2351 19.2088 20.218C19.8958 20.0068 20.5763 19.7551 21.2718 19.5844C22.2382 19.3498 23.211 19.0959 24.1987 18.9956C25.2163 18.8932 26.0355 19.4436 26.7971 20.0879C27.4328 20.6212 28.0686 21.178 28.7832 21.5876C30.9998 22.857 33.4446 23.3242 35.9619 23.3946C37.0243 23.4244 38.1038 23.3263 39.1662 23.2367C40.7107 23.1044 42.1955 22.7567 43.5907 22.0698C44.4291 21.6602 45.3486 21.5514 46.1998 21.7882C47.5779 22.1764 48.7022 23.1066 49.5576 24.2223C50.7374 25.7668 51.2984 27.5695 51.2622 29.545C51.2494 30.5434 50.9081 31.3946 50.1912 32.0772C49.6281 32.6191 49.0158 33.1034 48.4505 33.6367C47.8723 34.1786 47.2899 34.729 47.1427 35.5588C46.9486 36.6575 47.0275 37.737 47.4542 38.746C47.6568 39.2346 47.9427 39.7679 48.348 40.0623C49.0243 40.538 49.8136 40.8964 50.6008 41.1759C51.1811 41.3956 51.6142 41.6111 51.6803 42.3023C51.7187 42.7204 51.6014 43.0383 51.1939 43.1386C49.7411 43.5012 48.4824 44.2436 47.2003 44.9903C45.2803 46.1359 43.5459 47.5055 42.091 49.1972C41.3656 50.0484 40.8536 51.0938 40.2563 52.0516C39.5843 53.1332 39.2216 54.2959 39.3241 55.5716C39.3646 55.994 39.1406 56.2884 38.859 56.5466C38.6521 56.7343 38.4088 56.8708 38.187 57.0372C37.7198 57.37 37.5299 57.865 37.724 58.4175C37.8499 58.7588 38.0504 59.0746 38.2915 59.5204C37.82 59.546 37.404 59.5652 36.8963 59.5866C37.067 58.7268 37.2057 57.978 37.3678 57.2356C37.7859 55.3839 38.6222 53.705 39.4883 52.0346C40.1923 50.6884 41.1672 49.5236 42.0888 48.3247C43.196 46.8634 44.5273 45.6388 45.931 44.4975C46.4985 44.0346 47.1299 43.6527 47.723 43.2218C47.8105 43.1599 47.8638 43.0468 47.9193 42.985C47.307 42.857 46.7438 42.7439 46.1827 42.6415C44.811 42.3962 43.5608 41.8095 42.379 41.1439C40.9539 40.3375 39.9747 39.0639 39.3411 37.5514C38.9315 36.5722 38.6734 35.5503 38.8504 34.4836C38.9763 33.7668 39.1747 33.0607 39.3731 32.3567C39.8318 30.6991 40.0387 29.0458 39.3496 27.3903C39.1128 26.8122 38.7992 26.2767 38.3256 25.8479C38.3512 26.0591 38.4088 26.2532 38.507 26.4239C38.9187 27.1812 39.0296 28.0068 38.9955 28.8431C38.9315 30.3535 38.5624 31.7956 37.8243 33.1247C37.6259 33.4767 37.5257 33.8458 37.1992 34.1636C35.691 35.6228 33.8542 36.2052 31.836 36.3098C29.7859 36.4164 27.7699 36.1348 25.8072 35.5055C25.6835 35.4628 25.515 35.4799 25.4339 35.401C24.8131 34.8015 24.2307 34.185 23.8296 33.3914C23.2344 32.2052 23.0744 30.9487 23.228 29.673C23.3774 28.4292 23.9214 27.3114 24.6766 26.3066C24.7 26.2746 24.6851 26.2106 24.6936 26.0698C24.1368 26.5284 23.6952 26.97 23.3582 27.5183C22.5795 28.7812 22.2275 30.121 22.3299 31.6292C22.411 32.826 22.7246 33.9183 23.2899 34.9423C23.9875 36.2074 24.4184 37.5023 24.3054 38.9828C24.2094 40.1988 24.2819 41.4276 24.1923 42.6522C24.0984 43.9236 23.9448 45.1866 23.7315 46.441C23.5224 47.6506 23.2323 48.8538 22.9315 50.042C22.6542 51.1514 22.3171 52.2394 22.0035 53.3359C22.0696 52.7343 22.2083 52.1412 22.3064 51.5524C22.4494 50.6458 22.635 49.7412 22.6819 48.8388C22.795 46.7226 22.588 44.6255 22.1315 42.5476C21.8456 41.2484 21.4062 40.026 20.8259 38.8591C20.1496 37.4916 19.2366 36.2948 18.2638 35.1194C17.1246 33.7412 16.1112 32.2564 14.9806 30.8676C13.5192 29.0756 13.1736 27.0191 13.3678 24.8068C13.3763 24.7236 13.4339 24.6191 13.5022 24.5722C14.2488 24.0687 14.9976 23.5674 15.755 23.0788C15.9619 22.9444 16.1987 22.8548 16.5208 22.6991C16.3459 22.6586 16.299 22.6308 16.2712 22.6458C15.196 23.1599 14.1187 23.6698 13.0542 24.2052C12.9198 24.2735 12.8003 24.4655 12.7704 24.6191C12.6446 25.2122 12.5592 25.8116 12.4483 26.4836C12.2947 24.6831 12.8003 23.1322 13.9118 21.8074C14.7608 20.7919 15.6974 19.849 16.5848 18.8634C17.7432 17.5706 18.347 16.0495 18.2851 14.3108C18.268 13.6964 18.14 13.0948 17.7027 12.5786C16.9006 11.6378 15.8702 11.4692 14.748 11.6548C14.2424 11.738 13.8115 12.0495 13.5747 12.553C13.6643 12.7492 13.7518 12.9455 13.8392 13.1418C13.948 13.0692 14.0803 13.0159 14.155 12.9156C14.908 11.9386 16.747 12.1434 17.2078 13.2783C17.5107 14.0314 17.6323 14.8079 17.4062 15.6292C17.0542 16.9092 16.4334 18.0335 15.5886 19.0468C14.7182 20.09 13.6579 20.8772 12.3992 21.3978C12.2008 21.4788 11.9619 21.6388 11.8915 21.8223C11.3347 23.2559 11.2835 24.7428 11.5331 26.249C11.6995 27.2559 12.0195 28.2052 12.6915 29.178C12.3246 29.178 12.0451 29.2548 11.8403 29.1652C11.1278 28.8495 10.4195 28.5103 9.74965 28.1114C8.79605 27.5439 7.95978 26.8399 7.52031 25.769C7.41151 25.5044 7.22378 25.5407 7.00831 25.6346C6.63285 25.7988 6.24885 25.9354 5.87978 26.106C5.79231 26.1466 5.71765 26.2767 5.68991 26.3791C5.55765 26.9018 5.45098 27.4287 5.33151 27.9535C4.73631 30.5263 4.49525 33.1119 4.74911 35.7572C4.86858 36.9882 5.14378 38.1722 5.49365 39.3348C5.60458 39.2879 5.71125 39.2175 5.82858 39.1684C5.68138 38.6671 5.53418 38.1508 5.39765 37.6388C5.31658 37.3295 5.26965 37.0031 5.27818 36.6959C5.31871 35.2388 5.27605 33.7818 5.47445 32.3524C5.65365 31.0532 6.06538 29.7775 6.44511 28.5146C6.68831 27.6996 7.05951 26.921 7.39871 26.0612C7.66965 26.4047 7.88298 26.7162 8.13471 26.9871C9.01578 27.9322 10.0888 28.6191 11.2472 29.1652C11.6867 29.3722 12.1816 29.5599 12.6872 29.2186C13.451 30.3812 14.3256 31.4522 15.3368 32.41C15.7912 32.841 16.2094 33.2996 16.6531 33.7434C16.9262 34.0143 17.1096 34.3556 16.8515 34.6607C16.6958 34.8378 16.3054 34.9316 16.0494 34.8847C14.0419 34.5519 12.188 33.7988 10.556 32.5807C9.53418 31.8191 8.70858 30.8506 7.95125 29.8244C7.74431 29.545 7.43925 29.3359 7.18111 29.0948C7.15551 29.1354 7.12778 29.1738 7.10005 29.2122C7.21951 29.3572 7.26858 29.4127 7.30698 29.4682C7.43925 29.6644 7.58218 29.8543 7.69525 30.0612C8.48458 31.5076 9.64511 32.6148 10.9379 33.594C12.6104 34.8655 14.5432 35.5695 16.5678 36.0111C17.5086 36.2223 18.3512 36.5914 19.1256 37.1332C19.4734 37.37 19.7998 37.69 20.0451 38.0356C20.747 39.0362 21.2142 40.1562 21.6131 41.3039C21.9736 42.3407 21.9971 43.3284 21.227 44.186C20.8472 44.6127 20.9603 45.0031 21.1843 45.3999C21.7048 46.3215 21.8712 47.3284 21.9118 48.3567C21.98 50.1764 21.8456 51.9791 21.4936 53.7647C21.1992 55.2452 20.8302 56.7087 19.9128 57.9674C19.5438 58.4687 19.1811 58.9978 18.5496 59.13C17.6856 59.305 17.2974 59.9172 16.939 60.6063C16.8195 60.8282 16.9006 60.9732 17.084 61.0458C17.8392 61.353 18.6051 61.449 19.3944 61.161C19.7848 61.0138 19.8766 60.7514 19.8104 60.3738C19.6675 59.5418 20.1454 58.5178 20.8472 58.0804C21.3507 57.769 21.8435 57.434 22.3278 57.0927C22.7054 56.826 22.7331 56.5722 22.5262 56.1306C22.14 55.3028 21.9182 54.4474 22.1742 53.5428C22.5198 52.3418 22.9379 51.1514 23.2579 49.9418C23.7912 47.9151 24.299 45.8842 24.7555 43.8426C24.9774 42.8612 25.067 41.8458 25.1971 40.8474C25.3507 39.6463 25.4787 38.4474 25.6366 37.2484C25.6472 37.1695 25.82 37.0436 25.9118 37.05C27.1875 37.1247 28.4568 37.274 29.7304 37.2911C30.8419 37.3146 31.9704 37.2463 33.0691 37.0842C34.3235 36.8986 35.5544 36.5658 36.796 36.2948C37.0094 36.25 37.2419 36.2159 37.2846 36.5039C37.4296 37.4404 37.9438 38.1956 38.4814 38.9487C40.1262 41.242 42.3555 42.5391 45.1395 42.921C45.8734 43.0255 46.603 43.1194 47.3795 43.226C47.2856 43.3028 47.2216 43.3604 47.1576 43.4031C45.5342 44.5572 43.9939 45.7967 42.684 47.3263C41.3742 48.8708 40.1497 50.4602 39.2067 52.2586C38.4025 53.786 37.66 55.3434 37.2057 57.018C36.9817 57.8586 36.7384 58.6906 36.5635 59.5503C36.4483 60.0986 36.4291 60.6682 36.3971 61.2335C36.3886 61.3572 36.523 61.4852 36.5806 61.6026C36.8003 61.4959 36.9817 61.4276 37.1374 61.321C37.5278 61.0564 37.9417 60.8154 38.2723 60.4847C38.7566 60.0218 38.7608 59.7018 38.3726 59.1919C37.9267 58.6074 37.931 57.978 38.2723 57.3999C38.4707 57.0842 38.8654 56.8772 39.2024 56.6554C39.627 56.3759 39.8702 56.0388 39.7571 55.514C39.612 54.8655 39.6867 54.2426 39.9171 53.6431C40.7918 51.3967 42.2275 49.5727 44.0515 48.0388C45.5598 46.7674 47.2387 45.7711 49.0307 44.9711C49.7752 44.6426 50.5646 44.4228 51.3219 44.1498C51.7016 44.0154 52.0771 43.8831 52.4334 43.7551C52.4398 43.849 52.4334 44.0132 52.4632 44.1775C52.4995 44.3524 52.5486 44.5274 52.5977 44.7023C53.1374 46.6116 53.4595 48.5551 53.4211 50.5263C53.3891 51.7082 53.1609 52.8836 52.9347 54.0506C52.6168 55.7636 51.8851 57.2932 50.667 58.5391C50.4025 58.8143 49.9992 59.0084 49.6366 59.1172C49.0457 59.29 48.2734 60.0474 48.1688 60.7663C48.7705 60.8708 49.3699 61.033 49.9843 61.0564C51.2024 61.1012 51.3624 60.9178 51.3624 59.7146C51.3539 59.1492 51.5502 58.6991 52.0302 58.4026C52.459 58.1274 52.8984 57.8628 53.3315 57.5876C53.7539 57.3146 53.9054 56.9455 53.8094 56.4506C53.7475 56.1391 53.6131 55.8148 53.6558 55.5162C53.7731 54.5967 53.9459 53.6879 54.1017 52.7706C54.2808 51.738 54.4878 50.7034 54.6435 49.6687C54.7651 48.9156 54.8334 48.1562 54.9144 47.3967C55.0296 46.4047 55.1811 45.4106 55.2152 44.4186C55.2494 43.5866 55.1705 42.7482 55.0574 41.9204C54.9955 41.4575 54.8654 40.937 54.5923 40.5828C54.0035 39.8084 53.1673 39.3327 52.1987 39.1151C51.8659 39.0468 51.5395 38.8932 51.2152 38.793C50.3192 38.4986 49.7603 37.9311 49.6856 36.9562C49.6643 36.7236 49.5726 36.4932 49.5512 36.2628C49.4936 35.6612 49.4062 35.0575 49.4147 34.4474C49.4318 33.6516 49.9438 33.065 50.4195 32.4911C50.9785 31.8191 51.4926 31.1407 51.5438 30.2298C51.6056 29.0692 51.467 27.9322 51.1235 26.8164C50.6201 25.1716 49.82 23.7338 48.38 22.7119C47.9747 22.4239 47.5907 22.1039 47.2067 21.7818C46.8867 21.5108 46.6478 21.1098 46.7843 20.73C47.2963 19.2964 48.0366 18.0271 49.6729 17.641C51.3433 17.2463 52.9112 17.69 53.8179 19.29C54.2808 20.105 54.7352 20.937 55.2963 21.6836C56.2499 22.9508 57.5086 23.7466 59.1662 23.6527C59.7998 23.6164 60.4398 23.5332 61.0627 23.3988C62.0867 23.177 63.0275 22.7482 63.7742 21.9738C63.9896 21.7583 64.0536 21.5194 64.0622 21.2463C63.7294 21.5343 63.5011 21.8351 63.1918 22.01ZM22.0718 55.9514C22.1294 56.5572 21.8158 57.0138 21.3422 57.3722C20.924 57.6858 20.4547 57.9567 20.1048 58.3386C19.5118 58.985 19.4776 59.7892 19.6291 60.6938C19.0638 60.4783 18.7288 60.1028 18.5624 59.5759C18.539 59.5055 18.6222 59.3348 18.6968 59.2986C19.6867 58.8932 20.2051 58.0228 20.6296 57.146C21.0904 56.1988 21.3699 55.1578 21.7283 54.1594C21.7475 54.1146 21.7603 54.0612 21.7624 54.0484C21.8648 54.6628 22.0035 55.305 22.0718 55.9514ZM49.6729 39.0234C49.8947 38.9999 50.1592 39.1663 50.3875 39.2794C51.1427 39.6698 51.9299 39.9535 52.7769 40.0495C53.2163 40.0964 53.7411 40.6831 53.8627 41.2911C54.1187 42.5796 54.2552 43.8746 54.2062 45.1866C54.1614 46.458 54.187 47.721 54.091 48.9903C53.9865 50.458 53.7731 51.913 53.6281 53.3828C53.5257 54.3578 53.4531 55.3412 53.4062 56.3204C53.3699 57.1076 52.9198 57.5791 52.2776 57.8756C51.3816 58.2959 50.9443 58.9658 51.0041 59.9578C51.0126 60.0922 51.0041 60.233 51.0041 60.4207C50.3534 60.3866 49.995 60.0495 49.724 59.529C50.0526 59.2879 50.3918 59.0746 50.699 58.8122C51.612 58.0036 52.2478 56.9903 52.5913 55.834C52.9774 54.5263 53.3912 53.2058 53.5662 51.8639C53.7198 50.6522 53.579 49.3892 53.5534 48.1476C53.5363 47.6058 53.5107 47.0596 53.4339 46.522C53.2611 45.2719 53.1907 43.994 52.6787 42.7439C52.619 42.8655 52.5827 42.9295 52.5571 42.9658C52.491 42.5882 52.3993 42.2084 52.348 41.8074C52.3054 41.4319 52.1006 41.2783 51.7699 41.1418C50.9656 40.8175 50.1571 40.4847 49.4019 40.0772C48.6019 39.6442 48.2158 38.8762 48.1603 37.9887C48.1091 37.2292 48.1496 36.4506 48.1667 35.6932C48.3203 36.9818 48.1497 38.3428 48.971 39.4458C49.2398 39.2772 49.4446 39.0468 49.6729 39.0234ZM57.9438 23.2111C56.7384 22.8996 55.819 22.202 55.1534 21.1716C54.6478 20.3823 54.219 19.5482 53.7198 18.7524C53.1032 17.7626 52.2158 17.1588 51.0296 17.114C50.091 17.0735 49.2312 17.4831 48.395 17.9055C48.7363 17.0671 49.067 16.2394 49.4126 15.4159C49.8456 14.3663 49.8713 13.2527 49.916 12.1434C49.9289 11.8511 49.9544 11.561 49.9715 11.2687C50.059 10.1786 50.8782 9.5087 52.1518 9.35296C54.0099 9.1247 55.7891 9.48523 57.451 10.2362C59.2024 11.0298 60.5592 12.9818 59.9598 15.098C59.7678 15.7786 59.3048 16.4143 58.8632 16.9839C58.2851 17.7178 57.7582 18.4644 57.3507 19.3028C56.476 21.0735 57.5555 22.1807 58.8206 22.729C59.1107 22.8527 59.4286 22.9188 59.7379 22.985C60.0345 23.0468 60.3353 23.0703 60.6382 23.1087C59.7635 23.3604 58.8632 23.4458 57.9438 23.2111ZM13.8392 13.1418C13.7518 12.9455 13.6643 12.7492 13.5747 12.5551C13.1267 11.8874 12.54 11.2708 11.8744 10.7247C12.0878 11.0596 12.2456 11.4223 12.3096 11.8191C12.3651 12.1711 12.3758 12.5188 12.3544 12.8623C12.8003 13.8714 12.9176 14.9359 12.4099 16.0943C11.9043 17.2548 11.2366 18.2383 9.88832 18.4986C9.19498 18.633 8.13045 18.2639 8.20085 17.1759C8.23071 16.7364 8.19658 16.2799 8.11338 15.8468C7.97471 15.1066 7.85951 14.3535 7.23658 13.7924C6.94218 13.5322 6.76085 13.1802 6.76085 12.7236C6.75658 11.8938 6.87391 11.0959 7.14485 10.3172C7.20245 10.1551 7.23658 9.9823 7.27925 9.81376C7.23658 9.78603 7.18965 9.7391 7.14911 9.72843C6.77151 10.8975 6.36831 12.122 6.29578 13.3636C6.28085 13.5684 6.47498 13.85 6.65631 13.9994C7.91285 15.0319 8.24991 16.3311 7.87871 17.8756C7.72298 18.5199 7.31551 18.9999 6.94431 19.514C6.84831 19.6484 6.78431 19.849 6.80138 20.0068C6.83551 20.2628 6.94645 20.5082 7.02751 20.7556C7.13418 21.0735 7.35605 21.1759 7.67818 21.129C7.83391 21.1055 8.02378 21.0692 8.15391 21.1332C8.71071 21.4127 9.25258 21.3103 9.80512 21.146C10.2766 21.0074 10.4984 20.7044 10.571 20.2266C10.6776 19.5162 10.7758 18.81 11.3368 18.2596C12.1326 17.4703 12.7726 16.5572 13.2056 15.5183C13.5235 14.7567 13.9011 14.0058 13.8392 13.1418ZM7.76778 20.5956C7.74431 20.6298 7.50751 20.5956 7.48831 20.5444C7.43071 20.3994 7.43285 20.2308 7.40938 20.0218C7.61418 19.8298 7.78485 19.849 7.99818 20.0751C7.91711 20.2714 7.86378 20.4484 7.76778 20.5956ZM9.00298 14.554C8.67018 14.1018 8.38645 13.7604 8.16671 13.3807C8.08565 13.242 8.08565 12.9178 8.18378 12.8346C8.63818 12.4463 9.13738 12.1156 9.61312 11.77C9.59605 11.8234 9.59391 11.9407 9.53845 12.0132C9.31658 12.2991 9.36351 12.5295 9.61738 12.7684C9.67711 12.8239 9.66005 12.9754 9.65365 13.082C9.64511 13.1439 9.59178 13.2058 9.55125 13.2612C9.26752 13.6388 8.75765 13.8927 9.00298 14.554ZM6.53685 9.9183C6.54538 9.92043 6.55605 9.92896 6.57525 9.93536C6.64991 9.95243 6.67765 9.9631 6.73738 9.97803C6.74591 9.97803 6.85258 9.9951 6.86111 9.99723C6.95071 9.99723 6.98271 9.99936 7.07231 9.99723C7.08298 9.98656 7.09578 9.95456 7.10218 9.93963C7.12351 9.88203 7.19178 9.8479 7.27925 9.81376C7.26218 9.63456 7.38378 9.50656 7.56938 9.44896C7.73365 9.39776 7.92778 9.44043 8.10911 9.44043C8.11978 9.14176 7.93845 8.86016 7.64405 8.8047C7.36245 8.74923 7.06805 8.73216 6.78005 8.72576C6.22538 8.71083 5.81791 8.43776 5.61738 7.89163C5.68778 7.9279 5.73898 7.9407 5.77951 7.9727C6.06325 8.18176 6.36831 8.18816 6.69258 8.08576C6.99978 7.98976 7.30271 7.89163 7.60991 7.80416C7.69951 7.77856 8.00031 7.8383 8.10911 7.8255C8.09418 7.70176 7.85311 7.59083 7.71445 7.59723C7.42218 7.61003 7.13845 7.62283 6.86751 7.7551C6.55391 7.90656 6.22111 7.8639 5.89258 7.79563C5.78591 7.7743 5.67285 7.77856 5.52778 7.77003C5.38058 7.59083 5.28245 7.3007 4.96245 7.21536C5.10538 7.48416 5.26111 7.7487 5.38911 8.0239C5.58965 8.44203 5.92458 8.66816 6.35765 8.7791C6.42165 8.79616 6.48565 8.81323 6.58591 8.84096C6.35551 9.0159 6.12085 9.0479 5.89898 9.03723C5.71125 9.02656 5.51925 8.95616 5.33791 8.88576C5.13098 8.80256 4.93898 8.6895 4.74058 8.58923C4.72778 8.60843 4.71498 8.62763 4.70431 8.64683C4.76191 8.6831 4.83018 8.71296 4.87711 8.76203C5.03498 8.9135 5.19711 9.06496 5.33791 9.23136C5.62805 9.57483 5.98645 9.79243 6.41951 9.8927C6.46005 9.90123 6.49845 9.90976 6.53685 9.9183ZM5.67071 9.34443C5.63871 9.2975 5.63231 9.2335 5.61311 9.17803C5.67285 9.16523 5.73471 9.1375 5.79231 9.13963C5.95871 9.1439 6.12511 9.16736 6.29365 9.16523C6.45791 9.16523 6.62218 9.1375 6.81845 9.12043C6.79711 9.19296 6.79711 9.2335 6.77578 9.25483C6.44511 9.65803 6.05685 9.8735 5.67071 9.34443ZM9.68565 46.4303H11.1832C11.5971 46.4303 11.9299 46.7588 11.9299 47.1791H13.4275C13.4275 45.9418 12.4206 44.9306 11.1854 44.9306V43.4394H9.68565V44.9306C8.45258 44.9306 7.44565 45.9418 7.44565 47.1791V47.9258C7.44565 49.1631 8.45258 50.1743 9.68565 50.1743H11.1832C11.5971 50.1743 11.9299 50.505 11.9299 50.9252V51.6719C11.9299 52.0836 11.5971 52.4186 11.1832 52.4186H9.68565C9.27605 52.4186 8.93898 52.09 8.93898 51.6719H7.44565C7.44565 52.9092 8.45258 53.914 9.68565 53.914V55.4074H11.1832V53.914C12.4206 53.914 13.4254 52.9092 13.4254 51.6719V50.9252C13.4254 49.6879 12.4184 48.6788 11.1832 48.6788H9.68565C9.27605 48.6788 8.93898 48.346 8.93898 47.9258V47.1791C8.93898 46.7588 9.27605 46.4303 9.68565 46.4303Z" fill="#311C11"/>
<path d="M8.10911 7.8255C8.06005 7.82123 8.00245 7.82763 7.91925 7.81696C8.11978 7.48416 8.08565 7.46923 8.30538 7.14923C9.80938 4.96256 11.8019 3.4927 14.3939 2.7823C17.3464 1.97163 20.0088 2.52416 22.4835 4.23083C24.5955 5.68576 25.7518 7.7423 26.1912 10.2234C26.3662 11.2047 26.4024 12.2095 26.5454 13.1972C26.7779 14.8015 26.9336 16.4292 27.3347 17.9908C27.6526 19.2218 28.5998 20.0836 29.7432 20.6788C31.1598 21.4148 32.6489 22.0036 34.2041 22.3364C35.7273 22.6628 37.2931 22.7887 38.8569 22.5711C39.8787 22.4282 40.924 22.3663 41.9288 22.1274C43.5352 21.7434 44.9326 20.9455 46.0782 19.7252C47.4691 18.2404 48.1795 16.4527 48.5742 14.4879C48.8494 13.1268 48.6894 11.8127 48.3075 10.5135C47.9491 9.3039 48.4206 8.93056 49.2995 8.55083C50.3086 8.1199 51.3283 7.7615 52.4398 7.65696C53.643 7.54176 54.8227 7.5951 56.011 7.8447C57.5576 8.1711 58.859 8.92416 59.8979 10.0804C60.6403 10.8996 61.2057 11.8618 61.1758 13.0223C61.1395 14.4495 60.6638 15.7167 59.7465 16.8346C59.1598 17.5492 58.6051 18.3087 58.1678 19.1194C57.4681 20.4399 58.3043 21.7732 59.4094 22.1615C60.683 22.6116 61.9673 22.7055 63.1918 22.01C63.5011 21.8351 63.7294 21.5343 64.0622 21.2463C64.0536 21.5194 63.9896 21.7583 63.7742 21.9738C63.0275 22.7482 62.0867 23.177 61.0627 23.3988C60.4398 23.5332 59.7998 23.6164 59.1662 23.6527C57.5086 23.7466 56.2499 22.9508 55.2963 21.6836C54.7352 20.937 54.2808 20.105 53.8179 19.29C52.9112 17.69 51.3433 17.2463 49.6729 17.641C48.0366 18.0271 47.2963 19.2964 46.7843 20.73C46.6478 21.1098 46.8867 21.5108 47.2067 21.7818C47.5907 22.1039 47.9747 22.4239 48.38 22.7119C49.82 23.7338 50.6201 25.1716 51.1235 26.8164C51.467 27.9322 51.6056 29.0692 51.5438 30.2298C51.4926 31.1407 50.9785 31.8191 50.4195 32.4911C49.9438 33.065 49.4318 33.6516 49.4147 34.4474C49.4062 35.0575 49.4936 35.6612 49.5512 36.2628C49.5726 36.4932 49.6643 36.7236 49.6857 36.9562C49.7603 37.9311 50.3192 38.4986 51.2152 38.793C51.5395 38.8932 51.8659 39.0468 52.1987 39.1151C53.1673 39.3327 54.0035 39.8084 54.5923 40.5828C54.8654 40.937 54.9955 41.4575 55.0574 41.9204C55.1705 42.7482 55.2494 43.5866 55.2152 44.4186C55.1811 45.4106 55.0296 46.4047 54.9144 47.3967C54.8334 48.1562 54.7651 48.9156 54.6435 49.6687C54.4878 50.7034 54.2809 51.738 54.1017 52.7706C53.9459 53.6879 53.7731 54.5967 53.6558 55.5162C53.6131 55.8148 53.7475 56.1391 53.8094 56.4506C53.9054 56.9455 53.7539 57.3146 53.3315 57.5876C52.8985 57.8628 52.459 58.1274 52.0302 58.4026C51.5502 58.6991 51.3539 59.1492 51.3624 59.7146C51.3624 60.9178 51.2024 61.1012 49.9843 61.0564C49.3699 61.033 48.7705 60.8708 48.1689 60.7663C48.2734 60.0474 49.0456 59.29 49.6366 59.1172C49.9992 59.0084 50.4024 58.8143 50.667 58.5391C51.8851 57.2932 52.6168 55.7636 52.9347 54.0506C53.1608 52.8836 53.3891 51.7082 53.4211 50.5263C53.4595 48.5551 53.1374 46.6116 52.5977 44.7023C52.5486 44.5274 52.4995 44.3524 52.4632 44.1775C52.4334 44.0132 52.4398 43.849 52.4334 43.7551C52.0771 43.8831 51.7016 44.0154 51.3219 44.1498C50.5646 44.4228 49.7752 44.6426 49.0307 44.9711C47.2387 45.7711 45.5598 46.7674 44.0515 48.0388C42.2275 49.5727 40.7918 51.3967 39.9171 53.6431C39.6867 54.2426 39.612 54.8655 39.7571 55.514C39.8702 56.0388 39.627 56.3759 39.2024 56.6554C38.8654 56.8772 38.4707 57.0842 38.2723 57.3999C37.931 57.978 37.9267 58.6074 38.3726 59.1919C38.7608 59.7018 38.7566 60.0218 38.2723 60.4847C37.9416 60.8154 37.5278 61.0564 37.1374 61.321C36.9817 61.4276 36.8003 61.4959 36.5806 61.6026C36.523 61.4852 36.3886 61.3572 36.3971 61.2335C36.4291 60.6682 36.4483 60.0986 36.5635 59.5503C36.7384 58.6906 36.9816 57.8586 37.2056 57.018C37.66 55.3434 38.4024 53.786 39.2067 52.2586C40.1496 50.4602 41.3742 48.8708 42.684 47.3263C43.9939 45.7967 45.5342 44.5572 47.1576 43.4031C47.2216 43.3604 47.2856 43.3028 47.3795 43.226C46.603 43.1194 45.8734 43.0255 45.1395 42.921C42.3555 42.5391 40.1262 41.242 38.4814 38.9487C37.9438 38.1956 37.4296 37.4404 37.2846 36.5039C37.2419 36.2159 37.0094 36.25 36.796 36.2948C35.5544 36.5658 34.3235 36.8986 33.0691 37.0842C31.9704 37.2463 30.8419 37.3146 29.7304 37.2911C28.4568 37.274 27.1875 37.1247 25.9118 37.05C25.82 37.0436 25.6472 37.1695 25.6366 37.2484C25.4787 38.4474 25.3507 39.6463 25.1971 40.8474C25.067 41.8458 24.9774 42.8612 24.7555 43.8426C24.299 45.8842 23.7912 47.9151 23.2579 49.9418C22.9379 51.1514 22.5198 52.3418 22.1742 53.5428C21.9182 54.4474 22.14 55.3028 22.5262 56.1306C22.7331 56.5722 22.7054 56.826 22.3278 57.0927C21.8435 57.434 21.3507 57.769 20.8472 58.0804C20.1454 58.5178 19.6675 59.5418 19.8104 60.3738C19.8766 60.7514 19.7848 61.0138 19.3944 61.161C18.6051 61.449 17.8392 61.353 17.084 61.0458C16.9006 60.9732 16.8195 60.8282 16.939 60.6063C17.2974 59.9172 17.6856 59.305 18.5496 59.13C19.1811 58.9978 19.5438 58.4687 19.9128 57.9674C20.8302 56.7087 21.1992 55.2452 21.4936 53.7647C21.8456 51.9791 21.98 50.1764 21.9118 48.3567C21.8712 47.3284 21.7048 46.3215 21.1843 45.3999C20.9603 45.0031 20.8472 44.6127 21.227 44.186C21.9971 43.3284 21.9736 42.3407 21.6131 41.3039C21.2142 40.1562 20.747 39.0362 20.0451 38.0356C19.7998 37.69 19.4734 37.37 19.1256 37.1332C18.3512 36.5914 17.5086 36.2223 16.5678 36.0111C14.5432 35.5695 12.6104 34.8655 10.9379 33.594C9.64511 32.6148 8.48458 31.5076 7.69525 30.0612C7.58218 29.8543 7.43925 29.6644 7.30698 29.4682C7.26858 29.4127 7.21951 29.3572 7.10005 29.2122C7.12778 29.1738 7.15551 29.1354 7.18111 29.0948C7.43925 29.3359 7.74431 29.545 7.95125 29.8244C8.70858 30.8506 9.53418 31.8191 10.556 32.5807C12.188 33.7988 14.0419 34.5519 16.0494 34.8847C16.3054 34.9316 16.6958 34.8378 16.8515 34.6607C17.1096 34.3556 16.9262 34.0143 16.6531 33.7434C16.2094 33.2996 15.7912 32.841 15.3368 32.41C14.3256 31.4522 13.451 30.3812 12.6872 29.2186C12.1816 29.5599 11.6867 29.3722 11.2472 29.1652C10.0888 28.6191 9.01578 27.9322 8.13471 26.9871C7.88298 26.7162 7.66965 26.4047 7.39871 26.0612C7.05951 26.921 6.68831 27.6996 6.44511 28.5146C6.06538 29.7775 5.65365 31.0532 5.47445 32.3524C5.27605 33.7818 5.31871 35.2388 5.27818 36.6959C5.26965 37.0031 5.31658 37.3295 5.39765 37.6388C5.53418 38.1508 5.68138 38.6671 5.82858 39.1684C5.71125 39.2175 5.60458 39.2879 5.49365 39.3348C5.14378 38.1722 4.86858 36.9882 4.74911 35.7572C4.49525 33.1119 4.73631 30.5263 5.33151 27.9535C5.45098 27.4287 5.55765 26.9018 5.68991 26.3791C5.71765 26.2767 5.79231 26.1466 5.87978 26.106C6.24885 25.9354 6.63285 25.7988 7.00831 25.6346C7.22378 25.5407 7.41151 25.5044 7.52031 25.769C7.95978 26.8399 8.79605 27.5439 9.74965 28.1114C10.4195 28.5103 11.1278 28.8495 11.8403 29.1652C12.0451 29.2548 12.3246 29.178 12.6915 29.178C12.0195 28.2052 11.6995 27.2559 11.5331 26.249C11.2835 24.7428 11.3347 23.2559 11.8915 21.8223C11.9619 21.6388 12.2008 21.4788 12.3992 21.3978C13.6579 20.8772 14.7182 20.09 15.5886 19.0468C16.4334 18.0335 17.0542 16.9092 17.4062 15.6292C17.6323 14.8079 17.5107 14.0314 17.2078 13.2783C16.747 12.1434 14.908 11.9386 14.155 12.9156C14.0803 13.0159 13.948 13.0692 13.8392 13.1418M8.10911 7.8255C8.41205 7.43936 8.41631 7.45003 8.70645 7.05323C9.45311 6.03136 10.2808 5.07563 11.4136 4.48896C13.355 3.4799 15.42 2.95723 17.6387 3.22603C19.8638 3.49483 21.6984 4.39083 23.1043 6.23403C24.3459 7.86816 24.7427 9.71776 24.9368 11.6634C25.0563 12.8538 24.8942 14.0186 24.4184 15.1215C24.1731 15.689 23.947 16.2863 23.5864 16.7834C22.6648 18.0548 21.4488 18.9935 20.011 19.6378C19.6632 19.7935 19.3283 19.9748 18.987 20.1434C19.004 20.1775 19.019 20.2138 19.0318 20.2479C19.0915 20.2394 19.1534 20.2351 19.2088 20.218C19.8958 20.0068 20.5763 19.7551 21.2718 19.5844C22.2382 19.3498 23.211 19.0959 24.1987 18.9956C25.2163 18.8932 26.0355 19.4436 26.7971 20.0879C27.4328 20.6212 28.0686 21.178 28.7832 21.5876C30.9998 22.857 33.4446 23.3242 35.9619 23.3946C37.0243 23.4244 38.1038 23.3263 39.1662 23.2367C40.7107 23.1044 42.1955 22.7567 43.5907 22.0698C44.4291 21.6602 45.3486 21.5514 46.1998 21.7882C47.5779 22.1764 48.7022 23.1066 49.5576 24.2223C50.7374 25.7668 51.2984 27.5695 51.2622 29.545C51.2494 30.5434 50.9081 31.3946 50.1913 32.0772C49.6281 32.6191 49.0158 33.1034 48.4505 33.6367C47.8723 34.1786 47.2899 34.729 47.1427 35.5588C46.9486 36.6575 47.0275 37.737 47.4542 38.746C47.6568 39.2346 47.9427 39.7679 48.348 40.0623C49.0243 40.538 49.8136 40.8964 50.6008 41.1759C51.1811 41.3956 51.6142 41.6111 51.6803 42.3023C51.7187 42.7204 51.6014 43.0383 51.1939 43.1386C49.7411 43.5012 48.4824 44.2436 47.2003 44.9903C45.2803 46.1359 43.5459 47.5055 42.091 49.1972C41.3656 50.0484 40.8537 51.0938 40.2563 52.0516C39.5843 53.1332 39.2216 54.2959 39.324 55.5716C39.3646 55.994 39.1406 56.2884 38.859 56.5466C38.652 56.7343 38.4088 56.8708 38.187 57.0372C37.7198 57.37 37.5299 57.865 37.724 58.4175C37.8499 58.7588 38.0504 59.0746 38.2915 59.5204C37.82 59.546 37.404 59.5652 36.8963 59.5866C37.067 58.7268 37.2057 57.978 37.3678 57.2356C37.7859 55.3839 38.6222 53.705 39.4883 52.0346C40.1923 50.6884 41.1672 49.5236 42.0888 48.3247C43.196 46.8634 44.5273 45.6388 45.931 44.4975C46.4985 44.0346 47.1299 43.6527 47.723 43.2218C47.8105 43.1599 47.8638 43.0468 47.9192 42.985C47.307 42.857 46.7438 42.7439 46.1827 42.6415C44.811 42.3962 43.5608 41.8095 42.379 41.1439C40.9539 40.3375 39.9747 39.0639 39.3411 37.5514C38.9315 36.5722 38.6734 35.5503 38.8504 34.4836C38.9763 33.7668 39.1747 33.0607 39.3731 32.3567C39.8318 30.6991 40.0387 29.0458 39.3496 27.3903C39.1128 26.8122 38.7992 26.2767 38.3256 25.8479C38.3512 26.0591 38.4088 26.2532 38.507 26.4239C38.9187 27.1812 39.0296 28.0068 38.9955 28.8431C38.9315 30.3535 38.5624 31.7956 37.8243 33.1247C37.6259 33.4767 37.5256 33.8458 37.1992 34.1636C35.691 35.6228 33.8542 36.2052 31.836 36.3098C29.7859 36.4164 27.7699 36.1348 25.8072 35.5055C25.6835 35.4628 25.515 35.4799 25.4339 35.401C24.8131 34.8015 24.2307 34.185 23.8296 33.3914C23.2344 32.2052 23.0744 30.9487 23.228 29.673C23.3774 28.4292 23.9214 27.3114 24.6766 26.3066C24.7 26.2746 24.6851 26.2106 24.6936 26.0698C24.1368 26.5284 23.6952 26.97 23.3582 27.5183C22.5795 28.7812 22.2275 30.121 22.3299 31.6292C22.411 32.826 22.7246 33.9183 23.2899 34.9423C23.9875 36.2074 24.4184 37.5023 24.3054 38.9828C24.2094 40.1988 24.2819 41.4276 24.1923 42.6522C24.0984 43.9236 23.9448 45.1866 23.7315 46.441C23.5224 47.6506 23.2323 48.8538 22.9315 50.042C22.6542 51.1514 22.3171 52.2394 22.0035 53.3359C22.0696 52.7343 22.2083 52.1412 22.3064 51.5524C22.4494 50.6458 22.635 49.7412 22.6819 48.8388C22.795 46.7226 22.588 44.6255 22.1315 42.5476C21.8456 41.2484 21.4062 40.026 20.8259 38.8591C20.1496 37.4916 19.2366 36.2948 18.2638 35.1194C17.1246 33.7412 16.1112 32.2564 14.9806 30.8676C13.5192 29.0756 13.1736 27.0191 13.3678 24.8068C13.3763 24.7236 13.4339 24.6191 13.5022 24.5722C14.2488 24.0687 14.9976 23.5674 15.755 23.0788C15.9619 22.9444 16.1987 22.8548 16.5208 22.6991C16.3459 22.6586 16.299 22.6308 16.2712 22.6458C15.196 23.1599 14.1187 23.6698 13.0542 24.2052C12.9198 24.2735 12.8003 24.4655 12.7704 24.6191C12.6446 25.2122 12.5592 25.8116 12.4483 26.4836C12.2947 24.6831 12.8003 23.1322 13.9118 21.8074C14.7608 20.7919 15.6974 19.849 16.5848 18.8634C17.7432 17.5706 18.347 16.0495 18.2851 14.3108C18.268 13.6964 18.14 13.0948 17.7027 12.5786C16.9006 11.6378 15.8702 11.4692 14.748 11.6548C14.2424 11.738 13.8115 12.0495 13.5747 12.553C13.6643 12.7492 13.7518 12.9455 13.8392 13.1418M8.10911 7.8255C8.00031 7.8383 7.69951 7.77856 7.60991 7.80416C7.30271 7.89163 6.99978 7.98976 6.69258 8.08576C6.36831 8.18816 6.06325 8.18176 5.77951 7.9727C5.73898 7.9407 5.68778 7.9279 5.61738 7.89163C5.81791 8.43776 6.22538 8.71083 6.78005 8.72576C7.06805 8.73216 7.36245 8.74923 7.64405 8.8047C7.93845 8.86016 8.11978 9.14176 8.10911 9.44043C7.92778 9.44043 7.73365 9.39776 7.56938 9.44896C7.38378 9.50656 7.26218 9.63456 7.27925 9.81376M8.10911 7.8255C8.09418 7.70176 7.85311 7.59083 7.71445 7.59723C7.42218 7.61003 7.13845 7.62283 6.86751 7.7551C6.55391 7.90656 6.22111 7.8639 5.89258 7.79563C5.78591 7.7743 5.67285 7.77856 5.52778 7.77003C5.38058 7.59083 5.28245 7.3007 4.96245 7.21536C5.10538 7.48416 5.26111 7.7487 5.38911 8.0239C5.58965 8.44203 5.92458 8.66816 6.35765 8.7791C6.42165 8.79616 6.48565 8.81323 6.58591 8.84096C6.35551 9.0159 6.12085 9.0479 5.89898 9.03723C5.71125 9.02656 5.51925 8.95616 5.33791 8.88576C5.13098 8.80256 4.93898 8.6895 4.74058 8.58923C4.72778 8.60843 4.71498 8.62763 4.70431 8.64683C4.76191 8.6831 4.83018 8.71296 4.87711 8.76203C5.03498 8.9135 5.19711 9.06496 5.33791 9.23136C5.62805 9.57483 5.98645 9.79243 6.41951 9.8927C6.46005 9.90123 6.49845 9.90976 6.53685 9.9183C6.54538 9.92043 6.55605 9.92896 6.57525 9.93536C6.64991 9.95243 6.67765 9.9631 6.73738 9.97803C6.74591 9.97803 6.85258 9.9951 6.86111 9.99723C6.95071 9.99723 6.98271 9.99936 7.07231 9.99723C7.08298 9.98656 7.09578 9.95456 7.10218 9.93963C7.12351 9.88203 7.19178 9.8479 7.27925 9.81376M13.8392 13.1418C13.7518 12.9455 13.6643 12.7492 13.5747 12.5551C13.1267 11.8874 12.54 11.2708 11.8744 10.7247C12.0878 11.0596 12.2456 11.4223 12.3096 11.8191C12.3651 12.1711 12.3758 12.5188 12.3544 12.8623C12.8003 13.8714 12.9176 14.9359 12.4099 16.0943C11.9043 17.2548 11.2366 18.2383 9.88832 18.4986C9.19498 18.633 8.13045 18.2639 8.20085 17.1759C8.23071 16.7364 8.19658 16.2799 8.11338 15.8468C7.97471 15.1066 7.85951 14.3535 7.23658 13.7924C6.94218 13.5322 6.76085 13.1802 6.76085 12.7236C6.75658 11.8938 6.87391 11.0959 7.14485 10.3172C7.20245 10.1551 7.23658 9.9823 7.27925 9.81376M13.8392 13.1418C13.9011 14.0058 13.5235 14.7567 13.2056 15.5183C12.7726 16.5572 12.1326 17.4703 11.3368 18.2596C10.7758 18.81 10.6776 19.5162 10.571 20.2266C10.4984 20.7044 10.2766 21.0074 9.80512 21.146C9.25258 21.3103 8.71071 21.4127 8.15391 21.1332C8.02378 21.0692 7.83391 21.1055 7.67818 21.129C7.35605 21.1759 7.13418 21.0735 7.02751 20.7556C6.94645 20.5082 6.83551 20.2628 6.80138 20.0068C6.78431 19.849 6.84831 19.6484 6.94431 19.514C7.31551 18.9999 7.72298 18.5199 7.87871 17.8756C8.24991 16.3311 7.91285 15.0319 6.65631 13.9994C6.47498 13.85 6.28085 13.5684 6.29578 13.3636C6.36831 12.122 6.77151 10.8975 7.14911 9.72843C7.18965 9.7391 7.23658 9.78603 7.27925 9.81376M10.4344 38.9423C4.66165 38.9423 -0.0380859 43.642 -0.0380859 49.4148C-0.0380859 55.1876 4.66165 59.8895 10.4344 59.8895C16.2072 59.8895 20.9091 55.1876 20.9091 49.4148C20.9091 43.642 16.2072 38.9423 10.4344 38.9423ZM10.4344 41.2698C14.9486 41.2698 18.5795 44.9007 18.5795 49.4148C18.5795 53.929 14.9486 57.5578 10.4344 57.5578C5.92031 57.5578 2.28938 53.929 2.28938 49.4148C2.28938 44.9007 5.91818 41.2698 10.4344 41.2698ZM6.16778 39.0554C6.22111 39.034 6.27871 39.017 6.33418 39.0084C6.25951 38.9018 6.15925 38.8292 6.12511 38.697C5.96298 38.0804 5.82431 37.4468 5.78165 36.8175C5.63658 34.7652 6.09738 32.7834 6.58591 30.8122C6.70965 30.3215 6.87818 29.8394 7.05311 29.2698C6.89098 29.5023 6.71178 29.7327 6.65205 29.9908C6.32778 31.3882 6.02485 32.7919 5.78378 34.2042C5.65151 34.97 5.59391 35.7594 5.61951 36.5359C5.64511 37.2484 5.77951 37.9652 5.95871 38.6543C5.99498 38.793 6.07391 38.9252 6.16778 39.0554ZM22.0718 55.9514C22.1294 56.5572 21.8158 57.0138 21.3422 57.3722C20.924 57.6858 20.4547 57.9567 20.1048 58.3386C19.5118 58.985 19.4776 59.7892 19.6291 60.6938C19.0638 60.4783 18.7288 60.1028 18.5624 59.5759C18.539 59.5055 18.6222 59.3348 18.6968 59.2986C19.6867 58.8932 20.2051 58.0228 20.6296 57.146C21.0904 56.1988 21.3699 55.1578 21.7283 54.1594C21.7475 54.1146 21.7603 54.0612 21.7624 54.0484C21.8648 54.6628 22.0035 55.305 22.0718 55.9514ZM49.6729 39.0234C49.8947 38.9999 50.1592 39.1663 50.3875 39.2794C51.1427 39.6698 51.9299 39.9535 52.7769 40.0495C53.2163 40.0964 53.7411 40.6831 53.8627 41.2911C54.1187 42.5796 54.2553 43.8746 54.2062 45.1866C54.1614 46.458 54.187 47.721 54.091 48.9903C53.9864 50.458 53.7731 51.913 53.6281 53.3828C53.5257 54.3578 53.4531 55.3412 53.4062 56.3204C53.3699 57.1076 52.9198 57.5791 52.2776 57.8756C51.3816 58.2959 50.9443 58.9658 51.0041 59.9578C51.0126 60.0922 51.0041 60.233 51.0041 60.4207C50.3534 60.3866 49.995 60.0495 49.7241 59.529C50.0526 59.2879 50.3918 59.0746 50.699 58.8122C51.612 58.0036 52.2478 56.9903 52.5913 55.834C52.9774 54.5263 53.3912 53.2058 53.5662 51.8639C53.7198 50.6522 53.579 49.3892 53.5534 48.1476C53.5363 47.6058 53.5107 47.0596 53.4339 46.522C53.2611 45.2719 53.1907 43.994 52.6787 42.7439C52.619 42.8655 52.5827 42.9295 52.5571 42.9658C52.491 42.5882 52.3992 42.2084 52.348 41.8074C52.3054 41.4319 52.1006 41.2783 51.7699 41.1418C50.9656 40.8175 50.1571 40.4847 49.4019 40.0772C48.6019 39.6442 48.2158 38.8762 48.1603 37.9887C48.1091 37.2292 48.1496 36.4506 48.1667 35.6932C48.3203 36.9818 48.1496 38.3428 48.971 39.4458C49.2398 39.2772 49.4446 39.0468 49.6729 39.0234ZM57.9438 23.2111C56.7384 22.8996 55.819 22.202 55.1534 21.1716C54.6478 20.3823 54.219 19.5482 53.7198 18.7524C53.1032 17.7626 52.2158 17.1588 51.0296 17.114C50.091 17.0735 49.2312 17.4831 48.395 17.9055C48.7363 17.0671 49.067 16.2394 49.4126 15.4159C49.8457 14.3663 49.8713 13.2527 49.9161 12.1434C49.9289 11.8511 49.9544 11.561 49.9715 11.2687C50.059 10.1786 50.8782 9.5087 52.1518 9.35296C54.0099 9.1247 55.7891 9.48523 57.451 10.2362C59.2025 11.0298 60.5593 12.9818 59.9598 15.098C59.7678 15.7786 59.3048 16.4143 58.8632 16.9839C58.2851 17.7178 57.7582 18.4644 57.3507 19.3028C56.476 21.0735 57.5555 22.1807 58.8206 22.729C59.1107 22.8527 59.4286 22.9188 59.7379 22.985C60.0345 23.0468 60.3352 23.0703 60.6382 23.1087C59.7635 23.3604 58.8632 23.4458 57.9438 23.2111ZM7.76778 20.5956C7.74431 20.6298 7.50751 20.5956 7.48831 20.5444C7.43071 20.3994 7.43285 20.2308 7.40938 20.0218C7.61418 19.8298 7.78485 19.849 7.99818 20.0751C7.91711 20.2714 7.86378 20.4484 7.76778 20.5956ZM9.00298 14.554C8.67018 14.1018 8.38645 13.7604 8.16671 13.3807C8.08565 13.242 8.08565 12.9178 8.18378 12.8346C8.63818 12.4463 9.13738 12.1156 9.61311 11.77C9.59605 11.8234 9.59392 11.9407 9.53845 12.0132C9.31658 12.2991 9.36351 12.5295 9.61738 12.7684C9.67711 12.8239 9.66005 12.9754 9.65365 13.082C9.64512 13.1439 9.59178 13.2058 9.55125 13.2612C9.26752 13.6388 8.75765 13.8927 9.00298 14.554ZM5.67071 9.34443C5.63871 9.2975 5.63231 9.2335 5.61311 9.17803C5.67285 9.16523 5.73471 9.1375 5.79231 9.13963C5.95871 9.1439 6.12511 9.16736 6.29365 9.16523C6.45791 9.16523 6.62218 9.1375 6.81845 9.12043C6.79711 9.19296 6.79711 9.2335 6.77578 9.25483C6.44511 9.65803 6.05685 9.8735 5.67071 9.34443ZM9.68565 46.4303H11.1832C11.5971 46.4303 11.9299 46.7588 11.9299 47.1791H13.4275C13.4275 45.9418 12.4206 44.9306 11.1854 44.9306V43.4394H9.68565V44.9306C8.45258 44.9306 7.44565 45.9418 7.44565 47.1791V47.9258C7.44565 49.1631 8.45258 50.1743 9.68565 50.1743H11.1832C11.5971 50.1743 11.9299 50.505 11.9299 50.9252V51.6719C11.9299 52.0836 11.5971 52.4186 11.1832 52.4186H9.68565C9.27605 52.4186 8.93898 52.09 8.93898 51.6719H7.44565C7.44565 52.9092 8.45258 53.914 9.68565 53.914V55.4074H11.1832V53.914C12.4206 53.914 13.4254 52.9092 13.4254 51.6719V50.9252C13.4254 49.6879 12.4184 48.6788 11.1832 48.6788H9.68565C9.27605 48.6788 8.93898 48.346 8.93898 47.9258V47.1791C8.93898 46.7588 9.27605 46.4303 9.68565 46.4303Z" stroke="#311C11" stroke-width="0.25" stroke-miterlimit="10"/>
</g>
<defs>
<clipPath id="clip0_778_57247">
<rect width="64" height="64" fill="white"/>
</clipPath>
</defs>
</svg>
