<svg width="64" height="64" viewBox="0 0 64 64" fill="none" xmlns="http://www.w3.org/2000/svg">
<path d="M27.5137 13.4375V27.4375C27.5137 28.1279 28.0734 28.6875 28.7637 28.6875C29.4539 28.6875 30.0137 28.1279 30.0137 27.4375V13.4375C30.0137 12.7471 29.4539 12.1875 28.7637 12.1875C28.0734 12.1875 27.5137 12.7471 27.5137 13.4375Z" fill="#311C11"/>
<path d="M16.8934 28.6879H16.9043C17.5702 28.6833 18.1618 28.2566 18.3789 27.6178L22.9501 13.8577C23.1677 13.2026 22.8129 12.4949 22.1578 12.2773C21.5036 12.0599 20.7953 12.4143 20.5774 13.0694L16.8739 24.2177L12.9899 13.0279C12.7636 12.3759 12.0518 12.0306 11.3991 12.2569C10.7468 12.4833 10.4017 13.1956 10.6281 13.8478L15.4177 27.6463C15.6398 28.2706 16.2318 28.6879 16.8934 28.6879Z" fill="#311C11"/>
<path d="M37.0137 27.4375V22.5994C37.9088 22.5945 39.0605 22.589 39.6619 22.589C42.5723 22.589 44.9402 20.2559 44.9402 17.3883C44.9402 14.5206 42.5723 12.1875 39.6619 12.1875H35.7637C35.0734 12.1875 34.5137 12.7471 34.5137 13.4375V27.4375C34.5137 28.1279 35.0734 28.6875 35.7637 28.6875C36.4539 28.6875 37.0137 28.1279 37.0137 27.4375ZM42.44 17.3884C42.44 18.8524 41.1678 20.0891 39.6618 20.0891C39.0588 20.0891 37.9099 20.0945 37.0135 20.0994V14.6875H39.6618C41.1679 14.6875 42.44 15.9244 42.44 17.3884Z" fill="#311C11"/>
<path d="M10.5596 33.8125C10.5596 34.5027 11.1193 35.0625 11.8096 35.0625H43.6907C44.3809 35.0625 44.9407 34.5027 44.9407 33.8125C44.9407 33.1223 44.3809 32.5625 43.6907 32.5625H11.8096C11.1192 32.5625 10.5596 33.1223 10.5596 33.8125Z" fill="#311C11"/>
<path d="M63.4865 38.3149C63.0821 38.0199 62.5409 37.9946 62.1105 38.2507L56.5974 41.5323L55.4999 40.4278V8.62499C55.4999 5.73012 53.1448 3.375 50.2499 3.375H33.3746C32.6843 3.375 32.1246 3.93462 32.1246 4.625C32.1246 5.31537 32.6843 5.87499 33.3746 5.87499H50.2499C51.7663 5.87499 52.9999 7.10862 52.9999 8.62499V37.9118L51.4978 36.4001C51.2631 36.1639 50.9439 36.0312 50.611 36.0312C50.2782 36.0312 49.959 36.1641 49.7243 36.4001L44.6247 41.5323L39.1117 38.2507C38.6817 37.9947 38.1403 38.0201 37.7357 38.3149C37.3313 38.6098 37.1418 39.1177 37.2541 39.6054L37.6618 41.3749H5.24999C3.73362 41.3749 2.49999 40.1413 2.49999 38.6249V8.62499C2.49999 7.10862 3.73362 5.87499 5.24999 5.87499H22.125C22.8152 5.87499 23.375 5.31537 23.375 4.625C23.375 3.93462 22.8152 3.375 22.125 3.375H5.24999C2.35512 3.375 0 5.73025 0 8.62499V38.6249C0 41.5198 2.35512 43.8749 5.24999 43.8749H38.2377L40.3965 53.2472C39.2789 53.9573 38.535 55.2055 38.535 56.6249C38.535 58.8305 40.3294 60.6249 42.535 60.6249H58.6871C60.8928 60.6249 62.6871 58.8305 62.6871 56.6249C62.6871 55.2055 61.9434 53.9573 60.8256 53.2472L63.968 39.6053C64.0804 39.1177 63.8909 38.6098 63.4865 38.3149ZM58.6871 58.1249H42.535C41.7079 58.1249 41.035 57.452 41.035 56.6249C41.035 55.7978 41.7079 55.1249 42.535 55.1249H58.6871C59.5143 55.1249 60.1871 55.7978 60.1871 56.6249C60.1871 57.452 59.5143 58.1249 58.6871 58.1249ZM58.4035 52.6249H42.8187L40.3473 41.8954L44.1844 44.1794C44.6773 44.4729 45.3064 44.3932 45.7105 43.9864L50.6112 39.0546L55.5116 43.9864C55.9159 44.3932 56.5451 44.4729 57.0378 44.1794L60.875 41.8954L58.4035 52.6249Z" fill="#311C11"/>
<path d="M50.6113 44.6875C49.9211 44.6875 49.3613 45.2473 49.3613 45.9375V48.0625C49.3613 48.7527 49.9211 49.3125 50.6113 49.3125C51.3016 49.3125 51.8613 48.7527 51.8613 48.0625V45.9375C51.8613 45.2473 51.3016 44.6875 50.6113 44.6875Z" fill="#311C11"/>
<path d="M27.75 5.875C28.0788 5.875 28.4013 5.74125 28.6336 5.50875C28.8663 5.27625 29 4.95375 29 4.625C29 4.29625 28.8663 3.97375 28.6336 3.74125C28.4013 3.50875 28.0788 3.375 27.75 3.375C27.4212 3.375 27.0987 3.50875 26.8662 3.74125C26.6337 3.97375 26.5 4.29625 26.5 4.625C26.5 4.95375 26.6336 5.27625 26.8662 5.50875C27.0989 5.74125 27.4212 5.875 27.75 5.875Z" fill="#311C11"/>
</svg>
