<svg width="64" height="64" viewBox="0 0 64 64" fill="none" xmlns="http://www.w3.org/2000/svg">
<path d="M62.9334 51.1998C63.5225 51.1998 64 50.7223 64 50.1332C64 49.5441 63.5225 49.0666 62.9334 49.0666H59.7334V47.7023C59.7346 46.7831 59.1471 45.9666 58.2751 45.6757L53.3334 44.031V14.9332C53.3299 11.4 50.4665 8.5367 46.9334 8.5332H6.4C2.86688 8.5367 0.0035 11.4 0 14.9332V46.9332C0 49.2896 1.91025 51.1998 4.26662 51.1998H8.64C8.8045 51.9761 9.14175 52.7052 9.62663 53.3332H1.06662C0.4775 53.3332 0 53.8107 0 54.3998C0 54.989 0.4775 55.4665 1.06662 55.4665H37.3332C37.9224 55.4665 38.4 54.989 38.4 54.3998C38.4 53.8107 37.9224 53.3332 37.3332 53.3332H30.9056C31.3905 52.7052 31.7278 51.9761 31.8924 51.1998H59.7335V53.3332H41.6C41.0109 53.3332 40.5334 53.8107 40.5334 54.3998C40.5334 54.989 41.0109 55.4665 41.6 55.4665H62.9334C63.5225 55.4665 64 54.989 64 54.3998C64 53.8107 63.5225 53.3332 62.9334 53.3332H61.8667V51.1998H62.9334ZM57.6 47.7022V49.0665H52.7402C53.1241 48.4207 53.3289 47.6843 53.3334 46.9332V46.2803L57.6 47.7022ZM42.6666 49.0665V24.5332C42.6666 22.7658 41.234 21.3332 39.4666 21.3332H26.6666C24.8993 21.3332 23.4666 22.7658 23.4666 24.5332V40.5332H14.9333V19.1998H51.2V21.3331H48C46.2326 21.3331 44.8 22.7657 44.8 24.5331V25.5997C44.8 27.3671 46.2326 28.7997 48 28.7997H51.2V46.9331C51.2 48.1113 50.2449 49.0663 49.0667 49.0663L42.6666 49.0665ZM26.6666 44.7998C24.1331 44.803 21.9503 46.585 21.44 49.0665H19.0934C18.5886 46.5808 16.4031 44.7945 13.8667 44.7945C11.3302 44.7945 9.14475 46.5808 8.64013 49.0665H6.48537C7.01512 45.3962 10.1584 42.6708 13.8667 42.6666H26.6667C30.3751 42.6708 33.5184 45.3962 34.048 49.0665H31.8934C31.383 46.5851 29.2001 44.8031 26.6666 44.7998ZM19.0934 51.1998H21.44C21.6045 51.9761 21.9417 52.7052 22.4266 53.3332H18.1056C18.5909 52.7053 18.9285 51.9762 19.0934 51.1998ZM40.5334 30.9332H25.6V24.5332C25.6 23.9441 26.0776 23.4666 26.6667 23.4666H39.4668C40.0559 23.4666 40.5334 23.9441 40.5334 24.5332V30.9332ZM25.6 17.0665V10.6665H42.6666V17.0665H25.6ZM23.4666 17.0665H14.9333V10.6665H23.4666V17.0665ZM51.2 26.6665H48C47.4109 26.6665 46.9334 26.1888 46.9334 25.5997V24.5331C46.9334 23.944 47.4109 23.4665 48 23.4665H51.2V26.6665ZM51.2 14.9332V17.0665H44.8V10.6665H46.9333C49.2897 10.6665 51.2 12.5767 51.2 14.9332ZM6.4 10.6665H12.8V17.0665H2.13337V14.9332C2.13337 12.5767 4.04362 10.6665 6.4 10.6665ZM2.13337 46.9332V19.1998H12.8V40.5961C8.34763 41.1006 4.834 44.6142 4.32963 49.0666H4.26675C3.0885 49.0665 2.13337 48.1115 2.13337 46.9332ZM10.6666 50.1331C10.6666 48.8388 11.4462 47.6721 12.642 47.1768C13.8378 46.6814 15.2141 46.9552 16.1292 47.8705C17.0445 48.7856 17.3182 50.162 16.8229 51.3577C16.3275 52.5535 15.1607 53.3332 13.8665 53.3332C12.0994 53.3332 10.6666 51.9005 10.6666 50.1331ZM23.4666 50.1331C23.4666 48.8388 24.2463 47.6721 25.442 47.1768C26.6377 46.6814 28.0141 46.9552 28.9294 47.8705C29.8445 48.7856 30.1184 50.162 29.623 51.3577C29.1276 52.5535 27.9609 53.3332 26.6666 53.3332C24.8994 53.3332 23.4666 51.9005 23.4666 50.1331ZM36.2038 49.0665C35.6555 44.2115 31.5525 40.5402 26.6667 40.5331H25.6V33.0665H40.5334V49.0665H36.2038Z" fill="#311C11"/>
<path d="M37.3332 36.2666C36.7442 36.2666 36.2666 36.7442 36.2666 37.3332V39.4666C36.2666 40.0557 36.7442 40.5332 37.3332 40.5332C37.9224 40.5332 38.4 40.0557 38.4 39.4666V37.3332C38.4 36.7442 37.9224 36.2666 37.3332 36.2666Z" fill="#311C11"/>
</svg>
